<?xml version="1.0" encoding="UTF-8" standalone="no"?>
<!DOCTYPE svg PUBLIC "-//W3C//DTD SVG 1.1//EN"
 "http://www.w3.org/Graphics/SVG/1.1/DTD/svg11.dtd">
<!-- Generated by graphviz version 2.43.0 (0)
 -->
<!-- Title: iot::Message::getMessageType Pages: 1 -->
<svg width="555pt" height="94pt"
 viewBox="0.00 0.00 555.00 93.50" xmlns="http://www.w3.org/2000/svg" xmlns:xlink="http://www.w3.org/1999/xlink">
<g id="graph0" class="graph" transform="scale(1 1) rotate(0) translate(4 89.5)">
<title>iot::Message::getMessageType</title>
<!-- Node1 -->
<g id="Node000001" class="node">
<title>Node1</title>
<g id="a_Node000001"><a xlink:title=" ">
<polygon fill="#999999" stroke="#666666" points="547,-37 380,-37 380,-18 547,-18 547,-37"/>
<text text-anchor="middle" x="463.5" y="-25" font-family="Helvetica,sans-Serif" font-size="10.00">iot::Message::getMessageType</text>
</a>
</g>
</g>
<!-- Node2 -->
<g id="Node000002" class="node">
<title>Node2</title>
<g id="a_Node000002"><a xlink:href="../../d6/da8/classiot_1_1Sensor.html#a661faef89fe1817bcceccdc5e16b7c8a" target="_top" xlink:title=" ">
<polygon fill="white" stroke="#666666" points="340,-56 206,-56 206,-37 340,-37 340,-56"/>
<text text-anchor="middle" x="273" y="-44" font-family="Helvetica,sans-Serif" font-size="10.00">iot::Sensor::receiveData</text>
</a>
</g>
</g>
<!-- Node1&#45;&gt;Node2 -->
<g id="edge1_Node000001_Node000002" class="edge">
<title>Node1&#45;&gt;Node2</title>
<g id="a_edge1_Node000001_Node000002"><a xlink:title=" ">
<path fill="none" stroke="#63b8ff" d="M369.84,-36.84C359.83,-37.85 349.8,-38.86 340.2,-39.83"/>
<polygon fill="#63b8ff" stroke="#63b8ff" points="370.22,-40.32 379.82,-35.83 369.52,-33.35 370.22,-40.32"/>
</a>
</g>
</g>
<!-- Node5 -->
<g id="Node000005" class="node">
<title>Node5</title>
<g id="a_Node000005"><a xlink:href="../../db/d52/classiot_1_1Actuator.html#ad0f1556bf64c24485106ae6b063c3a8c" target="_top" xlink:title=" ">
<polygon fill="white" stroke="#666666" points="344,-19 202,-19 202,0 344,0 344,-19"/>
<text text-anchor="middle" x="273" y="-7" font-family="Helvetica,sans-Serif" font-size="10.00">iot::Actuator::receiveData</text>
</a>
</g>
</g>
<!-- Node1&#45;&gt;Node5 -->
<g id="edge4_Node000001_Node000005" class="edge">
<title>Node1&#45;&gt;Node5</title>
<g id="a_edge4_Node000001_Node000005"><a xlink:title=" ">
<path fill="none" stroke="#63b8ff" d="M369.76,-18.64C361.17,-17.82 352.57,-17 344.23,-16.21"/>
<polygon fill="#63b8ff" stroke="#63b8ff" points="369.53,-22.14 379.82,-19.6 370.2,-15.17 369.53,-22.14"/>
</a>
</g>
</g>
<!-- Node3 -->
<g id="Node000003" class="node">
<title>Node3</title>
<g id="a_Node000003"><a xlink:href="../../df/d56/classiot_1_1BatteryTemperatureSensor.html#af3d106ea1ee1822d7714f757f542a9b8" target="_top" xlink:title=" ">
<polygon fill="white" stroke="#666666" points="166,-85.5 0,-85.5 0,-55.5 166,-55.5 166,-85.5"/>
<text text-anchor="start" x="8" y="-73.5" font-family="Helvetica,sans-Serif" font-size="10.00">iot::BatteryTemperatureSensor</text>
<text text-anchor="middle" x="83" y="-62.5" font-family="Helvetica,sans-Serif" font-size="10.00">::receiveData</text>
</a>
</g>
</g>
<!-- Node2&#45;&gt;Node3 -->
<g id="edge2_Node000002_Node000003" class="edge">
<title>Node2&#45;&gt;Node3</title>
<g id="a_edge2_Node000002_Node000003"><a xlink:title=" ">
<path fill="none" stroke="#63b8ff" d="M195.86,-56.22C186.04,-57.47 175.95,-58.76 166.04,-60.03"/>
<polygon fill="#63b8ff" stroke="#63b8ff" points="196.51,-59.67 205.98,-54.93 195.62,-52.72 196.51,-59.67"/>
</a>
</g>
</g>
<!-- Node4 -->
<g id="Node000004" class="node">
<title>Node4</title>
<g id="a_Node000004"><a xlink:href="../../d3/d05/classiot_1_1BatteryMotionSensor.html#ad0cc1fc090139120f1898068bb211497" target="_top" xlink:title=" ">
<polygon fill="white" stroke="#666666" points="152,-37.5 14,-37.5 14,-7.5 152,-7.5 152,-37.5"/>
<text text-anchor="start" x="22" y="-25.5" font-family="Helvetica,sans-Serif" font-size="10.00">iot::BatteryMotionSensor</text>
<text text-anchor="middle" x="83" y="-14.5" font-family="Helvetica,sans-Serif" font-size="10.00">::receiveData</text>
</a>
</g>
</g>
<!-- Node2&#45;&gt;Node4 -->
<g id="edge3_Node000002_Node000004" class="edge">
<title>Node2&#45;&gt;Node4</title>
<g id="a_edge3_Node000002_Node000004"><a xlink:title=" ">
<path fill="none" stroke="#63b8ff" d="M196.03,-36.8C181.49,-34.95 166.36,-33.01 152.09,-31.19"/>
<polygon fill="#63b8ff" stroke="#63b8ff" points="195.62,-40.28 205.98,-38.07 196.51,-33.33 195.62,-40.28"/>
</a>
</g>
</g>
</g>
</svg>
