<?xml version="1.0" encoding="UTF-8" standalone="no"?>
<!DOCTYPE svg PUBLIC "-//W3C//DTD SVG 1.1//EN"
 "http://www.w3.org/Graphics/SVG/1.1/DTD/svg11.dtd">
<!-- Generated by graphviz version 2.43.0 (0)
 -->
<!-- Title: src/devices/BatterySensors.cpp Pages: 1 -->
<svg width="612pt" height="258pt"
 viewBox="0.00 0.00 612.00 258.00" xmlns="http://www.w3.org/2000/svg" xmlns:xlink="http://www.w3.org/1999/xlink">
<g id="graph0" class="graph" transform="scale(1 1) rotate(0) translate(4 254)">
<title>src/devices/BatterySensors.cpp</title>
<!-- Node1 -->
<g id="Node000001" class="node">
<title>Node1</title>
<g id="a_Node000001"><a xlink:title=" ">
<polygon fill="#999999" stroke="#666666" points="563.5,-250 394.5,-250 394.5,-231 563.5,-231 563.5,-250"/>
<text text-anchor="middle" x="479" y="-238" font-family="Helvetica,sans-Serif" font-size="10.00">src/devices/BatterySensors.cpp</text>
</a>
</g>
</g>
<!-- Node2 -->
<g id="Node000002" class="node">
<title>Node2</title>
<g id="a_Node000002"><a xlink:href="../../d2/d1e/BatterySensors_8h.html" target="_top" xlink:title=" ">
<polygon fill="white" stroke="#666666" points="375,-195 265,-195 265,-165 375,-165 375,-195"/>
<text text-anchor="start" x="273" y="-183" font-family="Helvetica,sans-Serif" font-size="10.00">../../include/devices</text>
<text text-anchor="middle" x="320" y="-172" font-family="Helvetica,sans-Serif" font-size="10.00">/BatterySensors.h</text>
</a>
</g>
</g>
<!-- Node1&#45;&gt;Node2 -->
<g id="edge1_Node000001_Node000002" class="edge">
<title>Node1&#45;&gt;Node2</title>
<g id="a_edge1_Node000001_Node000002"><a xlink:title=" ">
<path fill="none" stroke="#63b8ff" d="M455.88,-230.99C432.9,-222.54 396.96,-209.32 367.82,-198.59"/>
<polygon fill="#63b8ff" stroke="#63b8ff" points="368.82,-195.23 358.23,-195.06 366.4,-201.8 368.82,-195.23"/>
</a>
</g>
</g>
<!-- Node7 -->
<g id="Node000007" class="node">
<title>Node7</title>
<g id="a_Node000007"><a xlink:title=" ">
<polygon fill="#e0e0e0" stroke="#999999" points="351,-19 301,-19 301,0 351,0 351,-19"/>
<text text-anchor="middle" x="326" y="-7" font-family="Helvetica,sans-Serif" font-size="10.00">chrono</text>
</a>
</g>
</g>
<!-- Node1&#45;&gt;Node7 -->
<g id="edge18_Node000001_Node000007" class="edge">
<title>Node1&#45;&gt;Node7</title>
<g id="a_edge18_Node000001_Node000007"><a xlink:title=" ">
<path fill="none" stroke="#63b8ff" d="M477,-230.97C468.69,-195.59 437,-61.95 431,-55 413.19,-34.37 384.18,-23.06 361.16,-17.01"/>
<polygon fill="#63b8ff" stroke="#63b8ff" points="361.93,-13.6 351.39,-14.66 360.3,-20.41 361.93,-13.6"/>
</a>
</g>
</g>
<!-- Node12 -->
<g id="Node000012" class="node">
<title>Node12</title>
<g id="a_Node000012"><a xlink:title=" ">
<polygon fill="#e0e0e0" stroke="#999999" points="538,-189.5 478,-189.5 478,-170.5 538,-170.5 538,-189.5"/>
<text text-anchor="middle" x="508" y="-177.5" font-family="Helvetica,sans-Serif" font-size="10.00">iostream</text>
</a>
</g>
</g>
<!-- Node1&#45;&gt;Node12 -->
<g id="edge16_Node000001_Node000012" class="edge">
<title>Node1&#45;&gt;Node12</title>
<g id="a_edge16_Node000001_Node000012"><a xlink:title=" ">
<path fill="none" stroke="#63b8ff" d="M483.28,-230.87C487.43,-222.49 493.87,-209.51 499.13,-198.89"/>
<polygon fill="#63b8ff" stroke="#63b8ff" points="502.4,-200.18 503.7,-189.67 496.13,-197.07 502.4,-200.18"/>
</a>
</g>
</g>
<!-- Node13 -->
<g id="Node000013" class="node">
<title>Node13</title>
<g id="a_Node000013"><a xlink:title=" ">
<polygon fill="#e0e0e0" stroke="#999999" points="604,-189.5 556,-189.5 556,-170.5 604,-170.5 604,-189.5"/>
<text text-anchor="middle" x="580" y="-177.5" font-family="Helvetica,sans-Serif" font-size="10.00">thread</text>
</a>
</g>
</g>
<!-- Node1&#45;&gt;Node13 -->
<g id="edge17_Node000001_Node000013" class="edge">
<title>Node1&#45;&gt;Node13</title>
<g id="a_edge17_Node000001_Node000013"><a xlink:title=" ">
<path fill="none" stroke="#63b8ff" d="M493.9,-230.87C510.31,-221.36 536.93,-205.95 556.23,-194.77"/>
<polygon fill="#63b8ff" stroke="#63b8ff" points="558.14,-197.71 565.04,-189.67 554.63,-191.65 558.14,-197.71"/>
</a>
</g>
</g>
<!-- Node3 -->
<g id="Node000003" class="node">
<title>Node3</title>
<g id="a_Node000003"><a xlink:href="../../d5/d65/Sensor_8h.html" target="_top" xlink:title=" ">
<polygon fill="white" stroke="#666666" points="247,-129 189,-129 189,-110 247,-110 247,-129"/>
<text text-anchor="middle" x="218" y="-117" font-family="Helvetica,sans-Serif" font-size="10.00">Sensor.h</text>
</a>
</g>
</g>
<!-- Node2&#45;&gt;Node3 -->
<g id="edge2_Node000002_Node000003" class="edge">
<title>Node2&#45;&gt;Node3</title>
<g id="a_edge2_Node000002_Node000003"><a xlink:title=" ">
<path fill="none" stroke="#63b8ff" d="M295.57,-164.99C279.31,-155.66 258.05,-143.47 241.9,-134.21"/>
<polygon fill="#63b8ff" stroke="#63b8ff" points="243.48,-131.08 233.06,-129.14 240,-137.15 243.48,-131.08"/>
</a>
</g>
</g>
<!-- Node10 -->
<g id="Node000010" class="node">
<title>Node10</title>
<g id="a_Node000010"><a xlink:title=" ">
<polygon fill="#e0e0e0" stroke="#999999" points="300,-74 246,-74 246,-55 300,-55 300,-74"/>
<text text-anchor="middle" x="273" y="-62" font-family="Helvetica,sans-Serif" font-size="10.00">random</text>
</a>
</g>
</g>
<!-- Node2&#45;&gt;Node10 -->
<g id="edge15_Node000002_Node000010" class="edge">
<title>Node2&#45;&gt;Node10</title>
<g id="a_edge15_Node000002_Node000010"><a xlink:title=" ">
<path fill="none" stroke="#63b8ff" d="M314.05,-164.63C305.52,-144.03 289.82,-106.12 280.51,-83.63"/>
<polygon fill="#63b8ff" stroke="#63b8ff" points="283.67,-82.13 276.61,-74.23 277.21,-84.81 283.67,-82.13"/>
</a>
</g>
</g>
<!-- Node11 -->
<g id="Node000011" class="node">
<title>Node11</title>
<g id="a_Node000011"><a xlink:href="../../da/da2/BatteryManager_8h.html" target="_top" xlink:title=" ">
<polygon fill="white" stroke="#666666" points="422,-74 318,-74 318,-55 422,-55 422,-74"/>
<text text-anchor="middle" x="370" y="-62" font-family="Helvetica,sans-Serif" font-size="10.00">BatteryManager.h</text>
</a>
</g>
</g>
<!-- Node2&#45;&gt;Node11 -->
<g id="edge12_Node000002_Node000011" class="edge">
<title>Node2&#45;&gt;Node11</title>
<g id="a_edge12_Node000002_Node000011"><a xlink:title=" ">
<path fill="none" stroke="#63b8ff" d="M326.33,-164.63C335.41,-144.03 352.1,-106.12 362.01,-83.63"/>
<polygon fill="#63b8ff" stroke="#63b8ff" points="365.33,-84.79 366.15,-74.23 358.92,-81.97 365.33,-84.79"/>
</a>
</g>
</g>
<!-- Node4 -->
<g id="Node000004" class="node">
<title>Node4</title>
<g id="a_Node000004"><a xlink:href="../../de/daa/IoTDevice_8h.html" target="_top" xlink:title=" ">
<polygon fill="white" stroke="#666666" points="227.5,-74 120.5,-74 120.5,-55 227.5,-55 227.5,-74"/>
<text text-anchor="middle" x="174" y="-62" font-family="Helvetica,sans-Serif" font-size="10.00">../core/IoTDevice.h</text>
</a>
</g>
</g>
<!-- Node3&#45;&gt;Node4 -->
<g id="edge3_Node000003_Node000004" class="edge">
<title>Node3&#45;&gt;Node4</title>
<g id="a_edge3_Node000003_Node000004"><a xlink:title=" ">
<path fill="none" stroke="#63b8ff" d="M210.73,-109.75C204.46,-102.18 195.21,-91.05 187.57,-81.84"/>
<polygon fill="#63b8ff" stroke="#63b8ff" points="190.21,-79.55 181.13,-74.09 184.83,-84.02 190.21,-79.55"/>
</a>
</g>
</g>
<!-- Node8 -->
<g id="Node000008" class="node">
<title>Node8</title>
<g id="a_Node000008"><a xlink:href="../../d5/dca/Message_8h.html" target="_top" xlink:title=" ">
<polygon fill="white" stroke="#666666" points="102,-74 0,-74 0,-55 102,-55 102,-74"/>
<text text-anchor="middle" x="51" y="-62" font-family="Helvetica,sans-Serif" font-size="10.00">../core/Message.h</text>
</a>
</g>
</g>
<!-- Node3&#45;&gt;Node8 -->
<g id="edge7_Node000003_Node000008" class="edge">
<title>Node3&#45;&gt;Node8</title>
<g id="a_edge7_Node000003_Node000008"><a xlink:title=" ">
<path fill="none" stroke="#63b8ff" d="M191.17,-109.98C163.13,-101.09 118.95,-87.07 87.7,-77.15"/>
<polygon fill="#63b8ff" stroke="#63b8ff" points="88.63,-73.77 78.04,-74.08 86.51,-80.44 88.63,-73.77"/>
</a>
</g>
</g>
<!-- Node3&#45;&gt;Node10 -->
<g id="edge11_Node000003_Node000010" class="edge">
<title>Node3&#45;&gt;Node10</title>
<g id="a_edge11_Node000003_Node000010"><a xlink:title=" ">
<path fill="none" stroke="#63b8ff" d="M227.08,-109.75C235.09,-102.03 246.96,-90.6 256.62,-81.28"/>
<polygon fill="#63b8ff" stroke="#63b8ff" points="259.31,-83.55 264.09,-74.09 254.46,-78.51 259.31,-83.55"/>
</a>
</g>
</g>
<!-- Node5 -->
<g id="Node000005" class="node">
<title>Node5</title>
<g id="a_Node000005"><a xlink:title=" ">
<polygon fill="#e0e0e0" stroke="#999999" points="164,-19 120,-19 120,0 164,0 164,-19"/>
<text text-anchor="middle" x="142" y="-7" font-family="Helvetica,sans-Serif" font-size="10.00">string</text>
</a>
</g>
</g>
<!-- Node4&#45;&gt;Node5 -->
<g id="edge4_Node000004_Node000005" class="edge">
<title>Node4&#45;&gt;Node5</title>
<g id="a_edge4_Node000004_Node000005"><a xlink:title=" ">
<path fill="none" stroke="#63b8ff" d="M168.72,-54.75C164.29,-47.42 157.84,-36.73 152.38,-27.7"/>
<polygon fill="#63b8ff" stroke="#63b8ff" points="155.35,-25.84 147.19,-19.09 149.36,-29.46 155.35,-25.84"/>
</a>
</g>
</g>
<!-- Node6 -->
<g id="Node000006" class="node">
<title>Node6</title>
<g id="a_Node000006"><a xlink:title=" ">
<polygon fill="#e0e0e0" stroke="#999999" points="240,-19 182,-19 182,0 240,0 240,-19"/>
<text text-anchor="middle" x="211" y="-7" font-family="Helvetica,sans-Serif" font-size="10.00">memory</text>
</a>
</g>
</g>
<!-- Node4&#45;&gt;Node6 -->
<g id="edge5_Node000004_Node000006" class="edge">
<title>Node4&#45;&gt;Node6</title>
<g id="a_edge5_Node000004_Node000006"><a xlink:title=" ">
<path fill="none" stroke="#63b8ff" d="M180.11,-54.75C185.28,-47.34 192.85,-36.5 199.19,-27.41"/>
<polygon fill="#63b8ff" stroke="#63b8ff" points="202.15,-29.29 205,-19.09 196.41,-25.29 202.15,-29.29"/>
</a>
</g>
</g>
<!-- Node4&#45;&gt;Node7 -->
<g id="edge6_Node000004_Node000007" class="edge">
<title>Node4&#45;&gt;Node7</title>
<g id="a_edge6_Node000004_Node000007"><a xlink:title=" ">
<path fill="none" stroke="#63b8ff" d="M198.42,-54.98C223.72,-46.16 263.45,-32.31 291.86,-22.41"/>
<polygon fill="#63b8ff" stroke="#63b8ff" points="293.1,-25.68 301.39,-19.08 290.79,-19.07 293.1,-25.68"/>
</a>
</g>
</g>
<!-- Node8&#45;&gt;Node5 -->
<g id="edge8_Node000008_Node000005" class="edge">
<title>Node8&#45;&gt;Node5</title>
<g id="a_edge8_Node000008_Node000005"><a xlink:title=" ">
<path fill="none" stroke="#63b8ff" d="M65.62,-54.98C79.86,-46.69 101.75,-33.94 118.45,-24.22"/>
<polygon fill="#63b8ff" stroke="#63b8ff" points="120.23,-27.23 127.11,-19.17 116.71,-21.18 120.23,-27.23"/>
</a>
</g>
</g>
<!-- Node8&#45;&gt;Node7 -->
<g id="edge9_Node000008_Node000007" class="edge">
<title>Node8&#45;&gt;Node7</title>
<g id="a_edge9_Node000008_Node000007"><a xlink:title=" ">
<path fill="none" stroke="#63b8ff" d="M95.18,-54.98C149.61,-44.49 240.98,-26.88 290.88,-17.27"/>
<polygon fill="#63b8ff" stroke="#63b8ff" points="291.71,-20.67 300.87,-15.34 290.38,-13.8 291.71,-20.67"/>
</a>
</g>
</g>
<!-- Node9 -->
<g id="Node000009" class="node">
<title>Node9</title>
<g id="a_Node000009"><a xlink:title=" ">
<polygon fill="#e0e0e0" stroke="#999999" points="70,-19 32,-19 32,0 70,0 70,-19"/>
<text text-anchor="middle" x="51" y="-7" font-family="Helvetica,sans-Serif" font-size="10.00">map</text>
</a>
</g>
</g>
<!-- Node8&#45;&gt;Node9 -->
<g id="edge10_Node000008_Node000009" class="edge">
<title>Node8&#45;&gt;Node9</title>
<g id="a_edge10_Node000008_Node000009"><a xlink:title=" ">
<path fill="none" stroke="#63b8ff" d="M51,-54.75C51,-47.8 51,-37.85 51,-29.13"/>
<polygon fill="#63b8ff" stroke="#63b8ff" points="54.5,-29.09 51,-19.09 47.5,-29.09 54.5,-29.09"/>
</a>
</g>
</g>
<!-- Node11&#45;&gt;Node5 -->
<g id="edge14_Node000011_Node000005" class="edge">
<title>Node11&#45;&gt;Node5</title>
<g id="a_edge14_Node000011_Node000005"><a xlink:title=" ">
<path fill="none" stroke="#63b8ff" d="M329.88,-55C292.09,-46.86 233.66,-33.97 174.25,-19.23"/>
<polygon fill="#63b8ff" stroke="#63b8ff" points="174.87,-15.78 164.32,-16.75 173.17,-22.57 174.87,-15.78"/>
</a>
</g>
</g>
<!-- Node11&#45;&gt;Node7 -->
<g id="edge13_Node000011_Node000007" class="edge">
<title>Node11&#45;&gt;Node7</title>
<g id="a_edge13_Node000011_Node000007"><a xlink:title=" ">
<path fill="none" stroke="#63b8ff" d="M362.73,-54.75C356.46,-47.18 347.21,-36.05 339.57,-26.84"/>
<polygon fill="#63b8ff" stroke="#63b8ff" points="342.21,-24.55 333.13,-19.09 336.83,-29.02 342.21,-24.55"/>
</a>
</g>
</g>
</g>
</svg>
