<?xml version="1.0" encoding="UTF-8" standalone="no"?>
<!DOCTYPE svg PUBLIC "-//W3C//DTD SVG 1.1//EN"
 "http://www.w3.org/Graphics/SVG/1.1/DTD/svg11.dtd">
<!-- Generated by graphviz version 2.43.0 (0)
 -->
<!-- Title: iot::Actuator Pages: 1 -->
<svg width="340pt" height="602pt"
 viewBox="0.00 0.00 339.50 602.00" xmlns="http://www.w3.org/2000/svg" xmlns:xlink="http://www.w3.org/1999/xlink">
<g id="graph0" class="graph" transform="scale(1 1) rotate(0) translate(4 598)">
<title>iot::Actuator</title>
<!-- Node1 -->
<g id="Node000001" class="node">
<title>Node1</title>
<g id="a_Node000001"><a xlink:title=" ">
<polygon fill="#999999" stroke="transparent" points="207.5,-299 119.5,-299 119.5,-160 207.5,-160 207.5,-299"/>
<text text-anchor="start" x="133" y="-286.5" font-family="Helvetica,sans-Serif" font-size="10.00">iot::Actuator</text>
<text text-anchor="start" x="123.5" y="-271.5" font-family="Helvetica,sans-Serif" font-size="10.00">#</text>
<text text-anchor="start" x="136.5" y="-271.5" font-family="Helvetica,sans-Serif" font-size="10.00">state</text>
<text text-anchor="start" x="123.5" y="-256.5" font-family="Helvetica,sans-Serif" font-size="10.00">+</text>
<text text-anchor="start" x="136.5" y="-256.5" font-family="Helvetica,sans-Serif" font-size="10.00">Actuator()</text>
<text text-anchor="start" x="123.5" y="-241.5" font-family="Helvetica,sans-Serif" font-size="10.00">+</text>
<text text-anchor="start" x="136.5" y="-241.5" font-family="Helvetica,sans-Serif" font-size="10.00">~Actuator()</text>
<text text-anchor="start" x="123.5" y="-226.5" font-family="Helvetica,sans-Serif" font-size="10.00">+</text>
<text text-anchor="start" x="136.5" y="-226.5" font-family="Helvetica,sans-Serif" font-size="10.00">sendData()</text>
<text text-anchor="start" x="123.5" y="-211.5" font-family="Helvetica,sans-Serif" font-size="10.00">+</text>
<text text-anchor="start" x="136.5" y="-211.5" font-family="Helvetica,sans-Serif" font-size="10.00">receiveData()</text>
<text text-anchor="start" x="123.5" y="-196.5" font-family="Helvetica,sans-Serif" font-size="10.00">+</text>
<text text-anchor="start" x="136.5" y="-196.5" font-family="Helvetica,sans-Serif" font-size="10.00">setState()</text>
<text text-anchor="start" x="123.5" y="-181.5" font-family="Helvetica,sans-Serif" font-size="10.00">+</text>
<text text-anchor="start" x="136.5" y="-181.5" font-family="Helvetica,sans-Serif" font-size="10.00">getState()</text>
<text text-anchor="start" x="123.5" y="-166.5" font-family="Helvetica,sans-Serif" font-size="10.00">+</text>
<text text-anchor="start" x="136.5" y="-166.5" font-family="Helvetica,sans-Serif" font-size="10.00">toggle()</text>
<polygon fill="#666666" stroke="#666666" points="119.5,-281.5 119.5,-281.5 207.5,-281.5 207.5,-281.5 119.5,-281.5"/>
<polygon fill="#666666" stroke="#666666" points="119.5,-266.5 119.5,-266.5 134.5,-266.5 134.5,-266.5 119.5,-266.5"/>
<polygon fill="#666666" stroke="#666666" points="134.5,-266.5 134.5,-266.5 207.5,-266.5 207.5,-266.5 134.5,-266.5"/>
<polygon fill="none" stroke="#666666" points="119.5,-160 119.5,-299 207.5,-299 207.5,-160 119.5,-160"/>
</a>
</g>
</g>
<!-- Node3 -->
<g id="Node000003" class="node">
<title>Node3</title>
<g id="a_Node000003"><a xlink:href="../../d3/dd6/classiot_1_1LED.html" target="_top" xlink:title="LED Actuator implementation.">
<polygon fill="white" stroke="transparent" points="97,-124 0,-124 0,0 97,0 97,-124"/>
<text text-anchor="start" x="30" y="-112" font-family="Helvetica,sans-Serif" font-size="10.00">iot::LED</text>
<text text-anchor="start" x="47" y="-97" font-family="Helvetica,sans-Serif" font-size="10.00"> </text>
<text text-anchor="start" x="4.5" y="-82" font-family="Helvetica,sans-Serif" font-size="10.00">+</text>
<text text-anchor="start" x="17.5" y="-82" font-family="Helvetica,sans-Serif" font-size="10.00">LED()</text>
<text text-anchor="start" x="4.5" y="-67" font-family="Helvetica,sans-Serif" font-size="10.00">+</text>
<text text-anchor="start" x="17.5" y="-67" font-family="Helvetica,sans-Serif" font-size="10.00">setState()</text>
<text text-anchor="start" x="4.5" y="-52" font-family="Helvetica,sans-Serif" font-size="10.00">+</text>
<text text-anchor="start" x="17.5" y="-52" font-family="Helvetica,sans-Serif" font-size="10.00">setBrightness()</text>
<text text-anchor="start" x="4.5" y="-37" font-family="Helvetica,sans-Serif" font-size="10.00">+</text>
<text text-anchor="start" x="17.5" y="-37" font-family="Helvetica,sans-Serif" font-size="10.00">setColor()</text>
<text text-anchor="start" x="4.5" y="-22" font-family="Helvetica,sans-Serif" font-size="10.00">+</text>
<text text-anchor="start" x="17.5" y="-22" font-family="Helvetica,sans-Serif" font-size="10.00">getBrightness()</text>
<text text-anchor="start" x="4.5" y="-7" font-family="Helvetica,sans-Serif" font-size="10.00">+</text>
<text text-anchor="start" x="17.5" y="-7" font-family="Helvetica,sans-Serif" font-size="10.00">getColor()</text>
<polygon fill="#666666" stroke="#666666" points="0.5,-107 0.5,-107 97.5,-107 97.5,-107 0.5,-107"/>
<polygon fill="#666666" stroke="#666666" points="0.5,-92 0.5,-92 97.5,-92 97.5,-92 0.5,-92"/>
<polygon fill="none" stroke="#666666" points="0,0 0,-124 97,-124 97,0 0,0"/>
</a>
</g>
</g>
<!-- Node1&#45;&gt;Node3 -->
<g id="edge2_Node000001_Node000003" class="edge">
<title>Node1&#45;&gt;Node3</title>
<g id="a_edge2_Node000001_Node000003"><a xlink:title=" ">
<path fill="none" stroke="#63b8ff" d="M113.64,-156.75C106.09,-145.89 98.37,-134.77 91,-124.16"/>
<polygon fill="none" stroke="#63b8ff" points="110.79,-158.77 119.37,-164.99 116.53,-154.78 110.79,-158.77"/>
</a>
</g>
</g>
<!-- Node4 -->
<g id="Node000004" class="node">
<title>Node4</title>
<g id="a_Node000004"><a xlink:href="../../de/da9/classiot_1_1Motor.html" target="_top" xlink:title="Motor Actuator implementation.">
<polygon fill="white" stroke="transparent" points="211.5,-124 115.5,-124 115.5,0 211.5,0 211.5,-124"/>
<text text-anchor="start" x="139.5" y="-112" font-family="Helvetica,sans-Serif" font-size="10.00">iot::Motor</text>
<text text-anchor="start" x="161.5" y="-97" font-family="Helvetica,sans-Serif" font-size="10.00"> </text>
<text text-anchor="start" x="119.5" y="-82" font-family="Helvetica,sans-Serif" font-size="10.00">+</text>
<text text-anchor="start" x="132.5" y="-82" font-family="Helvetica,sans-Serif" font-size="10.00">Motor()</text>
<text text-anchor="start" x="119.5" y="-67" font-family="Helvetica,sans-Serif" font-size="10.00">+</text>
<text text-anchor="start" x="132.5" y="-67" font-family="Helvetica,sans-Serif" font-size="10.00">setState()</text>
<text text-anchor="start" x="119.5" y="-52" font-family="Helvetica,sans-Serif" font-size="10.00">+</text>
<text text-anchor="start" x="132.5" y="-52" font-family="Helvetica,sans-Serif" font-size="10.00">setSpeed()</text>
<text text-anchor="start" x="119.5" y="-37" font-family="Helvetica,sans-Serif" font-size="10.00">+</text>
<text text-anchor="start" x="132.5" y="-37" font-family="Helvetica,sans-Serif" font-size="10.00">stop()</text>
<text text-anchor="start" x="119.5" y="-22" font-family="Helvetica,sans-Serif" font-size="10.00">+</text>
<text text-anchor="start" x="132.5" y="-22" font-family="Helvetica,sans-Serif" font-size="10.00">getSpeed()</text>
<text text-anchor="start" x="119.5" y="-7" font-family="Helvetica,sans-Serif" font-size="10.00">+</text>
<text text-anchor="start" x="132.5" y="-7" font-family="Helvetica,sans-Serif" font-size="10.00">getMaxSpeed()</text>
<polygon fill="#666666" stroke="#666666" points="115.5,-107 115.5,-107 211.5,-107 211.5,-107 115.5,-107"/>
<polygon fill="#666666" stroke="#666666" points="115.5,-92 115.5,-92 211.5,-92 211.5,-92 115.5,-92"/>
<polygon fill="none" stroke="#666666" points="115.5,0 115.5,-124 211.5,-124 211.5,0 115.5,0"/>
</a>
</g>
</g>
<!-- Node1&#45;&gt;Node4 -->
<g id="edge3_Node000001_Node000004" class="edge">
<title>Node1&#45;&gt;Node4</title>
<g id="a_edge3_Node000001_Node000004"><a xlink:title=" ">
<path fill="none" stroke="#63b8ff" d="M163.5,-149.71C163.5,-141.12 163.5,-132.47 163.5,-124.14"/>
<polygon fill="none" stroke="#63b8ff" points="160,-149.75 163.5,-159.75 167,-149.75 160,-149.75"/>
</a>
</g>
</g>
<!-- Node5 -->
<g id="Node000005" class="node">
<title>Node5</title>
<g id="a_Node000005"><a xlink:href="../../d9/dee/classiot_1_1Relay.html" target="_top" xlink:title="Relay Actuator implementation.">
<polygon fill="white" stroke="transparent" points="331.5,-116.5 229.5,-116.5 229.5,-7.5 331.5,-7.5 331.5,-116.5"/>
<text text-anchor="start" x="257" y="-104" font-family="Helvetica,sans-Serif" font-size="10.00">iot::Relay</text>
<text text-anchor="start" x="278.5" y="-89" font-family="Helvetica,sans-Serif" font-size="10.00"> </text>
<text text-anchor="start" x="233.5" y="-74" font-family="Helvetica,sans-Serif" font-size="10.00">+</text>
<text text-anchor="start" x="246.5" y="-74" font-family="Helvetica,sans-Serif" font-size="10.00">Relay()</text>
<text text-anchor="start" x="233.5" y="-59" font-family="Helvetica,sans-Serif" font-size="10.00">+</text>
<text text-anchor="start" x="246.5" y="-59" font-family="Helvetica,sans-Serif" font-size="10.00">setState()</text>
<text text-anchor="start" x="233.5" y="-44" font-family="Helvetica,sans-Serif" font-size="10.00">+</text>
<text text-anchor="start" x="246.5" y="-44" font-family="Helvetica,sans-Serif" font-size="10.00">isOverloaded()</text>
<text text-anchor="start" x="233.5" y="-29" font-family="Helvetica,sans-Serif" font-size="10.00">+</text>
<text text-anchor="start" x="246.5" y="-29" font-family="Helvetica,sans-Serif" font-size="10.00">getCurrent()</text>
<text text-anchor="start" x="233.5" y="-14" font-family="Helvetica,sans-Serif" font-size="10.00">+</text>
<text text-anchor="start" x="246.5" y="-14" font-family="Helvetica,sans-Serif" font-size="10.00">getMaxCurrent()</text>
<polygon fill="#666666" stroke="#666666" points="229.5,-99 229.5,-99 331.5,-99 331.5,-99 229.5,-99"/>
<polygon fill="#666666" stroke="#666666" points="229.5,-84 229.5,-84 331.5,-84 331.5,-84 229.5,-84"/>
<polygon fill="none" stroke="#666666" points="229.5,-7.5 229.5,-116.5 331.5,-116.5 331.5,-7.5 229.5,-7.5"/>
</a>
</g>
</g>
<!-- Node1&#45;&gt;Node5 -->
<g id="edge4_Node000001_Node000005" class="edge">
<title>Node1&#45;&gt;Node5</title>
<g id="a_edge4_Node000001_Node000005"><a xlink:title=" ">
<path fill="none" stroke="#63b8ff" d="M213.7,-157.49C223.36,-143.83 233.33,-129.73 242.52,-116.72"/>
<polygon fill="none" stroke="#63b8ff" points="210.65,-155.75 207.73,-165.93 216.36,-159.79 210.65,-155.75"/>
</a>
</g>
</g>
<!-- Node2 -->
<g id="Node000002" class="node">
<title>Node2</title>
<g id="a_Node000002"><a xlink:href="../../df/dfa/classiot_1_1IoTDevice.html" target="_top" xlink:title=" ">
<polygon fill="white" stroke="transparent" points="217.5,-594 109.5,-594 109.5,-335 217.5,-335 217.5,-594"/>
<text text-anchor="start" x="129.5" y="-581.5" font-family="Helvetica,sans-Serif" font-size="10.00">iot::IoTDevice</text>
<text text-anchor="start" x="113.5" y="-566.5" font-family="Helvetica,sans-Serif" font-size="10.00">#</text>
<text text-anchor="start" x="126.5" y="-566.5" font-family="Helvetica,sans-Serif" font-size="10.00">deviceId</text>
<text text-anchor="start" x="113.5" y="-551.5" font-family="Helvetica,sans-Serif" font-size="10.00">#</text>
<text text-anchor="start" x="126.5" y="-551.5" font-family="Helvetica,sans-Serif" font-size="10.00">deviceType</text>
<text text-anchor="start" x="113.5" y="-536.5" font-family="Helvetica,sans-Serif" font-size="10.00">#</text>
<text text-anchor="start" x="126.5" y="-536.5" font-family="Helvetica,sans-Serif" font-size="10.00">deviceName</text>
<text text-anchor="start" x="113.5" y="-521.5" font-family="Helvetica,sans-Serif" font-size="10.00">#</text>
<text text-anchor="start" x="126.5" y="-521.5" font-family="Helvetica,sans-Serif" font-size="10.00">isActive</text>
<text text-anchor="start" x="113.5" y="-506.5" font-family="Helvetica,sans-Serif" font-size="10.00">#</text>
<text text-anchor="start" x="126.5" y="-506.5" font-family="Helvetica,sans-Serif" font-size="10.00">lastUpdate</text>
<text text-anchor="start" x="113.5" y="-491.5" font-family="Helvetica,sans-Serif" font-size="10.00">+</text>
<text text-anchor="start" x="126.5" y="-491.5" font-family="Helvetica,sans-Serif" font-size="10.00">IoTDevice()</text>
<text text-anchor="start" x="113.5" y="-476.5" font-family="Helvetica,sans-Serif" font-size="10.00">+</text>
<text text-anchor="start" x="126.5" y="-476.5" font-family="Helvetica,sans-Serif" font-size="10.00">~IoTDevice()</text>
<text text-anchor="start" x="113.5" y="-461.5" font-family="Helvetica,sans-Serif" font-size="10.00">+</text>
<text text-anchor="start" x="126.5" y="-461.5" font-family="Helvetica,sans-Serif" font-size="10.00">sendData()</text>
<text text-anchor="start" x="113.5" y="-446.5" font-family="Helvetica,sans-Serif" font-size="10.00">+</text>
<text text-anchor="start" x="126.5" y="-446.5" font-family="Helvetica,sans-Serif" font-size="10.00">receiveData()</text>
<text text-anchor="start" x="113.5" y="-431.5" font-family="Helvetica,sans-Serif" font-size="10.00">+</text>
<text text-anchor="start" x="126.5" y="-431.5" font-family="Helvetica,sans-Serif" font-size="10.00">getStatus()</text>
<text text-anchor="start" x="113.5" y="-416.5" font-family="Helvetica,sans-Serif" font-size="10.00">+</text>
<text text-anchor="start" x="126.5" y="-416.5" font-family="Helvetica,sans-Serif" font-size="10.00">update()</text>
<text text-anchor="start" x="113.5" y="-401.5" font-family="Helvetica,sans-Serif" font-size="10.00">+</text>
<text text-anchor="start" x="126.5" y="-401.5" font-family="Helvetica,sans-Serif" font-size="10.00">getDeviceId()</text>
<text text-anchor="start" x="113.5" y="-386.5" font-family="Helvetica,sans-Serif" font-size="10.00">+</text>
<text text-anchor="start" x="126.5" y="-386.5" font-family="Helvetica,sans-Serif" font-size="10.00">getDeviceType()</text>
<text text-anchor="start" x="113.5" y="-371.5" font-family="Helvetica,sans-Serif" font-size="10.00">+</text>
<text text-anchor="start" x="126.5" y="-371.5" font-family="Helvetica,sans-Serif" font-size="10.00">getDeviceName()</text>
<text text-anchor="start" x="113.5" y="-356.5" font-family="Helvetica,sans-Serif" font-size="10.00">+</text>
<text text-anchor="start" x="126.5" y="-356.5" font-family="Helvetica,sans-Serif" font-size="10.00">isActiveDevice()</text>
<text text-anchor="start" x="113.5" y="-341.5" font-family="Helvetica,sans-Serif" font-size="10.00">+</text>
<text text-anchor="start" x="126.5" y="-341.5" font-family="Helvetica,sans-Serif" font-size="10.00">setActive()</text>
<polygon fill="#666666" stroke="#666666" points="109.5,-576.5 109.5,-576.5 217.5,-576.5 217.5,-576.5 109.5,-576.5"/>
<polygon fill="#666666" stroke="#666666" points="109.5,-501.5 109.5,-501.5 124.5,-501.5 124.5,-501.5 109.5,-501.5"/>
<polygon fill="#666666" stroke="#666666" points="124.5,-501.5 124.5,-501.5 217.5,-501.5 217.5,-501.5 124.5,-501.5"/>
<polygon fill="none" stroke="#666666" points="109.5,-335 109.5,-594 217.5,-594 217.5,-335 109.5,-335"/>
</a>
</g>
</g>
<!-- Node2&#45;&gt;Node1 -->
<g id="edge1_Node000001_Node000002" class="edge">
<title>Node2&#45;&gt;Node1</title>
<g id="a_edge1_Node000001_Node000002"><a xlink:title=" ">
<path fill="none" stroke="#63b8ff" d="M163.5,-324.49C163.5,-315.82 163.5,-307.32 163.5,-299.2"/>
<polygon fill="none" stroke="#63b8ff" points="160,-324.73 163.5,-334.73 167,-324.73 160,-324.73"/>
</a>
</g>
</g>
</g>
</svg>
