<?xml version="1.0" encoding="UTF-8" standalone="no"?>
<!DOCTYPE svg PUBLIC "-//W3C//DTD SVG 1.1//EN"
 "http://www.w3.org/Graphics/SVG/1.1/DTD/svg11.dtd">
<!-- Generated by graphviz version 2.43.0 (0)
 -->
<!-- Title: include/core/IoTDevice.h Pages: 1 -->
<svg width="1276pt" height="401pt"
 viewBox="0.00 0.00 1275.50 401.00" xmlns="http://www.w3.org/2000/svg" xmlns:xlink="http://www.w3.org/1999/xlink">
<g id="graph0" class="graph" transform="scale(1 1) rotate(0) translate(4 397)">
<title>include/core/IoTDevice.h</title>
<!-- Node1 -->
<g id="Node000001" class="node">
<title>Node1</title>
<g id="a_Node000001"><a xlink:title=" ">
<polygon fill="#999999" stroke="#666666" points="929.5,-393 792.5,-393 792.5,-374 929.5,-374 929.5,-393"/>
<text text-anchor="middle" x="861" y="-381" font-family="Helvetica,sans-Serif" font-size="10.00">include/core/IoTDevice.h</text>
</a>
</g>
</g>
<!-- Node2 -->
<g id="Node000002" class="node">
<title>Node2</title>
<g id="a_Node000002"><a xlink:href="../../da/dcc/DeviceManager_8h.html" target="_top" xlink:title=" ">
<polygon fill="white" stroke="#666666" points="263,-338 99,-338 99,-319 263,-319 263,-338"/>
<text text-anchor="middle" x="181" y="-326" font-family="Helvetica,sans-Serif" font-size="10.00">include/core/DeviceManager.h</text>
</a>
</g>
</g>
<!-- Node1&#45;&gt;Node2 -->
<g id="edge1_Node000001_Node000002" class="edge">
<title>Node1&#45;&gt;Node2</title>
<g id="a_edge1_Node000001_Node000002"><a xlink:title=" ">
<path fill="none" stroke="#63b8ff" d="M782.11,-376.35C652.3,-366.23 394.95,-346.18 263.09,-335.9"/>
<polygon fill="#63b8ff" stroke="#63b8ff" points="782.13,-379.86 792.37,-377.15 782.67,-372.88 782.13,-379.86"/>
</a>
</g>
</g>
<!-- Node4 -->
<g id="Node000004" class="node">
<title>Node4</title>
<g id="a_Node000004"><a xlink:href="../../d2/d1b/ProtocolAwareDevice_8h.html" target="_top" xlink:title=" ">
<polygon fill="white" stroke="#666666" points="635.5,-151 500.5,-151 500.5,-121 635.5,-121 635.5,-151"/>
<text text-anchor="start" x="508.5" y="-139" font-family="Helvetica,sans-Serif" font-size="10.00">include/devices/Protocol</text>
<text text-anchor="middle" x="568" y="-128" font-family="Helvetica,sans-Serif" font-size="10.00">AwareDevice.h</text>
</a>
</g>
</g>
<!-- Node1&#45;&gt;Node4 -->
<g id="edge25_Node000001_Node000004" class="edge">
<title>Node1&#45;&gt;Node4</title>
<g id="a_edge25_Node000001_Node000004"><a xlink:title=" ">
<path fill="none" stroke="#63b8ff" d="M782.18,-377.03C717.52,-368.03 629.22,-344.44 582,-283 551.74,-243.63 559.46,-179.53 564.85,-151.21"/>
<polygon fill="#63b8ff" stroke="#63b8ff" points="781.97,-380.53 792.34,-378.36 782.88,-373.59 781.97,-380.53"/>
</a>
</g>
</g>
<!-- Node12 -->
<g id="Node000012" class="node">
<title>Node12</title>
<g id="a_Node000012"><a xlink:href="../../d0/d81/Actuator_8h.html" target="_top" xlink:title=" ">
<polygon fill="white" stroke="#666666" points="883.5,-338 738.5,-338 738.5,-319 883.5,-319 883.5,-338"/>
<text text-anchor="middle" x="811" y="-326" font-family="Helvetica,sans-Serif" font-size="10.00">include/devices/Actuator.h</text>
</a>
</g>
</g>
<!-- Node1&#45;&gt;Node12 -->
<g id="edge18_Node000001_Node000012" class="edge">
<title>Node1&#45;&gt;Node12</title>
<g id="a_edge18_Node000001_Node000012"><a xlink:title=" ">
<path fill="none" stroke="#63b8ff" d="M845.66,-366.24C836.9,-356.95 826.26,-345.68 819.1,-338.09"/>
<polygon fill="#63b8ff" stroke="#63b8ff" points="843.34,-368.88 852.74,-373.75 848.43,-364.07 843.34,-368.88"/>
</a>
</g>
</g>
<!-- Node16 -->
<g id="Node000016" class="node">
<title>Node16</title>
<g id="a_Node000016"><a xlink:href="../../de/d8a/NetworkMonitor_8h.html" target="_top" xlink:title=" ">
<polygon fill="white" stroke="#666666" points="1122,-338 940,-338 940,-319 1122,-319 1122,-338"/>
<text text-anchor="middle" x="1031" y="-326" font-family="Helvetica,sans-Serif" font-size="10.00">include/devices/NetworkMonitor.h</text>
</a>
</g>
</g>
<!-- Node1&#45;&gt;Node16 -->
<g id="edge23_Node000001_Node000016" class="edge">
<title>Node1&#45;&gt;Node16</title>
<g id="a_edge23_Node000001_Node000016"><a xlink:title=" ">
<path fill="none" stroke="#63b8ff" d="M898.12,-370.93C929.87,-361.03 974.85,-347.01 1003.47,-338.08"/>
<polygon fill="#63b8ff" stroke="#63b8ff" points="896.82,-367.67 888.31,-373.98 898.9,-374.35 896.82,-367.67"/>
</a>
</g>
</g>
<!-- Node18 -->
<g id="Node000018" class="node">
<title>Node18</title>
<g id="a_Node000018"><a xlink:href="../../d5/d65/Sensor_8h.html" target="_top" xlink:title=" ">
<polygon fill="white" stroke="#666666" points="975.5,-145.5 838.5,-145.5 838.5,-126.5 975.5,-126.5 975.5,-145.5"/>
<text text-anchor="middle" x="907" y="-133.5" font-family="Helvetica,sans-Serif" font-size="10.00">include/devices/Sensor.h</text>
</a>
</g>
</g>
<!-- Node1&#45;&gt;Node18 -->
<g id="edge26_Node000001_Node000018" class="edge">
<title>Node1&#45;&gt;Node18</title>
<g id="a_edge26_Node000001_Node000018"><a xlink:title=" ">
<path fill="none" stroke="#63b8ff" d="M876.12,-366.15C882.5,-358.24 889.3,-348.25 893,-338 918.42,-267.59 911.12,-174.44 908.05,-145.77"/>
<polygon fill="#63b8ff" stroke="#63b8ff" points="873.39,-363.96 869.53,-373.83 878.7,-368.52 873.39,-363.96"/>
</a>
</g>
</g>
<!-- Node24 -->
<g id="Node000024" class="node">
<title>Node24</title>
<g id="a_Node000024"><a xlink:href="../../d8/d70/IoTDevice_8cpp.html" target="_top" xlink:title=" ">
<polygon fill="white" stroke="#666666" points="1267.5,-338 1140.5,-338 1140.5,-319 1267.5,-319 1267.5,-338"/>
<text text-anchor="middle" x="1204" y="-326" font-family="Helvetica,sans-Serif" font-size="10.00">src/core/IoTDevice.cpp</text>
</a>
</g>
</g>
<!-- Node1&#45;&gt;Node24 -->
<g id="edge34_Node000001_Node000024" class="edge">
<title>Node1&#45;&gt;Node24</title>
<g id="a_edge34_Node000001_Node000024"><a xlink:title=" ">
<path fill="none" stroke="#63b8ff" d="M926.15,-372.43C990.55,-362.48 1088.02,-347.42 1148.74,-338.04"/>
<polygon fill="#63b8ff" stroke="#63b8ff" points="925.46,-369 916.11,-373.98 926.53,-375.92 925.46,-369"/>
</a>
</g>
</g>
<!-- Node3 -->
<g id="Node000003" class="node">
<title>Node3</title>
<g id="a_Node000003"><a xlink:href="../../dd/d6c/NetworkManager_8h.html" target="_top" xlink:title=" ">
<polygon fill="white" stroke="#666666" points="466,-277.5 276,-277.5 276,-258.5 466,-258.5 466,-277.5"/>
<text text-anchor="middle" x="371" y="-265.5" font-family="Helvetica,sans-Serif" font-size="10.00">include/network/NetworkManager.h</text>
</a>
</g>
</g>
<!-- Node2&#45;&gt;Node3 -->
<g id="edge2_Node000002_Node000003" class="edge">
<title>Node2&#45;&gt;Node3</title>
<g id="a_edge2_Node000002_Node000003"><a xlink:title=" ">
<path fill="none" stroke="#63b8ff" d="M218.47,-315.96C255.22,-304.65 310.4,-287.66 343.34,-277.52"/>
<polygon fill="#63b8ff" stroke="#63b8ff" points="217.15,-312.71 208.63,-318.99 219.21,-319.4 217.15,-312.71"/>
</a>
</g>
</g>
<!-- Node6 -->
<g id="Node000006" class="node">
<title>Node6</title>
<g id="a_Node000006"><a xlink:href="../../df/d0a/main_8cpp.html" target="_top" xlink:title=" ">
<polygon fill="white" stroke="#666666" points="511.5,-19 432.5,-19 432.5,0 511.5,0 511.5,-19"/>
<text text-anchor="middle" x="472" y="-7" font-family="Helvetica,sans-Serif" font-size="10.00">src/main.cpp</text>
</a>
</g>
</g>
<!-- Node2&#45;&gt;Node6 -->
<g id="edge17_Node000002_Node000006" class="edge">
<title>Node2&#45;&gt;Node6</title>
<g id="a_edge17_Node000002_Node000006"><a xlink:title=" ">
<path fill="none" stroke="#63b8ff" d="M131.58,-316.21C77.99,-300.69 0,-267.09 0,-203 0,-203 0,-203 0,-135 0,-45.91 318.37,-19.18 432.16,-12.47"/>
<polygon fill="#63b8ff" stroke="#63b8ff" points="130.71,-319.6 141.28,-318.9 132.58,-312.85 130.71,-319.6"/>
</a>
</g>
</g>
<!-- Node9 -->
<g id="Node000009" class="node">
<title>Node9</title>
<g id="a_Node000009"><a xlink:href="../../d8/dee/SimulationEngine_8h.html" target="_top" xlink:title=" ">
<polygon fill="white" stroke="#666666" points="170,-217 56,-217 56,-187 170,-187 170,-217"/>
<text text-anchor="start" x="64" y="-205" font-family="Helvetica,sans-Serif" font-size="10.00">include/simulation</text>
<text text-anchor="middle" x="113" y="-194" font-family="Helvetica,sans-Serif" font-size="10.00">/SimulationEngine.h</text>
</a>
</g>
</g>
<!-- Node2&#45;&gt;Node9 -->
<g id="edge15_Node000002_Node000009" class="edge">
<title>Node2&#45;&gt;Node9</title>
<g id="a_edge15_Node000002_Node000009"><a xlink:title=" ">
<path fill="none" stroke="#63b8ff" d="M136.19,-315.09C120.34,-308.31 104.19,-298.1 95,-283 82.42,-262.33 94.49,-233.83 104.01,-217.02"/>
<polygon fill="#63b8ff" stroke="#63b8ff" points="135.36,-318.52 145.95,-318.88 137.9,-312 135.36,-318.52"/>
</a>
</g>
</g>
<!-- Node11 -->
<g id="Node000011" class="node">
<title>Node11</title>
<g id="a_Node000011"><a xlink:href="../../d7/d5a/DeviceManager_8cpp.html" target="_top" xlink:title=" ">
<polygon fill="white" stroke="#666666" points="258,-277.5 104,-277.5 104,-258.5 258,-258.5 258,-277.5"/>
<text text-anchor="middle" x="181" y="-265.5" font-family="Helvetica,sans-Serif" font-size="10.00">src/core/DeviceManager.cpp</text>
</a>
</g>
</g>
<!-- Node2&#45;&gt;Node11 -->
<g id="edge16_Node000002_Node000011" class="edge">
<title>Node2&#45;&gt;Node11</title>
<g id="a_edge16_Node000002_Node000011"><a xlink:title=" ">
<path fill="none" stroke="#63b8ff" d="M181,-308.66C181,-298.24 181,-285.8 181,-277.67"/>
<polygon fill="#63b8ff" stroke="#63b8ff" points="177.5,-308.87 181,-318.87 184.5,-308.87 177.5,-308.87"/>
</a>
</g>
</g>
<!-- Node3&#45;&gt;Node4 -->
<g id="edge3_Node000003_Node000004" class="edge">
<title>Node3&#45;&gt;Node4</title>
<g id="a_edge3_Node000003_Node000004"><a xlink:title=" ">
<path fill="none" stroke="#63b8ff" d="M420.07,-255.67C446.92,-247.83 479.74,-235.43 505,-217 529.7,-198.97 549.79,-168.77 560.22,-151.09"/>
<polygon fill="#63b8ff" stroke="#63b8ff" points="418.8,-252.39 410.11,-258.45 420.68,-259.13 418.8,-252.39"/>
</a>
</g>
</g>
<!-- Node3&#45;&gt;Node6 -->
<g id="edge13_Node000003_Node000006" class="edge">
<title>Node3&#45;&gt;Node6</title>
<g id="a_edge13_Node000003_Node000006"><a xlink:title=" ">
<path fill="none" stroke="#63b8ff" d="M345.47,-253.37C302.37,-228.5 222.85,-173.46 255,-121 293.66,-57.92 380.87,-29.45 432.19,-17.74"/>
<polygon fill="#63b8ff" stroke="#63b8ff" points="343.88,-256.49 354.31,-258.34 347.32,-250.39 343.88,-256.49"/>
</a>
</g>
</g>
<!-- Node7 -->
<g id="Node000007" class="node">
<title>Node7</title>
<g id="a_Node000007"><a xlink:href="../../de/d44/ProtocolCharacteristics_8h.html" target="_top" xlink:title=" ">
<polygon fill="white" stroke="#666666" points="496.5,-217 359.5,-217 359.5,-187 496.5,-187 496.5,-217"/>
<text text-anchor="start" x="367.5" y="-205" font-family="Helvetica,sans-Serif" font-size="10.00">include/network/Protocol</text>
<text text-anchor="middle" x="428" y="-194" font-family="Helvetica,sans-Serif" font-size="10.00">Characteristics.h</text>
</a>
</g>
</g>
<!-- Node3&#45;&gt;Node7 -->
<g id="edge6_Node000003_Node000007" class="edge">
<title>Node3&#45;&gt;Node7</title>
<g id="a_edge6_Node000003_Node000007"><a xlink:title=" ">
<path fill="none" stroke="#63b8ff" d="M385.38,-250.85C394.56,-240.54 406.36,-227.3 415.21,-217.36"/>
<polygon fill="#63b8ff" stroke="#63b8ff" points="382.72,-248.57 378.69,-258.37 387.95,-253.23 382.72,-248.57"/>
</a>
</g>
</g>
<!-- Node8 -->
<g id="Node000008" class="node">
<title>Node8</title>
<g id="a_Node000008"><a xlink:href="../../d2/ddd/NetworkManager_8cpp.html" target="_top" xlink:title=" ">
<polygon fill="white" stroke="#666666" points="444,-145.5 264,-145.5 264,-126.5 444,-126.5 444,-145.5"/>
<text text-anchor="middle" x="354" y="-133.5" font-family="Helvetica,sans-Serif" font-size="10.00">src/network/NetworkManager.cpp</text>
</a>
</g>
</g>
<!-- Node3&#45;&gt;Node8 -->
<g id="edge14_Node000003_Node000008" class="edge">
<title>Node3&#45;&gt;Node8</title>
<g id="a_edge14_Node000003_Node000008"><a xlink:title=" ">
<path fill="none" stroke="#63b8ff" d="M361.62,-249.48C357.14,-240.13 352.27,-228.25 350,-217 344.84,-191.37 349.41,-160.24 352.21,-145.51"/>
<polygon fill="#63b8ff" stroke="#63b8ff" points="358.54,-251.15 366.18,-258.49 364.78,-247.98 358.54,-251.15"/>
</a>
</g>
</g>
<!-- Node3&#45;&gt;Node9 -->
<g id="edge10_Node000003_Node000009" class="edge">
<title>Node3&#45;&gt;Node9</title>
<g id="a_edge10_Node000003_Node000009"><a xlink:title=" ">
<path fill="none" stroke="#63b8ff" d="M326.76,-256.02C283.29,-245.24 216.81,-228.75 169.54,-217.02"/>
<polygon fill="#63b8ff" stroke="#63b8ff" points="325.92,-259.42 336.47,-258.44 327.61,-252.63 325.92,-259.42"/>
</a>
</g>
</g>
<!-- Node5 -->
<g id="Node000005" class="node">
<title>Node5</title>
<g id="a_Node000005"><a xlink:href="../../dd/da3/ProtocolSensors_8h.html" target="_top" xlink:title=" ">
<polygon fill="white" stroke="#666666" points="635.5,-85 500.5,-85 500.5,-55 635.5,-55 635.5,-85"/>
<text text-anchor="start" x="508.5" y="-73" font-family="Helvetica,sans-Serif" font-size="10.00">include/devices/Protocol</text>
<text text-anchor="middle" x="568" y="-62" font-family="Helvetica,sans-Serif" font-size="10.00">Sensors.h</text>
</a>
</g>
</g>
<!-- Node4&#45;&gt;Node5 -->
<g id="edge4_Node000004_Node000005" class="edge">
<title>Node4&#45;&gt;Node5</title>
<g id="a_edge4_Node000004_Node000005"><a xlink:title=" ">
<path fill="none" stroke="#63b8ff" d="M568,-110.54C568,-101.96 568,-92.61 568,-85.16"/>
<polygon fill="#63b8ff" stroke="#63b8ff" points="564.5,-110.8 568,-120.8 571.5,-110.8 564.5,-110.8"/>
</a>
</g>
</g>
<!-- Node5&#45;&gt;Node6 -->
<g id="edge5_Node000005_Node000006" class="edge">
<title>Node5&#45;&gt;Node6</title>
<g id="a_edge5_Node000005_Node000006"><a xlink:title=" ">
<path fill="none" stroke="#63b8ff" d="M536.22,-49.64C519.26,-39.3 499.23,-27.09 486.1,-19.09"/>
<polygon fill="#63b8ff" stroke="#63b8ff" points="534.4,-52.62 544.76,-54.84 538.04,-46.65 534.4,-52.62"/>
</a>
</g>
</g>
<!-- Node7&#45;&gt;Node4 -->
<g id="edge7_Node000007_Node000004" class="edge">
<title>Node7&#45;&gt;Node4</title>
<g id="a_edge7_Node000007_Node000004"><a xlink:title=" ">
<path fill="none" stroke="#63b8ff" d="M467.85,-182.78C489.92,-172.69 516.94,-160.34 537.35,-151.01"/>
<polygon fill="#63b8ff" stroke="#63b8ff" points="466.36,-179.61 458.72,-186.95 469.27,-185.98 466.36,-179.61"/>
</a>
</g>
</g>
<!-- Node7&#45;&gt;Node6 -->
<g id="edge8_Node000007_Node000006" class="edge">
<title>Node7&#45;&gt;Node6</title>
<g id="a_edge8_Node000007_Node000006"><a xlink:title=" ">
<path fill="none" stroke="#63b8ff" d="M441.64,-177.7C445.9,-169.5 450.21,-160.07 453,-151 467.87,-102.78 471.11,-41.69 471.81,-19.27"/>
<polygon fill="#63b8ff" stroke="#63b8ff" points="438.47,-176.2 436.77,-186.66 444.62,-179.55 438.47,-176.2"/>
</a>
</g>
</g>
<!-- Node7&#45;&gt;Node8 -->
<g id="edge9_Node000007_Node000008" class="edge">
<title>Node7&#45;&gt;Node8</title>
<g id="a_edge9_Node000007_Node000008"><a xlink:title=" ">
<path fill="none" stroke="#63b8ff" d="M403.64,-179.93C390.25,-168.35 374.36,-154.61 364.23,-145.84"/>
<polygon fill="#63b8ff" stroke="#63b8ff" points="401.72,-182.9 411.58,-186.8 406.3,-177.61 401.72,-182.9"/>
</a>
</g>
</g>
<!-- Node9&#45;&gt;Node6 -->
<g id="edge11_Node000009_Node000006" class="edge">
<title>Node9&#45;&gt;Node6</title>
<g id="a_edge11_Node000009_Node000006"><a xlink:title=" ">
<path fill="none" stroke="#63b8ff" d="M145.18,-181.01C156.61,-172.77 168.88,-162.45 178,-151 207.24,-114.28 184.88,-83.72 222,-55 254.25,-30.04 370.45,-17.92 432.42,-13.11"/>
<polygon fill="#63b8ff" stroke="#63b8ff" points="142.9,-178.33 136.67,-186.9 146.89,-184.09 142.9,-178.33"/>
</a>
</g>
</g>
<!-- Node10 -->
<g id="Node000010" class="node">
<title>Node10</title>
<g id="a_Node000010"><a xlink:href="../../d8/dff/SimulationEngine_8cpp.html" target="_top" xlink:title=" ">
<polygon fill="white" stroke="#666666" points="169.5,-151 28.5,-151 28.5,-121 169.5,-121 169.5,-151"/>
<text text-anchor="start" x="36.5" y="-139" font-family="Helvetica,sans-Serif" font-size="10.00">src/simulation/Simulation</text>
<text text-anchor="middle" x="99" y="-128" font-family="Helvetica,sans-Serif" font-size="10.00">Engine.cpp</text>
</a>
</g>
</g>
<!-- Node9&#45;&gt;Node10 -->
<g id="edge12_Node000009_Node000010" class="edge">
<title>Node9&#45;&gt;Node10</title>
<g id="a_edge12_Node000009_Node000010"><a xlink:title=" ">
<path fill="none" stroke="#63b8ff" d="M107.71,-176.83C105.82,-168.17 103.75,-158.7 102.1,-151.16"/>
<polygon fill="#63b8ff" stroke="#63b8ff" points="104.34,-177.78 109.89,-186.8 111.18,-176.28 104.34,-177.78"/>
</a>
</g>
</g>
<!-- Node13 -->
<g id="Node000013" class="node">
<title>Node13</title>
<g id="a_Node000013"><a xlink:href="../../d6/de2/ConcreteActuators_8h.html" target="_top" xlink:title=" ">
<polygon fill="white" stroke="#666666" points="883.5,-283 744.5,-283 744.5,-253 883.5,-253 883.5,-283"/>
<text text-anchor="start" x="752.5" y="-271" font-family="Helvetica,sans-Serif" font-size="10.00">include/devices/Concrete</text>
<text text-anchor="middle" x="814" y="-260" font-family="Helvetica,sans-Serif" font-size="10.00">Actuators.h</text>
</a>
</g>
</g>
<!-- Node12&#45;&gt;Node13 -->
<g id="edge19_Node000012_Node000013" class="edge">
<title>Node12&#45;&gt;Node13</title>
<g id="a_edge19_Node000012_Node000013"><a xlink:title=" ">
<path fill="none" stroke="#63b8ff" d="M811.97,-308.65C812.39,-300.36 812.88,-290.78 813.28,-283.11"/>
<polygon fill="#63b8ff" stroke="#63b8ff" points="808.46,-308.7 811.44,-318.87 815.45,-309.06 808.46,-308.7"/>
</a>
</g>
</g>
<!-- Node15 -->
<g id="Node000015" class="node">
<title>Node15</title>
<g id="a_Node000015"><a xlink:href="../../d3/d47/Actuator_8cpp.html" target="_top" xlink:title=" ">
<polygon fill="white" stroke="#666666" points="726.5,-277.5 591.5,-277.5 591.5,-258.5 726.5,-258.5 726.5,-277.5"/>
<text text-anchor="middle" x="659" y="-265.5" font-family="Helvetica,sans-Serif" font-size="10.00">src/devices/Actuator.cpp</text>
</a>
</g>
</g>
<!-- Node12&#45;&gt;Node15 -->
<g id="edge22_Node000012_Node000015" class="edge">
<title>Node12&#45;&gt;Node15</title>
<g id="a_edge22_Node000012_Node000015"><a xlink:title=" ">
<path fill="none" stroke="#63b8ff" d="M779.5,-315.38C750.12,-304.07 707.03,-287.49 681.13,-277.52"/>
<polygon fill="#63b8ff" stroke="#63b8ff" points="778.31,-318.67 788.9,-318.99 780.82,-312.14 778.31,-318.67"/>
</a>
</g>
</g>
<!-- Node13&#45;&gt;Node6 -->
<g id="edge21_Node000013_Node000006" class="edge">
<title>Node13&#45;&gt;Node6</title>
<g id="a_edge21_Node000013_Node000006"><a xlink:title=" ">
<path fill="none" stroke="#63b8ff" d="M740.06,-249.29C721.97,-241.89 704.08,-231.51 691,-217 640.81,-161.31 697.78,-107.23 644,-55 608.71,-20.72 550.63,-11.88 511.85,-10.09"/>
<polygon fill="#63b8ff" stroke="#63b8ff" points="738.92,-252.6 749.52,-252.89 741.42,-246.06 738.92,-252.6"/>
</a>
</g>
</g>
<!-- Node14 -->
<g id="Node000014" class="node">
<title>Node14</title>
<g id="a_Node000014"><a xlink:href="../../d5/d4b/ConcreteActuators_8cpp.html" target="_top" xlink:title=" ">
<polygon fill="white" stroke="#666666" points="884.5,-211.5 699.5,-211.5 699.5,-192.5 884.5,-192.5 884.5,-211.5"/>
<text text-anchor="middle" x="792" y="-199.5" font-family="Helvetica,sans-Serif" font-size="10.00">src/devices/ConcreteActuators.cpp</text>
</a>
</g>
</g>
<!-- Node13&#45;&gt;Node14 -->
<g id="edge20_Node000013_Node000014" class="edge">
<title>Node13&#45;&gt;Node14</title>
<g id="a_edge20_Node000013_Node000014"><a xlink:title=" ">
<path fill="none" stroke="#63b8ff" d="M805.85,-243.28C802.07,-232.31 797.82,-219.94 795.04,-211.84"/>
<polygon fill="#63b8ff" stroke="#63b8ff" points="802.56,-244.48 809.12,-252.8 809.18,-242.2 802.56,-244.48"/>
</a>
</g>
</g>
<!-- Node17 -->
<g id="Node000017" class="node">
<title>Node17</title>
<g id="a_Node000017"><a xlink:href="../../de/d67/NetworkMonitor_8cpp.html" target="_top" xlink:title=" ">
<polygon fill="white" stroke="#666666" points="1117.5,-277.5 944.5,-277.5 944.5,-258.5 1117.5,-258.5 1117.5,-277.5"/>
<text text-anchor="middle" x="1031" y="-265.5" font-family="Helvetica,sans-Serif" font-size="10.00">src/devices/NetworkMonitor.cpp</text>
</a>
</g>
</g>
<!-- Node16&#45;&gt;Node17 -->
<g id="edge24_Node000016_Node000017" class="edge">
<title>Node16&#45;&gt;Node17</title>
<g id="a_edge24_Node000016_Node000017"><a xlink:title=" ">
<path fill="none" stroke="#63b8ff" d="M1031,-308.66C1031,-298.24 1031,-285.8 1031,-277.67"/>
<polygon fill="#63b8ff" stroke="#63b8ff" points="1027.5,-308.87 1031,-318.87 1034.5,-308.87 1027.5,-308.87"/>
</a>
</g>
</g>
<!-- Node18&#45;&gt;Node5 -->
<g id="edge32_Node000018_Node000005" class="edge">
<title>Node18&#45;&gt;Node5</title>
<g id="a_edge32_Node000018_Node000005"><a xlink:title=" ">
<path fill="none" stroke="#63b8ff" d="M851.74,-124.57C792.69,-113.42 699.02,-95.74 635.61,-83.76"/>
<polygon fill="#63b8ff" stroke="#63b8ff" points="851.16,-128.02 861.63,-126.44 852.46,-121.14 851.16,-128.02"/>
</a>
</g>
</g>
<!-- Node19 -->
<g id="Node000019" class="node">
<title>Node19</title>
<g id="a_Node000019"><a xlink:href="../../d2/d1e/BatterySensors_8h.html" target="_top" xlink:title=" ">
<polygon fill="white" stroke="#666666" points="1179.5,-79.5 1000.5,-79.5 1000.5,-60.5 1179.5,-60.5 1179.5,-79.5"/>
<text text-anchor="middle" x="1090" y="-67.5" font-family="Helvetica,sans-Serif" font-size="10.00">include/devices/BatterySensors.h</text>
</a>
</g>
</g>
<!-- Node18&#45;&gt;Node19 -->
<g id="edge27_Node000018_Node000019" class="edge">
<title>Node18&#45;&gt;Node19</title>
<g id="a_edge27_Node000018_Node000019"><a xlink:title=" ">
<path fill="none" stroke="#63b8ff" d="M941.31,-123C977.45,-110.36 1033.45,-90.78 1065.42,-79.6"/>
<polygon fill="#63b8ff" stroke="#63b8ff" points="939.96,-119.76 931.68,-126.37 942.28,-126.37 939.96,-119.76"/>
</a>
</g>
</g>
<!-- Node21 -->
<g id="Node000021" class="node">
<title>Node21</title>
<g id="a_Node000021"><a xlink:href="../../d5/d3f/ConcreteSensors_8h.html" target="_top" xlink:title=" ">
<polygon fill="white" stroke="#666666" points="976.5,-85 837.5,-85 837.5,-55 976.5,-55 976.5,-85"/>
<text text-anchor="start" x="845.5" y="-73" font-family="Helvetica,sans-Serif" font-size="10.00">include/devices/Concrete</text>
<text text-anchor="middle" x="907" y="-62" font-family="Helvetica,sans-Serif" font-size="10.00">Sensors.h</text>
</a>
</g>
</g>
<!-- Node18&#45;&gt;Node21 -->
<g id="edge29_Node000018_Node000021" class="edge">
<title>Node18&#45;&gt;Node21</title>
<g id="a_edge29_Node000018_Node000021"><a xlink:title=" ">
<path fill="none" stroke="#63b8ff" d="M907,-116.35C907,-106.47 907,-94.51 907,-85.36"/>
<polygon fill="#63b8ff" stroke="#63b8ff" points="903.5,-116.37 907,-126.37 910.5,-116.37 903.5,-116.37"/>
</a>
</g>
</g>
<!-- Node23 -->
<g id="Node000023" class="node">
<title>Node23</title>
<g id="a_Node000023"><a xlink:href="../../d7/d16/Sensor_8cpp.html" target="_top" xlink:title=" ">
<polygon fill="white" stroke="#666666" points="819.5,-79.5 692.5,-79.5 692.5,-60.5 819.5,-60.5 819.5,-79.5"/>
<text text-anchor="middle" x="756" y="-67.5" font-family="Helvetica,sans-Serif" font-size="10.00">src/devices/Sensor.cpp</text>
</a>
</g>
</g>
<!-- Node18&#45;&gt;Node23 -->
<g id="edge33_Node000018_Node000023" class="edge">
<title>Node18&#45;&gt;Node23</title>
<g id="a_edge33_Node000018_Node000023"><a xlink:title=" ">
<path fill="none" stroke="#63b8ff" d="M877.17,-122.36C847.42,-109.75 802.49,-90.71 776.52,-79.7"/>
<polygon fill="#63b8ff" stroke="#63b8ff" points="876.06,-125.69 886.64,-126.37 878.79,-119.24 876.06,-125.69"/>
</a>
</g>
</g>
<!-- Node20 -->
<g id="Node000020" class="node">
<title>Node20</title>
<g id="a_Node000020"><a xlink:href="../../d9/dd0/BatterySensors_8cpp.html" target="_top" xlink:title=" ">
<polygon fill="white" stroke="#666666" points="1177.5,-19 1008.5,-19 1008.5,0 1177.5,0 1177.5,-19"/>
<text text-anchor="middle" x="1093" y="-7" font-family="Helvetica,sans-Serif" font-size="10.00">src/devices/BatterySensors.cpp</text>
</a>
</g>
</g>
<!-- Node19&#45;&gt;Node20 -->
<g id="edge28_Node000019_Node000020" class="edge">
<title>Node19&#45;&gt;Node20</title>
<g id="a_edge28_Node000019_Node000020"><a xlink:title=" ">
<path fill="none" stroke="#63b8ff" d="M1090.97,-50.16C1091.5,-39.74 1092.14,-27.3 1092.56,-19.17"/>
<polygon fill="#63b8ff" stroke="#63b8ff" points="1087.46,-50.2 1090.44,-60.37 1094.45,-50.56 1087.46,-50.2"/>
</a>
</g>
</g>
<!-- Node21&#45;&gt;Node6 -->
<g id="edge31_Node000021_Node000006" class="edge">
<title>Node21&#45;&gt;Node6</title>
<g id="a_edge31_Node000021_Node000006"><a xlink:title=" ">
<path fill="none" stroke="#63b8ff" d="M827.16,-54.77C706.74,-36.7 575.93,-21.77 511.72,-14.75"/>
<polygon fill="#63b8ff" stroke="#63b8ff" points="826.88,-58.26 837.29,-56.3 827.92,-51.34 826.88,-58.26"/>
</a>
</g>
</g>
<!-- Node22 -->
<g id="Node000022" class="node">
<title>Node22</title>
<g id="a_Node000022"><a xlink:href="../../d1/d16/ConcreteSensors_8cpp.html" target="_top" xlink:title=" ">
<polygon fill="white" stroke="#666666" points="991,-19 815,-19 815,0 991,0 991,-19"/>
<text text-anchor="middle" x="903" y="-7" font-family="Helvetica,sans-Serif" font-size="10.00">src/devices/ConcreteSensors.cpp</text>
</a>
</g>
</g>
<!-- Node21&#45;&gt;Node22 -->
<g id="edge30_Node000021_Node000022" class="edge">
<title>Node21&#45;&gt;Node22</title>
<g id="a_edge30_Node000021_Node000022"><a xlink:title=" ">
<path fill="none" stroke="#63b8ff" d="M905.34,-44.75C904.72,-35.72 904.06,-26.03 903.6,-19.27"/>
<polygon fill="#63b8ff" stroke="#63b8ff" points="901.86,-45.1 906.03,-54.84 908.84,-44.62 901.86,-45.1"/>
</a>
</g>
</g>
</g>
</svg>
