<?xml version="1.0" encoding="UTF-8" standalone="no"?>
<!DOCTYPE svg PUBLIC "-//W3C//DTD SVG 1.1//EN"
 "http://www.w3.org/Graphics/SVG/1.1/DTD/svg11.dtd">
<!-- Generated by graphviz version 2.43.0 (0)
 -->
<!-- Title: iot::MeshNetwork::updateRoutingTable Pages: 1 -->
<svg width="358pt" height="76pt"
 viewBox="0.00 0.00 358.00 75.50" xmlns="http://www.w3.org/2000/svg" xmlns:xlink="http://www.w3.org/1999/xlink">
<g id="graph0" class="graph" transform="scale(1 1) rotate(0) translate(4 71.5)">
<title>iot::MeshNetwork::updateRoutingTable</title>
<!-- Node1 -->
<g id="Node000001" class="node">
<title>Node1</title>
<g id="a_Node000001"><a xlink:title="Update routing table using simple flooding algorithm.">
<polygon fill="#999999" stroke="#666666" points="350,-51 207,-51 207,-21 350,-21 350,-51"/>
<text text-anchor="start" x="215" y="-39" font-family="Helvetica,sans-Serif" font-size="10.00">iot::MeshNetwork::update</text>
<text text-anchor="middle" x="278.5" y="-28" font-family="Helvetica,sans-Serif" font-size="10.00">RoutingTable</text>
</a>
</g>
</g>
<!-- Node2 -->
<g id="Node000002" class="node">
<title>Node2</title>
<g id="a_Node000002"><a xlink:href="../../d8/d6b/classiot_1_1MeshNetwork.html#ab8b39216687e0d48af4893cdb5497634" target="_top" xlink:title="Add neighbor relationship between devices.">
<polygon fill="white" stroke="#666666" points="171,-67.5 0,-67.5 0,-48.5 171,-48.5 171,-67.5"/>
<text text-anchor="middle" x="85.5" y="-55.5" font-family="Helvetica,sans-Serif" font-size="10.00">iot::MeshNetwork::addNeighbor</text>
</a>
</g>
</g>
<!-- Node1&#45;&gt;Node2 -->
<g id="edge1_Node000001_Node000002" class="edge">
<title>Node1&#45;&gt;Node2</title>
<g id="a_edge1_Node000001_Node000002"><a xlink:title=" ">
<path fill="none" stroke="#63b8ff" d="M196.69,-45.31C187.55,-46.36 178.22,-47.44 169.06,-48.49"/>
<polygon fill="#63b8ff" stroke="#63b8ff" points="197.39,-48.75 206.92,-44.13 196.59,-41.8 197.39,-48.75"/>
</a>
</g>
</g>
<!-- Node3 -->
<g id="Node000003" class="node">
<title>Node3</title>
<g id="a_Node000003"><a xlink:href="../../d8/d6b/classiot_1_1MeshNetwork.html#a73cdafbdce7a92f71fc1c1282d9929e4" target="_top" xlink:title="Remove device from mesh network.">
<polygon fill="white" stroke="#666666" points="158.5,-30 12.5,-30 12.5,0 158.5,0 158.5,-30"/>
<text text-anchor="start" x="20.5" y="-18" font-family="Helvetica,sans-Serif" font-size="10.00">iot::MeshNetwork::remove</text>
<text text-anchor="middle" x="85.5" y="-7" font-family="Helvetica,sans-Serif" font-size="10.00">Device</text>
</a>
</g>
</g>
<!-- Node1&#45;&gt;Node3 -->
<g id="edge2_Node000001_Node000003" class="edge">
<title>Node1&#45;&gt;Node3</title>
<g id="a_edge2_Node000001_Node000003"><a xlink:title=" ">
<path fill="none" stroke="#63b8ff" d="M196.86,-27.13C184.19,-25.74 171.17,-24.31 158.7,-22.94"/>
<polygon fill="#63b8ff" stroke="#63b8ff" points="196.6,-30.63 206.92,-28.24 197.36,-23.67 196.6,-30.63"/>
</a>
</g>
</g>
</g>
</svg>
