<?xml version="1.0" encoding="UTF-8" standalone="no"?>
<!DOCTYPE svg PUBLIC "-//W3C//DTD SVG 1.1//EN"
 "http://www.w3.org/Graphics/SVG/1.1/DTD/svg11.dtd">
<!-- Generated by graphviz version 2.43.0 (0)
 -->
<!-- Title: iot::BatteryManager::isInLowPowerMode Pages: 1 -->
<svg width="326pt" height="86pt"
 viewBox="0.00 0.00 326.00 86.00" xmlns="http://www.w3.org/2000/svg" xmlns:xlink="http://www.w3.org/1999/xlink">
<g id="graph0" class="graph" transform="scale(1 1) rotate(0) translate(4 82)">
<title>iot::BatteryManager::isInLowPowerMode</title>
<!-- Node1 -->
<g id="Node000001" class="node">
<title>Node1</title>
<g id="a_Node000001"><a xlink:title="Check if in low power mode.">
<polygon fill="#999999" stroke="#666666" points="318,-54 202,-54 202,-24 318,-24 318,-54"/>
<text text-anchor="start" x="210" y="-42" font-family="Helvetica,sans-Serif" font-size="10.00">iot::BatteryManager</text>
<text text-anchor="middle" x="260" y="-31" font-family="Helvetica,sans-Serif" font-size="10.00">::isInLowPowerMode</text>
</a>
</g>
</g>
<!-- Node2 -->
<g id="Node000002" class="node">
<title>Node2</title>
<g id="a_Node000002"><a xlink:href="../../df/d56/classiot_1_1BatteryTemperatureSensor.html#a60e8939f29ff61578a39ac3eed153c55" target="_top" xlink:title=" ">
<polygon fill="white" stroke="#666666" points="166,-78 0,-78 0,-48 166,-48 166,-78"/>
<text text-anchor="start" x="8" y="-66" font-family="Helvetica,sans-Serif" font-size="10.00">iot::BatteryTemperatureSensor</text>
<text text-anchor="middle" x="83" y="-55" font-family="Helvetica,sans-Serif" font-size="10.00">::isInLowPowerMode</text>
</a>
</g>
</g>
<!-- Node1&#45;&gt;Node2 -->
<g id="edge1_Node000001_Node000002" class="edge">
<title>Node1&#45;&gt;Node2</title>
<g id="a_edge1_Node000001_Node000002"><a xlink:title=" ">
<path fill="none" stroke="#63b8ff" d="M191.67,-48.23C183.33,-49.38 174.73,-50.56 166.19,-51.73"/>
<polygon fill="#63b8ff" stroke="#63b8ff" points="192.27,-51.68 201.7,-46.86 191.32,-44.75 192.27,-51.68"/>
</a>
</g>
</g>
<!-- Node3 -->
<g id="Node000003" class="node">
<title>Node3</title>
<g id="a_Node000003"><a xlink:href="../../d3/d05/classiot_1_1BatteryMotionSensor.html#ad02832692fa399ba9df56bef1d354af8" target="_top" xlink:title=" ">
<polygon fill="white" stroke="#666666" points="152,-30 14,-30 14,0 152,0 152,-30"/>
<text text-anchor="start" x="22" y="-18" font-family="Helvetica,sans-Serif" font-size="10.00">iot::BatteryMotionSensor</text>
<text text-anchor="middle" x="83" y="-7" font-family="Helvetica,sans-Serif" font-size="10.00">::isInLowPowerMode</text>
</a>
</g>
</g>
<!-- Node1&#45;&gt;Node3 -->
<g id="edge2_Node000001_Node000003" class="edge">
<title>Node1&#45;&gt;Node3</title>
<g id="a_edge2_Node000001_Node000003"><a xlink:title=" ">
<path fill="none" stroke="#63b8ff" d="M191.49,-29.74C178.57,-27.97 165.03,-26.11 152.09,-24.34"/>
<polygon fill="#63b8ff" stroke="#63b8ff" points="191.32,-33.25 201.7,-31.14 192.27,-26.32 191.32,-33.25"/>
</a>
</g>
</g>
</g>
</svg>
