<?xml version="1.0" encoding="UTF-8" standalone="no"?>
<!DOCTYPE svg PUBLIC "-//W3C//DTD SVG 1.1//EN"
 "http://www.w3.org/Graphics/SVG/1.1/DTD/svg11.dtd">
<!-- Generated by graphviz version 2.43.0 (0)
 -->
<!-- Title: iot::BatteryManager::isBatteryCritical Pages: 1 -->
<svg width="324pt" height="86pt"
 viewBox="0.00 0.00 324.00 86.00" xmlns="http://www.w3.org/2000/svg" xmlns:xlink="http://www.w3.org/1999/xlink">
<g id="graph0" class="graph" transform="scale(1 1) rotate(0) translate(4 82)">
<title>iot::BatteryManager::isBatteryCritical</title>
<!-- Node1 -->
<g id="Node000001" class="node">
<title>Node1</title>
<g id="a_Node000001"><a xlink:title="Check if battery is critical.">
<polygon fill="#999999" stroke="#666666" points="316,-54 202,-54 202,-24 316,-24 316,-54"/>
<text text-anchor="start" x="210" y="-42" font-family="Helvetica,sans-Serif" font-size="10.00">iot::BatteryManager</text>
<text text-anchor="middle" x="259" y="-31" font-family="Helvetica,sans-Serif" font-size="10.00">::isBatteryCritical</text>
</a>
</g>
</g>
<!-- Node2 -->
<g id="Node000002" class="node">
<title>Node2</title>
<g id="a_Node000002"><a xlink:href="../../df/d56/classiot_1_1BatteryTemperatureSensor.html#a971b48316d3dd55a9e68d25822e1bb8f" target="_top" xlink:title=" ">
<polygon fill="white" stroke="#666666" points="166,-78 0,-78 0,-48 166,-48 166,-78"/>
<text text-anchor="start" x="8" y="-66" font-family="Helvetica,sans-Serif" font-size="10.00">iot::BatteryTemperatureSensor</text>
<text text-anchor="middle" x="83" y="-55" font-family="Helvetica,sans-Serif" font-size="10.00">::isBatteryCritical</text>
</a>
</g>
</g>
<!-- Node1&#45;&gt;Node2 -->
<g id="edge1_Node000001_Node000002" class="edge">
<title>Node1&#45;&gt;Node2</title>
<g id="a_edge1_Node000001_Node000002"><a xlink:title=" ">
<path fill="none" stroke="#63b8ff" d="M191.9,-48.12C183.49,-49.28 174.81,-50.47 166.2,-51.66"/>
<polygon fill="#63b8ff" stroke="#63b8ff" points="192.56,-51.56 201.99,-46.73 191.6,-44.63 192.56,-51.56"/>
</a>
</g>
</g>
<!-- Node3 -->
<g id="Node000003" class="node">
<title>Node3</title>
<g id="a_Node000003"><a xlink:href="../../d3/d05/classiot_1_1BatteryMotionSensor.html#aea4cbbe04bcf53cff8e5b4dcc0f6cce4" target="_top" xlink:title=" ">
<polygon fill="white" stroke="#666666" points="152,-30 14,-30 14,0 152,0 152,-30"/>
<text text-anchor="start" x="22" y="-18" font-family="Helvetica,sans-Serif" font-size="10.00">iot::BatteryMotionSensor</text>
<text text-anchor="middle" x="83" y="-7" font-family="Helvetica,sans-Serif" font-size="10.00">::isBatteryCritical</text>
</a>
</g>
</g>
<!-- Node1&#45;&gt;Node3 -->
<g id="edge2_Node000001_Node000003" class="edge">
<title>Node1&#45;&gt;Node3</title>
<g id="a_edge2_Node000001_Node000003"><a xlink:title=" ">
<path fill="none" stroke="#63b8ff" d="M191.74,-29.86C178.76,-28.07 165.12,-26.19 152.08,-24.39"/>
<polygon fill="#63b8ff" stroke="#63b8ff" points="191.6,-33.37 201.99,-31.27 192.56,-26.44 191.6,-33.37"/>
</a>
</g>
</g>
</g>
</svg>
