<?xml version="1.0" encoding="UTF-8" standalone="no"?>
<!DOCTYPE svg PUBLIC "-//W3C//DTD SVG 1.1//EN"
 "http://www.w3.org/Graphics/SVG/1.1/DTD/svg11.dtd">
<!-- Generated by graphviz version 2.43.0 (0)
 -->
<!-- Title: iot::BatteryManager::enterLowPowerMode Pages: 1 -->
<svg width="485pt" height="278pt"
 viewBox="0.00 0.00 485.00 278.00" xmlns="http://www.w3.org/2000/svg" xmlns:xlink="http://www.w3.org/1999/xlink">
<g id="graph0" class="graph" transform="scale(1 1) rotate(0) translate(4 274)">
<title>iot::BatteryManager::enterLowPowerMode</title>
<!-- Node1 -->
<g id="Node000001" class="node">
<title>Node1</title>
<g id="a_Node000001"><a xlink:title="Enter low power mode.">
<polygon fill="#999999" stroke="#666666" points="477,-150 352,-150 352,-120 477,-120 477,-150"/>
<text text-anchor="start" x="360" y="-138" font-family="Helvetica,sans-Serif" font-size="10.00">iot::BatteryManager</text>
<text text-anchor="middle" x="414.5" y="-127" font-family="Helvetica,sans-Serif" font-size="10.00">::enterLowPowerMode</text>
</a>
</g>
</g>
<!-- Node2 -->
<g id="Node000002" class="node">
<title>Node2</title>
<g id="a_Node000002"><a xlink:href="../../db/d3a/classiot_1_1BatteryManager.html#a0c63fbec278f5c0303a979d85dcad983" target="_top" xlink:title="Consume battery power.">
<polygon fill="white" stroke="#666666" points="316,-150 202,-150 202,-120 316,-120 316,-150"/>
<text text-anchor="start" x="210" y="-138" font-family="Helvetica,sans-Serif" font-size="10.00">iot::BatteryManager</text>
<text text-anchor="middle" x="259" y="-127" font-family="Helvetica,sans-Serif" font-size="10.00">::consumePower</text>
</a>
</g>
</g>
<!-- Node1&#45;&gt;Node2 -->
<g id="edge1_Node000001_Node000002" class="edge">
<title>Node1&#45;&gt;Node2</title>
<g id="a_edge1_Node000001_Node000002"><a xlink:title=" ">
<path fill="none" stroke="#63b8ff" d="M341.86,-135C333.22,-135 324.48,-135 316.1,-135"/>
<polygon fill="#63b8ff" stroke="#63b8ff" points="341.95,-138.5 351.95,-135 341.95,-131.5 341.95,-138.5"/>
</a>
</g>
</g>
<!-- Node3 -->
<g id="Node000003" class="node">
<title>Node3</title>
<g id="a_Node000003"><a xlink:href="../../df/d56/classiot_1_1BatteryTemperatureSensor.html#a3ff270f6069d13642345207e775d7d8b" target="_top" xlink:title=" ">
<polygon fill="white" stroke="#666666" points="166,-270 0,-270 0,-240 166,-240 166,-270"/>
<text text-anchor="start" x="8" y="-258" font-family="Helvetica,sans-Serif" font-size="10.00">iot::BatteryTemperatureSensor</text>
<text text-anchor="middle" x="83" y="-247" font-family="Helvetica,sans-Serif" font-size="10.00">::readValue</text>
</a>
</g>
</g>
<!-- Node2&#45;&gt;Node3 -->
<g id="edge2_Node000002_Node000003" class="edge">
<title>Node2&#45;&gt;Node3</title>
<g id="a_edge2_Node000002_Node000003"><a xlink:title=" ">
<path fill="none" stroke="#63b8ff" d="M241.59,-158.1C224.92,-179.93 197.18,-212.07 166,-231 160.42,-234.39 154.34,-237.32 148.09,-239.85"/>
<polygon fill="#63b8ff" stroke="#63b8ff" points="244.45,-160.12 247.62,-150.01 238.84,-155.93 244.45,-160.12"/>
</a>
</g>
</g>
<!-- Node4 -->
<g id="Node000004" class="node">
<title>Node4</title>
<g id="a_Node000004"><a xlink:href="../../d3/d05/classiot_1_1BatteryMotionSensor.html#a6409561834d5d5e041e45409b5cabccd" target="_top" xlink:title=" ">
<polygon fill="white" stroke="#666666" points="152,-222 14,-222 14,-192 152,-192 152,-222"/>
<text text-anchor="start" x="22" y="-210" font-family="Helvetica,sans-Serif" font-size="10.00">iot::BatteryMotionSensor</text>
<text text-anchor="middle" x="83" y="-199" font-family="Helvetica,sans-Serif" font-size="10.00">::readValue</text>
</a>
</g>
</g>
<!-- Node2&#45;&gt;Node4 -->
<g id="edge3_Node000002_Node000004" class="edge">
<title>Node2&#45;&gt;Node4</title>
<g id="a_edge3_Node000002_Node000004"><a xlink:title=" ">
<path fill="none" stroke="#63b8ff" d="M223.5,-155.06C206.55,-164.37 185.6,-175.11 166,-183 158.02,-186.21 149.45,-189.2 140.96,-191.9"/>
<polygon fill="#63b8ff" stroke="#63b8ff" points="225.44,-157.98 232.47,-150.05 222.03,-151.87 225.44,-157.98"/>
</a>
</g>
</g>
<!-- Node5 -->
<g id="Node000005" class="node">
<title>Node5</title>
<g id="a_Node000005"><a xlink:href="../../df/d56/classiot_1_1BatteryTemperatureSensor.html#af3d106ea1ee1822d7714f757f542a9b8" target="_top" xlink:title=" ">
<polygon fill="white" stroke="#666666" points="166,-174 0,-174 0,-144 166,-144 166,-174"/>
<text text-anchor="start" x="8" y="-162" font-family="Helvetica,sans-Serif" font-size="10.00">iot::BatteryTemperatureSensor</text>
<text text-anchor="middle" x="83" y="-151" font-family="Helvetica,sans-Serif" font-size="10.00">::receiveData</text>
</a>
</g>
</g>
<!-- Node2&#45;&gt;Node5 -->
<g id="edge4_Node000002_Node000005" class="edge">
<title>Node2&#45;&gt;Node5</title>
<g id="a_edge4_Node000002_Node000005"><a xlink:title=" ">
<path fill="none" stroke="#63b8ff" d="M191.9,-144.12C183.49,-145.28 174.81,-146.47 166.2,-147.66"/>
<polygon fill="#63b8ff" stroke="#63b8ff" points="192.56,-147.56 201.99,-142.73 191.6,-140.63 192.56,-147.56"/>
</a>
</g>
</g>
<!-- Node6 -->
<g id="Node000006" class="node">
<title>Node6</title>
<g id="a_Node000006"><a xlink:href="../../d3/d05/classiot_1_1BatteryMotionSensor.html#ad0cc1fc090139120f1898068bb211497" target="_top" xlink:title=" ">
<polygon fill="white" stroke="#666666" points="152,-126 14,-126 14,-96 152,-96 152,-126"/>
<text text-anchor="start" x="22" y="-114" font-family="Helvetica,sans-Serif" font-size="10.00">iot::BatteryMotionSensor</text>
<text text-anchor="middle" x="83" y="-103" font-family="Helvetica,sans-Serif" font-size="10.00">::receiveData</text>
</a>
</g>
</g>
<!-- Node2&#45;&gt;Node6 -->
<g id="edge5_Node000002_Node000006" class="edge">
<title>Node2&#45;&gt;Node6</title>
<g id="a_edge5_Node000002_Node000006"><a xlink:title=" ">
<path fill="none" stroke="#63b8ff" d="M191.74,-125.86C178.76,-124.07 165.12,-122.19 152.08,-120.39"/>
<polygon fill="#63b8ff" stroke="#63b8ff" points="191.6,-129.37 201.99,-127.27 192.56,-122.44 191.6,-129.37"/>
</a>
</g>
</g>
<!-- Node7 -->
<g id="Node000007" class="node">
<title>Node7</title>
<g id="a_Node000007"><a xlink:href="../../df/d56/classiot_1_1BatteryTemperatureSensor.html#aed7c85ec4eee3431942cdcb5a118a64d" target="_top" xlink:title=" ">
<polygon fill="white" stroke="#666666" points="166,-78 0,-78 0,-48 166,-48 166,-78"/>
<text text-anchor="start" x="8" y="-66" font-family="Helvetica,sans-Serif" font-size="10.00">iot::BatteryTemperatureSensor</text>
<text text-anchor="middle" x="83" y="-55" font-family="Helvetica,sans-Serif" font-size="10.00">::sendData</text>
</a>
</g>
</g>
<!-- Node2&#45;&gt;Node7 -->
<g id="edge6_Node000002_Node000007" class="edge">
<title>Node2&#45;&gt;Node7</title>
<g id="a_edge6_Node000002_Node000007"><a xlink:title=" ">
<path fill="none" stroke="#63b8ff" d="M223.5,-114.94C206.55,-105.63 185.6,-94.89 166,-87 158.02,-83.79 149.45,-80.8 140.96,-78.1"/>
<polygon fill="#63b8ff" stroke="#63b8ff" points="222.03,-118.13 232.47,-119.95 225.44,-112.02 222.03,-118.13"/>
</a>
</g>
</g>
<!-- Node8 -->
<g id="Node000008" class="node">
<title>Node8</title>
<g id="a_Node000008"><a xlink:href="../../d3/d05/classiot_1_1BatteryMotionSensor.html#a4fe971e8104caceb889d4f3029533700" target="_top" xlink:title=" ">
<polygon fill="white" stroke="#666666" points="152,-30 14,-30 14,0 152,0 152,-30"/>
<text text-anchor="start" x="22" y="-18" font-family="Helvetica,sans-Serif" font-size="10.00">iot::BatteryMotionSensor</text>
<text text-anchor="middle" x="83" y="-7" font-family="Helvetica,sans-Serif" font-size="10.00">::sendData</text>
</a>
</g>
</g>
<!-- Node2&#45;&gt;Node8 -->
<g id="edge7_Node000002_Node000008" class="edge">
<title>Node2&#45;&gt;Node8</title>
<g id="a_edge7_Node000002_Node000008"><a xlink:title=" ">
<path fill="none" stroke="#63b8ff" d="M241.59,-111.9C224.92,-90.07 197.18,-57.93 166,-39 160.42,-35.61 154.34,-32.68 148.09,-30.15"/>
<polygon fill="#63b8ff" stroke="#63b8ff" points="238.84,-114.07 247.62,-119.99 244.45,-109.88 238.84,-114.07"/>
</a>
</g>
</g>
</g>
</svg>
