<?xml version="1.0" encoding="UTF-8" standalone="no"?>
<!DOCTYPE svg PUBLIC "-//W3C//DTD SVG 1.1//EN"
 "http://www.w3.org/Graphics/SVG/1.1/DTD/svg11.dtd">
<!-- Generated by graphviz version 2.43.0 (0)
 -->
<!-- Title: iot::BatteryManager::getBatteryLevel Pages: 1 -->
<svg width="324pt" height="230pt"
 viewBox="0.00 0.00 324.00 230.00" xmlns="http://www.w3.org/2000/svg" xmlns:xlink="http://www.w3.org/1999/xlink">
<g id="graph0" class="graph" transform="scale(1 1) rotate(0) translate(4 226)">
<title>iot::BatteryManager::getBatteryLevel</title>
<!-- Node1 -->
<g id="Node000001" class="node">
<title>Node1</title>
<g id="a_Node000001"><a xlink:title="Get current battery level.">
<polygon fill="#999999" stroke="#666666" points="316,-126 202,-126 202,-96 316,-96 316,-126"/>
<text text-anchor="start" x="210" y="-114" font-family="Helvetica,sans-Serif" font-size="10.00">iot::BatteryManager</text>
<text text-anchor="middle" x="259" y="-103" font-family="Helvetica,sans-Serif" font-size="10.00">::getBatteryLevel</text>
</a>
</g>
</g>
<!-- Node2 -->
<g id="Node000002" class="node">
<title>Node2</title>
<g id="a_Node000002"><a xlink:href="../../df/d56/classiot_1_1BatteryTemperatureSensor.html#af71b26b612029ae5536991da7d83a586" target="_top" xlink:title=" ">
<polygon fill="white" stroke="#666666" points="166,-222 0,-222 0,-192 166,-192 166,-222"/>
<text text-anchor="start" x="8" y="-210" font-family="Helvetica,sans-Serif" font-size="10.00">iot::BatteryTemperatureSensor</text>
<text text-anchor="middle" x="83" y="-199" font-family="Helvetica,sans-Serif" font-size="10.00">::getBatteryLevel</text>
</a>
</g>
</g>
<!-- Node1&#45;&gt;Node2 -->
<g id="edge1_Node000001_Node000002" class="edge">
<title>Node1&#45;&gt;Node2</title>
<g id="a_edge1_Node000001_Node000002"><a xlink:title=" ">
<path fill="none" stroke="#63b8ff" d="M235.16,-132.93C217.51,-148.81 191.82,-169.74 166,-183 159.4,-186.39 152.25,-189.37 145.02,-191.97"/>
<polygon fill="#63b8ff" stroke="#63b8ff" points="237.68,-135.37 242.67,-126.03 232.94,-130.22 237.68,-135.37"/>
</a>
</g>
</g>
<!-- Node3 -->
<g id="Node000003" class="node">
<title>Node3</title>
<g id="a_Node000003"><a xlink:href="../../d3/d05/classiot_1_1BatteryMotionSensor.html#a8dc8d771b068dc016e67712c08df6494" target="_top" xlink:title=" ">
<polygon fill="white" stroke="#666666" points="152,-174 14,-174 14,-144 152,-144 152,-174"/>
<text text-anchor="start" x="22" y="-162" font-family="Helvetica,sans-Serif" font-size="10.00">iot::BatteryMotionSensor</text>
<text text-anchor="middle" x="83" y="-151" font-family="Helvetica,sans-Serif" font-size="10.00">::getBatteryLevel</text>
</a>
</g>
</g>
<!-- Node1&#45;&gt;Node3 -->
<g id="edge2_Node000001_Node000003" class="edge">
<title>Node1&#45;&gt;Node3</title>
<g id="a_edge2_Node000001_Node000003"><a xlink:title=" ">
<path fill="none" stroke="#63b8ff" d="M193.77,-128.72C175.57,-133.74 155.94,-139.15 138.38,-144"/>
<polygon fill="#63b8ff" stroke="#63b8ff" points="194.71,-132.09 203.42,-126.06 192.85,-125.34 194.71,-132.09"/>
</a>
</g>
</g>
<!-- Node4 -->
<g id="Node000004" class="node">
<title>Node4</title>
<g id="a_Node000004"><a xlink:href="../../d3/d05/classiot_1_1BatteryMotionSensor.html#a6409561834d5d5e041e45409b5cabccd" target="_top" xlink:title=" ">
<polygon fill="white" stroke="#666666" points="152,-126 14,-126 14,-96 152,-96 152,-126"/>
<text text-anchor="start" x="22" y="-114" font-family="Helvetica,sans-Serif" font-size="10.00">iot::BatteryMotionSensor</text>
<text text-anchor="middle" x="83" y="-103" font-family="Helvetica,sans-Serif" font-size="10.00">::readValue</text>
</a>
</g>
</g>
<!-- Node1&#45;&gt;Node4 -->
<g id="edge3_Node000001_Node000004" class="edge">
<title>Node1&#45;&gt;Node4</title>
<g id="a_edge3_Node000001_Node000004"><a xlink:title=" ">
<path fill="none" stroke="#63b8ff" d="M191.74,-111C178.76,-111 165.12,-111 152.08,-111"/>
<polygon fill="#63b8ff" stroke="#63b8ff" points="191.99,-114.5 201.99,-111 191.99,-107.5 191.99,-114.5"/>
</a>
</g>
</g>
<!-- Node5 -->
<g id="Node000005" class="node">
<title>Node5</title>
<g id="a_Node000005"><a xlink:href="../../df/d56/classiot_1_1BatteryTemperatureSensor.html#aed7c85ec4eee3431942cdcb5a118a64d" target="_top" xlink:title=" ">
<polygon fill="white" stroke="#666666" points="166,-78 0,-78 0,-48 166,-48 166,-78"/>
<text text-anchor="start" x="8" y="-66" font-family="Helvetica,sans-Serif" font-size="10.00">iot::BatteryTemperatureSensor</text>
<text text-anchor="middle" x="83" y="-55" font-family="Helvetica,sans-Serif" font-size="10.00">::sendData</text>
</a>
</g>
</g>
<!-- Node1&#45;&gt;Node5 -->
<g id="edge4_Node000001_Node000005" class="edge">
<title>Node1&#45;&gt;Node5</title>
<g id="a_edge4_Node000001_Node000005"><a xlink:title=" ">
<path fill="none" stroke="#63b8ff" d="M193.77,-93.28C175.57,-88.26 155.94,-82.85 138.38,-78"/>
<polygon fill="#63b8ff" stroke="#63b8ff" points="192.85,-96.66 203.42,-95.94 194.71,-89.91 192.85,-96.66"/>
</a>
</g>
</g>
<!-- Node6 -->
<g id="Node000006" class="node">
<title>Node6</title>
<g id="a_Node000006"><a xlink:href="../../d3/d05/classiot_1_1BatteryMotionSensor.html#a4fe971e8104caceb889d4f3029533700" target="_top" xlink:title=" ">
<polygon fill="white" stroke="#666666" points="152,-30 14,-30 14,0 152,0 152,-30"/>
<text text-anchor="start" x="22" y="-18" font-family="Helvetica,sans-Serif" font-size="10.00">iot::BatteryMotionSensor</text>
<text text-anchor="middle" x="83" y="-7" font-family="Helvetica,sans-Serif" font-size="10.00">::sendData</text>
</a>
</g>
</g>
<!-- Node1&#45;&gt;Node6 -->
<g id="edge5_Node000001_Node000006" class="edge">
<title>Node1&#45;&gt;Node6</title>
<g id="a_edge5_Node000001_Node000006"><a xlink:title=" ">
<path fill="none" stroke="#63b8ff" d="M235.16,-89.07C217.51,-73.19 191.82,-52.26 166,-39 159.4,-35.61 152.25,-32.63 145.02,-30.03"/>
<polygon fill="#63b8ff" stroke="#63b8ff" points="232.94,-91.78 242.67,-95.97 237.68,-86.63 232.94,-91.78"/>
</a>
</g>
</g>
</g>
</svg>
