<?xml version="1.0" encoding="UTF-8" standalone="no"?>
<!DOCTYPE svg PUBLIC "-//W3C//DTD SVG 1.1//EN"
 "http://www.w3.org/Graphics/SVG/1.1/DTD/svg11.dtd">
<!-- Generated by graphviz version 2.43.0 (0)
 -->
<!-- Title: iot::BatteryManager::setPowerConsumption Pages: 1 -->
<svg width="342pt" height="86pt"
 viewBox="0.00 0.00 342.00 86.00" xmlns="http://www.w3.org/2000/svg" xmlns:xlink="http://www.w3.org/1999/xlink">
<g id="graph0" class="graph" transform="scale(1 1) rotate(0) translate(4 82)">
<title>iot::BatteryManager::setPowerConsumption</title>
<!-- Node1 -->
<g id="Node000001" class="node">
<title>Node1</title>
<g id="a_Node000001"><a xlink:title="Set power consumption rate.">
<polygon fill="#999999" stroke="#666666" points="334,-54 202,-54 202,-24 334,-24 334,-54"/>
<text text-anchor="start" x="210" y="-42" font-family="Helvetica,sans-Serif" font-size="10.00">iot::BatteryManager</text>
<text text-anchor="middle" x="268" y="-31" font-family="Helvetica,sans-Serif" font-size="10.00">::setPowerConsumption</text>
</a>
</g>
</g>
<!-- Node2 -->
<g id="Node000002" class="node">
<title>Node2</title>
<g id="a_Node000002"><a xlink:href="../../d3/d05/classiot_1_1BatteryMotionSensor.html#aea214e079ece422f2eb542603faac745" target="_top" xlink:title=" ">
<polygon fill="white" stroke="#666666" points="152,-78 14,-78 14,-48 152,-48 152,-78"/>
<text text-anchor="start" x="22" y="-66" font-family="Helvetica,sans-Serif" font-size="10.00">iot::BatteryMotionSensor</text>
<text text-anchor="middle" x="83" y="-55" font-family="Helvetica,sans-Serif" font-size="10.00">::BatteryMotionSensor</text>
</a>
</g>
</g>
<!-- Node1&#45;&gt;Node2 -->
<g id="edge1_Node000001_Node000002" class="edge">
<title>Node1&#45;&gt;Node2</title>
<g id="a_edge1_Node000001_Node000002"><a xlink:title=" ">
<path fill="none" stroke="#63b8ff" d="M192.01,-48.84C178.84,-50.56 165.2,-52.35 152.23,-54.05"/>
<polygon fill="#63b8ff" stroke="#63b8ff" points="192.51,-52.3 201.97,-47.53 191.6,-45.36 192.51,-52.3"/>
</a>
</g>
</g>
<!-- Node3 -->
<g id="Node000003" class="node">
<title>Node3</title>
<g id="a_Node000003"><a xlink:href="../../df/d56/classiot_1_1BatteryTemperatureSensor.html#aae482c342c945533b0116bfd2285f514" target="_top" xlink:title=" ">
<polygon fill="white" stroke="#666666" points="166,-30 0,-30 0,0 166,0 166,-30"/>
<text text-anchor="start" x="8" y="-18" font-family="Helvetica,sans-Serif" font-size="10.00">iot::BatteryTemperatureSensor</text>
<text text-anchor="middle" x="83" y="-7" font-family="Helvetica,sans-Serif" font-size="10.00">::BatteryTemperatureSensor</text>
</a>
</g>
</g>
<!-- Node1&#45;&gt;Node3 -->
<g id="edge2_Node000001_Node000003" class="edge">
<title>Node1&#45;&gt;Node3</title>
<g id="a_edge2_Node000001_Node000003"><a xlink:title=" ">
<path fill="none" stroke="#63b8ff" d="M192.04,-29.17C183.49,-28.05 174.75,-26.9 166.11,-25.77"/>
<polygon fill="#63b8ff" stroke="#63b8ff" points="191.6,-32.64 201.97,-30.47 192.51,-25.7 191.6,-32.64"/>
</a>
</g>
</g>
</g>
</svg>
