<?xml version="1.0" encoding="UTF-8" standalone="no"?>
<!DOCTYPE svg PUBLIC "-//W3C//DTD SVG 1.1//EN"
 "http://www.w3.org/Graphics/SVG/1.1/DTD/svg11.dtd">
<!-- Generated by graphviz version 2.43.0 (0)
 -->
<!-- Title: iot::BatteryManager::getPowerConsumption Pages: 1 -->
<svg width="343pt" height="278pt"
 viewBox="0.00 0.00 343.00 278.00" xmlns="http://www.w3.org/2000/svg" xmlns:xlink="http://www.w3.org/1999/xlink">
<g id="graph0" class="graph" transform="scale(1 1) rotate(0) translate(4 274)">
<title>iot::BatteryManager::getPowerConsumption</title>
<!-- Node1 -->
<g id="Node000001" class="node">
<title>Node1</title>
<g id="a_Node000001"><a xlink:title="Get power consumption rate.">
<polygon fill="#999999" stroke="#666666" points="335,-150 202,-150 202,-120 335,-120 335,-150"/>
<text text-anchor="start" x="210" y="-138" font-family="Helvetica,sans-Serif" font-size="10.00">iot::BatteryManager</text>
<text text-anchor="middle" x="268.5" y="-127" font-family="Helvetica,sans-Serif" font-size="10.00">::getPowerConsumption</text>
</a>
</g>
</g>
<!-- Node2 -->
<g id="Node000002" class="node">
<title>Node2</title>
<g id="a_Node000002"><a xlink:href="../../df/d56/classiot_1_1BatteryTemperatureSensor.html#a3ff270f6069d13642345207e775d7d8b" target="_top" xlink:title=" ">
<polygon fill="white" stroke="#666666" points="166,-270 0,-270 0,-240 166,-240 166,-270"/>
<text text-anchor="start" x="8" y="-258" font-family="Helvetica,sans-Serif" font-size="10.00">iot::BatteryTemperatureSensor</text>
<text text-anchor="middle" x="83" y="-247" font-family="Helvetica,sans-Serif" font-size="10.00">::readValue</text>
</a>
</g>
</g>
<!-- Node1&#45;&gt;Node2 -->
<g id="edge1_Node000001_Node000002" class="edge">
<title>Node1&#45;&gt;Node2</title>
<g id="a_edge1_Node000001_Node000002"><a xlink:title=" ">
<path fill="none" stroke="#63b8ff" d="M248.82,-158.11C230.05,-179.89 199.2,-211.94 166,-231 160.08,-234.4 153.64,-237.35 147.06,-239.9"/>
<polygon fill="#63b8ff" stroke="#63b8ff" points="251.62,-160.22 255.4,-150.32 246.28,-155.7 251.62,-160.22"/>
</a>
</g>
</g>
<!-- Node3 -->
<g id="Node000003" class="node">
<title>Node3</title>
<g id="a_Node000003"><a xlink:href="../../d3/d05/classiot_1_1BatteryMotionSensor.html#a6409561834d5d5e041e45409b5cabccd" target="_top" xlink:title=" ">
<polygon fill="white" stroke="#666666" points="152,-222 14,-222 14,-192 152,-192 152,-222"/>
<text text-anchor="start" x="22" y="-210" font-family="Helvetica,sans-Serif" font-size="10.00">iot::BatteryMotionSensor</text>
<text text-anchor="middle" x="83" y="-199" font-family="Helvetica,sans-Serif" font-size="10.00">::readValue</text>
</a>
</g>
</g>
<!-- Node1&#45;&gt;Node3 -->
<g id="edge2_Node000001_Node000003" class="edge">
<title>Node1&#45;&gt;Node3</title>
<g id="a_edge2_Node000001_Node000003"><a xlink:title=" ">
<path fill="none" stroke="#63b8ff" d="M229.58,-154.67C210.77,-163.98 187.51,-174.82 166,-183 157.68,-186.16 148.76,-189.16 139.97,-191.9"/>
<polygon fill="#63b8ff" stroke="#63b8ff" points="231.34,-157.71 238.71,-150.1 228.2,-151.45 231.34,-157.71"/>
</a>
</g>
</g>
<!-- Node4 -->
<g id="Node000004" class="node">
<title>Node4</title>
<g id="a_Node000004"><a xlink:href="../../df/d56/classiot_1_1BatteryTemperatureSensor.html#af3d106ea1ee1822d7714f757f542a9b8" target="_top" xlink:title=" ">
<polygon fill="white" stroke="#666666" points="166,-174 0,-174 0,-144 166,-144 166,-174"/>
<text text-anchor="start" x="8" y="-162" font-family="Helvetica,sans-Serif" font-size="10.00">iot::BatteryTemperatureSensor</text>
<text text-anchor="middle" x="83" y="-151" font-family="Helvetica,sans-Serif" font-size="10.00">::receiveData</text>
</a>
</g>
</g>
<!-- Node1&#45;&gt;Node4 -->
<g id="edge3_Node000001_Node000004" class="edge">
<title>Node1&#45;&gt;Node4</title>
<g id="a_edge3_Node000001_Node000004"><a xlink:title=" ">
<path fill="none" stroke="#63b8ff" d="M191.65,-144.92C183.27,-146.02 174.7,-147.14 166.24,-148.24"/>
<polygon fill="#63b8ff" stroke="#63b8ff" points="192.31,-148.36 201.77,-143.6 191.4,-141.42 192.31,-148.36"/>
</a>
</g>
</g>
<!-- Node5 -->
<g id="Node000005" class="node">
<title>Node5</title>
<g id="a_Node000005"><a xlink:href="../../d3/d05/classiot_1_1BatteryMotionSensor.html#ad0cc1fc090139120f1898068bb211497" target="_top" xlink:title=" ">
<polygon fill="white" stroke="#666666" points="152,-126 14,-126 14,-96 152,-96 152,-126"/>
<text text-anchor="start" x="22" y="-114" font-family="Helvetica,sans-Serif" font-size="10.00">iot::BatteryMotionSensor</text>
<text text-anchor="middle" x="83" y="-103" font-family="Helvetica,sans-Serif" font-size="10.00">::receiveData</text>
</a>
</g>
</g>
<!-- Node1&#45;&gt;Node5 -->
<g id="edge4_Node000001_Node000005" class="edge">
<title>Node1&#45;&gt;Node5</title>
<g id="a_edge4_Node000001_Node000005"><a xlink:title=" ">
<path fill="none" stroke="#63b8ff" d="M191.81,-125.1C178.63,-123.38 165.01,-121.59 152.05,-119.9"/>
<polygon fill="#63b8ff" stroke="#63b8ff" points="191.4,-128.58 201.77,-126.4 192.31,-121.64 191.4,-128.58"/>
</a>
</g>
</g>
<!-- Node6 -->
<g id="Node000006" class="node">
<title>Node6</title>
<g id="a_Node000006"><a xlink:href="../../df/d56/classiot_1_1BatteryTemperatureSensor.html#aed7c85ec4eee3431942cdcb5a118a64d" target="_top" xlink:title=" ">
<polygon fill="white" stroke="#666666" points="166,-78 0,-78 0,-48 166,-48 166,-78"/>
<text text-anchor="start" x="8" y="-66" font-family="Helvetica,sans-Serif" font-size="10.00">iot::BatteryTemperatureSensor</text>
<text text-anchor="middle" x="83" y="-55" font-family="Helvetica,sans-Serif" font-size="10.00">::sendData</text>
</a>
</g>
</g>
<!-- Node1&#45;&gt;Node6 -->
<g id="edge5_Node000001_Node000006" class="edge">
<title>Node1&#45;&gt;Node6</title>
<g id="a_edge5_Node000001_Node000006"><a xlink:title=" ">
<path fill="none" stroke="#63b8ff" d="M229.58,-115.33C210.77,-106.02 187.51,-95.18 166,-87 157.68,-83.84 148.76,-80.84 139.97,-78.1"/>
<polygon fill="#63b8ff" stroke="#63b8ff" points="228.2,-118.55 238.71,-119.9 231.34,-112.29 228.2,-118.55"/>
</a>
</g>
</g>
<!-- Node7 -->
<g id="Node000007" class="node">
<title>Node7</title>
<g id="a_Node000007"><a xlink:href="../../d3/d05/classiot_1_1BatteryMotionSensor.html#a4fe971e8104caceb889d4f3029533700" target="_top" xlink:title=" ">
<polygon fill="white" stroke="#666666" points="152,-30 14,-30 14,0 152,0 152,-30"/>
<text text-anchor="start" x="22" y="-18" font-family="Helvetica,sans-Serif" font-size="10.00">iot::BatteryMotionSensor</text>
<text text-anchor="middle" x="83" y="-7" font-family="Helvetica,sans-Serif" font-size="10.00">::sendData</text>
</a>
</g>
</g>
<!-- Node1&#45;&gt;Node7 -->
<g id="edge6_Node000001_Node000007" class="edge">
<title>Node1&#45;&gt;Node7</title>
<g id="a_edge6_Node000001_Node000007"><a xlink:title=" ">
<path fill="none" stroke="#63b8ff" d="M248.82,-111.89C230.05,-90.11 199.2,-58.06 166,-39 160.08,-35.6 153.64,-32.65 147.06,-30.1"/>
<polygon fill="#63b8ff" stroke="#63b8ff" points="246.28,-114.3 255.4,-119.68 251.62,-109.78 246.28,-114.3"/>
</a>
</g>
</g>
</g>
</svg>
