<?xml version="1.0" encoding="UTF-8" standalone="no"?>
<!DOCTYPE svg PUBLIC "-//W3C//DTD SVG 1.1//EN"
 "http://www.w3.org/Graphics/SVG/1.1/DTD/svg11.dtd">
<!-- Generated by graphviz version 2.43.0 (0)
 -->
<!-- Title: iot::ProtocolAwareDevice::consumeBattery Pages: 1 -->
<svg width="338pt" height="278pt"
 viewBox="0.00 0.00 338.00 278.00" xmlns="http://www.w3.org/2000/svg" xmlns:xlink="http://www.w3.org/1999/xlink">
<g id="graph0" class="graph" transform="scale(1 1) rotate(0) translate(4 274)">
<title>iot::ProtocolAwareDevice::consumeBattery</title>
<!-- Node1 -->
<g id="Node000001" class="node">
<title>Node1</title>
<g id="a_Node000001"><a xlink:title=" ">
<polygon fill="#999999" stroke="#666666" points="330,-150 190,-150 190,-120 330,-120 330,-150"/>
<text text-anchor="start" x="198" y="-138" font-family="Helvetica,sans-Serif" font-size="10.00">iot::ProtocolAwareDevice</text>
<text text-anchor="middle" x="260" y="-127" font-family="Helvetica,sans-Serif" font-size="10.00">::consumeBattery</text>
</a>
</g>
</g>
<!-- Node2 -->
<g id="Node000002" class="node">
<title>Node2</title>
<g id="a_Node000002"><a xlink:href="../../d2/dc6/classiot_1_1LoRaTemperatureSensor.html#a165b0ac0ef77880f271813d67257b7b6" target="_top" xlink:title=" ">
<polygon fill="white" stroke="#666666" points="154,-270 0,-270 0,-240 154,-240 154,-270"/>
<text text-anchor="start" x="8" y="-258" font-family="Helvetica,sans-Serif" font-size="10.00">iot::LoRaTemperatureSensor</text>
<text text-anchor="middle" x="77" y="-247" font-family="Helvetica,sans-Serif" font-size="10.00">::readValue</text>
</a>
</g>
</g>
<!-- Node1&#45;&gt;Node2 -->
<g id="edge1_Node000001_Node000002" class="edge">
<title>Node1&#45;&gt;Node2</title>
<g id="a_edge1_Node000001_Node000002"><a xlink:title=" ">
<path fill="none" stroke="#63b8ff" d="M239.42,-157.93C219.81,-179.57 187.77,-211.52 154,-231 148.13,-234.39 141.72,-237.36 135.19,-239.95"/>
<polygon fill="#63b8ff" stroke="#63b8ff" points="242.27,-159.99 246.3,-150.19 237.04,-155.33 242.27,-159.99"/>
</a>
</g>
</g>
<!-- Node3 -->
<g id="Node000003" class="node">
<title>Node3</title>
<g id="a_Node000003"><a xlink:href="../../d8/d0a/classiot_1_1ZigBeeMotionSensor.html#a4adee821203bc4a8415f417b74963e8f" target="_top" xlink:title=" ">
<polygon fill="white" stroke="#666666" points="145.5,-222 8.5,-222 8.5,-192 145.5,-192 145.5,-222"/>
<text text-anchor="start" x="16.5" y="-210" font-family="Helvetica,sans-Serif" font-size="10.00">iot::ZigBeeMotionSensor</text>
<text text-anchor="middle" x="77" y="-199" font-family="Helvetica,sans-Serif" font-size="10.00">::readValue</text>
</a>
</g>
</g>
<!-- Node1&#45;&gt;Node3 -->
<g id="edge2_Node000001_Node000003" class="edge">
<title>Node1&#45;&gt;Node3</title>
<g id="a_edge2_Node000001_Node000003"><a xlink:title=" ">
<path fill="none" stroke="#63b8ff" d="M219.47,-154.46C200,-163.69 176.02,-174.53 154,-183 145.86,-186.13 137.13,-189.17 128.59,-191.98"/>
<polygon fill="#63b8ff" stroke="#63b8ff" points="221.13,-157.55 228.64,-150.08 218.11,-151.24 221.13,-157.55"/>
</a>
</g>
</g>
<!-- Node4 -->
<g id="Node000004" class="node">
<title>Node4</title>
<g id="a_Node000004"><a xlink:href="../../dd/d9a/classiot_1_1BLEHealthSensor.html#a1dd94d4b6ea842a35254844c9ab9429d" target="_top" xlink:title=" ">
<polygon fill="white" stroke="#666666" points="136.5,-174 17.5,-174 17.5,-144 136.5,-144 136.5,-174"/>
<text text-anchor="start" x="25.5" y="-162" font-family="Helvetica,sans-Serif" font-size="10.00">iot::BLEHealthSensor</text>
<text text-anchor="middle" x="77" y="-151" font-family="Helvetica,sans-Serif" font-size="10.00">::readValue</text>
</a>
</g>
</g>
<!-- Node1&#45;&gt;Node4 -->
<g id="edge3_Node000001_Node000004" class="edge">
<title>Node1&#45;&gt;Node4</title>
<g id="a_edge3_Node000001_Node000004"><a xlink:title=" ">
<path fill="none" stroke="#63b8ff" d="M179.82,-145.5C165.28,-147.43 150.35,-149.41 136.55,-151.24"/>
<polygon fill="#63b8ff" stroke="#63b8ff" points="180.34,-148.96 189.8,-144.18 179.42,-142.02 180.34,-148.96"/>
</a>
</g>
</g>
<!-- Node5 -->
<g id="Node000005" class="node">
<title>Node5</title>
<g id="a_Node000005"><a xlink:href="../../d2/dc6/classiot_1_1LoRaTemperatureSensor.html#a0ae321277a58b9cbcf3ab9df89899d84" target="_top" xlink:title=" ">
<polygon fill="white" stroke="#666666" points="154,-126 0,-126 0,-96 154,-96 154,-126"/>
<text text-anchor="start" x="8" y="-114" font-family="Helvetica,sans-Serif" font-size="10.00">iot::LoRaTemperatureSensor</text>
<text text-anchor="middle" x="77" y="-103" font-family="Helvetica,sans-Serif" font-size="10.00">::sendData</text>
</a>
</g>
</g>
<!-- Node1&#45;&gt;Node5 -->
<g id="edge4_Node000001_Node000005" class="edge">
<title>Node1&#45;&gt;Node5</title>
<g id="a_edge4_Node000001_Node000005"><a xlink:title=" ">
<path fill="none" stroke="#63b8ff" d="M179.84,-124.5C171.3,-123.37 162.61,-122.22 154.1,-121.09"/>
<polygon fill="#63b8ff" stroke="#63b8ff" points="179.42,-127.98 189.8,-125.82 180.34,-121.04 179.42,-127.98"/>
</a>
</g>
</g>
<!-- Node6 -->
<g id="Node000006" class="node">
<title>Node6</title>
<g id="a_Node000006"><a xlink:href="../../d8/d0a/classiot_1_1ZigBeeMotionSensor.html#a0c6be14ffbf689dc34c997dfb1cc16de" target="_top" xlink:title=" ">
<polygon fill="white" stroke="#666666" points="145.5,-78 8.5,-78 8.5,-48 145.5,-48 145.5,-78"/>
<text text-anchor="start" x="16.5" y="-66" font-family="Helvetica,sans-Serif" font-size="10.00">iot::ZigBeeMotionSensor</text>
<text text-anchor="middle" x="77" y="-55" font-family="Helvetica,sans-Serif" font-size="10.00">::sendData</text>
</a>
</g>
</g>
<!-- Node1&#45;&gt;Node6 -->
<g id="edge5_Node000001_Node000006" class="edge">
<title>Node1&#45;&gt;Node6</title>
<g id="a_edge5_Node000001_Node000006"><a xlink:title=" ">
<path fill="none" stroke="#63b8ff" d="M219.47,-115.54C200,-106.31 176.02,-95.47 154,-87 145.86,-83.87 137.13,-80.83 128.59,-78.02"/>
<polygon fill="#63b8ff" stroke="#63b8ff" points="218.11,-118.76 228.64,-119.92 221.13,-112.45 218.11,-118.76"/>
</a>
</g>
</g>
<!-- Node7 -->
<g id="Node000007" class="node">
<title>Node7</title>
<g id="a_Node000007"><a xlink:href="../../dd/d9a/classiot_1_1BLEHealthSensor.html#a4bcb8c9cc40c158110830c62eebb27ea" target="_top" xlink:title=" ">
<polygon fill="white" stroke="#666666" points="136.5,-30 17.5,-30 17.5,0 136.5,0 136.5,-30"/>
<text text-anchor="start" x="25.5" y="-18" font-family="Helvetica,sans-Serif" font-size="10.00">iot::BLEHealthSensor</text>
<text text-anchor="middle" x="77" y="-7" font-family="Helvetica,sans-Serif" font-size="10.00">::sendData</text>
</a>
</g>
</g>
<!-- Node1&#45;&gt;Node7 -->
<g id="edge6_Node000001_Node000007" class="edge">
<title>Node1&#45;&gt;Node7</title>
<g id="a_edge6_Node000001_Node000007"><a xlink:title=" ">
<path fill="none" stroke="#63b8ff" d="M239.42,-112.07C219.81,-90.43 187.77,-58.48 154,-39 148.13,-35.61 141.72,-32.64 135.19,-30.05"/>
<polygon fill="#63b8ff" stroke="#63b8ff" points="237.04,-114.67 246.3,-119.81 242.27,-110.01 237.04,-114.67"/>
</a>
</g>
</g>
</g>
</svg>
