<?xml version="1.0" encoding="UTF-8" standalone="no"?>
<!DOCTYPE svg PUBLIC "-//W3C//DTD SVG 1.1//EN"
 "http://www.w3.org/Graphics/SVG/1.1/DTD/svg11.dtd">
<!-- Generated by graphviz version 2.43.0 (0)
 -->
<!-- Title: iot::ProtocolAwareDevice::getBatteryLevel Pages: 1 -->
<svg width="338pt" height="172pt"
 viewBox="0.00 0.00 338.00 171.50" xmlns="http://www.w3.org/2000/svg" xmlns:xlink="http://www.w3.org/1999/xlink">
<g id="graph0" class="graph" transform="scale(1 1) rotate(0) translate(4 167.5)">
<title>iot::ProtocolAwareDevice::getBatteryLevel</title>
<!-- Node1 -->
<g id="Node000001" class="node">
<title>Node1</title>
<g id="a_Node000001"><a xlink:title=" ">
<polygon fill="#999999" stroke="#666666" points="330,-102 190,-102 190,-72 330,-72 330,-102"/>
<text text-anchor="start" x="198" y="-90" font-family="Helvetica,sans-Serif" font-size="10.00">iot::ProtocolAwareDevice</text>
<text text-anchor="middle" x="260" y="-79" font-family="Helvetica,sans-Serif" font-size="10.00">::getBatteryLevel</text>
</a>
</g>
</g>
<!-- Node2 -->
<g id="Node000002" class="node">
<title>Node2</title>
<g id="a_Node000002"><a xlink:href="../../df/d0a/main_8cpp.html#ae66f6b31b5ad750f1fe042a706a4e3d4" target="_top" xlink:title=" ">
<polygon fill="white" stroke="#666666" points="97.5,-163.5 56.5,-163.5 56.5,-144.5 97.5,-144.5 97.5,-163.5"/>
<text text-anchor="middle" x="77" y="-151.5" font-family="Helvetica,sans-Serif" font-size="10.00">main</text>
</a>
</g>
</g>
<!-- Node1&#45;&gt;Node2 -->
<g id="edge1_Node000001_Node000002" class="edge">
<title>Node1&#45;&gt;Node2</title>
<g id="a_edge1_Node000001_Node000002"><a xlink:title=" ">
<path fill="none" stroke="#63b8ff" d="M220.54,-106.65C200.97,-116.11 176.6,-127.09 154,-135 135.26,-141.56 113.18,-146.82 97.66,-150.13"/>
<polygon fill="#63b8ff" stroke="#63b8ff" points="222.29,-109.69 229.73,-102.14 219.21,-103.4 222.29,-109.69"/>
</a>
</g>
</g>
<!-- Node3 -->
<g id="Node000003" class="node">
<title>Node3</title>
<g id="a_Node000003"><a xlink:href="../../d2/dc6/classiot_1_1LoRaTemperatureSensor.html#a0ae321277a58b9cbcf3ab9df89899d84" target="_top" xlink:title=" ">
<polygon fill="white" stroke="#666666" points="154,-126 0,-126 0,-96 154,-96 154,-126"/>
<text text-anchor="start" x="8" y="-114" font-family="Helvetica,sans-Serif" font-size="10.00">iot::LoRaTemperatureSensor</text>
<text text-anchor="middle" x="77" y="-103" font-family="Helvetica,sans-Serif" font-size="10.00">::sendData</text>
</a>
</g>
</g>
<!-- Node1&#45;&gt;Node3 -->
<g id="edge2_Node000001_Node000003" class="edge">
<title>Node1&#45;&gt;Node3</title>
<g id="a_edge2_Node000001_Node000003"><a xlink:title=" ">
<path fill="none" stroke="#63b8ff" d="M179.84,-97.5C171.3,-98.63 162.61,-99.78 154.1,-100.91"/>
<polygon fill="#63b8ff" stroke="#63b8ff" points="180.34,-100.96 189.8,-96.18 179.42,-94.02 180.34,-100.96"/>
</a>
</g>
</g>
<!-- Node4 -->
<g id="Node000004" class="node">
<title>Node4</title>
<g id="a_Node000004"><a xlink:href="../../d8/d0a/classiot_1_1ZigBeeMotionSensor.html#a0c6be14ffbf689dc34c997dfb1cc16de" target="_top" xlink:title=" ">
<polygon fill="white" stroke="#666666" points="145.5,-78 8.5,-78 8.5,-48 145.5,-48 145.5,-78"/>
<text text-anchor="start" x="16.5" y="-66" font-family="Helvetica,sans-Serif" font-size="10.00">iot::ZigBeeMotionSensor</text>
<text text-anchor="middle" x="77" y="-55" font-family="Helvetica,sans-Serif" font-size="10.00">::sendData</text>
</a>
</g>
</g>
<!-- Node1&#45;&gt;Node4 -->
<g id="edge3_Node000001_Node000004" class="edge">
<title>Node1&#45;&gt;Node4</title>
<g id="a_edge3_Node000001_Node000004"><a xlink:title=" ">
<path fill="none" stroke="#63b8ff" d="M179.86,-76.51C168.46,-75 156.82,-73.45 145.67,-71.97"/>
<polygon fill="#63b8ff" stroke="#63b8ff" points="179.42,-79.98 189.8,-77.82 180.34,-73.04 179.42,-79.98"/>
</a>
</g>
</g>
<!-- Node5 -->
<g id="Node000005" class="node">
<title>Node5</title>
<g id="a_Node000005"><a xlink:href="../../dd/d9a/classiot_1_1BLEHealthSensor.html#a4bcb8c9cc40c158110830c62eebb27ea" target="_top" xlink:title=" ">
<polygon fill="white" stroke="#666666" points="136.5,-30 17.5,-30 17.5,0 136.5,0 136.5,-30"/>
<text text-anchor="start" x="25.5" y="-18" font-family="Helvetica,sans-Serif" font-size="10.00">iot::BLEHealthSensor</text>
<text text-anchor="middle" x="77" y="-7" font-family="Helvetica,sans-Serif" font-size="10.00">::sendData</text>
</a>
</g>
</g>
<!-- Node1&#45;&gt;Node5 -->
<g id="edge4_Node000001_Node000005" class="edge">
<title>Node1&#45;&gt;Node5</title>
<g id="a_edge4_Node000001_Node000005"><a xlink:title=" ">
<path fill="none" stroke="#63b8ff" d="M219.47,-67.54C200,-58.31 176.02,-47.47 154,-39 145.86,-35.87 137.13,-32.83 128.59,-30.02"/>
<polygon fill="#63b8ff" stroke="#63b8ff" points="218.11,-70.76 228.64,-71.92 221.13,-64.45 218.11,-70.76"/>
</a>
</g>
</g>
</g>
</svg>
