<?xml version="1.0" encoding="UTF-8" standalone="no"?>
<!DOCTYPE svg PUBLIC "-//W3C//DTD SVG 1.1//EN"
 "http://www.w3.org/Graphics/SVG/1.1/DTD/svg11.dtd">
<!-- Generated by graphviz version 2.43.0 (0)
 -->
<!-- Title: iot::Actuator::receiveData Pages: 1 -->
<svg width="353pt" height="138pt"
 viewBox="0.00 0.00 353.00 138.00" xmlns="http://www.w3.org/2000/svg" xmlns:xlink="http://www.w3.org/1999/xlink">
<g id="graph0" class="graph" transform="scale(1 1) rotate(0) translate(4 134)">
<title>iot::Actuator::receiveData</title>
<!-- Node1 -->
<g id="Node000001" class="node">
<title>Node1</title>
<g id="a_Node000001"><a xlink:title=" ">
<polygon fill="#999999" stroke="#666666" points="142,-74 0,-74 0,-55 142,-55 142,-74"/>
<text text-anchor="middle" x="71" y="-62" font-family="Helvetica,sans-Serif" font-size="10.00">iot::Actuator::receiveData</text>
</a>
</g>
</g>
<!-- Node2 -->
<g id="Node000002" class="node">
<title>Node2</title>
<g id="a_Node000002"><a xlink:href="../../d6/d08/classiot_1_1Message.html#adbd88582dd9c4207b91b96083b8f46ea" target="_top" xlink:title=" ">
<polygon fill="white" stroke="#666666" points="345,-130 178,-130 178,-111 345,-111 345,-130"/>
<text text-anchor="middle" x="261.5" y="-118" font-family="Helvetica,sans-Serif" font-size="10.00">iot::Message::getMessageType</text>
</a>
</g>
</g>
<!-- Node1&#45;&gt;Node2 -->
<g id="edge1_Node000001_Node000002" class="edge">
<title>Node1&#45;&gt;Node2</title>
<g id="a_edge1_Node000001_Node000002"><a xlink:title=" ">
<path fill="none" stroke="#63b8ff" d="M96.13,-74.16C117.42,-82.44 149.44,-94.3 178,-102.5 185.71,-104.71 193.9,-106.8 202.01,-108.72"/>
<polygon fill="#63b8ff" stroke="#63b8ff" points="201.29,-112.15 211.82,-110.97 202.85,-105.33 201.29,-112.15"/>
</a>
</g>
</g>
<!-- Node3 -->
<g id="Node000003" class="node">
<title>Node3</title>
<g id="a_Node000003"><a xlink:href="../../d6/d08/classiot_1_1Message.html#a866a8a1eb2d5df27485288aa87a4095a" target="_top" xlink:title=" ">
<polygon fill="white" stroke="#666666" points="331,-93 192,-93 192,-74 331,-74 331,-93"/>
<text text-anchor="middle" x="261.5" y="-81" font-family="Helvetica,sans-Serif" font-size="10.00">iot::Message::getPayload</text>
</a>
</g>
</g>
<!-- Node1&#45;&gt;Node3 -->
<g id="edge2_Node000001_Node000003" class="edge">
<title>Node1&#45;&gt;Node3</title>
<g id="a_edge2_Node000001_Node000003"><a xlink:title=" ">
<path fill="none" stroke="#63b8ff" d="M142.19,-71.57C155.12,-72.88 168.7,-74.25 181.85,-75.57"/>
<polygon fill="#63b8ff" stroke="#63b8ff" points="181.52,-79.06 191.82,-76.58 182.22,-72.09 181.52,-79.06"/>
</a>
</g>
</g>
<!-- Node4 -->
<g id="Node000004" class="node">
<title>Node4</title>
<g id="a_Node000004"><a xlink:href="../../db/d52/classiot_1_1Actuator.html#add2da1fef099ae7a4da5c9076cbe279c" target="_top" xlink:title=" ">
<polygon fill="white" stroke="#666666" points="323,-56 200,-56 200,-37 323,-37 323,-56"/>
<text text-anchor="middle" x="261.5" y="-44" font-family="Helvetica,sans-Serif" font-size="10.00">iot::Actuator::setState</text>
</a>
</g>
</g>
<!-- Node1&#45;&gt;Node4 -->
<g id="edge3_Node000001_Node000004" class="edge">
<title>Node1&#45;&gt;Node4</title>
<g id="a_edge3_Node000001_Node000004"><a xlink:title=" ">
<path fill="none" stroke="#63b8ff" d="M142.19,-57.8C157.73,-56.31 174.21,-54.74 189.77,-53.25"/>
<polygon fill="#63b8ff" stroke="#63b8ff" points="190.23,-56.73 199.85,-52.29 189.56,-49.76 190.23,-56.73"/>
</a>
</g>
</g>
<!-- Node5 -->
<g id="Node000005" class="node">
<title>Node5</title>
<g id="a_Node000005"><a xlink:href="../../db/d52/classiot_1_1Actuator.html#a4e53403e3449b9868c1786371d528450" target="_top" xlink:title=" ">
<polygon fill="white" stroke="#666666" points="318,-19 205,-19 205,0 318,0 318,-19"/>
<text text-anchor="middle" x="261.5" y="-7" font-family="Helvetica,sans-Serif" font-size="10.00">iot::Actuator::toggle</text>
</a>
</g>
</g>
<!-- Node1&#45;&gt;Node5 -->
<g id="edge4_Node000001_Node000005" class="edge">
<title>Node1&#45;&gt;Node5</title>
<g id="a_edge4_Node000001_Node000005"><a xlink:title=" ">
<path fill="none" stroke="#63b8ff" d="M97.91,-54.88C119.23,-47.17 150.33,-36.36 178,-28.5 186.83,-25.99 196.25,-23.58 205.46,-21.36"/>
<polygon fill="#63b8ff" stroke="#63b8ff" points="206.4,-24.73 215.33,-19.04 204.8,-17.92 206.4,-24.73"/>
</a>
</g>
</g>
</g>
</svg>
