<?xml version="1.0" encoding="UTF-8" standalone="no"?>
<!DOCTYPE svg PUBLIC "-//W3C//DTD SVG 1.1//EN"
 "http://www.w3.org/Graphics/SVG/1.1/DTD/svg11.dtd">
<!-- Generated by graphviz version 2.43.0 (0)
 -->
<!-- Title: src/devices/NetworkMonitor.cpp Pages: 1 -->
<svg width="339pt" height="203pt"
 viewBox="0.00 0.00 338.50 203.00" xmlns="http://www.w3.org/2000/svg" xmlns:xlink="http://www.w3.org/1999/xlink">
<g id="graph0" class="graph" transform="scale(1 1) rotate(0) translate(4 199)">
<title>src/devices/NetworkMonitor.cpp</title>
<!-- Node1 -->
<g id="Node000001" class="node">
<title>Node1</title>
<g id="a_Node000001"><a xlink:title=" ">
<polygon fill="#999999" stroke="#666666" points="330.5,-195 157.5,-195 157.5,-176 330.5,-176 330.5,-195"/>
<text text-anchor="middle" x="244" y="-183" font-family="Helvetica,sans-Serif" font-size="10.00">src/devices/NetworkMonitor.cpp</text>
</a>
</g>
</g>
<!-- Node2 -->
<g id="Node000002" class="node">
<title>Node2</title>
<g id="a_Node000002"><a xlink:href="../../de/d8a/NetworkMonitor_8h.html" target="_top" xlink:title=" ">
<polygon fill="white" stroke="#666666" points="258,-140 148,-140 148,-110 258,-110 258,-140"/>
<text text-anchor="start" x="156" y="-128" font-family="Helvetica,sans-Serif" font-size="10.00">../../include/devices</text>
<text text-anchor="middle" x="203" y="-117" font-family="Helvetica,sans-Serif" font-size="10.00">/NetworkMonitor.h</text>
</a>
</g>
</g>
<!-- Node1&#45;&gt;Node2 -->
<g id="edge1_Node000001_Node000002" class="edge">
<title>Node1&#45;&gt;Node2</title>
<g id="a_edge1_Node000001_Node000002"><a xlink:title=" ">
<path fill="none" stroke="#63b8ff" d="M237.95,-175.87C232.9,-168.67 225.48,-158.07 218.76,-148.49"/>
<polygon fill="#63b8ff" stroke="#63b8ff" points="221.5,-146.29 212.89,-140.11 215.77,-150.31 221.5,-146.29"/>
</a>
</g>
</g>
<!-- Node9 -->
<g id="Node000009" class="node">
<title>Node9</title>
<g id="a_Node000009"><a xlink:title=" ">
<polygon fill="#e0e0e0" stroke="#999999" points="324,-74 264,-74 264,-55 324,-55 324,-74"/>
<text text-anchor="middle" x="294" y="-62" font-family="Helvetica,sans-Serif" font-size="10.00">iostream</text>
</a>
</g>
</g>
<!-- Node1&#45;&gt;Node9 -->
<g id="edge11_Node000001_Node000009" class="edge">
<title>Node1&#45;&gt;Node9</title>
<g id="a_edge11_Node000001_Node000009"><a xlink:title=" ">
<path fill="none" stroke="#63b8ff" d="M248.92,-175.8C253.83,-166.94 261.42,-152.75 267,-140 275.16,-121.34 282.92,-99.34 288,-84.11"/>
<polygon fill="#63b8ff" stroke="#63b8ff" points="291.41,-84.95 291.2,-74.36 284.76,-82.77 291.41,-84.95"/>
</a>
</g>
</g>
<!-- Node3 -->
<g id="Node000003" class="node">
<title>Node3</title>
<g id="a_Node000003"><a xlink:href="../../de/daa/IoTDevice_8h.html" target="_top" xlink:title=" ">
<polygon fill="white" stroke="#666666" points="125.5,-74 18.5,-74 18.5,-55 125.5,-55 125.5,-74"/>
<text text-anchor="middle" x="72" y="-62" font-family="Helvetica,sans-Serif" font-size="10.00">../core/IoTDevice.h</text>
</a>
</g>
</g>
<!-- Node2&#45;&gt;Node3 -->
<g id="edge2_Node000002_Node000003" class="edge">
<title>Node2&#45;&gt;Node3</title>
<g id="a_edge2_Node000002_Node000003"><a xlink:title=" ">
<path fill="none" stroke="#63b8ff" d="M171.62,-109.99C150.06,-100.36 121.65,-87.67 100.69,-78.31"/>
<polygon fill="#63b8ff" stroke="#63b8ff" points="101.9,-75.02 91.35,-74.14 99.05,-81.41 101.9,-75.02"/>
</a>
</g>
</g>
<!-- Node7 -->
<g id="Node000007" class="node">
<title>Node7</title>
<g id="a_Node000007"><a xlink:href="../../d5/dca/Message_8h.html" target="_top" xlink:title=" ">
<polygon fill="white" stroke="#666666" points="246,-74 144,-74 144,-55 246,-55 246,-74"/>
<text text-anchor="middle" x="195" y="-62" font-family="Helvetica,sans-Serif" font-size="10.00">../core/Message.h</text>
</a>
</g>
</g>
<!-- Node2&#45;&gt;Node7 -->
<g id="edge6_Node000002_Node000007" class="edge">
<title>Node2&#45;&gt;Node7</title>
<g id="a_edge6_Node000002_Node000007"><a xlink:title=" ">
<path fill="none" stroke="#63b8ff" d="M201.06,-109.84C200.02,-102.21 198.72,-92.7 197.59,-84.45"/>
<polygon fill="#63b8ff" stroke="#63b8ff" points="201.02,-83.7 196.2,-74.27 194.09,-84.65 201.02,-83.7"/>
</a>
</g>
</g>
<!-- Node2&#45;&gt;Node9 -->
<g id="edge10_Node000002_Node000009" class="edge">
<title>Node2&#45;&gt;Node9</title>
<g id="a_edge10_Node000002_Node000009"><a xlink:title=" ">
<path fill="none" stroke="#63b8ff" d="M225.03,-109.84C239.27,-100.68 257.73,-88.82 271.97,-79.66"/>
<polygon fill="#63b8ff" stroke="#63b8ff" points="274.11,-82.45 280.63,-74.09 270.33,-76.56 274.11,-82.45"/>
</a>
</g>
</g>
<!-- Node4 -->
<g id="Node000004" class="node">
<title>Node4</title>
<g id="a_Node000004"><a xlink:title=" ">
<polygon fill="#e0e0e0" stroke="#999999" points="188,-19 144,-19 144,0 188,0 188,-19"/>
<text text-anchor="middle" x="166" y="-7" font-family="Helvetica,sans-Serif" font-size="10.00">string</text>
</a>
</g>
</g>
<!-- Node3&#45;&gt;Node4 -->
<g id="edge3_Node000003_Node000004" class="edge">
<title>Node3&#45;&gt;Node4</title>
<g id="a_edge3_Node000003_Node000004"><a xlink:title=" ">
<path fill="none" stroke="#63b8ff" d="M87.1,-54.98C101.82,-46.69 124.42,-33.94 141.67,-24.22"/>
<polygon fill="#63b8ff" stroke="#63b8ff" points="143.63,-27.13 150.62,-19.17 140.19,-21.03 143.63,-27.13"/>
</a>
</g>
</g>
<!-- Node5 -->
<g id="Node000005" class="node">
<title>Node5</title>
<g id="a_Node000005"><a xlink:title=" ">
<polygon fill="#e0e0e0" stroke="#999999" points="58,-19 0,-19 0,0 58,0 58,-19"/>
<text text-anchor="middle" x="29" y="-7" font-family="Helvetica,sans-Serif" font-size="10.00">memory</text>
</a>
</g>
</g>
<!-- Node3&#45;&gt;Node5 -->
<g id="edge4_Node000003_Node000005" class="edge">
<title>Node3&#45;&gt;Node5</title>
<g id="a_edge4_Node000003_Node000005"><a xlink:title=" ">
<path fill="none" stroke="#63b8ff" d="M64.9,-54.75C58.83,-47.26 49.91,-36.28 42.49,-27.13"/>
<polygon fill="#63b8ff" stroke="#63b8ff" points="44.99,-24.65 35.97,-19.09 39.55,-29.06 44.99,-24.65"/>
</a>
</g>
</g>
<!-- Node6 -->
<g id="Node000006" class="node">
<title>Node6</title>
<g id="a_Node000006"><a xlink:title=" ">
<polygon fill="#e0e0e0" stroke="#999999" points="126,-19 76,-19 76,0 126,0 126,-19"/>
<text text-anchor="middle" x="101" y="-7" font-family="Helvetica,sans-Serif" font-size="10.00">chrono</text>
</a>
</g>
</g>
<!-- Node3&#45;&gt;Node6 -->
<g id="edge5_Node000003_Node000006" class="edge">
<title>Node3&#45;&gt;Node6</title>
<g id="a_edge5_Node000003_Node000006"><a xlink:title=" ">
<path fill="none" stroke="#63b8ff" d="M76.79,-54.75C80.76,-47.49 86.53,-36.95 91.43,-27.98"/>
<polygon fill="#63b8ff" stroke="#63b8ff" points="94.57,-29.54 96.3,-19.09 88.43,-26.18 94.57,-29.54"/>
</a>
</g>
</g>
<!-- Node7&#45;&gt;Node4 -->
<g id="edge7_Node000007_Node000004" class="edge">
<title>Node7&#45;&gt;Node4</title>
<g id="a_edge7_Node000007_Node000004"><a xlink:title=" ">
<path fill="none" stroke="#63b8ff" d="M190.21,-54.75C186.24,-47.49 180.47,-36.95 175.57,-27.98"/>
<polygon fill="#63b8ff" stroke="#63b8ff" points="178.57,-26.18 170.7,-19.09 172.43,-29.54 178.57,-26.18"/>
</a>
</g>
</g>
<!-- Node7&#45;&gt;Node6 -->
<g id="edge8_Node000007_Node000006" class="edge">
<title>Node7&#45;&gt;Node6</title>
<g id="a_edge8_Node000007_Node000006"><a xlink:title=" ">
<path fill="none" stroke="#63b8ff" d="M179.9,-54.98C165.18,-46.69 142.58,-33.94 125.33,-24.22"/>
<polygon fill="#63b8ff" stroke="#63b8ff" points="126.81,-21.03 116.38,-19.17 123.37,-27.13 126.81,-21.03"/>
</a>
</g>
</g>
<!-- Node8 -->
<g id="Node000008" class="node">
<title>Node8</title>
<g id="a_Node000008"><a xlink:title=" ">
<polygon fill="#e0e0e0" stroke="#999999" points="244,-19 206,-19 206,0 244,0 244,-19"/>
<text text-anchor="middle" x="225" y="-7" font-family="Helvetica,sans-Serif" font-size="10.00">map</text>
</a>
</g>
</g>
<!-- Node7&#45;&gt;Node8 -->
<g id="edge9_Node000007_Node000008" class="edge">
<title>Node7&#45;&gt;Node8</title>
<g id="a_edge9_Node000007_Node000008"><a xlink:title=" ">
<path fill="none" stroke="#63b8ff" d="M199.95,-54.75C204.06,-47.49 210.03,-36.95 215.1,-27.98"/>
<polygon fill="#63b8ff" stroke="#63b8ff" points="218.26,-29.52 220.14,-19.09 212.17,-26.07 218.26,-29.52"/>
</a>
</g>
</g>
</g>
</svg>
