<?xml version="1.0" encoding="UTF-8" standalone="no"?>
<!DOCTYPE svg PUBLIC "-//W3C//DTD SVG 1.1//EN"
 "http://www.w3.org/Graphics/SVG/1.1/DTD/svg11.dtd">
<!-- Generated by graphviz version 2.43.0 (0)
 -->
<!-- Title: src Pages: 1 -->
<svg width="490pt" height="98pt"
 viewBox="0.00 0.00 490.00 98.00" xmlns="http://www.w3.org/2000/svg" xmlns:xlink="http://www.w3.org/1999/xlink">
<g id="graph0" class="graph" transform="scale(1 1) rotate(0) translate(4 94)">
<title>src</title>
<g id="clust1" class="cluster">
<title>clusterdir_68267d1309a1af8e8297ef4c3efbcdba</title>
<g id="a_clust1"><a xlink:href="dir_68267d1309a1af8e8297ef4c3efbcdba.html" target="_top">
<polygon fill="#edf0f7" stroke="#404040" stroke-width="2" points="8,-47 8,-82 474,-82 474,-47 8,-47"/>
</a>
</g>
</g>
<!-- dir_68267d1309a1af8e8297ef4c3efbcdba -->
<g id="node1" class="node">
<title>dir_68267d1309a1af8e8297ef4c3efbcdba</title>
<text text-anchor="middle" x="450" y="-62" font-family="Helvetica,sans-Serif" font-size="10.00">src</text>
</g>
<!-- dir_d44c64559bbebec7f509842c48db8b23 -->
<g id="node8" class="node">
<title>dir_d44c64559bbebec7f509842c48db8b23</title>
<g id="a_node8"><a xlink:href="dir_d44c64559bbebec7f509842c48db8b23.html" target="_top" xlink:title="include">
<polygon fill="#edf0f7" stroke="red" points="286,-19 234,-19 234,0 286,0 286,-19"/>
<text text-anchor="middle" x="260" y="-7" font-family="Helvetica,sans-Serif" font-size="10.00">include</text>
</a>
</g>
</g>
<!-- dir_68267d1309a1af8e8297ef4c3efbcdba&#45;&gt;dir_d44c64559bbebec7f509842c48db8b23 -->
<g id="edge1" class="edge">
<title>dir_68267d1309a1af8e8297ef4c3efbcdba&#45;&gt;dir_d44c64559bbebec7f509842c48db8b23</title>
<g id="a_edge1"><a xlink:href="dir_000011_000004.html" target="_top">
<path fill="none" stroke="#63b8ff" d="M438.8,-54.85C434.65,-51.99 429.79,-49.03 425,-47 382.64,-29.07 330.28,-19.41 296.06,-14.62"/>
<polygon fill="#63b8ff" stroke="#63b8ff" points="296.42,-11.13 286.05,-13.28 295.5,-18.07 296.42,-11.13"/>
</a>
</g>
<g id="a_edge1&#45;headlabel"><a xlink:href="dir_000011_000004.html" target="_top" xlink:title="32">
<text text-anchor="middle" x="300.36" y="-6.29" font-family="Helvetica,sans-Serif" font-size="10.00" fill="#63b8ff">32</text>
</a>
</g>
</g>
<!-- dir_aebb8dcc11953d78e620bbef0b9e2183 -->
<g id="node2" class="node">
<title>dir_aebb8dcc11953d78e620bbef0b9e2183</title>
<g id="a_node2"><a xlink:href="dir_aebb8dcc11953d78e620bbef0b9e2183.html" target="_top" xlink:title="core">
<polygon fill="#a2b4d6" stroke="#404040" points="416,-74 378,-74 378,-55 416,-55 416,-74"/>
<text text-anchor="middle" x="397" y="-62" font-family="Helvetica,sans-Serif" font-size="10.00">core</text>
</a>
</g>
</g>
<!-- dir_aebb8dcc11953d78e620bbef0b9e2183&#45;&gt;dir_d44c64559bbebec7f509842c48db8b23 -->
<g id="edge2" class="edge">
<title>dir_aebb8dcc11953d78e620bbef0b9e2183&#45;&gt;dir_d44c64559bbebec7f509842c48db8b23</title>
<g id="a_edge2"><a xlink:href="dir_000001_000004.html" target="_top">
<path fill="none" stroke="#63b8ff" d="M383.63,-54.85C379.1,-52.13 373.93,-49.25 369,-47 345.33,-36.21 317.5,-26.94 295.89,-20.45"/>
<polygon fill="#63b8ff" stroke="#63b8ff" points="296.71,-17.04 286.13,-17.57 294.74,-23.76 296.71,-17.04"/>
</a>
</g>
<g id="a_edge2&#45;headlabel"><a xlink:href="dir_000001_000004.html" target="_top" xlink:title="5">
<text text-anchor="middle" x="300.96" y="-12.83" font-family="Helvetica,sans-Serif" font-size="10.00" fill="#63b8ff">5</text>
</a>
</g>
</g>
<!-- dir_6fac9273c1f4413d2ee63ba6cd0b0eb2 -->
<g id="node3" class="node">
<title>dir_6fac9273c1f4413d2ee63ba6cd0b0eb2</title>
<g id="a_node3"><a xlink:href="dir_6fac9273c1f4413d2ee63ba6cd0b0eb2.html" target="_top" xlink:title="devices">
<polygon fill="#a2b4d6" stroke="#404040" points="360,-74 306,-74 306,-55 360,-55 360,-74"/>
<text text-anchor="middle" x="333" y="-62" font-family="Helvetica,sans-Serif" font-size="10.00">devices</text>
</a>
</g>
</g>
<!-- dir_6fac9273c1f4413d2ee63ba6cd0b0eb2&#45;&gt;dir_d44c64559bbebec7f509842c48db8b23 -->
<g id="edge3" class="edge">
<title>dir_6fac9273c1f4413d2ee63ba6cd0b0eb2&#45;&gt;dir_d44c64559bbebec7f509842c48db8b23</title>
<g id="a_edge3"><a xlink:href="dir_000003_000004.html" target="_top">
<path fill="none" stroke="#63b8ff" d="M321.27,-54.98C310.27,-47 293.58,-34.88 280.4,-25.31"/>
<polygon fill="#63b8ff" stroke="#63b8ff" points="282.09,-22.21 271.94,-19.17 277.98,-27.88 282.09,-22.21"/>
</a>
</g>
<g id="a_edge3&#45;headlabel"><a xlink:href="dir_000003_000004.html" target="_top" xlink:title="9">
<text text-anchor="middle" x="286.67" y="-19.53" font-family="Helvetica,sans-Serif" font-size="10.00" fill="#63b8ff">9</text>
</a>
</g>
</g>
<!-- dir_fc4c7f03e1a69a98c370fae55a743828 -->
<g id="node4" class="node">
<title>dir_fc4c7f03e1a69a98c370fae55a743828</title>
<g id="a_node4"><a xlink:href="dir_fc4c7f03e1a69a98c370fae55a743828.html" target="_top" xlink:title="network">
<polygon fill="#a2b4d6" stroke="#404040" points="288,-74 232,-74 232,-55 288,-55 288,-74"/>
<text text-anchor="middle" x="260" y="-62" font-family="Helvetica,sans-Serif" font-size="10.00">network</text>
</a>
</g>
</g>
<!-- dir_fc4c7f03e1a69a98c370fae55a743828&#45;&gt;dir_d44c64559bbebec7f509842c48db8b23 -->
<g id="edge4" class="edge">
<title>dir_fc4c7f03e1a69a98c370fae55a743828&#45;&gt;dir_d44c64559bbebec7f509842c48db8b23</title>
<g id="a_edge4"><a xlink:href="dir_000006_000004.html" target="_top">
<path fill="none" stroke="#63b8ff" d="M260,-54.75C260,-47.8 260,-37.85 260,-29.13"/>
<polygon fill="#63b8ff" stroke="#63b8ff" points="263.5,-29.09 260,-19.09 256.5,-29.09 263.5,-29.09"/>
</a>
</g>
<g id="a_edge4&#45;headlabel"><a xlink:href="dir_000006_000004.html" target="_top" xlink:title="3">
<text text-anchor="middle" x="266.34" y="-30.18" font-family="Helvetica,sans-Serif" font-size="10.00" fill="#63b8ff">3</text>
</a>
</g>
</g>
<!-- dir_8a6c31bbbfb30065ee9a683ead3fe21a -->
<g id="node5" class="node">
<title>dir_8a6c31bbbfb30065ee9a683ead3fe21a</title>
<g id="a_node5"><a xlink:href="dir_8a6c31bbbfb30065ee9a683ead3fe21a.html" target="_top" xlink:title="security">
<polygon fill="#a2b4d6" stroke="#404040" points="214,-74 158,-74 158,-55 214,-55 214,-74"/>
<text text-anchor="middle" x="186" y="-62" font-family="Helvetica,sans-Serif" font-size="10.00">security</text>
</a>
</g>
</g>
<!-- dir_8a6c31bbbfb30065ee9a683ead3fe21a&#45;&gt;dir_d44c64559bbebec7f509842c48db8b23 -->
<g id="edge5" class="edge">
<title>dir_8a6c31bbbfb30065ee9a683ead3fe21a&#45;&gt;dir_d44c64559bbebec7f509842c48db8b23</title>
<g id="a_edge5"><a xlink:href="dir_000008_000004.html" target="_top">
<path fill="none" stroke="#63b8ff" d="M197.89,-54.98C209.15,-46.92 226.29,-34.65 239.71,-25.03"/>
<polygon fill="#63b8ff" stroke="#63b8ff" points="241.8,-27.84 247.89,-19.17 237.73,-22.15 241.8,-27.84"/>
</a>
</g>
<g id="a_edge5&#45;headlabel"><a xlink:href="dir_000008_000004.html" target="_top" xlink:title="2">
<text text-anchor="middle" x="240.53" y="-29.74" font-family="Helvetica,sans-Serif" font-size="10.00" fill="#63b8ff">2</text>
</a>
</g>
</g>
<!-- dir_d73d1ee04cc237a5854777ea99c55872 -->
<g id="node6" class="node">
<title>dir_d73d1ee04cc237a5854777ea99c55872</title>
<g id="a_node6"><a xlink:href="dir_d73d1ee04cc237a5854777ea99c55872.html" target="_top" xlink:title="simulation">
<polygon fill="#a2b4d6" stroke="#404040" points="140,-74 72,-74 72,-55 140,-55 140,-74"/>
<text text-anchor="middle" x="106" y="-62" font-family="Helvetica,sans-Serif" font-size="10.00">simulation</text>
</a>
</g>
</g>
<!-- dir_d73d1ee04cc237a5854777ea99c55872&#45;&gt;dir_d44c64559bbebec7f509842c48db8b23 -->
<g id="edge6" class="edge">
<title>dir_d73d1ee04cc237a5854777ea99c55872&#45;&gt;dir_d44c64559bbebec7f509842c48db8b23</title>
<g id="a_edge6"><a xlink:href="dir_000010_000004.html" target="_top">
<path fill="none" stroke="#63b8ff" d="M127.8,-54.9C134.57,-52.29 142.07,-49.47 149,-47 174.02,-38.09 202.49,-28.75 224.33,-21.74"/>
<polygon fill="#63b8ff" stroke="#63b8ff" points="225.4,-25.07 233.86,-18.7 223.27,-18.41 225.4,-25.07"/>
</a>
</g>
<g id="a_edge6&#45;headlabel"><a xlink:href="dir_000010_000004.html" target="_top" xlink:title="1">
<text text-anchor="middle" x="222.84" y="-26.37" font-family="Helvetica,sans-Serif" font-size="10.00" fill="#63b8ff">1</text>
</a>
</g>
</g>
<!-- dir_313caf1132e152dd9b58bea13a4052ca -->
<g id="node7" class="node">
<title>dir_313caf1132e152dd9b58bea13a4052ca</title>
<g id="a_node7"><a xlink:href="dir_313caf1132e152dd9b58bea13a4052ca.html" target="_top" xlink:title="utils">
<polygon fill="#a2b4d6" stroke="#404040" points="54,-74 16,-74 16,-55 54,-55 54,-74"/>
<text text-anchor="middle" x="35" y="-62" font-family="Helvetica,sans-Serif" font-size="10.00">utils</text>
</a>
</g>
</g>
<!-- dir_313caf1132e152dd9b58bea13a4052ca&#45;&gt;dir_d44c64559bbebec7f509842c48db8b23 -->
<g id="edge7" class="edge">
<title>dir_313caf1132e152dd9b58bea13a4052ca&#45;&gt;dir_d44c64559bbebec7f509842c48db8b23</title>
<g id="a_edge7"><a xlink:href="dir_000013_000004.html" target="_top">
<path fill="none" stroke="#63b8ff" d="M47.35,-54.96C52.07,-52.04 57.61,-49.02 63,-47 116.83,-26.87 183.24,-17.52 223.57,-13.42"/>
<polygon fill="#63b8ff" stroke="#63b8ff" points="224.11,-16.88 233.73,-12.44 223.44,-9.92 224.11,-16.88"/>
</a>
</g>
<g id="a_edge7&#45;headlabel"><a xlink:href="dir_000013_000004.html" target="_top" xlink:title="2">
<text text-anchor="middle" x="220.8" y="-17.55" font-family="Helvetica,sans-Serif" font-size="10.00" fill="#63b8ff">2</text>
</a>
</g>
</g>
</g>
</svg>
