<?xml version="1.0" encoding="UTF-8" standalone="no"?>
<!DOCTYPE svg PUBLIC "-//W3C//DTD SVG 1.1//EN"
 "http://www.w3.org/Graphics/SVG/1.1/DTD/svg11.dtd">
<!-- Generated by graphviz version 2.43.0 (0)
 -->
<!-- Title: include Pages: 1 -->
<svg width="250pt" height="224pt"
 viewBox="0.00 0.00 250.00 224.00" xmlns="http://www.w3.org/2000/svg" xmlns:xlink="http://www.w3.org/1999/xlink">
<g id="graph0" class="graph" transform="scale(1 1) rotate(0) translate(4 220)">
<title>include</title>
<g id="clust1" class="cluster">
<title>clusterdir_d44c64559bbebec7f509842c48db8b23</title>
<g id="a_clust1"><a xlink:href="dir_d44c64559bbebec7f509842c48db8b23.html" target="_top">
<polygon fill="#edf0f7" stroke="#404040" stroke-width="2" points="8,-8 8,-208 234,-208 234,-8 8,-8"/>
</a>
</g>
</g>
<!-- dir_d44c64559bbebec7f509842c48db8b23 -->
<g id="node1" class="node">
<title>dir_d44c64559bbebec7f509842c48db8b23</title>
<text text-anchor="middle" x="200" y="-188" font-family="Helvetica,sans-Serif" font-size="10.00">include</text>
</g>
<!-- dir_3d69f64eaf81436fe2b22361382717e5 -->
<g id="node2" class="node">
<title>dir_3d69f64eaf81436fe2b22361382717e5</title>
<g id="a_node2"><a xlink:href="dir_3d69f64eaf81436fe2b22361382717e5.html" target="_top" xlink:title="core">
<polygon fill="#a2b4d6" stroke="#404040" points="135,-35 97,-35 97,-16 135,-16 135,-35"/>
<text text-anchor="middle" x="116" y="-23" font-family="Helvetica,sans-Serif" font-size="10.00">core</text>
</a>
</g>
</g>
<!-- dir_0ae5fd04a9b991f2c376fafa197d3147 -->
<g id="node3" class="node">
<title>dir_0ae5fd04a9b991f2c376fafa197d3147</title>
<g id="a_node3"><a xlink:href="dir_0ae5fd04a9b991f2c376fafa197d3147.html" target="_top" xlink:title="devices">
<polygon fill="#a2b4d6" stroke="#404040" points="156,-200 102,-200 102,-181 156,-181 156,-200"/>
<text text-anchor="middle" x="129" y="-188" font-family="Helvetica,sans-Serif" font-size="10.00">devices</text>
</a>
</g>
</g>
<!-- dir_0ae5fd04a9b991f2c376fafa197d3147&#45;&gt;dir_3d69f64eaf81436fe2b22361382717e5 -->
<g id="edge1" class="edge">
<title>dir_0ae5fd04a9b991f2c376fafa197d3147&#45;&gt;dir_3d69f64eaf81436fe2b22361382717e5</title>
<g id="a_edge1"><a xlink:href="dir_000002_000000.html" target="_top">
<path fill="none" stroke="#63b8ff" d="M137.49,-180.95C156.1,-161.14 197.22,-110.77 177,-71 169.97,-57.18 156.42,-46.63 143.86,-39.28"/>
<polygon fill="#63b8ff" stroke="#63b8ff" points="145.47,-36.17 135.01,-34.49 142.14,-42.32 145.47,-36.17"/>
</a>
</g>
<g id="a_edge1&#45;headlabel"><a xlink:href="dir_000002_000000.html" target="_top" xlink:title="6">
<text text-anchor="middle" x="149.98" y="-32.88" font-family="Helvetica,sans-Serif" font-size="10.00" fill="#63b8ff">6</text>
</a>
</g>
</g>
<!-- dir_dafb25a37831a87d2e2e8b780f24e872 -->
<g id="node4" class="node">
<title>dir_dafb25a37831a87d2e2e8b780f24e872</title>
<g id="a_node4"><a xlink:href="dir_dafb25a37831a87d2e2e8b780f24e872.html" target="_top" xlink:title="network">
<polygon fill="#a2b4d6" stroke="#404040" points="153,-145 97,-145 97,-126 153,-126 153,-145"/>
<text text-anchor="middle" x="125" y="-133" font-family="Helvetica,sans-Serif" font-size="10.00">network</text>
</a>
</g>
</g>
<!-- dir_0ae5fd04a9b991f2c376fafa197d3147&#45;&gt;dir_dafb25a37831a87d2e2e8b780f24e872 -->
<g id="edge2" class="edge">
<title>dir_0ae5fd04a9b991f2c376fafa197d3147&#45;&gt;dir_dafb25a37831a87d2e2e8b780f24e872</title>
<g id="a_edge2"><a xlink:href="dir_000002_000005.html" target="_top">
<path fill="none" stroke="#63b8ff" d="M128.34,-180.75C127.82,-173.8 127.06,-163.85 126.41,-155.13"/>
<polygon fill="#63b8ff" stroke="#63b8ff" points="129.89,-154.8 125.65,-145.09 122.91,-155.32 129.89,-154.8"/>
</a>
</g>
<g id="a_edge2&#45;headlabel"><a xlink:href="dir_000002_000005.html" target="_top" xlink:title="2">
<text text-anchor="middle" x="132.99" y="-155.67" font-family="Helvetica,sans-Serif" font-size="10.00" fill="#63b8ff">2</text>
</a>
</g>
</g>
<!-- dir_dafb25a37831a87d2e2e8b780f24e872&#45;&gt;dir_3d69f64eaf81436fe2b22361382717e5 -->
<g id="edge3" class="edge">
<title>dir_dafb25a37831a87d2e2e8b780f24e872&#45;&gt;dir_3d69f64eaf81436fe2b22361382717e5</title>
<g id="a_edge3"><a xlink:href="dir_000005_000000.html" target="_top">
<path fill="none" stroke="#63b8ff" d="M119.16,-125.76C113.75,-117.1 106.1,-103.26 103,-90 99.44,-74.76 103.58,-57.34 108.11,-44.61"/>
<polygon fill="#63b8ff" stroke="#63b8ff" points="111.42,-45.75 111.85,-35.16 104.91,-43.17 111.42,-45.75"/>
</a>
</g>
<g id="a_edge3&#45;headlabel"><a xlink:href="dir_000005_000000.html" target="_top" xlink:title="2">
<text text-anchor="middle" x="112.74" y="-47.63" font-family="Helvetica,sans-Serif" font-size="10.00" fill="#63b8ff">2</text>
</a>
</g>
</g>
<!-- dir_c9fe695c0e959c1da5129125b3a93ab2 -->
<g id="node5" class="node">
<title>dir_c9fe695c0e959c1da5129125b3a93ab2</title>
<g id="a_node5"><a xlink:href="dir_c9fe695c0e959c1da5129125b3a93ab2.html" target="_top" xlink:title="security">
<polygon fill="#a2b4d6" stroke="#404040" points="168,-90 112,-90 112,-71 168,-71 168,-90"/>
<text text-anchor="middle" x="140" y="-78" font-family="Helvetica,sans-Serif" font-size="10.00">security</text>
</a>
</g>
</g>
<!-- dir_dafb25a37831a87d2e2e8b780f24e872&#45;&gt;dir_c9fe695c0e959c1da5129125b3a93ab2 -->
<g id="edge4" class="edge">
<title>dir_dafb25a37831a87d2e2e8b780f24e872&#45;&gt;dir_c9fe695c0e959c1da5129125b3a93ab2</title>
<g id="a_edge4"><a xlink:href="dir_000005_000007.html" target="_top">
<path fill="none" stroke="#63b8ff" d="M127.48,-125.75C129.46,-118.72 132.32,-108.62 134.81,-99.84"/>
<polygon fill="#63b8ff" stroke="#63b8ff" points="138.21,-100.66 137.57,-90.09 131.48,-98.76 138.21,-100.66"/>
</a>
</g>
<g id="a_edge4&#45;headlabel"><a xlink:href="dir_000005_000007.html" target="_top" xlink:title="1">
<text text-anchor="middle" x="139.97" y="-102.4" font-family="Helvetica,sans-Serif" font-size="10.00" fill="#63b8ff">1</text>
</a>
</g>
</g>
<!-- dir_c9fe695c0e959c1da5129125b3a93ab2&#45;&gt;dir_3d69f64eaf81436fe2b22361382717e5 -->
<g id="edge5" class="edge">
<title>dir_c9fe695c0e959c1da5129125b3a93ab2&#45;&gt;dir_3d69f64eaf81436fe2b22361382717e5</title>
<g id="a_edge5"><a xlink:href="dir_000007_000000.html" target="_top">
<path fill="none" stroke="#63b8ff" d="M136.04,-70.75C132.79,-63.57 128.08,-53.18 124.05,-44.27"/>
<polygon fill="#63b8ff" stroke="#63b8ff" points="127.2,-42.75 119.89,-35.09 120.83,-45.64 127.2,-42.75"/>
</a>
</g>
<g id="a_edge5&#45;headlabel"><a xlink:href="dir_000007_000000.html" target="_top" xlink:title="1">
<text text-anchor="middle" x="131.27" y="-42.36" font-family="Helvetica,sans-Serif" font-size="10.00" fill="#63b8ff">1</text>
</a>
</g>
</g>
<!-- dir_5b4f22f4782ab9e132490b62f43f6146 -->
<g id="node6" class="node">
<title>dir_5b4f22f4782ab9e132490b62f43f6146</title>
<g id="a_node6"><a xlink:href="dir_5b4f22f4782ab9e132490b62f43f6146.html" target="_top" xlink:title="simulation">
<polygon fill="#a2b4d6" stroke="#404040" points="84,-200 16,-200 16,-181 84,-181 84,-200"/>
<text text-anchor="middle" x="50" y="-188" font-family="Helvetica,sans-Serif" font-size="10.00">simulation</text>
</a>
</g>
</g>
<!-- dir_5b4f22f4782ab9e132490b62f43f6146&#45;&gt;dir_3d69f64eaf81436fe2b22361382717e5 -->
<g id="edge6" class="edge">
<title>dir_5b4f22f4782ab9e132490b62f43f6146&#45;&gt;dir_3d69f64eaf81436fe2b22361382717e5</title>
<g id="a_edge6"><a xlink:href="dir_000009_000000.html" target="_top">
<path fill="none" stroke="#63b8ff" d="M53.34,-180.85C60.94,-161.23 80.15,-111.93 97,-71 100.64,-62.15 104.81,-52.37 108.3,-44.23"/>
<polygon fill="#63b8ff" stroke="#63b8ff" points="111.54,-45.57 112.29,-35 105.11,-42.79 111.54,-45.57"/>
</a>
</g>
<g id="a_edge6&#45;headlabel"><a xlink:href="dir_000009_000000.html" target="_top" xlink:title="1">
<text text-anchor="middle" x="112.72" y="-47.5" font-family="Helvetica,sans-Serif" font-size="10.00" fill="#63b8ff">1</text>
</a>
</g>
</g>
<!-- dir_5b4f22f4782ab9e132490b62f43f6146&#45;&gt;dir_dafb25a37831a87d2e2e8b780f24e872 -->
<g id="edge8" class="edge">
<title>dir_5b4f22f4782ab9e132490b62f43f6146&#45;&gt;dir_dafb25a37831a87d2e2e8b780f24e872</title>
<g id="a_edge8"><a xlink:href="dir_000009_000005.html" target="_top">
<path fill="none" stroke="#63b8ff" d="M62.05,-180.98C73.46,-172.92 90.83,-160.65 104.43,-151.03"/>
<polygon fill="#63b8ff" stroke="#63b8ff" points="106.58,-153.8 112.73,-145.17 102.54,-148.08 106.58,-153.8"/>
</a>
</g>
<g id="a_edge8&#45;headlabel"><a xlink:href="dir_000009_000005.html" target="_top" xlink:title="1">
<text text-anchor="middle" x="105.29" y="-155.69" font-family="Helvetica,sans-Serif" font-size="10.00" fill="#63b8ff">1</text>
</a>
</g>
</g>
<!-- dir_821002d4f10779a80d4fb17bc32f21f1 -->
<g id="node7" class="node">
<title>dir_821002d4f10779a80d4fb17bc32f21f1</title>
<g id="a_node7"><a xlink:href="dir_821002d4f10779a80d4fb17bc32f21f1.html" target="_top" xlink:title="utils">
<polygon fill="#a2b4d6" stroke="#404040" points="54,-145 16,-145 16,-126 54,-126 54,-145"/>
<text text-anchor="middle" x="35" y="-133" font-family="Helvetica,sans-Serif" font-size="10.00">utils</text>
</a>
</g>
</g>
<!-- dir_5b4f22f4782ab9e132490b62f43f6146&#45;&gt;dir_821002d4f10779a80d4fb17bc32f21f1 -->
<g id="edge7" class="edge">
<title>dir_5b4f22f4782ab9e132490b62f43f6146&#45;&gt;dir_821002d4f10779a80d4fb17bc32f21f1</title>
<g id="a_edge7"><a xlink:href="dir_000009_000012.html" target="_top">
<path fill="none" stroke="#63b8ff" d="M47.52,-180.75C45.54,-173.72 42.68,-163.62 40.19,-154.84"/>
<polygon fill="#63b8ff" stroke="#63b8ff" points="43.52,-153.76 37.43,-145.09 36.79,-155.66 43.52,-153.76"/>
</a>
</g>
<g id="a_edge7&#45;headlabel"><a xlink:href="dir_000009_000012.html" target="_top" xlink:title="1">
<text text-anchor="middle" x="47.23" y="-153.94" font-family="Helvetica,sans-Serif" font-size="10.00" fill="#63b8ff">1</text>
</a>
</g>
</g>
</g>
</svg>
