<?xml version="1.0" encoding="UTF-8" standalone="no"?>
<!DOCTYPE svg PUBLIC "-//W3C//DTD SVG 1.1//EN"
 "http://www.w3.org/Graphics/SVG/1.1/DTD/svg11.dtd">
<!-- Generated by graphviz version 2.43.0 (0)
 -->
<!-- Title: Graphical Class Hierarchy Pages: 1 -->
<svg width="470pt" height="397pt"
 viewBox="0.00 0.00 470.00 397.00" xmlns="http://www.w3.org/2000/svg" xmlns:xlink="http://www.w3.org/1999/xlink">
<g id="graph0" class="graph" transform="scale(1 1) rotate(0) translate(4 393)">
<title>Graphical Class Hierarchy</title>
<!-- Node0 -->
<g id="Node000000" class="node">
<title>Node0</title>
<g id="a_Node000000"><a xlink:href="df/dfa/classiot_1_1IoTDevice.html" target="_top" xlink:title=" ">
<polygon fill="white" stroke="#666666" points="84,-241 0,-241 0,-222 84,-222 84,-241"/>
<text text-anchor="middle" x="42" y="-229" font-family="Helvetica,sans-Serif" font-size="10.00">iot::IoTDevice</text>
</a>
</g>
</g>
<!-- Node1 -->
<g id="Node000001" class="node">
<title>Node1</title>
<g id="a_Node000001"><a xlink:href="db/d52/classiot_1_1Actuator.html" target="_top" xlink:title=" ">
<polygon fill="white" stroke="#666666" points="228.5,-75 151.5,-75 151.5,-56 228.5,-56 228.5,-75"/>
<text text-anchor="middle" x="190" y="-63" font-family="Helvetica,sans-Serif" font-size="10.00">iot::Actuator</text>
</a>
</g>
</g>
<!-- Node0&#45;&gt;Node1 -->
<g id="edge1_Node000000_Node000001" class="edge">
<title>Node0&#45;&gt;Node1</title>
<g id="a_edge1_Node000000_Node000001"><a xlink:title=" ">
<path fill="none" stroke="#63b8ff" d="M57.16,-214.02C72.4,-195.34 97.5,-164.97 120,-139.5 140.7,-116.07 165.97,-89.45 179.45,-75.4"/>
<polygon fill="#63b8ff" stroke="#63b8ff" points="54.3,-211.99 50.71,-221.96 59.73,-216.41 54.3,-211.99"/>
</a>
</g>
</g>
<!-- Node5 -->
<g id="Node000005" class="node">
<title>Node5</title>
<g id="a_Node000005"><a xlink:href="d6/dfc/classiot_1_1NetworkMonitor.html" target="_top" xlink:title=" ">
<polygon fill="white" stroke="#666666" points="247,-278 133,-278 133,-259 247,-259 247,-278"/>
<text text-anchor="middle" x="190" y="-266" font-family="Helvetica,sans-Serif" font-size="10.00">iot::NetworkMonitor</text>
</a>
</g>
</g>
<!-- Node0&#45;&gt;Node5 -->
<g id="edge5_Node000000_Node000005" class="edge">
<title>Node0&#45;&gt;Node5</title>
<g id="a_edge5_Node000000_Node000005"><a xlink:title=" ">
<path fill="none" stroke="#63b8ff" d="M90.33,-243.49C110.07,-248.5 132.68,-254.23 151.28,-258.94"/>
<polygon fill="#63b8ff" stroke="#63b8ff" points="91.15,-240.09 80.6,-241.03 89.43,-246.88 91.15,-240.09"/>
</a>
</g>
</g>
<!-- Node6 -->
<g id="Node000006" class="node">
<title>Node6</title>
<g id="a_Node000006"><a xlink:href="d6/da8/classiot_1_1Sensor.html" target="_top" xlink:title=" ">
<polygon fill="white" stroke="#666666" points="224,-241 156,-241 156,-222 224,-222 224,-241"/>
<text text-anchor="middle" x="190" y="-229" font-family="Helvetica,sans-Serif" font-size="10.00">iot::Sensor</text>
</a>
</g>
</g>
<!-- Node0&#45;&gt;Node6 -->
<g id="edge6_Node000000_Node000006" class="edge">
<title>Node0&#45;&gt;Node6</title>
<g id="a_edge6_Node000000_Node000006"><a xlink:title=" ">
<path fill="none" stroke="#63b8ff" d="M94.14,-231.5C114.53,-231.5 137.43,-231.5 155.62,-231.5"/>
<polygon fill="#63b8ff" stroke="#63b8ff" points="94.06,-228 84.06,-231.5 94.06,-235 94.06,-228"/>
</a>
</g>
</g>
<!-- Node2 -->
<g id="Node000002" class="node">
<title>Node2</title>
<g id="a_Node000002"><a xlink:href="d3/dd6/classiot_1_1LED.html" target="_top" xlink:title="LED Actuator implementation.">
<polygon fill="white" stroke="#666666" points="406,-56 352,-56 352,-37 406,-37 406,-56"/>
<text text-anchor="middle" x="379" y="-44" font-family="Helvetica,sans-Serif" font-size="10.00">iot::LED</text>
</a>
</g>
</g>
<!-- Node1&#45;&gt;Node2 -->
<g id="edge2_Node000001_Node000002" class="edge">
<title>Node1&#45;&gt;Node2</title>
<g id="a_edge2_Node000001_Node000002"><a xlink:title=" ">
<path fill="none" stroke="#63b8ff" d="M239.11,-60.61C275.06,-56.96 322.82,-52.11 351.94,-49.15"/>
<polygon fill="#63b8ff" stroke="#63b8ff" points="238.44,-57.16 228.84,-61.66 239.14,-64.13 238.44,-57.16"/>
</a>
</g>
</g>
<!-- Node3 -->
<g id="Node000003" class="node">
<title>Node3</title>
<g id="a_Node000003"><a xlink:href="de/da9/classiot_1_1Motor.html" target="_top" xlink:title="Motor Actuator implementation.">
<polygon fill="white" stroke="#666666" points="411,-19 347,-19 347,0 411,0 411,-19"/>
<text text-anchor="middle" x="379" y="-7" font-family="Helvetica,sans-Serif" font-size="10.00">iot::Motor</text>
</a>
</g>
</g>
<!-- Node1&#45;&gt;Node3 -->
<g id="edge3_Node000001_Node000003" class="edge">
<title>Node1&#45;&gt;Node3</title>
<g id="a_edge3_Node000001_Node000003"><a xlink:title=" ">
<path fill="none" stroke="#63b8ff" d="M223.98,-52.3C244.48,-44.42 271.51,-34.58 296,-27.5 312.66,-22.68 331.55,-18.45 347,-15.31"/>
<polygon fill="#63b8ff" stroke="#63b8ff" points="222.53,-49.11 214.48,-56 225.07,-55.64 222.53,-49.11"/>
</a>
</g>
</g>
<!-- Node4 -->
<g id="Node000004" class="node">
<title>Node4</title>
<g id="a_Node000004"><a xlink:href="d9/dee/classiot_1_1Relay.html" target="_top" xlink:title="Relay Actuator implementation.">
<polygon fill="white" stroke="#666666" points="410.5,-93 347.5,-93 347.5,-74 410.5,-74 410.5,-93"/>
<text text-anchor="middle" x="379" y="-81" font-family="Helvetica,sans-Serif" font-size="10.00">iot::Relay</text>
</a>
</g>
</g>
<!-- Node1&#45;&gt;Node4 -->
<g id="edge4_Node000001_Node000004" class="edge">
<title>Node1&#45;&gt;Node4</title>
<g id="a_edge4_Node000001_Node000004"><a xlink:title=" ">
<path fill="none" stroke="#63b8ff" d="M239.06,-70.13C273.17,-73.41 317.94,-77.72 347.32,-80.55"/>
<polygon fill="#63b8ff" stroke="#63b8ff" points="239.13,-66.62 228.84,-69.14 238.46,-73.58 239.13,-66.62"/>
</a>
</g>
</g>
<!-- Node7 -->
<g id="Node000007" class="node">
<title>Node7</title>
<g id="a_Node000007"><a xlink:href="dd/d9a/classiot_1_1BLEHealthSensor.html" target="_top" xlink:title=" ">
<polygon fill="white" stroke="#666666" points="438.5,-204 319.5,-204 319.5,-185 438.5,-185 438.5,-204"/>
<text text-anchor="middle" x="379" y="-192" font-family="Helvetica,sans-Serif" font-size="10.00">iot::BLEHealthSensor</text>
</a>
</g>
</g>
<!-- Node6&#45;&gt;Node7 -->
<g id="edge7_Node000006_Node000007" class="edge">
<title>Node6&#45;&gt;Node7</title>
<g id="a_edge7_Node000006_Node000007"><a xlink:title=" ">
<path fill="none" stroke="#63b8ff" d="M234.1,-222.97C262.71,-217.31 300.3,-209.87 329.88,-204.02"/>
<polygon fill="#63b8ff" stroke="#63b8ff" points="233.13,-219.6 224,-224.97 234.49,-226.46 233.13,-219.6"/>
</a>
</g>
</g>
<!-- Node11 -->
<g id="Node000011" class="node">
<title>Node11</title>
<g id="a_Node000011"><a xlink:href="d3/d05/classiot_1_1BatteryMotionSensor.html" target="_top" xlink:title="Battery&#45;powered Motion Sensor with sleep cycles.">
<polygon fill="white" stroke="#666666" points="448,-315 310,-315 310,-296 448,-296 448,-315"/>
<text text-anchor="middle" x="379" y="-303" font-family="Helvetica,sans-Serif" font-size="10.00">iot::BatteryMotionSensor</text>
</a>
</g>
</g>
<!-- Node6&#45;&gt;Node11 -->
<g id="edge8_Node000006_Node000011" class="edge">
<title>Node6&#45;&gt;Node11</title>
<g id="a_edge8_Node000006_Node000011"><a xlink:title=" ">
<path fill="none" stroke="#63b8ff" d="M233.71,-239.46C242.76,-242.17 251.99,-245.76 260,-250.5 279.75,-262.18 275.95,-276.35 296,-287.5 302.11,-290.9 308.82,-293.66 315.68,-295.9"/>
<polygon fill="#63b8ff" stroke="#63b8ff" points="234.59,-236.07 224.02,-236.85 232.77,-242.83 234.59,-236.07"/>
</a>
</g>
</g>
<!-- Node12 -->
<g id="Node000012" class="node">
<title>Node12</title>
<g id="a_Node000012"><a xlink:href="df/d56/classiot_1_1BatteryTemperatureSensor.html" target="_top" xlink:title="Battery&#45;powered Temperature Sensor.">
<polygon fill="white" stroke="#666666" points="462,-278 296,-278 296,-259 462,-259 462,-278"/>
<text text-anchor="middle" x="379" y="-266" font-family="Helvetica,sans-Serif" font-size="10.00">iot::BatteryTemperatureSensor</text>
</a>
</g>
</g>
<!-- Node6&#45;&gt;Node12 -->
<g id="edge9_Node000006_Node000012" class="edge">
<title>Node6&#45;&gt;Node12</title>
<g id="a_edge9_Node000006_Node000012"><a xlink:title=" ">
<path fill="none" stroke="#63b8ff" d="M234.1,-240.03C262.71,-245.69 300.3,-253.13 329.88,-258.98"/>
<polygon fill="#63b8ff" stroke="#63b8ff" points="234.49,-236.54 224,-238.03 233.13,-243.4 234.49,-236.54"/>
</a>
</g>
</g>
<!-- Node13 -->
<g id="Node000013" class="node">
<title>Node13</title>
<g id="a_Node000013"><a xlink:href="d8/dd2/classiot_1_1HumiditySensor.html" target="_top" xlink:title="Humidity Sensor implementation.">
<polygon fill="white" stroke="#666666" points="435.5,-241 322.5,-241 322.5,-222 435.5,-222 435.5,-241"/>
<text text-anchor="middle" x="379" y="-229" font-family="Helvetica,sans-Serif" font-size="10.00">iot::HumiditySensor</text>
</a>
</g>
</g>
<!-- Node6&#45;&gt;Node13 -->
<g id="edge10_Node000006_Node000013" class="edge">
<title>Node6&#45;&gt;Node13</title>
<g id="a_edge10_Node000006_Node000013"><a xlink:title=" ">
<path fill="none" stroke="#63b8ff" d="M234.01,-231.5C260.22,-231.5 294,-231.5 322.25,-231.5"/>
<polygon fill="#63b8ff" stroke="#63b8ff" points="234,-228 224,-231.5 234,-235 234,-228"/>
</a>
</g>
</g>
<!-- Node9 -->
<g id="Node000009" class="node">
<title>Node9</title>
<g id="a_Node000009"><a xlink:href="d2/dc6/classiot_1_1LoRaTemperatureSensor.html" target="_top" xlink:title=" ">
<polygon fill="white" stroke="#666666" points="456,-167 302,-167 302,-148 456,-148 456,-167"/>
<text text-anchor="middle" x="379" y="-155" font-family="Helvetica,sans-Serif" font-size="10.00">iot::LoRaTemperatureSensor</text>
</a>
</g>
</g>
<!-- Node6&#45;&gt;Node9 -->
<g id="edge11_Node000006_Node000009" class="edge">
<title>Node6&#45;&gt;Node9</title>
<g id="a_edge11_Node000006_Node000009"><a xlink:title=" ">
<path fill="none" stroke="#63b8ff" d="M215.2,-216.55C235.97,-204.28 267.05,-187.23 296,-176.5 306,-172.79 316.97,-169.65 327.53,-167.06"/>
<polygon fill="#63b8ff" stroke="#63b8ff" points="213.2,-213.66 206.43,-221.81 216.8,-219.67 213.2,-213.66"/>
</a>
</g>
</g>
<!-- Node14 -->
<g id="Node000014" class="node">
<title>Node14</title>
<g id="a_Node000014"><a xlink:href="d2/da9/classiot_1_1MotionSensor.html" target="_top" xlink:title="Motion Sensor implementation.">
<polygon fill="white" stroke="#666666" points="430,-389 328,-389 328,-370 430,-370 430,-389"/>
<text text-anchor="middle" x="379" y="-377" font-family="Helvetica,sans-Serif" font-size="10.00">iot::MotionSensor</text>
</a>
</g>
</g>
<!-- Node6&#45;&gt;Node14 -->
<g id="edge12_Node000006_Node000014" class="edge">
<title>Node6&#45;&gt;Node14</title>
<g id="a_edge12_Node000006_Node000014"><a xlink:title=" ">
<path fill="none" stroke="#63b8ff" d="M234.02,-236.42C243.52,-239.26 252.87,-243.68 260,-250.5 297.49,-286.34 257.58,-326.66 296,-361.5 304.74,-369.43 316.17,-374.15 327.69,-376.88"/>
<polygon fill="#63b8ff" stroke="#63b8ff" points="234.7,-232.98 224.15,-233.98 233.02,-239.77 234.7,-232.98"/>
</a>
</g>
</g>
<!-- Node15 -->
<g id="Node000015" class="node">
<title>Node15</title>
<g id="a_Node000015"><a xlink:href="d0/d39/classiot_1_1TemperatureSensor.html" target="_top" xlink:title="Temperature Sensor implementation.">
<polygon fill="white" stroke="#666666" points="444,-352 314,-352 314,-333 444,-333 444,-352"/>
<text text-anchor="middle" x="379" y="-340" font-family="Helvetica,sans-Serif" font-size="10.00">iot::TemperatureSensor</text>
</a>
</g>
</g>
<!-- Node6&#45;&gt;Node15 -->
<g id="edge13_Node000006_Node000015" class="edge">
<title>Node6&#45;&gt;Node15</title>
<g id="a_edge13_Node000006_Node000015"><a xlink:title=" ">
<path fill="none" stroke="#63b8ff" d="M234.2,-237.4C243.44,-240.22 252.63,-244.38 260,-250.5 288.13,-273.88 267.27,-301.87 296,-324.5 301.27,-328.65 307.29,-331.89 313.62,-334.41"/>
<polygon fill="#63b8ff" stroke="#63b8ff" points="234.78,-233.93 224.23,-234.83 233.04,-240.71 234.78,-233.93"/>
</a>
</g>
</g>
<!-- Node10 -->
<g id="Node000010" class="node">
<title>Node10</title>
<g id="a_Node000010"><a xlink:href="d8/d0a/classiot_1_1ZigBeeMotionSensor.html" target="_top" xlink:title=" ">
<polygon fill="white" stroke="#666666" points="447.5,-130 310.5,-130 310.5,-111 447.5,-111 447.5,-130"/>
<text text-anchor="middle" x="379" y="-118" font-family="Helvetica,sans-Serif" font-size="10.00">iot::ZigBeeMotionSensor</text>
</a>
</g>
</g>
<!-- Node6&#45;&gt;Node10 -->
<g id="edge14_Node000006_Node000010" class="edge">
<title>Node6&#45;&gt;Node10</title>
<g id="a_edge14_Node000006_Node000010"><a xlink:title=" ">
<path fill="none" stroke="#63b8ff" d="M212.15,-215.75C226.1,-205.09 244.58,-190.47 260,-176.5 277,-161.1 276.01,-150.77 296,-139.5 302.87,-135.62 310.5,-132.54 318.25,-130.08"/>
<polygon fill="#63b8ff" stroke="#63b8ff" points="209.98,-213.01 204.11,-221.83 214.2,-218.59 209.98,-213.01"/>
</a>
</g>
</g>
<!-- Node8 -->
<g id="Node000008" class="node">
<title>Node8</title>
<g id="a_Node000008"><a xlink:href="d8/d4f/classiot_1_1ProtocolAwareDevice.html" target="_top" xlink:title=" ">
<polygon fill="white" stroke="#666666" points="260,-167 120,-167 120,-148 260,-148 260,-167"/>
<text text-anchor="middle" x="190" y="-155" font-family="Helvetica,sans-Serif" font-size="10.00">iot::ProtocolAwareDevice</text>
</a>
</g>
</g>
<!-- Node8&#45;&gt;Node7 -->
<g id="edge15_Node000008_Node000007" class="edge">
<title>Node8&#45;&gt;Node7</title>
<g id="a_edge15_Node000008_Node000007"><a xlink:title=" ">
<path fill="none" stroke="#63b8ff" d="M249.2,-169.02C275.05,-174.13 305.1,-180.08 329.68,-184.94"/>
<polygon fill="#63b8ff" stroke="#63b8ff" points="249.65,-165.54 239.16,-167.03 248.29,-172.4 249.65,-165.54"/>
</a>
</g>
</g>
<!-- Node8&#45;&gt;Node9 -->
<g id="edge16_Node000008_Node000009" class="edge">
<title>Node8&#45;&gt;Node9</title>
<g id="a_edge16_Node000008_Node000009"><a xlink:title=" ">
<path fill="none" stroke="#63b8ff" d="M270.12,-157.5C280.66,-157.5 291.46,-157.5 301.95,-157.5"/>
<polygon fill="#63b8ff" stroke="#63b8ff" points="270.1,-154 260.1,-157.5 270.1,-161 270.1,-154"/>
</a>
</g>
</g>
<!-- Node8&#45;&gt;Node10 -->
<g id="edge17_Node000008_Node000010" class="edge">
<title>Node8&#45;&gt;Node10</title>
<g id="a_edge17_Node000008_Node000010"><a xlink:title=" ">
<path fill="none" stroke="#63b8ff" d="M249.2,-145.98C275.05,-140.87 305.1,-134.92 329.68,-130.06"/>
<polygon fill="#63b8ff" stroke="#63b8ff" points="248.29,-142.6 239.16,-147.97 249.65,-149.46 248.29,-142.6"/>
</a>
</g>
</g>
</g>
</svg>
