<?xml version="1.0" encoding="UTF-8" standalone="no"?>
<!DOCTYPE svg PUBLIC "-//W3C//DTD SVG 1.1//EN"
 "http://www.w3.org/Graphics/SVG/1.1/DTD/svg11.dtd">
<!-- Generated by graphviz version 2.43.0 (0)
 -->
<!-- Title: src/security/IPSecManager.cpp Pages: 1 -->
<svg width="746pt" height="203pt"
 viewBox="0.00 0.00 746.00 203.00" xmlns="http://www.w3.org/2000/svg" xmlns:xlink="http://www.w3.org/1999/xlink">
<g id="graph0" class="graph" transform="scale(1 1) rotate(0) translate(4 199)">
<title>src/security/IPSecManager.cpp</title>
<!-- Node1 -->
<g id="Node000001" class="node">
<title>Node1</title>
<g id="a_Node000001"><a xlink:title=" ">
<polygon fill="#999999" stroke="#666666" points="564,-195 400,-195 400,-176 564,-176 564,-195"/>
<text text-anchor="middle" x="482" y="-183" font-family="Helvetica,sans-Serif" font-size="10.00">src/security/IPSecManager.cpp</text>
</a>
</g>
</g>
<!-- Node2 -->
<g id="Node000002" class="node">
<title>Node2</title>
<g id="a_Node000002"><a xlink:href="../../d1/de8/IPSecManager_8h.html" target="_top" xlink:title=" ">
<polygon fill="white" stroke="#666666" points="247,-140 135,-140 135,-110 247,-110 247,-140"/>
<text text-anchor="start" x="143" y="-128" font-family="Helvetica,sans-Serif" font-size="10.00">../../include/security</text>
<text text-anchor="middle" x="191" y="-117" font-family="Helvetica,sans-Serif" font-size="10.00">/IPSecManager.h</text>
</a>
</g>
</g>
<!-- Node1&#45;&gt;Node2 -->
<g id="edge1_Node000001_Node000002" class="edge">
<title>Node1&#45;&gt;Node2</title>
<g id="a_edge1_Node000001_Node000002"><a xlink:title=" ">
<path fill="none" stroke="#63b8ff" d="M439.69,-175.99C391.73,-166.35 312.96,-150.52 256.93,-139.25"/>
<polygon fill="#63b8ff" stroke="#63b8ff" points="257.58,-135.82 247.09,-137.28 256.2,-142.68 257.58,-135.82"/>
</a>
</g>
</g>
<!-- Node8 -->
<g id="Node000008" class="node">
<title>Node8</title>
<g id="a_Node000008"><a xlink:title=" ">
<polygon fill="#e0e0e0" stroke="#999999" points="360,-19 310,-19 310,0 360,0 360,-19"/>
<text text-anchor="middle" x="335" y="-7" font-family="Helvetica,sans-Serif" font-size="10.00">chrono</text>
</a>
</g>
</g>
<!-- Node1&#45;&gt;Node8 -->
<g id="edge15_Node000001_Node000008" class="edge">
<title>Node1&#45;&gt;Node8</title>
<g id="a_edge15_Node000001_Node000008"><a xlink:title=" ">
<path fill="none" stroke="#63b8ff" d="M431.45,-175.93C408.78,-169.62 383.48,-158.72 367,-140 339.41,-108.67 334.81,-57.26 334.5,-29.58"/>
<polygon fill="#63b8ff" stroke="#63b8ff" points="338,-29.32 334.58,-19.29 331,-29.27 338,-29.32"/>
</a>
</g>
</g>
<!-- Node9 -->
<g id="Node000009" class="node">
<title>Node9</title>
<g id="a_Node000009"><a xlink:title=" ">
<polygon fill="#e0e0e0" stroke="#999999" points="436,-134.5 376,-134.5 376,-115.5 436,-115.5 436,-134.5"/>
<text text-anchor="middle" x="406" y="-122.5" font-family="Helvetica,sans-Serif" font-size="10.00">iostream</text>
</a>
</g>
</g>
<!-- Node1&#45;&gt;Node9 -->
<g id="edge10_Node000001_Node000009" class="edge">
<title>Node1&#45;&gt;Node9</title>
<g id="a_edge10_Node000001_Node000009"><a xlink:title=" ">
<path fill="none" stroke="#63b8ff" d="M470.79,-175.87C458.89,-166.71 439.86,-152.06 425.49,-141.01"/>
<polygon fill="#63b8ff" stroke="#63b8ff" points="427.32,-137.99 417.26,-134.67 423.05,-143.54 427.32,-137.99"/>
</a>
</g>
</g>
<!-- Node10 -->
<g id="Node000010" class="node">
<title>Node10</title>
<g id="a_Node000010"><a xlink:title=" ">
<polygon fill="#e0e0e0" stroke="#999999" points="510,-134.5 454,-134.5 454,-115.5 510,-115.5 510,-134.5"/>
<text text-anchor="middle" x="482" y="-122.5" font-family="Helvetica,sans-Serif" font-size="10.00">sstream</text>
</a>
</g>
</g>
<!-- Node1&#45;&gt;Node10 -->
<g id="edge11_Node000001_Node000010" class="edge">
<title>Node1&#45;&gt;Node10</title>
<g id="a_edge11_Node000001_Node000010"><a xlink:title=" ">
<path fill="none" stroke="#63b8ff" d="M482,-175.87C482,-167.75 482,-155.31 482,-144.89"/>
<polygon fill="#63b8ff" stroke="#63b8ff" points="485.5,-144.67 482,-134.67 478.5,-144.67 485.5,-144.67"/>
</a>
</g>
</g>
<!-- Node11 -->
<g id="Node000011" class="node">
<title>Node11</title>
<g id="a_Node000011"><a xlink:title=" ">
<polygon fill="#e0e0e0" stroke="#999999" points="584,-134.5 528,-134.5 528,-115.5 584,-115.5 584,-134.5"/>
<text text-anchor="middle" x="556" y="-122.5" font-family="Helvetica,sans-Serif" font-size="10.00">iomanip</text>
</a>
</g>
</g>
<!-- Node1&#45;&gt;Node11 -->
<g id="edge12_Node000001_Node000011" class="edge">
<title>Node1&#45;&gt;Node11</title>
<g id="a_edge12_Node000001_Node000011"><a xlink:title=" ">
<path fill="none" stroke="#63b8ff" d="M492.92,-175.87C504.51,-166.71 523.03,-152.06 537.02,-141.01"/>
<polygon fill="#63b8ff" stroke="#63b8ff" points="539.36,-143.61 545.04,-134.67 535.02,-138.12 539.36,-143.61"/>
</a>
</g>
</g>
<!-- Node12 -->
<g id="Node000012" class="node">
<title>Node12</title>
<g id="a_Node000012"><a xlink:title=" ">
<polygon fill="#e0e0e0" stroke="#999999" points="656,-134.5 602,-134.5 602,-115.5 656,-115.5 656,-134.5"/>
<text text-anchor="middle" x="629" y="-122.5" font-family="Helvetica,sans-Serif" font-size="10.00">random</text>
</a>
</g>
</g>
<!-- Node1&#45;&gt;Node12 -->
<g id="edge13_Node000001_Node000012" class="edge">
<title>Node1&#45;&gt;Node12</title>
<g id="a_edge13_Node000001_Node000012"><a xlink:title=" ">
<path fill="none" stroke="#63b8ff" d="M503.38,-175.99C528.31,-166.07 569.72,-149.59 598.14,-138.28"/>
<polygon fill="#63b8ff" stroke="#63b8ff" points="599.6,-141.47 607.6,-134.52 597.01,-134.96 599.6,-141.47"/>
</a>
</g>
</g>
<!-- Node13 -->
<g id="Node000013" class="node">
<title>Node13</title>
<g id="a_Node000013"><a xlink:title=" ">
<polygon fill="#e0e0e0" stroke="#999999" points="738,-134.5 674,-134.5 674,-115.5 738,-115.5 738,-134.5"/>
<text text-anchor="middle" x="706" y="-122.5" font-family="Helvetica,sans-Serif" font-size="10.00">algorithm</text>
</a>
</g>
</g>
<!-- Node1&#45;&gt;Node13 -->
<g id="edge14_Node000001_Node000013" class="edge">
<title>Node1&#45;&gt;Node13</title>
<g id="a_edge14_Node000001_Node000013"><a xlink:title=" ">
<path fill="none" stroke="#63b8ff" d="M521.54,-175.97C558.79,-167.68 616.03,-154.28 665,-140 667.46,-139.28 670,-138.51 672.54,-137.7"/>
<polygon fill="#63b8ff" stroke="#63b8ff" points="673.86,-140.95 682.27,-134.51 671.68,-134.3 673.86,-140.95"/>
</a>
</g>
</g>
<!-- Node3 -->
<g id="Node000003" class="node">
<title>Node3</title>
<g id="a_Node000003"><a xlink:title=" ">
<polygon fill="#e0e0e0" stroke="#999999" points="266,-19 222,-19 222,0 266,0 266,-19"/>
<text text-anchor="middle" x="244" y="-7" font-family="Helvetica,sans-Serif" font-size="10.00">string</text>
</a>
</g>
</g>
<!-- Node2&#45;&gt;Node3 -->
<g id="edge2_Node000002_Node000003" class="edge">
<title>Node2&#45;&gt;Node3</title>
<g id="a_edge2_Node000002_Node000003"><a xlink:title=" ">
<path fill="none" stroke="#63b8ff" d="M244.2,-109.99C262.25,-102.42 280.49,-91.01 291,-74 301.87,-56.41 283.65,-37.52 266.82,-24.96"/>
<polygon fill="#63b8ff" stroke="#63b8ff" points="268.51,-21.87 258.31,-19.01 264.5,-27.61 268.51,-21.87"/>
</a>
</g>
</g>
<!-- Node4 -->
<g id="Node000004" class="node">
<title>Node4</title>
<g id="a_Node000004"><a xlink:title=" ">
<polygon fill="#e0e0e0" stroke="#999999" points="181,-19 143,-19 143,0 181,0 181,-19"/>
<text text-anchor="middle" x="162" y="-7" font-family="Helvetica,sans-Serif" font-size="10.00">map</text>
</a>
</g>
</g>
<!-- Node2&#45;&gt;Node4 -->
<g id="edge3_Node000002_Node000004" class="edge">
<title>Node2&#45;&gt;Node4</title>
<g id="a_edge3_Node000002_Node000004"><a xlink:title=" ">
<path fill="none" stroke="#63b8ff" d="M184.29,-109.87C179.88,-100.02 174.32,-86.47 171,-74 167.09,-59.34 164.79,-42.29 163.5,-29.55"/>
<polygon fill="#63b8ff" stroke="#63b8ff" points="166.95,-28.91 162.57,-19.26 159.98,-29.53 166.95,-28.91"/>
</a>
</g>
</g>
<!-- Node5 -->
<g id="Node000005" class="node">
<title>Node5</title>
<g id="a_Node000005"><a xlink:title=" ">
<polygon fill="#e0e0e0" stroke="#999999" points="58,-74 0,-74 0,-55 58,-55 58,-74"/>
<text text-anchor="middle" x="29" y="-62" font-family="Helvetica,sans-Serif" font-size="10.00">memory</text>
</a>
</g>
</g>
<!-- Node2&#45;&gt;Node5 -->
<g id="edge4_Node000002_Node000005" class="edge">
<title>Node2&#45;&gt;Node5</title>
<g id="a_edge4_Node000002_Node000005"><a xlink:title=" ">
<path fill="none" stroke="#63b8ff" d="M152.2,-109.99C124.81,-100.1 88.48,-86.98 62.39,-77.56"/>
<polygon fill="#63b8ff" stroke="#63b8ff" points="63.52,-74.24 52.92,-74.14 61.14,-80.83 63.52,-74.24"/>
</a>
</g>
</g>
<!-- Node6 -->
<g id="Node000006" class="node">
<title>Node6</title>
<g id="a_Node000006"><a xlink:title=" ">
<polygon fill="#e0e0e0" stroke="#999999" points="124,-74 76,-74 76,-55 124,-55 124,-74"/>
<text text-anchor="middle" x="100" y="-62" font-family="Helvetica,sans-Serif" font-size="10.00">mutex</text>
</a>
</g>
</g>
<!-- Node2&#45;&gt;Node6 -->
<g id="edge5_Node000002_Node000006" class="edge">
<title>Node2&#45;&gt;Node6</title>
<g id="a_edge5_Node000002_Node000006"><a xlink:title=" ">
<path fill="none" stroke="#63b8ff" d="M168.97,-109.84C154.73,-100.68 136.27,-88.82 122.03,-79.66"/>
<polygon fill="#63b8ff" stroke="#63b8ff" points="123.67,-76.56 113.37,-74.09 119.89,-82.45 123.67,-76.56"/>
</a>
</g>
</g>
<!-- Node7 -->
<g id="Node000007" class="node">
<title>Node7</title>
<g id="a_Node000007"><a xlink:href="../../d5/dca/Message_8h.html" target="_top" xlink:title=" ">
<polygon fill="white" stroke="#666666" points="282,-74 180,-74 180,-55 282,-55 282,-74"/>
<text text-anchor="middle" x="231" y="-62" font-family="Helvetica,sans-Serif" font-size="10.00">../core/Message.h</text>
</a>
</g>
</g>
<!-- Node2&#45;&gt;Node7 -->
<g id="edge6_Node000002_Node000007" class="edge">
<title>Node2&#45;&gt;Node7</title>
<g id="a_edge6_Node000002_Node000007"><a xlink:title=" ">
<path fill="none" stroke="#63b8ff" d="M200.68,-109.84C206.25,-101.69 213.29,-91.4 219.18,-82.78"/>
<polygon fill="#63b8ff" stroke="#63b8ff" points="222.25,-84.5 225.01,-74.27 216.47,-80.55 222.25,-84.5"/>
</a>
</g>
</g>
<!-- Node7&#45;&gt;Node3 -->
<g id="edge7_Node000007_Node000003" class="edge">
<title>Node7&#45;&gt;Node3</title>
<g id="a_edge7_Node000007_Node000003"><a xlink:title=" ">
<path fill="none" stroke="#63b8ff" d="M233.15,-54.75C234.87,-47.72 237.35,-37.62 239.5,-28.84"/>
<polygon fill="#63b8ff" stroke="#63b8ff" points="242.91,-29.63 241.89,-19.09 236.11,-27.97 242.91,-29.63"/>
</a>
</g>
</g>
<!-- Node7&#45;&gt;Node4 -->
<g id="edge9_Node000007_Node000004" class="edge">
<title>Node7&#45;&gt;Node4</title>
<g id="a_edge9_Node000007_Node000004"><a xlink:title=" ">
<path fill="none" stroke="#63b8ff" d="M219.91,-54.98C209.51,-47 193.74,-34.88 181.28,-25.31"/>
<polygon fill="#63b8ff" stroke="#63b8ff" points="183.35,-22.49 173.29,-19.17 179.09,-28.04 183.35,-22.49"/>
</a>
</g>
</g>
<!-- Node7&#45;&gt;Node8 -->
<g id="edge8_Node000007_Node000008" class="edge">
<title>Node7&#45;&gt;Node8</title>
<g id="a_edge8_Node000007_Node000008"><a xlink:title=" ">
<path fill="none" stroke="#63b8ff" d="M247.71,-54.98C264.21,-46.57 289.7,-33.59 308.88,-23.81"/>
<polygon fill="#63b8ff" stroke="#63b8ff" points="310.67,-26.83 317.99,-19.17 307.49,-20.59 310.67,-26.83"/>
</a>
</g>
</g>
</g>
</svg>
