<?xml version="1.0" encoding="UTF-8" standalone="no"?>
<!DOCTYPE svg PUBLIC "-//W3C//DTD SVG 1.1//EN"
 "http://www.w3.org/Graphics/SVG/1.1/DTD/svg11.dtd">
<!-- Generated by graphviz version 2.43.0 (0)
 -->
<!-- Title: include/devices/ProtocolAwareDevice.h Pages: 1 -->
<svg width="895pt" height="313pt"
 viewBox="0.00 0.00 895.00 313.00" xmlns="http://www.w3.org/2000/svg" xmlns:xlink="http://www.w3.org/1999/xlink">
<g id="graph0" class="graph" transform="scale(1 1) rotate(0) translate(4 309)">
<title>include/devices/ProtocolAwareDevice.h</title>
<!-- Node1 -->
<g id="Node000001" class="node">
<title>Node1</title>
<g id="a_Node000001"><a xlink:title=" ">
<polygon fill="#999999" stroke="#666666" points="751.5,-305 616.5,-305 616.5,-275 751.5,-275 751.5,-305"/>
<text text-anchor="start" x="624.5" y="-293" font-family="Helvetica,sans-Serif" font-size="10.00">include/devices/Protocol</text>
<text text-anchor="middle" x="684" y="-282" font-family="Helvetica,sans-Serif" font-size="10.00">AwareDevice.h</text>
</a>
</g>
</g>
<!-- Node2 -->
<g id="Node000002" class="node">
<title>Node2</title>
<g id="a_Node000002"><a xlink:href="../../de/daa/IoTDevice_8h.html" target="_top" xlink:title=" ">
<polygon fill="white" stroke="#666666" points="575.5,-74 468.5,-74 468.5,-55 575.5,-55 575.5,-74"/>
<text text-anchor="middle" x="522" y="-62" font-family="Helvetica,sans-Serif" font-size="10.00">../core/IoTDevice.h</text>
</a>
</g>
</g>
<!-- Node1&#45;&gt;Node2 -->
<g id="edge1_Node000001_Node000002" class="edge">
<title>Node1&#45;&gt;Node2</title>
<g id="a_edge1_Node000001_Node000002"><a xlink:title=" ">
<path fill="none" stroke="#63b8ff" d="M696.64,-274.8C724.11,-242.19 783.57,-160.82 742,-110 722.54,-86.21 643.5,-74.84 585.71,-69.62"/>
<polygon fill="#63b8ff" stroke="#63b8ff" points="585.81,-66.11 575.55,-68.74 585.21,-73.09 585.81,-66.11"/>
</a>
</g>
</g>
<!-- Node6 -->
<g id="Node000006" class="node">
<title>Node6</title>
<g id="a_Node000006"><a xlink:href="../../dd/d6c/NetworkManager_8h.html" target="_top" xlink:title=" ">
<polygon fill="white" stroke="#666666" points="525.5,-184 364.5,-184 364.5,-165 525.5,-165 525.5,-184"/>
<text text-anchor="middle" x="445" y="-172" font-family="Helvetica,sans-Serif" font-size="10.00">../network/NetworkManager.h</text>
</a>
</g>
</g>
<!-- Node1&#45;&gt;Node6 -->
<g id="edge5_Node000001_Node000006" class="edge">
<title>Node1&#45;&gt;Node6</title>
<g id="a_edge5_Node000001_Node000006"><a xlink:title=" ">
<path fill="none" stroke="#63b8ff" d="M657.88,-274.98C630.87,-260.64 587.37,-237.99 549,-220 524.59,-208.56 496.46,-196.59 475.61,-187.95"/>
<polygon fill="#63b8ff" stroke="#63b8ff" points="476.88,-184.69 466.3,-184.12 474.21,-191.16 476.88,-184.69"/>
</a>
</g>
</g>
<!-- Node17 -->
<g id="Node000017" class="node">
<title>Node17</title>
<g id="a_Node000017"><a xlink:href="../../de/d44/ProtocolCharacteristics_8h.html" target="_top" xlink:title=" ">
<polygon fill="white" stroke="#666666" points="540,-239 350,-239 350,-220 540,-220 540,-239"/>
<text text-anchor="middle" x="445" y="-227" font-family="Helvetica,sans-Serif" font-size="10.00">../network/ProtocolCharacteristics.h</text>
</a>
</g>
</g>
<!-- Node1&#45;&gt;Node17 -->
<g id="edge30_Node000001_Node000017" class="edge">
<title>Node1&#45;&gt;Node17</title>
<g id="a_edge30_Node000001_Node000017"><a xlink:title=" ">
<path fill="none" stroke="#63b8ff" d="M626.75,-274.99C584.79,-264.72 528.62,-250.97 489.89,-241.49"/>
<polygon fill="#63b8ff" stroke="#63b8ff" points="490.49,-238.03 479.95,-239.05 488.83,-244.83 490.49,-238.03"/>
</a>
</g>
</g>
<!-- Node18 -->
<g id="Node000018" class="node">
<title>Node18</title>
<g id="a_Node000018"><a xlink:title=" ">
<polygon fill="#e0e0e0" stroke="#999999" points="887,-239 827,-239 827,-220 887,-220 887,-239"/>
<text text-anchor="middle" x="857" y="-227" font-family="Helvetica,sans-Serif" font-size="10.00">iostream</text>
</a>
</g>
</g>
<!-- Node1&#45;&gt;Node18 -->
<g id="edge33_Node000001_Node000018" class="edge">
<title>Node1&#45;&gt;Node18</title>
<g id="a_edge33_Node000001_Node000018"><a xlink:title=" ">
<path fill="none" stroke="#63b8ff" d="M725.44,-274.99C754.91,-265.02 794.06,-251.78 821.97,-242.35"/>
<polygon fill="#63b8ff" stroke="#63b8ff" points="823.35,-245.57 831.7,-239.05 821.11,-238.94 823.35,-245.57"/>
</a>
</g>
</g>
<!-- Node3 -->
<g id="Node000003" class="node">
<title>Node3</title>
<g id="a_Node000003"><a xlink:title=" ">
<polygon fill="#e0e0e0" stroke="#999999" points="178,-19 134,-19 134,0 178,0 178,-19"/>
<text text-anchor="middle" x="156" y="-7" font-family="Helvetica,sans-Serif" font-size="10.00">string</text>
</a>
</g>
</g>
<!-- Node2&#45;&gt;Node3 -->
<g id="edge2_Node000002_Node000003" class="edge">
<title>Node2&#45;&gt;Node3</title>
<g id="a_edge2_Node000002_Node000003"><a xlink:title=" ">
<path fill="none" stroke="#63b8ff" d="M468.39,-55.74C391.25,-44.57 251.3,-24.3 188.28,-15.17"/>
<polygon fill="#63b8ff" stroke="#63b8ff" points="188.54,-11.68 178.15,-13.71 187.54,-18.6 188.54,-11.68"/>
</a>
</g>
</g>
<!-- Node4 -->
<g id="Node000004" class="node">
<title>Node4</title>
<g id="a_Node000004"><a xlink:title=" ">
<polygon fill="#e0e0e0" stroke="#999999" points="469,-19 411,-19 411,0 469,0 469,-19"/>
<text text-anchor="middle" x="440" y="-7" font-family="Helvetica,sans-Serif" font-size="10.00">memory</text>
</a>
</g>
</g>
<!-- Node2&#45;&gt;Node4 -->
<g id="edge3_Node000002_Node000004" class="edge">
<title>Node2&#45;&gt;Node4</title>
<g id="a_edge3_Node000002_Node000004"><a xlink:title=" ">
<path fill="none" stroke="#63b8ff" d="M508.83,-54.98C496.23,-46.84 477,-34.41 462.06,-24.76"/>
<polygon fill="#63b8ff" stroke="#63b8ff" points="463.71,-21.66 453.41,-19.17 459.91,-27.54 463.71,-21.66"/>
</a>
</g>
</g>
<!-- Node5 -->
<g id="Node000005" class="node">
<title>Node5</title>
<g id="a_Node000005"><a xlink:title=" ">
<polygon fill="#e0e0e0" stroke="#999999" points="547,-19 497,-19 497,0 547,0 547,-19"/>
<text text-anchor="middle" x="522" y="-7" font-family="Helvetica,sans-Serif" font-size="10.00">chrono</text>
</a>
</g>
</g>
<!-- Node2&#45;&gt;Node5 -->
<g id="edge4_Node000002_Node000005" class="edge">
<title>Node2&#45;&gt;Node5</title>
<g id="a_edge4_Node000002_Node000005"><a xlink:title=" ">
<path fill="none" stroke="#63b8ff" d="M522,-54.75C522,-47.8 522,-37.85 522,-29.13"/>
<polygon fill="#63b8ff" stroke="#63b8ff" points="525.5,-29.09 522,-19.09 518.5,-29.09 525.5,-29.09"/>
</a>
</g>
</g>
<!-- Node6&#45;&gt;Node5 -->
<g id="edge28_Node000006_Node000005" class="edge">
<title>Node6&#45;&gt;Node5</title>
<g id="a_edge28_Node000006_Node000005"><a xlink:title=" ">
<path fill="none" stroke="#63b8ff" d="M525.66,-172.81C603.86,-170.23 714.57,-160.85 742,-129 798.65,-63.23 632.35,-27.88 557,-15.58"/>
<polygon fill="#63b8ff" stroke="#63b8ff" points="557.43,-12.1 547.01,-13.99 556.34,-19.01 557.43,-12.1"/>
</a>
</g>
</g>
<!-- Node7 -->
<g id="Node000007" class="node">
<title>Node7</title>
<g id="a_Node000007"><a xlink:href="../../d5/dca/Message_8h.html" target="_top" xlink:title=" ">
<polygon fill="white" stroke="#666666" points="128,-74 26,-74 26,-55 128,-55 128,-74"/>
<text text-anchor="middle" x="77" y="-62" font-family="Helvetica,sans-Serif" font-size="10.00">../core/Message.h</text>
</a>
</g>
</g>
<!-- Node6&#45;&gt;Node7 -->
<g id="edge6_Node000006_Node000007" class="edge">
<title>Node6&#45;&gt;Node7</title>
<g id="a_edge6_Node000006_Node000007"><a xlink:title=" ">
<path fill="none" stroke="#63b8ff" d="M364.45,-169.84C257.29,-164.13 78.95,-151.38 59,-129 47.49,-116.09 55.81,-96.33 64.58,-82.28"/>
<polygon fill="#63b8ff" stroke="#63b8ff" points="67.48,-84.25 70.2,-74.01 61.69,-80.31 67.48,-84.25"/>
</a>
</g>
</g>
<!-- Node8 -->
<g id="Node000008" class="node">
<title>Node8</title>
<g id="a_Node000008"><a xlink:title=" ">
<polygon fill="#e0e0e0" stroke="#999999" points="38,-19 0,-19 0,0 38,0 38,-19"/>
<text text-anchor="middle" x="19" y="-7" font-family="Helvetica,sans-Serif" font-size="10.00">map</text>
</a>
</g>
</g>
<!-- Node6&#45;&gt;Node8 -->
<g id="edge29_Node000006_Node000008" class="edge">
<title>Node6&#45;&gt;Node8</title>
<g id="a_edge29_Node000006_Node000008"><a xlink:title=" ">
<path fill="none" stroke="#63b8ff" d="M364.45,-171.74C264.66,-168.31 101.39,-158.28 49,-129 21.91,-113.86 16.11,-103.34 6,-74 0.85,-59.06 5.27,-41.4 10.3,-28.5"/>
<polygon fill="#63b8ff" stroke="#63b8ff" points="13.51,-29.88 14.3,-19.32 7.1,-27.09 13.51,-29.88"/>
</a>
</g>
</g>
<!-- Node9 -->
<g id="Node000009" class="node">
<title>Node9</title>
<g id="a_Node000009"><a xlink:href="../../da/dcc/DeviceManager_8h.html" target="_top" xlink:title=" ">
<polygon fill="white" stroke="#666666" points="403,-129 269,-129 269,-110 403,-110 403,-129"/>
<text text-anchor="middle" x="336" y="-117" font-family="Helvetica,sans-Serif" font-size="10.00">../core/DeviceManager.h</text>
</a>
</g>
</g>
<!-- Node6&#45;&gt;Node9 -->
<g id="edge10_Node000006_Node000009" class="edge">
<title>Node6&#45;&gt;Node9</title>
<g id="a_edge10_Node000006_Node000009"><a xlink:title=" ">
<path fill="none" stroke="#63b8ff" d="M427.49,-164.98C410.03,-156.5 382.99,-143.35 362.83,-133.54"/>
<polygon fill="#63b8ff" stroke="#63b8ff" points="364.36,-130.4 353.83,-129.17 361.29,-136.69 364.36,-130.4"/>
</a>
</g>
</g>
<!-- Node11 -->
<g id="Node000011" class="node">
<title>Node11</title>
<g id="a_Node000011"><a xlink:title=" ">
<polygon fill="#e0e0e0" stroke="#999999" points="270,-74 222,-74 222,-55 270,-55 270,-74"/>
<text text-anchor="middle" x="246" y="-62" font-family="Helvetica,sans-Serif" font-size="10.00">mutex</text>
</a>
</g>
</g>
<!-- Node6&#45;&gt;Node11 -->
<g id="edge24_Node000006_Node000011" class="edge">
<title>Node6&#45;&gt;Node11</title>
<g id="a_edge24_Node000006_Node000011"><a xlink:title=" ">
<path fill="none" stroke="#63b8ff" d="M378.35,-165C332.33,-157.77 276.54,-145.86 260,-129 248.52,-117.3 245.56,-98.45 245.15,-84.32"/>
<polygon fill="#63b8ff" stroke="#63b8ff" points="248.65,-84.26 245.25,-74.22 241.65,-84.19 248.65,-84.26"/>
</a>
</g>
</g>
<!-- Node12 -->
<g id="Node000012" class="node">
<title>Node12</title>
<g id="a_Node000012"><a xlink:href="../../d1/de8/IPSecManager_8h.html" target="_top" xlink:title=" ">
<polygon fill="white" stroke="#666666" points="212.5,-129 67.5,-129 67.5,-110 212.5,-110 212.5,-129"/>
<text text-anchor="middle" x="140" y="-117" font-family="Helvetica,sans-Serif" font-size="10.00">../security/IPSecManager.h</text>
</a>
</g>
</g>
<!-- Node6&#45;&gt;Node12 -->
<g id="edge17_Node000006_Node000012" class="edge">
<title>Node6&#45;&gt;Node12</title>
<g id="a_edge17_Node000006_Node000012"><a xlink:title=" ">
<path fill="none" stroke="#63b8ff" d="M396,-164.98C342.38,-155.67 256.46,-140.74 199.14,-130.78"/>
<polygon fill="#63b8ff" stroke="#63b8ff" points="199.59,-127.3 189.13,-129.04 198.39,-134.2 199.59,-127.3"/>
</a>
</g>
</g>
<!-- Node13 -->
<g id="Node000013" class="node">
<title>Node13</title>
<g id="a_Node000013"><a xlink:title=" ">
<polygon fill="#e0e0e0" stroke="#999999" points="468.5,-129 421.5,-129 421.5,-110 468.5,-110 468.5,-129"/>
<text text-anchor="middle" x="445" y="-117" font-family="Helvetica,sans-Serif" font-size="10.00">queue</text>
</a>
</g>
</g>
<!-- Node6&#45;&gt;Node13 -->
<g id="edge23_Node000006_Node000013" class="edge">
<title>Node6&#45;&gt;Node13</title>
<g id="a_edge23_Node000006_Node000013"><a xlink:title=" ">
<path fill="none" stroke="#63b8ff" d="M445,-164.75C445,-157.8 445,-147.85 445,-139.13"/>
<polygon fill="#63b8ff" stroke="#63b8ff" points="448.5,-139.09 445,-129.09 441.5,-139.09 448.5,-139.09"/>
</a>
</g>
</g>
<!-- Node14 -->
<g id="Node000014" class="node">
<title>Node14</title>
<g id="a_Node000014"><a xlink:title=" ">
<polygon fill="#e0e0e0" stroke="#999999" points="541,-129 487,-129 487,-110 541,-110 541,-129"/>
<text text-anchor="middle" x="514" y="-117" font-family="Helvetica,sans-Serif" font-size="10.00">random</text>
</a>
</g>
</g>
<!-- Node6&#45;&gt;Node14 -->
<g id="edge25_Node000006_Node000014" class="edge">
<title>Node6&#45;&gt;Node14</title>
<g id="a_edge25_Node000006_Node000014"><a xlink:title=" ">
<path fill="none" stroke="#63b8ff" d="M456.09,-164.98C466.49,-157 482.26,-144.88 494.72,-135.31"/>
<polygon fill="#63b8ff" stroke="#63b8ff" points="496.91,-138.04 502.71,-129.17 492.65,-132.49 496.91,-138.04"/>
</a>
</g>
</g>
<!-- Node15 -->
<g id="Node000015" class="node">
<title>Node15</title>
<g id="a_Node000015"><a xlink:title=" ">
<polygon fill="#e0e0e0" stroke="#999999" points="607,-129 559,-129 559,-110 607,-110 607,-129"/>
<text text-anchor="middle" x="583" y="-117" font-family="Helvetica,sans-Serif" font-size="10.00">thread</text>
</a>
</g>
</g>
<!-- Node6&#45;&gt;Node15 -->
<g id="edge26_Node000006_Node000015" class="edge">
<title>Node6&#45;&gt;Node15</title>
<g id="a_edge26_Node000006_Node000015"><a xlink:title=" ">
<path fill="none" stroke="#63b8ff" d="M467.17,-164.98C489.77,-156.3 525.06,-142.75 550.75,-132.88"/>
<polygon fill="#63b8ff" stroke="#63b8ff" points="552.34,-136.02 560.42,-129.17 549.83,-129.49 552.34,-136.02"/>
</a>
</g>
</g>
<!-- Node16 -->
<g id="Node000016" class="node">
<title>Node16</title>
<g id="a_Node000016"><a xlink:title=" ">
<polygon fill="#e0e0e0" stroke="#999999" points="732.5,-129 625.5,-129 625.5,-110 732.5,-110 732.5,-129"/>
<text text-anchor="middle" x="679" y="-117" font-family="Helvetica,sans-Serif" font-size="10.00">condition_variable</text>
</a>
</g>
</g>
<!-- Node6&#45;&gt;Node16 -->
<g id="edge27_Node000006_Node000016" class="edge">
<title>Node6&#45;&gt;Node16</title>
<g id="a_edge27_Node000006_Node000016"><a xlink:title=" ">
<path fill="none" stroke="#63b8ff" d="M482.6,-164.98C522.99,-155.84 587.28,-141.27 631.23,-131.32"/>
<polygon fill="#63b8ff" stroke="#63b8ff" points="632.13,-134.7 641.11,-129.08 630.58,-127.88 632.13,-134.7"/>
</a>
</g>
</g>
<!-- Node7&#45;&gt;Node3 -->
<g id="edge7_Node000007_Node000003" class="edge">
<title>Node7&#45;&gt;Node3</title>
<g id="a_edge7_Node000007_Node000003"><a xlink:title=" ">
<path fill="none" stroke="#63b8ff" d="M89.69,-54.98C101.83,-46.84 120.36,-34.41 134.75,-24.76"/>
<polygon fill="#63b8ff" stroke="#63b8ff" points="136.72,-27.65 143.08,-19.17 132.82,-21.84 136.72,-27.65"/>
</a>
</g>
</g>
<!-- Node7&#45;&gt;Node5 -->
<g id="edge8_Node000007_Node000005" class="edge">
<title>Node7&#45;&gt;Node5</title>
<g id="a_edge8_Node000007_Node000005"><a xlink:title=" ">
<path fill="none" stroke="#63b8ff" d="M128.13,-59.15C204.51,-52.36 352.83,-38 478,-19 480.88,-18.56 483.87,-18.07 486.86,-17.55"/>
<polygon fill="#63b8ff" stroke="#63b8ff" points="487.73,-20.95 496.93,-15.7 486.46,-14.06 487.73,-20.95"/>
</a>
</g>
</g>
<!-- Node7&#45;&gt;Node8 -->
<g id="edge9_Node000007_Node000008" class="edge">
<title>Node7&#45;&gt;Node8</title>
<g id="a_edge9_Node000007_Node000008"><a xlink:title=" ">
<path fill="none" stroke="#63b8ff" d="M67.68,-54.98C59.19,-47.23 46.44,-35.58 36.12,-26.14"/>
<polygon fill="#63b8ff" stroke="#63b8ff" points="38.23,-23.33 28.49,-19.17 33.51,-28.5 38.23,-23.33"/>
</a>
</g>
</g>
<!-- Node9&#45;&gt;Node2 -->
<g id="edge11_Node000009_Node000002" class="edge">
<title>Node9&#45;&gt;Node2</title>
<g id="a_edge11_Node000009_Node000002"><a xlink:title=" ">
<path fill="none" stroke="#63b8ff" d="M365.88,-109.98C397.38,-101.01 447.17,-86.82 482.03,-76.89"/>
<polygon fill="#63b8ff" stroke="#63b8ff" points="483.22,-80.19 491.88,-74.08 481.31,-73.46 483.22,-80.19"/>
</a>
</g>
</g>
<!-- Node9&#45;&gt;Node3 -->
<g id="edge15_Node000009_Node000003" class="edge">
<title>Node9&#45;&gt;Node3</title>
<g id="a_edge15_Node000009_Node000003"><a xlink:title=" ">
<path fill="none" stroke="#63b8ff" d="M335.16,-109.74C333.38,-96.06 327.96,-69.68 312,-55 277.81,-23.55 222.92,-14.16 188.2,-11.45"/>
<polygon fill="#63b8ff" stroke="#63b8ff" points="188.31,-7.95 178.11,-10.81 187.87,-14.94 188.31,-7.95"/>
</a>
</g>
</g>
<!-- Node9&#45;&gt;Node4 -->
<g id="edge14_Node000009_Node000004" class="edge">
<title>Node9&#45;&gt;Node4</title>
<g id="a_edge14_Node000009_Node000004"><a xlink:title=" ">
<path fill="none" stroke="#63b8ff" d="M365.02,-109.85C383.5,-102.94 406.59,-91.48 421,-74 431.41,-61.38 436.12,-43.19 438.25,-29.51"/>
<polygon fill="#63b8ff" stroke="#63b8ff" points="441.75,-29.65 439.5,-19.3 434.81,-28.8 441.75,-29.65"/>
</a>
</g>
</g>
<!-- Node9&#45;&gt;Node8 -->
<g id="edge12_Node000009_Node000008" class="edge">
<title>Node9&#45;&gt;Node8</title>
<g id="a_edge12_Node000009_Node000008"><a xlink:title=" ">
<path fill="none" stroke="#63b8ff" d="M330.96,-109.84C322.28,-95.8 303.12,-68.32 279,-55 239.65,-33.28 107.8,-18.71 48.42,-13.09"/>
<polygon fill="#63b8ff" stroke="#63b8ff" points="48.5,-9.58 38.22,-12.14 47.85,-16.55 48.5,-9.58"/>
</a>
</g>
</g>
<!-- Node10 -->
<g id="Node000010" class="node">
<title>Node10</title>
<g id="a_Node000010"><a xlink:title=" ">
<polygon fill="#e0e0e0" stroke="#999999" points="411.5,-74 364.5,-74 364.5,-55 411.5,-55 411.5,-74"/>
<text text-anchor="middle" x="388" y="-62" font-family="Helvetica,sans-Serif" font-size="10.00">vector</text>
</a>
</g>
</g>
<!-- Node9&#45;&gt;Node10 -->
<g id="edge13_Node000009_Node000010" class="edge">
<title>Node9&#45;&gt;Node10</title>
<g id="a_edge13_Node000009_Node000010"><a xlink:title=" ">
<path fill="none" stroke="#63b8ff" d="M344.59,-109.75C352.16,-102.03 363.38,-90.6 372.51,-81.28"/>
<polygon fill="#63b8ff" stroke="#63b8ff" points="375.07,-83.68 379.57,-74.09 370.07,-78.78 375.07,-83.68"/>
</a>
</g>
</g>
<!-- Node9&#45;&gt;Node11 -->
<g id="edge16_Node000009_Node000011" class="edge">
<title>Node9&#45;&gt;Node11</title>
<g id="a_edge16_Node000009_Node000011"><a xlink:title=" ">
<path fill="none" stroke="#63b8ff" d="M321.54,-109.98C307.58,-101.77 286.21,-89.18 269.75,-79.49"/>
<polygon fill="#63b8ff" stroke="#63b8ff" points="271.12,-76.23 260.72,-74.17 267.56,-82.26 271.12,-76.23"/>
</a>
</g>
</g>
<!-- Node12&#45;&gt;Node3 -->
<g id="edge18_Node000012_Node000003" class="edge">
<title>Node12&#45;&gt;Node3</title>
<g id="a_edge18_Node000012_Node000003"><a xlink:title=" ">
<path fill="none" stroke="#63b8ff" d="M141.31,-109.66C143.9,-92.17 149.73,-52.8 153.22,-29.27"/>
<polygon fill="#63b8ff" stroke="#63b8ff" points="156.71,-29.56 154.72,-19.16 149.79,-28.54 156.71,-29.56"/>
</a>
</g>
</g>
<!-- Node12&#45;&gt;Node4 -->
<g id="edge20_Node000012_Node000004" class="edge">
<title>Node12&#45;&gt;Node4</title>
<g id="a_edge20_Node000012_Node000004"><a xlink:title=" ">
<path fill="none" stroke="#63b8ff" d="M147.09,-109.93C159.11,-96.03 184.93,-68.72 213,-55 274.21,-25.07 354,-15.27 400.85,-12.06"/>
<polygon fill="#63b8ff" stroke="#63b8ff" points="401.13,-15.55 410.89,-11.44 400.69,-8.56 401.13,-15.55"/>
</a>
</g>
</g>
<!-- Node12&#45;&gt;Node7 -->
<g id="edge22_Node000012_Node000007" class="edge">
<title>Node12&#45;&gt;Node7</title>
<g id="a_edge22_Node000012_Node000007"><a xlink:title=" ">
<path fill="none" stroke="#63b8ff" d="M129.88,-109.98C120.56,-102.15 106.53,-90.34 95.26,-80.86"/>
<polygon fill="#63b8ff" stroke="#63b8ff" points="97.21,-77.93 87.31,-74.17 92.71,-83.29 97.21,-77.93"/>
</a>
</g>
</g>
<!-- Node12&#45;&gt;Node8 -->
<g id="edge19_Node000012_Node000008" class="edge">
<title>Node12&#45;&gt;Node8</title>
<g id="a_edge19_Node000012_Node000008"><a xlink:title=" ">
<path fill="none" stroke="#63b8ff" d="M73.82,-109.96C52.1,-103.66 30.17,-92.78 17,-74 7.9,-61.03 9.64,-42.63 12.92,-28.97"/>
<polygon fill="#63b8ff" stroke="#63b8ff" points="16.32,-29.81 15.71,-19.23 9.59,-27.88 16.32,-29.81"/>
</a>
</g>
</g>
<!-- Node12&#45;&gt;Node11 -->
<g id="edge21_Node000012_Node000011" class="edge">
<title>Node12&#45;&gt;Node11</title>
<g id="a_edge21_Node000012_Node000011"><a xlink:title=" ">
<path fill="none" stroke="#63b8ff" d="M157.03,-109.98C173.93,-101.54 200.06,-88.47 219.64,-78.68"/>
<polygon fill="#63b8ff" stroke="#63b8ff" points="221.28,-81.77 228.66,-74.17 218.15,-75.51 221.28,-81.77"/>
</a>
</g>
</g>
<!-- Node17&#45;&gt;Node3 -->
<g id="edge32_Node000017_Node000003" class="edge">
<title>Node17&#45;&gt;Node3</title>
<g id="a_edge32_Node000017_Node000003"><a xlink:title=" ">
<path fill="none" stroke="#63b8ff" d="M349.72,-225.1C263.45,-217.6 136.8,-195.06 49,-129 20.37,-107.46 -4.12,-83.94 17,-55 41.33,-21.66 90.97,-12.73 123.86,-10.65"/>
<polygon fill="#63b8ff" stroke="#63b8ff" points="124.07,-14.14 133.9,-10.19 123.75,-7.15 124.07,-14.14"/>
</a>
</g>
</g>
<!-- Node17&#45;&gt;Node6 -->
<g id="edge31_Node000017_Node000006" class="edge">
<title>Node17&#45;&gt;Node6</title>
<g id="a_edge31_Node000017_Node000006"><a xlink:title=" ">
<path fill="none" stroke="#63b8ff" d="M445,-219.75C445,-212.8 445,-202.85 445,-194.13"/>
<polygon fill="#63b8ff" stroke="#63b8ff" points="448.5,-194.09 445,-184.09 441.5,-194.09 448.5,-194.09"/>
</a>
</g>
</g>
</g>
</svg>
