<?xml version="1.0" encoding="UTF-8" standalone="no"?>
<!DOCTYPE svg PUBLIC "-//W3C//DTD SVG 1.1//EN"
 "http://www.w3.org/Graphics/SVG/1.1/DTD/svg11.dtd">
<!-- Generated by graphviz version 2.43.0 (0)
 -->
<!-- Title: iot::LoRaTemperatureSensor::sendData Pages: 1 -->
<svg width="523pt" height="162pt"
 viewBox="0.00 0.00 523.00 161.50" xmlns="http://www.w3.org/2000/svg" xmlns:xlink="http://www.w3.org/1999/xlink">
<g id="graph0" class="graph" transform="scale(1 1) rotate(0) translate(4 157.5)">
<title>iot::LoRaTemperatureSensor::sendData</title>
<!-- Node1 -->
<g id="Node000001" class="node">
<title>Node1</title>
<g id="a_Node000001"><a xlink:title=" ">
<polygon fill="#999999" stroke="#666666" points="154,-83.5 0,-83.5 0,-53.5 154,-53.5 154,-83.5"/>
<text text-anchor="start" x="8" y="-71.5" font-family="Helvetica,sans-Serif" font-size="10.00">iot::LoRaTemperatureSensor</text>
<text text-anchor="middle" x="77" y="-60.5" font-family="Helvetica,sans-Serif" font-size="10.00">::sendData</text>
</a>
</g>
</g>
<!-- Node2 -->
<g id="Node000002" class="node">
<title>Node2</title>
<g id="a_Node000002"><a xlink:href="../../d8/d4f/classiot_1_1ProtocolAwareDevice.html#a3d463fd3d2ef0579b7a9eebbabf3eedf" target="_top" xlink:title=" ">
<polygon fill="white" stroke="#666666" points="330,-153.5 190,-153.5 190,-123.5 330,-123.5 330,-153.5"/>
<text text-anchor="start" x="198" y="-141.5" font-family="Helvetica,sans-Serif" font-size="10.00">iot::ProtocolAwareDevice</text>
<text text-anchor="middle" x="260" y="-130.5" font-family="Helvetica,sans-Serif" font-size="10.00">::consumeBattery</text>
</a>
</g>
</g>
<!-- Node1&#45;&gt;Node2 -->
<g id="edge1_Node000001_Node000002" class="edge">
<title>Node1&#45;&gt;Node2</title>
<g id="a_edge1_Node000001_Node000002"><a xlink:title=" ">
<path fill="none" stroke="#63b8ff" d="M113.11,-83.5C135.09,-92.74 164.05,-104.67 190,-114.5 194.84,-116.33 199.9,-118.2 204.97,-120.03"/>
<polygon fill="#63b8ff" stroke="#63b8ff" points="204.1,-123.43 214.7,-123.5 206.45,-116.84 204.1,-123.43"/>
</a>
</g>
</g>
<!-- Node4 -->
<g id="Node000004" class="node">
<title>Node4</title>
<g id="a_Node000004"><a xlink:href="../../d8/d4f/classiot_1_1ProtocolAwareDevice.html#aeff96efe6c1829be21d5daa2df3e7c3b" target="_top" xlink:title=" ">
<polygon fill="white" stroke="#666666" points="330,-105.5 190,-105.5 190,-75.5 330,-75.5 330,-105.5"/>
<text text-anchor="start" x="198" y="-93.5" font-family="Helvetica,sans-Serif" font-size="10.00">iot::ProtocolAwareDevice</text>
<text text-anchor="middle" x="260" y="-82.5" font-family="Helvetica,sans-Serif" font-size="10.00">::getBatteryLevel</text>
</a>
</g>
</g>
<!-- Node1&#45;&gt;Node4 -->
<g id="edge3_Node000001_Node000004" class="edge">
<title>Node1&#45;&gt;Node4</title>
<g id="a_edge3_Node000001_Node000004"><a xlink:title=" ">
<path fill="none" stroke="#63b8ff" d="M154.24,-77.77C162.62,-78.78 171.16,-79.82 179.58,-80.85"/>
<polygon fill="#63b8ff" stroke="#63b8ff" points="179.41,-84.35 189.76,-82.08 180.26,-77.4 179.41,-84.35"/>
</a>
</g>
</g>
<!-- Node5 -->
<g id="Node000005" class="node">
<title>Node5</title>
<g id="a_Node000005"><a xlink:href="../../df/dfa/classiot_1_1IoTDevice.html#a5d5f0db665e7811d71d5ee86f570e9fe" target="_top" xlink:title=" ">
<polygon fill="white" stroke="#666666" points="515,-57 366,-57 366,-38 515,-38 515,-57"/>
<text text-anchor="middle" x="440.5" y="-45" font-family="Helvetica,sans-Serif" font-size="10.00">iot::IoTDevice::getDeviceId</text>
</a>
</g>
</g>
<!-- Node1&#45;&gt;Node5 -->
<g id="edge4_Node000001_Node000005" class="edge">
<title>Node1&#45;&gt;Node5</title>
<g id="a_edge4_Node000001_Node000005"><a xlink:title=" ">
<path fill="none" stroke="#63b8ff" d="M154.22,-64.07C213.16,-60.65 294.7,-55.91 355.51,-52.38"/>
<polygon fill="#63b8ff" stroke="#63b8ff" points="356.07,-55.85 365.85,-51.78 355.67,-48.86 356.07,-55.85"/>
</a>
</g>
</g>
<!-- Node6 -->
<g id="Node000006" class="node">
<title>Node6</title>
<g id="a_Node000006"><a xlink:href="../../d6/da8/classiot_1_1Sensor.html#a4fe640988365e72916e10897b82980d1" target="_top" xlink:title=" ">
<polygon fill="white" stroke="#666666" points="320.5,-19 199.5,-19 199.5,0 320.5,0 320.5,-19"/>
<text text-anchor="middle" x="260" y="-7" font-family="Helvetica,sans-Serif" font-size="10.00">iot::Sensor::sendData</text>
</a>
</g>
</g>
<!-- Node1&#45;&gt;Node6 -->
<g id="edge5_Node000001_Node000006" class="edge">
<title>Node1&#45;&gt;Node6</title>
<g id="a_edge5_Node000001_Node000006"><a xlink:title=" ">
<path fill="none" stroke="#63b8ff" d="M124.14,-53.46C153.71,-43.82 191.68,-31.44 219.79,-22.28"/>
<polygon fill="#63b8ff" stroke="#63b8ff" points="221.24,-25.49 229.66,-19.06 219.07,-18.83 221.24,-25.49"/>
</a>
</g>
</g>
<!-- Node3 -->
<g id="Node000003" class="node">
<title>Node3</title>
<g id="a_Node000003"><a xlink:href="../../d8/d4f/classiot_1_1ProtocolAwareDevice.html#a5ac3a5560d819bad01f1c369d2edc4b6" target="_top" xlink:title=" ">
<polygon fill="white" stroke="#666666" points="510.5,-153.5 370.5,-153.5 370.5,-123.5 510.5,-123.5 510.5,-153.5"/>
<text text-anchor="start" x="378.5" y="-141.5" font-family="Helvetica,sans-Serif" font-size="10.00">iot::ProtocolAwareDevice</text>
<text text-anchor="middle" x="440.5" y="-130.5" font-family="Helvetica,sans-Serif" font-size="10.00">::enterLowPowerMode</text>
</a>
</g>
</g>
<!-- Node2&#45;&gt;Node3 -->
<g id="edge2_Node000002_Node000003" class="edge">
<title>Node2&#45;&gt;Node3</title>
<g id="a_edge2_Node000002_Node000003"><a xlink:title=" ">
<path fill="none" stroke="#63b8ff" d="M330.01,-138.5C339.95,-138.5 350.23,-138.5 360.34,-138.5"/>
<polygon fill="#63b8ff" stroke="#63b8ff" points="360.38,-142 370.38,-138.5 360.38,-135 360.38,-142"/>
</a>
</g>
</g>
<!-- Node6&#45;&gt;Node5 -->
<g id="edge6_Node000006_Node000005" class="edge">
<title>Node6&#45;&gt;Node5</title>
<g id="a_edge6_Node000006_Node000005"><a xlink:title=" ">
<path fill="none" stroke="#63b8ff" d="M306.04,-19.09C330.02,-24.19 359.7,-30.51 384.97,-35.89"/>
<polygon fill="#63b8ff" stroke="#63b8ff" points="384.27,-39.32 394.78,-37.98 385.73,-32.47 384.27,-39.32"/>
</a>
</g>
</g>
<!-- Node7 -->
<g id="Node000007" class="node">
<title>Node7</title>
<g id="a_Node000007"><a xlink:href="../../d6/da8/classiot_1_1Sensor.html#a51c394181353e6cc6d6be1f397b41aca" target="_top" xlink:title=" ">
<polygon fill="white" stroke="#666666" points="502,-19 379,-19 379,0 502,0 502,-19"/>
<text text-anchor="middle" x="440.5" y="-7" font-family="Helvetica,sans-Serif" font-size="10.00">iot::Sensor::readValue</text>
</a>
</g>
</g>
<!-- Node6&#45;&gt;Node7 -->
<g id="edge7_Node000006_Node000007" class="edge">
<title>Node6&#45;&gt;Node7</title>
<g id="a_edge7_Node000006_Node000007"><a xlink:title=" ">
<path fill="none" stroke="#63b8ff" d="M320.93,-9.5C336.22,-9.5 352.8,-9.5 368.58,-9.5"/>
<polygon fill="#63b8ff" stroke="#63b8ff" points="368.81,-13 378.81,-9.5 368.81,-6 368.81,-13"/>
</a>
</g>
</g>
</g>
</svg>
