<?xml version="1.0" encoding="UTF-8" standalone="no"?>
<!DOCTYPE svg PUBLIC "-//W3C//DTD SVG 1.1//EN"
 "http://www.w3.org/Graphics/SVG/1.1/DTD/svg11.dtd">
<!-- Generated by graphviz version 2.43.0 (0)
 -->
<!-- Title: include/core/DeviceManager.h Pages: 1 -->
<svg width="826pt" height="335pt"
 viewBox="0.00 0.00 826.00 335.00" xmlns="http://www.w3.org/2000/svg" xmlns:xlink="http://www.w3.org/1999/xlink">
<g id="graph0" class="graph" transform="scale(1 1) rotate(0) translate(4 331)">
<title>include/core/DeviceManager.h</title>
<!-- Node1 -->
<g id="Node000001" class="node">
<title>Node1</title>
<g id="a_Node000001"><a xlink:title=" ">
<polygon fill="#999999" stroke="#666666" points="672,-327 508,-327 508,-308 672,-308 672,-327"/>
<text text-anchor="middle" x="590" y="-315" font-family="Helvetica,sans-Serif" font-size="10.00">include/core/DeviceManager.h</text>
</a>
</g>
</g>
<!-- Node2 -->
<g id="Node000002" class="node">
<title>Node2</title>
<g id="a_Node000002"><a xlink:href="../../dd/d6c/NetworkManager_8h.html" target="_top" xlink:title=" ">
<polygon fill="white" stroke="#666666" points="487,-272 297,-272 297,-253 487,-253 487,-272"/>
<text text-anchor="middle" x="392" y="-260" font-family="Helvetica,sans-Serif" font-size="10.00">include/network/NetworkManager.h</text>
</a>
</g>
</g>
<!-- Node1&#45;&gt;Node2 -->
<g id="edge1_Node000001_Node000002" class="edge">
<title>Node1&#45;&gt;Node2</title>
<g id="a_edge1_Node000001_Node000002"><a xlink:title=" ">
<path fill="none" stroke="#63b8ff" d="M548.2,-305.31C511.15,-295.39 457.83,-281.12 424.06,-272.08"/>
<polygon fill="#63b8ff" stroke="#63b8ff" points="547.62,-308.78 558.19,-307.98 549.43,-302.02 547.62,-308.78"/>
</a>
</g>
</g>
<!-- Node5 -->
<g id="Node000005" class="node">
<title>Node5</title>
<g id="a_Node000005"><a xlink:href="../../df/d0a/main_8cpp.html" target="_top" xlink:title=" ">
<polygon fill="white" stroke="#666666" points="439.5,-19 360.5,-19 360.5,0 439.5,0 439.5,-19"/>
<text text-anchor="middle" x="400" y="-7" font-family="Helvetica,sans-Serif" font-size="10.00">src/main.cpp</text>
</a>
</g>
</g>
<!-- Node1&#45;&gt;Node5 -->
<g id="edge16_Node000001_Node000005" class="edge">
<title>Node1&#45;&gt;Node5</title>
<g id="a_edge16_Node000001_Node000005"><a xlink:title=" ">
<path fill="none" stroke="#63b8ff" d="M601.89,-299.23C615.51,-277.71 636,-239.32 636,-203 636,-203 636,-203 636,-135 636,-47.22 506.68,-21.17 439.5,-13.57"/>
<polygon fill="#63b8ff" stroke="#63b8ff" points="598.78,-297.59 596.2,-307.87 604.62,-301.44 598.78,-297.59"/>
</a>
</g>
</g>
<!-- Node8 -->
<g id="Node000008" class="node">
<title>Node8</title>
<g id="a_Node000008"><a xlink:href="../../d8/dee/SimulationEngine_8h.html" target="_top" xlink:title=" ">
<polygon fill="white" stroke="#666666" points="564,-217 450,-217 450,-187 564,-187 564,-217"/>
<text text-anchor="start" x="458" y="-205" font-family="Helvetica,sans-Serif" font-size="10.00">include/simulation</text>
<text text-anchor="middle" x="507" y="-194" font-family="Helvetica,sans-Serif" font-size="10.00">/SimulationEngine.h</text>
</a>
</g>
</g>
<!-- Node1&#45;&gt;Node8 -->
<g id="edge14_Node000001_Node000008" class="edge">
<title>Node1&#45;&gt;Node8</title>
<g id="a_edge14_Node000001_Node000008"><a xlink:title=" ">
<path fill="none" stroke="#63b8ff" d="M577.77,-299.78C561.42,-277.42 532.72,-238.17 517.37,-217.18"/>
<polygon fill="#63b8ff" stroke="#63b8ff" points="575.03,-301.96 583.76,-307.97 580.68,-297.83 575.03,-301.96"/>
</a>
</g>
</g>
<!-- Node10 -->
<g id="Node000010" class="node">
<title>Node10</title>
<g id="a_Node000010"><a xlink:href="../../d7/d5a/DeviceManager_8cpp.html" target="_top" xlink:title=" ">
<polygon fill="white" stroke="#666666" points="818,-272 664,-272 664,-253 818,-253 818,-272"/>
<text text-anchor="middle" x="741" y="-260" font-family="Helvetica,sans-Serif" font-size="10.00">src/core/DeviceManager.cpp</text>
</a>
</g>
</g>
<!-- Node1&#45;&gt;Node10 -->
<g id="edge15_Node000001_Node000010" class="edge">
<title>Node1&#45;&gt;Node10</title>
<g id="a_edge15_Node000001_Node000010"><a xlink:title=" ">
<path fill="none" stroke="#63b8ff" d="M624.05,-304.55C652.09,-294.71 691.18,-280.98 716.3,-272.17"/>
<polygon fill="#63b8ff" stroke="#63b8ff" points="622.54,-301.37 614.26,-307.98 624.86,-307.98 622.54,-301.37"/>
</a>
</g>
</g>
<!-- Node3 -->
<g id="Node000003" class="node">
<title>Node3</title>
<g id="a_Node000003"><a xlink:href="../../d2/d1b/ProtocolAwareDevice_8h.html" target="_top" xlink:title=" ">
<polygon fill="white" stroke="#666666" points="371.5,-151 236.5,-151 236.5,-121 371.5,-121 371.5,-151"/>
<text text-anchor="start" x="244.5" y="-139" font-family="Helvetica,sans-Serif" font-size="10.00">include/devices/Protocol</text>
<text text-anchor="middle" x="304" y="-128" font-family="Helvetica,sans-Serif" font-size="10.00">AwareDevice.h</text>
</a>
</g>
</g>
<!-- Node2&#45;&gt;Node3 -->
<g id="edge2_Node000002_Node000003" class="edge">
<title>Node2&#45;&gt;Node3</title>
<g id="a_edge2_Node000002_Node000003"><a xlink:title=" ">
<path fill="none" stroke="#63b8ff" d="M380.03,-244.57C362.55,-219.83 330.31,-174.23 314.01,-151.16"/>
<polygon fill="#63b8ff" stroke="#63b8ff" points="377.32,-246.8 385.95,-252.94 383.04,-242.76 377.32,-246.8"/>
</a>
</g>
</g>
<!-- Node2&#45;&gt;Node5 -->
<g id="edge12_Node000002_Node000005" class="edge">
<title>Node2&#45;&gt;Node5</title>
<g id="a_edge12_Node000002_Node000005"><a xlink:title=" ">
<path fill="none" stroke="#63b8ff" d="M392.6,-242.73C394.21,-192.23 398.59,-54.86 399.73,-19.1"/>
<polygon fill="#63b8ff" stroke="#63b8ff" points="389.1,-242.75 392.28,-252.86 396.09,-242.98 389.1,-242.75"/>
</a>
</g>
</g>
<!-- Node6 -->
<g id="Node000006" class="node">
<title>Node6</title>
<g id="a_Node000006"><a xlink:href="../../de/d44/ProtocolCharacteristics_8h.html" target="_top" xlink:title=" ">
<polygon fill="white" stroke="#666666" points="304.5,-217 167.5,-217 167.5,-187 304.5,-187 304.5,-217"/>
<text text-anchor="start" x="175.5" y="-205" font-family="Helvetica,sans-Serif" font-size="10.00">include/network/Protocol</text>
<text text-anchor="middle" x="236" y="-194" font-family="Helvetica,sans-Serif" font-size="10.00">Characteristics.h</text>
</a>
</g>
</g>
<!-- Node2&#45;&gt;Node6 -->
<g id="edge5_Node000002_Node000006" class="edge">
<title>Node2&#45;&gt;Node6</title>
<g id="a_edge5_Node000002_Node000006"><a xlink:title=" ">
<path fill="none" stroke="#63b8ff" d="M359.89,-249.46C334.8,-240.05 299.88,-226.95 273.5,-217.06"/>
<polygon fill="#63b8ff" stroke="#63b8ff" points="358.72,-252.76 369.32,-252.99 361.18,-246.21 358.72,-252.76"/>
</a>
</g>
</g>
<!-- Node7 -->
<g id="Node000007" class="node">
<title>Node7</title>
<g id="a_Node000007"><a xlink:href="../../d2/ddd/NetworkManager_8cpp.html" target="_top" xlink:title=" ">
<polygon fill="white" stroke="#666666" points="180,-145.5 0,-145.5 0,-126.5 180,-126.5 180,-145.5"/>
<text text-anchor="middle" x="90" y="-133.5" font-family="Helvetica,sans-Serif" font-size="10.00">src/network/NetworkManager.cpp</text>
</a>
</g>
</g>
<!-- Node2&#45;&gt;Node7 -->
<g id="edge13_Node000002_Node000007" class="edge">
<title>Node2&#45;&gt;Node7</title>
<g id="a_edge13_Node000002_Node000007"><a xlink:title=" ">
<path fill="none" stroke="#63b8ff" d="M286.88,-256.65C244.56,-250.96 196.71,-239.53 158,-217 127.44,-199.21 104.15,-162.44 94.66,-145.67"/>
<polygon fill="#63b8ff" stroke="#63b8ff" points="286.58,-260.14 296.94,-257.92 287.45,-253.2 286.58,-260.14"/>
</a>
</g>
</g>
<!-- Node2&#45;&gt;Node8 -->
<g id="edge9_Node000002_Node000008" class="edge">
<title>Node2&#45;&gt;Node8</title>
<g id="a_edge9_Node000002_Node000008"><a xlink:title=" ">
<path fill="none" stroke="#63b8ff" d="M417.89,-248.33C436.16,-239.04 460.59,-226.61 479.25,-217.11"/>
<polygon fill="#63b8ff" stroke="#63b8ff" points="416.29,-245.21 408.97,-252.87 419.47,-251.45 416.29,-245.21"/>
</a>
</g>
</g>
<!-- Node4 -->
<g id="Node000004" class="node">
<title>Node4</title>
<g id="a_Node000004"><a xlink:href="../../dd/da3/ProtocolSensors_8h.html" target="_top" xlink:title=" ">
<polygon fill="white" stroke="#666666" points="371.5,-85 236.5,-85 236.5,-55 371.5,-55 371.5,-85"/>
<text text-anchor="start" x="244.5" y="-73" font-family="Helvetica,sans-Serif" font-size="10.00">include/devices/Protocol</text>
<text text-anchor="middle" x="304" y="-62" font-family="Helvetica,sans-Serif" font-size="10.00">Sensors.h</text>
</a>
</g>
</g>
<!-- Node3&#45;&gt;Node4 -->
<g id="edge3_Node000003_Node000004" class="edge">
<title>Node3&#45;&gt;Node4</title>
<g id="a_edge3_Node000003_Node000004"><a xlink:title=" ">
<path fill="none" stroke="#63b8ff" d="M304,-110.54C304,-101.96 304,-92.61 304,-85.16"/>
<polygon fill="#63b8ff" stroke="#63b8ff" points="300.5,-110.8 304,-120.8 307.5,-110.8 300.5,-110.8"/>
</a>
</g>
</g>
<!-- Node4&#45;&gt;Node5 -->
<g id="edge4_Node000004_Node000005" class="edge">
<title>Node4&#45;&gt;Node5</title>
<g id="a_edge4_Node000004_Node000005"><a xlink:title=" ">
<path fill="none" stroke="#63b8ff" d="M335.78,-49.64C352.74,-39.3 372.77,-27.09 385.9,-19.09"/>
<polygon fill="#63b8ff" stroke="#63b8ff" points="333.96,-46.65 327.24,-54.84 337.6,-52.62 333.96,-46.65"/>
</a>
</g>
</g>
<!-- Node6&#45;&gt;Node3 -->
<g id="edge6_Node000006_Node000003" class="edge">
<title>Node6&#45;&gt;Node3</title>
<g id="a_edge6_Node000006_Node000003"><a xlink:title=" ">
<path fill="none" stroke="#63b8ff" d="M258.39,-179.92C268.42,-170.49 279.98,-159.61 288.95,-151.16"/>
<polygon fill="#63b8ff" stroke="#63b8ff" points="255.97,-177.39 251.09,-186.8 260.77,-182.49 255.97,-177.39"/>
</a>
</g>
</g>
<!-- Node6&#45;&gt;Node5 -->
<g id="edge7_Node000006_Node000005" class="edge">
<title>Node6&#45;&gt;Node5</title>
<g id="a_edge7_Node000006_Node000005"><a xlink:title=" ">
<path fill="none" stroke="#63b8ff" d="M225.73,-177.05C214.01,-145.57 199.74,-90.16 227,-55 243.2,-34.11 314.56,-21.3 360.42,-15.08"/>
<polygon fill="#63b8ff" stroke="#63b8ff" points="222.62,-178.72 229.54,-186.75 229.14,-176.16 222.62,-178.72"/>
</a>
</g>
</g>
<!-- Node6&#45;&gt;Node7 -->
<g id="edge8_Node000006_Node000007" class="edge">
<title>Node6&#45;&gt;Node7</title>
<g id="a_edge8_Node000006_Node000007"><a xlink:title=" ">
<path fill="none" stroke="#63b8ff" d="M194.44,-182.78C166.52,-170.54 131.02,-154.98 109.43,-145.52"/>
<polygon fill="#63b8ff" stroke="#63b8ff" points="193.4,-186.15 203.96,-186.95 196.21,-179.73 193.4,-186.15"/>
</a>
</g>
</g>
<!-- Node8&#45;&gt;Node5 -->
<g id="edge10_Node000008_Node000005" class="edge">
<title>Node8&#45;&gt;Node5</title>
<g id="a_edge10_Node000008_Node000005"><a xlink:title=" ">
<path fill="none" stroke="#63b8ff" d="M548.11,-181.62C559.94,-173.87 571.41,-163.71 578,-151 584.14,-139.16 584.48,-132.65 578,-121 546.35,-64.1 471.94,-32.75 430.03,-19.03"/>
<polygon fill="#63b8ff" stroke="#63b8ff" points="546.24,-178.66 539.51,-186.84 549.87,-184.65 546.24,-178.66"/>
</a>
</g>
</g>
<!-- Node9 -->
<g id="Node000009" class="node">
<title>Node9</title>
<g id="a_Node000009"><a xlink:href="../../d8/dff/SimulationEngine_8cpp.html" target="_top" xlink:title=" ">
<polygon fill="white" stroke="#666666" points="569.5,-151 428.5,-151 428.5,-121 569.5,-121 569.5,-151"/>
<text text-anchor="start" x="436.5" y="-139" font-family="Helvetica,sans-Serif" font-size="10.00">src/simulation/Simulation</text>
<text text-anchor="middle" x="499" y="-128" font-family="Helvetica,sans-Serif" font-size="10.00">Engine.cpp</text>
</a>
</g>
</g>
<!-- Node8&#45;&gt;Node9 -->
<g id="edge11_Node000008_Node000009" class="edge">
<title>Node8&#45;&gt;Node9</title>
<g id="a_edge11_Node000008_Node000009"><a xlink:title=" ">
<path fill="none" stroke="#63b8ff" d="M503.98,-176.83C502.9,-168.17 501.71,-158.7 500.77,-151.16"/>
<polygon fill="#63b8ff" stroke="#63b8ff" points="500.51,-177.31 505.22,-186.8 507.46,-176.44 500.51,-177.31"/>
</a>
</g>
</g>
</g>
</svg>
