<?xml version="1.0" encoding="UTF-8" standalone="no"?>
<!DOCTYPE svg PUBLIC "-//W3C//DTD SVG 1.1//EN"
 "http://www.w3.org/Graphics/SVG/1.1/DTD/svg11.dtd">
<!-- Generated by graphviz version 2.43.0 (0)
 -->
<!-- Title: include/devices/Sensor.h Pages: 1 -->
<svg width="648pt" height="148pt"
 viewBox="0.00 0.00 648.00 148.00" xmlns="http://www.w3.org/2000/svg" xmlns:xlink="http://www.w3.org/1999/xlink">
<g id="graph0" class="graph" transform="scale(1 1) rotate(0) translate(4 144)">
<title>include/devices/Sensor.h</title>
<!-- Node1 -->
<g id="Node000001" class="node">
<title>Node1</title>
<g id="a_Node000001"><a xlink:title=" ">
<polygon fill="#999999" stroke="#666666" points="418,-140 281,-140 281,-121 418,-121 418,-140"/>
<text text-anchor="middle" x="349.5" y="-128" font-family="Helvetica,sans-Serif" font-size="10.00">include/devices/Sensor.h</text>
</a>
</g>
</g>
<!-- Node2 -->
<g id="Node000002" class="node">
<title>Node2</title>
<g id="a_Node000002"><a xlink:href="../../d2/d1e/BatterySensors_8h.html" target="_top" xlink:title=" ">
<polygon fill="white" stroke="#666666" points="179,-79.5 0,-79.5 0,-60.5 179,-60.5 179,-79.5"/>
<text text-anchor="middle" x="89.5" y="-67.5" font-family="Helvetica,sans-Serif" font-size="10.00">include/devices/BatterySensors.h</text>
</a>
</g>
</g>
<!-- Node1&#45;&gt;Node2 -->
<g id="edge1_Node000001_Node000002" class="edge">
<title>Node1&#45;&gt;Node2</title>
<g id="a_edge1_Node000001_Node000002"><a xlink:title=" ">
<path fill="none" stroke="#63b8ff" d="M301.73,-118.75C251.5,-107.45 173.49,-89.9 127.35,-79.52"/>
<polygon fill="#63b8ff" stroke="#63b8ff" points="301.17,-122.21 311.69,-120.99 302.71,-115.38 301.17,-122.21"/>
</a>
</g>
</g>
<!-- Node4 -->
<g id="Node000004" class="node">
<title>Node4</title>
<g id="a_Node000004"><a xlink:href="../../d5/d3f/ConcreteSensors_8h.html" target="_top" xlink:title=" ">
<polygon fill="white" stroke="#666666" points="342,-85 203,-85 203,-55 342,-55 342,-85"/>
<text text-anchor="start" x="211" y="-73" font-family="Helvetica,sans-Serif" font-size="10.00">include/devices/Concrete</text>
<text text-anchor="middle" x="272.5" y="-62" font-family="Helvetica,sans-Serif" font-size="10.00">Sensors.h</text>
</a>
</g>
</g>
<!-- Node1&#45;&gt;Node4 -->
<g id="edge3_Node000001_Node000004" class="edge">
<title>Node1&#45;&gt;Node4</title>
<g id="a_edge3_Node000001_Node000004"><a xlink:title=" ">
<path fill="none" stroke="#63b8ff" d="M330.11,-114.77C318.15,-105.68 302.89,-94.09 291.08,-85.11"/>
<polygon fill="#63b8ff" stroke="#63b8ff" points="328.06,-117.61 338.14,-120.87 332.29,-112.03 328.06,-117.61"/>
</a>
</g>
</g>
<!-- Node7 -->
<g id="Node000007" class="node">
<title>Node7</title>
<g id="a_Node000007"><a xlink:href="../../dd/da3/ProtocolSensors_8h.html" target="_top" xlink:title=" ">
<polygon fill="white" stroke="#666666" points="495,-85 360,-85 360,-55 495,-55 495,-85"/>
<text text-anchor="start" x="368" y="-73" font-family="Helvetica,sans-Serif" font-size="10.00">include/devices/Protocol</text>
<text text-anchor="middle" x="427.5" y="-62" font-family="Helvetica,sans-Serif" font-size="10.00">Sensors.h</text>
</a>
</g>
</g>
<!-- Node1&#45;&gt;Node7 -->
<g id="edge6_Node000001_Node000007" class="edge">
<title>Node1&#45;&gt;Node7</title>
<g id="a_edge6_Node000001_Node000007"><a xlink:title=" ">
<path fill="none" stroke="#63b8ff" d="M369.14,-114.77C381.26,-105.68 396.72,-94.09 408.68,-85.11"/>
<polygon fill="#63b8ff" stroke="#63b8ff" points="366.91,-112.07 361.01,-120.87 371.11,-117.67 366.91,-112.07"/>
</a>
</g>
</g>
<!-- Node8 -->
<g id="Node000008" class="node">
<title>Node8</title>
<g id="a_Node000008"><a xlink:href="../../d7/d16/Sensor_8cpp.html" target="_top" xlink:title=" ">
<polygon fill="white" stroke="#666666" points="640,-79.5 513,-79.5 513,-60.5 640,-60.5 640,-79.5"/>
<text text-anchor="middle" x="576.5" y="-67.5" font-family="Helvetica,sans-Serif" font-size="10.00">src/devices/Sensor.cpp</text>
</a>
</g>
</g>
<!-- Node1&#45;&gt;Node8 -->
<g id="edge8_Node000001_Node000008" class="edge">
<title>Node1&#45;&gt;Node8</title>
<g id="a_edge8_Node000001_Node000008"><a xlink:title=" ">
<path fill="none" stroke="#63b8ff" d="M392.31,-118.47C436.2,-107.16 503.51,-89.81 543.45,-79.52"/>
<polygon fill="#63b8ff" stroke="#63b8ff" points="391.32,-115.11 382.51,-120.99 393.06,-121.89 391.32,-115.11"/>
</a>
</g>
</g>
<!-- Node3 -->
<g id="Node000003" class="node">
<title>Node3</title>
<g id="a_Node000003"><a xlink:href="../../d9/dd0/BatterySensors_8cpp.html" target="_top" xlink:title=" ">
<polygon fill="white" stroke="#666666" points="170,-19 1,-19 1,0 170,0 170,-19"/>
<text text-anchor="middle" x="85.5" y="-7" font-family="Helvetica,sans-Serif" font-size="10.00">src/devices/BatterySensors.cpp</text>
</a>
</g>
</g>
<!-- Node2&#45;&gt;Node3 -->
<g id="edge2_Node000002_Node000003" class="edge">
<title>Node2&#45;&gt;Node3</title>
<g id="a_edge2_Node000002_Node000003"><a xlink:title=" ">
<path fill="none" stroke="#63b8ff" d="M88.21,-50.16C87.5,-39.74 86.65,-27.3 86.09,-19.17"/>
<polygon fill="#63b8ff" stroke="#63b8ff" points="84.74,-50.63 88.91,-60.37 91.72,-50.15 84.74,-50.63"/>
</a>
</g>
</g>
<!-- Node5 -->
<g id="Node000005" class="node">
<title>Node5</title>
<g id="a_Node000005"><a xlink:href="../../d1/d16/ConcreteSensors_8cpp.html" target="_top" xlink:title=" ">
<polygon fill="white" stroke="#666666" points="363.5,-19 187.5,-19 187.5,0 363.5,0 363.5,-19"/>
<text text-anchor="middle" x="275.5" y="-7" font-family="Helvetica,sans-Serif" font-size="10.00">src/devices/ConcreteSensors.cpp</text>
</a>
</g>
</g>
<!-- Node4&#45;&gt;Node5 -->
<g id="edge4_Node000004_Node000005" class="edge">
<title>Node4&#45;&gt;Node5</title>
<g id="a_edge4_Node000004_Node000005"><a xlink:title=" ">
<path fill="none" stroke="#63b8ff" d="M273.74,-44.75C274.21,-35.72 274.7,-26.03 275.05,-19.27"/>
<polygon fill="#63b8ff" stroke="#63b8ff" points="270.24,-44.67 273.23,-54.84 277.23,-45.03 270.24,-44.67"/>
</a>
</g>
</g>
<!-- Node6 -->
<g id="Node000006" class="node">
<title>Node6</title>
<g id="a_Node000006"><a xlink:href="../../df/d0a/main_8cpp.html" target="_top" xlink:title=" ">
<polygon fill="white" stroke="#666666" points="462,-19 383,-19 383,0 462,0 462,-19"/>
<text text-anchor="middle" x="422.5" y="-7" font-family="Helvetica,sans-Serif" font-size="10.00">src/main.cpp</text>
</a>
</g>
</g>
<!-- Node4&#45;&gt;Node6 -->
<g id="edge5_Node000004_Node000006" class="edge">
<title>Node4&#45;&gt;Node6</title>
<g id="a_edge5_Node000004_Node000006"><a xlink:title=" ">
<path fill="none" stroke="#63b8ff" d="M317.8,-51.33C345.12,-40.68 378.7,-27.58 400.35,-19.14"/>
<polygon fill="#63b8ff" stroke="#63b8ff" points="316.47,-48.09 308.43,-54.99 319.02,-54.62 316.47,-48.09"/>
</a>
</g>
</g>
<!-- Node7&#45;&gt;Node6 -->
<g id="edge7_Node000007_Node000006" class="edge">
<title>Node7&#45;&gt;Node6</title>
<g id="a_edge7_Node000007_Node000006"><a xlink:title=" ">
<path fill="none" stroke="#63b8ff" d="M425.43,-44.75C424.66,-35.72 423.83,-26.03 423.25,-19.27"/>
<polygon fill="#63b8ff" stroke="#63b8ff" points="421.95,-45.17 426.29,-54.84 428.93,-44.58 421.95,-45.17"/>
</a>
</g>
</g>
</g>
</svg>
