<?xml version="1.0" encoding="UTF-8" standalone="no"?>
<!DOCTYPE svg PUBLIC "-//W3C//DTD SVG 1.1//EN"
 "http://www.w3.org/Graphics/SVG/1.1/DTD/svg11.dtd">
<!-- Generated by graphviz version 2.43.0 (0)
 -->
<!-- Title: iot::SimulationEngine::loadConfig Pages: 1 -->
<svg width="452pt" height="230pt"
 viewBox="0.00 0.00 452.00 230.00" xmlns="http://www.w3.org/2000/svg" xmlns:xlink="http://www.w3.org/1999/xlink">
<g id="graph0" class="graph" transform="scale(1 1) rotate(0) translate(4 226)">
<title>iot::SimulationEngine::loadConfig</title>
<!-- Node1 -->
<g id="Node000001" class="node">
<title>Node1</title>
<g id="a_Node000001"><a xlink:title="Load configuration from file.">
<polygon fill="#999999" stroke="#666666" points="121,-126 0,-126 0,-96 121,-96 121,-126"/>
<text text-anchor="start" x="8" y="-114" font-family="Helvetica,sans-Serif" font-size="10.00">iot::SimulationEngine</text>
<text text-anchor="middle" x="60.5" y="-103" font-family="Helvetica,sans-Serif" font-size="10.00">::loadConfig</text>
</a>
</g>
</g>
<!-- Node2 -->
<g id="Node000002" class="node">
<title>Node2</title>
<g id="a_Node000002"><a xlink:href="../../df/dd2/classiot_1_1ConfigManager.html#ac6c4204466f4328165ed2eb96a28cb70" target="_top" xlink:title="Get double value.">
<polygon fill="white" stroke="#666666" points="272,-222 163,-222 163,-192 272,-192 272,-222"/>
<text text-anchor="start" x="171" y="-210" font-family="Helvetica,sans-Serif" font-size="10.00">iot::ConfigManager</text>
<text text-anchor="middle" x="217.5" y="-199" font-family="Helvetica,sans-Serif" font-size="10.00">::getDouble</text>
</a>
</g>
</g>
<!-- Node1&#45;&gt;Node2 -->
<g id="edge1_Node000001_Node000002" class="edge">
<title>Node1&#45;&gt;Node2</title>
<g id="a_edge1_Node000001_Node000002"><a xlink:title=" ">
<path fill="none" stroke="#63b8ff" d="M78.49,-126.01C96.88,-141.7 127.54,-166.34 157,-183 159.86,-184.62 162.85,-186.18 165.91,-187.68"/>
<polygon fill="#63b8ff" stroke="#63b8ff" points="164.64,-190.95 175.19,-191.98 167.59,-184.6 164.64,-190.95"/>
</a>
</g>
</g>
<!-- Node3 -->
<g id="Node000003" class="node">
<title>Node3</title>
<g id="a_Node000003"><a xlink:href="../../df/dd2/classiot_1_1ConfigManager.html#a638c5e79fcb079f9dbb3fa6b6c914bd9" target="_top" xlink:title="Get integer value.">
<polygon fill="white" stroke="#666666" points="272,-174 163,-174 163,-144 272,-144 272,-174"/>
<text text-anchor="start" x="171" y="-162" font-family="Helvetica,sans-Serif" font-size="10.00">iot::ConfigManager</text>
<text text-anchor="middle" x="217.5" y="-151" font-family="Helvetica,sans-Serif" font-size="10.00">::getInt</text>
</a>
</g>
</g>
<!-- Node1&#45;&gt;Node3 -->
<g id="edge2_Node000001_Node000003" class="edge">
<title>Node1&#45;&gt;Node3</title>
<g id="a_edge2_Node000001_Node000003"><a xlink:title=" ">
<path fill="none" stroke="#63b8ff" d="M110.12,-126.06C125.41,-130.79 142.45,-136.07 158.34,-140.99"/>
<polygon fill="#63b8ff" stroke="#63b8ff" points="157.47,-144.38 168.05,-144 159.54,-137.7 157.47,-144.38"/>
</a>
</g>
</g>
<!-- Node4 -->
<g id="Node000004" class="node">
<title>Node4</title>
<g id="a_Node000004"><a xlink:href="../../df/dd2/classiot_1_1ConfigManager.html#a9f87e7fc8048d9aeeee39a527842afd8" target="_top" xlink:title="Get string value.">
<polygon fill="white" stroke="#666666" points="272,-126 163,-126 163,-96 272,-96 272,-126"/>
<text text-anchor="start" x="171" y="-114" font-family="Helvetica,sans-Serif" font-size="10.00">iot::ConfigManager</text>
<text text-anchor="middle" x="217.5" y="-103" font-family="Helvetica,sans-Serif" font-size="10.00">::getString</text>
</a>
</g>
</g>
<!-- Node1&#45;&gt;Node4 -->
<g id="edge3_Node000001_Node000004" class="edge">
<title>Node1&#45;&gt;Node4</title>
<g id="a_edge3_Node000001_Node000004"><a xlink:title=" ">
<path fill="none" stroke="#63b8ff" d="M121.43,-111C131.65,-111 142.3,-111 152.62,-111"/>
<polygon fill="#63b8ff" stroke="#63b8ff" points="152.81,-114.5 162.81,-111 152.8,-107.5 152.81,-114.5"/>
</a>
</g>
</g>
<!-- Node5 -->
<g id="Node000005" class="node">
<title>Node5</title>
<g id="a_Node000005"><a xlink:href="../../df/dd2/classiot_1_1ConfigManager.html#ab92361fbcf3a16ab27f33edec4ecd075" target="_top" xlink:title="Load configuration from string (simplified)">
<polygon fill="white" stroke="#666666" points="272,-78 163,-78 163,-48 272,-48 272,-78"/>
<text text-anchor="start" x="171" y="-66" font-family="Helvetica,sans-Serif" font-size="10.00">iot::ConfigManager</text>
<text text-anchor="middle" x="217.5" y="-55" font-family="Helvetica,sans-Serif" font-size="10.00">::loadFromString</text>
</a>
</g>
</g>
<!-- Node1&#45;&gt;Node5 -->
<g id="edge4_Node000001_Node000005" class="edge">
<title>Node1&#45;&gt;Node5</title>
<g id="a_edge4_Node000001_Node000005"><a xlink:title=" ">
<path fill="none" stroke="#63b8ff" d="M110.12,-95.94C125.41,-91.21 142.45,-85.93 158.34,-81.01"/>
<polygon fill="#63b8ff" stroke="#63b8ff" points="159.54,-84.3 168.05,-78 157.47,-77.62 159.54,-84.3"/>
</a>
</g>
</g>
<!-- Node7 -->
<g id="Node000007" class="node">
<title>Node7</title>
<g id="a_Node000007"><a xlink:href="../../d5/d9e/classiot_1_1SimulationEngine.html#a3efa607627d62e824d43d6c2fd7443fa" target="_top" xlink:title="Set simulation speed.">
<polygon fill="white" stroke="#666666" points="278,-30 157,-30 157,0 278,0 278,-30"/>
<text text-anchor="start" x="165" y="-18" font-family="Helvetica,sans-Serif" font-size="10.00">iot::SimulationEngine</text>
<text text-anchor="middle" x="217.5" y="-7" font-family="Helvetica,sans-Serif" font-size="10.00">::setSimulationSpeed</text>
</a>
</g>
</g>
<!-- Node1&#45;&gt;Node7 -->
<g id="edge6_Node000001_Node000007" class="edge">
<title>Node1&#45;&gt;Node7</title>
<g id="a_edge6_Node000001_Node000007"><a xlink:title=" ">
<path fill="none" stroke="#63b8ff" d="M78.49,-95.99C96.88,-80.3 127.54,-55.66 157,-39 159.86,-37.38 162.85,-35.82 165.91,-34.32"/>
<polygon fill="#63b8ff" stroke="#63b8ff" points="167.59,-37.4 175.19,-30.02 164.64,-31.05 167.59,-37.4"/>
</a>
</g>
</g>
<!-- Node6 -->
<g id="Node000006" class="node">
<title>Node6</title>
<g id="a_Node000006"><a xlink:href="../../df/dd2/classiot_1_1ConfigManager.html#a99f1699b3661486abe90c972a9b850c2" target="_top" xlink:title="Set value.">
<polygon fill="white" stroke="#666666" points="444,-72.5 314,-72.5 314,-53.5 444,-53.5 444,-72.5"/>
<text text-anchor="middle" x="379" y="-60.5" font-family="Helvetica,sans-Serif" font-size="10.00">iot::ConfigManager::set</text>
</a>
</g>
</g>
<!-- Node5&#45;&gt;Node6 -->
<g id="edge5_Node000005_Node000006" class="edge">
<title>Node5&#45;&gt;Node6</title>
<g id="a_edge5_Node000005_Node000006"><a xlink:title=" ">
<path fill="none" stroke="#63b8ff" d="M272.05,-63C282.21,-63 292.99,-63 303.65,-63"/>
<polygon fill="#63b8ff" stroke="#63b8ff" points="303.8,-66.5 313.8,-63 303.8,-59.5 303.8,-66.5"/>
</a>
</g>
</g>
</g>
</svg>
