<?xml version="1.0" encoding="UTF-8" standalone="no"?>
<!DOCTYPE svg PUBLIC "-//W3C//DTD SVG 1.1//EN"
 "http://www.w3.org/Graphics/SVG/1.1/DTD/svg11.dtd">
<!-- Generated by graphviz version 2.43.0 (0)
 -->
<!-- Title: iot::SimulationEngine::scheduleRepeatingEvent Pages: 1 -->
<svg width="308pt" height="56pt"
 viewBox="0.00 0.00 308.00 56.00" xmlns="http://www.w3.org/2000/svg" xmlns:xlink="http://www.w3.org/1999/xlink">
<g id="graph0" class="graph" transform="scale(1 1) rotate(0) translate(4 52)">
<title>iot::SimulationEngine::scheduleRepeatingEvent</title>
<!-- Node1 -->
<g id="Node000001" class="node">
<title>Node1</title>
<g id="a_Node000001"><a xlink:title="Schedule a repeating event.">
<polygon fill="#999999" stroke="#666666" points="143,-30 0,-30 0,0 143,0 143,-30"/>
<text text-anchor="start" x="8" y="-18" font-family="Helvetica,sans-Serif" font-size="10.00">iot::SimulationEngine</text>
<text text-anchor="middle" x="71.5" y="-7" font-family="Helvetica,sans-Serif" font-size="10.00">::scheduleRepeatingEvent</text>
</a>
</g>
</g>
<!-- Node1&#45;&gt;Node1 -->
<g id="edge2_Node000001_Node000001" class="edge">
<title>Node1&#45;&gt;Node1</title>
<g id="a_edge2_Node000001_Node000001"><a xlink:title=" ">
<path fill="none" stroke="#63b8ff" d="M41.97,-30.28C35.41,-39.41 45.25,-48 71.5,-48 87.09,-48 96.89,-44.97 100.91,-40.6"/>
<polygon fill="#63b8ff" stroke="#63b8ff" points="104.41,-40.32 101.03,-30.28 97.41,-40.23 104.41,-40.32"/>
</a>
</g>
</g>
<!-- Node2 -->
<g id="Node000002" class="node">
<title>Node2</title>
<g id="a_Node000002"><a xlink:href="../../d5/d9e/classiot_1_1SimulationEngine.html#a8c74a7bc1128eb406354e79c15b59869" target="_top" xlink:title="Schedule an event.">
<polygon fill="white" stroke="#666666" points="300,-30 179,-30 179,0 300,0 300,-30"/>
<text text-anchor="start" x="187" y="-18" font-family="Helvetica,sans-Serif" font-size="10.00">iot::SimulationEngine</text>
<text text-anchor="middle" x="239.5" y="-7" font-family="Helvetica,sans-Serif" font-size="10.00">::scheduleEvent</text>
</a>
</g>
</g>
<!-- Node1&#45;&gt;Node2 -->
<g id="edge1_Node000001_Node000002" class="edge">
<title>Node1&#45;&gt;Node2</title>
<g id="a_edge1_Node000001_Node000002"><a xlink:title=" ">
<path fill="none" stroke="#63b8ff" d="M143.38,-15C151.78,-15 160.34,-15 168.72,-15"/>
<polygon fill="#63b8ff" stroke="#63b8ff" points="168.82,-18.5 178.82,-15 168.82,-11.5 168.82,-18.5"/>
</a>
</g>
</g>
</g>
</svg>
