<?xml version="1.0" encoding="UTF-8" standalone="no"?>
<!DOCTYPE svg PUBLIC "-//W3C//DTD SVG 1.1//EN"
 "http://www.w3.org/Graphics/SVG/1.1/DTD/svg11.dtd">
<!-- Generated by graphviz version 2.43.0 (0)
 -->
<!-- Title: iot::IoTDevice::getDeviceId Pages: 1 -->
<svg width="533pt" height="365pt"
 viewBox="0.00 0.00 533.00 365.00" xmlns="http://www.w3.org/2000/svg" xmlns:xlink="http://www.w3.org/1999/xlink">
<g id="graph0" class="graph" transform="scale(1 1) rotate(0) translate(4 361)">
<title>iot::IoTDevice::getDeviceId</title>
<!-- Node1 -->
<g id="Node000001" class="node">
<title>Node1</title>
<g id="a_Node000001"><a xlink:title=" ">
<polygon fill="#999999" stroke="#666666" points="525,-181.5 376,-181.5 376,-162.5 525,-162.5 525,-181.5"/>
<text text-anchor="middle" x="450.5" y="-169.5" font-family="Helvetica,sans-Serif" font-size="10.00">iot::IoTDevice::getDeviceId</text>
</a>
</g>
</g>
<!-- Node2 -->
<g id="Node000002" class="node">
<title>Node2</title>
<g id="a_Node000002"><a xlink:href="../../d3/d05/classiot_1_1BatteryMotionSensor.html#a6409561834d5d5e041e45409b5cabccd" target="_top" xlink:title=" ">
<polygon fill="white" stroke="#666666" points="340,-349 202,-349 202,-319 340,-319 340,-349"/>
<text text-anchor="start" x="210" y="-337" font-family="Helvetica,sans-Serif" font-size="10.00">iot::BatteryMotionSensor</text>
<text text-anchor="middle" x="271" y="-326" font-family="Helvetica,sans-Serif" font-size="10.00">::readValue</text>
</a>
</g>
</g>
<!-- Node1&#45;&gt;Node2 -->
<g id="edge1_Node000001_Node000002" class="edge">
<title>Node1&#45;&gt;Node2</title>
<g id="a_edge1_Node000001_Node000002"><a xlink:title=" ">
<path fill="none" stroke="#63b8ff" d="M439.55,-190.34C422.76,-219.66 386.08,-277.13 340,-310 335.21,-313.42 329.89,-316.39 324.39,-318.96"/>
<polygon fill="#63b8ff" stroke="#63b8ff" points="442.64,-191.99 444.47,-181.55 436.53,-188.57 442.64,-191.99"/>
</a>
</g>
</g>
<!-- Node3 -->
<g id="Node000003" class="node">
<title>Node3</title>
<g id="a_Node000003"><a xlink:href="../../d6/da8/classiot_1_1Sensor.html#a661faef89fe1817bcceccdc5e16b7c8a" target="_top" xlink:title=" ">
<polygon fill="white" stroke="#666666" points="338,-300.5 204,-300.5 204,-281.5 338,-281.5 338,-300.5"/>
<text text-anchor="middle" x="271" y="-288.5" font-family="Helvetica,sans-Serif" font-size="10.00">iot::Sensor::receiveData</text>
</a>
</g>
</g>
<!-- Node1&#45;&gt;Node3 -->
<g id="edge2_Node000001_Node000003" class="edge">
<title>Node1&#45;&gt;Node3</title>
<g id="a_edge2_Node000001_Node000003"><a xlink:title=" ">
<path fill="none" stroke="#63b8ff" d="M432.33,-188.77C411.72,-208.26 375.47,-240.47 340,-262 327.27,-269.72 312.12,-276.4 299.35,-281.4"/>
<polygon fill="#63b8ff" stroke="#63b8ff" points="434.87,-191.19 439.68,-181.74 430.03,-186.13 434.87,-191.19"/>
</a>
</g>
</g>
<!-- Node6 -->
<g id="Node000006" class="node">
<title>Node6</title>
<g id="a_Node000006"><a xlink:href="../../d6/da8/classiot_1_1Sensor.html#a4fe640988365e72916e10897b82980d1" target="_top" xlink:title=" ">
<polygon fill="white" stroke="#666666" points="331.5,-143.5 210.5,-143.5 210.5,-124.5 331.5,-124.5 331.5,-143.5"/>
<text text-anchor="middle" x="271" y="-131.5" font-family="Helvetica,sans-Serif" font-size="10.00">iot::Sensor::sendData</text>
</a>
</g>
</g>
<!-- Node1&#45;&gt;Node6 -->
<g id="edge5_Node000001_Node000006" class="edge">
<title>Node1&#45;&gt;Node6</title>
<g id="a_edge5_Node000001_Node000006"><a xlink:title=" ">
<path fill="none" stroke="#63b8ff" d="M394.6,-160.25C369.5,-154.87 340.16,-148.59 316.47,-143.52"/>
<polygon fill="#63b8ff" stroke="#63b8ff" points="394.2,-163.74 404.71,-162.41 395.66,-156.9 394.2,-163.74"/>
</a>
</g>
</g>
<!-- Node7 -->
<g id="Node000007" class="node">
<title>Node7</title>
<g id="a_Node000007"><a xlink:href="../../df/d56/classiot_1_1BatteryTemperatureSensor.html#aed7c85ec4eee3431942cdcb5a118a64d" target="_top" xlink:title=" ">
<polygon fill="white" stroke="#666666" points="166,-261 0,-261 0,-231 166,-231 166,-261"/>
<text text-anchor="start" x="8" y="-249" font-family="Helvetica,sans-Serif" font-size="10.00">iot::BatteryTemperatureSensor</text>
<text text-anchor="middle" x="83" y="-238" font-family="Helvetica,sans-Serif" font-size="10.00">::sendData</text>
</a>
</g>
</g>
<!-- Node1&#45;&gt;Node7 -->
<g id="edge11_Node000001_Node000007" class="edge">
<title>Node1&#45;&gt;Node7</title>
<g id="a_edge11_Node000001_Node000007"><a xlink:title=" ">
<path fill="none" stroke="#63b8ff" d="M403.29,-184.05C383.81,-188.96 360.87,-194.52 340,-199 282.13,-211.44 216.45,-223.45 166.11,-232.22"/>
<polygon fill="#63b8ff" stroke="#63b8ff" points="404.3,-187.4 413.13,-181.55 402.57,-180.62 404.3,-187.4"/>
</a>
</g>
</g>
<!-- Node8 -->
<g id="Node000008" class="node">
<title>Node8</title>
<g id="a_Node000008"><a xlink:href="../../d3/d05/classiot_1_1BatteryMotionSensor.html#a4fe971e8104caceb889d4f3029533700" target="_top" xlink:title=" ">
<polygon fill="white" stroke="#666666" points="152,-213 14,-213 14,-183 152,-183 152,-213"/>
<text text-anchor="start" x="22" y="-201" font-family="Helvetica,sans-Serif" font-size="10.00">iot::BatteryMotionSensor</text>
<text text-anchor="middle" x="83" y="-190" font-family="Helvetica,sans-Serif" font-size="10.00">::sendData</text>
</a>
</g>
</g>
<!-- Node1&#45;&gt;Node8 -->
<g id="edge12_Node000001_Node000008" class="edge">
<title>Node1&#45;&gt;Node8</title>
<g id="a_edge12_Node000001_Node000008"><a xlink:title=" ">
<path fill="none" stroke="#63b8ff" d="M365.8,-177.95C301.08,-182.56 212.6,-188.85 152.16,-193.15"/>
<polygon fill="#63b8ff" stroke="#63b8ff" points="366.25,-181.43 375.98,-177.23 365.75,-174.45 366.25,-181.43"/>
</a>
</g>
</g>
<!-- Node9 -->
<g id="Node000009" class="node">
<title>Node9</title>
<g id="a_Node000009"><a xlink:href="../../d2/dc6/classiot_1_1LoRaTemperatureSensor.html#a0ae321277a58b9cbcf3ab9df89899d84" target="_top" xlink:title=" ">
<polygon fill="white" stroke="#666666" points="160,-165 6,-165 6,-135 160,-135 160,-165"/>
<text text-anchor="start" x="14" y="-153" font-family="Helvetica,sans-Serif" font-size="10.00">iot::LoRaTemperatureSensor</text>
<text text-anchor="middle" x="83" y="-142" font-family="Helvetica,sans-Serif" font-size="10.00">::sendData</text>
</a>
</g>
</g>
<!-- Node1&#45;&gt;Node9 -->
<g id="edge13_Node000001_Node000009" class="edge">
<title>Node1&#45;&gt;Node9</title>
<g id="a_edge13_Node000001_Node000009"><a xlink:title=" ">
<path fill="none" stroke="#63b8ff" d="M365.85,-166.96C303.95,-163.24 220.3,-158.2 160.24,-154.59"/>
<polygon fill="#63b8ff" stroke="#63b8ff" points="365.78,-170.47 375.98,-167.57 366.2,-163.48 365.78,-170.47"/>
</a>
</g>
</g>
<!-- Node10 -->
<g id="Node000010" class="node">
<title>Node10</title>
<g id="a_Node000010"><a xlink:href="../../d8/d0a/classiot_1_1ZigBeeMotionSensor.html#a0c6be14ffbf689dc34c997dfb1cc16de" target="_top" xlink:title=" ">
<polygon fill="white" stroke="#666666" points="151.5,-117 14.5,-117 14.5,-87 151.5,-87 151.5,-117"/>
<text text-anchor="start" x="22.5" y="-105" font-family="Helvetica,sans-Serif" font-size="10.00">iot::ZigBeeMotionSensor</text>
<text text-anchor="middle" x="83" y="-94" font-family="Helvetica,sans-Serif" font-size="10.00">::sendData</text>
</a>
</g>
</g>
<!-- Node1&#45;&gt;Node10 -->
<g id="edge14_Node000001_Node000010" class="edge">
<title>Node1&#45;&gt;Node10</title>
<g id="a_edge14_Node000001_Node000010"><a xlink:title=" ">
<path fill="none" stroke="#63b8ff" d="M426.76,-156.77C405.38,-143.35 371.96,-124.63 340,-116 277.69,-99.18 203.84,-96.92 151.51,-98.13"/>
<polygon fill="#63b8ff" stroke="#63b8ff" points="425.11,-159.87 435.42,-162.33 428.89,-153.98 425.11,-159.87"/>
</a>
</g>
</g>
<!-- Node11 -->
<g id="Node000011" class="node">
<title>Node11</title>
<g id="a_Node000011"><a xlink:href="../../dd/d9a/classiot_1_1BLEHealthSensor.html#a4bcb8c9cc40c158110830c62eebb27ea" target="_top" xlink:title=" ">
<polygon fill="white" stroke="#666666" points="142.5,-69 23.5,-69 23.5,-39 142.5,-39 142.5,-69"/>
<text text-anchor="start" x="31.5" y="-57" font-family="Helvetica,sans-Serif" font-size="10.00">iot::BLEHealthSensor</text>
<text text-anchor="middle" x="83" y="-46" font-family="Helvetica,sans-Serif" font-size="10.00">::sendData</text>
</a>
</g>
</g>
<!-- Node1&#45;&gt;Node11 -->
<g id="edge15_Node000001_Node000011" class="edge">
<title>Node1&#45;&gt;Node11</title>
<g id="a_edge15_Node000001_Node000011"><a xlink:title=" ">
<path fill="none" stroke="#63b8ff" d="M432.08,-155.6C411.69,-137.42 376.09,-108.71 340,-94 275.74,-67.81 195.98,-58.66 142.72,-55.52"/>
<polygon fill="#63b8ff" stroke="#63b8ff" points="429.86,-158.31 439.61,-162.46 434.57,-153.14 429.86,-158.31"/>
</a>
</g>
</g>
<!-- Node12 -->
<g id="Node000012" class="node">
<title>Node12</title>
<g id="a_Node000012"><a xlink:href="../../d3/d05/classiot_1_1BatteryMotionSensor.html#a019f9fb4fce909e35cde738631d1bd42" target="_top" xlink:title=" ">
<polygon fill="white" stroke="#666666" points="340,-30 202,-30 202,0 340,0 340,-30"/>
<text text-anchor="start" x="210" y="-18" font-family="Helvetica,sans-Serif" font-size="10.00">iot::BatteryMotionSensor</text>
<text text-anchor="middle" x="271" y="-7" font-family="Helvetica,sans-Serif" font-size="10.00">::setSleepPattern</text>
</a>
</g>
</g>
<!-- Node1&#45;&gt;Node12 -->
<g id="edge16_Node000001_Node000012" class="edge">
<title>Node1&#45;&gt;Node12</title>
<g id="a_edge16_Node000001_Node000012"><a xlink:title=" ">
<path fill="none" stroke="#63b8ff" d="M437.98,-153.81C419.98,-126.67 382.81,-75.42 340,-44 332.65,-38.61 324.15,-33.98 315.7,-30.1"/>
<polygon fill="#63b8ff" stroke="#63b8ff" points="435.13,-155.85 443.52,-162.33 441,-152.04 435.13,-155.85"/>
</a>
</g>
</g>
<!-- Node4 -->
<g id="Node000004" class="node">
<title>Node4</title>
<g id="a_Node000004"><a xlink:href="../../df/d56/classiot_1_1BatteryTemperatureSensor.html#af3d106ea1ee1822d7714f757f542a9b8" target="_top" xlink:title=" ">
<polygon fill="white" stroke="#666666" points="166,-309 0,-309 0,-279 166,-279 166,-309"/>
<text text-anchor="start" x="8" y="-297" font-family="Helvetica,sans-Serif" font-size="10.00">iot::BatteryTemperatureSensor</text>
<text text-anchor="middle" x="83" y="-286" font-family="Helvetica,sans-Serif" font-size="10.00">::receiveData</text>
</a>
</g>
</g>
<!-- Node3&#45;&gt;Node4 -->
<g id="edge3_Node000003_Node000004" class="edge">
<title>Node3&#45;&gt;Node4</title>
<g id="a_edge3_Node000003_Node000004"><a xlink:title=" ">
<path fill="none" stroke="#63b8ff" d="M193.75,-292.23C184.65,-292.38 175.34,-292.53 166.16,-292.67"/>
<polygon fill="#63b8ff" stroke="#63b8ff" points="193.96,-295.73 203.9,-292.07 193.84,-288.73 193.96,-295.73"/>
</a>
</g>
</g>
<!-- Node5 -->
<g id="Node000005" class="node">
<title>Node5</title>
<g id="a_Node000005"><a xlink:href="../../d3/d05/classiot_1_1BatteryMotionSensor.html#ad0cc1fc090139120f1898068bb211497" target="_top" xlink:title=" ">
<polygon fill="white" stroke="#666666" points="152,-357 14,-357 14,-327 152,-327 152,-357"/>
<text text-anchor="start" x="22" y="-345" font-family="Helvetica,sans-Serif" font-size="10.00">iot::BatteryMotionSensor</text>
<text text-anchor="middle" x="83" y="-334" font-family="Helvetica,sans-Serif" font-size="10.00">::receiveData</text>
</a>
</g>
</g>
<!-- Node3&#45;&gt;Node5 -->
<g id="edge4_Node000003_Node000005" class="edge">
<title>Node3&#45;&gt;Node5</title>
<g id="a_edge4_Node000003_Node000005"><a xlink:title=" ">
<path fill="none" stroke="#63b8ff" d="M225.09,-303.32C199.17,-310.42 166.38,-319.41 138.94,-326.94"/>
<polygon fill="#63b8ff" stroke="#63b8ff" points="226.3,-306.61 235.01,-300.59 224.45,-299.86 226.3,-306.61"/>
</a>
</g>
</g>
<!-- Node6&#45;&gt;Node7 -->
<g id="edge6_Node000006_Node000007" class="edge">
<title>Node6&#45;&gt;Node7</title>
<g id="a_edge6_Node000006_Node000007"><a xlink:title=" ">
<path fill="none" stroke="#63b8ff" d="M254.24,-151.11C235.15,-170.87 201.15,-203.09 166,-222 159.73,-225.37 152.93,-228.32 146.01,-230.89"/>
<polygon fill="#63b8ff" stroke="#63b8ff" points="256.91,-153.38 261.25,-143.72 251.83,-148.57 256.91,-153.38"/>
</a>
</g>
</g>
<!-- Node6&#45;&gt;Node8 -->
<g id="edge7_Node000006_Node000008" class="edge">
<title>Node6&#45;&gt;Node8</title>
<g id="a_edge7_Node000006_Node000008"><a xlink:title=" ">
<path fill="none" stroke="#63b8ff" d="M237.22,-147.4C216.88,-155.53 190.1,-165.86 166,-174 157.01,-177.04 147.38,-180.06 138.01,-182.88"/>
<polygon fill="#63b8ff" stroke="#63b8ff" points="238.68,-150.59 246.66,-143.61 236.07,-144.09 238.68,-150.59"/>
</a>
</g>
</g>
<!-- Node6&#45;&gt;Node9 -->
<g id="edge8_Node000006_Node000009" class="edge">
<title>Node6&#45;&gt;Node9</title>
<g id="a_edge8_Node000006_Node000009"><a xlink:title=" ">
<path fill="none" stroke="#63b8ff" d="M200.11,-140.01C187.11,-141.13 173.47,-142.3 160.29,-143.44"/>
<polygon fill="#63b8ff" stroke="#63b8ff" points="200.72,-143.47 210.38,-139.13 200.12,-136.5 200.72,-143.47"/>
</a>
</g>
</g>
<!-- Node6&#45;&gt;Node10 -->
<g id="edge9_Node000006_Node000010" class="edge">
<title>Node6&#45;&gt;Node10</title>
<g id="a_edge9_Node000006_Node000010"><a xlink:title=" ">
<path fill="none" stroke="#63b8ff" d="M204.75,-122.77C187.53,-119.81 168.93,-116.61 151.6,-113.63"/>
<polygon fill="#63b8ff" stroke="#63b8ff" points="204.25,-126.24 214.7,-124.49 205.44,-119.34 204.25,-126.24"/>
</a>
</g>
</g>
<!-- Node6&#45;&gt;Node11 -->
<g id="edge10_Node000006_Node000011" class="edge">
<title>Node6&#45;&gt;Node11</title>
<g id="a_edge10_Node000006_Node000011"><a xlink:title=" ">
<path fill="none" stroke="#63b8ff" d="M245.92,-119.16C225.28,-106.9 194.46,-89.68 166,-78 158.04,-74.73 149.48,-71.72 141,-69"/>
<polygon fill="#63b8ff" stroke="#63b8ff" points="244.27,-122.25 254.64,-124.4 247.88,-116.25 244.27,-122.25"/>
</a>
</g>
</g>
</g>
</svg>
