<?xml version="1.0" encoding="UTF-8" standalone="no"?>
<!DOCTYPE svg PUBLIC "-//W3C//DTD SVG 1.1//EN"
 "http://www.w3.org/Graphics/SVG/1.1/DTD/svg11.dtd">
<!-- Generated by graphviz version 2.43.0 (0)
 -->
<!-- Title: iot::BLEHealthSensor::sendData Pages: 1 -->
<svg width="488pt" height="162pt"
 viewBox="0.00 0.00 488.00 161.50" xmlns="http://www.w3.org/2000/svg" xmlns:xlink="http://www.w3.org/1999/xlink">
<g id="graph0" class="graph" transform="scale(1 1) rotate(0) translate(4 157.5)">
<title>iot::BLEHealthSensor::sendData</title>
<!-- Node1 -->
<g id="Node000001" class="node">
<title>Node1</title>
<g id="a_Node000001"><a xlink:title=" ">
<polygon fill="#999999" stroke="#666666" points="119,-83.5 0,-83.5 0,-53.5 119,-53.5 119,-83.5"/>
<text text-anchor="start" x="8" y="-71.5" font-family="Helvetica,sans-Serif" font-size="10.00">iot::BLEHealthSensor</text>
<text text-anchor="middle" x="59.5" y="-60.5" font-family="Helvetica,sans-Serif" font-size="10.00">::sendData</text>
</a>
</g>
</g>
<!-- Node2 -->
<g id="Node000002" class="node">
<title>Node2</title>
<g id="a_Node000002"><a xlink:href="../../d8/d4f/classiot_1_1ProtocolAwareDevice.html#a3d463fd3d2ef0579b7a9eebbabf3eedf" target="_top" xlink:title=" ">
<polygon fill="white" stroke="#666666" points="295,-153.5 155,-153.5 155,-123.5 295,-123.5 295,-153.5"/>
<text text-anchor="start" x="163" y="-141.5" font-family="Helvetica,sans-Serif" font-size="10.00">iot::ProtocolAwareDevice</text>
<text text-anchor="middle" x="225" y="-130.5" font-family="Helvetica,sans-Serif" font-size="10.00">::consumeBattery</text>
</a>
</g>
</g>
<!-- Node1&#45;&gt;Node2 -->
<g id="edge1_Node000001_Node000002" class="edge">
<title>Node1&#45;&gt;Node2</title>
<g id="a_edge1_Node000001_Node000002"><a xlink:title=" ">
<path fill="none" stroke="#63b8ff" d="M89.46,-83.7C107.96,-93.13 132.59,-105.19 155,-114.5 159.38,-116.32 163.95,-118.12 168.57,-119.87"/>
<polygon fill="#63b8ff" stroke="#63b8ff" points="167.47,-123.19 178.06,-123.37 169.89,-116.63 167.47,-123.19"/>
</a>
</g>
</g>
<!-- Node4 -->
<g id="Node000004" class="node">
<title>Node4</title>
<g id="a_Node000004"><a xlink:href="../../d8/d4f/classiot_1_1ProtocolAwareDevice.html#aeff96efe6c1829be21d5daa2df3e7c3b" target="_top" xlink:title=" ">
<polygon fill="white" stroke="#666666" points="295,-105.5 155,-105.5 155,-75.5 295,-75.5 295,-105.5"/>
<text text-anchor="start" x="163" y="-93.5" font-family="Helvetica,sans-Serif" font-size="10.00">iot::ProtocolAwareDevice</text>
<text text-anchor="middle" x="225" y="-82.5" font-family="Helvetica,sans-Serif" font-size="10.00">::getBatteryLevel</text>
</a>
</g>
</g>
<!-- Node1&#45;&gt;Node4 -->
<g id="edge3_Node000001_Node000004" class="edge">
<title>Node1&#45;&gt;Node4</title>
<g id="a_edge3_Node000001_Node000004"><a xlink:title=" ">
<path fill="none" stroke="#63b8ff" d="M119.07,-76.38C127.43,-77.51 136.15,-78.68 144.82,-79.85"/>
<polygon fill="#63b8ff" stroke="#63b8ff" points="144.59,-83.35 154.97,-81.21 145.53,-76.41 144.59,-83.35"/>
</a>
</g>
</g>
<!-- Node5 -->
<g id="Node000005" class="node">
<title>Node5</title>
<g id="a_Node000005"><a xlink:href="../../df/dfa/classiot_1_1IoTDevice.html#a5d5f0db665e7811d71d5ee86f570e9fe" target="_top" xlink:title=" ">
<polygon fill="white" stroke="#666666" points="480,-57 331,-57 331,-38 480,-38 480,-57"/>
<text text-anchor="middle" x="405.5" y="-45" font-family="Helvetica,sans-Serif" font-size="10.00">iot::IoTDevice::getDeviceId</text>
</a>
</g>
</g>
<!-- Node1&#45;&gt;Node5 -->
<g id="edge4_Node000001_Node000005" class="edge">
<title>Node1&#45;&gt;Node5</title>
<g id="a_edge4_Node000001_Node000005"><a xlink:title=" ">
<path fill="none" stroke="#63b8ff" d="M119.24,-64.91C174.6,-61.53 258.12,-56.44 320.5,-52.63"/>
<polygon fill="#63b8ff" stroke="#63b8ff" points="320.94,-56.11 330.71,-52 320.52,-49.12 320.94,-56.11"/>
</a>
</g>
</g>
<!-- Node6 -->
<g id="Node000006" class="node">
<title>Node6</title>
<g id="a_Node000006"><a xlink:href="../../d6/da8/classiot_1_1Sensor.html#a4fe640988365e72916e10897b82980d1" target="_top" xlink:title=" ">
<polygon fill="white" stroke="#666666" points="285.5,-19 164.5,-19 164.5,0 285.5,0 285.5,-19"/>
<text text-anchor="middle" x="225" y="-7" font-family="Helvetica,sans-Serif" font-size="10.00">iot::Sensor::sendData</text>
</a>
</g>
</g>
<!-- Node1&#45;&gt;Node6 -->
<g id="edge5_Node000001_Node000006" class="edge">
<title>Node1&#45;&gt;Node6</title>
<g id="a_edge5_Node000001_Node000006"><a xlink:title=" ">
<path fill="none" stroke="#63b8ff" d="M100.9,-53.33C117.62,-47.11 137.22,-39.89 155,-33.5 165.22,-29.83 176.33,-25.93 186.58,-22.36"/>
<polygon fill="#63b8ff" stroke="#63b8ff" points="187.79,-25.65 196.09,-19.07 185.5,-19.03 187.79,-25.65"/>
</a>
</g>
</g>
<!-- Node3 -->
<g id="Node000003" class="node">
<title>Node3</title>
<g id="a_Node000003"><a xlink:href="../../d8/d4f/classiot_1_1ProtocolAwareDevice.html#a5ac3a5560d819bad01f1c369d2edc4b6" target="_top" xlink:title=" ">
<polygon fill="white" stroke="#666666" points="475.5,-153.5 335.5,-153.5 335.5,-123.5 475.5,-123.5 475.5,-153.5"/>
<text text-anchor="start" x="343.5" y="-141.5" font-family="Helvetica,sans-Serif" font-size="10.00">iot::ProtocolAwareDevice</text>
<text text-anchor="middle" x="405.5" y="-130.5" font-family="Helvetica,sans-Serif" font-size="10.00">::enterLowPowerMode</text>
</a>
</g>
</g>
<!-- Node2&#45;&gt;Node3 -->
<g id="edge2_Node000002_Node000003" class="edge">
<title>Node2&#45;&gt;Node3</title>
<g id="a_edge2_Node000002_Node000003"><a xlink:title=" ">
<path fill="none" stroke="#63b8ff" d="M295.01,-138.5C304.95,-138.5 315.23,-138.5 325.34,-138.5"/>
<polygon fill="#63b8ff" stroke="#63b8ff" points="325.38,-142 335.38,-138.5 325.38,-135 325.38,-142"/>
</a>
</g>
</g>
<!-- Node6&#45;&gt;Node5 -->
<g id="edge6_Node000006_Node000005" class="edge">
<title>Node6&#45;&gt;Node5</title>
<g id="a_edge6_Node000006_Node000005"><a xlink:title=" ">
<path fill="none" stroke="#63b8ff" d="M271.04,-19.09C295.02,-24.19 324.7,-30.51 349.97,-35.89"/>
<polygon fill="#63b8ff" stroke="#63b8ff" points="349.27,-39.32 359.78,-37.98 350.73,-32.47 349.27,-39.32"/>
</a>
</g>
</g>
<!-- Node7 -->
<g id="Node000007" class="node">
<title>Node7</title>
<g id="a_Node000007"><a xlink:href="../../d6/da8/classiot_1_1Sensor.html#a51c394181353e6cc6d6be1f397b41aca" target="_top" xlink:title=" ">
<polygon fill="white" stroke="#666666" points="467,-19 344,-19 344,0 467,0 467,-19"/>
<text text-anchor="middle" x="405.5" y="-7" font-family="Helvetica,sans-Serif" font-size="10.00">iot::Sensor::readValue</text>
</a>
</g>
</g>
<!-- Node6&#45;&gt;Node7 -->
<g id="edge7_Node000006_Node000007" class="edge">
<title>Node6&#45;&gt;Node7</title>
<g id="a_edge7_Node000006_Node000007"><a xlink:title=" ">
<path fill="none" stroke="#63b8ff" d="M285.93,-9.5C301.22,-9.5 317.8,-9.5 333.58,-9.5"/>
<polygon fill="#63b8ff" stroke="#63b8ff" points="333.81,-13 343.81,-9.5 333.81,-6 333.81,-13"/>
</a>
</g>
</g>
</g>
</svg>
