<?xml version="1.0" encoding="UTF-8" standalone="no"?>
<!DOCTYPE svg PUBLIC "-//W3C//DTD SVG 1.1//EN"
 "http://www.w3.org/Graphics/SVG/1.1/DTD/svg11.dtd">
<!-- Generated by graphviz version 2.43.0 (0)
 -->
<!-- Title: include/simulation/SimulationEngine.h Pages: 1 -->
<svg width="1076pt" height="258pt"
 viewBox="0.00 0.00 1076.12 258.00" xmlns="http://www.w3.org/2000/svg" xmlns:xlink="http://www.w3.org/1999/xlink">
<g id="graph0" class="graph" transform="scale(1 1) rotate(0) translate(4 254)">
<title>include/simulation/SimulationEngine.h</title>
<!-- Node1 -->
<g id="Node000001" class="node">
<title>Node1</title>
<g id="a_Node000001"><a xlink:title=" ">
<polygon fill="#999999" stroke="#666666" points="469.62,-250 355.62,-250 355.62,-220 469.62,-220 469.62,-250"/>
<text text-anchor="start" x="363.62" y="-238" font-family="Helvetica,sans-Serif" font-size="10.00">include/simulation</text>
<text text-anchor="middle" x="412.62" y="-227" font-family="Helvetica,sans-Serif" font-size="10.00">/SimulationEngine.h</text>
</a>
</g>
</g>
<!-- Node2 -->
<g id="Node000002" class="node">
<title>Node2</title>
<g id="a_Node000002"><a xlink:href="../../da/dcc/DeviceManager_8h.html" target="_top" xlink:title=" ">
<polygon fill="white" stroke="#666666" points="338.62,-129 204.62,-129 204.62,-110 338.62,-110 338.62,-129"/>
<text text-anchor="middle" x="271.62" y="-117" font-family="Helvetica,sans-Serif" font-size="10.00">../core/DeviceManager.h</text>
</a>
</g>
</g>
<!-- Node1&#45;&gt;Node2 -->
<g id="edge1_Node000001_Node000002" class="edge">
<title>Node1&#45;&gt;Node2</title>
<g id="a_edge1_Node000001_Node000002"><a xlink:title=" ">
<path fill="none" stroke="#63b8ff" d="M395.05,-219.85C368.41,-198.41 317.99,-157.82 290.56,-135.74"/>
<polygon fill="#63b8ff" stroke="#63b8ff" points="292.5,-132.81 282.52,-129.27 288.11,-138.27 292.5,-132.81"/>
</a>
</g>
</g>
<!-- Node5 -->
<g id="Node000005" class="node">
<title>Node5</title>
<g id="a_Node000005"><a xlink:title=" ">
<polygon fill="#e0e0e0" stroke="#999999" points="207.62,-19 149.62,-19 149.62,0 207.62,0 207.62,-19"/>
<text text-anchor="middle" x="178.62" y="-7" font-family="Helvetica,sans-Serif" font-size="10.00">memory</text>
</a>
</g>
</g>
<!-- Node1&#45;&gt;Node5 -->
<g id="edge40_Node000001_Node000005" class="edge">
<title>Node1&#45;&gt;Node5</title>
<g id="a_edge40_Node000001_Node000005"><a xlink:title=" ">
<path fill="none" stroke="#63b8ff" d="M355.62,-228.61C252.63,-217.47 42.68,-187.9 4.62,-129 -12.43,-102.61 24.44,-64.03 35.62,-55 65.42,-30.92 108.29,-19.82 139.31,-14.73"/>
<polygon fill="#63b8ff" stroke="#63b8ff" points="139.97,-18.17 149.34,-13.23 138.93,-11.25 139.97,-18.17"/>
</a>
</g>
</g>
<!-- Node6 -->
<g id="Node000006" class="node">
<title>Node6</title>
<g id="a_Node000006"><a xlink:title=" ">
<polygon fill="#e0e0e0" stroke="#999999" points="471.62,-19 421.62,-19 421.62,0 471.62,0 471.62,-19"/>
<text text-anchor="middle" x="446.62" y="-7" font-family="Helvetica,sans-Serif" font-size="10.00">chrono</text>
</a>
</g>
</g>
<!-- Node1&#45;&gt;Node6 -->
<g id="edge34_Node000001_Node000006" class="edge">
<title>Node1&#45;&gt;Node6</title>
<g id="a_edge34_Node000001_Node000006"><a xlink:title=" ">
<path fill="none" stroke="#63b8ff" d="M405.15,-219.63C389.82,-188.02 358.53,-110.82 386.62,-55 393.32,-41.71 406.06,-31.39 418.09,-24.05"/>
<polygon fill="#63b8ff" stroke="#63b8ff" points="420.04,-26.97 427.04,-19.02 416.61,-20.87 420.04,-26.97"/>
</a>
</g>
</g>
<!-- Node8 -->
<g id="Node000008" class="node">
<title>Node8</title>
<g id="a_Node000008"><a xlink:title=" ">
<polygon fill="#e0e0e0" stroke="#999999" points="133.12,-74 86.12,-74 86.12,-55 133.12,-55 133.12,-74"/>
<text text-anchor="middle" x="109.62" y="-62" font-family="Helvetica,sans-Serif" font-size="10.00">vector</text>
</a>
</g>
</g>
<!-- Node1&#45;&gt;Node8 -->
<g id="edge41_Node000001_Node000008" class="edge">
<title>Node1&#45;&gt;Node8</title>
<g id="a_edge41_Node000001_Node000008"><a xlink:title=" ">
<path fill="none" stroke="#63b8ff" d="M378.53,-219.85C334.91,-201.22 257.6,-166.43 195.62,-129 171.14,-114.21 144.96,-94.21 128.01,-80.64"/>
<polygon fill="#63b8ff" stroke="#63b8ff" points="130.01,-77.76 120.04,-74.19 125.61,-83.2 130.01,-77.76"/>
</a>
</g>
</g>
<!-- Node9 -->
<g id="Node000009" class="node">
<title>Node9</title>
<g id="a_Node000009"><a xlink:title=" ">
<polygon fill="#e0e0e0" stroke="#999999" points="443.62,-74 395.62,-74 395.62,-55 443.62,-55 443.62,-74"/>
<text text-anchor="middle" x="419.62" y="-62" font-family="Helvetica,sans-Serif" font-size="10.00">mutex</text>
</a>
</g>
</g>
<!-- Node1&#45;&gt;Node9 -->
<g id="edge38_Node000001_Node000009" class="edge">
<title>Node1&#45;&gt;Node9</title>
<g id="a_edge38_Node000001_Node000009"><a xlink:title=" ">
<path fill="none" stroke="#63b8ff" d="M413.21,-219.92C414.47,-189.65 417.43,-118.35 418.84,-84.27"/>
<polygon fill="#63b8ff" stroke="#63b8ff" points="422.34,-84.39 419.26,-74.25 415.35,-84.1 422.34,-84.39"/>
</a>
</g>
</g>
<!-- Node10 -->
<g id="Node000010" class="node">
<title>Node10</title>
<g id="a_Node000010"><a xlink:href="../../dd/d6c/NetworkManager_8h.html" target="_top" xlink:title=" ">
<polygon fill="white" stroke="#666666" points="752.12,-184 591.12,-184 591.12,-165 752.12,-165 752.12,-184"/>
<text text-anchor="middle" x="671.62" y="-172" font-family="Helvetica,sans-Serif" font-size="10.00">../network/NetworkManager.h</text>
</a>
</g>
</g>
<!-- Node1&#45;&gt;Node10 -->
<g id="edge11_Node000001_Node000010" class="edge">
<title>Node1&#45;&gt;Node10</title>
<g id="a_edge11_Node000001_Node000010"><a xlink:title=" ">
<path fill="none" stroke="#63b8ff" d="M469.78,-221.09C516.08,-210.63 580.54,-196.07 624.06,-186.24"/>
<polygon fill="#63b8ff" stroke="#63b8ff" points="624.85,-189.65 633.83,-184.04 623.3,-182.83 624.85,-189.65"/>
</a>
</g>
</g>
<!-- Node13 -->
<g id="Node000013" class="node">
<title>Node13</title>
<g id="a_Node000013"><a xlink:title=" ">
<polygon fill="#e0e0e0" stroke="#999999" points="876.12,-129 829.12,-129 829.12,-110 876.12,-110 876.12,-129"/>
<text text-anchor="middle" x="852.62" y="-117" font-family="Helvetica,sans-Serif" font-size="10.00">queue</text>
</a>
</g>
</g>
<!-- Node1&#45;&gt;Node13 -->
<g id="edge37_Node000001_Node000013" class="edge">
<title>Node1&#45;&gt;Node13</title>
<g id="a_edge37_Node000001_Node000013"><a xlink:title=" ">
<path fill="none" stroke="#63b8ff" d="M469.79,-233.73C540.46,-231.62 663.3,-222.13 760.62,-184 789.51,-172.68 818.19,-150.74 835.66,-135.86"/>
<polygon fill="#63b8ff" stroke="#63b8ff" points="838.06,-138.41 843.29,-129.19 833.45,-133.14 838.06,-138.41"/>
</a>
</g>
</g>
<!-- Node15 -->
<g id="Node000015" class="node">
<title>Node15</title>
<g id="a_Node000015"><a xlink:title=" ">
<polygon fill="#e0e0e0" stroke="#999999" points="942.62,-129 894.62,-129 894.62,-110 942.62,-110 942.62,-129"/>
<text text-anchor="middle" x="918.62" y="-117" font-family="Helvetica,sans-Serif" font-size="10.00">thread</text>
</a>
</g>
</g>
<!-- Node1&#45;&gt;Node15 -->
<g id="edge35_Node000001_Node000015" class="edge">
<title>Node1&#45;&gt;Node15</title>
<g id="a_edge35_Node000001_Node000015"><a xlink:title=" ">
<path fill="none" stroke="#63b8ff" d="M469.9,-232.42C545.41,-229 681.66,-218.18 792.62,-184 831.06,-172.16 872.03,-149.38 896.47,-134.57"/>
<polygon fill="#63b8ff" stroke="#63b8ff" points="898.6,-137.37 905.28,-129.14 894.93,-131.41 898.6,-137.37"/>
</a>
</g>
</g>
<!-- Node16 -->
<g id="Node000016" class="node">
<title>Node16</title>
<g id="a_Node000016"><a xlink:title=" ">
<polygon fill="#e0e0e0" stroke="#999999" points="1068.12,-129 961.12,-129 961.12,-110 1068.12,-110 1068.12,-129"/>
<text text-anchor="middle" x="1014.62" y="-117" font-family="Helvetica,sans-Serif" font-size="10.00">condition_variable</text>
</a>
</g>
</g>
<!-- Node1&#45;&gt;Node16 -->
<g id="edge39_Node000001_Node000016" class="edge">
<title>Node1&#45;&gt;Node16</title>
<g id="a_edge39_Node000001_Node000016"><a xlink:title=" ">
<path fill="none" stroke="#63b8ff" d="M469.65,-232.09C550.97,-228.26 704.4,-216.96 830.62,-184 852.03,-178.41 855.86,-172.62 876.62,-165 909.88,-152.79 948.27,-140.56 976.1,-132.02"/>
<polygon fill="#63b8ff" stroke="#63b8ff" points="977.31,-135.31 985.85,-129.05 975.27,-128.61 977.31,-135.31"/>
</a>
</g>
</g>
<!-- Node17 -->
<g id="Node000017" class="node">
<title>Node17</title>
<g id="a_Node000017"><a xlink:href="../../d4/d29/ConfigManager_8h.html" target="_top" xlink:title=" ">
<polygon fill="white" stroke="#666666" points="145.12,-129 14.12,-129 14.12,-110 145.12,-110 145.12,-129"/>
<text text-anchor="middle" x="79.62" y="-117" font-family="Helvetica,sans-Serif" font-size="10.00">../utils/ConfigManager.h</text>
</a>
</g>
</g>
<!-- Node1&#45;&gt;Node17 -->
<g id="edge30_Node000001_Node000017" class="edge">
<title>Node1&#45;&gt;Node17</title>
<g id="a_edge30_Node000001_Node000017"><a xlink:title=" ">
<path fill="none" stroke="#63b8ff" d="M355.51,-230.13C303.08,-224.87 224.29,-212.57 161.62,-184 135.91,-172.28 110.91,-151.06 95.41,-136.4"/>
<polygon fill="#63b8ff" stroke="#63b8ff" points="97.44,-133.49 87.83,-129.03 92.56,-138.51 97.44,-133.49"/>
</a>
</g>
</g>
<!-- Node18 -->
<g id="Node000018" class="node">
<title>Node18</title>
<g id="a_Node000018"><a xlink:title=" ">
<polygon fill="#e0e0e0" stroke="#999999" points="950.12,-184 885.12,-184 885.12,-165 950.12,-165 950.12,-184"/>
<text text-anchor="middle" x="917.62" y="-172" font-family="Helvetica,sans-Serif" font-size="10.00">functional</text>
</a>
</g>
</g>
<!-- Node1&#45;&gt;Node18 -->
<g id="edge36_Node000001_Node000018" class="edge">
<title>Node1&#45;&gt;Node18</title>
<g id="a_edge36_Node000001_Node000018"><a xlink:title=" ">
<path fill="none" stroke="#63b8ff" d="M469.91,-229.05C556.78,-221.24 726.95,-204.81 870.62,-184 872.09,-183.79 873.57,-183.56 875.07,-183.33"/>
<polygon fill="#63b8ff" stroke="#63b8ff" points="875.75,-186.77 885.06,-181.7 874.62,-179.86 875.75,-186.77"/>
</a>
</g>
</g>
<!-- Node3 -->
<g id="Node000003" class="node">
<title>Node3</title>
<g id="a_Node000003"><a xlink:href="../../de/daa/IoTDevice_8h.html" target="_top" xlink:title=" ">
<polygon fill="white" stroke="#666666" points="301.62,-74 227.62,-74 227.62,-55 301.62,-55 301.62,-74"/>
<text text-anchor="middle" x="264.62" y="-62" font-family="Helvetica,sans-Serif" font-size="10.00">IoTDevice.h</text>
</a>
</g>
</g>
<!-- Node2&#45;&gt;Node3 -->
<g id="edge2_Node000002_Node000003" class="edge">
<title>Node2&#45;&gt;Node3</title>
<g id="a_edge2_Node000002_Node000003"><a xlink:title=" ">
<path fill="none" stroke="#63b8ff" d="M270.47,-109.75C269.55,-102.8 268.24,-92.85 267.09,-84.13"/>
<polygon fill="#63b8ff" stroke="#63b8ff" points="270.54,-83.54 265.76,-74.09 263.6,-84.46 270.54,-83.54"/>
</a>
</g>
</g>
<!-- Node4 -->
<g id="Node000004" class="node">
<title>Node4</title>
<g id="a_Node000004"><a xlink:title=" ">
<polygon fill="#e0e0e0" stroke="#999999" points="286.62,-19 242.62,-19 242.62,0 286.62,0 286.62,-19"/>
<text text-anchor="middle" x="264.62" y="-7" font-family="Helvetica,sans-Serif" font-size="10.00">string</text>
</a>
</g>
</g>
<!-- Node2&#45;&gt;Node4 -->
<g id="edge9_Node000002_Node000004" class="edge">
<title>Node2&#45;&gt;Node4</title>
<g id="a_edge9_Node000002_Node000004"><a xlink:title=" ">
<path fill="none" stroke="#63b8ff" d="M255.04,-109.87C242.45,-102.3 226.09,-90.01 218.62,-74 210.13,-55.78 226.74,-37.45 242.32,-25.2"/>
<polygon fill="#63b8ff" stroke="#63b8ff" points="244.7,-27.8 250.7,-19.06 240.56,-22.15 244.7,-27.8"/>
</a>
</g>
</g>
<!-- Node2&#45;&gt;Node5 -->
<g id="edge8_Node000002_Node000005" class="edge">
<title>Node2&#45;&gt;Node5</title>
<g id="a_edge8_Node000002_Node000005"><a xlink:title=" ">
<path fill="none" stroke="#63b8ff" d="M256.6,-109.77C243.73,-101.72 225.31,-88.81 212.62,-74 200.94,-60.36 191.67,-42.04 185.78,-28.58"/>
<polygon fill="#63b8ff" stroke="#63b8ff" points="188.87,-26.9 181.79,-19.02 182.41,-29.59 188.87,-26.9"/>
</a>
</g>
</g>
<!-- Node7 -->
<g id="Node000007" class="node">
<title>Node7</title>
<g id="a_Node000007"><a xlink:title=" ">
<polygon fill="#e0e0e0" stroke="#999999" points="607.62,-19 569.62,-19 569.62,0 607.62,0 607.62,-19"/>
<text text-anchor="middle" x="588.62" y="-7" font-family="Helvetica,sans-Serif" font-size="10.00">map</text>
</a>
</g>
</g>
<!-- Node2&#45;&gt;Node7 -->
<g id="edge6_Node000002_Node000007" class="edge">
<title>Node2&#45;&gt;Node7</title>
<g id="a_edge6_Node000002_Node000007"><a xlink:title=" ">
<path fill="none" stroke="#63b8ff" d="M284.14,-109.99C304.67,-96.42 347.15,-69.89 386.62,-55 445.87,-32.65 519.34,-19.98 559.33,-14.25"/>
<polygon fill="#63b8ff" stroke="#63b8ff" points="560.02,-17.69 569.44,-12.85 559.06,-10.76 560.02,-17.69"/>
</a>
</g>
</g>
<!-- Node2&#45;&gt;Node8 -->
<g id="edge7_Node000002_Node000008" class="edge">
<title>Node2&#45;&gt;Node8</title>
<g id="a_edge7_Node000002_Node000008"><a xlink:title=" ">
<path fill="none" stroke="#63b8ff" d="M245.6,-109.98C217.71,-100.86 173.37,-86.36 142.95,-76.4"/>
<polygon fill="#63b8ff" stroke="#63b8ff" points="143.81,-73 133.22,-73.22 141.63,-79.65 143.81,-73"/>
</a>
</g>
</g>
<!-- Node2&#45;&gt;Node9 -->
<g id="edge10_Node000002_Node000009" class="edge">
<title>Node2&#45;&gt;Node9</title>
<g id="a_edge10_Node000002_Node000009"><a xlink:title=" ">
<path fill="none" stroke="#63b8ff" d="M295.4,-109.98C319.85,-101.23 358.16,-87.51 385.77,-77.62"/>
<polygon fill="#63b8ff" stroke="#63b8ff" points="387.18,-80.84 395.41,-74.17 384.82,-74.25 387.18,-80.84"/>
</a>
</g>
</g>
<!-- Node3&#45;&gt;Node4 -->
<g id="edge3_Node000003_Node000004" class="edge">
<title>Node3&#45;&gt;Node4</title>
<g id="a_edge3_Node000003_Node000004"><a xlink:title=" ">
<path fill="none" stroke="#63b8ff" d="M264.62,-54.75C264.62,-47.8 264.62,-37.85 264.62,-29.13"/>
<polygon fill="#63b8ff" stroke="#63b8ff" points="268.12,-29.09 264.62,-19.09 261.12,-29.09 268.12,-29.09"/>
</a>
</g>
</g>
<!-- Node3&#45;&gt;Node5 -->
<g id="edge4_Node000003_Node000005" class="edge">
<title>Node3&#45;&gt;Node5</title>
<g id="a_edge4_Node000003_Node000005"><a xlink:title=" ">
<path fill="none" stroke="#63b8ff" d="M250.81,-54.98C237.47,-46.77 217.04,-34.18 201.32,-24.49"/>
<polygon fill="#63b8ff" stroke="#63b8ff" points="203.04,-21.44 192.69,-19.17 199.37,-27.4 203.04,-21.44"/>
</a>
</g>
</g>
<!-- Node3&#45;&gt;Node6 -->
<g id="edge5_Node000003_Node000006" class="edge">
<title>Node3&#45;&gt;Node6</title>
<g id="a_edge5_Node000003_Node000006"><a xlink:title=" ">
<path fill="none" stroke="#63b8ff" d="M293.87,-54.98C325.92,-45.65 377.33,-30.68 411.53,-20.72"/>
<polygon fill="#63b8ff" stroke="#63b8ff" points="412.93,-23.96 421.56,-17.8 410.98,-17.24 412.93,-23.96"/>
</a>
</g>
</g>
<!-- Node10&#45;&gt;Node2 -->
<g id="edge16_Node000010_Node000002" class="edge">
<title>Node10&#45;&gt;Node2</title>
<g id="a_edge16_Node000010_Node000002"><a xlink:title=" ">
<path fill="none" stroke="#63b8ff" d="M607.36,-164.98C536.17,-155.55 421.55,-140.36 346.4,-130.41"/>
<polygon fill="#63b8ff" stroke="#63b8ff" points="346.44,-126.88 336.06,-129.04 345.52,-133.82 346.44,-126.88"/>
</a>
</g>
</g>
<!-- Node10&#45;&gt;Node6 -->
<g id="edge28_Node000010_Node000006" class="edge">
<title>Node10&#45;&gt;Node6</title>
<g id="a_edge28_Node000010_Node000006"><a xlink:title=" ">
<path fill="none" stroke="#63b8ff" d="M672.82,-164.93C675.32,-143.24 678.62,-85.76 648.62,-55 625.81,-31.61 533.37,-18.99 481.81,-13.64"/>
<polygon fill="#63b8ff" stroke="#63b8ff" points="482.07,-10.15 471.78,-12.64 481.38,-17.12 482.07,-10.15"/>
</a>
</g>
</g>
<!-- Node10&#45;&gt;Node7 -->
<g id="edge29_Node000010_Node000007" class="edge">
<title>Node10&#45;&gt;Node7</title>
<g id="a_edge29_Node000010_Node000007"><a xlink:title=" ">
<path fill="none" stroke="#63b8ff" d="M680.62,-164.77C700.75,-144.16 745.74,-91.45 719.62,-55 696.6,-22.86 649.03,-13.65 617.99,-11.18"/>
<polygon fill="#63b8ff" stroke="#63b8ff" points="617.97,-7.67 607.77,-10.55 617.54,-14.66 617.97,-7.67"/>
</a>
</g>
</g>
<!-- Node10&#45;&gt;Node9 -->
<g id="edge24_Node000010_Node000009" class="edge">
<title>Node10&#45;&gt;Node9</title>
<g id="a_edge24_Node000010_Node000009"><a xlink:title=" ">
<path fill="none" stroke="#63b8ff" d="M591.09,-168.42C552.02,-162.92 505.82,-151.71 469.62,-129 451.66,-117.73 437.48,-97.64 428.88,-83.07"/>
<polygon fill="#63b8ff" stroke="#63b8ff" points="431.77,-81.06 423.84,-74.04 425.66,-84.47 431.77,-81.06"/>
</a>
</g>
</g>
<!-- Node11 -->
<g id="Node000011" class="node">
<title>Node11</title>
<g id="a_Node000011"><a xlink:href="../../d5/dca/Message_8h.html" target="_top" xlink:title=" ">
<polygon fill="white" stroke="#666666" points="639.62,-74 537.62,-74 537.62,-55 639.62,-55 639.62,-74"/>
<text text-anchor="middle" x="588.62" y="-62" font-family="Helvetica,sans-Serif" font-size="10.00">../core/Message.h</text>
</a>
</g>
</g>
<!-- Node10&#45;&gt;Node11 -->
<g id="edge12_Node000010_Node000011" class="edge">
<title>Node10&#45;&gt;Node11</title>
<g id="a_edge12_Node000010_Node000011"><a xlink:title=" ">
<path fill="none" stroke="#63b8ff" d="M667.15,-164.88C660.44,-152.27 647,-128.32 632.62,-110 624.59,-99.77 614.45,-89.37 605.93,-81.2"/>
<polygon fill="#63b8ff" stroke="#63b8ff" points="608.07,-78.41 598.37,-74.13 603.28,-83.52 608.07,-78.41"/>
</a>
</g>
</g>
<!-- Node12 -->
<g id="Node000012" class="node">
<title>Node12</title>
<g id="a_Node000012"><a xlink:href="../../d1/de8/IPSecManager_8h.html" target="_top" xlink:title=" ">
<polygon fill="white" stroke="#666666" points="624.12,-129 479.12,-129 479.12,-110 624.12,-110 624.12,-129"/>
<text text-anchor="middle" x="551.62" y="-117" font-family="Helvetica,sans-Serif" font-size="10.00">../security/IPSecManager.h</text>
</a>
</g>
</g>
<!-- Node10&#45;&gt;Node12 -->
<g id="edge17_Node000010_Node000012" class="edge">
<title>Node10&#45;&gt;Node12</title>
<g id="a_edge17_Node000010_Node000012"><a xlink:title=" ">
<path fill="none" stroke="#63b8ff" d="M652.34,-164.98C632.95,-156.42 602.82,-143.11 580.56,-133.28"/>
<polygon fill="#63b8ff" stroke="#63b8ff" points="581.82,-130.01 571.25,-129.17 578.99,-136.41 581.82,-130.01"/>
</a>
</g>
</g>
<!-- Node10&#45;&gt;Node13 -->
<g id="edge23_Node000010_Node000013" class="edge">
<title>Node10&#45;&gt;Node13</title>
<g id="a_edge23_Node000010_Node000013"><a xlink:title=" ">
<path fill="none" stroke="#63b8ff" d="M700.7,-164.98C733.04,-155.52 785.17,-140.25 819.17,-130.3"/>
<polygon fill="#63b8ff" stroke="#63b8ff" points="820.48,-133.56 829.09,-127.39 818.51,-126.84 820.48,-133.56"/>
</a>
</g>
</g>
<!-- Node14 -->
<g id="Node000014" class="node">
<title>Node14</title>
<g id="a_Node000014"><a xlink:title=" ">
<polygon fill="#e0e0e0" stroke="#999999" points="810.62,-129 756.62,-129 756.62,-110 810.62,-110 810.62,-129"/>
<text text-anchor="middle" x="783.62" y="-117" font-family="Helvetica,sans-Serif" font-size="10.00">random</text>
</a>
</g>
</g>
<!-- Node10&#45;&gt;Node14 -->
<g id="edge25_Node000010_Node000014" class="edge">
<title>Node10&#45;&gt;Node14</title>
<g id="a_edge25_Node000010_Node000014"><a xlink:title=" ">
<path fill="none" stroke="#63b8ff" d="M689.62,-164.98C707.55,-156.5 735.34,-143.35 756.06,-133.54"/>
<polygon fill="#63b8ff" stroke="#63b8ff" points="757.76,-136.61 765.3,-129.17 754.77,-130.28 757.76,-136.61"/>
</a>
</g>
</g>
<!-- Node10&#45;&gt;Node15 -->
<g id="edge26_Node000010_Node000015" class="edge">
<title>Node10&#45;&gt;Node15</title>
<g id="a_edge26_Node000010_Node000015"><a xlink:title=" ">
<path fill="none" stroke="#63b8ff" d="M715.61,-164.98C756.85,-156.86 820.45,-143.96 884.62,-129.15"/>
<polygon fill="#63b8ff" stroke="#63b8ff" points="885.56,-132.52 894.51,-126.85 883.97,-125.71 885.56,-132.52"/>
</a>
</g>
</g>
<!-- Node10&#45;&gt;Node16 -->
<g id="edge27_Node000010_Node000016" class="edge">
<title>Node10&#45;&gt;Node16</title>
<g id="a_edge27_Node000010_Node000016"><a xlink:title=" ">
<path fill="none" stroke="#63b8ff" d="M726.73,-164.98C787.94,-155.53 886.59,-140.28 951.03,-130.33"/>
<polygon fill="#63b8ff" stroke="#63b8ff" points="951.72,-133.76 961.06,-128.78 950.65,-126.84 951.72,-133.76"/>
</a>
</g>
</g>
<!-- Node11&#45;&gt;Node4 -->
<g id="edge13_Node000011_Node000004" class="edge">
<title>Node11&#45;&gt;Node4</title>
<g id="a_edge13_Node000011_Node000004"><a xlink:title=" ">
<path fill="none" stroke="#63b8ff" d="M537.29,-55.1C469.73,-44.05 352.99,-24.96 296.75,-15.76"/>
<polygon fill="#63b8ff" stroke="#63b8ff" points="297.09,-12.26 286.66,-14.1 295.96,-19.17 297.09,-12.26"/>
</a>
</g>
</g>
<!-- Node11&#45;&gt;Node6 -->
<g id="edge14_Node000011_Node000006" class="edge">
<title>Node11&#45;&gt;Node6</title>
<g id="a_edge14_Node000011_Node000006"><a xlink:title=" ">
<path fill="none" stroke="#63b8ff" d="M565.81,-54.98C542.45,-46.27 505.92,-32.63 479.46,-22.75"/>
<polygon fill="#63b8ff" stroke="#63b8ff" points="480.45,-19.39 469.85,-19.17 478,-25.95 480.45,-19.39"/>
</a>
</g>
</g>
<!-- Node11&#45;&gt;Node7 -->
<g id="edge15_Node000011_Node000007" class="edge">
<title>Node11&#45;&gt;Node7</title>
<g id="a_edge15_Node000011_Node000007"><a xlink:title=" ">
<path fill="none" stroke="#63b8ff" d="M588.62,-54.75C588.62,-47.8 588.62,-37.85 588.62,-29.13"/>
<polygon fill="#63b8ff" stroke="#63b8ff" points="592.12,-29.09 588.62,-19.09 585.12,-29.09 592.12,-29.09"/>
</a>
</g>
</g>
<!-- Node12&#45;&gt;Node4 -->
<g id="edge18_Node000012_Node000004" class="edge">
<title>Node12&#45;&gt;Node4</title>
<g id="a_edge18_Node000012_Node000004"><a xlink:title=" ">
<path fill="none" stroke="#63b8ff" d="M545.4,-109.93C534.79,-96.02 511.82,-68.72 485.62,-55 423.99,-22.73 341.4,-13.82 296.67,-11.39"/>
<polygon fill="#63b8ff" stroke="#63b8ff" points="296.83,-7.89 286.67,-10.92 296.5,-14.88 296.83,-7.89"/>
</a>
</g>
</g>
<!-- Node12&#45;&gt;Node5 -->
<g id="edge20_Node000012_Node000005" class="edge">
<title>Node12&#45;&gt;Node5</title>
<g id="a_edge20_Node000012_Node000005"><a xlink:title=" ">
<path fill="none" stroke="#63b8ff" d="M538.64,-109.75C513.96,-93.18 461.87,-58.54 452.62,-55 447.16,-52.91 292.06,-28.34 217.68,-16.63"/>
<polygon fill="#63b8ff" stroke="#63b8ff" points="218.17,-13.17 207.75,-15.07 217.08,-20.08 218.17,-13.17"/>
</a>
</g>
</g>
<!-- Node12&#45;&gt;Node7 -->
<g id="edge19_Node000012_Node000007" class="edge">
<title>Node12&#45;&gt;Node7</title>
<g id="a_edge19_Node000012_Node000007"><a xlink:title=" ">
<path fill="none" stroke="#63b8ff" d="M594.75,-109.93C614.74,-103.57 636.67,-92.64 648.62,-74 661.04,-54.65 637.72,-35.95 616.63,-23.92"/>
<polygon fill="#63b8ff" stroke="#63b8ff" points="618,-20.68 607.53,-19.03 614.69,-26.85 618,-20.68"/>
</a>
</g>
</g>
<!-- Node12&#45;&gt;Node9 -->
<g id="edge21_Node000012_Node000009" class="edge">
<title>Node12&#45;&gt;Node9</title>
<g id="a_edge21_Node000012_Node000009"><a xlink:title=" ">
<path fill="none" stroke="#63b8ff" d="M530.42,-109.98C508.89,-101.34 475.34,-87.87 450.8,-78.02"/>
<polygon fill="#63b8ff" stroke="#63b8ff" points="451.8,-74.65 441.22,-74.17 449.19,-81.14 451.8,-74.65"/>
</a>
</g>
</g>
<!-- Node12&#45;&gt;Node11 -->
<g id="edge22_Node000012_Node000011" class="edge">
<title>Node12&#45;&gt;Node11</title>
<g id="a_edge22_Node000012_Node000011"><a xlink:title=" ">
<path fill="none" stroke="#63b8ff" d="M557.73,-109.75C562.91,-102.34 570.47,-91.5 576.82,-82.41"/>
<polygon fill="#63b8ff" stroke="#63b8ff" points="579.77,-84.29 582.63,-74.09 574.03,-80.29 579.77,-84.29"/>
</a>
</g>
</g>
<!-- Node17&#45;&gt;Node4 -->
<g id="edge31_Node000017_Node000004" class="edge">
<title>Node17&#45;&gt;Node4</title>
<g id="a_edge31_Node000017_Node000004"><a xlink:title=" ">
<path fill="none" stroke="#63b8ff" d="M68.42,-109.91C53.11,-97.14 29.09,-72.75 43.62,-55 46.63,-51.33 171.82,-27.7 232.41,-16.44"/>
<polygon fill="#63b8ff" stroke="#63b8ff" points="233.39,-19.82 242.59,-14.56 232.12,-12.94 233.39,-19.82"/>
</a>
</g>
</g>
<!-- Node17&#45;&gt;Node7 -->
<g id="edge32_Node000017_Node000007" class="edge">
<title>Node17&#45;&gt;Node7</title>
<g id="a_edge32_Node000017_Node000007"><a xlink:title=" ">
<path fill="none" stroke="#63b8ff" d="M75.79,-109.81C70.45,-96.22 62.9,-69.97 76.62,-55 78.68,-52.75 451.02,-21.86 559.37,-12.91"/>
<polygon fill="#63b8ff" stroke="#63b8ff" points="559.9,-16.38 569.57,-12.07 559.32,-9.4 559.9,-16.38"/>
</a>
</g>
</g>
<!-- Node17&#45;&gt;Node8 -->
<g id="edge33_Node000017_Node000008" class="edge">
<title>Node17&#45;&gt;Node8</title>
<g id="a_edge33_Node000017_Node000008"><a xlink:title=" ">
<path fill="none" stroke="#63b8ff" d="M84.58,-109.75C88.68,-102.49 94.65,-91.95 99.73,-82.98"/>
<polygon fill="#63b8ff" stroke="#63b8ff" points="102.88,-84.52 104.76,-74.09 96.79,-81.07 102.88,-84.52"/>
</a>
</g>
</g>
</g>
</svg>
