<?xml version="1.0" encoding="UTF-8" standalone="no"?>
<!DOCTYPE svg PUBLIC "-//W3C//DTD SVG 1.1//EN"
 "http://www.w3.org/Graphics/SVG/1.1/DTD/svg11.dtd">
<!-- Generated by graphviz version 2.43.0 (0)
 -->
<!-- Title: iot::BLEHealthSensor Pages: 1 -->
<svg width="276pt" height="662pt"
 viewBox="0.00 0.00 276.00 662.00" xmlns="http://www.w3.org/2000/svg" xmlns:xlink="http://www.w3.org/1999/xlink">
<g id="graph0" class="graph" transform="scale(1 1) rotate(0) translate(4 658)">
<title>iot::BLEHealthSensor</title>
<!-- Node1 -->
<g id="Node000001" class="node">
<title>Node1</title>
<g id="a_Node000001"><a xlink:title=" ">
<polygon fill="#999999" stroke="transparent" points="195.5,-109 54.5,-109 54.5,0 195.5,0 195.5,-109"/>
<text text-anchor="start" x="74" y="-96.5" font-family="Helvetica,sans-Serif" font-size="10.00">iot::BLEHealthSensor</text>
<text text-anchor="start" x="123.5" y="-81.5" font-family="Helvetica,sans-Serif" font-size="10.00"> </text>
<text text-anchor="start" x="59" y="-66.5" font-family="Helvetica,sans-Serif" font-size="10.00">+</text>
<text text-anchor="start" x="72" y="-66.5" font-family="Helvetica,sans-Serif" font-size="10.00">BLEHealthSensor()</text>
<text text-anchor="start" x="59" y="-51.5" font-family="Helvetica,sans-Serif" font-size="10.00">+</text>
<text text-anchor="start" x="72" y="-51.5" font-family="Helvetica,sans-Serif" font-size="10.00">readValue()</text>
<text text-anchor="start" x="59" y="-36.5" font-family="Helvetica,sans-Serif" font-size="10.00">+</text>
<text text-anchor="start" x="72" y="-36.5" font-family="Helvetica,sans-Serif" font-size="10.00">sendData()</text>
<text text-anchor="start" x="59" y="-21.5" font-family="Helvetica,sans-Serif" font-size="10.00">+</text>
<text text-anchor="start" x="72" y="-21.5" font-family="Helvetica,sans-Serif" font-size="10.00">setConnectionOriented()</text>
<text text-anchor="start" x="59" y="-6.5" font-family="Helvetica,sans-Serif" font-size="10.00">+</text>
<text text-anchor="start" x="72" y="-6.5" font-family="Helvetica,sans-Serif" font-size="10.00">isConnectionOriented()</text>
<polygon fill="#666666" stroke="#666666" points="55,-91.5 55,-91.5 196,-91.5 196,-91.5 55,-91.5"/>
<polygon fill="#666666" stroke="#666666" points="55,-76.5 55,-76.5 196,-76.5 196,-76.5 55,-76.5"/>
<polygon fill="none" stroke="#666666" points="54.5,0 54.5,-109 195.5,-109 195.5,0 54.5,0"/>
</a>
</g>
</g>
<!-- Node2 -->
<g id="Node000002" class="node">
<title>Node2</title>
<g id="a_Node000002"><a xlink:href="../../d6/da8/classiot_1_1Sensor.html" target="_top" xlink:title=" ">
<polygon fill="white" stroke="transparent" points="108,-359 0,-359 0,-145 108,-145 108,-359"/>
<text text-anchor="start" x="28" y="-347" font-family="Helvetica,sans-Serif" font-size="10.00">iot::Sensor</text>
<text text-anchor="start" x="4" y="-332" font-family="Helvetica,sans-Serif" font-size="10.00">#</text>
<text text-anchor="start" x="17" y="-332" font-family="Helvetica,sans-Serif" font-size="10.00">currentValue</text>
<text text-anchor="start" x="4" y="-317" font-family="Helvetica,sans-Serif" font-size="10.00">#</text>
<text text-anchor="start" x="17" y="-317" font-family="Helvetica,sans-Serif" font-size="10.00">minValue</text>
<text text-anchor="start" x="4" y="-302" font-family="Helvetica,sans-Serif" font-size="10.00">#</text>
<text text-anchor="start" x="17" y="-302" font-family="Helvetica,sans-Serif" font-size="10.00">maxValue</text>
<text text-anchor="start" x="4" y="-287" font-family="Helvetica,sans-Serif" font-size="10.00">#</text>
<text text-anchor="start" x="17" y="-287" font-family="Helvetica,sans-Serif" font-size="10.00">rng</text>
<text text-anchor="start" x="4" y="-272" font-family="Helvetica,sans-Serif" font-size="10.00">#</text>
<text text-anchor="start" x="17" y="-272" font-family="Helvetica,sans-Serif" font-size="10.00">noiseDistribution</text>
<text text-anchor="start" x="4" y="-257" font-family="Helvetica,sans-Serif" font-size="10.00">+</text>
<text text-anchor="start" x="17" y="-257" font-family="Helvetica,sans-Serif" font-size="10.00">Sensor()</text>
<text text-anchor="start" x="4" y="-242" font-family="Helvetica,sans-Serif" font-size="10.00">+</text>
<text text-anchor="start" x="17" y="-242" font-family="Helvetica,sans-Serif" font-size="10.00">~Sensor()</text>
<text text-anchor="start" x="4" y="-227" font-family="Helvetica,sans-Serif" font-size="10.00">+</text>
<text text-anchor="start" x="17" y="-227" font-family="Helvetica,sans-Serif" font-size="10.00">readValue()</text>
<text text-anchor="start" x="4" y="-212" font-family="Helvetica,sans-Serif" font-size="10.00">+</text>
<text text-anchor="start" x="17" y="-212" font-family="Helvetica,sans-Serif" font-size="10.00">sendData()</text>
<text text-anchor="start" x="4" y="-197" font-family="Helvetica,sans-Serif" font-size="10.00">+</text>
<text text-anchor="start" x="17" y="-197" font-family="Helvetica,sans-Serif" font-size="10.00">receiveData()</text>
<text text-anchor="start" x="4" y="-182" font-family="Helvetica,sans-Serif" font-size="10.00">+</text>
<text text-anchor="start" x="17" y="-182" font-family="Helvetica,sans-Serif" font-size="10.00">getCurrentValue()</text>
<text text-anchor="start" x="4" y="-167" font-family="Helvetica,sans-Serif" font-size="10.00">+</text>
<text text-anchor="start" x="17" y="-167" font-family="Helvetica,sans-Serif" font-size="10.00">getMinValue()</text>
<text text-anchor="start" x="4" y="-152" font-family="Helvetica,sans-Serif" font-size="10.00">+</text>
<text text-anchor="start" x="17" y="-152" font-family="Helvetica,sans-Serif" font-size="10.00">getMaxValue()</text>
<polygon fill="#666666" stroke="#666666" points="0,-342 0,-342 108,-342 108,-342 0,-342"/>
<polygon fill="#666666" stroke="#666666" points="0,-267 0,-267 15,-267 15,-267 0,-267"/>
<polygon fill="#666666" stroke="#666666" points="15,-267 15,-267 108,-267 108,-267 15,-267"/>
<polygon fill="none" stroke="#666666" points="0,-145 0,-359 108,-359 108,-145 0,-145"/>
</a>
</g>
</g>
<!-- Node2&#45;&gt;Node1 -->
<g id="edge1_Node000001_Node000002" class="edge">
<title>Node2&#45;&gt;Node1</title>
<g id="a_edge1_Node000001_Node000002"><a xlink:title=" ">
<path fill="none" stroke="#63b8ff" d="M95.97,-135.42C99.27,-126.34 102.5,-117.46 105.52,-109.13"/>
<polygon fill="none" stroke="#63b8ff" points="92.64,-134.36 92.51,-144.95 99.22,-136.75 92.64,-134.36"/>
</a>
</g>
</g>
<!-- Node3 -->
<g id="Node000003" class="node">
<title>Node3</title>
<g id="a_Node000003"><a xlink:href="../../df/dfa/classiot_1_1IoTDevice.html" target="_top" xlink:title=" ">
<polygon fill="white" stroke="transparent" points="108,-654 0,-654 0,-395 108,-395 108,-654"/>
<text text-anchor="start" x="20" y="-641.5" font-family="Helvetica,sans-Serif" font-size="10.00">iot::IoTDevice</text>
<text text-anchor="start" x="4" y="-626.5" font-family="Helvetica,sans-Serif" font-size="10.00">#</text>
<text text-anchor="start" x="17" y="-626.5" font-family="Helvetica,sans-Serif" font-size="10.00">deviceId</text>
<text text-anchor="start" x="4" y="-611.5" font-family="Helvetica,sans-Serif" font-size="10.00">#</text>
<text text-anchor="start" x="17" y="-611.5" font-family="Helvetica,sans-Serif" font-size="10.00">deviceType</text>
<text text-anchor="start" x="4" y="-596.5" font-family="Helvetica,sans-Serif" font-size="10.00">#</text>
<text text-anchor="start" x="17" y="-596.5" font-family="Helvetica,sans-Serif" font-size="10.00">deviceName</text>
<text text-anchor="start" x="4" y="-581.5" font-family="Helvetica,sans-Serif" font-size="10.00">#</text>
<text text-anchor="start" x="17" y="-581.5" font-family="Helvetica,sans-Serif" font-size="10.00">isActive</text>
<text text-anchor="start" x="4" y="-566.5" font-family="Helvetica,sans-Serif" font-size="10.00">#</text>
<text text-anchor="start" x="17" y="-566.5" font-family="Helvetica,sans-Serif" font-size="10.00">lastUpdate</text>
<text text-anchor="start" x="4" y="-551.5" font-family="Helvetica,sans-Serif" font-size="10.00">+</text>
<text text-anchor="start" x="17" y="-551.5" font-family="Helvetica,sans-Serif" font-size="10.00">IoTDevice()</text>
<text text-anchor="start" x="4" y="-536.5" font-family="Helvetica,sans-Serif" font-size="10.00">+</text>
<text text-anchor="start" x="17" y="-536.5" font-family="Helvetica,sans-Serif" font-size="10.00">~IoTDevice()</text>
<text text-anchor="start" x="4" y="-521.5" font-family="Helvetica,sans-Serif" font-size="10.00">+</text>
<text text-anchor="start" x="17" y="-521.5" font-family="Helvetica,sans-Serif" font-size="10.00">sendData()</text>
<text text-anchor="start" x="4" y="-506.5" font-family="Helvetica,sans-Serif" font-size="10.00">+</text>
<text text-anchor="start" x="17" y="-506.5" font-family="Helvetica,sans-Serif" font-size="10.00">receiveData()</text>
<text text-anchor="start" x="4" y="-491.5" font-family="Helvetica,sans-Serif" font-size="10.00">+</text>
<text text-anchor="start" x="17" y="-491.5" font-family="Helvetica,sans-Serif" font-size="10.00">getStatus()</text>
<text text-anchor="start" x="4" y="-476.5" font-family="Helvetica,sans-Serif" font-size="10.00">+</text>
<text text-anchor="start" x="17" y="-476.5" font-family="Helvetica,sans-Serif" font-size="10.00">update()</text>
<text text-anchor="start" x="4" y="-461.5" font-family="Helvetica,sans-Serif" font-size="10.00">+</text>
<text text-anchor="start" x="17" y="-461.5" font-family="Helvetica,sans-Serif" font-size="10.00">getDeviceId()</text>
<text text-anchor="start" x="4" y="-446.5" font-family="Helvetica,sans-Serif" font-size="10.00">+</text>
<text text-anchor="start" x="17" y="-446.5" font-family="Helvetica,sans-Serif" font-size="10.00">getDeviceType()</text>
<text text-anchor="start" x="4" y="-431.5" font-family="Helvetica,sans-Serif" font-size="10.00">+</text>
<text text-anchor="start" x="17" y="-431.5" font-family="Helvetica,sans-Serif" font-size="10.00">getDeviceName()</text>
<text text-anchor="start" x="4" y="-416.5" font-family="Helvetica,sans-Serif" font-size="10.00">+</text>
<text text-anchor="start" x="17" y="-416.5" font-family="Helvetica,sans-Serif" font-size="10.00">isActiveDevice()</text>
<text text-anchor="start" x="4" y="-401.5" font-family="Helvetica,sans-Serif" font-size="10.00">+</text>
<text text-anchor="start" x="17" y="-401.5" font-family="Helvetica,sans-Serif" font-size="10.00">setActive()</text>
<polygon fill="#666666" stroke="#666666" points="0,-636.5 0,-636.5 108,-636.5 108,-636.5 0,-636.5"/>
<polygon fill="#666666" stroke="#666666" points="0,-561.5 0,-561.5 15,-561.5 15,-561.5 0,-561.5"/>
<polygon fill="#666666" stroke="#666666" points="15,-561.5 15,-561.5 108,-561.5 108,-561.5 15,-561.5"/>
<polygon fill="none" stroke="#666666" points="0,-395 0,-654 108,-654 108,-395 0,-395"/>
</a>
</g>
</g>
<!-- Node3&#45;&gt;Node2 -->
<g id="edge2_Node000002_Node000003" class="edge">
<title>Node3&#45;&gt;Node2</title>
<g id="a_edge2_Node000002_Node000003"><a xlink:title=" ">
<path fill="none" stroke="#63b8ff" d="M54,-384.85C54,-376.22 54,-367.61 54,-359.16"/>
<polygon fill="none" stroke="#63b8ff" points="50.5,-384.98 54,-394.98 57.5,-384.98 50.5,-384.98"/>
</a>
</g>
</g>
<!-- Node4 -->
<g id="Node000004" class="node">
<title>Node4</title>
<g id="a_Node000004"><a xlink:href="../../d8/d4f/classiot_1_1ProtocolAwareDevice.html" target="_top" xlink:title=" ">
<polygon fill="white" stroke="transparent" points="268,-351.5 126,-351.5 126,-152.5 268,-152.5 268,-351.5"/>
<text text-anchor="start" x="135" y="-339" font-family="Helvetica,sans-Serif" font-size="10.00">iot::ProtocolAwareDevice</text>
<text text-anchor="start" x="130" y="-324" font-family="Helvetica,sans-Serif" font-size="10.00">#</text>
<text text-anchor="start" x="143" y="-324" font-family="Helvetica,sans-Serif" font-size="10.00">protocol</text>
<text text-anchor="start" x="130" y="-309" font-family="Helvetica,sans-Serif" font-size="10.00">#</text>
<text text-anchor="start" x="143" y="-309" font-family="Helvetica,sans-Serif" font-size="10.00">batteryLevel</text>
<text text-anchor="start" x="130" y="-294" font-family="Helvetica,sans-Serif" font-size="10.00">#</text>
<text text-anchor="start" x="143" y="-294" font-family="Helvetica,sans-Serif" font-size="10.00">lowPowerMode</text>
<text text-anchor="start" x="130" y="-279" font-family="Helvetica,sans-Serif" font-size="10.00">+</text>
<text text-anchor="start" x="143" y="-279" font-family="Helvetica,sans-Serif" font-size="10.00">ProtocolAwareDevice()</text>
<text text-anchor="start" x="130" y="-264" font-family="Helvetica,sans-Serif" font-size="10.00">+</text>
<text text-anchor="start" x="143" y="-264" font-family="Helvetica,sans-Serif" font-size="10.00">~ProtocolAwareDevice()</text>
<text text-anchor="start" x="130" y="-249" font-family="Helvetica,sans-Serif" font-size="10.00">+</text>
<text text-anchor="start" x="143" y="-249" font-family="Helvetica,sans-Serif" font-size="10.00">enterLowPowerMode()</text>
<text text-anchor="start" x="130" y="-234" font-family="Helvetica,sans-Serif" font-size="10.00">+</text>
<text text-anchor="start" x="143" y="-234" font-family="Helvetica,sans-Serif" font-size="10.00">exitLowPowerMode()</text>
<text text-anchor="start" x="130" y="-219" font-family="Helvetica,sans-Serif" font-size="10.00">+</text>
<text text-anchor="start" x="143" y="-219" font-family="Helvetica,sans-Serif" font-size="10.00">consumeBattery()</text>
<text text-anchor="start" x="130" y="-204" font-family="Helvetica,sans-Serif" font-size="10.00">+</text>
<text text-anchor="start" x="143" y="-204" font-family="Helvetica,sans-Serif" font-size="10.00">getBatteryLevel()</text>
<text text-anchor="start" x="130" y="-189" font-family="Helvetica,sans-Serif" font-size="10.00">+</text>
<text text-anchor="start" x="143" y="-189" font-family="Helvetica,sans-Serif" font-size="10.00">getProtocol()</text>
<text text-anchor="start" x="130" y="-174" font-family="Helvetica,sans-Serif" font-size="10.00">+</text>
<text text-anchor="start" x="143" y="-174" font-family="Helvetica,sans-Serif" font-size="10.00">isInLowPowerMode()</text>
<text text-anchor="start" x="130" y="-159" font-family="Helvetica,sans-Serif" font-size="10.00">+</text>
<text text-anchor="start" x="143" y="-159" font-family="Helvetica,sans-Serif" font-size="10.00">getProtocolName()</text>
<polygon fill="#666666" stroke="#666666" points="126,-334 126,-334 268,-334 268,-334 126,-334"/>
<polygon fill="#666666" stroke="#666666" points="126,-289 126,-289 141,-289 141,-289 126,-289"/>
<polygon fill="#666666" stroke="#666666" points="141,-289 141,-289 268,-289 268,-289 141,-289"/>
<polygon fill="none" stroke="#666666" points="126,-152.5 126,-351.5 268,-351.5 268,-152.5 126,-152.5"/>
</a>
</g>
</g>
<!-- Node4&#45;&gt;Node1 -->
<g id="edge3_Node000001_Node000004" class="edge">
<title>Node4&#45;&gt;Node1</title>
<g id="a_edge3_Node000001_Node000004"><a xlink:title=" ">
<path fill="none" stroke="#63b8ff" d="M157.22,-142.98C152.91,-131.28 148.67,-119.78 144.76,-109.16"/>
<polygon fill="none" stroke="#63b8ff" points="153.94,-144.22 160.68,-152.39 160.51,-141.8 153.94,-144.22"/>
</a>
</g>
</g>
</g>
</svg>
