<?xml version="1.0" encoding="UTF-8" standalone="no"?>
<!DOCTYPE svg PUBLIC "-//W3C//DTD SVG 1.1//EN"
 "http://www.w3.org/Graphics/SVG/1.1/DTD/svg11.dtd">
<!-- Generated by graphviz version 2.43.0 (0)
 -->
<!-- Title: include/network/NetworkManager.h Pages: 1 -->
<svg width="603pt" height="280pt"
 viewBox="0.00 0.00 602.91 280.00" xmlns="http://www.w3.org/2000/svg" xmlns:xlink="http://www.w3.org/1999/xlink">
<g id="graph0" class="graph" transform="scale(1 1) rotate(0) translate(4 276)">
<title>include/network/NetworkManager.h</title>
<!-- Node1 -->
<g id="Node000001" class="node">
<title>Node1</title>
<g id="a_Node000001"><a xlink:title=" ">
<polygon fill="#999999" stroke="#666666" points="285.41,-272 95.41,-272 95.41,-253 285.41,-253 285.41,-272"/>
<text text-anchor="middle" x="190.41" y="-260" font-family="Helvetica,sans-Serif" font-size="10.00">include/network/NetworkManager.h</text>
</a>
</g>
</g>
<!-- Node2 -->
<g id="Node000002" class="node">
<title>Node2</title>
<g id="a_Node000002"><a xlink:href="../../d2/d1b/ProtocolAwareDevice_8h.html" target="_top" xlink:title=" ">
<polygon fill="white" stroke="#666666" points="160.91,-151 25.91,-151 25.91,-121 160.91,-121 160.91,-151"/>
<text text-anchor="start" x="33.91" y="-139" font-family="Helvetica,sans-Serif" font-size="10.00">include/devices/Protocol</text>
<text text-anchor="middle" x="93.41" y="-128" font-family="Helvetica,sans-Serif" font-size="10.00">AwareDevice.h</text>
</a>
</g>
</g>
<!-- Node1&#45;&gt;Node2 -->
<g id="edge1_Node000001_Node000002" class="edge">
<title>Node1&#45;&gt;Node2</title>
<g id="a_edge1_Node000001_Node000002"><a xlink:title=" ">
<path fill="none" stroke="#63b8ff" d="M155.31,-248.95C140.02,-241.81 123.17,-231.36 112.41,-217 97.78,-197.46 94.21,-168.33 93.46,-151.14"/>
<polygon fill="#63b8ff" stroke="#63b8ff" points="154,-252.2 164.56,-252.98 156.79,-245.78 154,-252.2"/>
</a>
</g>
</g>
<!-- Node4 -->
<g id="Node000004" class="node">
<title>Node4</title>
<g id="a_Node000004"><a xlink:href="../../df/d0a/main_8cpp.html" target="_top" xlink:title=" ">
<polygon fill="white" stroke="#666666" points="180.91,-19 101.91,-19 101.91,0 180.91,0 180.91,-19"/>
<text text-anchor="middle" x="141.41" y="-7" font-family="Helvetica,sans-Serif" font-size="10.00">src/main.cpp</text>
</a>
</g>
</g>
<!-- Node1&#45;&gt;Node4 -->
<g id="edge11_Node000001_Node000004" class="edge">
<title>Node1&#45;&gt;Node4</title>
<g id="a_edge11_Node000001_Node000004"><a xlink:title=" ">
<path fill="none" stroke="#63b8ff" d="M149.31,-249.73C106.22,-234.81 41.37,-204.38 16.41,-151 -1.66,-112.35 -8.19,-89.86 16.41,-55 35.6,-27.8 72.95,-17.13 101.85,-12.99"/>
<polygon fill="#63b8ff" stroke="#63b8ff" points="148.36,-253.1 158.95,-252.93 150.56,-246.46 148.36,-253.1"/>
</a>
</g>
</g>
<!-- Node5 -->
<g id="Node000005" class="node">
<title>Node5</title>
<g id="a_Node000005"><a xlink:href="../../de/d44/ProtocolCharacteristics_8h.html" target="_top" xlink:title=" ">
<polygon fill="white" stroke="#666666" points="258.91,-217 121.91,-217 121.91,-187 258.91,-187 258.91,-217"/>
<text text-anchor="start" x="129.91" y="-205" font-family="Helvetica,sans-Serif" font-size="10.00">include/network/Protocol</text>
<text text-anchor="middle" x="190.41" y="-194" font-family="Helvetica,sans-Serif" font-size="10.00">Characteristics.h</text>
</a>
</g>
</g>
<!-- Node1&#45;&gt;Node5 -->
<g id="edge4_Node000001_Node000005" class="edge">
<title>Node1&#45;&gt;Node5</title>
<g id="a_edge4_Node000001_Node000005"><a xlink:title=" ">
<path fill="none" stroke="#63b8ff" d="M190.41,-242.65C190.41,-234.36 190.41,-224.78 190.41,-217.11"/>
<polygon fill="#63b8ff" stroke="#63b8ff" points="186.91,-242.87 190.41,-252.87 193.91,-242.87 186.91,-242.87"/>
</a>
</g>
</g>
<!-- Node6 -->
<g id="Node000006" class="node">
<title>Node6</title>
<g id="a_Node000006"><a xlink:href="../../d2/ddd/NetworkManager_8cpp.html" target="_top" xlink:title=" ">
<polygon fill="white" stroke="#666666" points="397.41,-145.5 217.41,-145.5 217.41,-126.5 397.41,-126.5 397.41,-145.5"/>
<text text-anchor="middle" x="307.41" y="-133.5" font-family="Helvetica,sans-Serif" font-size="10.00">src/network/NetworkManager.cpp</text>
</a>
</g>
</g>
<!-- Node1&#45;&gt;Node6 -->
<g id="edge12_Node000001_Node000006" class="edge">
<title>Node1&#45;&gt;Node6</title>
<g id="a_edge12_Node000001_Node000006"><a xlink:title=" ">
<path fill="none" stroke="#63b8ff" d="M221.73,-248.6C236.97,-241.13 254.7,-230.5 267.41,-217 287.74,-195.4 300,-161.5 304.91,-145.68"/>
<polygon fill="#63b8ff" stroke="#63b8ff" points="220.21,-245.45 212.63,-252.85 223.17,-251.79 220.21,-245.45"/>
</a>
</g>
</g>
<!-- Node7 -->
<g id="Node000007" class="node">
<title>Node7</title>
<g id="a_Node000007"><a xlink:href="../../d8/dee/SimulationEngine_8h.html" target="_top" xlink:title=" ">
<polygon fill="white" stroke="#666666" points="482.41,-217 368.41,-217 368.41,-187 482.41,-187 482.41,-217"/>
<text text-anchor="start" x="376.41" y="-205" font-family="Helvetica,sans-Serif" font-size="10.00">include/simulation</text>
<text text-anchor="middle" x="425.41" y="-194" font-family="Helvetica,sans-Serif" font-size="10.00">/SimulationEngine.h</text>
</a>
</g>
</g>
<!-- Node1&#45;&gt;Node7 -->
<g id="edge8_Node000001_Node000007" class="edge">
<title>Node1&#45;&gt;Node7</title>
<g id="a_edge8_Node000001_Node000007"><a xlink:title=" ">
<path fill="none" stroke="#63b8ff" d="M234.34,-250.56C272.37,-241.1 327.6,-227.35 368.91,-217.06"/>
<polygon fill="#63b8ff" stroke="#63b8ff" points="233.44,-247.18 224.58,-252.99 235.13,-253.97 233.44,-247.18"/>
</a>
</g>
</g>
<!-- Node3 -->
<g id="Node000003" class="node">
<title>Node3</title>
<g id="a_Node000003"><a xlink:href="../../dd/da3/ProtocolSensors_8h.html" target="_top" xlink:title=" ">
<polygon fill="white" stroke="#666666" points="160.91,-85 25.91,-85 25.91,-55 160.91,-55 160.91,-85"/>
<text text-anchor="start" x="33.91" y="-73" font-family="Helvetica,sans-Serif" font-size="10.00">include/devices/Protocol</text>
<text text-anchor="middle" x="93.41" y="-62" font-family="Helvetica,sans-Serif" font-size="10.00">Sensors.h</text>
</a>
</g>
</g>
<!-- Node2&#45;&gt;Node3 -->
<g id="edge2_Node000002_Node000003" class="edge">
<title>Node2&#45;&gt;Node3</title>
<g id="a_edge2_Node000002_Node000003"><a xlink:title=" ">
<path fill="none" stroke="#63b8ff" d="M93.41,-110.54C93.41,-101.96 93.41,-92.61 93.41,-85.16"/>
<polygon fill="#63b8ff" stroke="#63b8ff" points="89.91,-110.8 93.41,-120.8 96.91,-110.8 89.91,-110.8"/>
</a>
</g>
</g>
<!-- Node3&#45;&gt;Node4 -->
<g id="edge3_Node000003_Node000004" class="edge">
<title>Node3&#45;&gt;Node4</title>
<g id="a_edge3_Node000003_Node000004"><a xlink:title=" ">
<path fill="none" stroke="#63b8ff" d="M111.39,-47.09C119.32,-37.42 128.19,-26.61 134.22,-19.27"/>
<polygon fill="#63b8ff" stroke="#63b8ff" points="108.67,-44.89 105.03,-54.84 114.08,-49.33 108.67,-44.89"/>
</a>
</g>
</g>
<!-- Node5&#45;&gt;Node2 -->
<g id="edge5_Node000005_Node000002" class="edge">
<title>Node5&#45;&gt;Node2</title>
<g id="a_edge5_Node000005_Node000002"><a xlink:title=" ">
<path fill="none" stroke="#63b8ff" d="M160.14,-181.03C145.46,-171.34 128.18,-159.94 114.88,-151.16"/>
<polygon fill="#63b8ff" stroke="#63b8ff" points="158.61,-184.21 168.88,-186.8 162.46,-178.37 158.61,-184.21"/>
</a>
</g>
</g>
<!-- Node5&#45;&gt;Node4 -->
<g id="edge6_Node000005_Node000004" class="edge">
<title>Node5&#45;&gt;Node4</title>
<g id="a_edge6_Node000005_Node000004"><a xlink:title=" ">
<path fill="none" stroke="#63b8ff" d="M189.98,-176.6C188.77,-146.99 184.45,-95.92 169.41,-55 164.43,-41.46 154.93,-27.69 148.39,-19.12"/>
<polygon fill="#63b8ff" stroke="#63b8ff" points="186.49,-176.96 190.31,-186.84 193.49,-176.73 186.49,-176.96"/>
</a>
</g>
</g>
<!-- Node5&#45;&gt;Node6 -->
<g id="edge7_Node000005_Node000006" class="edge">
<title>Node5&#45;&gt;Node6</title>
<g id="a_edge7_Node000005_Node000006"><a xlink:title=" ">
<path fill="none" stroke="#63b8ff" d="M224.89,-182.14C247.08,-170 274.84,-154.82 291.84,-145.52"/>
<polygon fill="#63b8ff" stroke="#63b8ff" points="223.18,-179.09 216.08,-186.95 226.54,-185.23 223.18,-179.09"/>
</a>
</g>
</g>
<!-- Node7&#45;&gt;Node4 -->
<g id="edge9_Node000007_Node000004" class="edge">
<title>Node7&#45;&gt;Node4</title>
<g id="a_edge9_Node000007_Node000004"><a xlink:title=" ">
<path fill="none" stroke="#63b8ff" d="M425.25,-176.39C423.89,-159.08 419.45,-136.35 406.41,-121 347.98,-52.25 239.7,-25.48 181.27,-15.69"/>
<polygon fill="#63b8ff" stroke="#63b8ff" points="421.77,-177.04 425.75,-186.86 428.76,-176.7 421.77,-177.04"/>
</a>
</g>
</g>
<!-- Node8 -->
<g id="Node000008" class="node">
<title>Node8</title>
<g id="a_Node000008"><a xlink:href="../../d8/dff/SimulationEngine_8cpp.html" target="_top" xlink:title=" ">
<polygon fill="white" stroke="#666666" points="594.91,-151 453.91,-151 453.91,-121 594.91,-121 594.91,-151"/>
<text text-anchor="start" x="461.91" y="-139" font-family="Helvetica,sans-Serif" font-size="10.00">src/simulation/Simulation</text>
<text text-anchor="middle" x="524.41" y="-128" font-family="Helvetica,sans-Serif" font-size="10.00">Engine.cpp</text>
</a>
</g>
</g>
<!-- Node7&#45;&gt;Node8 -->
<g id="edge10_Node000007_Node000008" class="edge">
<title>Node7&#45;&gt;Node8</title>
<g id="a_edge10_Node000007_Node000008"><a xlink:title=" ">
<path fill="none" stroke="#63b8ff" d="M455.88,-181.3C470.95,-171.56 488.8,-160.02 502.5,-151.16"/>
<polygon fill="#63b8ff" stroke="#63b8ff" points="453.88,-178.43 447.38,-186.8 457.68,-184.31 453.88,-178.43"/>
</a>
</g>
</g>
</g>
</svg>
