<?xml version="1.0" encoding="UTF-8" standalone="no"?>
<!DOCTYPE svg PUBLIC "-//W3C//DTD SVG 1.1//EN"
 "http://www.w3.org/Graphics/SVG/1.1/DTD/svg11.dtd">
<!-- Generated by graphviz version 2.43.0 (0)
 -->
<!-- Title: src/network/MeshNetwork.cpp Pages: 1 -->
<svg width="438pt" height="148pt"
 viewBox="0.00 0.00 438.00 148.00" xmlns="http://www.w3.org/2000/svg" xmlns:xlink="http://www.w3.org/1999/xlink">
<g id="graph0" class="graph" transform="scale(1 1) rotate(0) translate(4 144)">
<title>src/network/MeshNetwork.cpp</title>
<!-- Node1 -->
<g id="Node000001" class="node">
<title>Node1</title>
<g id="a_Node000001"><a xlink:title=" ">
<polygon fill="#999999" stroke="#666666" points="370,-140 206,-140 206,-121 370,-121 370,-140"/>
<text text-anchor="middle" x="288" y="-128" font-family="Helvetica,sans-Serif" font-size="10.00">src/network/MeshNetwork.cpp</text>
</a>
</g>
</g>
<!-- Node2 -->
<g id="Node000002" class="node">
<title>Node2</title>
<g id="a_Node000002"><a xlink:href="../../d0/d9e/MeshNetwork_8h.html" target="_top" xlink:title=" ">
<polygon fill="white" stroke="#666666" points="203.5,-85 90.5,-85 90.5,-55 203.5,-55 203.5,-85"/>
<text text-anchor="start" x="98.5" y="-73" font-family="Helvetica,sans-Serif" font-size="10.00">../../include/network</text>
<text text-anchor="middle" x="147" y="-62" font-family="Helvetica,sans-Serif" font-size="10.00">/MeshNetwork.h</text>
</a>
</g>
</g>
<!-- Node1&#45;&gt;Node2 -->
<g id="edge1_Node000001_Node000002" class="edge">
<title>Node1&#45;&gt;Node2</title>
<g id="a_edge1_Node000001_Node000002"><a xlink:title=" ">
<path fill="none" stroke="#63b8ff" d="M267.5,-120.99C247.38,-112.65 216.08,-99.66 190.42,-89.02"/>
<polygon fill="#63b8ff" stroke="#63b8ff" points="191.48,-85.66 180.9,-85.06 188.79,-92.13 191.48,-85.66"/>
</a>
</g>
</g>
<!-- Node8 -->
<g id="Node000008" class="node">
<title>Node8</title>
<g id="a_Node000008"><a xlink:title=" ">
<polygon fill="#e0e0e0" stroke="#999999" points="282,-79.5 222,-79.5 222,-60.5 282,-60.5 282,-79.5"/>
<text text-anchor="middle" x="252" y="-67.5" font-family="Helvetica,sans-Serif" font-size="10.00">iostream</text>
</a>
</g>
</g>
<!-- Node1&#45;&gt;Node8 -->
<g id="edge7_Node000001_Node000008" class="edge">
<title>Node1&#45;&gt;Node8</title>
<g id="a_edge7_Node000001_Node000008"><a xlink:title=" ">
<path fill="none" stroke="#63b8ff" d="M282.69,-120.87C277.42,-112.31 269.21,-98.97 262.61,-88.24"/>
<polygon fill="#63b8ff" stroke="#63b8ff" points="265.56,-86.35 257.33,-79.67 259.59,-90.02 265.56,-86.35"/>
</a>
</g>
</g>
<!-- Node9 -->
<g id="Node000009" class="node">
<title>Node9</title>
<g id="a_Node000009"><a xlink:title=" ">
<polygon fill="#e0e0e0" stroke="#999999" points="347.5,-79.5 300.5,-79.5 300.5,-60.5 347.5,-60.5 347.5,-79.5"/>
<text text-anchor="middle" x="324" y="-67.5" font-family="Helvetica,sans-Serif" font-size="10.00">queue</text>
</a>
</g>
</g>
<!-- Node1&#45;&gt;Node9 -->
<g id="edge8_Node000001_Node000009" class="edge">
<title>Node1&#45;&gt;Node9</title>
<g id="a_edge8_Node000001_Node000009"><a xlink:title=" ">
<path fill="none" stroke="#63b8ff" d="M293.31,-120.87C298.58,-112.31 306.79,-98.97 313.39,-88.24"/>
<polygon fill="#63b8ff" stroke="#63b8ff" points="316.41,-90.02 318.67,-79.67 310.44,-86.35 316.41,-90.02"/>
</a>
</g>
</g>
<!-- Node10 -->
<g id="Node000010" class="node">
<title>Node10</title>
<g id="a_Node000010"><a xlink:title=" ">
<polygon fill="#e0e0e0" stroke="#999999" points="430,-79.5 366,-79.5 366,-60.5 430,-60.5 430,-79.5"/>
<text text-anchor="middle" x="398" y="-67.5" font-family="Helvetica,sans-Serif" font-size="10.00">algorithm</text>
</a>
</g>
</g>
<!-- Node1&#45;&gt;Node10 -->
<g id="edge9_Node000001_Node000010" class="edge">
<title>Node1&#45;&gt;Node10</title>
<g id="a_edge9_Node000001_Node000010"><a xlink:title=" ">
<path fill="none" stroke="#63b8ff" d="M304.23,-120.87C322.27,-111.28 351.62,-95.67 372.68,-84.47"/>
<polygon fill="#63b8ff" stroke="#63b8ff" points="374.52,-87.45 381.7,-79.67 371.23,-81.27 374.52,-87.45"/>
</a>
</g>
</g>
<!-- Node3 -->
<g id="Node000003" class="node">
<title>Node3</title>
<g id="a_Node000003"><a xlink:title=" ">
<polygon fill="#e0e0e0" stroke="#999999" points="44,-19 0,-19 0,0 44,0 44,-19"/>
<text text-anchor="middle" x="22" y="-7" font-family="Helvetica,sans-Serif" font-size="10.00">string</text>
</a>
</g>
</g>
<!-- Node2&#45;&gt;Node3 -->
<g id="edge2_Node000002_Node000003" class="edge">
<title>Node2&#45;&gt;Node3</title>
<g id="a_edge2_Node000002_Node000003"><a xlink:title=" ">
<path fill="none" stroke="#63b8ff" d="M117.06,-54.99C96.58,-45.4 69.62,-32.79 49.65,-23.44"/>
<polygon fill="#63b8ff" stroke="#63b8ff" points="51,-20.21 40.46,-19.14 48.03,-26.55 51,-20.21"/>
</a>
</g>
</g>
<!-- Node4 -->
<g id="Node000004" class="node">
<title>Node4</title>
<g id="a_Node000004"><a xlink:title=" ">
<polygon fill="#e0e0e0" stroke="#999999" points="109.5,-19 62.5,-19 62.5,0 109.5,0 109.5,-19"/>
<text text-anchor="middle" x="86" y="-7" font-family="Helvetica,sans-Serif" font-size="10.00">vector</text>
</a>
</g>
</g>
<!-- Node2&#45;&gt;Node4 -->
<g id="edge3_Node000002_Node000004" class="edge">
<title>Node2&#45;&gt;Node4</title>
<g id="a_edge3_Node000002_Node000004"><a xlink:title=" ">
<path fill="none" stroke="#63b8ff" d="M132.23,-54.84C123.29,-46.26 111.86,-35.3 102.6,-26.42"/>
<polygon fill="#63b8ff" stroke="#63b8ff" points="104.78,-23.66 95.14,-19.27 99.94,-28.71 104.78,-23.66"/>
</a>
</g>
</g>
<!-- Node5 -->
<g id="Node000005" class="node">
<title>Node5</title>
<g id="a_Node000005"><a xlink:title=" ">
<polygon fill="#e0e0e0" stroke="#999999" points="166,-19 128,-19 128,0 166,0 166,-19"/>
<text text-anchor="middle" x="147" y="-7" font-family="Helvetica,sans-Serif" font-size="10.00">map</text>
</a>
</g>
</g>
<!-- Node2&#45;&gt;Node5 -->
<g id="edge4_Node000002_Node000005" class="edge">
<title>Node2&#45;&gt;Node5</title>
<g id="a_edge4_Node000002_Node000005"><a xlink:title=" ">
<path fill="none" stroke="#63b8ff" d="M147,-54.84C147,-47.21 147,-37.7 147,-29.45"/>
<polygon fill="#63b8ff" stroke="#63b8ff" points="150.5,-29.27 147,-19.27 143.5,-29.27 150.5,-29.27"/>
</a>
</g>
</g>
<!-- Node6 -->
<g id="Node000006" class="node">
<title>Node6</title>
<g id="a_Node000006"><a xlink:title=" ">
<polygon fill="#e0e0e0" stroke="#999999" points="242,-19 184,-19 184,0 242,0 242,-19"/>
<text text-anchor="middle" x="213" y="-7" font-family="Helvetica,sans-Serif" font-size="10.00">memory</text>
</a>
</g>
</g>
<!-- Node2&#45;&gt;Node6 -->
<g id="edge5_Node000002_Node000006" class="edge">
<title>Node2&#45;&gt;Node6</title>
<g id="a_edge5_Node000002_Node000006"><a xlink:title=" ">
<path fill="none" stroke="#63b8ff" d="M162.98,-54.84C172.75,-46.17 185.27,-35.08 195.34,-26.15"/>
<polygon fill="#63b8ff" stroke="#63b8ff" points="197.95,-28.52 203.11,-19.27 193.31,-23.28 197.95,-28.52"/>
</a>
</g>
</g>
<!-- Node7 -->
<g id="Node000007" class="node">
<title>Node7</title>
<g id="a_Node000007"><a xlink:title=" ">
<polygon fill="#e0e0e0" stroke="#999999" points="292,-19 260,-19 260,0 292,0 292,-19"/>
<text text-anchor="middle" x="276" y="-7" font-family="Helvetica,sans-Serif" font-size="10.00">set</text>
</a>
</g>
</g>
<!-- Node2&#45;&gt;Node7 -->
<g id="edge6_Node000002_Node000007" class="edge">
<title>Node2&#45;&gt;Node7</title>
<g id="a_edge6_Node000002_Node000007"><a xlink:title=" ">
<path fill="none" stroke="#63b8ff" d="M177.9,-54.99C200.16,-44.89 229.84,-31.43 250.7,-21.97"/>
<polygon fill="#63b8ff" stroke="#63b8ff" points="252.22,-25.13 259.88,-17.81 249.33,-18.75 252.22,-25.13"/>
</a>
</g>
</g>
</g>
</svg>
