<?xml version="1.0" encoding="UTF-8" standalone="no"?>
<!DOCTYPE svg PUBLIC "-//W3C//DTD SVG 1.1//EN"
 "http://www.w3.org/Graphics/SVG/1.1/DTD/svg11.dtd">
<!-- Generated by graphviz version 2.43.0 (0)
 -->
<!-- Title: include/devices/Actuator.h Pages: 1 -->
<svg width="398pt" height="148pt"
 viewBox="0.00 0.00 398.00 148.00" xmlns="http://www.w3.org/2000/svg" xmlns:xlink="http://www.w3.org/1999/xlink">
<g id="graph0" class="graph" transform="scale(1 1) rotate(0) translate(4 144)">
<title>include/devices/Actuator.h</title>
<!-- Node1 -->
<g id="Node000001" class="node">
<title>Node1</title>
<g id="a_Node000001"><a xlink:title=" ">
<polygon fill="#999999" stroke="#666666" points="317,-140 172,-140 172,-121 317,-121 317,-140"/>
<text text-anchor="middle" x="244.5" y="-128" font-family="Helvetica,sans-Serif" font-size="10.00">include/devices/Actuator.h</text>
</a>
</g>
</g>
<!-- Node2 -->
<g id="Node000002" class="node">
<title>Node2</title>
<g id="a_Node000002"><a xlink:href="../../d6/de2/ConcreteActuators_8h.html" target="_top" xlink:title=" ">
<polygon fill="white" stroke="#666666" points="237,-85 98,-85 98,-55 237,-55 237,-85"/>
<text text-anchor="start" x="106" y="-73" font-family="Helvetica,sans-Serif" font-size="10.00">include/devices/Concrete</text>
<text text-anchor="middle" x="167.5" y="-62" font-family="Helvetica,sans-Serif" font-size="10.00">Actuators.h</text>
</a>
</g>
</g>
<!-- Node1&#45;&gt;Node2 -->
<g id="edge1_Node000001_Node000002" class="edge">
<title>Node1&#45;&gt;Node2</title>
<g id="a_edge1_Node000001_Node000002"><a xlink:title=" ">
<path fill="none" stroke="#63b8ff" d="M225.11,-114.77C213.15,-105.68 197.89,-94.09 186.08,-85.11"/>
<polygon fill="#63b8ff" stroke="#63b8ff" points="223.06,-117.61 233.14,-120.87 227.29,-112.03 223.06,-117.61"/>
</a>
</g>
</g>
<!-- Node5 -->
<g id="Node000005" class="node">
<title>Node5</title>
<g id="a_Node000005"><a xlink:href="../../d3/d47/Actuator_8cpp.html" target="_top" xlink:title=" ">
<polygon fill="white" stroke="#666666" points="390,-79.5 255,-79.5 255,-60.5 390,-60.5 390,-79.5"/>
<text text-anchor="middle" x="322.5" y="-67.5" font-family="Helvetica,sans-Serif" font-size="10.00">src/devices/Actuator.cpp</text>
</a>
</g>
</g>
<!-- Node1&#45;&gt;Node5 -->
<g id="edge4_Node000001_Node000005" class="edge">
<title>Node1&#45;&gt;Node5</title>
<g id="a_edge4_Node000001_Node000005"><a xlink:title=" ">
<path fill="none" stroke="#63b8ff" d="M264.04,-114.85C278.81,-103.77 298.6,-88.93 310.94,-79.67"/>
<polygon fill="#63b8ff" stroke="#63b8ff" points="261.91,-112.07 256.01,-120.87 266.11,-117.67 261.91,-112.07"/>
</a>
</g>
</g>
<!-- Node3 -->
<g id="Node000003" class="node">
<title>Node3</title>
<g id="a_Node000003"><a xlink:href="../../d5/d4b/ConcreteActuators_8cpp.html" target="_top" xlink:title=" ">
<polygon fill="white" stroke="#666666" points="185,-19 0,-19 0,0 185,0 185,-19"/>
<text text-anchor="middle" x="92.5" y="-7" font-family="Helvetica,sans-Serif" font-size="10.00">src/devices/ConcreteActuators.cpp</text>
</a>
</g>
</g>
<!-- Node2&#45;&gt;Node3 -->
<g id="edge2_Node000002_Node000003" class="edge">
<title>Node2&#45;&gt;Node3</title>
<g id="a_edge2_Node000002_Node000003"><a xlink:title=" ">
<path fill="none" stroke="#63b8ff" d="M141.26,-48.53C128.41,-38.51 113.63,-26.98 103.74,-19.27"/>
<polygon fill="#63b8ff" stroke="#63b8ff" points="139.31,-51.45 149.34,-54.84 143.61,-45.93 139.31,-51.45"/>
</a>
</g>
</g>
<!-- Node4 -->
<g id="Node000004" class="node">
<title>Node4</title>
<g id="a_Node000004"><a xlink:href="../../df/d0a/main_8cpp.html" target="_top" xlink:title=" ">
<polygon fill="white" stroke="#666666" points="282,-19 203,-19 203,0 282,0 282,-19"/>
<text text-anchor="middle" x="242.5" y="-7" font-family="Helvetica,sans-Serif" font-size="10.00">src/main.cpp</text>
</a>
</g>
</g>
<!-- Node2&#45;&gt;Node4 -->
<g id="edge3_Node000002_Node000004" class="edge">
<title>Node2&#45;&gt;Node4</title>
<g id="a_edge3_Node000002_Node000004"><a xlink:title=" ">
<path fill="none" stroke="#63b8ff" d="M193.74,-48.53C206.59,-38.51 221.37,-26.98 231.26,-19.27"/>
<polygon fill="#63b8ff" stroke="#63b8ff" points="191.39,-45.93 185.66,-54.84 195.69,-51.45 191.39,-45.93"/>
</a>
</g>
</g>
</g>
</svg>
