<?xml version="1.0" encoding="UTF-8" standalone="no"?>
<!DOCTYPE svg PUBLIC "-//W3C//DTD SVG 1.1//EN"
 "http://www.w3.org/Graphics/SVG/1.1/DTD/svg11.dtd">
<!-- Generated by graphviz version 2.43.0 (0)
 -->
<!-- Title: main Pages: 1 -->
<svg width="415pt" height="728pt"
 viewBox="0.00 0.00 415.00 728.00" xmlns="http://www.w3.org/2000/svg" xmlns:xlink="http://www.w3.org/1999/xlink">
<g id="graph0" class="graph" transform="scale(1 1) rotate(0) translate(4 724)">
<title>main</title>
<!-- Node1 -->
<g id="Node000001" class="node">
<title>Node1</title>
<g id="a_Node000001"><a xlink:title=" ">
<polygon fill="#999999" stroke="#666666" points="41,-371.5 0,-371.5 0,-352.5 41,-352.5 41,-371.5"/>
<text text-anchor="middle" x="20.5" y="-359.5" font-family="Helvetica,sans-Serif" font-size="10.00">main</text>
</a>
</g>
</g>
<!-- Node2 -->
<g id="Node000002" class="node">
<title>Node2</title>
<g id="a_Node000002"><a xlink:href="../../d2/d28/classiot_1_1SecurityManager.html#a8e7464c2d749fefb84013e8f533bfaee" target="_top" xlink:title="Authenticate a device.">
<polygon fill="white" stroke="#666666" points="218,-720 100,-720 100,-690 218,-690 218,-720"/>
<text text-anchor="start" x="108" y="-708" font-family="Helvetica,sans-Serif" font-size="10.00">iot::SecurityManager</text>
<text text-anchor="middle" x="159" y="-697" font-family="Helvetica,sans-Serif" font-size="10.00">::authenticateDevice</text>
</a>
</g>
</g>
<!-- Node1&#45;&gt;Node2 -->
<g id="edge1_Node000001_Node000002" class="edge">
<title>Node1&#45;&gt;Node2</title>
<g id="a_edge1_Node000001_Node000002"><a xlink:title=" ">
<path fill="none" stroke="#63b8ff" d="M21.84,-371.52C23.75,-419.38 34.57,-633.35 77,-681 80.94,-685.42 85.64,-689.04 90.78,-692.01"/>
<polygon fill="#63b8ff" stroke="#63b8ff" points="89.26,-695.16 99.78,-696.41 92.33,-688.87 89.26,-695.16"/>
</a>
</g>
</g>
<!-- Node3 -->
<g id="Node000003" class="node">
<title>Node3</title>
<g id="a_Node000003"><a xlink:href="../../d2/d28/classiot_1_1SecurityManager.html#a4583af6732d924364a0495fcba57c1bb" target="_top" xlink:title="Simulate message decryption.">
<polygon fill="white" stroke="#666666" points="218,-672 100,-672 100,-642 218,-642 218,-672"/>
<text text-anchor="start" x="108" y="-660" font-family="Helvetica,sans-Serif" font-size="10.00">iot::SecurityManager</text>
<text text-anchor="middle" x="159" y="-649" font-family="Helvetica,sans-Serif" font-size="10.00">::decryptMessage</text>
</a>
</g>
</g>
<!-- Node1&#45;&gt;Node3 -->
<g id="edge2_Node000001_Node000003" class="edge">
<title>Node1&#45;&gt;Node3</title>
<g id="a_edge2_Node000001_Node000003"><a xlink:title=" ">
<path fill="none" stroke="#63b8ff" d="M22.26,-371.56C25.83,-414.38 42.31,-588.15 77,-628 80.96,-632.55 85.68,-636.38 90.83,-639.61"/>
<polygon fill="#63b8ff" stroke="#63b8ff" points="89.38,-642.81 99.84,-644.51 92.72,-636.66 89.38,-642.81"/>
</a>
</g>
</g>
<!-- Node4 -->
<g id="Node000004" class="node">
<title>Node4</title>
<g id="a_Node000004"><a xlink:href="../../d2/d28/classiot_1_1SecurityManager.html#a159de61ef78ac2a184cbc475f343ade8" target="_top" xlink:title="Simulate message encryption.">
<polygon fill="white" stroke="#666666" points="401,-650 283,-650 283,-620 401,-620 401,-650"/>
<text text-anchor="start" x="291" y="-638" font-family="Helvetica,sans-Serif" font-size="10.00">iot::SecurityManager</text>
<text text-anchor="middle" x="342" y="-627" font-family="Helvetica,sans-Serif" font-size="10.00">::encryptMessage</text>
</a>
</g>
</g>
<!-- Node1&#45;&gt;Node4 -->
<g id="edge4_Node000001_Node000004" class="edge">
<title>Node1&#45;&gt;Node4</title>
<g id="a_edge4_Node000001_Node000004"><a xlink:title=" ">
<path fill="none" stroke="#63b8ff" d="M22.38,-371.58C26.24,-411.48 43.03,-563.75 77,-595 104.79,-620.56 204.09,-629.79 272.66,-633.12"/>
<polygon fill="#63b8ff" stroke="#63b8ff" points="272.81,-636.63 282.96,-633.59 273.13,-629.64 272.81,-636.63"/>
</a>
</g>
</g>
<!-- Node5 -->
<g id="Node000005" class="node">
<title>Node5</title>
<g id="a_Node000005"><a xlink:href="../../d8/d4f/classiot_1_1ProtocolAwareDevice.html#aeff96efe6c1829be21d5daa2df3e7c3b" target="_top" xlink:title=" ">
<polygon fill="white" stroke="#666666" points="229,-586 89,-586 89,-556 229,-556 229,-586"/>
<text text-anchor="start" x="97" y="-574" font-family="Helvetica,sans-Serif" font-size="10.00">iot::ProtocolAwareDevice</text>
<text text-anchor="middle" x="159" y="-563" font-family="Helvetica,sans-Serif" font-size="10.00">::getBatteryLevel</text>
</a>
</g>
</g>
<!-- Node1&#45;&gt;Node5 -->
<g id="edge5_Node000001_Node000005" class="edge">
<title>Node1&#45;&gt;Node5</title>
<g id="a_edge5_Node000001_Node000005"><a xlink:title=" ">
<path fill="none" stroke="#63b8ff" d="M21.39,-371.64C21.58,-401.99 26.41,-496.58 77,-547 78.1,-548.1 79.26,-549.15 80.45,-550.15"/>
<polygon fill="#63b8ff" stroke="#63b8ff" points="78.69,-553.19 88.88,-556.1 82.72,-547.47 78.69,-553.19"/>
</a>
</g>
</g>
<!-- Node6 -->
<g id="Node000006" class="node">
<title>Node6</title>
<g id="a_Node000006"><a xlink:href="../../df/dd2/classiot_1_1ConfigManager.html#a67f234cd9fe08d9c6c7247b6d6a40c07" target="_top" xlink:title="Get boolean value.">
<polygon fill="white" stroke="#666666" points="213.5,-538 104.5,-538 104.5,-508 213.5,-508 213.5,-538"/>
<text text-anchor="start" x="112.5" y="-526" font-family="Helvetica,sans-Serif" font-size="10.00">iot::ConfigManager</text>
<text text-anchor="middle" x="159" y="-515" font-family="Helvetica,sans-Serif" font-size="10.00">::getBool</text>
</a>
</g>
</g>
<!-- Node1&#45;&gt;Node6 -->
<g id="edge6_Node000001_Node000006" class="edge">
<title>Node1&#45;&gt;Node6</title>
<g id="a_edge6_Node000001_Node000006"><a xlink:title=" ">
<path fill="none" stroke="#63b8ff" d="M22.54,-371.57C25.77,-396.41 37.85,-463.47 77,-499 82.18,-503.7 88.24,-507.49 94.68,-510.53"/>
<polygon fill="#63b8ff" stroke="#63b8ff" points="93.74,-513.92 104.32,-514.48 96.39,-507.45 93.74,-513.92"/>
</a>
</g>
</g>
<!-- Node7 -->
<g id="Node000007" class="node">
<title>Node7</title>
<g id="a_Node000007"><a xlink:href="../../df/dd2/classiot_1_1ConfigManager.html#ac6c4204466f4328165ed2eb96a28cb70" target="_top" xlink:title="Get double value.">
<polygon fill="white" stroke="#666666" points="213.5,-490 104.5,-490 104.5,-460 213.5,-460 213.5,-490"/>
<text text-anchor="start" x="112.5" y="-478" font-family="Helvetica,sans-Serif" font-size="10.00">iot::ConfigManager</text>
<text text-anchor="middle" x="159" y="-467" font-family="Helvetica,sans-Serif" font-size="10.00">::getDouble</text>
</a>
</g>
</g>
<!-- Node1&#45;&gt;Node7 -->
<g id="edge7_Node000001_Node000007" class="edge">
<title>Node1&#45;&gt;Node7</title>
<g id="a_edge7_Node000001_Node000007"><a xlink:title=" ">
<path fill="none" stroke="#63b8ff" d="M24.85,-371.65C31.69,-389.94 49.04,-429.71 77,-451 82.41,-455.12 88.52,-458.53 94.89,-461.36"/>
<polygon fill="#63b8ff" stroke="#63b8ff" points="93.78,-464.69 104.37,-465.1 96.35,-458.18 93.78,-464.69"/>
</a>
</g>
</g>
<!-- Node8 -->
<g id="Node000008" class="node">
<title>Node8</title>
<g id="a_Node000008"><a xlink:href="../../df/dd2/classiot_1_1ConfigManager.html#a638c5e79fcb079f9dbb3fa6b6c914bd9" target="_top" xlink:title="Get integer value.">
<polygon fill="white" stroke="#666666" points="213.5,-442 104.5,-442 104.5,-412 213.5,-412 213.5,-442"/>
<text text-anchor="start" x="112.5" y="-430" font-family="Helvetica,sans-Serif" font-size="10.00">iot::ConfigManager</text>
<text text-anchor="middle" x="159" y="-419" font-family="Helvetica,sans-Serif" font-size="10.00">::getInt</text>
</a>
</g>
</g>
<!-- Node1&#45;&gt;Node8 -->
<g id="edge8_Node000001_Node000008" class="edge">
<title>Node1&#45;&gt;Node8</title>
<g id="a_edge8_Node000001_Node000008"><a xlink:title=" ">
<path fill="none" stroke="#63b8ff" d="M32.22,-371.71C42.89,-380.92 60.06,-394.56 77,-403 82.6,-405.79 88.58,-408.32 94.67,-410.59"/>
<polygon fill="#63b8ff" stroke="#63b8ff" points="93.67,-413.95 104.26,-413.95 95.99,-407.34 93.67,-413.95"/>
</a>
</g>
</g>
<!-- Node9 -->
<g id="Node000009" class="node">
<title>Node9</title>
<g id="a_Node000009"><a xlink:href="../../df/d2e/namespaceiot.html#a0ec0bed36631b2aa82572a2823ba3abc" target="_top" xlink:title=" ">
<polygon fill="white" stroke="#666666" points="241,-393.5 77,-393.5 77,-374.5 241,-374.5 241,-393.5"/>
<text text-anchor="middle" x="159" y="-381.5" font-family="Helvetica,sans-Serif" font-size="10.00">iot::getProtocolCharacteristics</text>
</a>
</g>
</g>
<!-- Node1&#45;&gt;Node9 -->
<g id="edge9_Node000001_Node000009" class="edge">
<title>Node1&#45;&gt;Node9</title>
<g id="a_edge9_Node000001_Node000009"><a xlink:title=" ">
<path fill="none" stroke="#63b8ff" d="M41.06,-365.15C53.75,-367.2 71.14,-370 88.62,-372.82"/>
<polygon fill="#63b8ff" stroke="#63b8ff" points="88.46,-376.34 98.89,-374.47 89.57,-369.43 88.46,-376.34"/>
</a>
</g>
</g>
<!-- Node10 -->
<g id="Node000010" class="node">
<title>Node10</title>
<g id="a_Node000010"><a xlink:href="../../df/dd2/classiot_1_1ConfigManager.html#a9f87e7fc8048d9aeeee39a527842afd8" target="_top" xlink:title="Get string value.">
<polygon fill="white" stroke="#666666" points="213.5,-356 104.5,-356 104.5,-326 213.5,-326 213.5,-356"/>
<text text-anchor="start" x="112.5" y="-344" font-family="Helvetica,sans-Serif" font-size="10.00">iot::ConfigManager</text>
<text text-anchor="middle" x="159" y="-333" font-family="Helvetica,sans-Serif" font-size="10.00">::getString</text>
</a>
</g>
</g>
<!-- Node1&#45;&gt;Node10 -->
<g id="edge10_Node000001_Node000010" class="edge">
<title>Node1&#45;&gt;Node10</title>
<g id="a_edge10_Node000001_Node000010"><a xlink:title=" ">
<path fill="none" stroke="#63b8ff" d="M41.06,-358.99C55.12,-356.83 74.93,-353.78 94.27,-350.81"/>
<polygon fill="#63b8ff" stroke="#63b8ff" points="94.95,-354.24 104.3,-349.26 93.88,-347.32 94.95,-354.24"/>
</a>
</g>
</g>
<!-- Node11 -->
<g id="Node000011" class="node">
<title>Node11</title>
<g id="a_Node000011"><a xlink:href="../../d2/d28/classiot_1_1SecurityManager.html#a938b49411eca741879c55345b4cafd63" target="_top" xlink:title="Check if device is authorized to send message.">
<polygon fill="white" stroke="#666666" points="218,-308 100,-308 100,-278 218,-278 218,-308"/>
<text text-anchor="start" x="108" y="-296" font-family="Helvetica,sans-Serif" font-size="10.00">iot::SecurityManager</text>
<text text-anchor="middle" x="159" y="-285" font-family="Helvetica,sans-Serif" font-size="10.00">::isAuthorizedToSend</text>
</a>
</g>
</g>
<!-- Node1&#45;&gt;Node11 -->
<g id="edge11_Node000001_Node000011" class="edge">
<title>Node1&#45;&gt;Node11</title>
<g id="a_edge11_Node000001_Node000011"><a xlink:title=" ">
<path fill="none" stroke="#63b8ff" d="M30.88,-352.41C41.28,-342.28 59,-326.48 77,-317 81.24,-314.77 85.71,-312.72 90.3,-310.83"/>
<polygon fill="#63b8ff" stroke="#63b8ff" points="91.72,-314.04 99.81,-307.2 89.22,-307.5 91.72,-314.04"/>
</a>
</g>
</g>
<!-- Node12 -->
<g id="Node000012" class="node">
<title>Node12</title>
<g id="a_Node000012"><a xlink:href="../../df/dd2/classiot_1_1ConfigManager.html#ab92361fbcf3a16ab27f33edec4ecd075" target="_top" xlink:title="Load configuration from string (simplified)">
<polygon fill="white" stroke="#666666" points="213.5,-260 104.5,-260 104.5,-230 213.5,-230 213.5,-260"/>
<text text-anchor="start" x="112.5" y="-248" font-family="Helvetica,sans-Serif" font-size="10.00">iot::ConfigManager</text>
<text text-anchor="middle" x="159" y="-237" font-family="Helvetica,sans-Serif" font-size="10.00">::loadFromString</text>
</a>
</g>
</g>
<!-- Node1&#45;&gt;Node12 -->
<g id="edge12_Node000001_Node000012" class="edge">
<title>Node1&#45;&gt;Node12</title>
<g id="a_edge12_Node000001_Node000012"><a xlink:title=" ">
<path fill="none" stroke="#63b8ff" d="M24.62,-352.21C31.17,-333.25 48.19,-291.38 77,-269 82.37,-264.83 88.45,-261.38 94.81,-258.53"/>
<polygon fill="#63b8ff" stroke="#63b8ff" points="96.27,-261.72 104.27,-254.77 93.69,-255.21 96.27,-261.72"/>
</a>
</g>
</g>
<!-- Node13 -->
<g id="Node000013" class="node">
<title>Node13</title>
<g id="a_Node000013"><a xlink:href="../../df/dd2/classiot_1_1ConfigManager.html#a99f1699b3661486abe90c972a9b850c2" target="_top" xlink:title="Set value.">
<polygon fill="white" stroke="#666666" points="407,-233.5 277,-233.5 277,-214.5 407,-214.5 407,-233.5"/>
<text text-anchor="middle" x="342" y="-221.5" font-family="Helvetica,sans-Serif" font-size="10.00">iot::ConfigManager::set</text>
</a>
</g>
</g>
<!-- Node1&#45;&gt;Node13 -->
<g id="edge18_Node000001_Node000013" class="edge">
<title>Node1&#45;&gt;Node13</title>
<g id="a_edge18_Node000001_Node000013"><a xlink:title=" ">
<path fill="none" stroke="#63b8ff" d="M21.85,-352.24C23.4,-325.63 31.77,-251.8 77,-221 145.83,-174.12 249.94,-195.3 304.58,-211.54"/>
<polygon fill="#63b8ff" stroke="#63b8ff" points="303.6,-214.9 314.19,-214.5 305.66,-208.21 303.6,-214.9"/>
</a>
</g>
</g>
<!-- Node14 -->
<g id="Node000014" class="node">
<title>Node14</title>
<g id="a_Node000014"><a xlink:href="../../de/d9f/classiot_1_1PerformanceMonitor.html#ab03c144a5c1742991acb93beff0e6c83" target="_top" xlink:title="Print performance report.">
<polygon fill="white" stroke="#666666" points="226.5,-174 91.5,-174 91.5,-144 226.5,-144 226.5,-174"/>
<text text-anchor="start" x="99.5" y="-162" font-family="Helvetica,sans-Serif" font-size="10.00">iot::PerformanceMonitor</text>
<text text-anchor="middle" x="159" y="-151" font-family="Helvetica,sans-Serif" font-size="10.00">::printReport</text>
</a>
</g>
</g>
<!-- Node1&#45;&gt;Node14 -->
<g id="edge14_Node000001_Node000014" class="edge">
<title>Node1&#45;&gt;Node14</title>
<g id="a_edge14_Node000001_Node000014"><a xlink:title=" ">
<path fill="none" stroke="#63b8ff" d="M21.73,-352.22C22.96,-323.13 30.53,-236.13 77,-188 80.18,-184.71 83.76,-181.79 87.59,-179.2"/>
<polygon fill="#63b8ff" stroke="#63b8ff" points="89.51,-182.13 96.35,-174.04 85.96,-176.1 89.51,-182.13"/>
</a>
</g>
</g>
<!-- Node15 -->
<g id="Node000015" class="node">
<title>Node15</title>
<g id="a_Node000015"><a xlink:href="../../d2/d28/classiot_1_1SecurityManager.html#a18284e0f4ca5bbcc951c4c8468b88501" target="_top" xlink:title="Print security report.">
<polygon fill="white" stroke="#666666" points="218,-126 100,-126 100,-96 218,-96 218,-126"/>
<text text-anchor="start" x="108" y="-114" font-family="Helvetica,sans-Serif" font-size="10.00">iot::SecurityManager</text>
<text text-anchor="middle" x="159" y="-103" font-family="Helvetica,sans-Serif" font-size="10.00">::printSecurityReport</text>
</a>
</g>
</g>
<!-- Node1&#45;&gt;Node15 -->
<g id="edge15_Node000001_Node000015" class="edge">
<title>Node1&#45;&gt;Node15</title>
<g id="a_edge15_Node000001_Node000015"><a xlink:title=" ">
<path fill="none" stroke="#63b8ff" d="M22.59,-352.25C27.18,-313.05 46.07,-167.46 77,-135 80.92,-130.89 85.51,-127.47 90.48,-124.63"/>
<polygon fill="#63b8ff" stroke="#63b8ff" points="92.29,-127.64 99.76,-120.12 89.24,-121.34 92.29,-127.64"/>
</a>
</g>
</g>
<!-- Node16 -->
<g id="Node000016" class="node">
<title>Node16</title>
<g id="a_Node000016"><a xlink:href="../../de/d9f/classiot_1_1PerformanceMonitor.html#a201253256c11a9dbb1a07025823faf4b" target="_top" xlink:title="Record a specific timing measurement.">
<polygon fill="white" stroke="#666666" points="226.5,-78 91.5,-78 91.5,-48 226.5,-48 226.5,-78"/>
<text text-anchor="start" x="99.5" y="-66" font-family="Helvetica,sans-Serif" font-size="10.00">iot::PerformanceMonitor</text>
<text text-anchor="middle" x="159" y="-55" font-family="Helvetica,sans-Serif" font-size="10.00">::recordTime</text>
</a>
</g>
</g>
<!-- Node1&#45;&gt;Node16 -->
<g id="edge16_Node000001_Node000016" class="edge">
<title>Node1&#45;&gt;Node16</title>
<g id="a_edge16_Node000001_Node000016"><a xlink:title=" ">
<path fill="none" stroke="#63b8ff" d="M22.14,-352.37C25.24,-308.42 40.1,-127.34 77,-87 78.78,-85.06 80.7,-83.27 82.74,-81.63"/>
<polygon fill="#63b8ff" stroke="#63b8ff" points="84.82,-84.45 91.16,-75.96 80.91,-78.64 84.82,-84.45"/>
</a>
</g>
</g>
<!-- Node17 -->
<g id="Node000017" class="node">
<title>Node17</title>
<g id="a_Node000017"><a xlink:href="../../d2/d28/classiot_1_1SecurityManager.html#af10cc9fa9521aa81ece1dc73185158cd" target="_top" xlink:title="Register a device for security.">
<polygon fill="white" stroke="#666666" points="218,-30 100,-30 100,0 218,0 218,-30"/>
<text text-anchor="start" x="108" y="-18" font-family="Helvetica,sans-Serif" font-size="10.00">iot::SecurityManager</text>
<text text-anchor="middle" x="159" y="-7" font-family="Helvetica,sans-Serif" font-size="10.00">::registerDevice</text>
</a>
</g>
</g>
<!-- Node1&#45;&gt;Node17 -->
<g id="edge17_Node000001_Node000017" class="edge">
<title>Node1&#45;&gt;Node17</title>
<g id="a_edge17_Node000001_Node000017"><a xlink:title=" ">
<path fill="none" stroke="#63b8ff" d="M21.82,-352.36C23.64,-303.9 34.1,-87.28 77,-39 80.93,-34.58 85.64,-30.95 90.77,-27.98"/>
<polygon fill="#63b8ff" stroke="#63b8ff" points="92.32,-31.12 99.77,-23.58 89.25,-24.83 92.32,-31.12"/>
</a>
</g>
</g>
<!-- Node3&#45;&gt;Node4 -->
<g id="edge3_Node000003_Node000004" class="edge">
<title>Node3&#45;&gt;Node4</title>
<g id="a_edge3_Node000003_Node000004"><a xlink:title=" ">
<path fill="none" stroke="#63b8ff" d="M218.27,-649.92C235.62,-647.81 254.8,-645.48 272.74,-643.3"/>
<polygon fill="#63b8ff" stroke="#63b8ff" points="273.34,-646.75 282.84,-642.07 272.49,-639.8 273.34,-646.75"/>
</a>
</g>
</g>
<!-- Node12&#45;&gt;Node13 -->
<g id="edge13_Node000012_Node000013" class="edge">
<title>Node12&#45;&gt;Node13</title>
<g id="a_edge13_Node000012_Node000013"><a xlink:title=" ">
<path fill="none" stroke="#63b8ff" d="M213.82,-238.76C230.37,-236.84 248.89,-234.69 266.56,-232.64"/>
<polygon fill="#63b8ff" stroke="#63b8ff" points="267.32,-236.07 276.85,-231.44 266.52,-229.12 267.32,-236.07"/>
</a>
</g>
</g>
</g>
</svg>
