<?xml version="1.0" encoding="UTF-8" standalone="no"?>
<!DOCTYPE svg PUBLIC "-//W3C//DTD SVG 1.1//EN"
 "http://www.w3.org/Graphics/SVG/1.1/DTD/svg11.dtd">
<!-- Generated by graphviz version 2.43.0 (0)
 -->
<!-- Title: src/devices/Sensor.cpp Pages: 1 -->
<svg width="409pt" height="203pt"
 viewBox="0.00 0.00 409.00 203.00" xmlns="http://www.w3.org/2000/svg" xmlns:xlink="http://www.w3.org/1999/xlink">
<g id="graph0" class="graph" transform="scale(1 1) rotate(0) translate(4 199)">
<title>src/devices/Sensor.cpp</title>
<!-- Node1 -->
<g id="Node000001" class="node">
<title>Node1</title>
<g id="a_Node000001"><a xlink:title=" ">
<polygon fill="#999999" stroke="#666666" points="331.5,-195 204.5,-195 204.5,-176 331.5,-176 331.5,-195"/>
<text text-anchor="middle" x="268" y="-183" font-family="Helvetica,sans-Serif" font-size="10.00">src/devices/Sensor.cpp</text>
</a>
</g>
</g>
<!-- Node2 -->
<g id="Node000002" class="node">
<title>Node2</title>
<g id="a_Node000002"><a xlink:href="../../d5/d65/Sensor_8h.html" target="_top" xlink:title=" ">
<polygon fill="white" stroke="#666666" points="201,-140 91,-140 91,-110 201,-110 201,-140"/>
<text text-anchor="start" x="99" y="-128" font-family="Helvetica,sans-Serif" font-size="10.00">../../include/devices</text>
<text text-anchor="middle" x="146" y="-117" font-family="Helvetica,sans-Serif" font-size="10.00">/Sensor.h</text>
</a>
</g>
</g>
<!-- Node1&#45;&gt;Node2 -->
<g id="edge1_Node000001_Node000002" class="edge">
<title>Node1&#45;&gt;Node2</title>
<g id="a_edge1_Node000001_Node000002"><a xlink:title=" ">
<path fill="none" stroke="#63b8ff" d="M250.26,-175.99C233.14,-167.79 206.66,-155.09 184.68,-144.55"/>
<polygon fill="#63b8ff" stroke="#63b8ff" points="186.1,-141.35 175.57,-140.18 183.07,-147.66 186.1,-141.35"/>
</a>
</g>
</g>
<!-- Node7 -->
<g id="Node000007" class="node">
<title>Node7</title>
<g id="a_Node000007"><a xlink:href="../../d5/dca/Message_8h.html" target="_top" xlink:title=" ">
<polygon fill="white" stroke="#666666" points="300,-74 198,-74 198,-55 300,-55 300,-74"/>
<text text-anchor="middle" x="249" y="-62" font-family="Helvetica,sans-Serif" font-size="10.00">../core/Message.h</text>
</a>
</g>
</g>
<!-- Node1&#45;&gt;Node7 -->
<g id="edge11_Node000001_Node000007" class="edge">
<title>Node1&#45;&gt;Node7</title>
<g id="a_edge11_Node000001_Node000007"><a xlink:title=" ">
<path fill="none" stroke="#63b8ff" d="M265.74,-175.69C263.52,-166.75 260.15,-152.49 258,-140 254.76,-121.18 252.28,-99.47 250.75,-84.37"/>
<polygon fill="#63b8ff" stroke="#63b8ff" points="254.22,-83.87 249.77,-74.26 247.25,-84.55 254.22,-83.87"/>
</a>
</g>
</g>
<!-- Node10 -->
<g id="Node000010" class="node">
<title>Node10</title>
<g id="a_Node000010"><a xlink:title=" ">
<polygon fill="#e0e0e0" stroke="#999999" points="327,-134.5 267,-134.5 267,-115.5 327,-115.5 327,-134.5"/>
<text text-anchor="middle" x="297" y="-122.5" font-family="Helvetica,sans-Serif" font-size="10.00">iostream</text>
</a>
</g>
</g>
<!-- Node1&#45;&gt;Node10 -->
<g id="edge12_Node000001_Node000010" class="edge">
<title>Node1&#45;&gt;Node10</title>
<g id="a_edge12_Node000001_Node000010"><a xlink:title=" ">
<path fill="none" stroke="#63b8ff" d="M272.28,-175.87C276.43,-167.49 282.87,-154.51 288.13,-143.89"/>
<polygon fill="#63b8ff" stroke="#63b8ff" points="291.4,-145.18 292.7,-134.67 285.13,-142.07 291.4,-145.18"/>
</a>
</g>
</g>
<!-- Node11 -->
<g id="Node000011" class="node">
<title>Node11</title>
<g id="a_Node000011"><a xlink:title=" ">
<polygon fill="#e0e0e0" stroke="#999999" points="401,-134.5 345,-134.5 345,-115.5 401,-115.5 401,-134.5"/>
<text text-anchor="middle" x="373" y="-122.5" font-family="Helvetica,sans-Serif" font-size="10.00">sstream</text>
</a>
</g>
</g>
<!-- Node1&#45;&gt;Node11 -->
<g id="edge13_Node000001_Node000011" class="edge">
<title>Node1&#45;&gt;Node11</title>
<g id="a_edge13_Node000001_Node000011"><a xlink:title=" ">
<path fill="none" stroke="#63b8ff" d="M283.49,-175.87C300.63,-166.32 328.47,-150.81 348.56,-139.62"/>
<polygon fill="#63b8ff" stroke="#63b8ff" points="350.41,-142.59 357.44,-134.67 347,-136.48 350.41,-142.59"/>
</a>
</g>
</g>
<!-- Node3 -->
<g id="Node000003" class="node">
<title>Node3</title>
<g id="a_Node000003"><a xlink:href="../../de/daa/IoTDevice_8h.html" target="_top" xlink:title=" ">
<polygon fill="white" stroke="#666666" points="179.5,-74 72.5,-74 72.5,-55 179.5,-55 179.5,-74"/>
<text text-anchor="middle" x="126" y="-62" font-family="Helvetica,sans-Serif" font-size="10.00">../core/IoTDevice.h</text>
</a>
</g>
</g>
<!-- Node2&#45;&gt;Node3 -->
<g id="edge2_Node000002_Node000003" class="edge">
<title>Node2&#45;&gt;Node3</title>
<g id="a_edge2_Node000002_Node000003"><a xlink:title=" ">
<path fill="none" stroke="#63b8ff" d="M141.16,-109.84C138.49,-102.04 135.15,-92.27 132.29,-83.89"/>
<polygon fill="#63b8ff" stroke="#63b8ff" points="135.54,-82.6 129,-74.27 128.92,-84.86 135.54,-82.6"/>
</a>
</g>
</g>
<!-- Node2&#45;&gt;Node7 -->
<g id="edge6_Node000002_Node000007" class="edge">
<title>Node2&#45;&gt;Node7</title>
<g id="a_edge6_Node000002_Node000007"><a xlink:title=" ">
<path fill="none" stroke="#63b8ff" d="M170.67,-109.99C187.09,-100.66 208.55,-88.47 224.86,-79.21"/>
<polygon fill="#63b8ff" stroke="#63b8ff" points="226.82,-82.12 233.79,-74.14 223.37,-76.03 226.82,-82.12"/>
</a>
</g>
</g>
<!-- Node9 -->
<g id="Node000009" class="node">
<title>Node9</title>
<g id="a_Node000009"><a xlink:title=" ">
<polygon fill="#e0e0e0" stroke="#999999" points="54,-74 0,-74 0,-55 54,-55 54,-74"/>
<text text-anchor="middle" x="27" y="-62" font-family="Helvetica,sans-Serif" font-size="10.00">random</text>
</a>
</g>
</g>
<!-- Node2&#45;&gt;Node9 -->
<g id="edge10_Node000002_Node000009" class="edge">
<title>Node2&#45;&gt;Node9</title>
<g id="a_edge10_Node000002_Node000009"><a xlink:title=" ">
<path fill="none" stroke="#63b8ff" d="M117.5,-109.99C98.09,-100.45 72.57,-87.9 53.58,-78.57"/>
<polygon fill="#63b8ff" stroke="#63b8ff" points="55.09,-75.41 44.57,-74.14 52,-81.69 55.09,-75.41"/>
</a>
</g>
</g>
<!-- Node4 -->
<g id="Node000004" class="node">
<title>Node4</title>
<g id="a_Node000004"><a xlink:title=" ">
<polygon fill="#e0e0e0" stroke="#999999" points="177,-19 133,-19 133,0 177,0 177,-19"/>
<text text-anchor="middle" x="155" y="-7" font-family="Helvetica,sans-Serif" font-size="10.00">string</text>
</a>
</g>
</g>
<!-- Node3&#45;&gt;Node4 -->
<g id="edge3_Node000003_Node000004" class="edge">
<title>Node3&#45;&gt;Node4</title>
<g id="a_edge3_Node000003_Node000004"><a xlink:title=" ">
<path fill="none" stroke="#63b8ff" d="M130.79,-54.75C134.76,-47.49 140.53,-36.95 145.43,-27.98"/>
<polygon fill="#63b8ff" stroke="#63b8ff" points="148.57,-29.54 150.3,-19.09 142.43,-26.18 148.57,-29.54"/>
</a>
</g>
</g>
<!-- Node5 -->
<g id="Node000005" class="node">
<title>Node5</title>
<g id="a_Node000005"><a xlink:title=" ">
<polygon fill="#e0e0e0" stroke="#999999" points="115,-19 57,-19 57,0 115,0 115,-19"/>
<text text-anchor="middle" x="86" y="-7" font-family="Helvetica,sans-Serif" font-size="10.00">memory</text>
</a>
</g>
</g>
<!-- Node3&#45;&gt;Node5 -->
<g id="edge4_Node000003_Node000005" class="edge">
<title>Node3&#45;&gt;Node5</title>
<g id="a_edge4_Node000003_Node000005"><a xlink:title=" ">
<path fill="none" stroke="#63b8ff" d="M119.39,-54.75C113.74,-47.26 105.46,-36.28 98.55,-27.13"/>
<polygon fill="#63b8ff" stroke="#63b8ff" points="101.3,-24.96 92.48,-19.09 95.71,-29.18 101.3,-24.96"/>
</a>
</g>
</g>
<!-- Node6 -->
<g id="Node000006" class="node">
<title>Node6</title>
<g id="a_Node000006"><a xlink:title=" ">
<polygon fill="#e0e0e0" stroke="#999999" points="245,-19 195,-19 195,0 245,0 245,-19"/>
<text text-anchor="middle" x="220" y="-7" font-family="Helvetica,sans-Serif" font-size="10.00">chrono</text>
</a>
</g>
</g>
<!-- Node3&#45;&gt;Node6 -->
<g id="edge5_Node000003_Node000006" class="edge">
<title>Node3&#45;&gt;Node6</title>
<g id="a_edge5_Node000003_Node000006"><a xlink:title=" ">
<path fill="none" stroke="#63b8ff" d="M141.1,-54.98C155.82,-46.69 178.42,-33.94 195.67,-24.22"/>
<polygon fill="#63b8ff" stroke="#63b8ff" points="197.63,-27.13 204.62,-19.17 194.19,-21.03 197.63,-27.13"/>
</a>
</g>
</g>
<!-- Node7&#45;&gt;Node4 -->
<g id="edge7_Node000007_Node000004" class="edge">
<title>Node7&#45;&gt;Node4</title>
<g id="a_edge7_Node000007_Node000004"><a xlink:title=" ">
<path fill="none" stroke="#63b8ff" d="M233.9,-54.98C219.18,-46.69 196.58,-33.94 179.33,-24.22"/>
<polygon fill="#63b8ff" stroke="#63b8ff" points="180.81,-21.03 170.38,-19.17 177.37,-27.13 180.81,-21.03"/>
</a>
</g>
</g>
<!-- Node7&#45;&gt;Node6 -->
<g id="edge8_Node000007_Node000006" class="edge">
<title>Node7&#45;&gt;Node6</title>
<g id="a_edge8_Node000007_Node000006"><a xlink:title=" ">
<path fill="none" stroke="#63b8ff" d="M244.21,-54.75C240.24,-47.49 234.47,-36.95 229.57,-27.98"/>
<polygon fill="#63b8ff" stroke="#63b8ff" points="232.57,-26.18 224.7,-19.09 226.43,-29.54 232.57,-26.18"/>
</a>
</g>
</g>
<!-- Node8 -->
<g id="Node000008" class="node">
<title>Node8</title>
<g id="a_Node000008"><a xlink:title=" ">
<polygon fill="#e0e0e0" stroke="#999999" points="301,-19 263,-19 263,0 301,0 301,-19"/>
<text text-anchor="middle" x="282" y="-7" font-family="Helvetica,sans-Serif" font-size="10.00">map</text>
</a>
</g>
</g>
<!-- Node7&#45;&gt;Node8 -->
<g id="edge9_Node000007_Node000008" class="edge">
<title>Node7&#45;&gt;Node8</title>
<g id="a_edge9_Node000007_Node000008"><a xlink:title=" ">
<path fill="none" stroke="#63b8ff" d="M254.45,-54.75C259.01,-47.42 265.67,-36.73 271.29,-27.7"/>
<polygon fill="#63b8ff" stroke="#63b8ff" points="274.34,-29.43 276.65,-19.09 268.4,-25.73 274.34,-29.43"/>
</a>
</g>
</g>
</g>
</svg>
