<?xml version="1.0" encoding="UTF-8" standalone="no"?>
<!DOCTYPE svg PUBLIC "-//W3C//DTD SVG 1.1//EN"
 "http://www.w3.org/Graphics/SVG/1.1/DTD/svg11.dtd">
<!-- Generated by graphviz version 2.43.0 (0)
 -->
<!-- Title: iot::IoTDevice Pages: 1 -->
<svg width="1561pt" height="737pt"
 viewBox="0.00 0.00 1561.00 737.00" xmlns="http://www.w3.org/2000/svg" xmlns:xlink="http://www.w3.org/1999/xlink">
<g id="graph0" class="graph" transform="scale(1 1) rotate(0) translate(4 733)">
<title>iot::IoTDevice</title>
<!-- Node1 -->
<g id="Node000001" class="node">
<title>Node1</title>
<g id="a_Node000001"><a xlink:title=" ">
<polygon fill="#999999" stroke="transparent" points="576.5,-729 468.5,-729 468.5,-470 576.5,-470 576.5,-729"/>
<text text-anchor="start" x="488.5" y="-716.5" font-family="Helvetica,sans-Serif" font-size="10.00">iot::IoTDevice</text>
<text text-anchor="start" x="472.5" y="-701.5" font-family="Helvetica,sans-Serif" font-size="10.00">#</text>
<text text-anchor="start" x="485.5" y="-701.5" font-family="Helvetica,sans-Serif" font-size="10.00">deviceId</text>
<text text-anchor="start" x="472.5" y="-686.5" font-family="Helvetica,sans-Serif" font-size="10.00">#</text>
<text text-anchor="start" x="485.5" y="-686.5" font-family="Helvetica,sans-Serif" font-size="10.00">deviceType</text>
<text text-anchor="start" x="472.5" y="-671.5" font-family="Helvetica,sans-Serif" font-size="10.00">#</text>
<text text-anchor="start" x="485.5" y="-671.5" font-family="Helvetica,sans-Serif" font-size="10.00">deviceName</text>
<text text-anchor="start" x="472.5" y="-656.5" font-family="Helvetica,sans-Serif" font-size="10.00">#</text>
<text text-anchor="start" x="485.5" y="-656.5" font-family="Helvetica,sans-Serif" font-size="10.00">isActive</text>
<text text-anchor="start" x="472.5" y="-641.5" font-family="Helvetica,sans-Serif" font-size="10.00">#</text>
<text text-anchor="start" x="485.5" y="-641.5" font-family="Helvetica,sans-Serif" font-size="10.00">lastUpdate</text>
<text text-anchor="start" x="472.5" y="-626.5" font-family="Helvetica,sans-Serif" font-size="10.00">+</text>
<text text-anchor="start" x="485.5" y="-626.5" font-family="Helvetica,sans-Serif" font-size="10.00">IoTDevice()</text>
<text text-anchor="start" x="472.5" y="-611.5" font-family="Helvetica,sans-Serif" font-size="10.00">+</text>
<text text-anchor="start" x="485.5" y="-611.5" font-family="Helvetica,sans-Serif" font-size="10.00">~IoTDevice()</text>
<text text-anchor="start" x="472.5" y="-596.5" font-family="Helvetica,sans-Serif" font-size="10.00">+</text>
<text text-anchor="start" x="485.5" y="-596.5" font-family="Helvetica,sans-Serif" font-size="10.00">sendData()</text>
<text text-anchor="start" x="472.5" y="-581.5" font-family="Helvetica,sans-Serif" font-size="10.00">+</text>
<text text-anchor="start" x="485.5" y="-581.5" font-family="Helvetica,sans-Serif" font-size="10.00">receiveData()</text>
<text text-anchor="start" x="472.5" y="-566.5" font-family="Helvetica,sans-Serif" font-size="10.00">+</text>
<text text-anchor="start" x="485.5" y="-566.5" font-family="Helvetica,sans-Serif" font-size="10.00">getStatus()</text>
<text text-anchor="start" x="472.5" y="-551.5" font-family="Helvetica,sans-Serif" font-size="10.00">+</text>
<text text-anchor="start" x="485.5" y="-551.5" font-family="Helvetica,sans-Serif" font-size="10.00">update()</text>
<text text-anchor="start" x="472.5" y="-536.5" font-family="Helvetica,sans-Serif" font-size="10.00">+</text>
<text text-anchor="start" x="485.5" y="-536.5" font-family="Helvetica,sans-Serif" font-size="10.00">getDeviceId()</text>
<text text-anchor="start" x="472.5" y="-521.5" font-family="Helvetica,sans-Serif" font-size="10.00">+</text>
<text text-anchor="start" x="485.5" y="-521.5" font-family="Helvetica,sans-Serif" font-size="10.00">getDeviceType()</text>
<text text-anchor="start" x="472.5" y="-506.5" font-family="Helvetica,sans-Serif" font-size="10.00">+</text>
<text text-anchor="start" x="485.5" y="-506.5" font-family="Helvetica,sans-Serif" font-size="10.00">getDeviceName()</text>
<text text-anchor="start" x="472.5" y="-491.5" font-family="Helvetica,sans-Serif" font-size="10.00">+</text>
<text text-anchor="start" x="485.5" y="-491.5" font-family="Helvetica,sans-Serif" font-size="10.00">isActiveDevice()</text>
<text text-anchor="start" x="472.5" y="-476.5" font-family="Helvetica,sans-Serif" font-size="10.00">+</text>
<text text-anchor="start" x="485.5" y="-476.5" font-family="Helvetica,sans-Serif" font-size="10.00">setActive()</text>
<polygon fill="#666666" stroke="#666666" points="468.5,-711.5 468.5,-711.5 576.5,-711.5 576.5,-711.5 468.5,-711.5"/>
<polygon fill="#666666" stroke="#666666" points="468.5,-636.5 468.5,-636.5 483.5,-636.5 483.5,-636.5 468.5,-636.5"/>
<polygon fill="#666666" stroke="#666666" points="483.5,-636.5 483.5,-636.5 576.5,-636.5 576.5,-636.5 483.5,-636.5"/>
<polygon fill="none" stroke="#666666" points="468.5,-470 468.5,-729 576.5,-729 576.5,-470 468.5,-470"/>
</a>
</g>
</g>
<!-- Node2 -->
<g id="Node000002" class="node">
<title>Node2</title>
<g id="a_Node000002"><a xlink:href="../../db/d52/classiot_1_1Actuator.html" target="_top" xlink:title=" ">
<polygon fill="white" stroke="transparent" points="266.5,-396.5 178.5,-396.5 178.5,-257.5 266.5,-257.5 266.5,-396.5"/>
<text text-anchor="start" x="192" y="-384" font-family="Helvetica,sans-Serif" font-size="10.00">iot::Actuator</text>
<text text-anchor="start" x="182.5" y="-369" font-family="Helvetica,sans-Serif" font-size="10.00">#</text>
<text text-anchor="start" x="195.5" y="-369" font-family="Helvetica,sans-Serif" font-size="10.00">state</text>
<text text-anchor="start" x="182.5" y="-354" font-family="Helvetica,sans-Serif" font-size="10.00">+</text>
<text text-anchor="start" x="195.5" y="-354" font-family="Helvetica,sans-Serif" font-size="10.00">Actuator()</text>
<text text-anchor="start" x="182.5" y="-339" font-family="Helvetica,sans-Serif" font-size="10.00">+</text>
<text text-anchor="start" x="195.5" y="-339" font-family="Helvetica,sans-Serif" font-size="10.00">~Actuator()</text>
<text text-anchor="start" x="182.5" y="-324" font-family="Helvetica,sans-Serif" font-size="10.00">+</text>
<text text-anchor="start" x="195.5" y="-324" font-family="Helvetica,sans-Serif" font-size="10.00">sendData()</text>
<text text-anchor="start" x="182.5" y="-309" font-family="Helvetica,sans-Serif" font-size="10.00">+</text>
<text text-anchor="start" x="195.5" y="-309" font-family="Helvetica,sans-Serif" font-size="10.00">receiveData()</text>
<text text-anchor="start" x="182.5" y="-294" font-family="Helvetica,sans-Serif" font-size="10.00">+</text>
<text text-anchor="start" x="195.5" y="-294" font-family="Helvetica,sans-Serif" font-size="10.00">setState()</text>
<text text-anchor="start" x="182.5" y="-279" font-family="Helvetica,sans-Serif" font-size="10.00">+</text>
<text text-anchor="start" x="195.5" y="-279" font-family="Helvetica,sans-Serif" font-size="10.00">getState()</text>
<text text-anchor="start" x="182.5" y="-264" font-family="Helvetica,sans-Serif" font-size="10.00">+</text>
<text text-anchor="start" x="195.5" y="-264" font-family="Helvetica,sans-Serif" font-size="10.00">toggle()</text>
<polygon fill="#666666" stroke="#666666" points="178.5,-379 178.5,-379 266.5,-379 266.5,-379 178.5,-379"/>
<polygon fill="#666666" stroke="#666666" points="178.5,-364 178.5,-364 193.5,-364 193.5,-364 178.5,-364"/>
<polygon fill="#666666" stroke="#666666" points="193.5,-364 193.5,-364 266.5,-364 266.5,-364 193.5,-364"/>
<polygon fill="none" stroke="#666666" points="178.5,-257.5 178.5,-396.5 266.5,-396.5 266.5,-257.5 178.5,-257.5"/>
</a>
</g>
</g>
<!-- Node1&#45;&gt;Node2 -->
<g id="edge1_Node000001_Node000002" class="edge">
<title>Node1&#45;&gt;Node2</title>
<g id="a_edge1_Node000001_Node000002"><a xlink:title=" ">
<path fill="none" stroke="#63b8ff" d="M460.55,-542.65C402.74,-490.52 317.91,-414.03 266.67,-367.82"/>
<polygon fill="none" stroke="#63b8ff" points="458.4,-545.42 468.17,-549.51 463.09,-540.22 458.4,-545.42"/>
</a>
</g>
</g>
<!-- Node6 -->
<g id="Node000006" class="node">
<title>Node6</title>
<g id="a_Node000006"><a xlink:href="../../d6/dfc/classiot_1_1NetworkMonitor.html" target="_top" xlink:title=" ">
<polygon fill="white" stroke="transparent" points="576.5,-366.5 468.5,-366.5 468.5,-287.5 576.5,-287.5 576.5,-366.5"/>
<text text-anchor="start" x="473.5" y="-354" font-family="Helvetica,sans-Serif" font-size="10.00">iot::NetworkMonitor</text>
<text text-anchor="start" x="520.5" y="-339" font-family="Helvetica,sans-Serif" font-size="10.00"> </text>
<text text-anchor="start" x="472.5" y="-324" font-family="Helvetica,sans-Serif" font-size="10.00">+</text>
<text text-anchor="start" x="485.5" y="-324" font-family="Helvetica,sans-Serif" font-size="10.00">NetworkMonitor()</text>
<text text-anchor="start" x="472.5" y="-309" font-family="Helvetica,sans-Serif" font-size="10.00">+</text>
<text text-anchor="start" x="485.5" y="-309" font-family="Helvetica,sans-Serif" font-size="10.00">sendData()</text>
<text text-anchor="start" x="472.5" y="-294" font-family="Helvetica,sans-Serif" font-size="10.00">+</text>
<text text-anchor="start" x="485.5" y="-294" font-family="Helvetica,sans-Serif" font-size="10.00">receiveData()</text>
<polygon fill="#666666" stroke="#666666" points="468.5,-349 468.5,-349 576.5,-349 576.5,-349 468.5,-349"/>
<polygon fill="#666666" stroke="#666666" points="468.5,-334 468.5,-334 576.5,-334 576.5,-334 468.5,-334"/>
<polygon fill="none" stroke="#666666" points="468.5,-287.5 468.5,-366.5 576.5,-366.5 576.5,-287.5 468.5,-287.5"/>
</a>
</g>
</g>
<!-- Node1&#45;&gt;Node6 -->
<g id="edge5_Node000001_Node000006" class="edge">
<title>Node1&#45;&gt;Node6</title>
<g id="a_edge5_Node000001_Node000006"><a xlink:title=" ">
<path fill="none" stroke="#63b8ff" d="M522.5,-459.83C522.5,-425.56 522.5,-391.59 522.5,-366.71"/>
<polygon fill="none" stroke="#63b8ff" points="519,-459.98 522.5,-469.98 526,-459.98 519,-459.98"/>
</a>
</g>
</g>
<!-- Node7 -->
<g id="Node000007" class="node">
<title>Node7</title>
<g id="a_Node000007"><a xlink:href="../../d6/da8/classiot_1_1Sensor.html" target="_top" xlink:title=" ">
<polygon fill="white" stroke="transparent" points="945.5,-434 837.5,-434 837.5,-220 945.5,-220 945.5,-434"/>
<text text-anchor="start" x="865.5" y="-422" font-family="Helvetica,sans-Serif" font-size="10.00">iot::Sensor</text>
<text text-anchor="start" x="841.5" y="-407" font-family="Helvetica,sans-Serif" font-size="10.00">#</text>
<text text-anchor="start" x="854.5" y="-407" font-family="Helvetica,sans-Serif" font-size="10.00">currentValue</text>
<text text-anchor="start" x="841.5" y="-392" font-family="Helvetica,sans-Serif" font-size="10.00">#</text>
<text text-anchor="start" x="854.5" y="-392" font-family="Helvetica,sans-Serif" font-size="10.00">minValue</text>
<text text-anchor="start" x="841.5" y="-377" font-family="Helvetica,sans-Serif" font-size="10.00">#</text>
<text text-anchor="start" x="854.5" y="-377" font-family="Helvetica,sans-Serif" font-size="10.00">maxValue</text>
<text text-anchor="start" x="841.5" y="-362" font-family="Helvetica,sans-Serif" font-size="10.00">#</text>
<text text-anchor="start" x="854.5" y="-362" font-family="Helvetica,sans-Serif" font-size="10.00">rng</text>
<text text-anchor="start" x="841.5" y="-347" font-family="Helvetica,sans-Serif" font-size="10.00">#</text>
<text text-anchor="start" x="854.5" y="-347" font-family="Helvetica,sans-Serif" font-size="10.00">noiseDistribution</text>
<text text-anchor="start" x="841.5" y="-332" font-family="Helvetica,sans-Serif" font-size="10.00">+</text>
<text text-anchor="start" x="854.5" y="-332" font-family="Helvetica,sans-Serif" font-size="10.00">Sensor()</text>
<text text-anchor="start" x="841.5" y="-317" font-family="Helvetica,sans-Serif" font-size="10.00">+</text>
<text text-anchor="start" x="854.5" y="-317" font-family="Helvetica,sans-Serif" font-size="10.00">~Sensor()</text>
<text text-anchor="start" x="841.5" y="-302" font-family="Helvetica,sans-Serif" font-size="10.00">+</text>
<text text-anchor="start" x="854.5" y="-302" font-family="Helvetica,sans-Serif" font-size="10.00">readValue()</text>
<text text-anchor="start" x="841.5" y="-287" font-family="Helvetica,sans-Serif" font-size="10.00">+</text>
<text text-anchor="start" x="854.5" y="-287" font-family="Helvetica,sans-Serif" font-size="10.00">sendData()</text>
<text text-anchor="start" x="841.5" y="-272" font-family="Helvetica,sans-Serif" font-size="10.00">+</text>
<text text-anchor="start" x="854.5" y="-272" font-family="Helvetica,sans-Serif" font-size="10.00">receiveData()</text>
<text text-anchor="start" x="841.5" y="-257" font-family="Helvetica,sans-Serif" font-size="10.00">+</text>
<text text-anchor="start" x="854.5" y="-257" font-family="Helvetica,sans-Serif" font-size="10.00">getCurrentValue()</text>
<text text-anchor="start" x="841.5" y="-242" font-family="Helvetica,sans-Serif" font-size="10.00">+</text>
<text text-anchor="start" x="854.5" y="-242" font-family="Helvetica,sans-Serif" font-size="10.00">getMinValue()</text>
<text text-anchor="start" x="841.5" y="-227" font-family="Helvetica,sans-Serif" font-size="10.00">+</text>
<text text-anchor="start" x="854.5" y="-227" font-family="Helvetica,sans-Serif" font-size="10.00">getMaxValue()</text>
<polygon fill="#666666" stroke="#666666" points="837.5,-417 837.5,-417 945.5,-417 945.5,-417 837.5,-417"/>
<polygon fill="#666666" stroke="#666666" points="837.5,-342 837.5,-342 852.5,-342 852.5,-342 837.5,-342"/>
<polygon fill="#666666" stroke="#666666" points="852.5,-342 852.5,-342 945.5,-342 945.5,-342 852.5,-342"/>
<polygon fill="none" stroke="#666666" points="837.5,-220 837.5,-434 945.5,-434 945.5,-220 837.5,-220"/>
</a>
</g>
</g>
<!-- Node1&#45;&gt;Node7 -->
<g id="edge6_Node000001_Node000007" class="edge">
<title>Node1&#45;&gt;Node7</title>
<g id="a_edge6_Node000001_Node000007"><a xlink:title=" ">
<path fill="none" stroke="#63b8ff" d="M584.97,-552.71C655.79,-500.79 770.1,-416.99 837.3,-367.73"/>
<polygon fill="none" stroke="#63b8ff" points="582.55,-550.14 576.55,-558.88 586.69,-555.79 582.55,-550.14"/>
</a>
</g>
</g>
<!-- Node3 -->
<g id="Node000003" class="node">
<title>Node3</title>
<g id="a_Node000003"><a xlink:href="../../d3/dd6/classiot_1_1LED.html" target="_top" xlink:title="LED Actuator implementation.">
<polygon fill="white" stroke="transparent" points="97,-154 0,-154 0,-30 97,-30 97,-154"/>
<text text-anchor="start" x="30" y="-142" font-family="Helvetica,sans-Serif" font-size="10.00">iot::LED</text>
<text text-anchor="start" x="47" y="-127" font-family="Helvetica,sans-Serif" font-size="10.00"> </text>
<text text-anchor="start" x="4.5" y="-112" font-family="Helvetica,sans-Serif" font-size="10.00">+</text>
<text text-anchor="start" x="17.5" y="-112" font-family="Helvetica,sans-Serif" font-size="10.00">LED()</text>
<text text-anchor="start" x="4.5" y="-97" font-family="Helvetica,sans-Serif" font-size="10.00">+</text>
<text text-anchor="start" x="17.5" y="-97" font-family="Helvetica,sans-Serif" font-size="10.00">setState()</text>
<text text-anchor="start" x="4.5" y="-82" font-family="Helvetica,sans-Serif" font-size="10.00">+</text>
<text text-anchor="start" x="17.5" y="-82" font-family="Helvetica,sans-Serif" font-size="10.00">setBrightness()</text>
<text text-anchor="start" x="4.5" y="-67" font-family="Helvetica,sans-Serif" font-size="10.00">+</text>
<text text-anchor="start" x="17.5" y="-67" font-family="Helvetica,sans-Serif" font-size="10.00">setColor()</text>
<text text-anchor="start" x="4.5" y="-52" font-family="Helvetica,sans-Serif" font-size="10.00">+</text>
<text text-anchor="start" x="17.5" y="-52" font-family="Helvetica,sans-Serif" font-size="10.00">getBrightness()</text>
<text text-anchor="start" x="4.5" y="-37" font-family="Helvetica,sans-Serif" font-size="10.00">+</text>
<text text-anchor="start" x="17.5" y="-37" font-family="Helvetica,sans-Serif" font-size="10.00">getColor()</text>
<polygon fill="#666666" stroke="#666666" points="0.5,-137 0.5,-137 97.5,-137 97.5,-137 0.5,-137"/>
<polygon fill="#666666" stroke="#666666" points="0.5,-122 0.5,-122 97.5,-122 97.5,-122 0.5,-122"/>
<polygon fill="none" stroke="#666666" points="0,-30 0,-154 97,-154 97,-30 0,-30"/>
</a>
</g>
</g>
<!-- Node2&#45;&gt;Node3 -->
<g id="edge2_Node000002_Node000003" class="edge">
<title>Node2&#45;&gt;Node3</title>
<g id="a_edge2_Node000002_Node000003"><a xlink:title=" ">
<path fill="none" stroke="#63b8ff" d="M171.64,-266.93C150.77,-241.88 126.79,-212.05 106.5,-184 99.69,-174.59 92.78,-164.4 86.21,-154.36"/>
<polygon fill="none" stroke="#63b8ff" points="169.2,-269.47 178.3,-274.89 174.57,-264.97 169.2,-269.47"/>
</a>
</g>
</g>
<!-- Node4 -->
<g id="Node000004" class="node">
<title>Node4</title>
<g id="a_Node000004"><a xlink:href="../../de/da9/classiot_1_1Motor.html" target="_top" xlink:title="Motor Actuator implementation.">
<polygon fill="white" stroke="transparent" points="211.5,-154 115.5,-154 115.5,-30 211.5,-30 211.5,-154"/>
<text text-anchor="start" x="139.5" y="-142" font-family="Helvetica,sans-Serif" font-size="10.00">iot::Motor</text>
<text text-anchor="start" x="161.5" y="-127" font-family="Helvetica,sans-Serif" font-size="10.00"> </text>
<text text-anchor="start" x="119.5" y="-112" font-family="Helvetica,sans-Serif" font-size="10.00">+</text>
<text text-anchor="start" x="132.5" y="-112" font-family="Helvetica,sans-Serif" font-size="10.00">Motor()</text>
<text text-anchor="start" x="119.5" y="-97" font-family="Helvetica,sans-Serif" font-size="10.00">+</text>
<text text-anchor="start" x="132.5" y="-97" font-family="Helvetica,sans-Serif" font-size="10.00">setState()</text>
<text text-anchor="start" x="119.5" y="-82" font-family="Helvetica,sans-Serif" font-size="10.00">+</text>
<text text-anchor="start" x="132.5" y="-82" font-family="Helvetica,sans-Serif" font-size="10.00">setSpeed()</text>
<text text-anchor="start" x="119.5" y="-67" font-family="Helvetica,sans-Serif" font-size="10.00">+</text>
<text text-anchor="start" x="132.5" y="-67" font-family="Helvetica,sans-Serif" font-size="10.00">stop()</text>
<text text-anchor="start" x="119.5" y="-52" font-family="Helvetica,sans-Serif" font-size="10.00">+</text>
<text text-anchor="start" x="132.5" y="-52" font-family="Helvetica,sans-Serif" font-size="10.00">getSpeed()</text>
<text text-anchor="start" x="119.5" y="-37" font-family="Helvetica,sans-Serif" font-size="10.00">+</text>
<text text-anchor="start" x="132.5" y="-37" font-family="Helvetica,sans-Serif" font-size="10.00">getMaxSpeed()</text>
<polygon fill="#666666" stroke="#666666" points="115.5,-137 115.5,-137 211.5,-137 211.5,-137 115.5,-137"/>
<polygon fill="#666666" stroke="#666666" points="115.5,-122 115.5,-122 211.5,-122 211.5,-122 115.5,-122"/>
<polygon fill="none" stroke="#666666" points="115.5,-30 115.5,-154 211.5,-154 211.5,-30 115.5,-30"/>
</a>
</g>
</g>
<!-- Node2&#45;&gt;Node4 -->
<g id="edge3_Node000002_Node000004" class="edge">
<title>Node2&#45;&gt;Node4</title>
<g id="a_edge3_Node000002_Node000004"><a xlink:title=" ">
<path fill="none" stroke="#63b8ff" d="M202.65,-247.59C194.92,-217.08 186.2,-182.64 178.95,-154.03"/>
<polygon fill="none" stroke="#63b8ff" points="199.27,-248.52 205.12,-257.35 206.06,-246.8 199.27,-248.52"/>
</a>
</g>
</g>
<!-- Node5 -->
<g id="Node000005" class="node">
<title>Node5</title>
<g id="a_Node000005"><a xlink:href="../../d9/dee/classiot_1_1Relay.html" target="_top" xlink:title="Relay Actuator implementation.">
<polygon fill="white" stroke="transparent" points="331.5,-146.5 229.5,-146.5 229.5,-37.5 331.5,-37.5 331.5,-146.5"/>
<text text-anchor="start" x="257" y="-134" font-family="Helvetica,sans-Serif" font-size="10.00">iot::Relay</text>
<text text-anchor="start" x="278.5" y="-119" font-family="Helvetica,sans-Serif" font-size="10.00"> </text>
<text text-anchor="start" x="233.5" y="-104" font-family="Helvetica,sans-Serif" font-size="10.00">+</text>
<text text-anchor="start" x="246.5" y="-104" font-family="Helvetica,sans-Serif" font-size="10.00">Relay()</text>
<text text-anchor="start" x="233.5" y="-89" font-family="Helvetica,sans-Serif" font-size="10.00">+</text>
<text text-anchor="start" x="246.5" y="-89" font-family="Helvetica,sans-Serif" font-size="10.00">setState()</text>
<text text-anchor="start" x="233.5" y="-74" font-family="Helvetica,sans-Serif" font-size="10.00">+</text>
<text text-anchor="start" x="246.5" y="-74" font-family="Helvetica,sans-Serif" font-size="10.00">isOverloaded()</text>
<text text-anchor="start" x="233.5" y="-59" font-family="Helvetica,sans-Serif" font-size="10.00">+</text>
<text text-anchor="start" x="246.5" y="-59" font-family="Helvetica,sans-Serif" font-size="10.00">getCurrent()</text>
<text text-anchor="start" x="233.5" y="-44" font-family="Helvetica,sans-Serif" font-size="10.00">+</text>
<text text-anchor="start" x="246.5" y="-44" font-family="Helvetica,sans-Serif" font-size="10.00">getMaxCurrent()</text>
<polygon fill="#666666" stroke="#666666" points="229.5,-129 229.5,-129 331.5,-129 331.5,-129 229.5,-129"/>
<polygon fill="#666666" stroke="#666666" points="229.5,-114 229.5,-114 331.5,-114 331.5,-114 229.5,-114"/>
<polygon fill="none" stroke="#666666" points="229.5,-37.5 229.5,-146.5 331.5,-146.5 331.5,-37.5 229.5,-37.5"/>
</a>
</g>
</g>
<!-- Node2&#45;&gt;Node5 -->
<g id="edge4_Node000002_Node000005" class="edge">
<title>Node2&#45;&gt;Node5</title>
<g id="a_edge4_Node000002_Node000005"><a xlink:title=" ">
<path fill="none" stroke="#63b8ff" d="M242.1,-247.25C250.33,-214.18 259.7,-176.56 267.12,-146.76"/>
<polygon fill="none" stroke="#63b8ff" points="238.61,-246.8 239.59,-257.35 245.4,-248.49 238.61,-246.8"/>
</a>
</g>
</g>
<!-- Node8 -->
<g id="Node000008" class="node">
<title>Node8</title>
<g id="a_Node000008"><a xlink:href="../../dd/d9a/classiot_1_1BLEHealthSensor.html" target="_top" xlink:title=" ">
<polygon fill="white" stroke="transparent" points="491,-146.5 350,-146.5 350,-37.5 491,-37.5 491,-146.5"/>
<text text-anchor="start" x="369.5" y="-134" font-family="Helvetica,sans-Serif" font-size="10.00">iot::BLEHealthSensor</text>
<text text-anchor="start" x="419" y="-119" font-family="Helvetica,sans-Serif" font-size="10.00"> </text>
<text text-anchor="start" x="354.5" y="-104" font-family="Helvetica,sans-Serif" font-size="10.00">+</text>
<text text-anchor="start" x="367.5" y="-104" font-family="Helvetica,sans-Serif" font-size="10.00">BLEHealthSensor()</text>
<text text-anchor="start" x="354.5" y="-89" font-family="Helvetica,sans-Serif" font-size="10.00">+</text>
<text text-anchor="start" x="367.5" y="-89" font-family="Helvetica,sans-Serif" font-size="10.00">readValue()</text>
<text text-anchor="start" x="354.5" y="-74" font-family="Helvetica,sans-Serif" font-size="10.00">+</text>
<text text-anchor="start" x="367.5" y="-74" font-family="Helvetica,sans-Serif" font-size="10.00">sendData()</text>
<text text-anchor="start" x="354.5" y="-59" font-family="Helvetica,sans-Serif" font-size="10.00">+</text>
<text text-anchor="start" x="367.5" y="-59" font-family="Helvetica,sans-Serif" font-size="10.00">setConnectionOriented()</text>
<text text-anchor="start" x="354.5" y="-44" font-family="Helvetica,sans-Serif" font-size="10.00">+</text>
<text text-anchor="start" x="367.5" y="-44" font-family="Helvetica,sans-Serif" font-size="10.00">isConnectionOriented()</text>
<polygon fill="#666666" stroke="#666666" points="350.5,-129 350.5,-129 491.5,-129 491.5,-129 350.5,-129"/>
<polygon fill="#666666" stroke="#666666" points="350.5,-114 350.5,-114 491.5,-114 491.5,-114 350.5,-114"/>
<polygon fill="none" stroke="#666666" points="350,-37.5 350,-146.5 491,-146.5 491,-37.5 350,-37.5"/>
</a>
</g>
</g>
<!-- Node7&#45;&gt;Node8 -->
<g id="edge7_Node000007_Node000008" class="edge">
<title>Node7&#45;&gt;Node8</title>
<g id="a_edge7_Node000007_Node000008"><a xlink:title=" ">
<path fill="none" stroke="#63b8ff" d="M827.41,-303.66C720.15,-266.13 514.56,-193.6 500.5,-184 485.56,-173.8 471.63,-160.18 459.71,-146.6"/>
<polygon fill="none" stroke="#63b8ff" points="826.56,-307.07 837.16,-307.07 828.87,-300.46 826.56,-307.07"/>
</a>
</g>
</g>
<!-- Node9 -->
<g id="Node000009" class="node">
<title>Node9</title>
<g id="a_Node000009"><a xlink:href="../../d3/d05/classiot_1_1BatteryMotionSensor.html" target="_top" xlink:title="Battery&#45;powered Motion Sensor with sleep cycles.">
<polygon fill="white" stroke="transparent" points="641.5,-184 509.5,-184 509.5,0 641.5,0 641.5,-184"/>
<text text-anchor="start" x="514.5" y="-172" font-family="Helvetica,sans-Serif" font-size="10.00">iot::BatteryMotionSensor</text>
<text text-anchor="start" x="573.5" y="-157" font-family="Helvetica,sans-Serif" font-size="10.00"> </text>
<text text-anchor="start" x="513.5" y="-142" font-family="Helvetica,sans-Serif" font-size="10.00">+</text>
<text text-anchor="start" x="526.5" y="-142" font-family="Helvetica,sans-Serif" font-size="10.00">BatteryMotionSensor()</text>
<text text-anchor="start" x="513.5" y="-127" font-family="Helvetica,sans-Serif" font-size="10.00">+</text>
<text text-anchor="start" x="526.5" y="-127" font-family="Helvetica,sans-Serif" font-size="10.00">readValue()</text>
<text text-anchor="start" x="513.5" y="-112" font-family="Helvetica,sans-Serif" font-size="10.00">+</text>
<text text-anchor="start" x="526.5" y="-112" font-family="Helvetica,sans-Serif" font-size="10.00">sendData()</text>
<text text-anchor="start" x="513.5" y="-97" font-family="Helvetica,sans-Serif" font-size="10.00">+</text>
<text text-anchor="start" x="526.5" y="-97" font-family="Helvetica,sans-Serif" font-size="10.00">receiveData()</text>
<text text-anchor="start" x="513.5" y="-82" font-family="Helvetica,sans-Serif" font-size="10.00">+</text>
<text text-anchor="start" x="526.5" y="-82" font-family="Helvetica,sans-Serif" font-size="10.00">setSleepPattern()</text>
<text text-anchor="start" x="513.5" y="-67" font-family="Helvetica,sans-Serif" font-size="10.00">+</text>
<text text-anchor="start" x="526.5" y="-67" font-family="Helvetica,sans-Serif" font-size="10.00">getBatteryLevel()</text>
<text text-anchor="start" x="513.5" y="-52" font-family="Helvetica,sans-Serif" font-size="10.00">+</text>
<text text-anchor="start" x="526.5" y="-52" font-family="Helvetica,sans-Serif" font-size="10.00">isBatteryLow()</text>
<text text-anchor="start" x="513.5" y="-37" font-family="Helvetica,sans-Serif" font-size="10.00">+</text>
<text text-anchor="start" x="526.5" y="-37" font-family="Helvetica,sans-Serif" font-size="10.00">isBatteryCritical()</text>
<text text-anchor="start" x="513.5" y="-22" font-family="Helvetica,sans-Serif" font-size="10.00">+</text>
<text text-anchor="start" x="526.5" y="-22" font-family="Helvetica,sans-Serif" font-size="10.00">isInLowPowerMode()</text>
<text text-anchor="start" x="513.5" y="-7" font-family="Helvetica,sans-Serif" font-size="10.00">+</text>
<text text-anchor="start" x="526.5" y="-7" font-family="Helvetica,sans-Serif" font-size="10.00">rechargeBattery()</text>
<polygon fill="#666666" stroke="#666666" points="509.5,-167 509.5,-167 641.5,-167 641.5,-167 509.5,-167"/>
<polygon fill="#666666" stroke="#666666" points="509.5,-152 509.5,-152 641.5,-152 641.5,-152 509.5,-152"/>
<polygon fill="none" stroke="#666666" points="509.5,0 509.5,-184 641.5,-184 641.5,0 509.5,0"/>
</a>
</g>
</g>
<!-- Node7&#45;&gt;Node9 -->
<g id="edge8_Node000007_Node000009" class="edge">
<title>Node7&#45;&gt;Node9</title>
<g id="a_edge8_Node000007_Node000009"><a xlink:title=" ">
<path fill="none" stroke="#63b8ff" d="M828.3,-296.49C777.26,-270.91 705.19,-230.72 650.5,-184 647.54,-181.47 644.61,-178.82 641.72,-176.07"/>
<polygon fill="none" stroke="#63b8ff" points="826.75,-299.62 837.26,-300.93 829.86,-293.35 826.75,-299.62"/>
</a>
</g>
</g>
<!-- Node10 -->
<g id="Node000010" class="node">
<title>Node10</title>
<g id="a_Node000010"><a xlink:href="../../df/d56/classiot_1_1BatteryTemperatureSensor.html" target="_top" xlink:title="Battery&#45;powered Temperature Sensor.">
<polygon fill="white" stroke="transparent" points="819.5,-176.5 659.5,-176.5 659.5,-7.5 819.5,-7.5 819.5,-176.5"/>
<text text-anchor="start" x="664.5" y="-164" font-family="Helvetica,sans-Serif" font-size="10.00">iot::BatteryTemperatureSensor</text>
<text text-anchor="start" x="737.5" y="-149" font-family="Helvetica,sans-Serif" font-size="10.00"> </text>
<text text-anchor="start" x="663.5" y="-134" font-family="Helvetica,sans-Serif" font-size="10.00">+</text>
<text text-anchor="start" x="676.5" y="-134" font-family="Helvetica,sans-Serif" font-size="10.00">BatteryTemperatureSensor()</text>
<text text-anchor="start" x="663.5" y="-119" font-family="Helvetica,sans-Serif" font-size="10.00">+</text>
<text text-anchor="start" x="676.5" y="-119" font-family="Helvetica,sans-Serif" font-size="10.00">readValue()</text>
<text text-anchor="start" x="663.5" y="-104" font-family="Helvetica,sans-Serif" font-size="10.00">+</text>
<text text-anchor="start" x="676.5" y="-104" font-family="Helvetica,sans-Serif" font-size="10.00">sendData()</text>
<text text-anchor="start" x="663.5" y="-89" font-family="Helvetica,sans-Serif" font-size="10.00">+</text>
<text text-anchor="start" x="676.5" y="-89" font-family="Helvetica,sans-Serif" font-size="10.00">receiveData()</text>
<text text-anchor="start" x="663.5" y="-74" font-family="Helvetica,sans-Serif" font-size="10.00">+</text>
<text text-anchor="start" x="676.5" y="-74" font-family="Helvetica,sans-Serif" font-size="10.00">getBatteryLevel()</text>
<text text-anchor="start" x="663.5" y="-59" font-family="Helvetica,sans-Serif" font-size="10.00">+</text>
<text text-anchor="start" x="676.5" y="-59" font-family="Helvetica,sans-Serif" font-size="10.00">isBatteryLow()</text>
<text text-anchor="start" x="663.5" y="-44" font-family="Helvetica,sans-Serif" font-size="10.00">+</text>
<text text-anchor="start" x="676.5" y="-44" font-family="Helvetica,sans-Serif" font-size="10.00">isBatteryCritical()</text>
<text text-anchor="start" x="663.5" y="-29" font-family="Helvetica,sans-Serif" font-size="10.00">+</text>
<text text-anchor="start" x="676.5" y="-29" font-family="Helvetica,sans-Serif" font-size="10.00">isInLowPowerMode()</text>
<text text-anchor="start" x="663.5" y="-14" font-family="Helvetica,sans-Serif" font-size="10.00">+</text>
<text text-anchor="start" x="676.5" y="-14" font-family="Helvetica,sans-Serif" font-size="10.00">rechargeBattery()</text>
<polygon fill="#666666" stroke="#666666" points="659.5,-159 659.5,-159 819.5,-159 819.5,-159 659.5,-159"/>
<polygon fill="#666666" stroke="#666666" points="659.5,-144 659.5,-144 819.5,-144 819.5,-144 659.5,-144"/>
<polygon fill="none" stroke="#666666" points="659.5,-7.5 659.5,-176.5 819.5,-176.5 819.5,-7.5 659.5,-7.5"/>
</a>
</g>
</g>
<!-- Node7&#45;&gt;Node10 -->
<g id="edge9_Node000007_Node000010" class="edge">
<title>Node7&#45;&gt;Node10</title>
<g id="a_edge9_Node000007_Node000010"><a xlink:title=" ">
<path fill="none" stroke="#63b8ff" d="M831.99,-234.77C819.51,-215.64 806.4,-195.56 794.11,-176.71"/>
<polygon fill="none" stroke="#63b8ff" points="829.09,-236.73 837.48,-243.2 834.95,-232.91 829.09,-236.73"/>
</a>
</g>
</g>
<!-- Node11 -->
<g id="Node000011" class="node">
<title>Node11</title>
<g id="a_Node000011"><a xlink:href="../../d8/dd2/classiot_1_1HumiditySensor.html" target="_top" xlink:title="Humidity Sensor implementation.">
<polygon fill="white" stroke="transparent" points="945,-124 838,-124 838,-60 945,-60 945,-124"/>
<text text-anchor="start" x="843.5" y="-112" font-family="Helvetica,sans-Serif" font-size="10.00">iot::HumiditySensor</text>
<text text-anchor="start" x="890" y="-97" font-family="Helvetica,sans-Serif" font-size="10.00"> </text>
<text text-anchor="start" x="842.5" y="-82" font-family="Helvetica,sans-Serif" font-size="10.00">+</text>
<text text-anchor="start" x="855.5" y="-82" font-family="Helvetica,sans-Serif" font-size="10.00">HumiditySensor()</text>
<text text-anchor="start" x="842.5" y="-67" font-family="Helvetica,sans-Serif" font-size="10.00">+</text>
<text text-anchor="start" x="855.5" y="-67" font-family="Helvetica,sans-Serif" font-size="10.00">readValue()</text>
<polygon fill="#666666" stroke="#666666" points="838.5,-107 838.5,-107 945.5,-107 945.5,-107 838.5,-107"/>
<polygon fill="#666666" stroke="#666666" points="838.5,-92 838.5,-92 945.5,-92 945.5,-92 838.5,-92"/>
<polygon fill="none" stroke="#666666" points="838,-60 838,-124 945,-124 945,-60 838,-60"/>
</a>
</g>
</g>
<!-- Node7&#45;&gt;Node11 -->
<g id="edge10_Node000007_Node000011" class="edge">
<title>Node7&#45;&gt;Node11</title>
<g id="a_edge10_Node000007_Node000011"><a xlink:title=" ">
<path fill="none" stroke="#63b8ff" d="M891.5,-209.51C891.5,-177.99 891.5,-146.48 891.5,-124.18"/>
<polygon fill="none" stroke="#63b8ff" points="888,-209.73 891.5,-219.73 895,-209.73 888,-209.73"/>
</a>
</g>
</g>
<!-- Node12 -->
<g id="Node000012" class="node">
<title>Node12</title>
<g id="a_Node000012"><a xlink:href="../../d2/dc6/classiot_1_1LoRaTemperatureSensor.html" target="_top" xlink:title=" ">
<polygon fill="white" stroke="transparent" points="1111.5,-146.5 963.5,-146.5 963.5,-37.5 1111.5,-37.5 1111.5,-146.5"/>
<text text-anchor="start" x="968.5" y="-134" font-family="Helvetica,sans-Serif" font-size="10.00">iot::LoRaTemperatureSensor</text>
<text text-anchor="start" x="1035.5" y="-119" font-family="Helvetica,sans-Serif" font-size="10.00"> </text>
<text text-anchor="start" x="967.5" y="-104" font-family="Helvetica,sans-Serif" font-size="10.00">+</text>
<text text-anchor="start" x="980.5" y="-104" font-family="Helvetica,sans-Serif" font-size="10.00">LoRaTemperatureSensor()</text>
<text text-anchor="start" x="967.5" y="-89" font-family="Helvetica,sans-Serif" font-size="10.00">+</text>
<text text-anchor="start" x="980.5" y="-89" font-family="Helvetica,sans-Serif" font-size="10.00">readValue()</text>
<text text-anchor="start" x="967.5" y="-74" font-family="Helvetica,sans-Serif" font-size="10.00">+</text>
<text text-anchor="start" x="980.5" y="-74" font-family="Helvetica,sans-Serif" font-size="10.00">sendData()</text>
<text text-anchor="start" x="967.5" y="-59" font-family="Helvetica,sans-Serif" font-size="10.00">+</text>
<text text-anchor="start" x="980.5" y="-59" font-family="Helvetica,sans-Serif" font-size="10.00">setDutyCycleLimit()</text>
<text text-anchor="start" x="967.5" y="-44" font-family="Helvetica,sans-Serif" font-size="10.00">+</text>
<text text-anchor="start" x="980.5" y="-44" font-family="Helvetica,sans-Serif" font-size="10.00">getDutyCycleLimit()</text>
<polygon fill="#666666" stroke="#666666" points="963.5,-129 963.5,-129 1111.5,-129 1111.5,-129 963.5,-129"/>
<polygon fill="#666666" stroke="#666666" points="963.5,-114 963.5,-114 1111.5,-114 1111.5,-114 963.5,-114"/>
<polygon fill="none" stroke="#666666" points="963.5,-37.5 963.5,-146.5 1111.5,-146.5 1111.5,-37.5 963.5,-37.5"/>
</a>
</g>
</g>
<!-- Node7&#45;&gt;Node12 -->
<g id="edge11_Node000007_Node000012" class="edge">
<title>Node7&#45;&gt;Node12</title>
<g id="a_edge11_Node000007_Node000012"><a xlink:title=" ">
<path fill="none" stroke="#63b8ff" d="M951.18,-230.76C969.11,-202.14 988.15,-171.76 1003.77,-146.83"/>
<polygon fill="none" stroke="#63b8ff" points="948,-229.24 945.66,-239.57 953.93,-232.96 948,-229.24"/>
</a>
</g>
</g>
<!-- Node13 -->
<g id="Node000013" class="node">
<title>Node13</title>
<g id="a_Node000013"><a xlink:href="../../d2/da9/classiot_1_1MotionSensor.html" target="_top" xlink:title="Motion Sensor implementation.">
<polygon fill="white" stroke="transparent" points="1261,-131.5 1130,-131.5 1130,-52.5 1261,-52.5 1261,-131.5"/>
<text text-anchor="start" x="1153" y="-119" font-family="Helvetica,sans-Serif" font-size="10.00">iot::MotionSensor</text>
<text text-anchor="start" x="1194" y="-104" font-family="Helvetica,sans-Serif" font-size="10.00"> </text>
<text text-anchor="start" x="1134.5" y="-89" font-family="Helvetica,sans-Serif" font-size="10.00">+</text>
<text text-anchor="start" x="1147.5" y="-89" font-family="Helvetica,sans-Serif" font-size="10.00">MotionSensor()</text>
<text text-anchor="start" x="1134.5" y="-74" font-family="Helvetica,sans-Serif" font-size="10.00">+</text>
<text text-anchor="start" x="1147.5" y="-74" font-family="Helvetica,sans-Serif" font-size="10.00">readValue()</text>
<text text-anchor="start" x="1134.5" y="-59" font-family="Helvetica,sans-Serif" font-size="10.00">+</text>
<text text-anchor="start" x="1147.5" y="-59" font-family="Helvetica,sans-Serif" font-size="10.00">updateMotionPattern()</text>
<polygon fill="#666666" stroke="#666666" points="1130.5,-114 1130.5,-114 1261.5,-114 1261.5,-114 1130.5,-114"/>
<polygon fill="#666666" stroke="#666666" points="1130.5,-99 1130.5,-99 1261.5,-99 1261.5,-99 1130.5,-99"/>
<polygon fill="none" stroke="#666666" points="1130,-52.5 1130,-131.5 1261,-131.5 1261,-52.5 1130,-52.5"/>
</a>
</g>
</g>
<!-- Node7&#45;&gt;Node13 -->
<g id="edge12_Node000007_Node000013" class="edge">
<title>Node7&#45;&gt;Node13</title>
<g id="a_edge12_Node000007_Node000013"><a xlink:title=" ">
<path fill="none" stroke="#63b8ff" d="M954.84,-294.06C1003.04,-268.09 1069.54,-228.54 1120.5,-184 1138.07,-168.64 1154.87,-148.92 1168.09,-131.76"/>
<polygon fill="none" stroke="#63b8ff" points="952.93,-291.12 945.76,-298.91 956.23,-297.29 952.93,-291.12"/>
</a>
</g>
</g>
<!-- Node14 -->
<g id="Node000014" class="node">
<title>Node14</title>
<g id="a_Node000014"><a xlink:href="../../d0/d39/classiot_1_1TemperatureSensor.html" target="_top" xlink:title="Temperature Sensor implementation.">
<polygon fill="white" stroke="transparent" points="1403.5,-124 1279.5,-124 1279.5,-60 1403.5,-60 1403.5,-124"/>
<text text-anchor="start" x="1284.5" y="-112" font-family="Helvetica,sans-Serif" font-size="10.00">iot::TemperatureSensor</text>
<text text-anchor="start" x="1339.5" y="-97" font-family="Helvetica,sans-Serif" font-size="10.00"> </text>
<text text-anchor="start" x="1283.5" y="-82" font-family="Helvetica,sans-Serif" font-size="10.00">+</text>
<text text-anchor="start" x="1296.5" y="-82" font-family="Helvetica,sans-Serif" font-size="10.00">TemperatureSensor()</text>
<text text-anchor="start" x="1283.5" y="-67" font-family="Helvetica,sans-Serif" font-size="10.00">+</text>
<text text-anchor="start" x="1296.5" y="-67" font-family="Helvetica,sans-Serif" font-size="10.00">readValue()</text>
<polygon fill="#666666" stroke="#666666" points="1279.5,-107 1279.5,-107 1403.5,-107 1403.5,-107 1279.5,-107"/>
<polygon fill="#666666" stroke="#666666" points="1279.5,-92 1279.5,-92 1403.5,-92 1403.5,-92 1279.5,-92"/>
<polygon fill="none" stroke="#666666" points="1279.5,-60 1279.5,-124 1403.5,-124 1403.5,-60 1279.5,-60"/>
</a>
</g>
</g>
<!-- Node7&#45;&gt;Node14 -->
<g id="edge13_Node000007_Node000014" class="edge">
<title>Node7&#45;&gt;Node14</title>
<g id="a_edge13_Node000007_Node000014"><a xlink:title=" ">
<path fill="none" stroke="#63b8ff" d="M955.48,-313.31C1035.26,-295.11 1173.01,-255.59 1270.5,-184 1292.3,-167.99 1310.86,-143.56 1323.52,-124.04"/>
<polygon fill="none" stroke="#63b8ff" points="954.56,-309.93 945.57,-315.54 956.09,-316.76 954.56,-309.93"/>
</a>
</g>
</g>
<!-- Node15 -->
<g id="Node000015" class="node">
<title>Node15</title>
<g id="a_Node000015"><a xlink:href="../../d8/d0a/classiot_1_1ZigBeeMotionSensor.html" target="_top" xlink:title=" ">
<polygon fill="white" stroke="transparent" points="1553,-154 1422,-154 1422,-30 1553,-30 1553,-154"/>
<text text-anchor="start" x="1427.5" y="-142" font-family="Helvetica,sans-Serif" font-size="10.00">iot::ZigBeeMotionSensor</text>
<text text-anchor="start" x="1486" y="-127" font-family="Helvetica,sans-Serif" font-size="10.00"> </text>
<text text-anchor="start" x="1426.5" y="-112" font-family="Helvetica,sans-Serif" font-size="10.00">+</text>
<text text-anchor="start" x="1439.5" y="-112" font-family="Helvetica,sans-Serif" font-size="10.00">ZigBeeMotionSensor()</text>
<text text-anchor="start" x="1426.5" y="-97" font-family="Helvetica,sans-Serif" font-size="10.00">+</text>
<text text-anchor="start" x="1439.5" y="-97" font-family="Helvetica,sans-Serif" font-size="10.00">readValue()</text>
<text text-anchor="start" x="1426.5" y="-82" font-family="Helvetica,sans-Serif" font-size="10.00">+</text>
<text text-anchor="start" x="1439.5" y="-82" font-family="Helvetica,sans-Serif" font-size="10.00">sendData()</text>
<text text-anchor="start" x="1426.5" y="-67" font-family="Helvetica,sans-Serif" font-size="10.00">+</text>
<text text-anchor="start" x="1439.5" y="-67" font-family="Helvetica,sans-Serif" font-size="10.00">setHopCount()</text>
<text text-anchor="start" x="1426.5" y="-52" font-family="Helvetica,sans-Serif" font-size="10.00">+</text>
<text text-anchor="start" x="1439.5" y="-52" font-family="Helvetica,sans-Serif" font-size="10.00">getHopCount()</text>
<text text-anchor="start" x="1426.5" y="-37" font-family="Helvetica,sans-Serif" font-size="10.00">+</text>
<text text-anchor="start" x="1439.5" y="-37" font-family="Helvetica,sans-Serif" font-size="10.00">setMeshRouting()</text>
<polygon fill="#666666" stroke="#666666" points="1422.5,-137 1422.5,-137 1553.5,-137 1553.5,-137 1422.5,-137"/>
<polygon fill="#666666" stroke="#666666" points="1422.5,-122 1422.5,-122 1553.5,-122 1553.5,-122 1422.5,-122"/>
<polygon fill="none" stroke="#666666" points="1422,-30 1422,-154 1553,-154 1553,-30 1422,-30"/>
</a>
</g>
</g>
<!-- Node7&#45;&gt;Node15 -->
<g id="edge14_Node000007_Node000015" class="edge">
<title>Node7&#45;&gt;Node15</title>
<g id="a_edge14_Node000007_Node000015"><a xlink:title=" ">
<path fill="none" stroke="#63b8ff" d="M955.74,-321.03C1059.43,-310.41 1266.77,-278.19 1412.5,-184 1424.88,-176 1436.23,-165.3 1446.15,-154.05"/>
<polygon fill="none" stroke="#63b8ff" points="955.34,-317.55 945.73,-322.02 956.03,-324.52 955.34,-317.55"/>
</a>
</g>
</g>
</g>
</svg>
