<?xml version="1.0" encoding="UTF-8" standalone="no"?>
<!DOCTYPE svg PUBLIC "-//W3C//DTD SVG 1.1//EN"
 "http://www.w3.org/Graphics/SVG/1.1/DTD/svg11.dtd">
<!-- Generated by graphviz version 2.43.0 (0)
 -->
<!-- Title: iot::Sensor::receiveData Pages: 1 -->
<svg width="345pt" height="138pt"
 viewBox="0.00 0.00 345.00 138.00" xmlns="http://www.w3.org/2000/svg" xmlns:xlink="http://www.w3.org/1999/xlink">
<g id="graph0" class="graph" transform="scale(1 1) rotate(0) translate(4 134)">
<title>iot::Sensor::receiveData</title>
<!-- Node1 -->
<g id="Node000001" class="node">
<title>Node1</title>
<g id="a_Node000001"><a xlink:title=" ">
<polygon fill="#999999" stroke="#666666" points="134,-74 0,-74 0,-55 134,-55 134,-74"/>
<text text-anchor="middle" x="67" y="-62" font-family="Helvetica,sans-Serif" font-size="10.00">iot::Sensor::receiveData</text>
</a>
</g>
</g>
<!-- Node2 -->
<g id="Node000002" class="node">
<title>Node2</title>
<g id="a_Node000002"><a xlink:href="../../df/dfa/classiot_1_1IoTDevice.html#a5d5f0db665e7811d71d5ee86f570e9fe" target="_top" xlink:title=" ">
<polygon fill="white" stroke="#666666" points="328,-130 179,-130 179,-111 328,-111 328,-130"/>
<text text-anchor="middle" x="253.5" y="-118" font-family="Helvetica,sans-Serif" font-size="10.00">iot::IoTDevice::getDeviceId</text>
</a>
</g>
</g>
<!-- Node1&#45;&gt;Node2 -->
<g id="edge1_Node000001_Node000002" class="edge">
<title>Node1&#45;&gt;Node2</title>
<g id="a_edge1_Node000001_Node000002"><a xlink:title=" ">
<path fill="none" stroke="#63b8ff" d="M90.78,-74.05C111.24,-82.37 142.26,-94.35 170,-102.5 177.52,-104.71 185.49,-106.78 193.4,-108.67"/>
<polygon fill="#63b8ff" stroke="#63b8ff" points="192.82,-112.13 203.35,-110.97 194.4,-105.31 192.82,-112.13"/>
</a>
</g>
</g>
<!-- Node3 -->
<g id="Node000003" class="node">
<title>Node3</title>
<g id="a_Node000003"><a xlink:href="../../d6/d08/classiot_1_1Message.html#adbd88582dd9c4207b91b96083b8f46ea" target="_top" xlink:title=" ">
<polygon fill="white" stroke="#666666" points="337,-93 170,-93 170,-74 337,-74 337,-93"/>
<text text-anchor="middle" x="253.5" y="-81" font-family="Helvetica,sans-Serif" font-size="10.00">iot::Message::getMessageType</text>
</a>
</g>
</g>
<!-- Node1&#45;&gt;Node3 -->
<g id="edge2_Node000001_Node000003" class="edge">
<title>Node1&#45;&gt;Node3</title>
<g id="a_edge2_Node000001_Node000003"><a xlink:title=" ">
<path fill="none" stroke="#63b8ff" d="M134.09,-71.31C142.41,-72.16 151.04,-73.05 159.68,-73.94"/>
<polygon fill="#63b8ff" stroke="#63b8ff" points="159.51,-77.44 169.81,-74.98 160.22,-70.48 159.51,-77.44"/>
</a>
</g>
</g>
<!-- Node4 -->
<g id="Node000004" class="node">
<title>Node4</title>
<g id="a_Node000004"><a xlink:href="../../d6/d08/classiot_1_1Message.html#a866a8a1eb2d5df27485288aa87a4095a" target="_top" xlink:title=" ">
<polygon fill="white" stroke="#666666" points="323,-56 184,-56 184,-37 323,-37 323,-56"/>
<text text-anchor="middle" x="253.5" y="-44" font-family="Helvetica,sans-Serif" font-size="10.00">iot::Message::getPayload</text>
</a>
</g>
</g>
<!-- Node1&#45;&gt;Node4 -->
<g id="edge3_Node000001_Node000004" class="edge">
<title>Node1&#45;&gt;Node4</title>
<g id="a_edge3_Node000001_Node000004"><a xlink:title=" ">
<path fill="none" stroke="#63b8ff" d="M134.09,-58.05C146.94,-56.8 160.53,-55.47 173.75,-54.18"/>
<polygon fill="#63b8ff" stroke="#63b8ff" points="174.15,-57.66 183.76,-53.21 173.47,-50.69 174.15,-57.66"/>
</a>
</g>
</g>
<!-- Node5 -->
<g id="Node000005" class="node">
<title>Node5</title>
<g id="a_Node000005"><a xlink:href="../../df/dfa/classiot_1_1IoTDevice.html#a135a2c3070f6fbc2853dbd64ceefeb6f" target="_top" xlink:title=" ">
<polygon fill="white" stroke="#666666" points="322,-19 185,-19 185,0 322,0 322,-19"/>
<text text-anchor="middle" x="253.5" y="-7" font-family="Helvetica,sans-Serif" font-size="10.00">iot::IoTDevice::getStatus</text>
</a>
</g>
</g>
<!-- Node1&#45;&gt;Node5 -->
<g id="edge4_Node000001_Node000005" class="edge">
<title>Node1&#45;&gt;Node5</title>
<g id="a_edge4_Node000001_Node000005"><a xlink:title=" ">
<path fill="none" stroke="#63b8ff" d="M92.48,-54.98C112.99,-47.22 143.13,-36.31 170,-28.5 178.71,-25.97 188.01,-23.56 197.11,-21.35"/>
<polygon fill="#63b8ff" stroke="#63b8ff" points="197.95,-24.75 206.87,-19.04 196.34,-17.94 197.95,-24.75"/>
</a>
</g>
</g>
</g>
</svg>
