<?xml version="1.0" encoding="UTF-8" standalone="no"?>
<!DOCTYPE svg PUBLIC "-//W3C//DTD SVG 1.1//EN"
 "http://www.w3.org/Graphics/SVG/1.1/DTD/svg11.dtd">
<!-- Generated by graphviz version 2.43.0 (0)
 -->
<!-- Title: iot::Sensor::readValue Pages: 1 -->
<svg width="490pt" height="230pt"
 viewBox="0.00 0.00 490.00 230.00" xmlns="http://www.w3.org/2000/svg" xmlns:xlink="http://www.w3.org/1999/xlink">
<g id="graph0" class="graph" transform="scale(1 1) rotate(0) translate(4 226)">
<title>iot::Sensor::readValue</title>
<!-- Node1 -->
<g id="Node000001" class="node">
<title>Node1</title>
<g id="a_Node000001"><a xlink:title=" ">
<polygon fill="#999999" stroke="#666666" points="482,-120.5 359,-120.5 359,-101.5 482,-101.5 482,-120.5"/>
<text text-anchor="middle" x="420.5" y="-108.5" font-family="Helvetica,sans-Serif" font-size="10.00">iot::Sensor::readValue</text>
</a>
</g>
</g>
<!-- Node2 -->
<g id="Node000002" class="node">
<title>Node2</title>
<g id="a_Node000002"><a xlink:href="../../d6/da8/classiot_1_1Sensor.html#a4fe640988365e72916e10897b82980d1" target="_top" xlink:title=" ">
<polygon fill="white" stroke="#666666" points="323,-120.5 202,-120.5 202,-101.5 323,-101.5 323,-120.5"/>
<text text-anchor="middle" x="262.5" y="-108.5" font-family="Helvetica,sans-Serif" font-size="10.00">iot::Sensor::sendData</text>
</a>
</g>
</g>
<!-- Node1&#45;&gt;Node2 -->
<g id="edge1_Node000001_Node000002" class="edge">
<title>Node1&#45;&gt;Node2</title>
<g id="a_edge1_Node000001_Node000002"><a xlink:title=" ">
<path fill="none" stroke="#63b8ff" d="M348.47,-111C339.98,-111 331.38,-111 323.07,-111"/>
<polygon fill="#63b8ff" stroke="#63b8ff" points="348.74,-114.5 358.74,-111 348.74,-107.5 348.74,-114.5"/>
</a>
</g>
</g>
<!-- Node3 -->
<g id="Node000003" class="node">
<title>Node3</title>
<g id="a_Node000003"><a xlink:href="../../df/d56/classiot_1_1BatteryTemperatureSensor.html#aed7c85ec4eee3431942cdcb5a118a64d" target="_top" xlink:title=" ">
<polygon fill="white" stroke="#666666" points="166,-222 0,-222 0,-192 166,-192 166,-222"/>
<text text-anchor="start" x="8" y="-210" font-family="Helvetica,sans-Serif" font-size="10.00">iot::BatteryTemperatureSensor</text>
<text text-anchor="middle" x="83" y="-199" font-family="Helvetica,sans-Serif" font-size="10.00">::sendData</text>
</a>
</g>
</g>
<!-- Node2&#45;&gt;Node3 -->
<g id="edge2_Node000002_Node000003" class="edge">
<title>Node2&#45;&gt;Node3</title>
<g id="a_edge2_Node000002_Node000003"><a xlink:title=" ">
<path fill="none" stroke="#63b8ff" d="M243.96,-127.36C225.73,-143.56 195.77,-168.05 166,-183 159.37,-186.33 152.21,-189.27 144.96,-191.85"/>
<polygon fill="#63b8ff" stroke="#63b8ff" points="246.4,-129.87 251.46,-120.56 241.7,-124.68 246.4,-129.87"/>
</a>
</g>
</g>
<!-- Node4 -->
<g id="Node000004" class="node">
<title>Node4</title>
<g id="a_Node000004"><a xlink:href="../../d3/d05/classiot_1_1BatteryMotionSensor.html#a4fe971e8104caceb889d4f3029533700" target="_top" xlink:title=" ">
<polygon fill="white" stroke="#666666" points="152,-174 14,-174 14,-144 152,-144 152,-174"/>
<text text-anchor="start" x="22" y="-162" font-family="Helvetica,sans-Serif" font-size="10.00">iot::BatteryMotionSensor</text>
<text text-anchor="middle" x="83" y="-151" font-family="Helvetica,sans-Serif" font-size="10.00">::sendData</text>
</a>
</g>
</g>
<!-- Node2&#45;&gt;Node4 -->
<g id="edge3_Node000002_Node000004" class="edge">
<title>Node2&#45;&gt;Node4</title>
<g id="a_edge3_Node000002_Node000004"><a xlink:title=" ">
<path fill="none" stroke="#63b8ff" d="M216.06,-123.29C192.79,-129.58 164.28,-137.29 139.7,-143.94"/>
<polygon fill="#63b8ff" stroke="#63b8ff" points="217.27,-126.59 226.01,-120.6 215.44,-119.83 217.27,-126.59"/>
</a>
</g>
</g>
<!-- Node5 -->
<g id="Node000005" class="node">
<title>Node5</title>
<g id="a_Node000005"><a xlink:href="../../d2/dc6/classiot_1_1LoRaTemperatureSensor.html#a0ae321277a58b9cbcf3ab9df89899d84" target="_top" xlink:title=" ">
<polygon fill="white" stroke="#666666" points="160,-126 6,-126 6,-96 160,-96 160,-126"/>
<text text-anchor="start" x="14" y="-114" font-family="Helvetica,sans-Serif" font-size="10.00">iot::LoRaTemperatureSensor</text>
<text text-anchor="middle" x="83" y="-103" font-family="Helvetica,sans-Serif" font-size="10.00">::sendData</text>
</a>
</g>
</g>
<!-- Node2&#45;&gt;Node5 -->
<g id="edge4_Node000002_Node000005" class="edge">
<title>Node2&#45;&gt;Node5</title>
<g id="a_edge4_Node000002_Node000005"><a xlink:title=" ">
<path fill="none" stroke="#63b8ff" d="M191.69,-111C181.34,-111 170.62,-111 160.15,-111"/>
<polygon fill="#63b8ff" stroke="#63b8ff" points="191.9,-114.5 201.9,-111 191.9,-107.5 191.9,-114.5"/>
</a>
</g>
</g>
<!-- Node6 -->
<g id="Node000006" class="node">
<title>Node6</title>
<g id="a_Node000006"><a xlink:href="../../d8/d0a/classiot_1_1ZigBeeMotionSensor.html#a0c6be14ffbf689dc34c997dfb1cc16de" target="_top" xlink:title=" ">
<polygon fill="white" stroke="#666666" points="151.5,-78 14.5,-78 14.5,-48 151.5,-48 151.5,-78"/>
<text text-anchor="start" x="22.5" y="-66" font-family="Helvetica,sans-Serif" font-size="10.00">iot::ZigBeeMotionSensor</text>
<text text-anchor="middle" x="83" y="-55" font-family="Helvetica,sans-Serif" font-size="10.00">::sendData</text>
</a>
</g>
</g>
<!-- Node2&#45;&gt;Node6 -->
<g id="edge5_Node000002_Node000006" class="edge">
<title>Node2&#45;&gt;Node6</title>
<g id="a_edge5_Node000002_Node000006"><a xlink:title=" ">
<path fill="none" stroke="#63b8ff" d="M216.06,-98.71C192.79,-92.42 164.28,-84.71 139.7,-78.06"/>
<polygon fill="#63b8ff" stroke="#63b8ff" points="215.44,-102.17 226.01,-101.4 217.27,-95.41 215.44,-102.17"/>
</a>
</g>
</g>
<!-- Node7 -->
<g id="Node000007" class="node">
<title>Node7</title>
<g id="a_Node000007"><a xlink:href="../../dd/d9a/classiot_1_1BLEHealthSensor.html#a4bcb8c9cc40c158110830c62eebb27ea" target="_top" xlink:title=" ">
<polygon fill="white" stroke="#666666" points="142.5,-30 23.5,-30 23.5,0 142.5,0 142.5,-30"/>
<text text-anchor="start" x="31.5" y="-18" font-family="Helvetica,sans-Serif" font-size="10.00">iot::BLEHealthSensor</text>
<text text-anchor="middle" x="83" y="-7" font-family="Helvetica,sans-Serif" font-size="10.00">::sendData</text>
</a>
</g>
</g>
<!-- Node2&#45;&gt;Node7 -->
<g id="edge6_Node000002_Node000007" class="edge">
<title>Node2&#45;&gt;Node7</title>
<g id="a_edge6_Node000002_Node000007"><a xlink:title=" ">
<path fill="none" stroke="#63b8ff" d="M243.96,-94.64C225.73,-78.44 195.77,-53.95 166,-39 158.71,-35.34 150.77,-32.14 142.79,-29.38"/>
<polygon fill="#63b8ff" stroke="#63b8ff" points="241.7,-97.32 251.46,-101.44 246.4,-92.13 241.7,-97.32"/>
</a>
</g>
</g>
</g>
</svg>
