<?xml version="1.0" encoding="UTF-8" standalone="no"?>
<!DOCTYPE svg PUBLIC "-//W3C//DTD SVG 1.1//EN"
 "http://www.w3.org/Graphics/SVG/1.1/DTD/svg11.dtd">
<!-- Generated by graphviz version 2.43.0 (0)
 -->
<!-- Title: iot::Sensor::receiveData Pages: 1 -->
<svg width="344pt" height="86pt"
 viewBox="0.00 0.00 344.00 86.00" xmlns="http://www.w3.org/2000/svg" xmlns:xlink="http://www.w3.org/1999/xlink">
<g id="graph0" class="graph" transform="scale(1 1) rotate(0) translate(4 82)">
<title>iot::Sensor::receiveData</title>
<!-- Node1 -->
<g id="Node000001" class="node">
<title>Node1</title>
<g id="a_Node000001"><a xlink:title=" ">
<polygon fill="#999999" stroke="#666666" points="336,-48.5 202,-48.5 202,-29.5 336,-29.5 336,-48.5"/>
<text text-anchor="middle" x="269" y="-36.5" font-family="Helvetica,sans-Serif" font-size="10.00">iot::Sensor::receiveData</text>
</a>
</g>
</g>
<!-- Node2 -->
<g id="Node000002" class="node">
<title>Node2</title>
<g id="a_Node000002"><a xlink:href="../../df/d56/classiot_1_1BatteryTemperatureSensor.html#af3d106ea1ee1822d7714f757f542a9b8" target="_top" xlink:title=" ">
<polygon fill="white" stroke="#666666" points="166,-78 0,-78 0,-48 166,-48 166,-78"/>
<text text-anchor="start" x="8" y="-66" font-family="Helvetica,sans-Serif" font-size="10.00">iot::BatteryTemperatureSensor</text>
<text text-anchor="middle" x="83" y="-55" font-family="Helvetica,sans-Serif" font-size="10.00">::receiveData</text>
</a>
</g>
</g>
<!-- Node1&#45;&gt;Node2 -->
<g id="edge1_Node000001_Node000002" class="edge">
<title>Node1&#45;&gt;Node2</title>
<g id="a_edge1_Node000001_Node000002"><a xlink:title=" ">
<path fill="none" stroke="#63b8ff" d="M191.7,-48.95C183.3,-50.05 174.72,-51.17 166.25,-52.27"/>
<polygon fill="#63b8ff" stroke="#63b8ff" points="192.37,-52.39 201.83,-47.63 191.46,-45.45 192.37,-52.39"/>
</a>
</g>
</g>
<!-- Node3 -->
<g id="Node000003" class="node">
<title>Node3</title>
<g id="a_Node000003"><a xlink:href="../../d3/d05/classiot_1_1BatteryMotionSensor.html#ad0cc1fc090139120f1898068bb211497" target="_top" xlink:title=" ">
<polygon fill="white" stroke="#666666" points="152,-30 14,-30 14,0 152,0 152,-30"/>
<text text-anchor="start" x="22" y="-18" font-family="Helvetica,sans-Serif" font-size="10.00">iot::BatteryMotionSensor</text>
<text text-anchor="middle" x="83" y="-7" font-family="Helvetica,sans-Serif" font-size="10.00">::receiveData</text>
</a>
</g>
</g>
<!-- Node1&#45;&gt;Node3 -->
<g id="edge2_Node000001_Node000003" class="edge">
<title>Node1&#45;&gt;Node3</title>
<g id="a_edge2_Node000001_Node000003"><a xlink:title=" ">
<path fill="none" stroke="#63b8ff" d="M191.85,-29.07C178.66,-27.35 165.02,-25.57 152.06,-23.88"/>
<polygon fill="#63b8ff" stroke="#63b8ff" points="191.46,-32.55 201.83,-30.37 192.37,-25.61 191.46,-32.55"/>
</a>
</g>
</g>
</g>
</svg>
