<?xml version="1.0" encoding="UTF-8" standalone="no"?>
<!DOCTYPE svg PUBLIC "-//W3C//DTD SVG 1.1//EN"
 "http://www.w3.org/Graphics/SVG/1.1/DTD/svg11.dtd">
<!-- Generated by graphviz version 2.43.0 (0)
 -->
<!-- Title: src/main.cpp Pages: 1 -->
<svg width="1676pt" height="467pt"
 viewBox="0.00 0.00 1676.00 467.00" xmlns="http://www.w3.org/2000/svg" xmlns:xlink="http://www.w3.org/1999/xlink">
<g id="graph0" class="graph" transform="scale(1 1) rotate(0) translate(4 463)">
<title>src/main.cpp</title>
<!-- Node1 -->
<g id="Node000001" class="node">
<title>Node1</title>
<g id="a_Node000001"><a xlink:title=" ">
<polygon fill="#999999" stroke="#666666" points="745.5,-459 666.5,-459 666.5,-440 745.5,-440 745.5,-459"/>
<text text-anchor="middle" x="706" y="-447" font-family="Helvetica,sans-Serif" font-size="10.00">src/main.cpp</text>
</a>
</g>
</g>
<!-- Node2 -->
<g id="Node000002" class="node">
<title>Node2</title>
<g id="a_Node000002"><a xlink:title=" ">
<polygon fill="#e0e0e0" stroke="#999999" points="330,-266.5 270,-266.5 270,-247.5 330,-247.5 330,-266.5"/>
<text text-anchor="middle" x="300" y="-254.5" font-family="Helvetica,sans-Serif" font-size="10.00">iostream</text>
</a>
</g>
</g>
<!-- Node1&#45;&gt;Node2 -->
<g id="edge1_Node000001_Node000002" class="edge">
<title>Node1&#45;&gt;Node2</title>
<g id="a_edge1_Node000001_Node000002"><a xlink:title=" ">
<path fill="none" stroke="#63b8ff" d="M666.25,-449.32C580.35,-450.24 381.26,-447.5 333,-404 296.73,-371.3 295.93,-307.94 298.06,-276.55"/>
<polygon fill="#63b8ff" stroke="#63b8ff" points="301.55,-276.81 298.93,-266.54 294.58,-276.21 301.55,-276.81"/>
</a>
</g>
</g>
<!-- Node3 -->
<g id="Node000003" class="node">
<title>Node3</title>
<g id="a_Node000003"><a xlink:title=" ">
<polygon fill="#e0e0e0" stroke="#999999" points="1374,-19 1316,-19 1316,0 1374,0 1374,-19"/>
<text text-anchor="middle" x="1345" y="-7" font-family="Helvetica,sans-Serif" font-size="10.00">memory</text>
</a>
</g>
</g>
<!-- Node1&#45;&gt;Node3 -->
<g id="edge2_Node000001_Node000003" class="edge">
<title>Node1&#45;&gt;Node3</title>
<g id="a_edge2_Node000001_Node000003"><a xlink:title=" ">
<path fill="none" stroke="#63b8ff" d="M745.51,-447.62C926.53,-443.06 1668,-418.62 1668,-324 1668,-324 1668,-324 1668,-124 1668,-80 1636.17,-75.04 1597,-55 1527.99,-19.69 1435.99,-11.84 1384.39,-10.42"/>
<polygon fill="#63b8ff" stroke="#63b8ff" points="1384.4,-6.92 1374.33,-10.21 1384.25,-13.92 1384.4,-6.92"/>
</a>
</g>
</g>
<!-- Node4 -->
<g id="Node000004" class="node">
<title>Node4</title>
<g id="a_Node000004"><a xlink:title=" ">
<polygon fill="#e0e0e0" stroke="#999999" points="1248,-134.5 1200,-134.5 1200,-115.5 1248,-115.5 1248,-134.5"/>
<text text-anchor="middle" x="1224" y="-122.5" font-family="Helvetica,sans-Serif" font-size="10.00">thread</text>
</a>
</g>
</g>
<!-- Node1&#45;&gt;Node4 -->
<g id="edge3_Node000001_Node000004" class="edge">
<title>Node1&#45;&gt;Node4</title>
<g id="a_edge3_Node000001_Node000004"><a xlink:title=" ">
<path fill="none" stroke="#63b8ff" d="M745.63,-448.32C874.89,-446.66 1276,-432.76 1276,-324 1276,-324 1276,-324 1276,-256 1276,-212.87 1251.02,-167.07 1235.68,-143.03"/>
<polygon fill="#63b8ff" stroke="#63b8ff" points="1238.59,-141.08 1230.17,-134.66 1232.75,-144.93 1238.59,-141.08"/>
</a>
</g>
</g>
<!-- Node5 -->
<g id="Node000005" class="node">
<title>Node5</title>
<g id="a_Node000005"><a xlink:title=" ">
<polygon fill="#e0e0e0" stroke="#999999" points="349,-19 299,-19 299,0 349,0 349,-19"/>
<text text-anchor="middle" x="324" y="-7" font-family="Helvetica,sans-Serif" font-size="10.00">chrono</text>
</a>
</g>
</g>
<!-- Node1&#45;&gt;Node5 -->
<g id="edge4_Node000001_Node000005" class="edge">
<title>Node1&#45;&gt;Node5</title>
<g id="a_edge4_Node000001_Node000005"><a xlink:title=" ">
<path fill="none" stroke="#63b8ff" d="M666.44,-447.13C558.32,-443.1 259.66,-429.87 165,-404 86.38,-382.52 0,-405.5 0,-324 0,-324 0,-324 0,-124 0,-88.1 12.17,-74.98 42,-55 81.77,-28.36 222.08,-16.58 288.56,-12.41"/>
<polygon fill="#63b8ff" stroke="#63b8ff" points="288.8,-15.9 298.57,-11.81 288.38,-8.92 288.8,-15.9"/>
</a>
</g>
</g>
<!-- Node6 -->
<g id="Node000006" class="node">
<title>Node6</title>
<g id="a_Node000006"><a xlink:href="../../da/dcc/DeviceManager_8h.html" target="_top" xlink:title=" ">
<polygon fill="white" stroke="#666666" points="1181.5,-134.5 1008.5,-134.5 1008.5,-115.5 1181.5,-115.5 1181.5,-134.5"/>
<text text-anchor="middle" x="1095" y="-122.5" font-family="Helvetica,sans-Serif" font-size="10.00">../include/core/DeviceManager.h</text>
</a>
</g>
</g>
<!-- Node1&#45;&gt;Node6 -->
<g id="edge5_Node000001_Node000006" class="edge">
<title>Node1&#45;&gt;Node6</title>
<g id="a_edge5_Node000001_Node000006"><a xlink:title=" ">
<path fill="none" stroke="#63b8ff" d="M745.67,-446.18C856.61,-438.61 1162,-409.96 1162,-324 1162,-324 1162,-324 1162,-256 1162,-210.77 1129.56,-165.55 1109.83,-142.22"/>
<polygon fill="#63b8ff" stroke="#63b8ff" points="1112.43,-139.88 1103.22,-134.65 1107.16,-144.48 1112.43,-139.88"/>
</a>
</g>
</g>
<!-- Node12 -->
<g id="Node000012" class="node">
<title>Node12</title>
<g id="a_Node000012"><a xlink:href="../../dd/d6c/NetworkManager_8h.html" target="_top" xlink:title=" ">
<polygon fill="white" stroke="#666666" points="775,-206 663,-206 663,-176 775,-176 775,-206"/>
<text text-anchor="start" x="671" y="-194" font-family="Helvetica,sans-Serif" font-size="10.00">../include/network</text>
<text text-anchor="middle" x="719" y="-183" font-family="Helvetica,sans-Serif" font-size="10.00">/NetworkManager.h</text>
</a>
</g>
</g>
<!-- Node1&#45;&gt;Node12 -->
<g id="edge15_Node000001_Node000012" class="edge">
<title>Node1&#45;&gt;Node12</title>
<g id="a_edge15_Node000001_Node000012"><a xlink:title=" ">
<path fill="none" stroke="#63b8ff" d="M706.43,-439.97C708.2,-405 714.95,-271.9 717.76,-216.46"/>
<polygon fill="#63b8ff" stroke="#63b8ff" points="721.27,-216.33 718.28,-206.17 714.28,-215.98 721.27,-216.33"/>
</a>
</g>
</g>
<!-- Node13 -->
<g id="Node000013" class="node">
<title>Node13</title>
<g id="a_Node000013"><a xlink:href="../../d5/dca/Message_8h.html" target="_top" xlink:title=" ">
<polygon fill="white" stroke="#666666" points="609,-74 507,-74 507,-55 609,-55 609,-74"/>
<text text-anchor="middle" x="558" y="-62" font-family="Helvetica,sans-Serif" font-size="10.00">../core/Message.h</text>
</a>
</g>
</g>
<!-- Node1&#45;&gt;Node13 -->
<g id="edge37_Node000001_Node000013" class="edge">
<title>Node1&#45;&gt;Node13</title>
<g id="a_edge37_Node000001_Node000013"><a xlink:title=" ">
<path fill="none" stroke="#63b8ff" d="M745.68,-448.23C851.14,-447.01 1136.21,-440.36 1222,-404 1271.89,-382.85 1314,-378.19 1314,-324 1314,-324 1314,-324 1314,-190 1314,-146.34 1295.15,-131.22 1257,-110 1202.05,-79.43 779.6,-69.21 619.36,-66.41"/>
<polygon fill="#63b8ff" stroke="#63b8ff" points="619.25,-62.91 609.2,-66.24 619.13,-69.91 619.25,-62.91"/>
</a>
</g>
</g>
<!-- Node18 -->
<g id="Node000018" class="node">
<title>Node18</title>
<g id="a_Node000018"><a xlink:href="../../de/d44/ProtocolCharacteristics_8h.html" target="_top" xlink:title=" ">
<polygon fill="white" stroke="#666666" points="690.5,-272 549.5,-272 549.5,-242 690.5,-242 690.5,-272"/>
<text text-anchor="start" x="557.5" y="-260" font-family="Helvetica,sans-Serif" font-size="10.00">../include/network</text>
<text text-anchor="middle" x="620" y="-249" font-family="Helvetica,sans-Serif" font-size="10.00">/ProtocolCharacteristics.h</text>
</a>
</g>
</g>
<!-- Node1&#45;&gt;Node18 -->
<g id="edge34_Node000001_Node000018" class="edge">
<title>Node1&#45;&gt;Node18</title>
<g id="a_edge34_Node000001_Node000018"><a xlink:title=" ">
<path fill="none" stroke="#63b8ff" d="M702.7,-439.82C694.16,-417.59 670.41,-356.92 647,-308 642.73,-299.08 637.66,-289.47 633.08,-281.09"/>
<polygon fill="#63b8ff" stroke="#63b8ff" points="636.09,-279.3 628.18,-272.25 629.96,-282.69 636.09,-279.3"/>
</a>
</g>
</g>
<!-- Node19 -->
<g id="Node000019" class="node">
<title>Node19</title>
<g id="a_Node000019"><a xlink:href="../../d5/d3f/ConcreteSensors_8h.html" target="_top" xlink:title=" ">
<polygon fill="white" stroke="#666666" points="252,-272 142,-272 142,-242 252,-242 252,-272"/>
<text text-anchor="start" x="150" y="-260" font-family="Helvetica,sans-Serif" font-size="10.00">../include/devices</text>
<text text-anchor="middle" x="197" y="-249" font-family="Helvetica,sans-Serif" font-size="10.00">/ConcreteSensors.h</text>
</a>
</g>
</g>
<!-- Node1&#45;&gt;Node19 -->
<g id="edge38_Node000001_Node000019" class="edge">
<title>Node1&#45;&gt;Node19</title>
<g id="a_edge38_Node000001_Node000019"><a xlink:title=" ">
<path fill="none" stroke="#63b8ff" d="M666.21,-447.98C577.9,-446.19 368.55,-438.35 308,-404 258.09,-375.69 223.44,-314.89 207.3,-281.37"/>
<polygon fill="#63b8ff" stroke="#63b8ff" points="210.47,-279.88 203.07,-272.3 204.13,-282.84 210.47,-279.88"/>
</a>
</g>
</g>
<!-- Node21 -->
<g id="Node000021" class="node">
<title>Node21</title>
<g id="a_Node000021"><a xlink:href="../../d6/de2/ConcreteActuators_8h.html" target="_top" xlink:title=" ">
<polygon fill="white" stroke="#666666" points="658.5,-404 539.5,-404 539.5,-374 658.5,-374 658.5,-404"/>
<text text-anchor="start" x="547.5" y="-392" font-family="Helvetica,sans-Serif" font-size="10.00">../include/devices</text>
<text text-anchor="middle" x="599" y="-381" font-family="Helvetica,sans-Serif" font-size="10.00">/ConcreteActuators.h</text>
</a>
</g>
</g>
<!-- Node1&#45;&gt;Node21 -->
<g id="edge44_Node000001_Node000021" class="edge">
<title>Node1&#45;&gt;Node21</title>
<g id="a_edge44_Node000001_Node000021"><a xlink:title=" ">
<path fill="none" stroke="#63b8ff" d="M690.21,-439.87C675.42,-431.78 652.82,-419.42 633.81,-409.03"/>
<polygon fill="#63b8ff" stroke="#63b8ff" points="635.27,-405.84 624.82,-404.11 631.91,-411.98 635.27,-405.84"/>
</a>
</g>
</g>
<!-- Node23 -->
<g id="Node000023" class="node">
<title>Node23</title>
<g id="a_Node000023"><a xlink:href="../../dd/da3/ProtocolSensors_8h.html" target="_top" xlink:title=" ">
<polygon fill="white" stroke="#666666" points="449.5,-404 342.5,-404 342.5,-374 449.5,-374 449.5,-404"/>
<text text-anchor="start" x="350.5" y="-392" font-family="Helvetica,sans-Serif" font-size="10.00">../include/devices</text>
<text text-anchor="middle" x="396" y="-381" font-family="Helvetica,sans-Serif" font-size="10.00">/ProtocolSensors.h</text>
</a>
</g>
</g>
<!-- Node1&#45;&gt;Node23 -->
<g id="edge47_Node000001_Node000023" class="edge">
<title>Node1&#45;&gt;Node23</title>
<g id="a_edge47_Node000001_Node000023"><a xlink:title=" ">
<path fill="none" stroke="#63b8ff" d="M666.42,-441.03C614.24,-431.18 521.79,-413.74 459.7,-402.02"/>
<polygon fill="#63b8ff" stroke="#63b8ff" points="460.1,-398.54 449.63,-400.12 458.8,-405.41 460.1,-398.54"/>
</a>
</g>
</g>
<!-- Node25 -->
<g id="Node000025" class="node">
<title>Node25</title>
<g id="a_Node000025"><a xlink:href="../../d8/dee/SimulationEngine_8h.html" target="_top" xlink:title=" ">
<polygon fill="white" stroke="#666666" points="1019,-272 903,-272 903,-242 1019,-242 1019,-272"/>
<text text-anchor="start" x="911" y="-260" font-family="Helvetica,sans-Serif" font-size="10.00">../include/simulation</text>
<text text-anchor="middle" x="961" y="-249" font-family="Helvetica,sans-Serif" font-size="10.00">/SimulationEngine.h</text>
</a>
</g>
</g>
<!-- Node1&#45;&gt;Node25 -->
<g id="edge56_Node000001_Node000025" class="edge">
<title>Node1&#45;&gt;Node25</title>
<g id="a_edge56_Node000001_Node000025"><a xlink:title=" ">
<path fill="none" stroke="#63b8ff" d="M717.62,-439.82C755.91,-411.22 878.8,-319.41 933.86,-278.27"/>
<polygon fill="#63b8ff" stroke="#63b8ff" points="936.18,-280.91 942.1,-272.12 931.99,-275.3 936.18,-280.91"/>
</a>
</g>
</g>
<!-- Node28 -->
<g id="Node000028" class="node">
<title>Node28</title>
<g id="a_Node000028"><a xlink:href="../../dc/da7/SecurityManager_8h.html" target="_top" xlink:title=" ">
<polygon fill="white" stroke="#666666" points="1602,-140 1492,-140 1492,-110 1602,-110 1602,-140"/>
<text text-anchor="start" x="1500" y="-128" font-family="Helvetica,sans-Serif" font-size="10.00">../include/security</text>
<text text-anchor="middle" x="1547" y="-117" font-family="Helvetica,sans-Serif" font-size="10.00">/SecurityManager.h</text>
</a>
</g>
</g>
<!-- Node1&#45;&gt;Node28 -->
<g id="edge71_Node000001_Node000028" class="edge">
<title>Node1&#45;&gt;Node28</title>
<g id="a_edge71_Node000001_Node000028"><a xlink:title=" ">
<path fill="none" stroke="#63b8ff" d="M745.6,-448.28C864.93,-447.2 1219.48,-440.9 1328,-404 1389.04,-383.24 1449,-388.47 1449,-324 1449,-324 1449,-324 1449,-256 1449,-209.7 1489.13,-169.42 1518.04,-146.41"/>
<polygon fill="#63b8ff" stroke="#63b8ff" points="1520.43,-148.99 1526.22,-140.12 1516.16,-143.44 1520.43,-148.99"/>
</a>
</g>
</g>
<!-- Node29 -->
<g id="Node000029" class="node">
<title>Node29</title>
<g id="a_Node000029"><a xlink:href="../../db/dc1/PerformanceMonitor_8h.html" target="_top" xlink:title=" ">
<polygon fill="white" stroke="#666666" points="189,-338 39,-338 39,-308 189,-308 189,-338"/>
<text text-anchor="start" x="47" y="-326" font-family="Helvetica,sans-Serif" font-size="10.00">../include/utils/Performance</text>
<text text-anchor="middle" x="114" y="-315" font-family="Helvetica,sans-Serif" font-size="10.00">Monitor.h</text>
</a>
</g>
</g>
<!-- Node1&#45;&gt;Node29 -->
<g id="edge76_Node000001_Node000029" class="edge">
<title>Node1&#45;&gt;Node29</title>
<g id="a_edge76_Node000001_Node000029"><a xlink:title=" ">
<path fill="none" stroke="#63b8ff" d="M666.3,-447.75C564.9,-445.37 298.59,-436.17 217,-404 184.27,-391.1 153.33,-364.39 134.06,-345.38"/>
<polygon fill="#63b8ff" stroke="#63b8ff" points="136.55,-342.92 127.03,-338.27 131.57,-347.84 136.55,-342.92"/>
</a>
</g>
</g>
<!-- Node6&#45;&gt;Node3 -->
<g id="edge12_Node000006_Node000003" class="edge">
<title>Node6&#45;&gt;Node3</title>
<g id="a_edge12_Node000006_Node000003"><a xlink:title=" ">
<path fill="none" stroke="#63b8ff" d="M1113.3,-115.39C1141.36,-102.22 1196.72,-76.36 1244,-55 1268.16,-44.08 1295.71,-31.97 1315.92,-23.14"/>
<polygon fill="#63b8ff" stroke="#63b8ff" points="1317.44,-26.29 1325.21,-19.09 1314.65,-19.88 1317.44,-26.29"/>
</a>
</g>
</g>
<!-- Node7 -->
<g id="Node000007" class="node">
<title>Node7</title>
<g id="a_Node000007"><a xlink:href="../../de/daa/IoTDevice_8h.html" target="_top" xlink:title=" ">
<polygon fill="white" stroke="#666666" points="413,-74 339,-74 339,-55 413,-55 413,-74"/>
<text text-anchor="middle" x="376" y="-62" font-family="Helvetica,sans-Serif" font-size="10.00">IoTDevice.h</text>
</a>
</g>
</g>
<!-- Node6&#45;&gt;Node7 -->
<g id="edge6_Node000006_Node000007" class="edge">
<title>Node6&#45;&gt;Node7</title>
<g id="a_edge6_Node000006_Node000007"><a xlink:title=" ">
<path fill="none" stroke="#63b8ff" d="M1016.51,-115.49C997.99,-113.59 978.31,-111.65 960,-110 856.04,-100.65 543.22,-77.68 423.41,-68.94"/>
<polygon fill="#63b8ff" stroke="#63b8ff" points="423.32,-65.43 413.1,-68.19 422.82,-72.41 423.32,-65.43"/>
</a>
</g>
</g>
<!-- Node8 -->
<g id="Node000008" class="node">
<title>Node8</title>
<g id="a_Node000008"><a xlink:title=" ">
<polygon fill="#e0e0e0" stroke="#999999" points="619,-19 575,-19 575,0 619,0 619,-19"/>
<text text-anchor="middle" x="597" y="-7" font-family="Helvetica,sans-Serif" font-size="10.00">string</text>
</a>
</g>
</g>
<!-- Node6&#45;&gt;Node8 -->
<g id="edge13_Node000006_Node000008" class="edge">
<title>Node6&#45;&gt;Node8</title>
<g id="a_edge13_Node000006_Node000008"><a xlink:title=" ">
<path fill="none" stroke="#63b8ff" d="M1087.94,-115.37C1074.94,-100.16 1045.52,-68.87 1013,-55 1004.16,-51.23 725.17,-23.24 629.12,-13.68"/>
<polygon fill="#63b8ff" stroke="#63b8ff" points="629.41,-10.19 619.11,-12.69 628.71,-17.16 629.41,-10.19"/>
</a>
</g>
</g>
<!-- Node9 -->
<g id="Node000009" class="node">
<title>Node9</title>
<g id="a_Node000009"><a xlink:title=" ">
<polygon fill="#e0e0e0" stroke="#999999" points="732,-19 694,-19 694,0 732,0 732,-19"/>
<text text-anchor="middle" x="713" y="-7" font-family="Helvetica,sans-Serif" font-size="10.00">map</text>
</a>
</g>
</g>
<!-- Node6&#45;&gt;Node9 -->
<g id="edge10_Node000006_Node000009" class="edge">
<title>Node6&#45;&gt;Node9</title>
<g id="a_edge10_Node000006_Node000009"><a xlink:title=" ">
<path fill="none" stroke="#63b8ff" d="M1093.01,-115.05C1089.13,-99.92 1079.04,-69.5 1058,-55 1007.04,-19.88 816.5,-12.47 742.58,-10.91"/>
<polygon fill="#63b8ff" stroke="#63b8ff" points="742.21,-7.41 732.15,-10.72 742.08,-14.4 742.21,-7.41"/>
</a>
</g>
</g>
<!-- Node10 -->
<g id="Node000010" class="node">
<title>Node10</title>
<g id="a_Node000010"><a xlink:title=" ">
<polygon fill="#e0e0e0" stroke="#999999" points="1299.5,-74 1252.5,-74 1252.5,-55 1299.5,-55 1299.5,-74"/>
<text text-anchor="middle" x="1276" y="-62" font-family="Helvetica,sans-Serif" font-size="10.00">vector</text>
</a>
</g>
</g>
<!-- Node6&#45;&gt;Node10 -->
<g id="edge11_Node000006_Node000010" class="edge">
<title>Node6&#45;&gt;Node10</title>
<g id="a_edge11_Node000006_Node000010"><a xlink:title=" ">
<path fill="none" stroke="#63b8ff" d="M1121.32,-115.49C1153.36,-105.14 1207.5,-87.64 1242.49,-76.33"/>
<polygon fill="#63b8ff" stroke="#63b8ff" points="1243.81,-79.58 1252.25,-73.18 1241.65,-72.92 1243.81,-79.58"/>
</a>
</g>
</g>
<!-- Node11 -->
<g id="Node000011" class="node">
<title>Node11</title>
<g id="a_Node000011"><a xlink:title=" ">
<polygon fill="#e0e0e0" stroke="#999999" points="1004,-74 956,-74 956,-55 1004,-55 1004,-74"/>
<text text-anchor="middle" x="980" y="-62" font-family="Helvetica,sans-Serif" font-size="10.00">mutex</text>
</a>
</g>
</g>
<!-- Node6&#45;&gt;Node11 -->
<g id="edge14_Node000006_Node000011" class="edge">
<title>Node6&#45;&gt;Node11</title>
<g id="a_edge14_Node000006_Node000011"><a xlink:title=" ">
<path fill="none" stroke="#63b8ff" d="M1078.03,-115.37C1059.09,-105.73 1028.21,-90.03 1006.17,-78.81"/>
<polygon fill="#63b8ff" stroke="#63b8ff" points="1007.54,-75.58 997.04,-74.17 1004.36,-81.82 1007.54,-75.58"/>
</a>
</g>
</g>
<!-- Node7&#45;&gt;Node3 -->
<g id="edge8_Node000007_Node000003" class="edge">
<title>Node7&#45;&gt;Node3</title>
<g id="a_edge8_Node000007_Node000003"><a xlink:title=" ">
<path fill="none" stroke="#63b8ff" d="M413.1,-60.75C437.27,-59 469.5,-56.74 498,-55 809.02,-36 1184.6,-18 1305.49,-12.34"/>
<polygon fill="#63b8ff" stroke="#63b8ff" points="1305.91,-15.82 1315.73,-11.86 1305.58,-8.83 1305.91,-15.82"/>
</a>
</g>
</g>
<!-- Node7&#45;&gt;Node5 -->
<g id="edge9_Node000007_Node000005" class="edge">
<title>Node7&#45;&gt;Node5</title>
<g id="a_edge9_Node000007_Node000005"><a xlink:title=" ">
<path fill="none" stroke="#63b8ff" d="M367.41,-54.75C359.84,-47.03 348.62,-35.6 339.49,-26.28"/>
<polygon fill="#63b8ff" stroke="#63b8ff" points="341.93,-23.78 332.43,-19.09 336.93,-28.68 341.93,-23.78"/>
</a>
</g>
</g>
<!-- Node7&#45;&gt;Node8 -->
<g id="edge7_Node000007_Node000008" class="edge">
<title>Node7&#45;&gt;Node8</title>
<g id="a_edge7_Node000007_Node000008"><a xlink:title=" ">
<path fill="none" stroke="#63b8ff" d="M411.51,-54.98C453.82,-44.84 523.92,-28.03 564.75,-18.23"/>
<polygon fill="#63b8ff" stroke="#63b8ff" points="565.8,-21.58 574.71,-15.85 564.17,-14.77 565.8,-21.58"/>
</a>
</g>
</g>
<!-- Node12&#45;&gt;Node4 -->
<g id="edge30_Node000012_Node000004" class="edge">
<title>Node12&#45;&gt;Node4</title>
<g id="a_edge30_Node000012_Node000004"><a xlink:title=" ">
<path fill="none" stroke="#63b8ff" d="M775.38,-179.79C783.94,-178.41 792.69,-177.09 801,-176 973.59,-153.34 1022.2,-182.5 1191,-140 1192.95,-139.51 1194.93,-138.92 1196.9,-138.27"/>
<polygon fill="#63b8ff" stroke="#63b8ff" points="1198.44,-141.43 1206.54,-134.59 1195.95,-134.88 1198.44,-141.43"/>
</a>
</g>
</g>
<!-- Node12&#45;&gt;Node5 -->
<g id="edge32_Node000012_Node000005" class="edge">
<title>Node12&#45;&gt;Node5</title>
<g id="a_edge32_Node000012_Node000005"><a xlink:title=" ">
<path fill="none" stroke="#63b8ff" d="M662.63,-181.28C565.1,-164.94 371.32,-126.57 330,-74 320.27,-61.62 319.5,-43.4 320.73,-29.65"/>
<polygon fill="#63b8ff" stroke="#63b8ff" points="324.25,-29.75 322.09,-19.38 317.31,-28.83 324.25,-29.75"/>
</a>
</g>
</g>
<!-- Node12&#45;&gt;Node6 -->
<g id="edge20_Node000012_Node000006" class="edge">
<title>Node12&#45;&gt;Node6</title>
<g id="a_edge20_Node000012_Node000006"><a xlink:title=" ">
<path fill="none" stroke="#63b8ff" d="M775.02,-180.43C783.72,-178.95 792.6,-177.43 801,-176 881.94,-162.21 975.41,-146.32 1034.84,-136.22"/>
<polygon fill="#63b8ff" stroke="#63b8ff" points="1035.53,-139.65 1044.8,-134.53 1034.35,-132.75 1035.53,-139.65"/>
</a>
</g>
</g>
<!-- Node12&#45;&gt;Node9 -->
<g id="edge33_Node000012_Node000009" class="edge">
<title>Node12&#45;&gt;Node9</title>
<g id="a_edge33_Node000012_Node000009"><a xlink:title=" ">
<path fill="none" stroke="#63b8ff" d="M718.53,-175.91C717.46,-143.85 714.83,-65.38 713.63,-29.26"/>
<polygon fill="#63b8ff" stroke="#63b8ff" points="717.12,-29.01 713.29,-19.13 710.12,-29.25 717.12,-29.01"/>
</a>
</g>
</g>
<!-- Node12&#45;&gt;Node11 -->
<g id="edge28_Node000012_Node000011" class="edge">
<title>Node12&#45;&gt;Node11</title>
<g id="a_edge28_Node000012_Node000011"><a xlink:title=" ">
<path fill="none" stroke="#63b8ff" d="M723.97,-175.97C731.18,-157.77 746.31,-126.42 770,-110 823.34,-73.03 901.29,-65.77 945.68,-64.9"/>
<polygon fill="#63b8ff" stroke="#63b8ff" points="945.98,-68.4 955.94,-64.8 945.91,-61.4 945.98,-68.4"/>
</a>
</g>
</g>
<!-- Node12&#45;&gt;Node13 -->
<g id="edge16_Node000012_Node000013" class="edge">
<title>Node12&#45;&gt;Node13</title>
<g id="a_edge16_Node000012_Node000013"><a xlink:title=" ">
<path fill="none" stroke="#63b8ff" d="M662.88,-182.75C613.23,-175.05 546.2,-161.05 530,-140 516.63,-122.63 530.58,-98.18 543.13,-82.1"/>
<polygon fill="#63b8ff" stroke="#63b8ff" points="546.06,-84.04 549.77,-74.12 540.68,-79.57 546.06,-84.04"/>
</a>
</g>
</g>
<!-- Node14 -->
<g id="Node000014" class="node">
<title>Node14</title>
<g id="a_Node000014"><a xlink:href="../../d1/de8/IPSecManager_8h.html" target="_top" xlink:title=" ">
<polygon fill="white" stroke="#666666" points="684.5,-134.5 539.5,-134.5 539.5,-115.5 684.5,-115.5 684.5,-134.5"/>
<text text-anchor="middle" x="612" y="-122.5" font-family="Helvetica,sans-Serif" font-size="10.00">../security/IPSecManager.h</text>
</a>
</g>
</g>
<!-- Node12&#45;&gt;Node14 -->
<g id="edge21_Node000012_Node000014" class="edge">
<title>Node12&#45;&gt;Node14</title>
<g id="a_edge21_Node000012_Node000014"><a xlink:title=" ">
<path fill="none" stroke="#63b8ff" d="M695.52,-175.95C677.5,-165.18 652.76,-150.38 634.89,-139.69"/>
<polygon fill="#63b8ff" stroke="#63b8ff" points="636.62,-136.65 626.24,-134.52 633.03,-142.65 636.62,-136.65"/>
</a>
</g>
</g>
<!-- Node15 -->
<g id="Node000015" class="node">
<title>Node15</title>
<g id="a_Node000015"><a xlink:title=" ">
<polygon fill="#e0e0e0" stroke="#999999" points="826.5,-134.5 779.5,-134.5 779.5,-115.5 826.5,-115.5 826.5,-134.5"/>
<text text-anchor="middle" x="803" y="-122.5" font-family="Helvetica,sans-Serif" font-size="10.00">queue</text>
</a>
</g>
</g>
<!-- Node12&#45;&gt;Node15 -->
<g id="edge27_Node000012_Node000015" class="edge">
<title>Node12&#45;&gt;Node15</title>
<g id="a_edge27_Node000012_Node000015"><a xlink:title=" ">
<path fill="none" stroke="#63b8ff" d="M737.64,-175.8C751.12,-165.53 769.31,-151.67 783.08,-141.18"/>
<polygon fill="#63b8ff" stroke="#63b8ff" points="785.56,-143.69 791.39,-134.84 781.32,-138.12 785.56,-143.69"/>
</a>
</g>
</g>
<!-- Node16 -->
<g id="Node000016" class="node">
<title>Node16</title>
<g id="a_Node000016"><a xlink:title=" ">
<polygon fill="#e0e0e0" stroke="#999999" points="217,-134.5 163,-134.5 163,-115.5 217,-115.5 217,-134.5"/>
<text text-anchor="middle" x="190" y="-122.5" font-family="Helvetica,sans-Serif" font-size="10.00">random</text>
</a>
</g>
</g>
<!-- Node12&#45;&gt;Node16 -->
<g id="edge29_Node000012_Node000016" class="edge">
<title>Node12&#45;&gt;Node16</title>
<g id="a_edge29_Node000012_Node000016"><a xlink:title=" ">
<path fill="none" stroke="#63b8ff" d="M662.89,-183.21C554.44,-170.09 318.7,-141.57 227.28,-130.51"/>
<polygon fill="#63b8ff" stroke="#63b8ff" points="227.46,-127.01 217.11,-129.28 226.62,-133.96 227.46,-127.01"/>
</a>
</g>
</g>
<!-- Node17 -->
<g id="Node000017" class="node">
<title>Node17</title>
<g id="a_Node000017"><a xlink:title=" ">
<polygon fill="#e0e0e0" stroke="#999999" points="951.5,-134.5 844.5,-134.5 844.5,-115.5 951.5,-115.5 951.5,-134.5"/>
<text text-anchor="middle" x="898" y="-122.5" font-family="Helvetica,sans-Serif" font-size="10.00">condition_variable</text>
</a>
</g>
</g>
<!-- Node12&#45;&gt;Node17 -->
<g id="edge31_Node000012_Node000017" class="edge">
<title>Node12&#45;&gt;Node17</title>
<g id="a_edge31_Node000012_Node000017"><a xlink:title=" ">
<path fill="none" stroke="#63b8ff" d="M758.28,-175.95C790.09,-164.58 834.41,-148.74 864.54,-137.96"/>
<polygon fill="#63b8ff" stroke="#63b8ff" points="865.94,-141.18 874.18,-134.52 863.58,-134.59 865.94,-141.18"/>
</a>
</g>
</g>
<!-- Node13&#45;&gt;Node5 -->
<g id="edge18_Node000013_Node000005" class="edge">
<title>Node13&#45;&gt;Node5</title>
<g id="a_edge18_Node000013_Node000005"><a xlink:title=" ">
<path fill="none" stroke="#63b8ff" d="M520.4,-54.98C475.91,-44.91 402.41,-28.26 359.06,-18.44"/>
<polygon fill="#63b8ff" stroke="#63b8ff" points="359.77,-15.01 349.24,-16.22 358.22,-21.84 359.77,-15.01"/>
</a>
</g>
</g>
<!-- Node13&#45;&gt;Node8 -->
<g id="edge17_Node000013_Node000008" class="edge">
<title>Node13&#45;&gt;Node8</title>
<g id="a_edge17_Node000013_Node000008"><a xlink:title=" ">
<path fill="none" stroke="#63b8ff" d="M564.44,-54.75C569.89,-47.34 577.86,-36.5 584.56,-27.41"/>
<polygon fill="#63b8ff" stroke="#63b8ff" points="587.57,-29.22 590.68,-19.09 581.93,-25.07 587.57,-29.22"/>
</a>
</g>
</g>
<!-- Node13&#45;&gt;Node9 -->
<g id="edge19_Node000013_Node000009" class="edge">
<title>Node13&#45;&gt;Node9</title>
<g id="a_edge19_Node000013_Node000009"><a xlink:title=" ">
<path fill="none" stroke="#63b8ff" d="M582.9,-54.98C610.46,-45.56 654.82,-30.39 683.94,-20.44"/>
<polygon fill="#63b8ff" stroke="#63b8ff" points="685.23,-23.7 693.56,-17.15 682.96,-17.07 685.23,-23.7"/>
</a>
</g>
</g>
<!-- Node14&#45;&gt;Node3 -->
<g id="edge24_Node000014_Node000003" class="edge">
<title>Node14&#45;&gt;Node3</title>
<g id="a_edge24_Node000014_Node000003"><a xlink:title=" ">
<path fill="none" stroke="#63b8ff" d="M647.99,-115.45C709.13,-101.19 837.33,-72.39 947,-55 1077.63,-34.29 1233.9,-19.79 1305.56,-13.7"/>
<polygon fill="#63b8ff" stroke="#63b8ff" points="1306.24,-17.16 1315.91,-12.83 1305.66,-10.18 1306.24,-17.16"/>
</a>
</g>
</g>
<!-- Node14&#45;&gt;Node8 -->
<g id="edge22_Node000014_Node000008" class="edge">
<title>Node14&#45;&gt;Node8</title>
<g id="a_edge22_Node000014_Node000008"><a xlink:title=" ">
<path fill="none" stroke="#63b8ff" d="M614.41,-115.39C617.73,-102.22 622.79,-76.35 618,-55 615.92,-45.74 611.7,-36.14 607.57,-28.23"/>
<polygon fill="#63b8ff" stroke="#63b8ff" points="610.51,-26.31 602.58,-19.28 604.4,-29.72 610.51,-26.31"/>
</a>
</g>
</g>
<!-- Node14&#45;&gt;Node9 -->
<g id="edge23_Node000014_Node000009" class="edge">
<title>Node14&#45;&gt;Node9</title>
<g id="a_edge23_Node000014_Node000009"><a xlink:title=" ">
<path fill="none" stroke="#63b8ff" d="M619.59,-115.47C636.33,-96.65 676.67,-51.32 698.46,-26.84"/>
<polygon fill="#63b8ff" stroke="#63b8ff" points="701.29,-28.93 705.32,-19.13 696.06,-24.27 701.29,-28.93"/>
</a>
</g>
</g>
<!-- Node14&#45;&gt;Node11 -->
<g id="edge25_Node000014_Node000011" class="edge">
<title>Node14&#45;&gt;Node11</title>
<g id="a_edge25_Node000014_Node000011"><a xlink:title=" ">
<path fill="none" stroke="#63b8ff" d="M665.51,-115.49C742.36,-103.28 881.8,-81.11 945.99,-70.91"/>
<polygon fill="#63b8ff" stroke="#63b8ff" points="946.66,-74.34 955.98,-69.32 945.56,-67.43 946.66,-74.34"/>
</a>
</g>
</g>
<!-- Node14&#45;&gt;Node13 -->
<g id="edge26_Node000014_Node000013" class="edge">
<title>Node14&#45;&gt;Node13</title>
<g id="a_edge26_Node000014_Node000013"><a xlink:title=" ">
<path fill="none" stroke="#63b8ff" d="M604.03,-115.37C595.9,-106.55 583.07,-92.66 573.02,-81.77"/>
<polygon fill="#63b8ff" stroke="#63b8ff" points="575.36,-79.14 566,-74.17 570.21,-83.89 575.36,-79.14"/>
</a>
</g>
</g>
<!-- Node18&#45;&gt;Node8 -->
<g id="edge36_Node000018_Node000008" class="edge">
<title>Node18&#45;&gt;Node8</title>
<g id="a_edge36_Node000018_Node000008"><a xlink:title=" ">
<path fill="none" stroke="#63b8ff" d="M604.92,-241.99C583.59,-221.44 544.59,-181.11 521,-140 505.54,-113.06 503.18,-104.63 498,-74 496.59,-65.67 493.41,-62.09 498,-55 512.64,-32.36 541.85,-21.13 564.76,-15.62"/>
<polygon fill="#63b8ff" stroke="#63b8ff" points="565.72,-18.99 574.77,-13.47 564.26,-12.15 565.72,-18.99"/>
</a>
</g>
</g>
<!-- Node18&#45;&gt;Node12 -->
<g id="edge35_Node000018_Node000012" class="edge">
<title>Node18&#45;&gt;Node12</title>
<g id="a_edge35_Node000018_Node000012"><a xlink:title=" ">
<path fill="none" stroke="#63b8ff" d="M641.97,-241.8C655.69,-232.93 673.53,-221.39 688.6,-211.66"/>
<polygon fill="#63b8ff" stroke="#63b8ff" points="690.59,-214.53 697.09,-206.16 686.79,-208.65 690.59,-214.53"/>
</a>
</g>
</g>
<!-- Node19&#45;&gt;Node16 -->
<g id="edge43_Node000019_Node000016" class="edge">
<title>Node19&#45;&gt;Node16</title>
<g id="a_edge43_Node000019_Node000016"><a xlink:title=" ">
<path fill="none" stroke="#63b8ff" d="M196.24,-241.84C194.97,-218.34 192.44,-171.26 191.02,-144.93"/>
<polygon fill="#63b8ff" stroke="#63b8ff" points="194.5,-144.55 190.47,-134.75 187.51,-144.92 194.5,-144.55"/>
</a>
</g>
</g>
<!-- Node20 -->
<g id="Node000020" class="node">
<title>Node20</title>
<g id="a_Node000020"><a xlink:href="../../d5/d65/Sensor_8h.html" target="_top" xlink:title=" ">
<polygon fill="white" stroke="#666666" points="323,-200.5 265,-200.5 265,-181.5 323,-181.5 323,-200.5"/>
<text text-anchor="middle" x="294" y="-188.5" font-family="Helvetica,sans-Serif" font-size="10.00">Sensor.h</text>
</a>
</g>
</g>
<!-- Node19&#45;&gt;Node20 -->
<g id="edge39_Node000019_Node000020" class="edge">
<title>Node19&#45;&gt;Node20</title>
<g id="a_edge39_Node000019_Node000020"><a xlink:title=" ">
<path fill="none" stroke="#63b8ff" d="M218.53,-241.8C234.48,-231.27 256.15,-216.97 272.18,-206.4"/>
<polygon fill="#63b8ff" stroke="#63b8ff" points="274.46,-209.09 280.88,-200.66 270.6,-203.24 274.46,-209.09"/>
</a>
</g>
</g>
<!-- Node20&#45;&gt;Node7 -->
<g id="edge40_Node000020_Node000007" class="edge">
<title>Node20&#45;&gt;Node7</title>
<g id="a_edge40_Node000020_Node000007"><a xlink:title=" ">
<path fill="none" stroke="#63b8ff" d="M286.81,-181.38C274.86,-165.93 253.66,-133 269,-110 276.93,-98.11 309.01,-85.72 335.99,-77.04"/>
<polygon fill="#63b8ff" stroke="#63b8ff" points="337.15,-80.34 345.65,-74.01 335.06,-73.66 337.15,-80.34"/>
</a>
</g>
</g>
<!-- Node20&#45;&gt;Node13 -->
<g id="edge41_Node000020_Node000013" class="edge">
<title>Node20&#45;&gt;Node13</title>
<g id="a_edge41_Node000020_Node000013"><a xlink:title=" ">
<path fill="none" stroke="#63b8ff" d="M312.15,-181.44C357.55,-160.03 476.29,-104.03 530.41,-78.51"/>
<polygon fill="#63b8ff" stroke="#63b8ff" points="532.18,-81.55 539.73,-74.12 529.19,-75.22 532.18,-81.55"/>
</a>
</g>
</g>
<!-- Node20&#45;&gt;Node16 -->
<g id="edge42_Node000020_Node000016" class="edge">
<title>Node20&#45;&gt;Node16</title>
<g id="a_edge42_Node000020_Node000016"><a xlink:title=" ">
<path fill="none" stroke="#63b8ff" d="M279.97,-181.37C262.76,-170.78 233.34,-152.67 212.85,-140.06"/>
<polygon fill="#63b8ff" stroke="#63b8ff" points="214.49,-136.96 204.14,-134.7 210.82,-142.92 214.49,-136.96"/>
</a>
</g>
</g>
<!-- Node22 -->
<g id="Node000022" class="node">
<title>Node22</title>
<g id="a_Node000022"><a xlink:href="../../d0/d81/Actuator_8h.html" target="_top" xlink:title=" ">
<polygon fill="white" stroke="#666666" points="638,-332.5 572,-332.5 572,-313.5 638,-313.5 638,-332.5"/>
<text text-anchor="middle" x="605" y="-320.5" font-family="Helvetica,sans-Serif" font-size="10.00">Actuator.h</text>
</a>
</g>
</g>
<!-- Node21&#45;&gt;Node22 -->
<g id="edge45_Node000021_Node000022" class="edge">
<title>Node21&#45;&gt;Node22</title>
<g id="a_edge45_Node000021_Node000022"><a xlink:title=" ">
<path fill="none" stroke="#63b8ff" d="M600.33,-373.8C601.18,-364.7 602.3,-352.79 603.23,-342.9"/>
<polygon fill="#63b8ff" stroke="#63b8ff" points="606.72,-343.13 604.17,-332.84 599.75,-342.47 606.72,-343.13"/>
</a>
</g>
</g>
<!-- Node22&#45;&gt;Node7 -->
<g id="edge46_Node000022_Node000007" class="edge">
<title>Node22&#45;&gt;Node7</title>
<g id="a_edge46_Node000022_Node000007"><a xlink:title=" ">
<path fill="none" stroke="#63b8ff" d="M592.04,-313.44C578.37,-304.1 556.54,-288.28 540,-272 475.62,-208.61 413.03,-120.22 387.74,-83.06"/>
<polygon fill="#63b8ff" stroke="#63b8ff" points="390.37,-80.71 381.88,-74.38 384.57,-84.63 390.37,-80.71"/>
</a>
</g>
</g>
<!-- Node23&#45;&gt;Node2 -->
<g id="edge54_Node000023_Node000002" class="edge">
<title>Node23&#45;&gt;Node2</title>
<g id="a_edge54_Node000023_Node000002"><a xlink:title=" ">
<path fill="none" stroke="#63b8ff" d="M378.78,-373.83C367.98,-364.4 354.21,-351.32 344,-338 328.99,-318.41 315.96,-293.06 308.06,-276.2"/>
<polygon fill="#63b8ff" stroke="#63b8ff" points="311.16,-274.57 303.83,-266.93 304.79,-277.48 311.16,-274.57"/>
</a>
</g>
</g>
<!-- Node23&#45;&gt;Node16 -->
<g id="edge55_Node000023_Node000016" class="edge">
<title>Node23&#45;&gt;Node16</title>
<g id="a_edge55_Node000023_Node000016"><a xlink:title=" ">
<path fill="none" stroke="#63b8ff" d="M394.1,-373.59C389.62,-344.92 375.82,-280.21 339,-242 311.1,-213.05 288.13,-230.18 256,-206 232.69,-188.46 212.45,-161.08 200.73,-143.34"/>
<polygon fill="#63b8ff" stroke="#63b8ff" points="203.48,-141.13 195.13,-134.6 197.58,-144.91 203.48,-141.13"/>
</a>
</g>
</g>
<!-- Node23&#45;&gt;Node20 -->
<g id="edge53_Node000023_Node000020" class="edge">
<title>Node23&#45;&gt;Node20</title>
<g id="a_edge53_Node000023_Node000020"><a xlink:title=" ">
<path fill="none" stroke="#63b8ff" d="M397.28,-373.78C399.05,-346.01 399.39,-283.63 372,-242 361.06,-225.37 342.48,-213.14 326.2,-204.94"/>
<polygon fill="#63b8ff" stroke="#63b8ff" points="327.49,-201.67 316.95,-200.57 324.5,-208 327.49,-201.67"/>
</a>
</g>
</g>
<!-- Node24 -->
<g id="Node000024" class="node">
<title>Node24</title>
<g id="a_Node000024"><a xlink:href="../../d2/d1b/ProtocolAwareDevice_8h.html" target="_top" xlink:title=" ">
<polygon fill="white" stroke="#666666" points="554,-332.5 424,-332.5 424,-313.5 554,-313.5 554,-332.5"/>
<text text-anchor="middle" x="489" y="-320.5" font-family="Helvetica,sans-Serif" font-size="10.00">ProtocolAwareDevice.h</text>
</a>
</g>
</g>
<!-- Node23&#45;&gt;Node24 -->
<g id="edge48_Node000023_Node000024" class="edge">
<title>Node23&#45;&gt;Node24</title>
<g id="a_edge48_Node000023_Node000024"><a xlink:title=" ">
<path fill="none" stroke="#63b8ff" d="M416.64,-373.8C431.94,-363.27 452.71,-348.97 468.08,-338.4"/>
<polygon fill="#63b8ff" stroke="#63b8ff" points="470.16,-341.21 476.42,-332.66 466.2,-335.44 470.16,-341.21"/>
</a>
</g>
</g>
<!-- Node24&#45;&gt;Node2 -->
<g id="edge52_Node000024_Node000002" class="edge">
<title>Node24&#45;&gt;Node2</title>
<g id="a_edge52_Node000024_Node000002"><a xlink:title=" ">
<path fill="none" stroke="#63b8ff" d="M463.51,-313.37C430.45,-302.17 372.6,-282.58 335.32,-269.96"/>
<polygon fill="#63b8ff" stroke="#63b8ff" points="335.98,-266.49 325.39,-266.6 333.74,-273.12 335.98,-266.49"/>
</a>
</g>
</g>
<!-- Node24&#45;&gt;Node7 -->
<g id="edge49_Node000024_Node000007" class="edge">
<title>Node24&#45;&gt;Node7</title>
<g id="a_edge49_Node000024_Node000007"><a xlink:title=" ">
<path fill="none" stroke="#63b8ff" d="M476.94,-313.48C453.74,-296.28 403.37,-254.85 383,-206 365.98,-165.19 369.53,-111.83 373.07,-84.08"/>
<polygon fill="#63b8ff" stroke="#63b8ff" points="376.54,-84.56 374.48,-74.17 369.61,-83.58 376.54,-84.56"/>
</a>
</g>
</g>
<!-- Node24&#45;&gt;Node12 -->
<g id="edge50_Node000024_Node000012" class="edge">
<title>Node24&#45;&gt;Node12</title>
<g id="a_edge50_Node000024_Node000012"><a xlink:title=" ">
<path fill="none" stroke="#63b8ff" d="M492.11,-313.29C498.44,-296.79 514.46,-260.93 540,-242 572.7,-217.76 616.63,-205.27 652.79,-198.84"/>
<polygon fill="#63b8ff" stroke="#63b8ff" points="653.48,-202.27 662.77,-197.18 652.33,-195.37 653.48,-202.27"/>
</a>
</g>
</g>
<!-- Node24&#45;&gt;Node18 -->
<g id="edge51_Node000024_Node000018" class="edge">
<title>Node24&#45;&gt;Node18</title>
<g id="a_edge51_Node000024_Node000018"><a xlink:title=" ">
<path fill="none" stroke="#63b8ff" d="M506.67,-313.37C525.86,-303.99 557.12,-288.72 581.94,-276.59"/>
<polygon fill="#63b8ff" stroke="#63b8ff" points="583.66,-279.65 591.11,-272.12 580.59,-273.36 583.66,-279.65"/>
</a>
</g>
</g>
<!-- Node25&#45;&gt;Node3 -->
<g id="edge69_Node000025_Node000003" class="edge">
<title>Node25&#45;&gt;Node3</title>
<g id="a_edge69_Node000025_Node000003"><a xlink:title=" ">
<path fill="none" stroke="#63b8ff" d="M1019.13,-254.75C1164.13,-250.28 1535.57,-230.09 1611,-140 1677.69,-60.36 1472.99,-25.73 1384.08,-14.7"/>
<polygon fill="#63b8ff" stroke="#63b8ff" points="1384.44,-11.21 1374.09,-13.5 1383.6,-18.16 1384.44,-11.21"/>
</a>
</g>
</g>
<!-- Node25&#45;&gt;Node4 -->
<g id="edge64_Node000025_Node000004" class="edge">
<title>Node25&#45;&gt;Node4</title>
<g id="a_edge64_Node000025_Node000004"><a xlink:title=" ">
<path fill="none" stroke="#63b8ff" d="M985.73,-241.94C1015.04,-225.46 1065.52,-197.65 1110,-176 1125.56,-168.43 1166.25,-150.77 1194.55,-138.6"/>
<polygon fill="#63b8ff" stroke="#63b8ff" points="1196.18,-141.71 1203.98,-134.55 1193.41,-135.28 1196.18,-141.71"/>
</a>
</g>
</g>
<!-- Node25&#45;&gt;Node5 -->
<g id="edge63_Node000025_Node000005" class="edge">
<title>Node25&#45;&gt;Node5</title>
<g id="a_edge63_Node000025_Node000005"><a xlink:title=" ">
<path fill="none" stroke="#63b8ff" d="M902.93,-251.74C840.28,-245.96 738.18,-233.06 654,-206 591.18,-185.8 576.01,-176.44 521,-140 472.65,-107.97 470.89,-86.19 422,-55 401.52,-41.93 376.56,-30.66 356.95,-22.73"/>
<polygon fill="#63b8ff" stroke="#63b8ff" points="358.11,-19.42 347.52,-19 355.54,-25.93 358.11,-19.42"/>
</a>
</g>
</g>
<!-- Node25&#45;&gt;Node6 -->
<g id="edge57_Node000025_Node000006" class="edge">
<title>Node25&#45;&gt;Node6</title>
<g id="a_edge57_Node000025_Node000006"><a xlink:title=" ">
<path fill="none" stroke="#63b8ff" d="M975.6,-241.84C1000.8,-217.39 1052.31,-167.42 1078.67,-141.85"/>
<polygon fill="#63b8ff" stroke="#63b8ff" points="1081.24,-144.22 1085.98,-134.75 1076.37,-139.2 1081.24,-144.22"/>
</a>
</g>
</g>
<!-- Node25&#45;&gt;Node10 -->
<g id="edge70_Node000025_Node000010" class="edge">
<title>Node25&#45;&gt;Node10</title>
<g id="a_edge70_Node000025_Node000010"><a xlink:title=" ">
<path fill="none" stroke="#63b8ff" d="M1007.2,-241.97C1033.62,-233.17 1066.96,-220.71 1095,-206 1115.64,-195.17 1117.03,-186.17 1138,-176 1187.72,-151.89 1218.8,-179.92 1257,-140 1271.25,-125.11 1275.22,-101.09 1276.13,-84.36"/>
<polygon fill="#63b8ff" stroke="#63b8ff" points="1279.63,-84.22 1276.36,-74.15 1272.64,-84.07 1279.63,-84.22"/>
</a>
</g>
</g>
<!-- Node25&#45;&gt;Node11 -->
<g id="edge67_Node000025_Node000011" class="edge">
<title>Node25&#45;&gt;Node11</title>
<g id="a_edge67_Node000025_Node000011"><a xlink:title=" ">
<path fill="none" stroke="#63b8ff" d="M962.4,-241.99C965.75,-208.35 974.27,-122.97 978.09,-84.64"/>
<polygon fill="#63b8ff" stroke="#63b8ff" points="981.61,-84.66 979.12,-74.36 974.64,-83.96 981.61,-84.66"/>
</a>
</g>
</g>
<!-- Node25&#45;&gt;Node12 -->
<g id="edge58_Node000025_Node000012" class="edge">
<title>Node25&#45;&gt;Node12</title>
<g id="a_edge58_Node000025_Node000012"><a xlink:title=" ">
<path fill="none" stroke="#63b8ff" d="M907.89,-241.95C870.7,-232.12 820.84,-218.93 781.69,-208.58"/>
<polygon fill="#63b8ff" stroke="#63b8ff" points="782.55,-205.19 771.98,-206.01 780.76,-211.95 782.55,-205.19"/>
</a>
</g>
</g>
<!-- Node25&#45;&gt;Node15 -->
<g id="edge66_Node000025_Node000015" class="edge">
<title>Node25&#45;&gt;Node15</title>
<g id="a_edge66_Node000025_Node000015"><a xlink:title=" ">
<path fill="none" stroke="#63b8ff" d="M949.4,-241.95C935.09,-225.1 909.51,-196.57 884,-176 866.69,-162.04 845.19,-148.94 828.69,-139.65"/>
<polygon fill="#63b8ff" stroke="#63b8ff" points="830.08,-136.41 819.63,-134.65 826.69,-142.54 830.08,-136.41"/>
</a>
</g>
</g>
<!-- Node25&#45;&gt;Node17 -->
<g id="edge68_Node000025_Node000017" class="edge">
<title>Node25&#45;&gt;Node17</title>
<g id="a_edge68_Node000025_Node000017"><a xlink:title=" ">
<path fill="none" stroke="#63b8ff" d="M954.14,-241.84C942.59,-218.02 919.32,-169.99 906.66,-143.88"/>
<polygon fill="#63b8ff" stroke="#63b8ff" points="909.75,-142.22 902.24,-134.75 903.45,-145.27 909.75,-142.22"/>
</a>
</g>
</g>
<!-- Node26 -->
<g id="Node000026" class="node">
<title>Node26</title>
<g id="a_Node000026"><a xlink:href="../../d4/d29/ConfigManager_8h.html" target="_top" xlink:title=" ">
<polygon fill="white" stroke="#666666" points="1473.5,-134.5 1342.5,-134.5 1342.5,-115.5 1473.5,-115.5 1473.5,-134.5"/>
<text text-anchor="middle" x="1408" y="-122.5" font-family="Helvetica,sans-Serif" font-size="10.00">../utils/ConfigManager.h</text>
</a>
</g>
</g>
<!-- Node25&#45;&gt;Node26 -->
<g id="edge59_Node000025_Node000026" class="edge">
<title>Node25&#45;&gt;Node26</title>
<g id="a_edge59_Node000025_Node000026"><a xlink:title=" ">
<path fill="none" stroke="#63b8ff" d="M1013.91,-241.95C1049.22,-232.36 1096.58,-219.06 1138,-206 1176.61,-193.83 1185.33,-187.98 1224,-176 1271.4,-161.31 1326.38,-146.68 1363.81,-137.08"/>
<polygon fill="#63b8ff" stroke="#63b8ff" points="1365.06,-140.37 1373.88,-134.51 1363.33,-133.59 1365.06,-140.37"/>
</a>
</g>
</g>
<!-- Node27 -->
<g id="Node000027" class="node">
<title>Node27</title>
<g id="a_Node000027"><a xlink:title=" ">
<polygon fill="#e0e0e0" stroke="#999999" points="875.5,-200.5 810.5,-200.5 810.5,-181.5 875.5,-181.5 875.5,-200.5"/>
<text text-anchor="middle" x="843" y="-188.5" font-family="Helvetica,sans-Serif" font-size="10.00">functional</text>
</a>
</g>
</g>
<!-- Node25&#45;&gt;Node27 -->
<g id="edge65_Node000025_Node000027" class="edge">
<title>Node25&#45;&gt;Node27</title>
<g id="a_edge65_Node000025_Node000027"><a xlink:title=" ">
<path fill="none" stroke="#63b8ff" d="M935.1,-241.95C915.05,-231.08 887.45,-216.11 867.7,-205.4"/>
<polygon fill="#63b8ff" stroke="#63b8ff" points="869.16,-202.21 858.7,-200.52 865.83,-208.36 869.16,-202.21"/>
</a>
</g>
</g>
<!-- Node26&#45;&gt;Node8 -->
<g id="edge60_Node000026_Node000008" class="edge">
<title>Node26&#45;&gt;Node8</title>
<g id="a_edge60_Node000026_Node000008"><a xlink:title=" ">
<path fill="none" stroke="#63b8ff" d="M1399.41,-115.44C1383.31,-100.05 1346.81,-68.09 1309,-55 1177.74,-9.58 823.49,-29.68 685,-19 666.55,-17.58 645.95,-15.61 629.33,-13.92"/>
<polygon fill="#63b8ff" stroke="#63b8ff" points="629.35,-10.41 619.04,-12.87 628.63,-17.37 629.35,-10.41"/>
</a>
</g>
</g>
<!-- Node26&#45;&gt;Node9 -->
<g id="edge61_Node000026_Node000009" class="edge">
<title>Node26&#45;&gt;Node9</title>
<g id="a_edge61_Node000026_Node000009"><a xlink:title=" ">
<path fill="none" stroke="#63b8ff" d="M1403.01,-115.28C1393.69,-99.92 1372,-68.41 1344,-55 1289.31,-28.81 859.35,-14.69 742.32,-11.3"/>
<polygon fill="#63b8ff" stroke="#63b8ff" points="742.39,-7.81 732.3,-11.02 742.19,-14.8 742.39,-7.81"/>
</a>
</g>
</g>
<!-- Node26&#45;&gt;Node10 -->
<g id="edge62_Node000026_Node000010" class="edge">
<title>Node26&#45;&gt;Node10</title>
<g id="a_edge62_Node000026_Node000010"><a xlink:title=" ">
<path fill="none" stroke="#63b8ff" d="M1388.81,-115.49C1366.61,-105.66 1329.88,-89.38 1304.38,-78.08"/>
<polygon fill="#63b8ff" stroke="#63b8ff" points="1305.78,-74.87 1295.22,-74.02 1302.94,-81.27 1305.78,-74.87"/>
</a>
</g>
</g>
<!-- Node28&#45;&gt;Node3 -->
<g id="edge74_Node000028_Node000003" class="edge">
<title>Node28&#45;&gt;Node3</title>
<g id="a_edge74_Node000028_Node000003"><a xlink:title=" ">
<path fill="none" stroke="#63b8ff" d="M1535.66,-109.95C1522.53,-94.52 1499.55,-69.95 1475,-55 1446.73,-37.78 1410.9,-26.16 1384.03,-19.12"/>
<polygon fill="#63b8ff" stroke="#63b8ff" points="1384.75,-15.69 1374.2,-16.64 1383.04,-22.48 1384.75,-15.69"/>
</a>
</g>
</g>
<!-- Node28&#45;&gt;Node8 -->
<g id="edge72_Node000028_Node000008" class="edge">
<title>Node28&#45;&gt;Node8</title>
<g id="a_edge72_Node000028_Node000008"><a xlink:title=" ">
<path fill="none" stroke="#63b8ff" d="M1495.13,-109.92C1462.6,-100.66 1419.97,-87.75 1383,-74 1363.42,-66.72 1360.32,-59.87 1340,-55 1056.5,13.02 975.72,-41.02 685,-19 666.54,-17.6 645.95,-15.64 629.33,-13.95"/>
<polygon fill="#63b8ff" stroke="#63b8ff" points="629.35,-10.43 619.04,-12.88 628.63,-17.39 629.35,-10.43"/>
</a>
</g>
</g>
<!-- Node28&#45;&gt;Node9 -->
<g id="edge73_Node000028_Node000009" class="edge">
<title>Node28&#45;&gt;Node9</title>
<g id="a_edge73_Node000028_Node000009"><a xlink:title=" ">
<path fill="none" stroke="#63b8ff" d="M1518.72,-109.86C1484.47,-93.48 1424.56,-67.18 1370,-55 1247.71,-27.7 853.15,-14.52 742.24,-11.3"/>
<polygon fill="#63b8ff" stroke="#63b8ff" points="742.22,-7.8 732.13,-11.01 742.02,-14.8 742.22,-7.8"/>
</a>
</g>
</g>
<!-- Node28&#45;&gt;Node11 -->
<g id="edge75_Node000028_Node000011" class="edge">
<title>Node28&#45;&gt;Node11</title>
<g id="a_edge75_Node000028_Node000011"><a xlink:title=" ">
<path fill="none" stroke="#63b8ff" d="M1491.93,-111.49C1488.91,-110.95 1485.92,-110.45 1483,-110 1308.01,-83.23 1096.11,-71 1014.41,-67.03"/>
<polygon fill="#63b8ff" stroke="#63b8ff" points="1014.37,-63.53 1004.21,-66.55 1014.04,-70.52 1014.37,-63.53"/>
</a>
</g>
</g>
<!-- Node29&#45;&gt;Node2 -->
<g id="edge78_Node000029_Node000002" class="edge">
<title>Node29&#45;&gt;Node2</title>
<g id="a_edge78_Node000029_Node000002"><a xlink:title=" ">
<path fill="none" stroke="#63b8ff" d="M155.88,-307.96C185.33,-298.04 225.63,-284.36 261,-272 262.88,-271.34 264.82,-270.66 266.77,-269.97"/>
<polygon fill="#63b8ff" stroke="#63b8ff" points="268.26,-273.15 276.51,-266.5 265.92,-266.56 268.26,-273.15"/>
</a>
</g>
</g>
<!-- Node29&#45;&gt;Node5 -->
<g id="edge77_Node000029_Node000005" class="edge">
<title>Node29&#45;&gt;Node5</title>
<g id="a_edge77_Node000029_Node000005"><a xlink:title=" ">
<path fill="none" stroke="#63b8ff" d="M95.03,-307.89C83.97,-298.77 70.55,-286 62,-272 42.65,-240.32 38,-229.12 38,-192 38,-192 38,-192 38,-124 38,-91.53 37.21,-75.97 62,-55 95.63,-26.55 224.86,-15.78 288.36,-12.15"/>
<polygon fill="#63b8ff" stroke="#63b8ff" points="288.9,-15.62 298.69,-11.59 288.52,-8.64 288.9,-15.62"/>
</a>
</g>
</g>
<!-- Node29&#45;&gt;Node8 -->
<g id="edge80_Node000029_Node000008" class="edge">
<title>Node29&#45;&gt;Node8</title>
<g id="a_edge80_Node000029_Node000008"><a xlink:title=" ">
<path fill="none" stroke="#63b8ff" d="M107.03,-307.97C96.06,-284.54 76,-235.74 76,-192 76,-192 76,-192 76,-124 76,-23.45 451.19,-11.82 564.79,-10.6"/>
<polygon fill="#63b8ff" stroke="#63b8ff" points="564.98,-14.1 574.95,-10.51 564.92,-7.1 564.98,-14.1"/>
</a>
</g>
</g>
<!-- Node29&#45;&gt;Node9 -->
<g id="edge79_Node000029_Node000009" class="edge">
<title>Node29&#45;&gt;Node9</title>
<g id="a_edge79_Node000029_Node000009"><a xlink:title=" ">
<path fill="none" stroke="#63b8ff" d="M112.14,-307.77C108.09,-270.29 102.58,-167.78 154,-110 208.48,-48.78 249.84,-72.03 330,-55 364.34,-47.71 599.64,-22.48 683.44,-13.61"/>
<polygon fill="#63b8ff" stroke="#63b8ff" points="683.98,-17.07 693.56,-12.54 683.25,-10.11 683.98,-17.07"/>
</a>
</g>
</g>
</g>
</svg>
