<?xml version="1.0" encoding="UTF-8" standalone="no"?>
<!DOCTYPE svg PUBLIC "-//W3C//DTD SVG 1.1//EN"
 "http://www.w3.org/Graphics/SVG/1.1/DTD/svg11.dtd">
<!-- Generated by graphviz version 2.43.0 (0)
 -->
<!-- Title: include/core/Message.h Pages: 1 -->
<svg width="1620pt" height="401pt"
 viewBox="0.00 0.00 1619.50 401.00" xmlns="http://www.w3.org/2000/svg" xmlns:xlink="http://www.w3.org/1999/xlink">
<g id="graph0" class="graph" transform="scale(1 1) rotate(0) translate(4 397)">
<title>include/core/Message.h</title>
<!-- Node1 -->
<g id="Node000001" class="node">
<title>Node1</title>
<g id="a_Node000001"><a xlink:title=" ">
<polygon fill="#999999" stroke="#666666" points="920.5,-393 789.5,-393 789.5,-374 920.5,-374 920.5,-393"/>
<text text-anchor="middle" x="855" y="-381" font-family="Helvetica,sans-Serif" font-size="10.00">include/core/Message.h</text>
</a>
</g>
</g>
<!-- Node2 -->
<g id="Node000002" class="node">
<title>Node2</title>
<g id="a_Node000002"><a xlink:href="../../de/d8a/NetworkMonitor_8h.html" target="_top" xlink:title=" ">
<polygon fill="white" stroke="#666666" points="182,-338 0,-338 0,-319 182,-319 182,-338"/>
<text text-anchor="middle" x="91" y="-326" font-family="Helvetica,sans-Serif" font-size="10.00">include/devices/NetworkMonitor.h</text>
</a>
</g>
</g>
<!-- Node1&#45;&gt;Node2 -->
<g id="edge1_Node000001_Node000002" class="edge">
<title>Node1&#45;&gt;Node2</title>
<g id="a_edge1_Node000001_Node000002"><a xlink:title=" ">
<path fill="none" stroke="#63b8ff" d="M778.99,-377.7C656.31,-369.87 407.06,-353.67 196,-338 191.44,-337.66 186.77,-337.31 182.05,-336.95"/>
<polygon fill="#63b8ff" stroke="#63b8ff" points="778.83,-381.2 789.04,-378.34 779.28,-374.21 778.83,-381.2"/>
</a>
</g>
</g>
<!-- Node4 -->
<g id="Node000004" class="node">
<title>Node4</title>
<g id="a_Node000004"><a xlink:href="../../d5/d65/Sensor_8h.html" target="_top" xlink:title=" ">
<polygon fill="white" stroke="#666666" points="731.5,-338 594.5,-338 594.5,-319 731.5,-319 731.5,-338"/>
<text text-anchor="middle" x="663" y="-326" font-family="Helvetica,sans-Serif" font-size="10.00">include/devices/Sensor.h</text>
</a>
</g>
</g>
<!-- Node1&#45;&gt;Node4 -->
<g id="edge3_Node000001_Node000004" class="edge">
<title>Node1&#45;&gt;Node4</title>
<g id="a_edge3_Node000001_Node000004"><a xlink:title=" ">
<path fill="none" stroke="#63b8ff" d="M814.47,-371.31C778.54,-361.39 726.84,-347.12 694.09,-338.08"/>
<polygon fill="#63b8ff" stroke="#63b8ff" points="813.58,-374.7 824.15,-373.98 815.44,-367.95 813.58,-374.7"/>
</a>
</g>
</g>
<!-- Node9 -->
<g id="Node000009" class="node">
<title>Node9</title>
<g id="a_Node000009"><a xlink:href="../../df/d0a/main_8cpp.html" target="_top" xlink:title=" ">
<polygon fill="white" stroke="#666666" points="849.5,-19 770.5,-19 770.5,0 849.5,0 849.5,-19"/>
<text text-anchor="middle" x="810" y="-7" font-family="Helvetica,sans-Serif" font-size="10.00">src/main.cpp</text>
</a>
</g>
</g>
<!-- Node1&#45;&gt;Node9 -->
<g id="edge32_Node000001_Node000009" class="edge">
<title>Node1&#45;&gt;Node9</title>
<g id="a_edge32_Node000001_Node000009"><a xlink:title=" ">
<path fill="none" stroke="#63b8ff" d="M779.15,-377C608.67,-363.62 210,-326.21 210,-269 210,-269 210,-269 210,-135 210,-20.24 636.16,-10.48 770.17,-10.25"/>
<polygon fill="#63b8ff" stroke="#63b8ff" points="779.06,-380.5 789.3,-377.79 779.61,-373.52 779.06,-380.5"/>
</a>
</g>
</g>
<!-- Node11 -->
<g id="Node000011" class="node">
<title>Node11</title>
<g id="a_Node000011"><a xlink:href="../../d7/d16/Sensor_8cpp.html" target="_top" xlink:title=" ">
<polygon fill="white" stroke="#666666" points="821.5,-277.5 694.5,-277.5 694.5,-258.5 821.5,-258.5 821.5,-277.5"/>
<text text-anchor="middle" x="758" y="-265.5" font-family="Helvetica,sans-Serif" font-size="10.00">src/devices/Sensor.cpp</text>
</a>
</g>
</g>
<!-- Node1&#45;&gt;Node11 -->
<g id="edge31_Node000001_Node000011" class="edge">
<title>Node1&#45;&gt;Node11</title>
<g id="a_edge31_Node000001_Node000011"><a xlink:title=" ">
<path fill="none" stroke="#63b8ff" d="M837.95,-366.77C829.28,-358.49 818.75,-348.01 810,-338 792.03,-317.45 773.33,-291.24 764.02,-277.81"/>
<polygon fill="#63b8ff" stroke="#63b8ff" points="835.61,-369.37 845.29,-373.67 840.4,-364.27 835.61,-369.37"/>
</a>
</g>
</g>
<!-- Node12 -->
<g id="Node000012" class="node">
<title>Node12</title>
<g id="a_Node000012"><a xlink:href="../../dd/d6c/NetworkManager_8h.html" target="_top" xlink:title=" ">
<polygon fill="white" stroke="#666666" points="1030,-277.5 840,-277.5 840,-258.5 1030,-258.5 1030,-277.5"/>
<text text-anchor="middle" x="935" y="-265.5" font-family="Helvetica,sans-Serif" font-size="10.00">include/network/NetworkManager.h</text>
</a>
</g>
</g>
<!-- Node1&#45;&gt;Node12 -->
<g id="edge12_Node000001_Node000012" class="edge">
<title>Node1&#45;&gt;Node12</title>
<g id="a_edge12_Node000001_Node000012"><a xlink:title=" ">
<path fill="none" stroke="#63b8ff" d="M835.67,-367.39C821.44,-354.37 806.29,-335.18 817,-319 831.68,-296.83 858.37,-284.47 882.65,-277.58"/>
<polygon fill="#63b8ff" stroke="#63b8ff" points="833.43,-370.08 843.31,-373.93 837.99,-364.76 833.43,-370.08"/>
</a>
</g>
</g>
<!-- Node18 -->
<g id="Node000018" class="node">
<title>Node18</title>
<g id="a_Node000018"><a xlink:href="../../d1/de8/IPSecManager_8h.html" target="_top" xlink:title=" ">
<polygon fill="white" stroke="#666666" points="1000,-338 826,-338 826,-319 1000,-319 1000,-338"/>
<text text-anchor="middle" x="913" y="-326" font-family="Helvetica,sans-Serif" font-size="10.00">include/security/IPSecManager.h</text>
</a>
</g>
</g>
<!-- Node1&#45;&gt;Node18 -->
<g id="edge24_Node000001_Node000018" class="edge">
<title>Node1&#45;&gt;Node18</title>
<g id="a_edge24_Node000001_Node000018"><a xlink:title=" ">
<path fill="none" stroke="#63b8ff" d="M871.91,-367.04C882.2,-357.64 894.97,-345.98 903.51,-338.17"/>
<polygon fill="#63b8ff" stroke="#63b8ff" points="869.34,-364.66 864.32,-373.98 874.06,-369.82 869.34,-364.66"/>
</a>
</g>
</g>
<!-- Node20 -->
<g id="Node000020" class="node">
<title>Node20</title>
<g id="a_Node000020"><a xlink:href="../../d7/d5a/DeviceManager_8cpp.html" target="_top" xlink:title=" ">
<polygon fill="white" stroke="#666666" points="1172,-338 1018,-338 1018,-319 1172,-319 1172,-338"/>
<text text-anchor="middle" x="1095" y="-326" font-family="Helvetica,sans-Serif" font-size="10.00">src/core/DeviceManager.cpp</text>
</a>
</g>
</g>
<!-- Node1&#45;&gt;Node20 -->
<g id="edge27_Node000001_Node000020" class="edge">
<title>Node1&#45;&gt;Node20</title>
<g id="a_edge27_Node000001_Node000020"><a xlink:title=" ">
<path fill="none" stroke="#63b8ff" d="M903.38,-371.82C948.36,-361.88 1014.5,-347.28 1056.14,-338.08"/>
<polygon fill="#63b8ff" stroke="#63b8ff" points="902.57,-368.41 893.56,-373.98 904.08,-375.25 902.57,-368.41"/>
</a>
</g>
</g>
<!-- Node21 -->
<g id="Node000021" class="node">
<title>Node21</title>
<g id="a_Node000021"><a xlink:href="../../d8/d70/IoTDevice_8cpp.html" target="_top" xlink:title=" ">
<polygon fill="white" stroke="#666666" points="1317.5,-338 1190.5,-338 1190.5,-319 1317.5,-319 1317.5,-338"/>
<text text-anchor="middle" x="1254" y="-326" font-family="Helvetica,sans-Serif" font-size="10.00">src/core/IoTDevice.cpp</text>
</a>
</g>
</g>
<!-- Node1&#45;&gt;Node21 -->
<g id="edge28_Node000001_Node000021" class="edge">
<title>Node1&#45;&gt;Node21</title>
<g id="a_edge28_Node000001_Node000021"><a xlink:title=" ">
<path fill="none" stroke="#63b8ff" d="M929.44,-372.61C1004.57,-362.63 1119.36,-347.38 1190.38,-337.95"/>
<polygon fill="#63b8ff" stroke="#63b8ff" points="928.56,-369.2 919.11,-373.98 929.48,-376.14 928.56,-369.2"/>
</a>
</g>
</g>
<!-- Node22 -->
<g id="Node000022" class="node">
<title>Node22</title>
<g id="a_Node000022"><a xlink:href="../../d2/d31/Message_8cpp.html" target="_top" xlink:title=" ">
<polygon fill="white" stroke="#666666" points="1458,-338 1336,-338 1336,-319 1458,-319 1458,-338"/>
<text text-anchor="middle" x="1397" y="-326" font-family="Helvetica,sans-Serif" font-size="10.00">src/core/Message.cpp</text>
</a>
</g>
</g>
<!-- Node1&#45;&gt;Node22 -->
<g id="edge29_Node000001_Node000022" class="edge">
<title>Node1&#45;&gt;Node22</title>
<g id="a_edge29_Node000001_Node000022"><a xlink:title=" ">
<path fill="none" stroke="#63b8ff" d="M930.92,-375.97C1024.23,-367.81 1187.39,-353.05 1327,-338 1329.92,-337.68 1332.91,-337.35 1335.93,-337.01"/>
<polygon fill="#63b8ff" stroke="#63b8ff" points="930.38,-372.51 920.72,-376.86 930.99,-379.48 930.38,-372.51"/>
</a>
</g>
</g>
<!-- Node23 -->
<g id="Node000023" class="node">
<title>Node23</title>
<g id="a_Node000023"><a xlink:href="../../d3/d47/Actuator_8cpp.html" target="_top" xlink:title=" ">
<polygon fill="white" stroke="#666666" points="1611.5,-338 1476.5,-338 1476.5,-319 1611.5,-319 1611.5,-338"/>
<text text-anchor="middle" x="1544" y="-326" font-family="Helvetica,sans-Serif" font-size="10.00">src/devices/Actuator.cpp</text>
</a>
</g>
</g>
<!-- Node1&#45;&gt;Node23 -->
<g id="edge30_Node000001_Node000023" class="edge">
<title>Node1&#45;&gt;Node23</title>
<g id="a_edge30_Node000001_Node000023"><a xlink:title=" ">
<path fill="none" stroke="#63b8ff" d="M930.9,-377.9C1046.64,-370.67 1274.17,-355.65 1467,-338 1470.08,-337.72 1473.23,-337.42 1476.41,-337.11"/>
<polygon fill="#63b8ff" stroke="#63b8ff" points="930.49,-374.41 920.73,-378.53 930.93,-381.4 930.49,-374.41"/>
</a>
</g>
</g>
<!-- Node3 -->
<g id="Node000003" class="node">
<title>Node3</title>
<g id="a_Node000003"><a xlink:href="../../de/d67/NetworkMonitor_8cpp.html" target="_top" xlink:title=" ">
<polygon fill="white" stroke="#666666" points="177.5,-277.5 4.5,-277.5 4.5,-258.5 177.5,-258.5 177.5,-277.5"/>
<text text-anchor="middle" x="91" y="-265.5" font-family="Helvetica,sans-Serif" font-size="10.00">src/devices/NetworkMonitor.cpp</text>
</a>
</g>
</g>
<!-- Node2&#45;&gt;Node3 -->
<g id="edge2_Node000002_Node000003" class="edge">
<title>Node2&#45;&gt;Node3</title>
<g id="a_edge2_Node000002_Node000003"><a xlink:title=" ">
<path fill="none" stroke="#63b8ff" d="M91,-308.66C91,-298.24 91,-285.8 91,-277.67"/>
<polygon fill="#63b8ff" stroke="#63b8ff" points="87.5,-308.87 91,-318.87 94.5,-308.87 87.5,-308.87"/>
</a>
</g>
</g>
<!-- Node5 -->
<g id="Node000005" class="node">
<title>Node5</title>
<g id="a_Node000005"><a xlink:href="../../d2/d1e/BatterySensors_8h.html" target="_top" xlink:title=" ">
<polygon fill="white" stroke="#666666" points="440.5,-277.5 261.5,-277.5 261.5,-258.5 440.5,-258.5 440.5,-277.5"/>
<text text-anchor="middle" x="351" y="-265.5" font-family="Helvetica,sans-Serif" font-size="10.00">include/devices/BatterySensors.h</text>
</a>
</g>
</g>
<!-- Node4&#45;&gt;Node5 -->
<g id="edge4_Node000004_Node000005" class="edge">
<title>Node4&#45;&gt;Node5</title>
<g id="a_edge4_Node000004_Node000005"><a xlink:title=" ">
<path fill="none" stroke="#63b8ff" d="M607.55,-317.1C547.36,-305.82 452.37,-288.01 396.42,-277.52"/>
<polygon fill="#63b8ff" stroke="#63b8ff" points="607.16,-320.59 617.63,-318.99 608.45,-313.71 607.16,-320.59"/>
</a>
</g>
</g>
<!-- Node7 -->
<g id="Node000007" class="node">
<title>Node7</title>
<g id="a_Node000007"><a xlink:href="../../d5/d3f/ConcreteSensors_8h.html" target="_top" xlink:title=" ">
<polygon fill="white" stroke="#666666" points="619.5,-283 480.5,-283 480.5,-253 619.5,-253 619.5,-283"/>
<text text-anchor="start" x="488.5" y="-271" font-family="Helvetica,sans-Serif" font-size="10.00">include/devices/Concrete</text>
<text text-anchor="middle" x="550" y="-260" font-family="Helvetica,sans-Serif" font-size="10.00">Sensors.h</text>
</a>
</g>
</g>
<!-- Node4&#45;&gt;Node7 -->
<g id="edge6_Node000004_Node000007" class="edge">
<title>Node4&#45;&gt;Node7</title>
<g id="a_edge6_Node000004_Node000007"><a xlink:title=" ">
<path fill="none" stroke="#63b8ff" d="M637.06,-314.07C619.17,-304.81 595.43,-292.52 577.26,-283.11"/>
<polygon fill="#63b8ff" stroke="#63b8ff" points="635.84,-317.38 646.33,-318.87 639.06,-311.16 635.84,-317.38"/>
</a>
</g>
</g>
<!-- Node10 -->
<g id="Node000010" class="node">
<title>Node10</title>
<g id="a_Node000010"><a xlink:href="../../dd/da3/ProtocolSensors_8h.html" target="_top" xlink:title=" ">
<polygon fill="white" stroke="#666666" points="829.5,-85 694.5,-85 694.5,-55 829.5,-55 829.5,-85"/>
<text text-anchor="start" x="702.5" y="-73" font-family="Helvetica,sans-Serif" font-size="10.00">include/devices/Protocol</text>
<text text-anchor="middle" x="762" y="-62" font-family="Helvetica,sans-Serif" font-size="10.00">Sensors.h</text>
</a>
</g>
</g>
<!-- Node4&#45;&gt;Node10 -->
<g id="edge9_Node000004_Node000010" class="edge">
<title>Node4&#45;&gt;Node10</title>
<g id="a_edge9_Node000004_Node000010"><a xlink:title=" ">
<path fill="none" stroke="#63b8ff" d="M659.95,-308.56C654.76,-270.05 648.08,-181.15 685,-121 694.76,-105.11 711.68,-93.3 727.18,-85.16"/>
<polygon fill="#63b8ff" stroke="#63b8ff" points="656.54,-309.43 661.46,-318.81 663.46,-308.41 656.54,-309.43"/>
</a>
</g>
</g>
<!-- Node4&#45;&gt;Node11 -->
<g id="edge11_Node000004_Node000011" class="edge">
<title>Node4&#45;&gt;Node11</title>
<g id="a_edge11_Node000004_Node000011"><a xlink:title=" ">
<path fill="none" stroke="#63b8ff" d="M685.79,-313.47C703.88,-302.32 728.61,-287.1 743.92,-277.67"/>
<polygon fill="#63b8ff" stroke="#63b8ff" points="683.7,-310.64 677.02,-318.87 687.37,-316.6 683.7,-310.64"/>
</a>
</g>
</g>
<!-- Node6 -->
<g id="Node000006" class="node">
<title>Node6</title>
<g id="a_Node000006"><a xlink:href="../../d9/dd0/BatterySensors_8cpp.html" target="_top" xlink:title=" ">
<polygon fill="white" stroke="#666666" points="406.5,-211.5 237.5,-211.5 237.5,-192.5 406.5,-192.5 406.5,-211.5"/>
<text text-anchor="middle" x="322" y="-199.5" font-family="Helvetica,sans-Serif" font-size="10.00">src/devices/BatterySensors.cpp</text>
</a>
</g>
</g>
<!-- Node5&#45;&gt;Node6 -->
<g id="edge5_Node000005_Node000006" class="edge">
<title>Node5&#45;&gt;Node6</title>
<g id="a_edge5_Node000005_Node000006"><a xlink:title=" ">
<path fill="none" stroke="#63b8ff" d="M342.93,-249.18C337.43,-237.05 330.39,-221.51 326.04,-211.91"/>
<polygon fill="#63b8ff" stroke="#63b8ff" points="339.77,-250.7 347.09,-258.37 346.15,-247.82 339.77,-250.7"/>
</a>
</g>
</g>
<!-- Node8 -->
<g id="Node000008" class="node">
<title>Node8</title>
<g id="a_Node000008"><a xlink:href="../../d1/d16/ConcreteSensors_8cpp.html" target="_top" xlink:title=" ">
<polygon fill="white" stroke="#666666" points="638,-211.5 462,-211.5 462,-192.5 638,-192.5 638,-211.5"/>
<text text-anchor="middle" x="550" y="-199.5" font-family="Helvetica,sans-Serif" font-size="10.00">src/devices/ConcreteSensors.cpp</text>
</a>
</g>
</g>
<!-- Node7&#45;&gt;Node8 -->
<g id="edge7_Node000007_Node000008" class="edge">
<title>Node7&#45;&gt;Node8</title>
<g id="a_edge7_Node000007_Node000008"><a xlink:title=" ">
<path fill="none" stroke="#63b8ff" d="M550,-242.6C550,-231.8 550,-219.78 550,-211.84"/>
<polygon fill="#63b8ff" stroke="#63b8ff" points="546.5,-242.8 550,-252.8 553.5,-242.8 546.5,-242.8"/>
</a>
</g>
</g>
<!-- Node7&#45;&gt;Node9 -->
<g id="edge8_Node000007_Node000009" class="edge">
<title>Node7&#45;&gt;Node9</title>
<g id="a_edge8_Node000007_Node000009"><a xlink:title=" ">
<path fill="none" stroke="#63b8ff" d="M489.98,-248.68C475.38,-241.25 461.53,-231 453,-217 446.06,-205.62 446.3,-198.53 453,-187 520.78,-70.45 692.44,-29.05 770.4,-15.94"/>
<polygon fill="#63b8ff" stroke="#63b8ff" points="488.58,-251.89 499.12,-252.95 491.54,-245.55 488.58,-251.89"/>
</a>
</g>
</g>
<!-- Node10&#45;&gt;Node9 -->
<g id="edge10_Node000010_Node000009" class="edge">
<title>Node10&#45;&gt;Node9</title>
<g id="a_edge10_Node000010_Node000009"><a xlink:title=" ">
<path fill="none" stroke="#63b8ff" d="M779.98,-47.09C787.91,-37.42 796.78,-26.61 802.81,-19.27"/>
<polygon fill="#63b8ff" stroke="#63b8ff" points="777.26,-44.89 773.62,-54.84 782.67,-49.33 777.26,-44.89"/>
</a>
</g>
</g>
<!-- Node12&#45;&gt;Node9 -->
<g id="edge22_Node000012_Node000009" class="edge">
<title>Node12&#45;&gt;Node9</title>
<g id="a_edge22_Node000012_Node000009"><a xlink:title=" ">
<path fill="none" stroke="#63b8ff" d="M911.31,-252.75C898.69,-243.97 883.96,-231.6 875,-217 836.38,-154.05 866.29,-123.22 838,-55 832.48,-41.68 823.1,-27.85 816.74,-19.21"/>
<polygon fill="#63b8ff" stroke="#63b8ff" points="909.74,-255.91 920.02,-258.49 913.59,-250.06 909.74,-255.91"/>
</a>
</g>
</g>
<!-- Node13 -->
<g id="Node000013" class="node">
<title>Node13</title>
<g id="a_Node000013"><a xlink:href="../../d2/d1b/ProtocolAwareDevice_8h.html" target="_top" xlink:title=" ">
<polygon fill="white" stroke="#666666" points="829.5,-151 694.5,-151 694.5,-121 829.5,-121 829.5,-151"/>
<text text-anchor="start" x="702.5" y="-139" font-family="Helvetica,sans-Serif" font-size="10.00">include/devices/Protocol</text>
<text text-anchor="middle" x="762" y="-128" font-family="Helvetica,sans-Serif" font-size="10.00">AwareDevice.h</text>
</a>
</g>
</g>
<!-- Node12&#45;&gt;Node13 -->
<g id="edge13_Node000012_Node000013" class="edge">
<title>Node12&#45;&gt;Node13</title>
<g id="a_edge13_Node000012_Node000013"><a xlink:title=" ">
<path fill="none" stroke="#63b8ff" d="M906.05,-254.15C887.01,-245.06 862.01,-231.88 842,-217 815.2,-197.08 788.72,-168.34 773.95,-151.27"/>
<polygon fill="#63b8ff" stroke="#63b8ff" points="904.6,-257.33 915.14,-258.4 907.56,-250.99 904.6,-257.33"/>
</a>
</g>
</g>
<!-- Node14 -->
<g id="Node000014" class="node">
<title>Node14</title>
<g id="a_Node000014"><a xlink:href="../../de/d44/ProtocolCharacteristics_8h.html" target="_top" xlink:title=" ">
<polygon fill="white" stroke="#666666" points="1021.5,-217 884.5,-217 884.5,-187 1021.5,-187 1021.5,-217"/>
<text text-anchor="start" x="892.5" y="-205" font-family="Helvetica,sans-Serif" font-size="10.00">include/network/Protocol</text>
<text text-anchor="middle" x="953" y="-194" font-family="Helvetica,sans-Serif" font-size="10.00">Characteristics.h</text>
</a>
</g>
</g>
<!-- Node12&#45;&gt;Node14 -->
<g id="edge15_Node000012_Node000014" class="edge">
<title>Node12&#45;&gt;Node14</title>
<g id="a_edge15_Node000012_Node000014"><a xlink:title=" ">
<path fill="none" stroke="#63b8ff" d="M940.16,-248.67C942.95,-238.72 946.36,-226.61 948.96,-217.36"/>
<polygon fill="#63b8ff" stroke="#63b8ff" points="936.77,-247.79 937.43,-258.37 943.5,-249.69 936.77,-247.79"/>
</a>
</g>
</g>
<!-- Node15 -->
<g id="Node000015" class="node">
<title>Node15</title>
<g id="a_Node000015"><a xlink:href="../../d2/ddd/NetworkManager_8cpp.html" target="_top" xlink:title=" ">
<polygon fill="white" stroke="#666666" points="1104,-145.5 924,-145.5 924,-126.5 1104,-126.5 1104,-145.5"/>
<text text-anchor="middle" x="1014" y="-133.5" font-family="Helvetica,sans-Serif" font-size="10.00">src/network/NetworkManager.cpp</text>
</a>
</g>
</g>
<!-- Node12&#45;&gt;Node15 -->
<g id="edge23_Node000012_Node000015" class="edge">
<title>Node12&#45;&gt;Node15</title>
<g id="a_edge23_Node000012_Node000015"><a xlink:title=" ">
<path fill="none" stroke="#63b8ff" d="M980.27,-254.95C999.41,-247.37 1019.83,-235.42 1031,-217 1044.99,-193.93 1028.85,-161.04 1019.6,-145.61"/>
<polygon fill="#63b8ff" stroke="#63b8ff" points="978.93,-251.71 970.73,-258.42 981.32,-258.29 978.93,-251.71"/>
</a>
</g>
</g>
<!-- Node16 -->
<g id="Node000016" class="node">
<title>Node16</title>
<g id="a_Node000016"><a xlink:href="../../d8/dee/SimulationEngine_8h.html" target="_top" xlink:title=" ">
<polygon fill="white" stroke="#666666" points="1192,-217 1078,-217 1078,-187 1192,-187 1192,-217"/>
<text text-anchor="start" x="1086" y="-205" font-family="Helvetica,sans-Serif" font-size="10.00">include/simulation</text>
<text text-anchor="middle" x="1135" y="-194" font-family="Helvetica,sans-Serif" font-size="10.00">/SimulationEngine.h</text>
</a>
</g>
</g>
<!-- Node12&#45;&gt;Node16 -->
<g id="edge19_Node000012_Node000016" class="edge">
<title>Node12&#45;&gt;Node16</title>
<g id="a_edge19_Node000012_Node000016"><a xlink:title=" ">
<path fill="none" stroke="#63b8ff" d="M971.85,-255.21C1005.46,-244.45 1055.18,-228.54 1090.89,-217.12"/>
<polygon fill="#63b8ff" stroke="#63b8ff" points="970.43,-251.99 961.97,-258.37 972.56,-258.65 970.43,-251.99"/>
</a>
</g>
</g>
<!-- Node13&#45;&gt;Node10 -->
<g id="edge14_Node000013_Node000010" class="edge">
<title>Node13&#45;&gt;Node10</title>
<g id="a_edge14_Node000013_Node000010"><a xlink:title=" ">
<path fill="none" stroke="#63b8ff" d="M762,-110.54C762,-101.96 762,-92.61 762,-85.16"/>
<polygon fill="#63b8ff" stroke="#63b8ff" points="758.5,-110.8 762,-120.8 765.5,-110.8 758.5,-110.8"/>
</a>
</g>
</g>
<!-- Node14&#45;&gt;Node9 -->
<g id="edge17_Node000014_Node000009" class="edge">
<title>Node14&#45;&gt;Node9</title>
<g id="a_edge17_Node000014_Node000009"><a xlink:title=" ">
<path fill="none" stroke="#63b8ff" d="M934.45,-178.87C927.86,-170.44 920.67,-160.56 915,-151 891.14,-110.79 901.57,-91.21 872,-55 859.43,-39.61 840.31,-26.97 826.62,-19.15"/>
<polygon fill="#63b8ff" stroke="#63b8ff" points="931.78,-181.13 940.77,-186.75 937.24,-176.76 931.78,-181.13"/>
</a>
</g>
</g>
<!-- Node14&#45;&gt;Node13 -->
<g id="edge16_Node000014_Node000013" class="edge">
<title>Node14&#45;&gt;Node13</title>
<g id="a_edge16_Node000014_Node000013"><a xlink:title=" ">
<path fill="none" stroke="#63b8ff" d="M901.44,-183.72C870.84,-173.47 832.53,-160.63 803.82,-151.01"/>
<polygon fill="#63b8ff" stroke="#63b8ff" points="900.49,-187.1 911.08,-186.95 902.71,-180.46 900.49,-187.1"/>
</a>
</g>
</g>
<!-- Node14&#45;&gt;Node15 -->
<g id="edge18_Node000014_Node000015" class="edge">
<title>Node14&#45;&gt;Node15</title>
<g id="a_edge18_Node000014_Node000015"><a xlink:title=" ">
<path fill="none" stroke="#63b8ff" d="M973.71,-179.27C984.61,-167.84 997.38,-154.44 1005.57,-145.84"/>
<polygon fill="#63b8ff" stroke="#63b8ff" points="970.9,-177.14 966.54,-186.8 975.97,-181.97 970.9,-177.14"/>
</a>
</g>
</g>
<!-- Node16&#45;&gt;Node9 -->
<g id="edge20_Node000016_Node000009" class="edge">
<title>Node16&#45;&gt;Node9</title>
<g id="a_edge20_Node000016_Node000009"><a xlink:title=" ">
<path fill="none" stroke="#63b8ff" d="M1134.06,-176.64C1132.15,-159.15 1126.91,-136.09 1113,-121 1042.41,-44.42 914.45,-20.79 849.74,-13.59"/>
<polygon fill="#63b8ff" stroke="#63b8ff" points="1130.58,-177.01 1134.87,-186.7 1137.56,-176.45 1130.58,-177.01"/>
</a>
</g>
</g>
<!-- Node17 -->
<g id="Node000017" class="node">
<title>Node17</title>
<g id="a_Node000017"><a xlink:href="../../d8/dff/SimulationEngine_8cpp.html" target="_top" xlink:title=" ">
<polygon fill="white" stroke="#666666" points="1301.5,-151 1160.5,-151 1160.5,-121 1301.5,-121 1301.5,-151"/>
<text text-anchor="start" x="1168.5" y="-139" font-family="Helvetica,sans-Serif" font-size="10.00">src/simulation/Simulation</text>
<text text-anchor="middle" x="1231" y="-128" font-family="Helvetica,sans-Serif" font-size="10.00">Engine.cpp</text>
</a>
</g>
</g>
<!-- Node16&#45;&gt;Node17 -->
<g id="edge21_Node000016_Node000017" class="edge">
<title>Node16&#45;&gt;Node17</title>
<g id="a_edge21_Node000016_Node000017"><a xlink:title=" ">
<path fill="none" stroke="#63b8ff" d="M1164.96,-181.03C1179.49,-171.34 1196.59,-159.94 1209.75,-151.16"/>
<polygon fill="#63b8ff" stroke="#63b8ff" points="1162.68,-178.34 1156.31,-186.8 1166.57,-184.16 1162.68,-178.34"/>
</a>
</g>
</g>
<!-- Node18&#45;&gt;Node12 -->
<g id="edge25_Node000018_Node000012" class="edge">
<title>Node18&#45;&gt;Node12</title>
<g id="a_edge25_Node000018_Node000012"><a xlink:title=" ">
<path fill="none" stroke="#63b8ff" d="M919.84,-309.32C923.8,-298.78 928.62,-285.98 931.74,-277.67"/>
<polygon fill="#63b8ff" stroke="#63b8ff" points="916.49,-308.28 916.25,-318.87 923.04,-310.74 916.49,-308.28"/>
</a>
</g>
</g>
<!-- Node19 -->
<g id="Node000019" class="node">
<title>Node19</title>
<g id="a_Node000019"><a xlink:href="../../db/d1c/IPSecManager_8cpp.html" target="_top" xlink:title=" ">
<polygon fill="white" stroke="#666666" points="1212,-277.5 1048,-277.5 1048,-258.5 1212,-258.5 1212,-277.5"/>
<text text-anchor="middle" x="1130" y="-265.5" font-family="Helvetica,sans-Serif" font-size="10.00">src/security/IPSecManager.cpp</text>
</a>
</g>
</g>
<!-- Node18&#45;&gt;Node19 -->
<g id="edge26_Node000018_Node000019" class="edge">
<title>Node18&#45;&gt;Node19</title>
<g id="a_edge26_Node000018_Node000019"><a xlink:title=" ">
<path fill="none" stroke="#63b8ff" d="M954.46,-316.32C996.42,-305.01 1060.38,-287.77 1098.41,-277.52"/>
<polygon fill="#63b8ff" stroke="#63b8ff" points="953.3,-313.01 944.55,-318.99 955.12,-319.77 953.3,-313.01"/>
</a>
</g>
</g>
</g>
</svg>
