<?xml version="1.0" encoding="UTF-8" standalone="no"?>
<!DOCTYPE svg PUBLIC "-//W3C//DTD SVG 1.1//EN"
 "http://www.w3.org/Graphics/SVG/1.1/DTD/svg11.dtd">
<!-- Generated by graphviz version 2.43.0 (0)
 -->
<!-- Title: src/simulation/SimulationEngine.cpp Pages: 1 -->
<svg width="1315pt" height="324pt"
 viewBox="0.00 0.00 1315.00 324.00" xmlns="http://www.w3.org/2000/svg" xmlns:xlink="http://www.w3.org/1999/xlink">
<g id="graph0" class="graph" transform="scale(1 1) rotate(0) translate(4 320)">
<title>src/simulation/SimulationEngine.cpp</title>
<!-- Node1 -->
<g id="Node000001" class="node">
<title>Node1</title>
<g id="a_Node000001"><a xlink:title=" ">
<polygon fill="#999999" stroke="#666666" points="1207.5,-316 1066.5,-316 1066.5,-286 1207.5,-286 1207.5,-316"/>
<text text-anchor="start" x="1074.5" y="-304" font-family="Helvetica,sans-Serif" font-size="10.00">src/simulation/Simulation</text>
<text text-anchor="middle" x="1137" y="-293" font-family="Helvetica,sans-Serif" font-size="10.00">Engine.cpp</text>
</a>
</g>
</g>
<!-- Node2 -->
<g id="Node000002" class="node">
<title>Node2</title>
<g id="a_Node000002"><a xlink:href="../../d8/dee/SimulationEngine_8h.html" target="_top" xlink:title=" ">
<polygon fill="white" stroke="#666666" points="918.5,-250 793.5,-250 793.5,-220 918.5,-220 918.5,-250"/>
<text text-anchor="start" x="801.5" y="-238" font-family="Helvetica,sans-Serif" font-size="10.00">../../include/simulation</text>
<text text-anchor="middle" x="856" y="-227" font-family="Helvetica,sans-Serif" font-size="10.00">/SimulationEngine.h</text>
</a>
</g>
</g>
<!-- Node1&#45;&gt;Node2 -->
<g id="edge1_Node000001_Node000002" class="edge">
<title>Node1&#45;&gt;Node2</title>
<g id="a_edge1_Node000001_Node000002"><a xlink:title=" ">
<path fill="none" stroke="#63b8ff" d="M1075.33,-285.95C1031.68,-276.01 973.03,-262.65 927.36,-252.25"/>
<polygon fill="#63b8ff" stroke="#63b8ff" points="928.05,-248.82 917.52,-250.01 926.5,-255.65 928.05,-248.82"/>
</a>
</g>
</g>
<!-- Node7 -->
<g id="Node000007" class="node">
<title>Node7</title>
<g id="a_Node000007"><a xlink:title=" ">
<polygon fill="#e0e0e0" stroke="#999999" points="101,-19 51,-19 51,0 101,0 101,-19"/>
<text text-anchor="middle" x="76" y="-7" font-family="Helvetica,sans-Serif" font-size="10.00">chrono</text>
</a>
</g>
</g>
<!-- Node1&#45;&gt;Node7 -->
<g id="edge46_Node000001_Node000007" class="edge">
<title>Node1&#45;&gt;Node7</title>
<g id="a_edge46_Node000001_Node000007"><a xlink:title=" ">
<path fill="none" stroke="#63b8ff" d="M1066.31,-299.72C817.9,-297.8 0,-283.29 0,-175.5 0,-175.5 0,-175.5 0,-118.5 0,-79.47 33.61,-44.58 56.13,-25.6"/>
<polygon fill="#63b8ff" stroke="#63b8ff" points="58.56,-28.14 64.12,-19.12 54.15,-22.7 58.56,-28.14"/>
</a>
</g>
</g>
<!-- Node16 -->
<g id="Node000016" class="node">
<title>Node16</title>
<g id="a_Node000016"><a xlink:title=" ">
<polygon fill="#e0e0e0" stroke="#999999" points="1071,-129 1023,-129 1023,-110 1071,-110 1071,-129"/>
<text text-anchor="middle" x="1047" y="-117" font-family="Helvetica,sans-Serif" font-size="10.00">thread</text>
</a>
</g>
</g>
<!-- Node1&#45;&gt;Node16 -->
<g id="edge45_Node000001_Node000016" class="edge">
<title>Node1&#45;&gt;Node16</title>
<g id="a_edge45_Node000001_Node000016"><a xlink:title=" ">
<path fill="none" stroke="#63b8ff" d="M1132.23,-285.68C1123.55,-260.44 1103.84,-206.76 1080,-165 1074.47,-155.31 1067.17,-145.26 1060.84,-137.17"/>
<polygon fill="#63b8ff" stroke="#63b8ff" points="1063.49,-134.87 1054.49,-129.27 1058.03,-139.26 1063.49,-134.87"/>
</a>
</g>
</g>
<!-- Node20 -->
<g id="Node000020" class="node">
<title>Node20</title>
<g id="a_Node000020"><a xlink:title=" ">
<polygon fill="#e0e0e0" stroke="#999999" points="1225,-244.5 1165,-244.5 1165,-225.5 1225,-225.5 1225,-244.5"/>
<text text-anchor="middle" x="1195" y="-232.5" font-family="Helvetica,sans-Serif" font-size="10.00">iostream</text>
</a>
</g>
</g>
<!-- Node1&#45;&gt;Node20 -->
<g id="edge43_Node000001_Node000020" class="edge">
<title>Node1&#45;&gt;Node20</title>
<g id="a_edge43_Node000001_Node000020"><a xlink:title=" ">
<path fill="none" stroke="#63b8ff" d="M1149.87,-285.8C1158.83,-275.92 1170.79,-262.72 1180.14,-252.39"/>
<polygon fill="#63b8ff" stroke="#63b8ff" points="1182.86,-254.6 1186.98,-244.84 1177.68,-249.9 1182.86,-254.6"/>
</a>
</g>
</g>
<!-- Node21 -->
<g id="Node000021" class="node">
<title>Node21</title>
<g id="a_Node000021"><a xlink:title=" ">
<polygon fill="#e0e0e0" stroke="#999999" points="1307,-244.5 1243,-244.5 1243,-225.5 1307,-225.5 1307,-244.5"/>
<text text-anchor="middle" x="1275" y="-232.5" font-family="Helvetica,sans-Serif" font-size="10.00">algorithm</text>
</a>
</g>
</g>
<!-- Node1&#45;&gt;Node21 -->
<g id="edge44_Node000001_Node000021" class="edge">
<title>Node1&#45;&gt;Node21</title>
<g id="a_edge44_Node000001_Node000021"><a xlink:title=" ">
<path fill="none" stroke="#63b8ff" d="M1167.28,-285.95C1191.17,-274.88 1224.2,-259.56 1247.36,-248.82"/>
<polygon fill="#63b8ff" stroke="#63b8ff" points="1249.04,-251.9 1256.63,-244.52 1246.09,-245.55 1249.04,-251.9"/>
</a>
</g>
</g>
<!-- Node3 -->
<g id="Node000003" class="node">
<title>Node3</title>
<g id="a_Node000003"><a xlink:href="../../da/dcc/DeviceManager_8h.html" target="_top" xlink:title=" ">
<polygon fill="white" stroke="#666666" points="692,-129 558,-129 558,-110 692,-110 692,-129"/>
<text text-anchor="middle" x="625" y="-117" font-family="Helvetica,sans-Serif" font-size="10.00">../core/DeviceManager.h</text>
</a>
</g>
</g>
<!-- Node2&#45;&gt;Node3 -->
<g id="edge2_Node000002_Node000003" class="edge">
<title>Node2&#45;&gt;Node3</title>
<g id="a_edge2_Node000002_Node000003"><a xlink:title=" ">
<path fill="none" stroke="#63b8ff" d="M827.21,-219.85C782.12,-197.7 695.49,-155.13 651.71,-133.63"/>
<polygon fill="#63b8ff" stroke="#63b8ff" points="653.07,-130.39 642.55,-129.12 649.98,-136.68 653.07,-130.39"/>
</a>
</g>
</g>
<!-- Node6 -->
<g id="Node000006" class="node">
<title>Node6</title>
<g id="a_Node000006"><a xlink:title=" ">
<polygon fill="#e0e0e0" stroke="#999999" points="656,-19 598,-19 598,0 656,0 656,-19"/>
<text text-anchor="middle" x="627" y="-7" font-family="Helvetica,sans-Serif" font-size="10.00">memory</text>
</a>
</g>
</g>
<!-- Node2&#45;&gt;Node6 -->
<g id="edge41_Node000002_Node000006" class="edge">
<title>Node2&#45;&gt;Node6</title>
<g id="a_edge41_Node000002_Node000006"><a xlink:title=" ">
<path fill="none" stroke="#63b8ff" d="M882.76,-219.86C911.92,-202.76 956.95,-170.97 976,-129 991.63,-94.56 966.6,-74.16 934,-55 889.36,-28.77 738.57,-16.84 666.28,-12.52"/>
<polygon fill="#63b8ff" stroke="#63b8ff" points="666.39,-9.02 656.21,-11.94 665.99,-16.01 666.39,-9.02"/>
</a>
</g>
</g>
<!-- Node2&#45;&gt;Node7 -->
<g id="edge35_Node000002_Node000007" class="edge">
<title>Node2&#45;&gt;Node7</title>
<g id="a_edge35_Node000002_Node000007"><a xlink:title=" ">
<path fill="none" stroke="#63b8ff" d="M793.23,-232.75C634.24,-228.42 220.73,-209.49 114,-129 82.91,-105.55 76.76,-56.38 75.85,-29.33"/>
<polygon fill="#63b8ff" stroke="#63b8ff" points="79.34,-29.18 75.72,-19.23 72.34,-29.27 79.34,-29.18"/>
</a>
</g>
</g>
<!-- Node9 -->
<g id="Node000009" class="node">
<title>Node9</title>
<g id="a_Node000009"><a xlink:title=" ">
<polygon fill="#e0e0e0" stroke="#999999" points="924.5,-74 877.5,-74 877.5,-55 924.5,-55 924.5,-74"/>
<text text-anchor="middle" x="901" y="-62" font-family="Helvetica,sans-Serif" font-size="10.00">vector</text>
</a>
</g>
</g>
<!-- Node2&#45;&gt;Node9 -->
<g id="edge42_Node000002_Node000009" class="edge">
<title>Node2&#45;&gt;Node9</title>
<g id="a_edge42_Node000002_Node000009"><a xlink:title=" ">
<path fill="none" stroke="#63b8ff" d="M918.74,-228.64C977.81,-222.15 1060.1,-208.84 1080,-184 1100.57,-158.34 1100.26,-135.91 1080,-110 1062.31,-87.37 981.48,-74.6 934.71,-68.99"/>
<polygon fill="#63b8ff" stroke="#63b8ff" points="935.06,-65.5 924.73,-67.84 934.26,-72.46 935.06,-65.5"/>
</a>
</g>
</g>
<!-- Node10 -->
<g id="Node000010" class="node">
<title>Node10</title>
<g id="a_Node000010"><a xlink:title=" ">
<polygon fill="#e0e0e0" stroke="#999999" points="424,-74 376,-74 376,-55 424,-55 424,-74"/>
<text text-anchor="middle" x="400" y="-62" font-family="Helvetica,sans-Serif" font-size="10.00">mutex</text>
</a>
</g>
</g>
<!-- Node2&#45;&gt;Node10 -->
<g id="edge39_Node000002_Node000010" class="edge">
<title>Node2&#45;&gt;Node10</title>
<g id="a_edge39_Node000002_Node000010"><a xlink:title=" ">
<path fill="none" stroke="#63b8ff" d="M793.1,-232.03C668.93,-227.51 401.85,-214.33 374,-184 351.75,-159.77 364.14,-141.68 373,-110 375.76,-100.12 381.39,-90.25 386.79,-82.32"/>
<polygon fill="#63b8ff" stroke="#63b8ff" points="389.78,-84.17 392.85,-74.03 384.13,-80.04 389.78,-84.17"/>
</a>
</g>
</g>
<!-- Node11 -->
<g id="Node000011" class="node">
<title>Node11</title>
<g id="a_Node000011"><a xlink:href="../../dd/d6c/NetworkManager_8h.html" target="_top" xlink:title=" ">
<polygon fill="white" stroke="#666666" points="544.5,-184 383.5,-184 383.5,-165 544.5,-165 544.5,-184"/>
<text text-anchor="middle" x="464" y="-172" font-family="Helvetica,sans-Serif" font-size="10.00">../network/NetworkManager.h</text>
</a>
</g>
</g>
<!-- Node2&#45;&gt;Node11 -->
<g id="edge12_Node000002_Node000011" class="edge">
<title>Node2&#45;&gt;Node11</title>
<g id="a_edge12_Node000002_Node000011"><a xlink:title=" ">
<path fill="none" stroke="#63b8ff" d="M793.45,-224.67C721.82,-213.98 604.88,-196.52 531.31,-185.54"/>
<polygon fill="#63b8ff" stroke="#63b8ff" points="531.63,-182.05 521.22,-184.04 530.6,-188.98 531.63,-182.05"/>
</a>
</g>
</g>
<!-- Node14 -->
<g id="Node000014" class="node">
<title>Node14</title>
<g id="a_Node000014"><a xlink:title=" ">
<polygon fill="#e0e0e0" stroke="#999999" points="539.5,-129 492.5,-129 492.5,-110 539.5,-110 539.5,-129"/>
<text text-anchor="middle" x="516" y="-117" font-family="Helvetica,sans-Serif" font-size="10.00">queue</text>
</a>
</g>
</g>
<!-- Node2&#45;&gt;Node14 -->
<g id="edge38_Node000002_Node000014" class="edge">
<title>Node2&#45;&gt;Node14</title>
<g id="a_edge38_Node000002_Node000014"><a xlink:title=" ">
<path fill="none" stroke="#63b8ff" d="M813.97,-219.97C745.64,-197.16 611.84,-152.49 549.48,-131.68"/>
<polygon fill="#63b8ff" stroke="#63b8ff" points="550.34,-128.28 539.75,-128.43 548.13,-134.92 550.34,-128.28"/>
</a>
</g>
</g>
<!-- Node2&#45;&gt;Node16 -->
<g id="edge36_Node000002_Node000016" class="edge">
<title>Node2&#45;&gt;Node16</title>
<g id="a_edge36_Node000002_Node000016"><a xlink:title=" ">
<path fill="none" stroke="#63b8ff" d="M885.78,-219.79C905.23,-210.23 931,-197.04 953,-184 979.21,-168.47 1008.06,-148.52 1026.8,-135.17"/>
<polygon fill="#63b8ff" stroke="#63b8ff" points="1029.05,-137.86 1035.13,-129.19 1024.96,-132.18 1029.05,-137.86"/>
</a>
</g>
</g>
<!-- Node17 -->
<g id="Node000017" class="node">
<title>Node17</title>
<g id="a_Node000017"><a xlink:title=" ">
<polygon fill="#e0e0e0" stroke="#999999" points="817.5,-129 710.5,-129 710.5,-110 817.5,-110 817.5,-129"/>
<text text-anchor="middle" x="764" y="-117" font-family="Helvetica,sans-Serif" font-size="10.00">condition_variable</text>
</a>
</g>
</g>
<!-- Node2&#45;&gt;Node17 -->
<g id="edge40_Node000002_Node000017" class="edge">
<title>Node2&#45;&gt;Node17</title>
<g id="a_edge40_Node000002_Node000017"><a xlink:title=" ">
<path fill="none" stroke="#63b8ff" d="M844.35,-219.63C827.27,-198.56 795.53,-159.4 777.48,-137.13"/>
<polygon fill="#63b8ff" stroke="#63b8ff" points="780.09,-134.79 771.08,-129.23 774.65,-139.2 780.09,-134.79"/>
</a>
</g>
</g>
<!-- Node18 -->
<g id="Node000018" class="node">
<title>Node18</title>
<g id="a_Node000018"><a xlink:href="../../d4/d29/ConfigManager_8h.html" target="_top" xlink:title=" ">
<polygon fill="white" stroke="#666666" points="966.5,-129 835.5,-129 835.5,-110 966.5,-110 966.5,-129"/>
<text text-anchor="middle" x="901" y="-117" font-family="Helvetica,sans-Serif" font-size="10.00">../utils/ConfigManager.h</text>
</a>
</g>
</g>
<!-- Node2&#45;&gt;Node18 -->
<g id="edge31_Node000002_Node000018" class="edge">
<title>Node2&#45;&gt;Node18</title>
<g id="a_edge31_Node000002_Node000018"><a xlink:title=" ">
<path fill="none" stroke="#63b8ff" d="M861.7,-219.63C869.87,-199.03 884.89,-161.12 893.81,-138.63"/>
<polygon fill="#63b8ff" stroke="#63b8ff" points="897.11,-139.82 897.54,-129.23 890.6,-137.24 897.11,-139.82"/>
</a>
</g>
</g>
<!-- Node19 -->
<g id="Node000019" class="node">
<title>Node19</title>
<g id="a_Node000019"><a xlink:title=" ">
<polygon fill="#e0e0e0" stroke="#999999" points="1070.5,-184 1005.5,-184 1005.5,-165 1070.5,-165 1070.5,-184"/>
<text text-anchor="middle" x="1038" y="-172" font-family="Helvetica,sans-Serif" font-size="10.00">functional</text>
</a>
</g>
</g>
<!-- Node2&#45;&gt;Node19 -->
<g id="edge37_Node000002_Node000019" class="edge">
<title>Node2&#45;&gt;Node19</title>
<g id="a_edge37_Node000002_Node000019"><a xlink:title=" ">
<path fill="none" stroke="#63b8ff" d="M899.59,-219.99C930.73,-209.98 972.14,-196.67 1001.53,-187.22"/>
<polygon fill="#63b8ff" stroke="#63b8ff" points="1002.94,-190.45 1011.39,-184.05 1000.8,-183.78 1002.94,-190.45"/>
</a>
</g>
</g>
<!-- Node4 -->
<g id="Node000004" class="node">
<title>Node4</title>
<g id="a_Node000004"><a xlink:href="../../de/daa/IoTDevice_8h.html" target="_top" xlink:title=" ">
<polygon fill="white" stroke="#666666" points="630,-74 556,-74 556,-55 630,-55 630,-74"/>
<text text-anchor="middle" x="593" y="-62" font-family="Helvetica,sans-Serif" font-size="10.00">IoTDevice.h</text>
</a>
</g>
</g>
<!-- Node3&#45;&gt;Node4 -->
<g id="edge3_Node000003_Node000004" class="edge">
<title>Node3&#45;&gt;Node4</title>
<g id="a_edge3_Node000003_Node000004"><a xlink:title=" ">
<path fill="none" stroke="#63b8ff" d="M619.72,-109.75C615.29,-102.42 608.84,-91.73 603.38,-82.7"/>
<polygon fill="#63b8ff" stroke="#63b8ff" points="606.35,-80.84 598.19,-74.09 600.36,-84.46 606.35,-80.84"/>
</a>
</g>
</g>
<!-- Node5 -->
<g id="Node000005" class="node">
<title>Node5</title>
<g id="a_Node000005"><a xlink:title=" ">
<polygon fill="#e0e0e0" stroke="#999999" points="550,-19 506,-19 506,0 550,0 550,-19"/>
<text text-anchor="middle" x="528" y="-7" font-family="Helvetica,sans-Serif" font-size="10.00">string</text>
</a>
</g>
</g>
<!-- Node3&#45;&gt;Node5 -->
<g id="edge10_Node000003_Node000005" class="edge">
<title>Node3&#45;&gt;Node5</title>
<g id="a_edge10_Node000003_Node000005"><a xlink:title=" ">
<path fill="none" stroke="#63b8ff" d="M599.83,-109.89C582.63,-102.79 560.58,-91.09 547,-74 536.82,-61.19 532.09,-43.02 529.89,-29.4"/>
<polygon fill="#63b8ff" stroke="#63b8ff" points="533.33,-28.71 528.58,-19.24 526.39,-29.61 533.33,-28.71"/>
</a>
</g>
</g>
<!-- Node3&#45;&gt;Node6 -->
<g id="edge9_Node000003_Node000006" class="edge">
<title>Node3&#45;&gt;Node6</title>
<g id="a_edge9_Node000003_Node000006"><a xlink:title=" ">
<path fill="none" stroke="#63b8ff" d="M628.6,-109.82C632.06,-100.99 637.03,-86.81 639,-74 641.34,-58.73 637.7,-41.52 633.82,-28.87"/>
<polygon fill="#63b8ff" stroke="#63b8ff" points="637.03,-27.44 630.51,-19.1 630.41,-29.69 637.03,-27.44"/>
</a>
</g>
</g>
<!-- Node8 -->
<g id="Node000008" class="node">
<title>Node8</title>
<g id="a_Node000008"><a xlink:title=" ">
<polygon fill="#e0e0e0" stroke="#999999" points="291,-19 253,-19 253,0 291,0 291,-19"/>
<text text-anchor="middle" x="272" y="-7" font-family="Helvetica,sans-Serif" font-size="10.00">map</text>
</a>
</g>
</g>
<!-- Node3&#45;&gt;Node8 -->
<g id="edge7_Node000003_Node000008" class="edge">
<title>Node3&#45;&gt;Node8</title>
<g id="a_edge7_Node000003_Node000008"><a xlink:title=" ">
<path fill="none" stroke="#63b8ff" d="M592.06,-109.94C561.6,-101.73 515.26,-88.47 476,-74 456.4,-66.77 452.68,-62.02 433,-55 387.65,-38.81 333.41,-24.9 300.88,-17.13"/>
<polygon fill="#63b8ff" stroke="#63b8ff" points="301.65,-13.72 291.12,-14.82 300.05,-20.53 301.65,-13.72"/>
</a>
</g>
</g>
<!-- Node3&#45;&gt;Node9 -->
<g id="edge8_Node000003_Node000009" class="edge">
<title>Node3&#45;&gt;Node9</title>
<g id="a_edge8_Node000003_Node000009"><a xlink:title=" ">
<path fill="none" stroke="#63b8ff" d="M669.34,-109.98C724.54,-99.39 817.59,-81.52 867.3,-71.97"/>
<polygon fill="#63b8ff" stroke="#63b8ff" points="868.06,-75.39 877.22,-70.07 866.74,-68.51 868.06,-75.39"/>
</a>
</g>
</g>
<!-- Node3&#45;&gt;Node10 -->
<g id="edge11_Node000003_Node000010" class="edge">
<title>Node3&#45;&gt;Node10</title>
<g id="a_edge11_Node000003_Node000010"><a xlink:title=" ">
<path fill="none" stroke="#63b8ff" d="M588.85,-109.98C546.25,-99.95 475.99,-83.4 434.24,-73.57"/>
<polygon fill="#63b8ff" stroke="#63b8ff" points="434.81,-70.1 424.27,-71.22 433.2,-76.92 434.81,-70.1"/>
</a>
</g>
</g>
<!-- Node4&#45;&gt;Node5 -->
<g id="edge4_Node000004_Node000005" class="edge">
<title>Node4&#45;&gt;Node5</title>
<g id="a_edge4_Node000004_Node000005"><a xlink:title=" ">
<path fill="none" stroke="#63b8ff" d="M582.56,-54.98C572.85,-47.07 558.18,-35.11 546.5,-25.58"/>
<polygon fill="#63b8ff" stroke="#63b8ff" points="548.6,-22.78 538.63,-19.17 544.17,-28.2 548.6,-22.78"/>
</a>
</g>
</g>
<!-- Node4&#45;&gt;Node6 -->
<g id="edge5_Node000004_Node000006" class="edge">
<title>Node4&#45;&gt;Node6</title>
<g id="a_edge5_Node000004_Node000006"><a xlink:title=" ">
<path fill="none" stroke="#63b8ff" d="M598.61,-54.75C603.32,-47.42 610.17,-36.73 615.97,-27.7"/>
<polygon fill="#63b8ff" stroke="#63b8ff" points="619.04,-29.4 621.49,-19.09 613.14,-25.62 619.04,-29.4"/>
</a>
</g>
</g>
<!-- Node4&#45;&gt;Node7 -->
<g id="edge6_Node000004_Node000007" class="edge">
<title>Node4&#45;&gt;Node7</title>
<g id="a_edge6_Node000004_Node000007"><a xlink:title=" ">
<path fill="none" stroke="#63b8ff" d="M555.82,-59.69C459.84,-49.85 204.76,-23.7 111.12,-14.1"/>
<polygon fill="#63b8ff" stroke="#63b8ff" points="111.33,-10.6 101.03,-13.07 110.62,-17.57 111.33,-10.6"/>
</a>
</g>
</g>
<!-- Node11&#45;&gt;Node3 -->
<g id="edge17_Node000011_Node000003" class="edge">
<title>Node11&#45;&gt;Node3</title>
<g id="a_edge17_Node000011_Node000003"><a xlink:title=" ">
<path fill="none" stroke="#63b8ff" d="M489.87,-164.98C516.78,-156.13 559.12,-142.19 589.23,-132.28"/>
<polygon fill="#63b8ff" stroke="#63b8ff" points="590.53,-135.53 598.93,-129.08 588.34,-128.88 590.53,-135.53"/>
</a>
</g>
</g>
<!-- Node11&#45;&gt;Node7 -->
<g id="edge29_Node000011_Node000007" class="edge">
<title>Node11&#45;&gt;Node7</title>
<g id="a_edge29_Node000011_Node000007"><a xlink:title=" ">
<path fill="none" stroke="#63b8ff" d="M383.39,-171.03C299.34,-167 174.57,-156.45 136,-129 102.13,-104.9 86.21,-55.99 79.76,-29.16"/>
<polygon fill="#63b8ff" stroke="#63b8ff" points="83.12,-28.15 77.54,-19.14 76.28,-29.66 83.12,-28.15"/>
</a>
</g>
</g>
<!-- Node11&#45;&gt;Node8 -->
<g id="edge30_Node000011_Node000008" class="edge">
<title>Node11&#45;&gt;Node8</title>
<g id="a_edge30_Node000011_Node000008"><a xlink:title=" ">
<path fill="none" stroke="#63b8ff" d="M383.41,-169.78C306.27,-164.79 196.66,-153.53 162,-129 133.17,-108.59 112.18,-83.53 133,-55 158.03,-20.71 209.84,-12.24 242.65,-10.48"/>
<polygon fill="#63b8ff" stroke="#63b8ff" points="243.12,-13.97 252.99,-10.12 242.87,-6.97 243.12,-13.97"/>
</a>
</g>
</g>
<!-- Node11&#45;&gt;Node10 -->
<g id="edge25_Node000011_Node000010" class="edge">
<title>Node11&#45;&gt;Node10</title>
<g id="a_edge25_Node000011_Node000010"><a xlink:title=" ">
<path fill="none" stroke="#63b8ff" d="M462.79,-164.73C460.73,-151.94 455.66,-127.76 445,-110 438.33,-98.89 428.26,-88.58 419.33,-80.68"/>
<polygon fill="#63b8ff" stroke="#63b8ff" points="421.49,-77.92 411.59,-74.16 416.98,-83.28 421.49,-77.92"/>
</a>
</g>
</g>
<!-- Node12 -->
<g id="Node000012" class="node">
<title>Node12</title>
<g id="a_Node000012"><a xlink:href="../../d5/dca/Message_8h.html" target="_top" xlink:title=" ">
<polygon fill="white" stroke="#666666" points="244,-74 142,-74 142,-55 244,-55 244,-74"/>
<text text-anchor="middle" x="193" y="-62" font-family="Helvetica,sans-Serif" font-size="10.00">../core/Message.h</text>
</a>
</g>
</g>
<!-- Node11&#45;&gt;Node12 -->
<g id="edge13_Node000011_Node000012" class="edge">
<title>Node11&#45;&gt;Node12</title>
<g id="a_edge13_Node000011_Node000012"><a xlink:title=" ">
<path fill="none" stroke="#63b8ff" d="M383.33,-172.61C306.25,-169.85 197.92,-160.31 171,-129 159.65,-115.79 169.02,-96.39 178.8,-82.51"/>
<polygon fill="#63b8ff" stroke="#63b8ff" points="181.78,-84.38 185.08,-74.31 176.22,-80.13 181.78,-84.38"/>
</a>
</g>
</g>
<!-- Node13 -->
<g id="Node000013" class="node">
<title>Node13</title>
<g id="a_Node000013"><a xlink:href="../../d1/de8/IPSecManager_8h.html" target="_top" xlink:title=" ">
<polygon fill="white" stroke="#666666" points="325.5,-129 180.5,-129 180.5,-110 325.5,-110 325.5,-129"/>
<text text-anchor="middle" x="253" y="-117" font-family="Helvetica,sans-Serif" font-size="10.00">../security/IPSecManager.h</text>
</a>
</g>
</g>
<!-- Node11&#45;&gt;Node13 -->
<g id="edge18_Node000011_Node000013" class="edge">
<title>Node11&#45;&gt;Node13</title>
<g id="a_edge18_Node000011_Node000013"><a xlink:title=" ">
<path fill="none" stroke="#63b8ff" d="M430.1,-164.98C393.98,-155.91 336.68,-141.52 297.08,-131.57"/>
<polygon fill="#63b8ff" stroke="#63b8ff" points="297.72,-128.12 287.17,-129.08 296.01,-134.91 297.72,-128.12"/>
</a>
</g>
</g>
<!-- Node11&#45;&gt;Node14 -->
<g id="edge24_Node000011_Node000014" class="edge">
<title>Node11&#45;&gt;Node14</title>
<g id="a_edge24_Node000011_Node000014"><a xlink:title=" ">
<path fill="none" stroke="#63b8ff" d="M472.59,-164.75C480.16,-157.03 491.38,-145.6 500.51,-136.28"/>
<polygon fill="#63b8ff" stroke="#63b8ff" points="503.07,-138.68 507.57,-129.09 498.07,-133.78 503.07,-138.68"/>
</a>
</g>
</g>
<!-- Node15 -->
<g id="Node000015" class="node">
<title>Node15</title>
<g id="a_Node000015"><a xlink:title=" ">
<polygon fill="#e0e0e0" stroke="#999999" points="436,-129 382,-129 382,-110 436,-110 436,-129"/>
<text text-anchor="middle" x="409" y="-117" font-family="Helvetica,sans-Serif" font-size="10.00">random</text>
</a>
</g>
</g>
<!-- Node11&#45;&gt;Node15 -->
<g id="edge26_Node000011_Node000015" class="edge">
<title>Node11&#45;&gt;Node15</title>
<g id="a_edge26_Node000011_Node000015"><a xlink:title=" ">
<path fill="none" stroke="#63b8ff" d="M454.92,-164.75C446.91,-157.03 435.04,-145.6 425.38,-136.28"/>
<polygon fill="#63b8ff" stroke="#63b8ff" points="427.54,-133.51 417.91,-129.09 422.69,-138.55 427.54,-133.51"/>
</a>
</g>
</g>
<!-- Node11&#45;&gt;Node16 -->
<g id="edge27_Node000011_Node000016" class="edge">
<title>Node11&#45;&gt;Node16</title>
<g id="a_edge27_Node000011_Node000016"><a xlink:title=" ">
<path fill="none" stroke="#63b8ff" d="M544.77,-167.29C645.73,-159.35 823.79,-144.72 976,-129 987.91,-127.77 1000.93,-126.26 1012.53,-124.86"/>
<polygon fill="#63b8ff" stroke="#63b8ff" points="1013.21,-128.3 1022.71,-123.61 1012.35,-121.35 1013.21,-128.3"/>
</a>
</g>
</g>
<!-- Node11&#45;&gt;Node17 -->
<g id="edge28_Node000011_Node000017" class="edge">
<title>Node11&#45;&gt;Node17</title>
<g id="a_edge28_Node000011_Node000017"><a xlink:title=" ">
<path fill="none" stroke="#63b8ff" d="M512.2,-164.98C564.75,-155.7 648.85,-140.84 705.23,-130.88"/>
<polygon fill="#63b8ff" stroke="#63b8ff" points="706.18,-134.27 715.42,-129.08 704.97,-127.38 706.18,-134.27"/>
</a>
</g>
</g>
<!-- Node12&#45;&gt;Node5 -->
<g id="edge14_Node000012_Node000005" class="edge">
<title>Node12&#45;&gt;Node5</title>
<g id="a_edge14_Node000012_Node000005"><a xlink:title=" ">
<path fill="none" stroke="#63b8ff" d="M244.24,-55.39C314.13,-44.34 437.28,-24.85 495.62,-15.62"/>
<polygon fill="#63b8ff" stroke="#63b8ff" points="496.4,-19.04 505.73,-14.02 495.3,-12.13 496.4,-19.04"/>
</a>
</g>
</g>
<!-- Node12&#45;&gt;Node7 -->
<g id="edge15_Node000012_Node000007" class="edge">
<title>Node12&#45;&gt;Node7</title>
<g id="a_edge15_Node000012_Node000007"><a xlink:title=" ">
<path fill="none" stroke="#63b8ff" d="M174.2,-54.98C155.38,-46.46 126.18,-33.23 104.5,-23.41"/>
<polygon fill="#63b8ff" stroke="#63b8ff" points="105.69,-20.11 95.14,-19.17 102.8,-26.48 105.69,-20.11"/>
</a>
</g>
</g>
<!-- Node12&#45;&gt;Node8 -->
<g id="edge16_Node000012_Node000008" class="edge">
<title>Node12&#45;&gt;Node8</title>
<g id="a_edge16_Node000012_Node000008"><a xlink:title=" ">
<path fill="none" stroke="#63b8ff" d="M205.69,-54.98C217.83,-46.84 236.36,-34.41 250.75,-24.76"/>
<polygon fill="#63b8ff" stroke="#63b8ff" points="252.72,-27.65 259.08,-19.17 248.82,-21.84 252.72,-27.65"/>
</a>
</g>
</g>
<!-- Node13&#45;&gt;Node5 -->
<g id="edge19_Node000013_Node000005" class="edge">
<title>Node13&#45;&gt;Node5</title>
<g id="a_edge19_Node000013_Node000005"><a xlink:title=" ">
<path fill="none" stroke="#63b8ff" d="M261.58,-109.62C275.46,-95.77 304.33,-69.16 334,-55 387.28,-29.58 455.84,-18.27 495.56,-13.56"/>
<polygon fill="#63b8ff" stroke="#63b8ff" points="496.18,-17.01 505.73,-12.42 495.4,-10.05 496.18,-17.01"/>
</a>
</g>
</g>
<!-- Node13&#45;&gt;Node6 -->
<g id="edge21_Node000013_Node000006" class="edge">
<title>Node13&#45;&gt;Node6</title>
<g id="a_edge21_Node000013_Node000006"><a xlink:title=" ">
<path fill="none" stroke="#63b8ff" d="M268.88,-109.9C285.25,-101 311.49,-86.66 334,-74 348.75,-65.7 351.08,-60.74 367,-55 406.91,-40.61 525.24,-23.74 587.58,-15.52"/>
<polygon fill="#63b8ff" stroke="#63b8ff" points="588.34,-18.95 597.81,-14.18 587.44,-12.01 588.34,-18.95"/>
</a>
</g>
</g>
<!-- Node13&#45;&gt;Node8 -->
<g id="edge20_Node000013_Node000008" class="edge">
<title>Node13&#45;&gt;Node8</title>
<g id="a_edge20_Node000013_Node000008"><a xlink:title=" ">
<path fill="none" stroke="#63b8ff" d="M254.55,-109.66C257.63,-92.17 264.56,-52.8 268.7,-29.27"/>
<polygon fill="#63b8ff" stroke="#63b8ff" points="272.19,-29.61 270.48,-19.16 265.3,-28.4 272.19,-29.61"/>
</a>
</g>
</g>
<!-- Node13&#45;&gt;Node10 -->
<g id="edge22_Node000013_Node000010" class="edge">
<title>Node13&#45;&gt;Node10</title>
<g id="a_edge22_Node000013_Node000010"><a xlink:title=" ">
<path fill="none" stroke="#63b8ff" d="M276.62,-109.98C300.9,-101.23 338.95,-87.51 366.37,-77.62"/>
<polygon fill="#63b8ff" stroke="#63b8ff" points="367.73,-80.85 375.95,-74.17 365.36,-74.27 367.73,-80.85"/>
</a>
</g>
</g>
<!-- Node13&#45;&gt;Node12 -->
<g id="edge23_Node000013_Node000012" class="edge">
<title>Node13&#45;&gt;Node12</title>
<g id="a_edge23_Node000013_Node000012"><a xlink:title=" ">
<path fill="none" stroke="#63b8ff" d="M243.36,-109.98C234.49,-102.15 221.13,-90.34 210.39,-80.86"/>
<polygon fill="#63b8ff" stroke="#63b8ff" points="212.63,-78.17 202.82,-74.17 207.99,-83.41 212.63,-78.17"/>
</a>
</g>
</g>
<!-- Node18&#45;&gt;Node5 -->
<g id="edge32_Node000018_Node000005" class="edge">
<title>Node18&#45;&gt;Node5</title>
<g id="a_edge32_Node000018_Node000005"><a xlink:title=" ">
<path fill="none" stroke="#63b8ff" d="M871.42,-109.94C802.44,-89.96 631.39,-40.44 560.05,-19.78"/>
<polygon fill="#63b8ff" stroke="#63b8ff" points="560.85,-16.37 550.27,-16.95 558.9,-23.09 560.85,-16.37"/>
</a>
</g>
</g>
<!-- Node18&#45;&gt;Node8 -->
<g id="edge33_Node000018_Node000008" class="edge">
<title>Node18&#45;&gt;Node8</title>
<g id="a_edge33_Node000018_Node000008"><a xlink:title=" ">
<path fill="none" stroke="#63b8ff" d="M835.14,-110.63C740.57,-99.27 574.6,-79.08 547,-74 511.91,-67.54 503.74,-63.15 469,-55 409.4,-41.01 339.47,-25.41 301.02,-16.9"/>
<polygon fill="#63b8ff" stroke="#63b8ff" points="301.56,-13.43 291.04,-14.69 300.05,-20.27 301.56,-13.43"/>
</a>
</g>
</g>
<!-- Node18&#45;&gt;Node9 -->
<g id="edge34_Node000018_Node000009" class="edge">
<title>Node18&#45;&gt;Node9</title>
<g id="a_edge34_Node000018_Node000009"><a xlink:title=" ">
<path fill="none" stroke="#63b8ff" d="M901,-109.75C901,-102.8 901,-92.85 901,-84.13"/>
<polygon fill="#63b8ff" stroke="#63b8ff" points="904.5,-84.09 901,-74.09 897.5,-84.09 904.5,-84.09"/>
</a>
</g>
</g>
</g>
</svg>
