<?xml version="1.0" encoding="UTF-8" standalone="no"?>
<!DOCTYPE svg PUBLIC "-//W3C//DTD SVG 1.1//EN"
 "http://www.w3.org/Graphics/SVG/1.1/DTD/svg11.dtd">
<!-- Generated by graphviz version 2.43.0 (0)
 -->
<!-- Title: include/network/NetworkManager.h Pages: 1 -->
<svg width="754pt" height="192pt"
 viewBox="0.00 0.00 754.46 192.00" xmlns="http://www.w3.org/2000/svg" xmlns:xlink="http://www.w3.org/1999/xlink">
<g id="graph0" class="graph" transform="scale(1 1) rotate(0) translate(4 188)">
<title>include/network/NetworkManager.h</title>
<!-- Node1 -->
<g id="Node000001" class="node">
<title>Node1</title>
<g id="a_Node000001"><a xlink:title=" ">
<polygon fill="#999999" stroke="#666666" points="396.96,-184 206.96,-184 206.96,-165 396.96,-165 396.96,-184"/>
<text text-anchor="middle" x="301.96" y="-172" font-family="Helvetica,sans-Serif" font-size="10.00">include/network/NetworkManager.h</text>
</a>
</g>
</g>
<!-- Node2 -->
<g id="Node000002" class="node">
<title>Node2</title>
<g id="a_Node000002"><a xlink:href="../../d5/dca/Message_8h.html" target="_top" xlink:title=" ">
<polygon fill="white" stroke="#666666" points="125.96,-74 23.96,-74 23.96,-55 125.96,-55 125.96,-74"/>
<text text-anchor="middle" x="74.96" y="-62" font-family="Helvetica,sans-Serif" font-size="10.00">../core/Message.h</text>
</a>
</g>
</g>
<!-- Node1&#45;&gt;Node2 -->
<g id="edge1_Node000001_Node000002" class="edge">
<title>Node1&#45;&gt;Node2</title>
<g id="a_edge1_Node000001_Node000002"><a xlink:title=" ">
<path fill="none" stroke="#63b8ff" d="M206.95,-167.05C151.92,-161.11 90.18,-149.9 72.96,-129 62.77,-116.64 64.78,-97.88 68.43,-83.95"/>
<polygon fill="#63b8ff" stroke="#63b8ff" points="71.89,-84.62 71.51,-74.03 65.2,-82.54 71.89,-84.62"/>
</a>
</g>
</g>
<!-- Node4 -->
<g id="Node000004" class="node">
<title>Node4</title>
<g id="a_Node000004"><a xlink:title=" ">
<polygon fill="#e0e0e0" stroke="#999999" points="99.96,-19 49.96,-19 49.96,0 99.96,0 99.96,-19"/>
<text text-anchor="middle" x="74.96" y="-7" font-family="Helvetica,sans-Serif" font-size="10.00">chrono</text>
</a>
</g>
</g>
<!-- Node1&#45;&gt;Node4 -->
<g id="edge26_Node000001_Node000004" class="edge">
<title>Node1&#45;&gt;Node4</title>
<g id="a_edge26_Node000001_Node000004"><a xlink:title=" ">
<path fill="none" stroke="#63b8ff" d="M206.75,-167.78C139.53,-161.95 56.83,-150.56 29.96,-129 3.19,-107.53 -8.26,-85.24 7.96,-55 15.46,-41 29.53,-30.66 42.84,-23.48"/>
<polygon fill="#63b8ff" stroke="#63b8ff" points="44.44,-26.6 51.84,-19.02 41.33,-20.33 44.44,-26.6"/>
</a>
</g>
</g>
<!-- Node5 -->
<g id="Node000005" class="node">
<title>Node5</title>
<g id="a_Node000005"><a xlink:title=" ">
<polygon fill="#e0e0e0" stroke="#999999" points="164.96,-19 126.96,-19 126.96,0 164.96,0 164.96,-19"/>
<text text-anchor="middle" x="145.96" y="-7" font-family="Helvetica,sans-Serif" font-size="10.00">map</text>
</a>
</g>
</g>
<!-- Node1&#45;&gt;Node5 -->
<g id="edge27_Node000001_Node000005" class="edge">
<title>Node1&#45;&gt;Node5</title>
<g id="a_edge27_Node000001_Node000005"><a xlink:title=" ">
<path fill="none" stroke="#63b8ff" d="M206.92,-170.9C160.29,-166.03 104.86,-154.63 60.96,-129 33.44,-112.93 25.83,-103.95 14.96,-74 12.07,-66.06 10.04,-61.86 14.96,-55 21.09,-46.43 80.38,-28.7 117.06,-18.39"/>
<polygon fill="#63b8ff" stroke="#63b8ff" points="118.05,-21.75 126.75,-15.7 116.17,-15.01 118.05,-21.75"/>
</a>
</g>
</g>
<!-- Node6 -->
<g id="Node000006" class="node">
<title>Node6</title>
<g id="a_Node000006"><a xlink:href="../../da/dcc/DeviceManager_8h.html" target="_top" xlink:title=" ">
<polygon fill="white" stroke="#666666" points="416.96,-129 282.96,-129 282.96,-110 416.96,-110 416.96,-129"/>
<text text-anchor="middle" x="349.96" y="-117" font-family="Helvetica,sans-Serif" font-size="10.00">../core/DeviceManager.h</text>
</a>
</g>
</g>
<!-- Node1&#45;&gt;Node6 -->
<g id="edge5_Node000001_Node000006" class="edge">
<title>Node1&#45;&gt;Node6</title>
<g id="a_edge5_Node000001_Node000006"><a xlink:title=" ">
<path fill="none" stroke="#63b8ff" d="M309.88,-164.75C316.8,-157.11 327.02,-145.82 335.41,-136.56"/>
<polygon fill="#63b8ff" stroke="#63b8ff" points="338.06,-138.85 342.18,-129.09 332.87,-134.15 338.06,-138.85"/>
</a>
</g>
</g>
<!-- Node10 -->
<g id="Node000010" class="node">
<title>Node10</title>
<g id="a_Node000010"><a xlink:title=" ">
<polygon fill="#e0e0e0" stroke="#999999" points="267.96,-74 219.96,-74 219.96,-55 267.96,-55 267.96,-74"/>
<text text-anchor="middle" x="243.96" y="-62" font-family="Helvetica,sans-Serif" font-size="10.00">mutex</text>
</a>
</g>
</g>
<!-- Node1&#45;&gt;Node10 -->
<g id="edge22_Node000001_Node000010" class="edge">
<title>Node1&#45;&gt;Node10</title>
<g id="a_edge22_Node000001_Node000010"><a xlink:title=" ">
<path fill="none" stroke="#63b8ff" d="M296.06,-164.82C290.16,-155.99 280.98,-141.81 273.96,-129 265.72,-113.98 257.49,-96.33 251.74,-83.45"/>
<polygon fill="#63b8ff" stroke="#63b8ff" points="254.94,-82.03 247.71,-74.29 248.53,-84.86 254.94,-82.03"/>
</a>
</g>
</g>
<!-- Node11 -->
<g id="Node000011" class="node">
<title>Node11</title>
<g id="a_Node000011"><a xlink:href="../../d1/de8/IPSecManager_8h.html" target="_top" xlink:title=" ">
<polygon fill="white" stroke="#666666" points="226.46,-129 81.46,-129 81.46,-110 226.46,-110 226.46,-129"/>
<text text-anchor="middle" x="153.96" y="-117" font-family="Helvetica,sans-Serif" font-size="10.00">../security/IPSecManager.h</text>
</a>
</g>
</g>
<!-- Node1&#45;&gt;Node11 -->
<g id="edge15_Node000001_Node000011" class="edge">
<title>Node1&#45;&gt;Node11</title>
<g id="a_edge15_Node000001_Node000011"><a xlink:title=" ">
<path fill="none" stroke="#63b8ff" d="M278.18,-164.98C253.72,-156.23 215.42,-142.51 187.81,-132.62"/>
<polygon fill="#63b8ff" stroke="#63b8ff" points="188.76,-129.25 178.17,-129.17 186.4,-135.84 188.76,-129.25"/>
</a>
</g>
</g>
<!-- Node12 -->
<g id="Node000012" class="node">
<title>Node12</title>
<g id="a_Node000012"><a xlink:title=" ">
<polygon fill="#e0e0e0" stroke="#999999" points="482.46,-129 435.46,-129 435.46,-110 482.46,-110 482.46,-129"/>
<text text-anchor="middle" x="458.96" y="-117" font-family="Helvetica,sans-Serif" font-size="10.00">queue</text>
</a>
</g>
</g>
<!-- Node1&#45;&gt;Node12 -->
<g id="edge21_Node000001_Node000012" class="edge">
<title>Node1&#45;&gt;Node12</title>
<g id="a_edge21_Node000001_Node000012"><a xlink:title=" ">
<path fill="none" stroke="#63b8ff" d="M327.18,-164.98C353.85,-155.98 396.06,-141.73 425.5,-131.79"/>
<polygon fill="#63b8ff" stroke="#63b8ff" points="426.98,-134.99 435.33,-128.47 424.74,-128.36 426.98,-134.99"/>
</a>
</g>
</g>
<!-- Node13 -->
<g id="Node000013" class="node">
<title>Node13</title>
<g id="a_Node000013"><a xlink:title=" ">
<polygon fill="#e0e0e0" stroke="#999999" points="554.96,-129 500.96,-129 500.96,-110 554.96,-110 554.96,-129"/>
<text text-anchor="middle" x="527.96" y="-117" font-family="Helvetica,sans-Serif" font-size="10.00">random</text>
</a>
</g>
</g>
<!-- Node1&#45;&gt;Node13 -->
<g id="edge23_Node000001_Node000013" class="edge">
<title>Node1&#45;&gt;Node13</title>
<g id="a_edge23_Node000001_Node000013"><a xlink:title=" ">
<path fill="none" stroke="#63b8ff" d="M338.38,-164.99C374.62,-156.52 432.07,-143.08 490.98,-129.23"/>
<polygon fill="#63b8ff" stroke="#63b8ff" points="491.9,-132.61 500.83,-126.91 490.29,-125.79 491.9,-132.61"/>
</a>
</g>
</g>
<!-- Node14 -->
<g id="Node000014" class="node">
<title>Node14</title>
<g id="a_Node000014"><a xlink:title=" ">
<polygon fill="#e0e0e0" stroke="#999999" points="620.96,-129 572.96,-129 572.96,-110 620.96,-110 620.96,-129"/>
<text text-anchor="middle" x="596.96" y="-117" font-family="Helvetica,sans-Serif" font-size="10.00">thread</text>
</a>
</g>
</g>
<!-- Node1&#45;&gt;Node14 -->
<g id="edge24_Node000001_Node000014" class="edge">
<title>Node1&#45;&gt;Node14</title>
<g id="a_edge24_Node000001_Node000014"><a xlink:title=" ">
<path fill="none" stroke="#63b8ff" d="M360.5,-165C411.48,-157.26 487.58,-144.94 562.74,-129.11"/>
<polygon fill="#63b8ff" stroke="#63b8ff" points="563.81,-132.46 572.86,-126.96 562.35,-125.61 563.81,-132.46"/>
</a>
</g>
</g>
<!-- Node15 -->
<g id="Node000015" class="node">
<title>Node15</title>
<g id="a_Node000015"><a xlink:title=" ">
<polygon fill="#e0e0e0" stroke="#999999" points="746.46,-129 639.46,-129 639.46,-110 746.46,-110 746.46,-129"/>
<text text-anchor="middle" x="692.96" y="-117" font-family="Helvetica,sans-Serif" font-size="10.00">condition_variable</text>
</a>
</g>
</g>
<!-- Node1&#45;&gt;Node15 -->
<g id="edge25_Node000001_Node000015" class="edge">
<title>Node1&#45;&gt;Node15</title>
<g id="a_edge25_Node000001_Node000015"><a xlink:title=" ">
<path fill="none" stroke="#63b8ff" d="M364.78,-164.98C437.45,-155.13 556.45,-139 629.42,-129.11"/>
<polygon fill="#63b8ff" stroke="#63b8ff" points="629.97,-132.57 639.41,-127.76 629.03,-125.63 629.97,-132.57"/>
</a>
</g>
</g>
<!-- Node3 -->
<g id="Node000003" class="node">
<title>Node3</title>
<g id="a_Node000003"><a xlink:title=" ">
<polygon fill="#e0e0e0" stroke="#999999" points="291.96,-19 247.96,-19 247.96,0 291.96,0 291.96,-19"/>
<text text-anchor="middle" x="269.96" y="-7" font-family="Helvetica,sans-Serif" font-size="10.00">string</text>
</a>
</g>
</g>
<!-- Node2&#45;&gt;Node3 -->
<g id="edge2_Node000002_Node000003" class="edge">
<title>Node2&#45;&gt;Node3</title>
<g id="a_edge2_Node000002_Node000003"><a xlink:title=" ">
<path fill="none" stroke="#63b8ff" d="M106.29,-54.98C142.34,-45.18 201.27,-29.17 237.71,-19.26"/>
<polygon fill="#63b8ff" stroke="#63b8ff" points="239.07,-22.52 247.8,-16.52 237.23,-15.77 239.07,-22.52"/>
</a>
</g>
</g>
<!-- Node2&#45;&gt;Node4 -->
<g id="edge3_Node000002_Node000004" class="edge">
<title>Node2&#45;&gt;Node4</title>
<g id="a_edge3_Node000002_Node000004"><a xlink:title=" ">
<path fill="none" stroke="#63b8ff" d="M74.96,-54.75C74.96,-47.8 74.96,-37.85 74.96,-29.13"/>
<polygon fill="#63b8ff" stroke="#63b8ff" points="78.46,-29.09 74.96,-19.09 71.46,-29.09 78.46,-29.09"/>
</a>
</g>
</g>
<!-- Node2&#45;&gt;Node5 -->
<g id="edge4_Node000002_Node000005" class="edge">
<title>Node2&#45;&gt;Node5</title>
<g id="a_edge4_Node000002_Node000005"><a xlink:title=" ">
<path fill="none" stroke="#63b8ff" d="M86.36,-54.98C97.06,-47 113.3,-34.88 126.12,-25.31"/>
<polygon fill="#63b8ff" stroke="#63b8ff" points="128.42,-27.96 134.34,-19.17 124.23,-22.35 128.42,-27.96"/>
</a>
</g>
</g>
<!-- Node6&#45;&gt;Node3 -->
<g id="edge13_Node000006_Node000003" class="edge">
<title>Node6&#45;&gt;Node3</title>
<g id="a_edge13_Node000006_Node000003"><a xlink:title=" ">
<path fill="none" stroke="#63b8ff" d="M345.21,-109.98C338.13,-97.5 324.1,-73.71 309.96,-55 302.53,-45.18 293.41,-34.92 285.75,-26.72"/>
<polygon fill="#63b8ff" stroke="#63b8ff" points="288.13,-24.14 278.7,-19.31 283.06,-28.97 288.13,-24.14"/>
</a>
</g>
</g>
<!-- Node6&#45;&gt;Node5 -->
<g id="edge10_Node000006_Node000005" class="edge">
<title>Node6&#45;&gt;Node5</title>
<g id="a_edge10_Node000006_Node000005"><a xlink:title=" ">
<path fill="none" stroke="#63b8ff" d="M342.24,-109.91C329.74,-96.47 303.75,-70.4 276.96,-55 244.27,-36.21 202.42,-23.74 174.93,-16.89"/>
<polygon fill="#63b8ff" stroke="#63b8ff" points="175.69,-13.48 165.15,-14.54 174.06,-20.28 175.69,-13.48"/>
</a>
</g>
</g>
<!-- Node7 -->
<g id="Node000007" class="node">
<title>Node7</title>
<g id="a_Node000007"><a xlink:href="../../de/daa/IoTDevice_8h.html" target="_top" xlink:title=" ">
<polygon fill="white" stroke="#666666" points="435.96,-74 361.96,-74 361.96,-55 435.96,-55 435.96,-74"/>
<text text-anchor="middle" x="398.96" y="-62" font-family="Helvetica,sans-Serif" font-size="10.00">IoTDevice.h</text>
</a>
</g>
</g>
<!-- Node6&#45;&gt;Node7 -->
<g id="edge6_Node000006_Node000007" class="edge">
<title>Node6&#45;&gt;Node7</title>
<g id="a_edge6_Node000006_Node000007"><a xlink:title=" ">
<path fill="none" stroke="#63b8ff" d="M358.05,-109.75C365.11,-102.11 375.54,-90.82 384.1,-81.56"/>
<polygon fill="#63b8ff" stroke="#63b8ff" points="386.8,-83.81 391.01,-74.09 381.66,-79.06 386.8,-83.81"/>
</a>
</g>
</g>
<!-- Node8 -->
<g id="Node000008" class="node">
<title>Node8</title>
<g id="a_Node000008"><a xlink:title=" ">
<polygon fill="#e0e0e0" stroke="#999999" points="492.96,-19 434.96,-19 434.96,0 492.96,0 492.96,-19"/>
<text text-anchor="middle" x="463.96" y="-7" font-family="Helvetica,sans-Serif" font-size="10.00">memory</text>
</a>
</g>
</g>
<!-- Node6&#45;&gt;Node8 -->
<g id="edge12_Node000006_Node000008" class="edge">
<title>Node6&#45;&gt;Node8</title>
<g id="a_edge12_Node000006_Node000008"><a xlink:title=" ">
<path fill="none" stroke="#63b8ff" d="M403.8,-109.99C459.55,-100.63 539.81,-85.41 548.96,-74 566.57,-52.01 532.8,-33.63 502.75,-22.4"/>
<polygon fill="#63b8ff" stroke="#63b8ff" points="503.79,-19.05 493.2,-19 501.45,-25.65 503.79,-19.05"/>
</a>
</g>
</g>
<!-- Node9 -->
<g id="Node000009" class="node">
<title>Node9</title>
<g id="a_Node000009"><a xlink:title=" ">
<polygon fill="#e0e0e0" stroke="#999999" points="539.46,-74 492.46,-74 492.46,-55 539.46,-55 539.46,-74"/>
<text text-anchor="middle" x="515.96" y="-62" font-family="Helvetica,sans-Serif" font-size="10.00">vector</text>
</a>
</g>
</g>
<!-- Node6&#45;&gt;Node9 -->
<g id="edge11_Node000006_Node000009" class="edge">
<title>Node6&#45;&gt;Node9</title>
<g id="a_edge11_Node000006_Node000009"><a xlink:title=" ">
<path fill="none" stroke="#63b8ff" d="M376.63,-109.98C405.49,-100.77 451.56,-86.06 482.75,-76.1"/>
<polygon fill="#63b8ff" stroke="#63b8ff" points="483.85,-79.43 492.31,-73.05 481.72,-72.76 483.85,-79.43"/>
</a>
</g>
</g>
<!-- Node6&#45;&gt;Node10 -->
<g id="edge14_Node000006_Node000010" class="edge">
<title>Node6&#45;&gt;Node10</title>
<g id="a_edge14_Node000006_Node000010"><a xlink:title=" ">
<path fill="none" stroke="#63b8ff" d="M332.92,-109.98C316.03,-101.54 289.89,-88.47 270.31,-78.68"/>
<polygon fill="#63b8ff" stroke="#63b8ff" points="271.81,-75.51 261.3,-74.17 268.67,-81.77 271.81,-75.51"/>
</a>
</g>
</g>
<!-- Node7&#45;&gt;Node3 -->
<g id="edge7_Node000007_Node000003" class="edge">
<title>Node7&#45;&gt;Node3</title>
<g id="a_edge7_Node000007_Node000003"><a xlink:title=" ">
<path fill="none" stroke="#63b8ff" d="M378.23,-54.98C357.2,-46.34 324.41,-32.87 300.42,-23.02"/>
<polygon fill="#63b8ff" stroke="#63b8ff" points="301.64,-19.73 291.06,-19.17 298.98,-26.21 301.64,-19.73"/>
</a>
</g>
</g>
<!-- Node7&#45;&gt;Node4 -->
<g id="edge9_Node000007_Node000004" class="edge">
<title>Node7&#45;&gt;Node4</title>
<g id="a_edge9_Node000007_Node000004"><a xlink:title=" ">
<path fill="none" stroke="#63b8ff" d="M361.61,-58.05C307.7,-50.07 205,-34.49 117.96,-19 115.46,-18.56 112.89,-18.09 110.31,-17.6"/>
<polygon fill="#63b8ff" stroke="#63b8ff" points="110.87,-14.14 100.39,-15.69 109.55,-21.02 110.87,-14.14"/>
</a>
</g>
</g>
<!-- Node7&#45;&gt;Node8 -->
<g id="edge8_Node000007_Node000008" class="edge">
<title>Node7&#45;&gt;Node8</title>
<g id="a_edge8_Node000007_Node000008"><a xlink:title=" ">
<path fill="none" stroke="#63b8ff" d="M409.4,-54.98C419.1,-47.07 433.77,-35.11 445.46,-25.58"/>
<polygon fill="#63b8ff" stroke="#63b8ff" points="447.78,-28.2 453.32,-19.17 443.36,-22.78 447.78,-28.2"/>
</a>
</g>
</g>
<!-- Node11&#45;&gt;Node2 -->
<g id="edge20_Node000011_Node000002" class="edge">
<title>Node11&#45;&gt;Node2</title>
<g id="a_edge20_Node000011_Node000002"><a xlink:title=" ">
<path fill="none" stroke="#63b8ff" d="M141.26,-109.98C129.13,-101.84 110.6,-89.41 96.21,-79.76"/>
<polygon fill="#63b8ff" stroke="#63b8ff" points="98.13,-76.84 87.88,-74.17 94.23,-82.65 98.13,-76.84"/>
</a>
</g>
</g>
<!-- Node11&#45;&gt;Node3 -->
<g id="edge16_Node000011_Node000003" class="edge">
<title>Node11&#45;&gt;Node3</title>
<g id="a_edge16_Node000011_Node000003"><a xlink:title=" ">
<path fill="none" stroke="#63b8ff" d="M160.85,-109.8C171.11,-97.1 191.31,-73.03 210.96,-55 222.85,-44.08 237.32,-33.13 248.95,-24.83"/>
<polygon fill="#63b8ff" stroke="#63b8ff" points="251.02,-27.65 257.2,-19.04 247,-21.92 251.02,-27.65"/>
</a>
</g>
</g>
<!-- Node11&#45;&gt;Node5 -->
<g id="edge17_Node000011_Node000005" class="edge">
<title>Node11&#45;&gt;Node5</title>
<g id="a_edge17_Node000011_Node000005"><a xlink:title=" ">
<path fill="none" stroke="#63b8ff" d="M153.3,-109.66C152.01,-92.17 149.09,-52.8 147.35,-29.27"/>
<polygon fill="#63b8ff" stroke="#63b8ff" points="150.83,-28.87 146.6,-19.16 143.85,-29.39 150.83,-28.87"/>
</a>
</g>
</g>
<!-- Node11&#45;&gt;Node8 -->
<g id="edge18_Node000011_Node000008" class="edge">
<title>Node11&#45;&gt;Node8</title>
<g id="a_edge18_Node000011_Node000008"><a xlink:title=" ">
<path fill="none" stroke="#63b8ff" d="M226.65,-111.45C307.42,-102.98 428.69,-88.15 444.96,-74 457.56,-63.04 461.98,-44.08 463.44,-29.73"/>
<polygon fill="#63b8ff" stroke="#63b8ff" points="466.95,-29.64 464.08,-19.45 459.97,-29.21 466.95,-29.64"/>
</a>
</g>
</g>
<!-- Node11&#45;&gt;Node10 -->
<g id="edge19_Node000011_Node000010" class="edge">
<title>Node11&#45;&gt;Node10</title>
<g id="a_edge19_Node000011_Node000010"><a xlink:title=" ">
<path fill="none" stroke="#63b8ff" d="M168.42,-109.98C182.37,-101.77 203.75,-89.18 220.21,-79.49"/>
<polygon fill="#63b8ff" stroke="#63b8ff" points="222.39,-82.26 229.23,-74.17 218.84,-76.23 222.39,-82.26"/>
</a>
</g>
</g>
</g>
</svg>
