<?xml version="1.0" encoding="UTF-8" standalone="no"?>
<!DOCTYPE svg PUBLIC "-//W3C//DTD SVG 1.1//EN"
 "http://www.w3.org/Graphics/SVG/1.1/DTD/svg11.dtd">
<!-- Generated by graphviz version 2.43.0 (0)
 -->
<!-- Title: iot::ConfigManager::getInt Pages: 1 -->
<svg width="274pt" height="76pt"
 viewBox="0.00 0.00 274.00 75.50" xmlns="http://www.w3.org/2000/svg" xmlns:xlink="http://www.w3.org/1999/xlink">
<g id="graph0" class="graph" transform="scale(1 1) rotate(0) translate(4 71.5)">
<title>iot::ConfigManager::getInt</title>
<!-- Node1 -->
<g id="Node000001" class="node">
<title>Node1</title>
<g id="a_Node000001"><a xlink:title="Get integer value.">
<polygon fill="#999999" stroke="#666666" points="266,-45.5 157,-45.5 157,-15.5 266,-15.5 266,-45.5"/>
<text text-anchor="start" x="165" y="-33.5" font-family="Helvetica,sans-Serif" font-size="10.00">iot::ConfigManager</text>
<text text-anchor="middle" x="211.5" y="-22.5" font-family="Helvetica,sans-Serif" font-size="10.00">::getInt</text>
</a>
</g>
</g>
<!-- Node2 -->
<g id="Node000002" class="node">
<title>Node2</title>
<g id="a_Node000002"><a xlink:href="../../d5/d9e/classiot_1_1SimulationEngine.html#acba0480fe5a8bf6395b2c068cf818ba5" target="_top" xlink:title="Load configuration from file.">
<polygon fill="white" stroke="#666666" points="121,-67.5 0,-67.5 0,-37.5 121,-37.5 121,-67.5"/>
<text text-anchor="start" x="8" y="-55.5" font-family="Helvetica,sans-Serif" font-size="10.00">iot::SimulationEngine</text>
<text text-anchor="middle" x="60.5" y="-44.5" font-family="Helvetica,sans-Serif" font-size="10.00">::loadConfig</text>
</a>
</g>
</g>
<!-- Node1&#45;&gt;Node2 -->
<g id="edge1_Node000001_Node000002" class="edge">
<title>Node1&#45;&gt;Node2</title>
<g id="a_edge1_Node000001_Node000002"><a xlink:title=" ">
<path fill="none" stroke="#63b8ff" d="M146.79,-39.91C138.24,-41.17 129.49,-42.46 121.02,-43.71"/>
<polygon fill="#63b8ff" stroke="#63b8ff" points="147.33,-43.37 156.71,-38.44 146.3,-36.44 147.33,-43.37"/>
</a>
</g>
</g>
<!-- Node3 -->
<g id="Node000003" class="node">
<title>Node3</title>
<g id="a_Node000003"><a xlink:href="../../df/d0a/main_8cpp.html#ae66f6b31b5ad750f1fe042a706a4e3d4" target="_top" xlink:title=" ">
<polygon fill="white" stroke="#666666" points="81,-19 40,-19 40,0 81,0 81,-19"/>
<text text-anchor="middle" x="60.5" y="-7" font-family="Helvetica,sans-Serif" font-size="10.00">main</text>
</a>
</g>
</g>
<!-- Node1&#45;&gt;Node3 -->
<g id="edge2_Node000001_Node000003" class="edge">
<title>Node1&#45;&gt;Node3</title>
<g id="a_edge2_Node000001_Node000003"><a xlink:title=" ">
<path fill="none" stroke="#63b8ff" d="M146.68,-21.51C123.01,-18.17 97.88,-14.63 81.09,-12.26"/>
<polygon fill="#63b8ff" stroke="#63b8ff" points="146.32,-24.99 156.71,-22.92 147.29,-18.06 146.32,-24.99"/>
</a>
</g>
</g>
</g>
</svg>
