<?xml version="1.0" encoding="UTF-8" standalone="no"?>
<!DOCTYPE svg PUBLIC "-//W3C//DTD SVG 1.1//EN"
 "http://www.w3.org/Graphics/SVG/1.1/DTD/svg11.dtd">
<!-- Generated by graphviz version 2.43.0 (0)
 -->
<!-- Title: iot::ConfigManager::set Pages: 1 -->
<svg width="440pt" height="124pt"
 viewBox="0.00 0.00 440.00 123.50" xmlns="http://www.w3.org/2000/svg" xmlns:xlink="http://www.w3.org/1999/xlink">
<g id="graph0" class="graph" transform="scale(1 1) rotate(0) translate(4 119.5)">
<title>iot::ConfigManager::set</title>
<!-- Node1 -->
<g id="Node000001" class="node">
<title>Node1</title>
<g id="a_Node000001"><a xlink:title="Set value.">
<polygon fill="#999999" stroke="#666666" points="432,-62 302,-62 302,-43 432,-43 432,-62"/>
<text text-anchor="middle" x="367" y="-50" font-family="Helvetica,sans-Serif" font-size="10.00">iot::ConfigManager::set</text>
</a>
</g>
</g>
<!-- Node2 -->
<g id="Node000002" class="node">
<title>Node2</title>
<g id="a_Node000002"><a xlink:href="../../df/dd2/classiot_1_1ConfigManager.html#aa28e9a94aa6cb40d3c5c07e757554fe0" target="_top" xlink:title="Constructor.">
<polygon fill="white" stroke="#666666" points="266,-115.5 157,-115.5 157,-85.5 266,-85.5 266,-115.5"/>
<text text-anchor="start" x="165" y="-103.5" font-family="Helvetica,sans-Serif" font-size="10.00">iot::ConfigManager</text>
<text text-anchor="middle" x="211.5" y="-92.5" font-family="Helvetica,sans-Serif" font-size="10.00">::ConfigManager</text>
</a>
</g>
</g>
<!-- Node1&#45;&gt;Node2 -->
<g id="edge1_Node000001_Node000002" class="edge">
<title>Node1&#45;&gt;Node2</title>
<g id="a_edge1_Node000001_Node000002"><a xlink:title=" ">
<path fill="none" stroke="#63b8ff" d="M325.61,-65.13C305.7,-71.36 281.54,-78.91 260.67,-85.44"/>
<polygon fill="#63b8ff" stroke="#63b8ff" points="326.81,-68.42 335.31,-62.1 324.72,-61.74 326.81,-68.42"/>
</a>
</g>
</g>
<!-- Node3 -->
<g id="Node000003" class="node">
<title>Node3</title>
<g id="a_Node000003"><a xlink:href="../../df/dd2/classiot_1_1ConfigManager.html#ab92361fbcf3a16ab27f33edec4ecd075" target="_top" xlink:title="Load configuration from string (simplified)">
<polygon fill="white" stroke="#666666" points="266,-67.5 157,-67.5 157,-37.5 266,-37.5 266,-67.5"/>
<text text-anchor="start" x="165" y="-55.5" font-family="Helvetica,sans-Serif" font-size="10.00">iot::ConfigManager</text>
<text text-anchor="middle" x="211.5" y="-44.5" font-family="Helvetica,sans-Serif" font-size="10.00">::loadFromString</text>
</a>
</g>
</g>
<!-- Node1&#45;&gt;Node3 -->
<g id="edge2_Node000001_Node000003" class="edge">
<title>Node1&#45;&gt;Node3</title>
<g id="a_edge2_Node000001_Node000003"><a xlink:title=" ">
<path fill="none" stroke="#63b8ff" d="M291.74,-52.5C283.14,-52.5 274.49,-52.5 266.24,-52.5"/>
<polygon fill="#63b8ff" stroke="#63b8ff" points="291.79,-56 301.79,-52.5 291.79,-49 291.79,-56"/>
</a>
</g>
</g>
<!-- Node5 -->
<g id="Node000005" class="node">
<title>Node5</title>
<g id="a_Node000005"><a xlink:href="../../df/d0a/main_8cpp.html#ae66f6b31b5ad750f1fe042a706a4e3d4" target="_top" xlink:title=" ">
<polygon fill="white" stroke="#666666" points="81,-19 40,-19 40,0 81,0 81,-19"/>
<text text-anchor="middle" x="60.5" y="-7" font-family="Helvetica,sans-Serif" font-size="10.00">main</text>
</a>
</g>
</g>
<!-- Node1&#45;&gt;Node5 -->
<g id="edge5_Node000001_Node000005" class="edge">
<title>Node1&#45;&gt;Node5</title>
<g id="a_edge5_Node000001_Node000005"><a xlink:title=" ">
<path fill="none" stroke="#63b8ff" d="M321.72,-40.43C304.45,-36.11 284.41,-31.55 266,-28.5 198.64,-17.35 117.62,-12.25 81.07,-10.39"/>
<polygon fill="#63b8ff" stroke="#63b8ff" points="320.98,-43.86 331.54,-42.94 322.72,-37.08 320.98,-43.86"/>
</a>
</g>
</g>
<!-- Node4 -->
<g id="Node000004" class="node">
<title>Node4</title>
<g id="a_Node000004"><a xlink:href="../../d5/d9e/classiot_1_1SimulationEngine.html#acba0480fe5a8bf6395b2c068cf818ba5" target="_top" xlink:title="Load configuration from file.">
<polygon fill="white" stroke="#666666" points="121,-67.5 0,-67.5 0,-37.5 121,-37.5 121,-67.5"/>
<text text-anchor="start" x="8" y="-55.5" font-family="Helvetica,sans-Serif" font-size="10.00">iot::SimulationEngine</text>
<text text-anchor="middle" x="60.5" y="-44.5" font-family="Helvetica,sans-Serif" font-size="10.00">::loadConfig</text>
</a>
</g>
</g>
<!-- Node3&#45;&gt;Node4 -->
<g id="edge3_Node000003_Node000004" class="edge">
<title>Node3&#45;&gt;Node4</title>
<g id="a_edge3_Node000003_Node000004"><a xlink:title=" ">
<path fill="none" stroke="#63b8ff" d="M146.51,-52.5C138.05,-52.5 129.4,-52.5 121.02,-52.5"/>
<polygon fill="#63b8ff" stroke="#63b8ff" points="146.71,-56 156.71,-52.5 146.71,-49 146.71,-56"/>
</a>
</g>
</g>
<!-- Node3&#45;&gt;Node5 -->
<g id="edge4_Node000003_Node000005" class="edge">
<title>Node3&#45;&gt;Node5</title>
<g id="a_edge4_Node000003_Node000005"><a xlink:title=" ">
<path fill="none" stroke="#63b8ff" d="M148.53,-34.62C124.38,-27.65 98.42,-20.15 81.19,-15.18"/>
<polygon fill="#63b8ff" stroke="#63b8ff" points="147.81,-38.05 158.39,-37.46 149.75,-31.33 147.81,-38.05"/>
</a>
</g>
</g>
</g>
</svg>
