<?xml version="1.0" encoding="UTF-8" standalone="no"?>
<!DOCTYPE svg PUBLIC "-//W3C//DTD SVG 1.1//EN"
 "http://www.w3.org/Graphics/SVG/1.1/DTD/svg11.dtd">
<!-- Generated by graphviz version 2.43.0 (0)
 -->
<!-- Title: include/network/ProtocolCharacteristics.h Pages: 1 -->
<svg width="380pt" height="225pt"
 viewBox="0.00 0.00 379.50 225.00" xmlns="http://www.w3.org/2000/svg" xmlns:xlink="http://www.w3.org/1999/xlink">
<g id="graph0" class="graph" transform="scale(1 1) rotate(0) translate(4 221)">
<title>include/network/ProtocolCharacteristics.h</title>
<!-- Node1 -->
<g id="Node000001" class="node">
<title>Node1</title>
<g id="a_Node000001"><a xlink:title=" ">
<polygon fill="#999999" stroke="#666666" points="232,-217 95,-217 95,-187 232,-187 232,-217"/>
<text text-anchor="start" x="103" y="-205" font-family="Helvetica,sans-Serif" font-size="10.00">include/network/Protocol</text>
<text text-anchor="middle" x="163.5" y="-194" font-family="Helvetica,sans-Serif" font-size="10.00">Characteristics.h</text>
</a>
</g>
</g>
<!-- Node2 -->
<g id="Node000002" class="node">
<title>Node2</title>
<g id="a_Node000002"><a xlink:href="../../d2/d1b/ProtocolAwareDevice_8h.html" target="_top" xlink:title=" ">
<polygon fill="white" stroke="#666666" points="135,-151 0,-151 0,-121 135,-121 135,-151"/>
<text text-anchor="start" x="8" y="-139" font-family="Helvetica,sans-Serif" font-size="10.00">include/devices/Protocol</text>
<text text-anchor="middle" x="67.5" y="-128" font-family="Helvetica,sans-Serif" font-size="10.00">AwareDevice.h</text>
</a>
</g>
</g>
<!-- Node1&#45;&gt;Node2 -->
<g id="edge1_Node000001_Node000002" class="edge">
<title>Node1&#45;&gt;Node2</title>
<g id="a_edge1_Node000001_Node000002"><a xlink:title=" ">
<path fill="none" stroke="#63b8ff" d="M133.54,-181.03C119.01,-171.34 101.91,-159.94 88.75,-151.16"/>
<polygon fill="#63b8ff" stroke="#63b8ff" points="131.93,-184.16 142.19,-186.8 135.82,-178.34 131.93,-184.16"/>
</a>
</g>
</g>
<!-- Node4 -->
<g id="Node000004" class="node">
<title>Node4</title>
<g id="a_Node000004"><a xlink:href="../../df/d0a/main_8cpp.html" target="_top" xlink:title=" ">
<polygon fill="white" stroke="#666666" points="155,-19 76,-19 76,0 155,0 155,-19"/>
<text text-anchor="middle" x="115.5" y="-7" font-family="Helvetica,sans-Serif" font-size="10.00">src/main.cpp</text>
</a>
</g>
</g>
<!-- Node1&#45;&gt;Node4 -->
<g id="edge4_Node000001_Node000004" class="edge">
<title>Node1&#45;&gt;Node4</title>
<g id="a_edge4_Node000001_Node000004"><a xlink:title=" ">
<path fill="none" stroke="#63b8ff" d="M163.6,-176.57C163,-146.92 159.56,-95.83 144.5,-55 139.46,-41.33 129.59,-27.58 122.78,-19.06"/>
<polygon fill="#63b8ff" stroke="#63b8ff" points="160.11,-176.86 163.72,-186.82 167.11,-176.78 160.11,-176.86"/>
</a>
</g>
</g>
<!-- Node5 -->
<g id="Node000005" class="node">
<title>Node5</title>
<g id="a_Node000005"><a xlink:href="../../d2/ddd/NetworkManager_8cpp.html" target="_top" xlink:title=" ">
<polygon fill="white" stroke="#666666" points="371.5,-145.5 191.5,-145.5 191.5,-126.5 371.5,-126.5 371.5,-145.5"/>
<text text-anchor="middle" x="281.5" y="-133.5" font-family="Helvetica,sans-Serif" font-size="10.00">src/network/NetworkManager.cpp</text>
</a>
</g>
</g>
<!-- Node1&#45;&gt;Node5 -->
<g id="edge5_Node000001_Node000005" class="edge">
<title>Node1&#45;&gt;Node5</title>
<g id="a_edge5_Node000001_Node000005"><a xlink:title=" ">
<path fill="none" stroke="#63b8ff" d="M198.28,-182.14C220.65,-170 248.65,-154.82 265.8,-145.52"/>
<polygon fill="#63b8ff" stroke="#63b8ff" points="196.52,-179.11 189.4,-186.95 199.85,-185.26 196.52,-179.11"/>
</a>
</g>
</g>
<!-- Node3 -->
<g id="Node000003" class="node">
<title>Node3</title>
<g id="a_Node000003"><a xlink:href="../../dd/da3/ProtocolSensors_8h.html" target="_top" xlink:title=" ">
<polygon fill="white" stroke="#666666" points="135,-85 0,-85 0,-55 135,-55 135,-85"/>
<text text-anchor="start" x="8" y="-73" font-family="Helvetica,sans-Serif" font-size="10.00">include/devices/Protocol</text>
<text text-anchor="middle" x="67.5" y="-62" font-family="Helvetica,sans-Serif" font-size="10.00">Sensors.h</text>
</a>
</g>
</g>
<!-- Node2&#45;&gt;Node3 -->
<g id="edge2_Node000002_Node000003" class="edge">
<title>Node2&#45;&gt;Node3</title>
<g id="a_edge2_Node000002_Node000003"><a xlink:title=" ">
<path fill="none" stroke="#63b8ff" d="M67.5,-110.54C67.5,-101.96 67.5,-92.61 67.5,-85.16"/>
<polygon fill="#63b8ff" stroke="#63b8ff" points="64,-110.8 67.5,-120.8 71,-110.8 64,-110.8"/>
</a>
</g>
</g>
<!-- Node3&#45;&gt;Node4 -->
<g id="edge3_Node000003_Node000004" class="edge">
<title>Node3&#45;&gt;Node4</title>
<g id="a_edge3_Node000003_Node000004"><a xlink:title=" ">
<path fill="none" stroke="#63b8ff" d="M85.48,-47.09C93.41,-37.42 102.28,-26.61 108.31,-19.27"/>
<polygon fill="#63b8ff" stroke="#63b8ff" points="82.76,-44.89 79.12,-54.84 88.17,-49.33 82.76,-44.89"/>
</a>
</g>
</g>
</g>
</svg>
