<?xml version="1.0" encoding="UTF-8" standalone="no"?>
<!DOCTYPE svg PUBLIC "-//W3C//DTD SVG 1.1//EN"
 "http://www.w3.org/Graphics/SVG/1.1/DTD/svg11.dtd">
<!-- Generated by graphviz version 2.43.0 (0)
 -->
<!-- Title: include/network/ProtocolCharacteristics.h Pages: 1 -->
<svg width="753pt" height="258pt"
 viewBox="0.00 0.00 752.62 258.00" xmlns="http://www.w3.org/2000/svg" xmlns:xlink="http://www.w3.org/1999/xlink">
<g id="graph0" class="graph" transform="scale(1 1) rotate(0) translate(4 254)">
<title>include/network/ProtocolCharacteristics.h</title>
<!-- Node1 -->
<g id="Node000001" class="node">
<title>Node1</title>
<g id="a_Node000001"><a xlink:title=" ">
<polygon fill="#999999" stroke="#666666" points="493.12,-250 356.12,-250 356.12,-220 493.12,-220 493.12,-250"/>
<text text-anchor="start" x="364.12" y="-238" font-family="Helvetica,sans-Serif" font-size="10.00">include/network/Protocol</text>
<text text-anchor="middle" x="424.62" y="-227" font-family="Helvetica,sans-Serif" font-size="10.00">Characteristics.h</text>
</a>
</g>
</g>
<!-- Node2 -->
<g id="Node000002" class="node">
<title>Node2</title>
<g id="a_Node000002"><a xlink:href="../../dd/d6c/NetworkManager_8h.html" target="_top" xlink:title=" ">
<polygon fill="white" stroke="#666666" points="321.12,-184 212.12,-184 212.12,-165 321.12,-165 321.12,-184"/>
<text text-anchor="middle" x="266.62" y="-172" font-family="Helvetica,sans-Serif" font-size="10.00">NetworkManager.h</text>
</a>
</g>
</g>
<!-- Node1&#45;&gt;Node2 -->
<g id="edge1_Node000001_Node000002" class="edge">
<title>Node1&#45;&gt;Node2</title>
<g id="a_edge1_Node000001_Node000002"><a xlink:title=" ">
<path fill="none" stroke="#63b8ff" d="M386.78,-219.99C360.18,-210.14 324.95,-197.1 299.52,-187.68"/>
<polygon fill="#63b8ff" stroke="#63b8ff" points="300.55,-184.33 289.95,-184.14 298.12,-190.89 300.55,-184.33"/>
</a>
</g>
</g>
<!-- Node4 -->
<g id="Node000004" class="node">
<title>Node4</title>
<g id="a_Node000004"><a xlink:title=" ">
<polygon fill="#e0e0e0" stroke="#999999" points="491.62,-19 447.62,-19 447.62,0 491.62,0 491.62,-19"/>
<text text-anchor="middle" x="469.62" y="-7" font-family="Helvetica,sans-Serif" font-size="10.00">string</text>
</a>
</g>
</g>
<!-- Node1&#45;&gt;Node4 -->
<g id="edge29_Node000001_Node000004" class="edge">
<title>Node1&#45;&gt;Node4</title>
<g id="a_edge29_Node000001_Node000004"><a xlink:title=" ">
<path fill="none" stroke="#63b8ff" d="M457.63,-219.97C491.31,-203.63 541.65,-173.13 563.62,-129 588.56,-78.91 490.2,-75.84 488.62,-74 477.99,-61.56 473.31,-43.35 471.25,-29.62"/>
<polygon fill="#63b8ff" stroke="#63b8ff" points="474.68,-28.89 470.05,-19.36 467.73,-29.7 474.68,-28.89"/>
</a>
</g>
</g>
<!-- Node3 -->
<g id="Node000003" class="node">
<title>Node3</title>
<g id="a_Node000003"><a xlink:href="../../d5/dca/Message_8h.html" target="_top" xlink:title=" ">
<polygon fill="white" stroke="#666666" points="164.62,-74 62.62,-74 62.62,-55 164.62,-55 164.62,-74"/>
<text text-anchor="middle" x="113.62" y="-62" font-family="Helvetica,sans-Serif" font-size="10.00">../core/Message.h</text>
</a>
</g>
</g>
<!-- Node2&#45;&gt;Node3 -->
<g id="edge2_Node000002_Node000003" class="edge">
<title>Node2&#45;&gt;Node3</title>
<g id="a_edge2_Node000002_Node000003"><a xlink:title=" ">
<path fill="none" stroke="#63b8ff" d="M211.91,-170.92C150.02,-166.72 54.93,-155.96 32.62,-129 15.12,-107.85 47.79,-89.22 76.73,-77.7"/>
<polygon fill="#63b8ff" stroke="#63b8ff" points="78.2,-80.88 86.32,-74.07 75.73,-74.33 78.2,-80.88"/>
</a>
</g>
</g>
<!-- Node5 -->
<g id="Node000005" class="node">
<title>Node5</title>
<g id="a_Node000005"><a xlink:title=" ">
<polygon fill="#e0e0e0" stroke="#999999" points="138.62,-19 88.62,-19 88.62,0 138.62,0 138.62,-19"/>
<text text-anchor="middle" x="113.62" y="-7" font-family="Helvetica,sans-Serif" font-size="10.00">chrono</text>
</a>
</g>
</g>
<!-- Node2&#45;&gt;Node5 -->
<g id="edge27_Node000002_Node000005" class="edge">
<title>Node2&#45;&gt;Node5</title>
<g id="a_edge27_Node000002_Node000005"><a xlink:title=" ">
<path fill="none" stroke="#63b8ff" d="M212.09,-171.37C147.93,-167.59 47.13,-157.21 23.62,-129 -6.9,-92.38 53.33,-46.99 89.35,-24.5"/>
<polygon fill="#63b8ff" stroke="#63b8ff" points="91.61,-27.22 98.34,-19.04 87.97,-21.23 91.61,-27.22"/>
</a>
</g>
</g>
<!-- Node6 -->
<g id="Node000006" class="node">
<title>Node6</title>
<g id="a_Node000006"><a xlink:title=" ">
<polygon fill="#e0e0e0" stroke="#999999" points="62.62,-19 24.62,-19 24.62,0 62.62,0 62.62,-19"/>
<text text-anchor="middle" x="43.62" y="-7" font-family="Helvetica,sans-Serif" font-size="10.00">map</text>
</a>
</g>
</g>
<!-- Node2&#45;&gt;Node6 -->
<g id="edge28_Node000002_Node000006" class="edge">
<title>Node2&#45;&gt;Node6</title>
<g id="a_edge28_Node000002_Node000006"><a xlink:title=" ">
<path fill="none" stroke="#63b8ff" d="M211.84,-171.94C144.44,-168.74 35.81,-158.95 10.62,-129 -14.36,-99.31 12.74,-52.07 30.58,-27.15"/>
<polygon fill="#63b8ff" stroke="#63b8ff" points="33.44,-29.16 36.62,-19.05 27.83,-24.98 33.44,-29.16"/>
</a>
</g>
</g>
<!-- Node7 -->
<g id="Node000007" class="node">
<title>Node7</title>
<g id="a_Node000007"><a xlink:href="../../da/dcc/DeviceManager_8h.html" target="_top" xlink:title=" ">
<polygon fill="white" stroke="#666666" points="744.62,-129 610.62,-129 610.62,-110 744.62,-110 744.62,-129"/>
<text text-anchor="middle" x="677.62" y="-117" font-family="Helvetica,sans-Serif" font-size="10.00">../core/DeviceManager.h</text>
</a>
</g>
</g>
<!-- Node2&#45;&gt;Node7 -->
<g id="edge6_Node000002_Node000007" class="edge">
<title>Node2&#45;&gt;Node7</title>
<g id="a_edge6_Node000002_Node000007"><a xlink:title=" ">
<path fill="none" stroke="#63b8ff" d="M321.2,-166.46C393.13,-157.19 520.04,-140.82 601.41,-130.33"/>
<polygon fill="#63b8ff" stroke="#63b8ff" points="602.12,-133.77 611.59,-129.01 601.22,-126.82 602.12,-133.77"/>
</a>
</g>
</g>
<!-- Node11 -->
<g id="Node000011" class="node">
<title>Node11</title>
<g id="a_Node000011"><a xlink:title=" ">
<polygon fill="#e0e0e0" stroke="#999999" points="268.62,-74 220.62,-74 220.62,-55 268.62,-55 268.62,-74"/>
<text text-anchor="middle" x="244.62" y="-62" font-family="Helvetica,sans-Serif" font-size="10.00">mutex</text>
</a>
</g>
</g>
<!-- Node2&#45;&gt;Node11 -->
<g id="edge23_Node000002_Node000011" class="edge">
<title>Node2&#45;&gt;Node11</title>
<g id="a_edge23_Node000002_Node000011"><a xlink:title=" ">
<path fill="none" stroke="#63b8ff" d="M257.87,-164.9C250.06,-156.56 239.17,-143.13 234.62,-129 229.86,-114.23 233.22,-96.77 237.29,-83.9"/>
<polygon fill="#63b8ff" stroke="#63b8ff" points="240.64,-84.92 240.7,-74.33 234.05,-82.57 240.64,-84.92"/>
</a>
</g>
</g>
<!-- Node12 -->
<g id="Node000012" class="node">
<title>Node12</title>
<g id="a_Node000012"><a xlink:href="../../d1/de8/IPSecManager_8h.html" target="_top" xlink:title=" ">
<polygon fill="white" stroke="#666666" points="186.12,-129 41.12,-129 41.12,-110 186.12,-110 186.12,-129"/>
<text text-anchor="middle" x="113.62" y="-117" font-family="Helvetica,sans-Serif" font-size="10.00">../security/IPSecManager.h</text>
</a>
</g>
</g>
<!-- Node2&#45;&gt;Node12 -->
<g id="edge16_Node000002_Node000012" class="edge">
<title>Node2&#45;&gt;Node12</title>
<g id="a_edge16_Node000002_Node000012"><a xlink:title=" ">
<path fill="none" stroke="#63b8ff" d="M242.04,-164.98C216.57,-156.16 176.58,-142.31 147.99,-132.41"/>
<polygon fill="#63b8ff" stroke="#63b8ff" points="148.99,-129.05 138.39,-129.08 146.7,-135.66 148.99,-129.05"/>
</a>
</g>
</g>
<!-- Node13 -->
<g id="Node000013" class="node">
<title>Node13</title>
<g id="a_Node000013"><a xlink:title=" ">
<polygon fill="#e0e0e0" stroke="#999999" points="290.12,-129 243.12,-129 243.12,-110 290.12,-110 290.12,-129"/>
<text text-anchor="middle" x="266.62" y="-117" font-family="Helvetica,sans-Serif" font-size="10.00">queue</text>
</a>
</g>
</g>
<!-- Node2&#45;&gt;Node13 -->
<g id="edge22_Node000002_Node000013" class="edge">
<title>Node2&#45;&gt;Node13</title>
<g id="a_edge22_Node000002_Node000013"><a xlink:title=" ">
<path fill="none" stroke="#63b8ff" d="M266.62,-164.75C266.62,-157.8 266.62,-147.85 266.62,-139.13"/>
<polygon fill="#63b8ff" stroke="#63b8ff" points="270.12,-139.09 266.62,-129.09 263.12,-139.09 270.12,-139.09"/>
</a>
</g>
</g>
<!-- Node14 -->
<g id="Node000014" class="node">
<title>Node14</title>
<g id="a_Node000014"><a xlink:title=" ">
<polygon fill="#e0e0e0" stroke="#999999" points="362.62,-129 308.62,-129 308.62,-110 362.62,-110 362.62,-129"/>
<text text-anchor="middle" x="335.62" y="-117" font-family="Helvetica,sans-Serif" font-size="10.00">random</text>
</a>
</g>
</g>
<!-- Node2&#45;&gt;Node14 -->
<g id="edge24_Node000002_Node000014" class="edge">
<title>Node2&#45;&gt;Node14</title>
<g id="a_edge24_Node000002_Node000014"><a xlink:title=" ">
<path fill="none" stroke="#63b8ff" d="M277.71,-164.98C288.11,-157 303.88,-144.88 316.34,-135.31"/>
<polygon fill="#63b8ff" stroke="#63b8ff" points="318.53,-138.04 324.33,-129.17 314.27,-132.49 318.53,-138.04"/>
</a>
</g>
</g>
<!-- Node15 -->
<g id="Node000015" class="node">
<title>Node15</title>
<g id="a_Node000015"><a xlink:title=" ">
<polygon fill="#e0e0e0" stroke="#999999" points="428.62,-129 380.62,-129 380.62,-110 428.62,-110 428.62,-129"/>
<text text-anchor="middle" x="404.62" y="-117" font-family="Helvetica,sans-Serif" font-size="10.00">thread</text>
</a>
</g>
</g>
<!-- Node2&#45;&gt;Node15 -->
<g id="edge25_Node000002_Node000015" class="edge">
<title>Node2&#45;&gt;Node15</title>
<g id="a_edge25_Node000002_Node000015"><a xlink:title=" ">
<path fill="none" stroke="#63b8ff" d="M288.79,-164.98C311.39,-156.3 346.68,-142.75 372.37,-132.88"/>
<polygon fill="#63b8ff" stroke="#63b8ff" points="373.96,-136.02 382.04,-129.17 371.45,-129.49 373.96,-136.02"/>
</a>
</g>
</g>
<!-- Node16 -->
<g id="Node000016" class="node">
<title>Node16</title>
<g id="a_Node000016"><a xlink:title=" ">
<polygon fill="#e0e0e0" stroke="#999999" points="554.12,-129 447.12,-129 447.12,-110 554.12,-110 554.12,-129"/>
<text text-anchor="middle" x="500.62" y="-117" font-family="Helvetica,sans-Serif" font-size="10.00">condition_variable</text>
</a>
</g>
</g>
<!-- Node2&#45;&gt;Node16 -->
<g id="edge26_Node000002_Node000016" class="edge">
<title>Node2&#45;&gt;Node16</title>
<g id="a_edge26_Node000002_Node000016"><a xlink:title=" ">
<path fill="none" stroke="#63b8ff" d="M304.22,-164.98C344.61,-155.84 408.9,-141.27 452.85,-131.32"/>
<polygon fill="#63b8ff" stroke="#63b8ff" points="453.75,-134.7 462.73,-129.08 452.2,-127.88 453.75,-134.7"/>
</a>
</g>
</g>
<!-- Node3&#45;&gt;Node4 -->
<g id="edge3_Node000003_Node000004" class="edge">
<title>Node3&#45;&gt;Node4</title>
<g id="a_edge3_Node000003_Node000004"><a xlink:title=" ">
<path fill="none" stroke="#63b8ff" d="M164.63,-55.91C239.14,-44.81 375.61,-24.5 437.54,-15.28"/>
<polygon fill="#63b8ff" stroke="#63b8ff" points="438.14,-18.73 447.51,-13.79 437.11,-11.8 438.14,-18.73"/>
</a>
</g>
</g>
<!-- Node3&#45;&gt;Node5 -->
<g id="edge4_Node000003_Node000005" class="edge">
<title>Node3&#45;&gt;Node5</title>
<g id="a_edge4_Node000003_Node000005"><a xlink:title=" ">
<path fill="none" stroke="#63b8ff" d="M113.62,-54.75C113.62,-47.8 113.62,-37.85 113.62,-29.13"/>
<polygon fill="#63b8ff" stroke="#63b8ff" points="117.12,-29.09 113.62,-19.09 110.12,-29.09 117.12,-29.09"/>
</a>
</g>
</g>
<!-- Node3&#45;&gt;Node6 -->
<g id="edge5_Node000003_Node000006" class="edge">
<title>Node3&#45;&gt;Node6</title>
<g id="a_edge5_Node000003_Node000006"><a xlink:title=" ">
<path fill="none" stroke="#63b8ff" d="M102.37,-54.98C91.82,-47 75.82,-34.88 63.18,-25.31"/>
<polygon fill="#63b8ff" stroke="#63b8ff" points="65.16,-22.42 55.07,-19.17 60.93,-28 65.16,-22.42"/>
</a>
</g>
</g>
<!-- Node7&#45;&gt;Node4 -->
<g id="edge14_Node000007_Node000004" class="edge">
<title>Node7&#45;&gt;Node4</title>
<g id="a_edge14_Node000007_Node000004"><a xlink:title=" ">
<path fill="none" stroke="#63b8ff" d="M682.23,-109.57C688.45,-96.14 697.37,-70.65 684.62,-55 673.12,-40.88 558.98,-23.04 501.85,-14.91"/>
<polygon fill="#63b8ff" stroke="#63b8ff" points="502.27,-11.43 491.88,-13.5 501.29,-18.36 502.27,-11.43"/>
</a>
</g>
</g>
<!-- Node7&#45;&gt;Node6 -->
<g id="edge11_Node000007_Node000006" class="edge">
<title>Node7&#45;&gt;Node6</title>
<g id="a_edge11_Node000007_Node000006"><a xlink:title=" ">
<path fill="none" stroke="#63b8ff" d="M623.4,-109.96C496.68,-89.91 183.96,-39.97 79.62,-19 77.28,-18.53 74.87,-18.02 72.44,-17.49"/>
<polygon fill="#63b8ff" stroke="#63b8ff" points="73.15,-14.06 62.62,-15.24 71.59,-20.88 73.15,-14.06"/>
</a>
</g>
</g>
<!-- Node8 -->
<g id="Node000008" class="node">
<title>Node8</title>
<g id="a_Node000008"><a xlink:href="../../de/daa/IoTDevice_8h.html" target="_top" xlink:title=" ">
<polygon fill="white" stroke="#666666" points="571.62,-74 497.62,-74 497.62,-55 571.62,-55 571.62,-74"/>
<text text-anchor="middle" x="534.62" y="-62" font-family="Helvetica,sans-Serif" font-size="10.00">IoTDevice.h</text>
</a>
</g>
</g>
<!-- Node7&#45;&gt;Node8 -->
<g id="edge7_Node000007_Node000008" class="edge">
<title>Node7&#45;&gt;Node8</title>
<g id="a_edge7_Node000007_Node000008"><a xlink:title=" ">
<path fill="none" stroke="#63b8ff" d="M654.64,-109.98C631.12,-101.27 594.33,-87.63 567.68,-77.75"/>
<polygon fill="#63b8ff" stroke="#63b8ff" points="568.61,-74.36 558.01,-74.17 566.17,-80.93 568.61,-74.36"/>
</a>
</g>
</g>
<!-- Node9 -->
<g id="Node000009" class="node">
<title>Node9</title>
<g id="a_Node000009"><a xlink:title=" ">
<polygon fill="#e0e0e0" stroke="#999999" points="628.62,-19 570.62,-19 570.62,0 628.62,0 628.62,-19"/>
<text text-anchor="middle" x="599.62" y="-7" font-family="Helvetica,sans-Serif" font-size="10.00">memory</text>
</a>
</g>
</g>
<!-- Node7&#45;&gt;Node9 -->
<g id="edge13_Node000007_Node000009" class="edge">
<title>Node7&#45;&gt;Node9</title>
<g id="a_edge13_Node000007_Node000009"><a xlink:title=" ">
<path fill="none" stroke="#63b8ff" d="M689.9,-109.93C706.04,-97.58 730.89,-74.18 717.62,-55 700.01,-29.53 665.84,-18.62 638.78,-13.96"/>
<polygon fill="#63b8ff" stroke="#63b8ff" points="639.22,-10.48 628.81,-12.46 638.18,-17.41 639.22,-10.48"/>
</a>
</g>
</g>
<!-- Node10 -->
<g id="Node000010" class="node">
<title>Node10</title>
<g id="a_Node000010"><a xlink:title=" ">
<polygon fill="#e0e0e0" stroke="#999999" points="675.12,-74 628.12,-74 628.12,-55 675.12,-55 675.12,-74"/>
<text text-anchor="middle" x="651.62" y="-62" font-family="Helvetica,sans-Serif" font-size="10.00">vector</text>
</a>
</g>
</g>
<!-- Node7&#45;&gt;Node10 -->
<g id="edge12_Node000007_Node000010" class="edge">
<title>Node7&#45;&gt;Node10</title>
<g id="a_edge12_Node000007_Node000010"><a xlink:title=" ">
<path fill="none" stroke="#63b8ff" d="M673.33,-109.75C669.81,-102.57 664.71,-92.18 660.34,-83.27"/>
<polygon fill="#63b8ff" stroke="#63b8ff" points="663.38,-81.53 655.83,-74.09 657.1,-84.61 663.38,-81.53"/>
</a>
</g>
</g>
<!-- Node7&#45;&gt;Node11 -->
<g id="edge15_Node000007_Node000011" class="edge">
<title>Node7&#45;&gt;Node11</title>
<g id="a_edge15_Node000007_Node000011"><a xlink:title=" ">
<path fill="none" stroke="#63b8ff" d="M610.44,-110.28C516.9,-98.83 350.85,-78.5 279.16,-69.73"/>
<polygon fill="#63b8ff" stroke="#63b8ff" points="279.24,-66.21 268.89,-68.47 278.39,-73.16 279.24,-66.21"/>
</a>
</g>
</g>
<!-- Node8&#45;&gt;Node4 -->
<g id="edge8_Node000008_Node000004" class="edge">
<title>Node8&#45;&gt;Node4</title>
<g id="a_edge8_Node000008_Node000004"><a xlink:title=" ">
<path fill="none" stroke="#63b8ff" d="M524.18,-54.98C514.47,-47.07 499.8,-35.11 488.12,-25.58"/>
<polygon fill="#63b8ff" stroke="#63b8ff" points="490.22,-22.78 480.25,-19.17 485.79,-28.2 490.22,-22.78"/>
</a>
</g>
</g>
<!-- Node8&#45;&gt;Node5 -->
<g id="edge10_Node000008_Node000005" class="edge">
<title>Node8&#45;&gt;Node5</title>
<g id="a_edge10_Node000008_Node000005"><a xlink:title=" ">
<path fill="none" stroke="#63b8ff" d="M497.26,-58.8C416.73,-48.66 227.72,-24.86 149,-14.95"/>
<polygon fill="#63b8ff" stroke="#63b8ff" points="149.01,-11.43 138.65,-13.65 148.13,-18.37 149.01,-11.43"/>
</a>
</g>
</g>
<!-- Node8&#45;&gt;Node9 -->
<g id="edge9_Node000008_Node000009" class="edge">
<title>Node8&#45;&gt;Node9</title>
<g id="a_edge9_Node000008_Node000009"><a xlink:title=" ">
<path fill="none" stroke="#63b8ff" d="M545.06,-54.98C554.77,-47.07 569.44,-35.11 581.12,-25.58"/>
<polygon fill="#63b8ff" stroke="#63b8ff" points="583.45,-28.2 588.99,-19.17 579.02,-22.78 583.45,-28.2"/>
</a>
</g>
</g>
<!-- Node12&#45;&gt;Node3 -->
<g id="edge21_Node000012_Node000003" class="edge">
<title>Node12&#45;&gt;Node3</title>
<g id="a_edge21_Node000012_Node000003"><a xlink:title=" ">
<path fill="none" stroke="#63b8ff" d="M113.62,-109.75C113.62,-102.8 113.62,-92.85 113.62,-84.13"/>
<polygon fill="#63b8ff" stroke="#63b8ff" points="117.12,-84.09 113.62,-74.09 110.12,-84.09 117.12,-84.09"/>
</a>
</g>
</g>
<!-- Node12&#45;&gt;Node4 -->
<g id="edge17_Node000012_Node000004" class="edge">
<title>Node12&#45;&gt;Node4</title>
<g id="a_edge17_Node000012_Node000004"><a xlink:title=" ">
<path fill="none" stroke="#63b8ff" d="M123.72,-109.93C140.68,-96.03 176.5,-68.74 211.62,-55 288.91,-24.76 387.21,-15.02 437.22,-11.92"/>
<polygon fill="#63b8ff" stroke="#63b8ff" points="437.63,-15.4 447.42,-11.34 437.24,-8.41 437.63,-15.4"/>
</a>
</g>
</g>
<!-- Node12&#45;&gt;Node6 -->
<g id="edge18_Node000012_Node000006" class="edge">
<title>Node12&#45;&gt;Node6</title>
<g id="a_edge18_Node000012_Node000006"><a xlink:title=" ">
<path fill="none" stroke="#63b8ff" d="M95.34,-109.88C81.56,-102.39 63.43,-90.2 53.62,-74 45.57,-60.71 43.32,-43.09 42.94,-29.79"/>
<polygon fill="#63b8ff" stroke="#63b8ff" points="46.44,-29.44 42.99,-19.42 39.44,-29.41 46.44,-29.44"/>
</a>
</g>
</g>
<!-- Node12&#45;&gt;Node9 -->
<g id="edge19_Node000012_Node000009" class="edge">
<title>Node12&#45;&gt;Node9</title>
<g id="a_edge19_Node000012_Node000009"><a xlink:title=" ">
<path fill="none" stroke="#63b8ff" d="M186.18,-112.63C315.5,-102.02 573.09,-80.19 580.62,-74 593.67,-63.28 598,-43.98 599.32,-29.46"/>
<polygon fill="#63b8ff" stroke="#63b8ff" points="602.84,-29.26 599.85,-19.1 595.85,-28.91 602.84,-29.26"/>
</a>
</g>
</g>
<!-- Node12&#45;&gt;Node11 -->
<g id="edge20_Node000012_Node000011" class="edge">
<title>Node12&#45;&gt;Node11</title>
<g id="a_edge20_Node000012_Node000011"><a xlink:title=" ">
<path fill="none" stroke="#63b8ff" d="M134.67,-109.98C156.03,-101.34 189.32,-87.87 213.68,-78.02"/>
<polygon fill="#63b8ff" stroke="#63b8ff" points="215.23,-81.17 223.19,-74.17 212.61,-74.68 215.23,-81.17"/>
</a>
</g>
</g>
</g>
</svg>
