<?xml version="1.0" encoding="UTF-8" standalone="no"?>
<!DOCTYPE svg PUBLIC "-//W3C//DTD SVG 1.1//EN"
 "http://www.w3.org/Graphics/SVG/1.1/DTD/svg11.dtd">
<!-- Generated by graphviz version 2.43.0 (0)
 -->
<!-- Title: src/security/SecurityManager.cpp Pages: 1 -->
<svg width="616pt" height="148pt"
 viewBox="0.00 0.00 616.00 148.00" xmlns="http://www.w3.org/2000/svg" xmlns:xlink="http://www.w3.org/1999/xlink">
<g id="graph0" class="graph" transform="scale(1 1) rotate(0) translate(4 144)">
<title>src/security/SecurityManager.cpp</title>
<!-- Node1 -->
<g id="Node000001" class="node">
<title>Node1</title>
<g id="a_Node000001"><a xlink:title=" ">
<polygon fill="#999999" stroke="#666666" points="440,-140 262,-140 262,-121 440,-121 440,-140"/>
<text text-anchor="middle" x="351" y="-128" font-family="Helvetica,sans-Serif" font-size="10.00">src/security/SecurityManager.cpp</text>
</a>
</g>
</g>
<!-- Node2 -->
<g id="Node000002" class="node">
<title>Node2</title>
<g id="a_Node000002"><a xlink:href="../../dc/da7/SecurityManager_8h.html" target="_top" xlink:title=" ">
<polygon fill="white" stroke="#666666" points="190,-85 78,-85 78,-55 190,-55 190,-85"/>
<text text-anchor="start" x="86" y="-73" font-family="Helvetica,sans-Serif" font-size="10.00">../../include/security</text>
<text text-anchor="middle" x="134" y="-62" font-family="Helvetica,sans-Serif" font-size="10.00">/SecurityManager.h</text>
</a>
</g>
</g>
<!-- Node1&#45;&gt;Node2 -->
<g id="edge1_Node000001_Node000002" class="edge">
<title>Node1&#45;&gt;Node2</title>
<g id="a_edge1_Node000001_Node000002"><a xlink:title=" ">
<path fill="none" stroke="#63b8ff" d="M319.45,-120.99C287.19,-112.3 236.25,-98.57 195.92,-87.69"/>
<polygon fill="#63b8ff" stroke="#63b8ff" points="196.74,-84.29 186.17,-85.06 194.91,-91.05 196.74,-84.29"/>
</a>
</g>
</g>
<!-- Node6 -->
<g id="Node000006" class="node">
<title>Node6</title>
<g id="a_Node000006"><a xlink:title=" ">
<polygon fill="#e0e0e0" stroke="#999999" points="242,-19 194,-19 194,0 242,0 242,-19"/>
<text text-anchor="middle" x="218" y="-7" font-family="Helvetica,sans-Serif" font-size="10.00">mutex</text>
</a>
</g>
</g>
<!-- Node1&#45;&gt;Node6 -->
<g id="edge11_Node000001_Node000006" class="edge">
<title>Node1&#45;&gt;Node6</title>
<g id="a_edge11_Node000001_Node000006"><a xlink:title=" ">
<path fill="none" stroke="#63b8ff" d="M301.52,-120.94C278.91,-114.61 253.54,-103.7 237,-85 223.35,-69.57 219.25,-45.65 218.15,-29.1"/>
<polygon fill="#63b8ff" stroke="#63b8ff" points="221.65,-28.88 217.79,-19.01 214.65,-29.13 221.65,-28.88"/>
</a>
</g>
</g>
<!-- Node7 -->
<g id="Node000007" class="node">
<title>Node7</title>
<g id="a_Node000007"><a xlink:title=" ">
<polygon fill="#e0e0e0" stroke="#999999" points="306,-79.5 246,-79.5 246,-60.5 306,-60.5 306,-79.5"/>
<text text-anchor="middle" x="276" y="-67.5" font-family="Helvetica,sans-Serif" font-size="10.00">iostream</text>
</a>
</g>
</g>
<!-- Node1&#45;&gt;Node7 -->
<g id="edge6_Node000001_Node000007" class="edge">
<title>Node1&#45;&gt;Node7</title>
<g id="a_edge6_Node000001_Node000007"><a xlink:title=" ">
<path fill="none" stroke="#63b8ff" d="M339.93,-120.87C328.19,-111.71 309.41,-97.06 295.24,-86.01"/>
<polygon fill="#63b8ff" stroke="#63b8ff" points="297.15,-83.06 287.11,-79.67 292.84,-88.58 297.15,-83.06"/>
</a>
</g>
</g>
<!-- Node8 -->
<g id="Node000008" class="node">
<title>Node8</title>
<g id="a_Node000008"><a xlink:title=" ">
<polygon fill="#e0e0e0" stroke="#999999" points="378,-79.5 324,-79.5 324,-60.5 378,-60.5 378,-79.5"/>
<text text-anchor="middle" x="351" y="-67.5" font-family="Helvetica,sans-Serif" font-size="10.00">random</text>
</a>
</g>
</g>
<!-- Node1&#45;&gt;Node8 -->
<g id="edge7_Node000001_Node000008" class="edge">
<title>Node1&#45;&gt;Node8</title>
<g id="a_edge7_Node000001_Node000008"><a xlink:title=" ">
<path fill="none" stroke="#63b8ff" d="M351,-120.87C351,-112.75 351,-100.31 351,-89.89"/>
<polygon fill="#63b8ff" stroke="#63b8ff" points="354.5,-89.67 351,-79.67 347.5,-89.67 354.5,-89.67"/>
</a>
</g>
</g>
<!-- Node9 -->
<g id="Node000009" class="node">
<title>Node9</title>
<g id="a_Node000009"><a xlink:title=" ">
<polygon fill="#e0e0e0" stroke="#999999" points="460,-79.5 396,-79.5 396,-60.5 460,-60.5 460,-79.5"/>
<text text-anchor="middle" x="428" y="-67.5" font-family="Helvetica,sans-Serif" font-size="10.00">algorithm</text>
</a>
</g>
</g>
<!-- Node1&#45;&gt;Node9 -->
<g id="edge8_Node000001_Node000009" class="edge">
<title>Node1&#45;&gt;Node9</title>
<g id="a_edge8_Node000001_Node000009"><a xlink:title=" ">
<path fill="none" stroke="#63b8ff" d="M362.36,-120.87C374.42,-111.71 393.7,-97.06 408.25,-86.01"/>
<polygon fill="#63b8ff" stroke="#63b8ff" points="410.75,-88.5 416.59,-79.67 406.51,-82.93 410.75,-88.5"/>
</a>
</g>
</g>
<!-- Node10 -->
<g id="Node000010" class="node">
<title>Node10</title>
<g id="a_Node000010"><a xlink:title=" ">
<polygon fill="#e0e0e0" stroke="#999999" points="534,-79.5 478,-79.5 478,-60.5 534,-60.5 534,-79.5"/>
<text text-anchor="middle" x="506" y="-67.5" font-family="Helvetica,sans-Serif" font-size="10.00">iomanip</text>
</a>
</g>
</g>
<!-- Node1&#45;&gt;Node10 -->
<g id="edge9_Node000001_Node000010" class="edge">
<title>Node1&#45;&gt;Node10</title>
<g id="a_edge9_Node000001_Node000010"><a xlink:title=" ">
<path fill="none" stroke="#63b8ff" d="M373.62,-120.98C397.38,-112.02 435.82,-97.53 469,-85 470.59,-84.4 472.22,-83.78 473.86,-83.16"/>
<polygon fill="#63b8ff" stroke="#63b8ff" points="475.19,-86.4 483.3,-79.59 472.71,-79.86 475.19,-86.4"/>
</a>
</g>
</g>
<!-- Node11 -->
<g id="Node000011" class="node">
<title>Node11</title>
<g id="a_Node000011"><a xlink:title=" ">
<polygon fill="#e0e0e0" stroke="#999999" points="608,-79.5 552,-79.5 552,-60.5 608,-60.5 608,-79.5"/>
<text text-anchor="middle" x="580" y="-67.5" font-family="Helvetica,sans-Serif" font-size="10.00">sstream</text>
</a>
</g>
</g>
<!-- Node1&#45;&gt;Node11 -->
<g id="edge10_Node000001_Node000011" class="edge">
<title>Node1&#45;&gt;Node11</title>
<g id="a_edge10_Node000001_Node000011"><a xlink:title=" ">
<path fill="none" stroke="#63b8ff" d="M395.29,-120.99C434.49,-113.05 493.07,-100.16 543,-85 544.92,-84.42 546.89,-83.78 548.86,-83.12"/>
<polygon fill="#63b8ff" stroke="#63b8ff" points="550.4,-86.29 558.65,-79.64 548.05,-79.69 550.4,-86.29"/>
</a>
</g>
</g>
<!-- Node3 -->
<g id="Node000003" class="node">
<title>Node3</title>
<g id="a_Node000003"><a xlink:title=" ">
<polygon fill="#e0e0e0" stroke="#999999" points="44,-19 0,-19 0,0 44,0 44,-19"/>
<text text-anchor="middle" x="22" y="-7" font-family="Helvetica,sans-Serif" font-size="10.00">string</text>
</a>
</g>
</g>
<!-- Node2&#45;&gt;Node3 -->
<g id="edge2_Node000002_Node000003" class="edge">
<title>Node2&#45;&gt;Node3</title>
<g id="a_edge2_Node000002_Node000003"><a xlink:title=" ">
<path fill="none" stroke="#63b8ff" d="M107.17,-54.99C89.15,-45.58 65.54,-33.24 47.75,-23.95"/>
<polygon fill="#63b8ff" stroke="#63b8ff" points="49.02,-20.67 38.54,-19.14 45.78,-26.87 49.02,-20.67"/>
</a>
</g>
</g>
<!-- Node4 -->
<g id="Node000004" class="node">
<title>Node4</title>
<g id="a_Node000004"><a xlink:title=" ">
<polygon fill="#e0e0e0" stroke="#999999" points="100,-19 62,-19 62,0 100,0 100,-19"/>
<text text-anchor="middle" x="81" y="-7" font-family="Helvetica,sans-Serif" font-size="10.00">map</text>
</a>
</g>
</g>
<!-- Node2&#45;&gt;Node4 -->
<g id="edge3_Node000002_Node000004" class="edge">
<title>Node2&#45;&gt;Node4</title>
<g id="a_edge3_Node000002_Node000004"><a xlink:title=" ">
<path fill="none" stroke="#63b8ff" d="M121.17,-54.84C113.48,-46.35 103.67,-35.52 95.67,-26.69"/>
<polygon fill="#63b8ff" stroke="#63b8ff" points="98.25,-24.33 88.94,-19.27 93.06,-29.03 98.25,-24.33"/>
</a>
</g>
</g>
<!-- Node5 -->
<g id="Node000005" class="node">
<title>Node5</title>
<g id="a_Node000005"><a xlink:title=" ">
<polygon fill="#e0e0e0" stroke="#999999" points="176,-19 118,-19 118,0 176,0 176,-19"/>
<text text-anchor="middle" x="147" y="-7" font-family="Helvetica,sans-Serif" font-size="10.00">memory</text>
</a>
</g>
</g>
<!-- Node2&#45;&gt;Node5 -->
<g id="edge4_Node000002_Node000005" class="edge">
<title>Node2&#45;&gt;Node5</title>
<g id="a_edge4_Node000002_Node000005"><a xlink:title=" ">
<path fill="none" stroke="#63b8ff" d="M137.15,-54.84C138.86,-47.13 141,-37.49 142.85,-29.17"/>
<polygon fill="#63b8ff" stroke="#63b8ff" points="146.3,-29.79 145.05,-19.27 139.47,-28.27 146.3,-29.79"/>
</a>
</g>
</g>
<!-- Node2&#45;&gt;Node6 -->
<g id="edge5_Node000002_Node000006" class="edge">
<title>Node2&#45;&gt;Node6</title>
<g id="a_edge5_Node000002_Node000006"><a xlink:title=" ">
<path fill="none" stroke="#63b8ff" d="M154.33,-54.84C167.27,-45.83 183.99,-34.18 197.05,-25.09"/>
<polygon fill="#63b8ff" stroke="#63b8ff" points="199.21,-27.85 205.41,-19.27 195.21,-22.11 199.21,-27.85"/>
</a>
</g>
</g>
</g>
</svg>
