<?xml version="1.0" encoding="UTF-8" standalone="no"?>
<!DOCTYPE svg PUBLIC "-//W3C//DTD SVG 1.1//EN"
 "http://www.w3.org/Graphics/SVG/1.1/DTD/svg11.dtd">
<!-- Generated by graphviz version 2.43.0 (0)
 -->
<!-- Title: include/devices/ConcreteActuators.h Pages: 1 -->
<svg width="196pt" height="203pt"
 viewBox="0.00 0.00 196.00 203.00" xmlns="http://www.w3.org/2000/svg" xmlns:xlink="http://www.w3.org/1999/xlink">
<g id="graph0" class="graph" transform="scale(1 1) rotate(0) translate(4 199)">
<title>include/devices/ConcreteActuators.h</title>
<!-- Node1 -->
<g id="Node000001" class="node">
<title>Node1</title>
<g id="a_Node000001"><a xlink:title=" ">
<polygon fill="#999999" stroke="#666666" points="160.5,-195 21.5,-195 21.5,-165 160.5,-165 160.5,-195"/>
<text text-anchor="start" x="29.5" y="-183" font-family="Helvetica,sans-Serif" font-size="10.00">include/devices/Concrete</text>
<text text-anchor="middle" x="91" y="-172" font-family="Helvetica,sans-Serif" font-size="10.00">Actuators.h</text>
</a>
</g>
</g>
<!-- Node2 -->
<g id="Node000002" class="node">
<title>Node2</title>
<g id="a_Node000002"><a xlink:href="../../d0/d81/Actuator_8h.html" target="_top" xlink:title=" ">
<polygon fill="white" stroke="#666666" points="124,-129 58,-129 58,-110 124,-110 124,-129"/>
<text text-anchor="middle" x="91" y="-117" font-family="Helvetica,sans-Serif" font-size="10.00">Actuator.h</text>
</a>
</g>
</g>
<!-- Node1&#45;&gt;Node2 -->
<g id="edge1_Node000001_Node000002" class="edge">
<title>Node1&#45;&gt;Node2</title>
<g id="a_edge1_Node000001_Node000002"><a xlink:title=" ">
<path fill="none" stroke="#63b8ff" d="M91,-164.84C91,-157.21 91,-147.7 91,-139.45"/>
<polygon fill="#63b8ff" stroke="#63b8ff" points="94.5,-139.27 91,-129.27 87.5,-139.27 94.5,-139.27"/>
</a>
</g>
</g>
<!-- Node3 -->
<g id="Node000003" class="node">
<title>Node3</title>
<g id="a_Node000003"><a xlink:href="../../de/daa/IoTDevice_8h.html" target="_top" xlink:title=" ">
<polygon fill="white" stroke="#666666" points="144.5,-74 37.5,-74 37.5,-55 144.5,-55 144.5,-74"/>
<text text-anchor="middle" x="91" y="-62" font-family="Helvetica,sans-Serif" font-size="10.00">../core/IoTDevice.h</text>
</a>
</g>
</g>
<!-- Node2&#45;&gt;Node3 -->
<g id="edge2_Node000002_Node000003" class="edge">
<title>Node2&#45;&gt;Node3</title>
<g id="a_edge2_Node000002_Node000003"><a xlink:title=" ">
<path fill="none" stroke="#63b8ff" d="M91,-109.75C91,-102.8 91,-92.85 91,-84.13"/>
<polygon fill="#63b8ff" stroke="#63b8ff" points="94.5,-84.09 91,-74.09 87.5,-84.09 94.5,-84.09"/>
</a>
</g>
</g>
<!-- Node4 -->
<g id="Node000004" class="node">
<title>Node4</title>
<g id="a_Node000004"><a xlink:title=" ">
<polygon fill="#e0e0e0" stroke="#999999" points="44,-19 0,-19 0,0 44,0 44,-19"/>
<text text-anchor="middle" x="22" y="-7" font-family="Helvetica,sans-Serif" font-size="10.00">string</text>
</a>
</g>
</g>
<!-- Node3&#45;&gt;Node4 -->
<g id="edge3_Node000003_Node000004" class="edge">
<title>Node3&#45;&gt;Node4</title>
<g id="a_edge3_Node000003_Node000004"><a xlink:title=" ">
<path fill="none" stroke="#63b8ff" d="M79.91,-54.98C69.51,-47 53.74,-34.88 41.28,-25.31"/>
<polygon fill="#63b8ff" stroke="#63b8ff" points="43.35,-22.49 33.29,-19.17 39.09,-28.04 43.35,-22.49"/>
</a>
</g>
</g>
<!-- Node5 -->
<g id="Node000005" class="node">
<title>Node5</title>
<g id="a_Node000005"><a xlink:title=" ">
<polygon fill="#e0e0e0" stroke="#999999" points="120,-19 62,-19 62,0 120,0 120,-19"/>
<text text-anchor="middle" x="91" y="-7" font-family="Helvetica,sans-Serif" font-size="10.00">memory</text>
</a>
</g>
</g>
<!-- Node3&#45;&gt;Node5 -->
<g id="edge4_Node000003_Node000005" class="edge">
<title>Node3&#45;&gt;Node5</title>
<g id="a_edge4_Node000003_Node000005"><a xlink:title=" ">
<path fill="none" stroke="#63b8ff" d="M91,-54.75C91,-47.8 91,-37.85 91,-29.13"/>
<polygon fill="#63b8ff" stroke="#63b8ff" points="94.5,-29.09 91,-19.09 87.5,-29.09 94.5,-29.09"/>
</a>
</g>
</g>
<!-- Node6 -->
<g id="Node000006" class="node">
<title>Node6</title>
<g id="a_Node000006"><a xlink:title=" ">
<polygon fill="#e0e0e0" stroke="#999999" points="188,-19 138,-19 138,0 188,0 188,-19"/>
<text text-anchor="middle" x="163" y="-7" font-family="Helvetica,sans-Serif" font-size="10.00">chrono</text>
</a>
</g>
</g>
<!-- Node3&#45;&gt;Node6 -->
<g id="edge5_Node000003_Node000006" class="edge">
<title>Node3&#45;&gt;Node6</title>
<g id="a_edge5_Node000003_Node000006"><a xlink:title=" ">
<path fill="none" stroke="#63b8ff" d="M102.57,-54.98C113.42,-47 129.88,-34.88 142.88,-25.31"/>
<polygon fill="#63b8ff" stroke="#63b8ff" points="145.24,-27.92 151.22,-19.17 141.09,-22.28 145.24,-27.92"/>
</a>
</g>
</g>
</g>
</svg>
