<?xml version="1.0" encoding="UTF-8" standalone="no"?>
<!DOCTYPE svg PUBLIC "-//W3C//DTD SVG 1.1//EN"
 "http://www.w3.org/Graphics/SVG/1.1/DTD/svg11.dtd">
<!-- Generated by graphviz version 2.43.0 (0)
 -->
<!-- Title: iot::SecurityAssociation Pages: 1 -->
<svg width="133pt" height="177pt"
 viewBox="0.00 0.00 133.00 177.00" xmlns="http://www.w3.org/2000/svg" xmlns:xlink="http://www.w3.org/1999/xlink">
<g id="graph0" class="graph" transform="scale(1 1) rotate(0) translate(4 173)">
<title>iot::SecurityAssociation</title>
<!-- Node1 -->
<g id="Node000001" class="node">
<title>Node1</title>
<g id="a_Node000001"><a xlink:title="IPsec Security Association (simulated)">
<polygon fill="#999999" stroke="transparent" points="125,-169 0,-169 0,0 125,0 125,-169"/>
<text text-anchor="start" x="5.5" y="-156.5" font-family="Helvetica,sans-Serif" font-size="10.00">iot::SecurityAssociation</text>
<text text-anchor="start" x="8" y="-141.5" font-family="Helvetica,sans-Serif" font-size="10.00">+</text>
<text text-anchor="start" x="24.5" y="-141.5" font-family="Helvetica,sans-Serif" font-size="10.00">spi</text>
<text text-anchor="start" x="8" y="-126.5" font-family="Helvetica,sans-Serif" font-size="10.00">+</text>
<text text-anchor="start" x="24.5" y="-126.5" font-family="Helvetica,sans-Serif" font-size="10.00">encryptionKey</text>
<text text-anchor="start" x="8" y="-111.5" font-family="Helvetica,sans-Serif" font-size="10.00">+</text>
<text text-anchor="start" x="24.5" y="-111.5" font-family="Helvetica,sans-Serif" font-size="10.00">authenticationKey</text>
<text text-anchor="start" x="8" y="-96.5" font-family="Helvetica,sans-Serif" font-size="10.00">+</text>
<text text-anchor="start" x="24.5" y="-96.5" font-family="Helvetica,sans-Serif" font-size="10.00">sourceIP</text>
<text text-anchor="start" x="8" y="-81.5" font-family="Helvetica,sans-Serif" font-size="10.00">+</text>
<text text-anchor="start" x="24.5" y="-81.5" font-family="Helvetica,sans-Serif" font-size="10.00">destinationIP</text>
<text text-anchor="start" x="8" y="-66.5" font-family="Helvetica,sans-Serif" font-size="10.00">+</text>
<text text-anchor="start" x="24.5" y="-66.5" font-family="Helvetica,sans-Serif" font-size="10.00">sequenceNumber</text>
<text text-anchor="start" x="8" y="-51.5" font-family="Helvetica,sans-Serif" font-size="10.00">+</text>
<text text-anchor="start" x="24.5" y="-51.5" font-family="Helvetica,sans-Serif" font-size="10.00">creationTime</text>
<text text-anchor="start" x="8" y="-36.5" font-family="Helvetica,sans-Serif" font-size="10.00">+</text>
<text text-anchor="start" x="24.5" y="-36.5" font-family="Helvetica,sans-Serif" font-size="10.00">expiryTime</text>
<text text-anchor="start" x="8" y="-21.5" font-family="Helvetica,sans-Serif" font-size="10.00">+</text>
<text text-anchor="start" x="24.5" y="-21.5" font-family="Helvetica,sans-Serif" font-size="10.00">isActive</text>
<text text-anchor="start" x="61" y="-6.5" font-family="Helvetica,sans-Serif" font-size="10.00"> </text>
<polygon fill="#666666" stroke="#666666" points="0.5,-151.5 0.5,-151.5 125.5,-151.5 125.5,-151.5 0.5,-151.5"/>
<polygon fill="#666666" stroke="#666666" points="0.5,-16.5 0.5,-16.5 22.5,-16.5 22.5,-16.5 0.5,-16.5"/>
<polygon fill="#666666" stroke="#666666" points="22.5,-16.5 22.5,-16.5 125.5,-16.5 125.5,-16.5 22.5,-16.5"/>
<polygon fill="none" stroke="#666666" points="0,0 0,-169 125,-169 125,0 0,0"/>
</a>
</g>
</g>
</g>
</svg>
