<?xml version="1.0" encoding="UTF-8" standalone="no"?>
<!DOCTYPE svg PUBLIC "-//W3C//DTD SVG 1.1//EN"
 "http://www.w3.org/Graphics/SVG/1.1/DTD/svg11.dtd">
<!-- Generated by graphviz version 2.43.0 (0)
 -->
<!-- Title: include/utils/ConfigManager.h Pages: 1 -->
<svg width="338pt" height="159pt"
 viewBox="0.00 0.00 338.00 159.00" xmlns="http://www.w3.org/2000/svg" xmlns:xlink="http://www.w3.org/1999/xlink">
<g id="graph0" class="graph" transform="scale(1 1) rotate(0) translate(4 155)">
<title>include/utils/ConfigManager.h</title>
<!-- Node1 -->
<g id="Node000001" class="node">
<title>Node1</title>
<g id="a_Node000001"><a xlink:title=" ">
<polygon fill="#999999" stroke="#666666" points="259,-151 98,-151 98,-132 259,-132 259,-151"/>
<text text-anchor="middle" x="178.5" y="-139" font-family="Helvetica,sans-Serif" font-size="10.00">include/utils/ConfigManager.h</text>
</a>
</g>
</g>
<!-- Node2 -->
<g id="Node000002" class="node">
<title>Node2</title>
<g id="a_Node000002"><a xlink:href="../../d8/dee/SimulationEngine_8h.html" target="_top" xlink:title=" ">
<polygon fill="white" stroke="#666666" points="160.5,-96 46.5,-96 46.5,-66 160.5,-66 160.5,-96"/>
<text text-anchor="start" x="54.5" y="-84" font-family="Helvetica,sans-Serif" font-size="10.00">include/simulation</text>
<text text-anchor="middle" x="103.5" y="-73" font-family="Helvetica,sans-Serif" font-size="10.00">/SimulationEngine.h</text>
</a>
</g>
</g>
<!-- Node1&#45;&gt;Node2 -->
<g id="edge1_Node000001_Node000002" class="edge">
<title>Node1&#45;&gt;Node2</title>
<g id="a_edge1_Node000001_Node000002"><a xlink:title=" ">
<path fill="none" stroke="#63b8ff" d="M159.27,-125.5C147.67,-116.45 132.99,-105 121.6,-96.11"/>
<polygon fill="#63b8ff" stroke="#63b8ff" points="157.4,-128.48 167.43,-131.87 161.7,-122.96 157.4,-128.48"/>
</a>
</g>
</g>
<!-- Node5 -->
<g id="Node000005" class="node">
<title>Node5</title>
<g id="a_Node000005"><a xlink:href="../../d2/d70/ConfigManager_8cpp.html" target="_top" xlink:title=" ">
<polygon fill="white" stroke="#666666" points="330,-90.5 179,-90.5 179,-71.5 330,-71.5 330,-90.5"/>
<text text-anchor="middle" x="254.5" y="-78.5" font-family="Helvetica,sans-Serif" font-size="10.00">src/utils/ConfigManager.cpp</text>
</a>
</g>
</g>
<!-- Node1&#45;&gt;Node5 -->
<g id="edge4_Node000001_Node000005" class="edge">
<title>Node1&#45;&gt;Node5</title>
<g id="a_edge4_Node000001_Node000005"><a xlink:title=" ">
<path fill="none" stroke="#63b8ff" d="M197.94,-125.54C212.29,-114.49 231.32,-99.84 243.24,-90.67"/>
<polygon fill="#63b8ff" stroke="#63b8ff" points="195.5,-122.99 189.71,-131.87 199.77,-128.54 195.5,-122.99"/>
</a>
</g>
</g>
<!-- Node3 -->
<g id="Node000003" class="node">
<title>Node3</title>
<g id="a_Node000003"><a xlink:href="../../df/d0a/main_8cpp.html" target="_top" xlink:title=" ">
<polygon fill="white" stroke="#666666" points="79,-24.5 0,-24.5 0,-5.5 79,-5.5 79,-24.5"/>
<text text-anchor="middle" x="39.5" y="-12.5" font-family="Helvetica,sans-Serif" font-size="10.00">src/main.cpp</text>
</a>
</g>
</g>
<!-- Node2&#45;&gt;Node3 -->
<g id="edge2_Node000002_Node000003" class="edge">
<title>Node2&#45;&gt;Node3</title>
<g id="a_edge2_Node000002_Node000003"><a xlink:title=" ">
<path fill="none" stroke="#63b8ff" d="M82.1,-58.6C70.6,-47.1 57.02,-33.52 48.34,-24.84"/>
<polygon fill="#63b8ff" stroke="#63b8ff" points="79.75,-61.2 89.3,-65.8 84.7,-56.25 79.75,-61.2"/>
</a>
</g>
</g>
<!-- Node4 -->
<g id="Node000004" class="node">
<title>Node4</title>
<g id="a_Node000004"><a xlink:href="../../d8/dff/SimulationEngine_8cpp.html" target="_top" xlink:title=" ">
<polygon fill="white" stroke="#666666" points="238,-30 97,-30 97,0 238,0 238,-30"/>
<text text-anchor="start" x="105" y="-18" font-family="Helvetica,sans-Serif" font-size="10.00">src/simulation/Simulation</text>
<text text-anchor="middle" x="167.5" y="-7" font-family="Helvetica,sans-Serif" font-size="10.00">Engine.cpp</text>
</a>
</g>
</g>
<!-- Node2&#45;&gt;Node4 -->
<g id="edge3_Node000002_Node000004" class="edge">
<title>Node2&#45;&gt;Node4</title>
<g id="a_edge3_Node000002_Node000004"><a xlink:title=" ">
<path fill="none" stroke="#63b8ff" d="M124.85,-58.65C134.23,-49.27 144.97,-38.53 153.34,-30.16"/>
<polygon fill="#63b8ff" stroke="#63b8ff" points="122.3,-56.25 117.7,-65.8 127.25,-61.2 122.3,-56.25"/>
</a>
</g>
</g>
</g>
</svg>
