<?xml version="1.0" encoding="UTF-8" standalone="no"?>
<!DOCTYPE svg PUBLIC "-//W3C//DTD SVG 1.1//EN"
 "http://www.w3.org/Graphics/SVG/1.1/DTD/svg11.dtd">
<!-- Generated by graphviz version 2.43.0 (0)
 -->
<!-- Title: iot::IPSecManager::encryptAndAuthenticate Pages: 1 -->
<svg width="503pt" height="172pt"
 viewBox="0.00 0.00 503.00 172.00" xmlns="http://www.w3.org/2000/svg" xmlns:xlink="http://www.w3.org/1999/xlink">
<g id="graph0" class="graph" transform="scale(1 1) rotate(0) translate(4 168)">
<title>iot::IPSecManager::encryptAndAuthenticate</title>
<!-- Node1 -->
<g id="Node000001" class="node">
<title>Node1</title>
<g id="a_Node000001"><a xlink:title="Encrypt and authenticate message (ESP simulation)">
<polygon fill="#999999" stroke="#666666" points="134,-99 0,-99 0,-69 134,-69 134,-99"/>
<text text-anchor="start" x="8" y="-87" font-family="Helvetica,sans-Serif" font-size="10.00">iot::IPSecManager::</text>
<text text-anchor="middle" x="67" y="-76" font-family="Helvetica,sans-Serif" font-size="10.00">encryptAndAuthenticate</text>
</a>
</g>
</g>
<!-- Node2 -->
<g id="Node000002" class="node">
<title>Node2</title>
<g id="a_Node000002"><a xlink:href="../../d6/dca/classiot_1_1IPSecManager.html#a74eda84da4166bb5bf13b5dd2b089aa7" target="_top" xlink:title=" ">
<polygon fill="white" stroke="#666666" points="324,-164 175,-164 175,-134 324,-134 324,-164"/>
<text text-anchor="start" x="183" y="-152" font-family="Helvetica,sans-Serif" font-size="10.00">iot::IPSecManager::</text>
<text text-anchor="middle" x="249.5" y="-141" font-family="Helvetica,sans-Serif" font-size="10.00">generateAuthenticationKey</text>
</a>
</g>
</g>
<!-- Node1&#45;&gt;Node2 -->
<g id="edge1_Node000001_Node000002" class="edge">
<title>Node1&#45;&gt;Node2</title>
<g id="a_edge1_Node000001_Node000002"><a xlink:title=" ">
<path fill="none" stroke="#63b8ff" d="M109.86,-99.08C135.86,-108.44 169.45,-120.53 197.06,-130.47"/>
<polygon fill="#63b8ff" stroke="#63b8ff" points="195.96,-133.8 206.55,-133.89 198.33,-127.21 195.96,-133.8"/>
</a>
</g>
</g>
<!-- Node3 -->
<g id="Node000003" class="node">
<title>Node3</title>
<g id="a_Node000003"><a xlink:href="../../d6/dca/classiot_1_1IPSecManager.html#aa52f0fe8895db00cf7be82ae45bf8a30" target="_top" xlink:title="Generate cryptographic keys.">
<polygon fill="white" stroke="#666666" points="495,-142 365,-142 365,-112 495,-112 495,-142"/>
<text text-anchor="start" x="373" y="-130" font-family="Helvetica,sans-Serif" font-size="10.00">iot::IPSecManager::</text>
<text text-anchor="middle" x="430" y="-119" font-family="Helvetica,sans-Serif" font-size="10.00">generateEncryptionKey</text>
</a>
</g>
</g>
<!-- Node1&#45;&gt;Node3 -->
<g id="edge3_Node000001_Node000003" class="edge">
<title>Node1&#45;&gt;Node3</title>
<g id="a_edge3_Node000001_Node000003"><a xlink:title=" ">
<path fill="none" stroke="#63b8ff" d="M134.21,-91.89C196.52,-99.31 289.7,-110.41 354.57,-118.13"/>
<polygon fill="#63b8ff" stroke="#63b8ff" points="354.38,-121.64 364.72,-119.34 355.21,-114.69 354.38,-121.64"/>
</a>
</g>
</g>
<!-- Node4 -->
<g id="Node000004" class="node">
<title>Node4</title>
<g id="a_Node000004"><a xlink:href="../../d6/dca/classiot_1_1IPSecManager.html#aaf507c4cebbe659141d5f4d3729f3a75" target="_top" xlink:title="Generate security parameter index.">
<polygon fill="white" stroke="#666666" points="304.5,-78 194.5,-78 194.5,-48 304.5,-48 304.5,-78"/>
<text text-anchor="start" x="202.5" y="-66" font-family="Helvetica,sans-Serif" font-size="10.00">iot::IPSecManager::</text>
<text text-anchor="middle" x="249.5" y="-55" font-family="Helvetica,sans-Serif" font-size="10.00">generateSPI</text>
</a>
</g>
</g>
<!-- Node1&#45;&gt;Node4 -->
<g id="edge4_Node000001_Node000004" class="edge">
<title>Node1&#45;&gt;Node4</title>
<g id="a_edge4_Node000001_Node000004"><a xlink:title=" ">
<path fill="none" stroke="#63b8ff" d="M134.19,-76.3C150.6,-74.39 168.16,-72.35 184.47,-70.45"/>
<polygon fill="#63b8ff" stroke="#63b8ff" points="184.91,-73.92 194.44,-69.29 184.1,-66.97 184.91,-73.92"/>
</a>
</g>
</g>
<!-- Node5 -->
<g id="Node000005" class="node">
<title>Node5</title>
<g id="a_Node000005"><a xlink:href="../../d6/dca/classiot_1_1IPSecManager.html#ab0da8893b493bd742d21e1482cc08c0e" target="_top" xlink:title="Check if communication should be secured.">
<polygon fill="white" stroke="#666666" points="329,-30 170,-30 170,0 329,0 329,-30"/>
<text text-anchor="start" x="178" y="-18" font-family="Helvetica,sans-Serif" font-size="10.00">iot::IPSecManager::</text>
<text text-anchor="middle" x="249.5" y="-7" font-family="Helvetica,sans-Serif" font-size="10.00">shouldSecureCommunication</text>
</a>
</g>
</g>
<!-- Node1&#45;&gt;Node5 -->
<g id="edge5_Node000001_Node000005" class="edge">
<title>Node1&#45;&gt;Node5</title>
<g id="a_edge5_Node000001_Node000005"><a xlink:title=" ">
<path fill="none" stroke="#63b8ff" d="M99.76,-68.82C119.68,-59.59 146.05,-47.91 170,-39 175.39,-36.99 181.03,-35.03 186.71,-33.13"/>
<polygon fill="#63b8ff" stroke="#63b8ff" points="187.85,-36.44 196.27,-30.02 185.68,-29.79 187.85,-36.44"/>
</a>
</g>
</g>
<!-- Node2&#45;&gt;Node3 -->
<g id="edge2_Node000002_Node000003" class="edge">
<title>Node2&#45;&gt;Node3</title>
<g id="a_edge2_Node000002_Node000003"><a xlink:title=" ">
<path fill="none" stroke="#63b8ff" d="M324.13,-139.92C334.29,-138.67 344.72,-137.39 354.89,-136.13"/>
<polygon fill="#63b8ff" stroke="#63b8ff" points="355.44,-139.59 364.94,-134.9 354.59,-132.64 355.44,-139.59"/>
</a>
</g>
</g>
</g>
</svg>
