<?xml version="1.0" encoding="UTF-8" standalone="no"?>
<!DOCTYPE svg PUBLIC "-//W3C//DTD SVG 1.1//EN"
 "http://www.w3.org/Graphics/SVG/1.1/DTD/svg11.dtd">
<!-- Generated by graphviz version 2.43.0 (0)
 -->
<!-- Title: iot::IPSecManager::authenticateOnly Pages: 1 -->
<svg width="664pt" height="129pt"
 viewBox="0.00 0.00 664.00 129.00" xmlns="http://www.w3.org/2000/svg" xmlns:xlink="http://www.w3.org/1999/xlink">
<g id="graph0" class="graph" transform="scale(1 1) rotate(0) translate(4 125)">
<title>iot::IPSecManager::authenticateOnly</title>
<!-- Node1 -->
<g id="Node000001" class="node">
<title>Node1</title>
<g id="a_Node000001"><a xlink:title="Authenticate only (AH simulation)">
<polygon fill="#999999" stroke="#666666" points="110,-54 0,-54 0,-24 110,-24 110,-54"/>
<text text-anchor="start" x="8" y="-42" font-family="Helvetica,sans-Serif" font-size="10.00">iot::IPSecManager::</text>
<text text-anchor="middle" x="55" y="-31" font-family="Helvetica,sans-Serif" font-size="10.00">authenticateOnly</text>
</a>
</g>
</g>
<!-- Node2 -->
<g id="Node000002" class="node">
<title>Node2</title>
<g id="a_Node000002"><a xlink:href="../../d6/dca/classiot_1_1IPSecManager.html#ad8c7440e7c5cc0a47bab2220a15f39b1" target="_top" xlink:title="Create a security association.">
<polygon fill="white" stroke="#666666" points="297,-78 154,-78 154,-48 297,-48 297,-78"/>
<text text-anchor="start" x="162" y="-66" font-family="Helvetica,sans-Serif" font-size="10.00">iot::IPSecManager::</text>
<text text-anchor="middle" x="225.5" y="-55" font-family="Helvetica,sans-Serif" font-size="10.00">createSecurityAssociation</text>
</a>
</g>
</g>
<!-- Node1&#45;&gt;Node2 -->
<g id="edge1_Node000001_Node000002" class="edge">
<title>Node1&#45;&gt;Node2</title>
<g id="a_edge1_Node000001_Node000002"><a xlink:title=" ">
<path fill="none" stroke="#63b8ff" d="M110.24,-46.73C120.96,-48.25 132.42,-49.88 143.79,-51.5"/>
<polygon fill="#63b8ff" stroke="#63b8ff" points="143.35,-54.98 153.74,-52.92 144.34,-48.05 143.35,-54.98"/>
</a>
</g>
</g>
<!-- Node6 -->
<g id="Node000006" class="node">
<title>Node6</title>
<g id="a_Node000006"><a xlink:href="../../d6/dca/classiot_1_1IPSecManager.html#ab0da8893b493bd742d21e1482cc08c0e" target="_top" xlink:title="Check if communication should be secured.">
<polygon fill="white" stroke="#666666" points="305,-30 146,-30 146,0 305,0 305,-30"/>
<text text-anchor="start" x="154" y="-18" font-family="Helvetica,sans-Serif" font-size="10.00">iot::IPSecManager::</text>
<text text-anchor="middle" x="225.5" y="-7" font-family="Helvetica,sans-Serif" font-size="10.00">shouldSecureCommunication</text>
</a>
</g>
</g>
<!-- Node1&#45;&gt;Node6 -->
<g id="edge6_Node000001_Node000006" class="edge">
<title>Node1&#45;&gt;Node6</title>
<g id="a_edge6_Node000001_Node000006"><a xlink:title=" ">
<path fill="none" stroke="#63b8ff" d="M110.24,-31.27C118.4,-30.11 126.99,-28.89 135.65,-27.66"/>
<polygon fill="#63b8ff" stroke="#63b8ff" points="136.41,-31.08 145.82,-26.21 135.43,-24.15 136.41,-31.08"/>
</a>
</g>
</g>
<!-- Node3 -->
<g id="Node000003" class="node">
<title>Node3</title>
<g id="a_Node000003"><a xlink:href="../../d6/dca/classiot_1_1IPSecManager.html#a74eda84da4166bb5bf13b5dd2b089aa7" target="_top" xlink:title=" ">
<polygon fill="white" stroke="#666666" points="490,-121 341,-121 341,-91 490,-91 490,-121"/>
<text text-anchor="start" x="349" y="-109" font-family="Helvetica,sans-Serif" font-size="10.00">iot::IPSecManager::</text>
<text text-anchor="middle" x="415.5" y="-98" font-family="Helvetica,sans-Serif" font-size="10.00">generateAuthenticationKey</text>
</a>
</g>
</g>
<!-- Node2&#45;&gt;Node3 -->
<g id="edge2_Node000002_Node000003" class="edge">
<title>Node2&#45;&gt;Node3</title>
<g id="a_edge2_Node000002_Node000003"><a xlink:title=" ">
<path fill="none" stroke="#63b8ff" d="M292.25,-78.04C307.28,-81.48 323.37,-85.16 338.78,-88.68"/>
<polygon fill="#63b8ff" stroke="#63b8ff" points="338.26,-92.15 348.78,-90.97 339.82,-85.33 338.26,-92.15"/>
</a>
</g>
</g>
<!-- Node4 -->
<g id="Node000004" class="node">
<title>Node4</title>
<g id="a_Node000004"><a xlink:href="../../d6/dca/classiot_1_1IPSecManager.html#aa52f0fe8895db00cf7be82ae45bf8a30" target="_top" xlink:title="Generate cryptographic keys.">
<polygon fill="white" stroke="#666666" points="656,-99 526,-99 526,-69 656,-69 656,-99"/>
<text text-anchor="start" x="534" y="-87" font-family="Helvetica,sans-Serif" font-size="10.00">iot::IPSecManager::</text>
<text text-anchor="middle" x="591" y="-76" font-family="Helvetica,sans-Serif" font-size="10.00">generateEncryptionKey</text>
</a>
</g>
</g>
<!-- Node2&#45;&gt;Node4 -->
<g id="edge4_Node000002_Node000004" class="edge">
<title>Node2&#45;&gt;Node4</title>
<g id="a_edge4_Node000002_Node000004"><a xlink:title=" ">
<path fill="none" stroke="#63b8ff" d="M297.02,-67.07C359.93,-70.71 451.72,-76.01 515.74,-79.71"/>
<polygon fill="#63b8ff" stroke="#63b8ff" points="515.59,-83.21 525.77,-80.29 515.99,-76.22 515.59,-83.21"/>
</a>
</g>
</g>
<!-- Node5 -->
<g id="Node000005" class="node">
<title>Node5</title>
<g id="a_Node000005"><a xlink:href="../../d6/dca/classiot_1_1IPSecManager.html#aaf507c4cebbe659141d5f4d3729f3a75" target="_top" xlink:title="Generate security parameter index.">
<polygon fill="white" stroke="#666666" points="470.5,-35 360.5,-35 360.5,-5 470.5,-5 470.5,-35"/>
<text text-anchor="start" x="368.5" y="-23" font-family="Helvetica,sans-Serif" font-size="10.00">iot::IPSecManager::</text>
<text text-anchor="middle" x="415.5" y="-12" font-family="Helvetica,sans-Serif" font-size="10.00">generateSPI</text>
</a>
</g>
</g>
<!-- Node2&#45;&gt;Node5 -->
<g id="edge5_Node000002_Node000005" class="edge">
<title>Node2&#45;&gt;Node5</title>
<g id="a_edge5_Node000002_Node000005"><a xlink:title=" ">
<path fill="none" stroke="#63b8ff" d="M292.25,-47.96C311.1,-43.65 331.62,-38.96 350.37,-34.67"/>
<polygon fill="#63b8ff" stroke="#63b8ff" points="351.32,-38.04 360.29,-32.4 349.76,-31.22 351.32,-38.04"/>
</a>
</g>
</g>
<!-- Node3&#45;&gt;Node4 -->
<g id="edge3_Node000003_Node000004" class="edge">
<title>Node3&#45;&gt;Node4</title>
<g id="a_edge3_Node000003_Node000004"><a xlink:title=" ">
<path fill="none" stroke="#63b8ff" d="M490.08,-96.67C498.64,-95.58 507.38,-94.48 515.95,-93.39"/>
<polygon fill="#63b8ff" stroke="#63b8ff" points="516.43,-96.86 525.91,-92.13 515.55,-89.91 516.43,-96.86"/>
</a>
</g>
</g>
</g>
</svg>
