<?xml version="1.0" encoding="UTF-8" standalone="no"?>
<!DOCTYPE svg PUBLIC "-//W3C//DTD SVG 1.1//EN"
 "http://www.w3.org/Graphics/SVG/1.1/DTD/svg11.dtd">
<!-- Generated by graphviz version 2.43.0 (0)
 -->
<!-- Title: iot::IPSecManager::generateEncryptionKey Pages: 1 -->
<svg width="648pt" height="95pt"
 viewBox="0.00 0.00 648.00 95.00" xmlns="http://www.w3.org/2000/svg" xmlns:xlink="http://www.w3.org/1999/xlink">
<g id="graph0" class="graph" transform="scale(1 1) rotate(0) translate(4 91)">
<title>iot::IPSecManager::generateEncryptionKey</title>
<!-- Node1 -->
<g id="Node000001" class="node">
<title>Node1</title>
<g id="a_Node000001"><a xlink:title="Generate cryptographic keys.">
<polygon fill="#999999" stroke="#666666" points="640,-54 510,-54 510,-24 640,-24 640,-54"/>
<text text-anchor="start" x="518" y="-42" font-family="Helvetica,sans-Serif" font-size="10.00">iot::IPSecManager::</text>
<text text-anchor="middle" x="575" y="-31" font-family="Helvetica,sans-Serif" font-size="10.00">generateEncryptionKey</text>
</a>
</g>
</g>
<!-- Node2 -->
<g id="Node000002" class="node">
<title>Node2</title>
<g id="a_Node000002"><a xlink:href="../../d6/dca/classiot_1_1IPSecManager.html#ad8c7440e7c5cc0a47bab2220a15f39b1" target="_top" xlink:title="Create a security association.">
<polygon fill="white" stroke="#666666" points="289,-87 146,-87 146,-57 289,-57 289,-87"/>
<text text-anchor="start" x="154" y="-75" font-family="Helvetica,sans-Serif" font-size="10.00">iot::IPSecManager::</text>
<text text-anchor="middle" x="217.5" y="-64" font-family="Helvetica,sans-Serif" font-size="10.00">createSecurityAssociation</text>
</a>
</g>
</g>
<!-- Node1&#45;&gt;Node2 -->
<g id="edge1_Node000001_Node000002" class="edge">
<title>Node1&#45;&gt;Node2</title>
<g id="a_edge1_Node000001_Node000002"><a xlink:title=" ">
<path fill="none" stroke="#63b8ff" d="M510.24,-56.31C498.28,-58.99 485.82,-61.39 474,-63 411.88,-71.46 340.53,-73.33 289.04,-73.3"/>
<polygon fill="#63b8ff" stroke="#63b8ff" points="511.19,-59.68 520.14,-54.02 509.61,-52.87 511.19,-59.68"/>
</a>
</g>
</g>
<!-- Node4 -->
<g id="Node000004" class="node">
<title>Node4</title>
<g id="a_Node000004"><a xlink:href="../../d6/dca/classiot_1_1IPSecManager.html#a3c19b574c49f2af4f6e45270e44fc585" target="_top" xlink:title="Encrypt and authenticate message (ESP simulation)">
<polygon fill="white" stroke="#666666" points="284.5,-30 150.5,-30 150.5,0 284.5,0 284.5,-30"/>
<text text-anchor="start" x="158.5" y="-18" font-family="Helvetica,sans-Serif" font-size="10.00">iot::IPSecManager::</text>
<text text-anchor="middle" x="217.5" y="-7" font-family="Helvetica,sans-Serif" font-size="10.00">encryptAndAuthenticate</text>
</a>
</g>
</g>
<!-- Node1&#45;&gt;Node4 -->
<g id="edge3_Node000001_Node000004" class="edge">
<title>Node1&#45;&gt;Node4</title>
<g id="a_edge3_Node000001_Node000004"><a xlink:title=" ">
<path fill="none" stroke="#63b8ff" d="M511.7,-21.66C499.3,-18.89 486.31,-16.46 474,-15 410.02,-7.43 336.39,-8.45 284.66,-10.75"/>
<polygon fill="#63b8ff" stroke="#63b8ff" points="510.95,-25.08 521.48,-23.94 512.54,-18.26 510.95,-25.08"/>
</a>
</g>
</g>
<!-- Node5 -->
<g id="Node000005" class="node">
<title>Node5</title>
<g id="a_Node000005"><a xlink:href="../../d6/dca/classiot_1_1IPSecManager.html#a74eda84da4166bb5bf13b5dd2b089aa7" target="_top" xlink:title=" ">
<polygon fill="white" stroke="#666666" points="474,-54 325,-54 325,-24 474,-24 474,-54"/>
<text text-anchor="start" x="333" y="-42" font-family="Helvetica,sans-Serif" font-size="10.00">iot::IPSecManager::</text>
<text text-anchor="middle" x="399.5" y="-31" font-family="Helvetica,sans-Serif" font-size="10.00">generateAuthenticationKey</text>
</a>
</g>
</g>
<!-- Node1&#45;&gt;Node5 -->
<g id="edge4_Node000001_Node000005" class="edge">
<title>Node1&#45;&gt;Node5</title>
<g id="a_edge4_Node000001_Node000005"><a xlink:title=" ">
<path fill="none" stroke="#63b8ff" d="M499.63,-39C491.14,-39 482.49,-39 474.01,-39"/>
<polygon fill="#63b8ff" stroke="#63b8ff" points="499.89,-42.5 509.89,-39 499.89,-35.5 499.89,-42.5"/>
</a>
</g>
</g>
<!-- Node3 -->
<g id="Node000003" class="node">
<title>Node3</title>
<g id="a_Node000003"><a xlink:href="../../d6/dca/classiot_1_1IPSecManager.html#a318effe286c238d0c92b6bc84155ada2" target="_top" xlink:title="Authenticate only (AH simulation)">
<polygon fill="white" stroke="#666666" points="110,-87 0,-87 0,-57 110,-57 110,-87"/>
<text text-anchor="start" x="8" y="-75" font-family="Helvetica,sans-Serif" font-size="10.00">iot::IPSecManager::</text>
<text text-anchor="middle" x="55" y="-64" font-family="Helvetica,sans-Serif" font-size="10.00">authenticateOnly</text>
</a>
</g>
</g>
<!-- Node2&#45;&gt;Node3 -->
<g id="edge2_Node000002_Node000003" class="edge">
<title>Node2&#45;&gt;Node3</title>
<g id="a_edge2_Node000002_Node000003"><a xlink:title=" ">
<path fill="none" stroke="#63b8ff" d="M135.53,-72C126.91,-72 118.3,-72 110.09,-72"/>
<polygon fill="#63b8ff" stroke="#63b8ff" points="135.64,-75.5 145.64,-72 135.64,-68.5 135.64,-75.5"/>
</a>
</g>
</g>
<!-- Node5&#45;&gt;Node2 -->
<g id="edge5_Node000005_Node000002" class="edge">
<title>Node5&#45;&gt;Node2</title>
<g id="a_edge5_Node000005_Node000002"><a xlink:title=" ">
<path fill="none" stroke="#63b8ff" d="M314.78,-54.35C306.23,-55.92 297.61,-57.5 289.21,-59.04"/>
<polygon fill="#63b8ff" stroke="#63b8ff" points="315.56,-57.76 324.77,-52.52 314.3,-50.88 315.56,-57.76"/>
</a>
</g>
</g>
<!-- Node5&#45;&gt;Node4 -->
<g id="edge6_Node000005_Node000004" class="edge">
<title>Node5&#45;&gt;Node4</title>
<g id="a_edge6_Node000005_Node000004"><a xlink:title=" ">
<path fill="none" stroke="#63b8ff" d="M314.72,-27.83C304.62,-26.48 294.41,-25.12 284.61,-23.81"/>
<polygon fill="#63b8ff" stroke="#63b8ff" points="314.39,-31.32 324.77,-29.17 315.32,-24.38 314.39,-31.32"/>
</a>
</g>
</g>
</g>
</svg>
