<?xml version="1.0" encoding="UTF-8" standalone="no"?>
<!DOCTYPE svg PUBLIC "-//W3C//DTD SVG 1.1//EN"
 "http://www.w3.org/Graphics/SVG/1.1/DTD/svg11.dtd">
<!-- Generated by graphviz version 2.43.0 (0)
 -->
<!-- Title: iot::IPSecManager::createSecurityAssociation Pages: 1 -->
<svg width="502pt" height="124pt"
 viewBox="0.00 0.00 502.00 124.00" xmlns="http://www.w3.org/2000/svg" xmlns:xlink="http://www.w3.org/1999/xlink">
<g id="graph0" class="graph" transform="scale(1 1) rotate(0) translate(4 120)">
<title>iot::IPSecManager::createSecurityAssociation</title>
<!-- Node1 -->
<g id="Node000001" class="node">
<title>Node1</title>
<g id="a_Node000001"><a xlink:title="Create a security association.">
<polygon fill="#999999" stroke="#666666" points="143,-73 0,-73 0,-43 143,-43 143,-73"/>
<text text-anchor="start" x="8" y="-61" font-family="Helvetica,sans-Serif" font-size="10.00">iot::IPSecManager::</text>
<text text-anchor="middle" x="71.5" y="-50" font-family="Helvetica,sans-Serif" font-size="10.00">createSecurityAssociation</text>
</a>
</g>
</g>
<!-- Node2 -->
<g id="Node000002" class="node">
<title>Node2</title>
<g id="a_Node000002"><a xlink:href="../../d6/dca/classiot_1_1IPSecManager.html#a74eda84da4166bb5bf13b5dd2b089aa7" target="_top" xlink:title=" ">
<polygon fill="white" stroke="#666666" points="328,-116 179,-116 179,-86 328,-86 328,-116"/>
<text text-anchor="start" x="187" y="-104" font-family="Helvetica,sans-Serif" font-size="10.00">iot::IPSecManager::</text>
<text text-anchor="middle" x="253.5" y="-93" font-family="Helvetica,sans-Serif" font-size="10.00">generateAuthenticationKey</text>
</a>
</g>
</g>
<!-- Node1&#45;&gt;Node2 -->
<g id="edge1_Node000001_Node000002" class="edge">
<title>Node1&#45;&gt;Node2</title>
<g id="a_edge1_Node000001_Node000002"><a xlink:title=" ">
<path fill="none" stroke="#63b8ff" d="M135.46,-73.04C149.71,-76.44 164.95,-80.09 179.58,-83.58"/>
<polygon fill="#63b8ff" stroke="#63b8ff" points="179.04,-87.05 189.58,-85.97 180.67,-80.24 179.04,-87.05"/>
</a>
</g>
</g>
<!-- Node3 -->
<g id="Node000003" class="node">
<title>Node3</title>
<g id="a_Node000003"><a xlink:href="../../d6/dca/classiot_1_1IPSecManager.html#aa52f0fe8895db00cf7be82ae45bf8a30" target="_top" xlink:title="Generate cryptographic keys.">
<polygon fill="white" stroke="#666666" points="494,-94 364,-94 364,-64 494,-64 494,-94"/>
<text text-anchor="start" x="372" y="-82" font-family="Helvetica,sans-Serif" font-size="10.00">iot::IPSecManager::</text>
<text text-anchor="middle" x="429" y="-71" font-family="Helvetica,sans-Serif" font-size="10.00">generateEncryptionKey</text>
</a>
</g>
</g>
<!-- Node1&#45;&gt;Node3 -->
<g id="edge3_Node000001_Node000003" class="edge">
<title>Node1&#45;&gt;Node3</title>
<g id="a_edge3_Node000001_Node000003"><a xlink:title=" ">
<path fill="none" stroke="#63b8ff" d="M143.16,-62.17C204.06,-65.77 291.7,-70.95 353.65,-74.61"/>
<polygon fill="#63b8ff" stroke="#63b8ff" points="353.56,-78.11 363.75,-75.2 353.97,-71.12 353.56,-78.11"/>
</a>
</g>
</g>
<!-- Node4 -->
<g id="Node000004" class="node">
<title>Node4</title>
<g id="a_Node000004"><a xlink:href="../../d6/dca/classiot_1_1IPSecManager.html#aaf507c4cebbe659141d5f4d3729f3a75" target="_top" xlink:title="Generate security parameter index.">
<polygon fill="white" stroke="#666666" points="308.5,-30 198.5,-30 198.5,0 308.5,0 308.5,-30"/>
<text text-anchor="start" x="206.5" y="-18" font-family="Helvetica,sans-Serif" font-size="10.00">iot::IPSecManager::</text>
<text text-anchor="middle" x="253.5" y="-7" font-family="Helvetica,sans-Serif" font-size="10.00">generateSPI</text>
</a>
</g>
</g>
<!-- Node1&#45;&gt;Node4 -->
<g id="edge4_Node000001_Node000004" class="edge">
<title>Node1&#45;&gt;Node4</title>
<g id="a_edge4_Node000001_Node000004"><a xlink:title=" ">
<path fill="none" stroke="#63b8ff" d="M135.46,-42.96C152.57,-38.87 171.13,-34.44 188.32,-30.33"/>
<polygon fill="#63b8ff" stroke="#63b8ff" points="189.34,-33.69 198.26,-27.96 187.72,-26.88 189.34,-33.69"/>
</a>
</g>
</g>
<!-- Node2&#45;&gt;Node3 -->
<g id="edge2_Node000002_Node000003" class="edge">
<title>Node2&#45;&gt;Node3</title>
<g id="a_edge2_Node000002_Node000003"><a xlink:title=" ">
<path fill="none" stroke="#63b8ff" d="M328.08,-91.67C336.64,-90.58 345.38,-89.48 353.95,-88.39"/>
<polygon fill="#63b8ff" stroke="#63b8ff" points="354.43,-91.86 363.91,-87.13 353.55,-84.91 354.43,-91.86"/>
</a>
</g>
</g>
</g>
</svg>
