<?xml version="1.0" encoding="UTF-8" standalone="no"?>
<!DOCTYPE svg PUBLIC "-//W3C//DTD SVG 1.1//EN"
 "http://www.w3.org/Graphics/SVG/1.1/DTD/svg11.dtd">
<!-- Generated by graphviz version 2.43.0 (0)
 -->
<!-- Title: iot::IPSecManager::generateAuthenticationKey Pages: 1 -->
<svg width="482pt" height="86pt"
 viewBox="0.00 0.00 482.00 86.00" xmlns="http://www.w3.org/2000/svg" xmlns:xlink="http://www.w3.org/1999/xlink">
<g id="graph0" class="graph" transform="scale(1 1) rotate(0) translate(4 82)">
<title>iot::IPSecManager::generateAuthenticationKey</title>
<!-- Node1 -->
<g id="Node000001" class="node">
<title>Node1</title>
<g id="a_Node000001"><a xlink:title=" ">
<polygon fill="#999999" stroke="#666666" points="474,-54 325,-54 325,-24 474,-24 474,-54"/>
<text text-anchor="start" x="333" y="-42" font-family="Helvetica,sans-Serif" font-size="10.00">iot::IPSecManager::</text>
<text text-anchor="middle" x="399.5" y="-31" font-family="Helvetica,sans-Serif" font-size="10.00">generateAuthenticationKey</text>
</a>
</g>
</g>
<!-- Node2 -->
<g id="Node000002" class="node">
<title>Node2</title>
<g id="a_Node000002"><a xlink:href="../../d6/dca/classiot_1_1IPSecManager.html#ad8c7440e7c5cc0a47bab2220a15f39b1" target="_top" xlink:title="Create a security association.">
<polygon fill="white" stroke="#666666" points="289,-78 146,-78 146,-48 289,-48 289,-78"/>
<text text-anchor="start" x="154" y="-66" font-family="Helvetica,sans-Serif" font-size="10.00">iot::IPSecManager::</text>
<text text-anchor="middle" x="217.5" y="-55" font-family="Helvetica,sans-Serif" font-size="10.00">createSecurityAssociation</text>
</a>
</g>
</g>
<!-- Node1&#45;&gt;Node2 -->
<g id="edge1_Node000001_Node000002" class="edge">
<title>Node1&#45;&gt;Node2</title>
<g id="a_edge1_Node000001_Node000002"><a xlink:title=" ">
<path fill="none" stroke="#63b8ff" d="M314.78,-50.16C306.23,-51.3 297.61,-52.45 289.21,-53.57"/>
<polygon fill="#63b8ff" stroke="#63b8ff" points="315.32,-53.62 324.77,-48.83 314.39,-46.68 315.32,-53.62"/>
</a>
</g>
</g>
<!-- Node4 -->
<g id="Node000004" class="node">
<title>Node4</title>
<g id="a_Node000004"><a xlink:href="../../d6/dca/classiot_1_1IPSecManager.html#a3c19b574c49f2af4f6e45270e44fc585" target="_top" xlink:title="Encrypt and authenticate message (ESP simulation)">
<polygon fill="white" stroke="#666666" points="284.5,-30 150.5,-30 150.5,0 284.5,0 284.5,-30"/>
<text text-anchor="start" x="158.5" y="-18" font-family="Helvetica,sans-Serif" font-size="10.00">iot::IPSecManager::</text>
<text text-anchor="middle" x="217.5" y="-7" font-family="Helvetica,sans-Serif" font-size="10.00">encryptAndAuthenticate</text>
</a>
</g>
</g>
<!-- Node1&#45;&gt;Node4 -->
<g id="edge3_Node000001_Node000004" class="edge">
<title>Node1&#45;&gt;Node4</title>
<g id="a_edge3_Node000001_Node000004"><a xlink:title=" ">
<path fill="none" stroke="#63b8ff" d="M314.72,-27.83C304.62,-26.48 294.41,-25.12 284.61,-23.81"/>
<polygon fill="#63b8ff" stroke="#63b8ff" points="314.39,-31.32 324.77,-29.17 315.32,-24.38 314.39,-31.32"/>
</a>
</g>
</g>
<!-- Node3 -->
<g id="Node000003" class="node">
<title>Node3</title>
<g id="a_Node000003"><a xlink:href="../../d6/dca/classiot_1_1IPSecManager.html#a318effe286c238d0c92b6bc84155ada2" target="_top" xlink:title="Authenticate only (AH simulation)">
<polygon fill="white" stroke="#666666" points="110,-78 0,-78 0,-48 110,-48 110,-78"/>
<text text-anchor="start" x="8" y="-66" font-family="Helvetica,sans-Serif" font-size="10.00">iot::IPSecManager::</text>
<text text-anchor="middle" x="55" y="-55" font-family="Helvetica,sans-Serif" font-size="10.00">authenticateOnly</text>
</a>
</g>
</g>
<!-- Node2&#45;&gt;Node3 -->
<g id="edge2_Node000002_Node000003" class="edge">
<title>Node2&#45;&gt;Node3</title>
<g id="a_edge2_Node000002_Node000003"><a xlink:title=" ">
<path fill="none" stroke="#63b8ff" d="M135.53,-63C126.91,-63 118.3,-63 110.09,-63"/>
<polygon fill="#63b8ff" stroke="#63b8ff" points="135.64,-66.5 145.64,-63 135.64,-59.5 135.64,-66.5"/>
</a>
</g>
</g>
</g>
</svg>
