<?xml version="1.0" encoding="UTF-8" standalone="no"?>
<!DOCTYPE svg PUBLIC "-//W3C//DTD SVG 1.1//EN"
 "http://www.w3.org/Graphics/SVG/1.1/DTD/svg11.dtd">
<!-- Generated by graphviz version 2.43.0 (0)
 -->
<!-- Title: iot::IPSecManager::shouldSecureCommunication Pages: 1 -->
<svg width="337pt" height="86pt"
 viewBox="0.00 0.00 337.00 86.00" xmlns="http://www.w3.org/2000/svg" xmlns:xlink="http://www.w3.org/1999/xlink">
<g id="graph0" class="graph" transform="scale(1 1) rotate(0) translate(4 82)">
<title>iot::IPSecManager::shouldSecureCommunication</title>
<!-- Node1 -->
<g id="Node000001" class="node">
<title>Node1</title>
<g id="a_Node000001"><a xlink:title="Check if communication should be secured.">
<polygon fill="#999999" stroke="#666666" points="329,-54 170,-54 170,-24 329,-24 329,-54"/>
<text text-anchor="start" x="178" y="-42" font-family="Helvetica,sans-Serif" font-size="10.00">iot::IPSecManager::</text>
<text text-anchor="middle" x="249.5" y="-31" font-family="Helvetica,sans-Serif" font-size="10.00">shouldSecureCommunication</text>
</a>
</g>
</g>
<!-- Node2 -->
<g id="Node000002" class="node">
<title>Node2</title>
<g id="a_Node000002"><a xlink:href="../../d6/dca/classiot_1_1IPSecManager.html#a318effe286c238d0c92b6bc84155ada2" target="_top" xlink:title="Authenticate only (AH simulation)">
<polygon fill="white" stroke="#666666" points="122,-78 12,-78 12,-48 122,-48 122,-78"/>
<text text-anchor="start" x="20" y="-66" font-family="Helvetica,sans-Serif" font-size="10.00">iot::IPSecManager::</text>
<text text-anchor="middle" x="67" y="-55" font-family="Helvetica,sans-Serif" font-size="10.00">authenticateOnly</text>
</a>
</g>
</g>
<!-- Node1&#45;&gt;Node2 -->
<g id="edge1_Node000001_Node000002" class="edge">
<title>Node1&#45;&gt;Node2</title>
<g id="a_edge1_Node000001_Node000002"><a xlink:title=" ">
<path fill="none" stroke="#63b8ff" d="M159.59,-50.82C146.75,-52.53 133.88,-54.24 122.01,-55.82"/>
<polygon fill="#63b8ff" stroke="#63b8ff" points="160.4,-54.24 169.86,-49.46 159.48,-47.31 160.4,-54.24"/>
</a>
</g>
</g>
<!-- Node3 -->
<g id="Node000003" class="node">
<title>Node3</title>
<g id="a_Node000003"><a xlink:href="../../d6/dca/classiot_1_1IPSecManager.html#a3c19b574c49f2af4f6e45270e44fc585" target="_top" xlink:title="Encrypt and authenticate message (ESP simulation)">
<polygon fill="white" stroke="#666666" points="134,-30 0,-30 0,0 134,0 134,-30"/>
<text text-anchor="start" x="8" y="-18" font-family="Helvetica,sans-Serif" font-size="10.00">iot::IPSecManager::</text>
<text text-anchor="middle" x="67" y="-7" font-family="Helvetica,sans-Serif" font-size="10.00">encryptAndAuthenticate</text>
</a>
</g>
</g>
<!-- Node1&#45;&gt;Node3 -->
<g id="edge2_Node000001_Node000003" class="edge">
<title>Node1&#45;&gt;Node3</title>
<g id="a_edge2_Node000001_Node000003"><a xlink:title=" ">
<path fill="none" stroke="#63b8ff" d="M159.79,-27.2C151.19,-26.06 142.58,-24.92 134.25,-23.81"/>
<polygon fill="#63b8ff" stroke="#63b8ff" points="159.48,-30.69 169.86,-28.54 160.4,-23.76 159.48,-30.69"/>
</a>
</g>
</g>
</g>
</svg>
