<?xml version="1.0" encoding="UTF-8" standalone="no"?>
<!DOCTYPE svg PUBLIC "-//W3C//DTD SVG 1.1//EN"
 "http://www.w3.org/Graphics/SVG/1.1/DTD/svg11.dtd">
<!-- Generated by graphviz version 2.43.0 (0)
 -->
<!-- Title: src/network/NetworkManager.cpp Pages: 1 -->
<svg width="898pt" height="324pt"
 viewBox="0.00 0.00 898.00 324.00" xmlns="http://www.w3.org/2000/svg" xmlns:xlink="http://www.w3.org/1999/xlink">
<g id="graph0" class="graph" transform="scale(1 1) rotate(0) translate(4 320)">
<title>src/network/NetworkManager.cpp</title>
<!-- Node1 -->
<g id="Node000001" class="node">
<title>Node1</title>
<g id="a_Node000001"><a xlink:title=" ">
<polygon fill="#999999" stroke="#666666" points="736,-316 556,-316 556,-297 736,-297 736,-316"/>
<text text-anchor="middle" x="646" y="-304" font-family="Helvetica,sans-Serif" font-size="10.00">src/network/NetworkManager.cpp</text>
</a>
</g>
</g>
<!-- Node2 -->
<g id="Node000002" class="node">
<title>Node2</title>
<g id="a_Node000002"><a xlink:href="../../dd/d6c/NetworkManager_8h.html" target="_top" xlink:title=" ">
<polygon fill="white" stroke="#666666" points="504.5,-195 391.5,-195 391.5,-165 504.5,-165 504.5,-195"/>
<text text-anchor="start" x="399.5" y="-183" font-family="Helvetica,sans-Serif" font-size="10.00">../../include/network</text>
<text text-anchor="middle" x="448" y="-172" font-family="Helvetica,sans-Serif" font-size="10.00">/NetworkManager.h</text>
</a>
</g>
</g>
<!-- Node1&#45;&gt;Node2 -->
<g id="edge1_Node000001_Node000002" class="edge">
<title>Node1&#45;&gt;Node2</title>
<g id="a_edge1_Node000001_Node000002"><a xlink:title=" ">
<path fill="none" stroke="#63b8ff" d="M583.44,-296.96C538.59,-289.59 483.33,-277.5 467,-261 452.61,-246.46 448.38,-223.14 447.44,-205.42"/>
<polygon fill="#63b8ff" stroke="#63b8ff" points="450.93,-205.16 447.22,-195.24 443.94,-205.31 450.93,-205.16"/>
</a>
</g>
</g>
<!-- Node5 -->
<g id="Node000005" class="node">
<title>Node5</title>
<g id="a_Node000005"><a xlink:title=" ">
<polygon fill="#e0e0e0" stroke="#999999" points="114,-19 64,-19 64,0 114,0 114,-19"/>
<text text-anchor="middle" x="89" y="-7" font-family="Helvetica,sans-Serif" font-size="10.00">chrono</text>
</a>
</g>
</g>
<!-- Node1&#45;&gt;Node5 -->
<g id="edge35_Node000001_Node000005" class="edge">
<title>Node1&#45;&gt;Node5</title>
<g id="a_edge35_Node000001_Node000005"><a xlink:title=" ">
<path fill="none" stroke="#63b8ff" d="M555.84,-297.38C378.19,-280.16 0,-236.93 0,-181 0,-181 0,-181 0,-118.5 0,-77.03 39.57,-42.84 65.94,-24.67"/>
<polygon fill="#63b8ff" stroke="#63b8ff" points="67.9,-27.57 74.3,-19.13 64.03,-21.73 67.9,-27.57"/>
</a>
</g>
</g>
<!-- Node15 -->
<g id="Node000015" class="node">
<title>Node15</title>
<g id="a_Node000015"><a xlink:title=" ">
<polygon fill="#e0e0e0" stroke="#999999" points="807,-129 759,-129 759,-110 807,-110 807,-129"/>
<text text-anchor="middle" x="783" y="-117" font-family="Helvetica,sans-Serif" font-size="10.00">thread</text>
</a>
</g>
</g>
<!-- Node1&#45;&gt;Node15 -->
<g id="edge34_Node000001_Node000015" class="edge">
<title>Node1&#45;&gt;Node15</title>
<g id="a_edge34_Node000001_Node000015"><a xlink:title=" ">
<path fill="none" stroke="#63b8ff" d="M646.65,-296.63C648.06,-282.02 652.36,-252.37 665,-231 689.64,-189.33 734.65,-153.64 761.39,-134.8"/>
<polygon fill="#63b8ff" stroke="#63b8ff" points="763.46,-137.63 769.7,-129.07 759.48,-131.86 763.46,-137.63"/>
</a>
</g>
</g>
<!-- Node17 -->
<g id="Node000017" class="node">
<title>Node17</title>
<g id="a_Node000017"><a xlink:href="../../de/d44/ProtocolCharacteristics_8h.html" target="_top" xlink:title=" ">
<polygon fill="white" stroke="#666666" points="617.5,-261 476.5,-261 476.5,-231 617.5,-231 617.5,-261"/>
<text text-anchor="start" x="484.5" y="-249" font-family="Helvetica,sans-Serif" font-size="10.00">../../include/network</text>
<text text-anchor="middle" x="547" y="-238" font-family="Helvetica,sans-Serif" font-size="10.00">/ProtocolCharacteristics.h</text>
</a>
</g>
</g>
<!-- Node1&#45;&gt;Node17 -->
<g id="edge29_Node000001_Node000017" class="edge">
<title>Node1&#45;&gt;Node17</title>
<g id="a_edge29_Node000001_Node000017"><a xlink:title=" ">
<path fill="none" stroke="#63b8ff" d="M631.39,-296.87C617.83,-288.86 597.17,-276.65 579.69,-266.31"/>
<polygon fill="#63b8ff" stroke="#63b8ff" points="581.28,-263.19 570.89,-261.11 577.71,-269.22 581.28,-263.19"/>
</a>
</g>
</g>
<!-- Node18 -->
<g id="Node000018" class="node">
<title>Node18</title>
<g id="a_Node000018"><a xlink:title=" ">
<polygon fill="#e0e0e0" stroke="#999999" points="734,-255.5 674,-255.5 674,-236.5 734,-236.5 734,-255.5"/>
<text text-anchor="middle" x="704" y="-243.5" font-family="Helvetica,sans-Serif" font-size="10.00">iostream</text>
</a>
</g>
</g>
<!-- Node1&#45;&gt;Node18 -->
<g id="edge32_Node000001_Node000018" class="edge">
<title>Node1&#45;&gt;Node18</title>
<g id="a_edge32_Node000001_Node000018"><a xlink:title=" ">
<path fill="none" stroke="#63b8ff" d="M654.56,-296.87C663.38,-287.97 677.34,-273.89 688.18,-262.95"/>
<polygon fill="#63b8ff" stroke="#63b8ff" points="690.85,-265.23 695.41,-255.67 685.88,-260.3 690.85,-265.23"/>
</a>
</g>
</g>
<!-- Node19 -->
<g id="Node000019" class="node">
<title>Node19</title>
<g id="a_Node000019"><a xlink:title=" ">
<polygon fill="#e0e0e0" stroke="#999999" points="816,-255.5 752,-255.5 752,-236.5 816,-236.5 816,-255.5"/>
<text text-anchor="middle" x="784" y="-243.5" font-family="Helvetica,sans-Serif" font-size="10.00">algorithm</text>
</a>
</g>
</g>
<!-- Node1&#45;&gt;Node19 -->
<g id="edge33_Node000001_Node000019" class="edge">
<title>Node1&#45;&gt;Node19</title>
<g id="a_edge33_Node000001_Node000019"><a xlink:title=" ">
<path fill="none" stroke="#63b8ff" d="M666.07,-296.99C689.37,-287.12 728.01,-270.73 754.68,-259.43"/>
<polygon fill="#63b8ff" stroke="#63b8ff" points="756.07,-262.64 763.91,-255.52 753.34,-256.2 756.07,-262.64"/>
</a>
</g>
</g>
<!-- Node20 -->
<g id="Node000020" class="node">
<title>Node20</title>
<g id="a_Node000020"><a xlink:title=" ">
<polygon fill="#e0e0e0" stroke="#999999" points="890,-255.5 834,-255.5 834,-236.5 890,-236.5 890,-255.5"/>
<text text-anchor="middle" x="862" y="-243.5" font-family="Helvetica,sans-Serif" font-size="10.00">iomanip</text>
</a>
</g>
</g>
<!-- Node1&#45;&gt;Node20 -->
<g id="edge36_Node000001_Node000020" class="edge">
<title>Node1&#45;&gt;Node20</title>
<g id="a_edge36_Node000001_Node000020"><a xlink:title=" ">
<path fill="none" stroke="#63b8ff" d="M686.19,-296.94C722.71,-288.82 777.93,-275.7 825,-261 826.92,-260.4 828.88,-259.76 830.85,-259.08"/>
<polygon fill="#63b8ff" stroke="#63b8ff" points="832.4,-262.25 840.63,-255.58 830.03,-255.66 832.4,-262.25"/>
</a>
</g>
</g>
<!-- Node3 -->
<g id="Node000003" class="node">
<title>Node3</title>
<g id="a_Node000003"><a xlink:href="../../d5/dca/Message_8h.html" target="_top" xlink:title=" ">
<polygon fill="white" stroke="#666666" points="627,-74 525,-74 525,-55 627,-55 627,-74"/>
<text text-anchor="middle" x="576" y="-62" font-family="Helvetica,sans-Serif" font-size="10.00">../core/Message.h</text>
</a>
</g>
</g>
<!-- Node2&#45;&gt;Node3 -->
<g id="edge2_Node000002_Node000003" class="edge">
<title>Node2&#45;&gt;Node3</title>
<g id="a_edge2_Node000002_Node000003"><a xlink:title=" ">
<path fill="none" stroke="#63b8ff" d="M504.69,-174.42C564.56,-168.27 653.15,-154.97 674,-129 693,-105.33 656.26,-87.63 622.47,-77.01"/>
<polygon fill="#63b8ff" stroke="#63b8ff" points="623.19,-73.57 612.61,-74.07 621.2,-80.28 623.19,-73.57"/>
</a>
</g>
</g>
<!-- Node2&#45;&gt;Node5 -->
<g id="edge27_Node000002_Node000005" class="edge">
<title>Node2&#45;&gt;Node5</title>
<g id="a_edge27_Node000002_Node000005"><a xlink:title=" ">
<path fill="none" stroke="#63b8ff" d="M391.38,-175.84C288.33,-169.49 78.73,-153.69 57,-129 31.42,-99.94 58.27,-52.44 76.01,-27.31"/>
<polygon fill="#63b8ff" stroke="#63b8ff" points="78.91,-29.27 82.02,-19.14 73.27,-25.12 78.91,-29.27"/>
</a>
</g>
</g>
<!-- Node6 -->
<g id="Node000006" class="node">
<title>Node6</title>
<g id="a_Node000006"><a xlink:title=" ">
<polygon fill="#e0e0e0" stroke="#999999" points="653,-19 615,-19 615,0 653,0 653,-19"/>
<text text-anchor="middle" x="634" y="-7" font-family="Helvetica,sans-Serif" font-size="10.00">map</text>
</a>
</g>
</g>
<!-- Node2&#45;&gt;Node6 -->
<g id="edge28_Node000002_Node000006" class="edge">
<title>Node2&#45;&gt;Node6</title>
<g id="a_edge28_Node000002_Node000006"><a xlink:title=" ">
<path fill="none" stroke="#63b8ff" d="M504.64,-175.36C568.68,-169.93 667.07,-157.15 690,-129 716.32,-96.68 676.3,-49.94 651.41,-25.97"/>
<polygon fill="#63b8ff" stroke="#63b8ff" points="653.66,-23.28 643.96,-19.03 648.89,-28.41 653.66,-23.28"/>
</a>
</g>
</g>
<!-- Node7 -->
<g id="Node000007" class="node">
<title>Node7</title>
<g id="a_Node000007"><a xlink:href="../../da/dcc/DeviceManager_8h.html" target="_top" xlink:title=" ">
<polygon fill="white" stroke="#666666" points="200,-129 66,-129 66,-110 200,-110 200,-129"/>
<text text-anchor="middle" x="133" y="-117" font-family="Helvetica,sans-Serif" font-size="10.00">../core/DeviceManager.h</text>
</a>
</g>
</g>
<!-- Node2&#45;&gt;Node7 -->
<g id="edge6_Node000002_Node000007" class="edge">
<title>Node2&#45;&gt;Node7</title>
<g id="a_edge6_Node000002_Node000007"><a xlink:title=" ">
<path fill="none" stroke="#63b8ff" d="M391.32,-168.47C334.01,-157.83 245.96,-141.48 188.92,-130.89"/>
<polygon fill="#63b8ff" stroke="#63b8ff" points="189.47,-127.43 179,-129.04 188.19,-134.31 189.47,-127.43"/>
</a>
</g>
</g>
<!-- Node11 -->
<g id="Node000011" class="node">
<title>Node11</title>
<g id="a_Node000011"><a xlink:title=" ">
<polygon fill="#e0e0e0" stroke="#999999" points="391,-74 343,-74 343,-55 391,-55 391,-74"/>
<text text-anchor="middle" x="367" y="-62" font-family="Helvetica,sans-Serif" font-size="10.00">mutex</text>
</a>
</g>
</g>
<!-- Node2&#45;&gt;Node11 -->
<g id="edge23_Node000002_Node000011" class="edge">
<title>Node2&#45;&gt;Node11</title>
<g id="a_edge23_Node000002_Node000011"><a xlink:title=" ">
<path fill="none" stroke="#63b8ff" d="M391.38,-172.67C338.34,-165.44 264.66,-151.59 247,-129 241.8,-122.35 242.18,-116.93 247,-110 257.13,-95.43 301.33,-81.72 333.14,-73.47"/>
<polygon fill="#63b8ff" stroke="#63b8ff" points="334.14,-76.83 342.98,-70.99 332.43,-70.04 334.14,-76.83"/>
</a>
</g>
</g>
<!-- Node12 -->
<g id="Node000012" class="node">
<title>Node12</title>
<g id="a_Node000012"><a xlink:href="../../d1/de8/IPSecManager_8h.html" target="_top" xlink:title=" ">
<polygon fill="white" stroke="#666666" points="664.5,-129 519.5,-129 519.5,-110 664.5,-110 664.5,-129"/>
<text text-anchor="middle" x="592" y="-117" font-family="Helvetica,sans-Serif" font-size="10.00">../security/IPSecManager.h</text>
</a>
</g>
</g>
<!-- Node2&#45;&gt;Node12 -->
<g id="edge16_Node000002_Node000012" class="edge">
<title>Node2&#45;&gt;Node12</title>
<g id="a_edge16_Node000002_Node000012"><a xlink:title=" ">
<path fill="none" stroke="#63b8ff" d="M482.49,-164.99C506.52,-155.23 538.27,-142.33 561.4,-132.93"/>
<polygon fill="#63b8ff" stroke="#63b8ff" points="562.79,-136.15 570.73,-129.14 560.15,-129.66 562.79,-136.15"/>
</a>
</g>
</g>
<!-- Node13 -->
<g id="Node000013" class="node">
<title>Node13</title>
<g id="a_Node000013"><a xlink:title=" ">
<polygon fill="#e0e0e0" stroke="#999999" points="303.5,-129 256.5,-129 256.5,-110 303.5,-110 303.5,-129"/>
<text text-anchor="middle" x="280" y="-117" font-family="Helvetica,sans-Serif" font-size="10.00">queue</text>
</a>
</g>
</g>
<!-- Node2&#45;&gt;Node13 -->
<g id="edge22_Node000002_Node000013" class="edge">
<title>Node2&#45;&gt;Node13</title>
<g id="a_edge22_Node000002_Node000013"><a xlink:title=" ">
<path fill="none" stroke="#63b8ff" d="M407.76,-164.99C378.88,-154.93 340.44,-141.54 313.29,-132.09"/>
<polygon fill="#63b8ff" stroke="#63b8ff" points="314.43,-128.78 303.83,-128.8 312.12,-135.39 314.43,-128.78"/>
</a>
</g>
</g>
<!-- Node14 -->
<g id="Node000014" class="node">
<title>Node14</title>
<g id="a_Node000014"><a xlink:title=" ">
<polygon fill="#e0e0e0" stroke="#999999" points="376,-129 322,-129 322,-110 376,-110 376,-129"/>
<text text-anchor="middle" x="349" y="-117" font-family="Helvetica,sans-Serif" font-size="10.00">random</text>
</a>
</g>
</g>
<!-- Node2&#45;&gt;Node14 -->
<g id="edge24_Node000002_Node000014" class="edge">
<title>Node2&#45;&gt;Node14</title>
<g id="a_edge24_Node000002_Node000014"><a xlink:title=" ">
<path fill="none" stroke="#63b8ff" d="M424.29,-164.99C408.65,-155.75 388.26,-143.7 372.64,-134.47"/>
<polygon fill="#63b8ff" stroke="#63b8ff" points="374.01,-131.21 363.62,-129.14 370.45,-137.24 374.01,-131.21"/>
</a>
</g>
</g>
<!-- Node2&#45;&gt;Node15 -->
<g id="edge25_Node000002_Node000015" class="edge">
<title>Node2&#45;&gt;Node15</title>
<g id="a_edge25_Node000002_Node000015"><a xlink:title=" ">
<path fill="none" stroke="#63b8ff" d="M504.55,-170.4C564.42,-161.08 661.62,-145.33 745,-129 746.27,-128.75 747.56,-128.49 748.86,-128.23"/>
<polygon fill="#63b8ff" stroke="#63b8ff" points="749.86,-131.59 758.92,-126.09 748.41,-124.74 749.86,-131.59"/>
</a>
</g>
</g>
<!-- Node16 -->
<g id="Node000016" class="node">
<title>Node16</title>
<g id="a_Node000016"><a xlink:title=" ">
<polygon fill="#e0e0e0" stroke="#999999" points="501.5,-129 394.5,-129 394.5,-110 501.5,-110 501.5,-129"/>
<text text-anchor="middle" x="448" y="-117" font-family="Helvetica,sans-Serif" font-size="10.00">condition_variable</text>
</a>
</g>
</g>
<!-- Node2&#45;&gt;Node16 -->
<g id="edge26_Node000002_Node000016" class="edge">
<title>Node2&#45;&gt;Node16</title>
<g id="a_edge26_Node000002_Node000016"><a xlink:title=" ">
<path fill="none" stroke="#63b8ff" d="M448,-164.84C448,-157.21 448,-147.7 448,-139.45"/>
<polygon fill="#63b8ff" stroke="#63b8ff" points="451.5,-139.27 448,-129.27 444.5,-139.27 451.5,-139.27"/>
</a>
</g>
</g>
<!-- Node4 -->
<g id="Node000004" class="node">
<title>Node4</title>
<g id="a_Node000004"><a xlink:title=" ">
<polygon fill="#e0e0e0" stroke="#999999" points="519,-19 475,-19 475,0 519,0 519,-19"/>
<text text-anchor="middle" x="497" y="-7" font-family="Helvetica,sans-Serif" font-size="10.00">string</text>
</a>
</g>
</g>
<!-- Node3&#45;&gt;Node4 -->
<g id="edge3_Node000003_Node000004" class="edge">
<title>Node3&#45;&gt;Node4</title>
<g id="a_edge3_Node000003_Node000004"><a xlink:title=" ">
<path fill="none" stroke="#63b8ff" d="M563.31,-54.98C551.17,-46.84 532.64,-34.41 518.25,-24.76"/>
<polygon fill="#63b8ff" stroke="#63b8ff" points="520.18,-21.84 509.92,-19.17 516.28,-27.65 520.18,-21.84"/>
</a>
</g>
</g>
<!-- Node3&#45;&gt;Node5 -->
<g id="edge4_Node000003_Node000005" class="edge">
<title>Node3&#45;&gt;Node5</title>
<g id="a_edge4_Node000003_Node000005"><a xlink:title=" ">
<path fill="none" stroke="#63b8ff" d="M524.8,-57.93C425.5,-47.12 209.07,-23.57 124.17,-14.33"/>
<polygon fill="#63b8ff" stroke="#63b8ff" points="124.34,-10.83 114.02,-13.22 123.58,-17.78 124.34,-10.83"/>
</a>
</g>
</g>
<!-- Node3&#45;&gt;Node6 -->
<g id="edge5_Node000003_Node000006" class="edge">
<title>Node3&#45;&gt;Node6</title>
<g id="a_edge5_Node000003_Node000006"><a xlink:title=" ">
<path fill="none" stroke="#63b8ff" d="M585.32,-54.98C593.81,-47.23 606.56,-35.58 616.88,-26.14"/>
<polygon fill="#63b8ff" stroke="#63b8ff" points="619.49,-28.5 624.51,-19.17 614.77,-23.33 619.49,-28.5"/>
</a>
</g>
</g>
<!-- Node7&#45;&gt;Node4 -->
<g id="edge14_Node000007_Node000004" class="edge">
<title>Node7&#45;&gt;Node4</title>
<g id="a_edge14_Node000007_Node000004"><a xlink:title=" ">
<path fill="none" stroke="#63b8ff" d="M159.06,-109.85C184.5,-101.26 224.19,-87.47 258,-74 277.41,-66.27 281.16,-61.57 301,-55 357.44,-36.32 425.57,-22.79 464.83,-15.83"/>
<polygon fill="#63b8ff" stroke="#63b8ff" points="465.62,-19.25 474.87,-14.09 464.42,-12.35 465.62,-19.25"/>
</a>
</g>
</g>
<!-- Node7&#45;&gt;Node6 -->
<g id="edge11_Node000007_Node000006" class="edge">
<title>Node7&#45;&gt;Node6</title>
<g id="a_edge11_Node000007_Node000006"><a xlink:title=" ">
<path fill="none" stroke="#63b8ff" d="M171,-109.97C204,-102.1 252.83,-89.34 294,-74 312.44,-67.13 315.17,-60.73 334,-55 384.46,-39.65 539.68,-21.07 604.78,-13.72"/>
<polygon fill="#63b8ff" stroke="#63b8ff" points="605.24,-17.19 614.79,-12.6 604.46,-10.23 605.24,-17.19"/>
</a>
</g>
</g>
<!-- Node8 -->
<g id="Node000008" class="node">
<title>Node8</title>
<g id="a_Node000008"><a xlink:href="../../de/daa/IoTDevice_8h.html" target="_top" xlink:title=" ">
<polygon fill="white" stroke="#666666" points="249,-74 175,-74 175,-55 249,-55 249,-74"/>
<text text-anchor="middle" x="212" y="-62" font-family="Helvetica,sans-Serif" font-size="10.00">IoTDevice.h</text>
</a>
</g>
</g>
<!-- Node7&#45;&gt;Node8 -->
<g id="edge7_Node000007_Node000008" class="edge">
<title>Node7&#45;&gt;Node8</title>
<g id="a_edge7_Node000007_Node000008"><a xlink:title=" ">
<path fill="none" stroke="#63b8ff" d="M145.69,-109.98C157.83,-101.84 176.36,-89.41 190.75,-79.76"/>
<polygon fill="#63b8ff" stroke="#63b8ff" points="192.72,-82.65 199.08,-74.17 188.82,-76.84 192.72,-82.65"/>
</a>
</g>
</g>
<!-- Node9 -->
<g id="Node000009" class="node">
<title>Node9</title>
<g id="a_Node000009"><a xlink:title=" ">
<polygon fill="#e0e0e0" stroke="#999999" points="241,-19 183,-19 183,0 241,0 241,-19"/>
<text text-anchor="middle" x="212" y="-7" font-family="Helvetica,sans-Serif" font-size="10.00">memory</text>
</a>
</g>
</g>
<!-- Node7&#45;&gt;Node9 -->
<g id="edge13_Node000007_Node000009" class="edge">
<title>Node7&#45;&gt;Node9</title>
<g id="a_edge13_Node000007_Node000009"><a xlink:title=" ">
<path fill="none" stroke="#63b8ff" d="M122.68,-109.93C108.86,-97.38 87.44,-73.5 100,-55 116.21,-31.11 147.49,-20.05 172.88,-14.92"/>
<polygon fill="#63b8ff" stroke="#63b8ff" points="173.75,-18.32 182.98,-13.12 172.52,-11.43 173.75,-18.32"/>
</a>
</g>
</g>
<!-- Node10 -->
<g id="Node000010" class="node">
<title>Node10</title>
<g id="a_Node000010"><a xlink:title=" ">
<polygon fill="#e0e0e0" stroke="#999999" points="156.5,-74 109.5,-74 109.5,-55 156.5,-55 156.5,-74"/>
<text text-anchor="middle" x="133" y="-62" font-family="Helvetica,sans-Serif" font-size="10.00">vector</text>
</a>
</g>
</g>
<!-- Node7&#45;&gt;Node10 -->
<g id="edge12_Node000007_Node000010" class="edge">
<title>Node7&#45;&gt;Node10</title>
<g id="a_edge12_Node000007_Node000010"><a xlink:title=" ">
<path fill="none" stroke="#63b8ff" d="M133,-109.75C133,-102.8 133,-92.85 133,-84.13"/>
<polygon fill="#63b8ff" stroke="#63b8ff" points="136.5,-84.09 133,-74.09 129.5,-84.09 136.5,-84.09"/>
</a>
</g>
</g>
<!-- Node7&#45;&gt;Node11 -->
<g id="edge15_Node000007_Node000011" class="edge">
<title>Node7&#45;&gt;Node11</title>
<g id="a_edge15_Node000007_Node000011"><a xlink:title=" ">
<path fill="none" stroke="#63b8ff" d="M170.6,-109.98C215.45,-99.83 289.78,-82.99 332.98,-73.2"/>
<polygon fill="#63b8ff" stroke="#63b8ff" points="333.77,-76.62 342.75,-70.99 332.22,-69.79 333.77,-76.62"/>
</a>
</g>
</g>
<!-- Node8&#45;&gt;Node4 -->
<g id="edge8_Node000008_Node000004" class="edge">
<title>Node8&#45;&gt;Node4</title>
<g id="a_edge8_Node000008_Node000004"><a xlink:title=" ">
<path fill="none" stroke="#63b8ff" d="M249.26,-56.57C305.7,-46.08 411.9,-26.32 465.03,-16.44"/>
<polygon fill="#63b8ff" stroke="#63b8ff" points="465.73,-19.88 474.92,-14.61 464.45,-12.99 465.73,-19.88"/>
</a>
</g>
</g>
<!-- Node8&#45;&gt;Node5 -->
<g id="edge10_Node000008_Node000005" class="edge">
<title>Node8&#45;&gt;Node5</title>
<g id="a_edge10_Node000008_Node000005"><a xlink:title=" ">
<path fill="none" stroke="#63b8ff" d="M192.24,-54.98C172.27,-46.38 141.2,-32.99 118.35,-23.15"/>
<polygon fill="#63b8ff" stroke="#63b8ff" points="119.69,-19.91 109.12,-19.17 116.92,-26.34 119.69,-19.91"/>
</a>
</g>
</g>
<!-- Node8&#45;&gt;Node9 -->
<g id="edge9_Node000008_Node000009" class="edge">
<title>Node8&#45;&gt;Node9</title>
<g id="a_edge9_Node000008_Node000009"><a xlink:title=" ">
<path fill="none" stroke="#63b8ff" d="M212,-54.75C212,-47.8 212,-37.85 212,-29.13"/>
<polygon fill="#63b8ff" stroke="#63b8ff" points="215.5,-29.09 212,-19.09 208.5,-29.09 215.5,-29.09"/>
</a>
</g>
</g>
<!-- Node12&#45;&gt;Node3 -->
<g id="edge21_Node000012_Node000003" class="edge">
<title>Node12&#45;&gt;Node3</title>
<g id="a_edge21_Node000012_Node000003"><a xlink:title=" ">
<path fill="none" stroke="#63b8ff" d="M589.36,-109.75C587.24,-102.72 584.19,-92.62 581.54,-83.84"/>
<polygon fill="#63b8ff" stroke="#63b8ff" points="584.83,-82.65 578.59,-74.09 578.13,-84.67 584.83,-82.65"/>
</a>
</g>
</g>
<!-- Node12&#45;&gt;Node4 -->
<g id="edge17_Node000012_Node000004" class="edge">
<title>Node12&#45;&gt;Node4</title>
<g id="a_edge17_Node000012_Node000004"><a xlink:title=" ">
<path fill="none" stroke="#63b8ff" d="M567.83,-109.89C551.02,-102.73 529.32,-90.95 516,-74 505.89,-61.13 501.15,-42.97 498.93,-29.36"/>
<polygon fill="#63b8ff" stroke="#63b8ff" points="502.37,-28.68 497.6,-19.22 495.43,-29.59 502.37,-28.68"/>
</a>
</g>
</g>
<!-- Node12&#45;&gt;Node6 -->
<g id="edge18_Node000012_Node000006" class="edge">
<title>Node12&#45;&gt;Node6</title>
<g id="a_edge18_Node000012_Node000006"><a xlink:title=" ">
<path fill="none" stroke="#63b8ff" d="M604.78,-110C615.39,-102.1 629.72,-89.27 636,-74 641.84,-59.8 640.73,-42.26 638.51,-29.22"/>
<polygon fill="#63b8ff" stroke="#63b8ff" points="641.87,-28.19 636.42,-19.11 635.02,-29.61 641.87,-28.19"/>
</a>
</g>
</g>
<!-- Node12&#45;&gt;Node9 -->
<g id="edge19_Node000012_Node000009" class="edge">
<title>Node12&#45;&gt;Node9</title>
<g id="a_edge19_Node000012_Node000009"><a xlink:title=" ">
<path fill="none" stroke="#63b8ff" d="M568.26,-109.91C532.2,-97.02 461.31,-72.36 400,-55 349.11,-40.59 289.59,-27.05 251.38,-18.77"/>
<polygon fill="#63b8ff" stroke="#63b8ff" points="251.7,-15.26 241.19,-16.58 250.23,-22.11 251.7,-15.26"/>
</a>
</g>
</g>
<!-- Node12&#45;&gt;Node11 -->
<g id="edge20_Node000012_Node000011" class="edge">
<title>Node12&#45;&gt;Node11</title>
<g id="a_edge20_Node000012_Node000011"><a xlink:title=" ">
<path fill="none" stroke="#63b8ff" d="M555.85,-109.98C513.25,-99.95 442.99,-83.4 401.24,-73.57"/>
<polygon fill="#63b8ff" stroke="#63b8ff" points="401.81,-70.1 391.27,-71.22 400.2,-76.92 401.81,-70.1"/>
</a>
</g>
</g>
<!-- Node17&#45;&gt;Node2 -->
<g id="edge30_Node000017_Node000002" class="edge">
<title>Node17&#45;&gt;Node2</title>
<g id="a_edge30_Node000017_Node000002"><a xlink:title=" ">
<path fill="none" stroke="#63b8ff" d="M525.03,-230.8C511.31,-221.93 493.47,-210.39 478.4,-200.66"/>
<polygon fill="#63b8ff" stroke="#63b8ff" points="480.21,-197.65 469.91,-195.16 476.41,-203.53 480.21,-197.65"/>
</a>
</g>
</g>
<!-- Node17&#45;&gt;Node4 -->
<g id="edge31_Node000017_Node000004" class="edge">
<title>Node17&#45;&gt;Node4</title>
<g id="a_edge31_Node000017_Node000004"><a xlink:title=" ">
<path fill="none" stroke="#63b8ff" d="M617.57,-236.58C714.8,-222.03 871.96,-186.08 816,-110 781.35,-62.9 603.47,-28.28 529.41,-15.69"/>
<polygon fill="#63b8ff" stroke="#63b8ff" points="529.71,-12.19 519.27,-13.99 528.56,-19.1 529.71,-12.19"/>
</a>
</g>
</g>
</g>
</svg>
