<?xml version="1.0" encoding="UTF-8" standalone="no"?>
<!DOCTYPE svg PUBLIC "-//W3C//DTD SVG 1.1//EN"
 "http://www.w3.org/Graphics/SVG/1.1/DTD/svg11.dtd">
<!-- Generated by graphviz version 2.43.0 (0)
 -->
<!-- Title: src/core/IoTDevice.cpp Pages: 1 -->
<svg width="447pt" height="148pt"
 viewBox="0.00 0.00 447.00 148.00" xmlns="http://www.w3.org/2000/svg" xmlns:xlink="http://www.w3.org/1999/xlink">
<g id="graph0" class="graph" transform="scale(1 1) rotate(0) translate(4 144)">
<title>src/core/IoTDevice.cpp</title>
<!-- Node1 -->
<g id="Node000001" class="node">
<title>Node1</title>
<g id="a_Node000001"><a xlink:title=" ">
<polygon fill="#999999" stroke="#666666" points="322.5,-140 195.5,-140 195.5,-121 322.5,-121 322.5,-140"/>
<text text-anchor="middle" x="259" y="-128" font-family="Helvetica,sans-Serif" font-size="10.00">src/core/IoTDevice.cpp</text>
</a>
</g>
</g>
<!-- Node2 -->
<g id="Node000002" class="node">
<title>Node2</title>
<g id="a_Node000002"><a xlink:href="../../de/daa/IoTDevice_8h.html" target="_top" xlink:title=" ">
<polygon fill="white" stroke="#666666" points="213,-85 119,-85 119,-55 213,-55 213,-85"/>
<text text-anchor="start" x="127" y="-73" font-family="Helvetica,sans-Serif" font-size="10.00">../../include/core</text>
<text text-anchor="middle" x="166" y="-62" font-family="Helvetica,sans-Serif" font-size="10.00">/IoTDevice.h</text>
</a>
</g>
</g>
<!-- Node1&#45;&gt;Node2 -->
<g id="edge1_Node000001_Node000002" class="edge">
<title>Node1&#45;&gt;Node2</title>
<g id="a_edge1_Node000001_Node000002"><a xlink:title=" ">
<path fill="none" stroke="#63b8ff" d="M245.28,-120.87C232.66,-112.93 213.49,-100.87 197.16,-90.6"/>
<polygon fill="#63b8ff" stroke="#63b8ff" points="198.77,-87.48 188.44,-85.11 195.04,-93.4 198.77,-87.48"/>
</a>
</g>
</g>
<!-- Node6 -->
<g id="Node000006" class="node">
<title>Node6</title>
<g id="a_Node000006"><a xlink:href="../../d5/dca/Message_8h.html" target="_top" xlink:title=" ">
<polygon fill="white" stroke="#666666" points="101,-85 7,-85 7,-55 101,-55 101,-85"/>
<text text-anchor="start" x="15" y="-73" font-family="Helvetica,sans-Serif" font-size="10.00">../../include/core</text>
<text text-anchor="middle" x="54" y="-62" font-family="Helvetica,sans-Serif" font-size="10.00">/Message.h</text>
</a>
</g>
</g>
<!-- Node1&#45;&gt;Node6 -->
<g id="edge5_Node000001_Node000006" class="edge">
<title>Node1&#45;&gt;Node6</title>
<g id="a_edge5_Node000001_Node000006"><a xlink:title=" ">
<path fill="none" stroke="#63b8ff" d="M229.19,-120.99C198.41,-112.21 149.6,-98.28 111.31,-87.35"/>
<polygon fill="#63b8ff" stroke="#63b8ff" points="111.89,-83.88 101.31,-84.5 109.97,-90.61 111.89,-83.88"/>
</a>
</g>
</g>
<!-- Node8 -->
<g id="Node000008" class="node">
<title>Node8</title>
<g id="a_Node000008"><a xlink:title=" ">
<polygon fill="#e0e0e0" stroke="#999999" points="287,-79.5 231,-79.5 231,-60.5 287,-60.5 287,-79.5"/>
<text text-anchor="middle" x="259" y="-67.5" font-family="Helvetica,sans-Serif" font-size="10.00">sstream</text>
</a>
</g>
</g>
<!-- Node1&#45;&gt;Node8 -->
<g id="edge9_Node000001_Node000008" class="edge">
<title>Node1&#45;&gt;Node8</title>
<g id="a_edge9_Node000001_Node000008"><a xlink:title=" ">
<path fill="none" stroke="#63b8ff" d="M259,-120.87C259,-112.75 259,-100.31 259,-89.89"/>
<polygon fill="#63b8ff" stroke="#63b8ff" points="262.5,-89.67 259,-79.67 255.5,-89.67 262.5,-89.67"/>
</a>
</g>
</g>
<!-- Node9 -->
<g id="Node000009" class="node">
<title>Node9</title>
<g id="a_Node000009"><a xlink:title=" ">
<polygon fill="#e0e0e0" stroke="#999999" points="361,-79.5 305,-79.5 305,-60.5 361,-60.5 361,-79.5"/>
<text text-anchor="middle" x="333" y="-67.5" font-family="Helvetica,sans-Serif" font-size="10.00">iomanip</text>
</a>
</g>
</g>
<!-- Node1&#45;&gt;Node9 -->
<g id="edge10_Node000001_Node000009" class="edge">
<title>Node1&#45;&gt;Node9</title>
<g id="a_edge10_Node000001_Node000009"><a xlink:title=" ">
<path fill="none" stroke="#63b8ff" d="M269.92,-120.87C281.51,-111.71 300.03,-97.06 314.02,-86.01"/>
<polygon fill="#63b8ff" stroke="#63b8ff" points="316.36,-88.61 322.04,-79.67 312.02,-83.12 316.36,-88.61"/>
</a>
</g>
</g>
<!-- Node10 -->
<g id="Node000010" class="node">
<title>Node10</title>
<g id="a_Node000010"><a xlink:title=" ">
<polygon fill="#e0e0e0" stroke="#999999" points="439,-79.5 379,-79.5 379,-60.5 439,-60.5 439,-79.5"/>
<text text-anchor="middle" x="409" y="-67.5" font-family="Helvetica,sans-Serif" font-size="10.00">iostream</text>
</a>
</g>
</g>
<!-- Node1&#45;&gt;Node10 -->
<g id="edge11_Node000001_Node000010" class="edge">
<title>Node1&#45;&gt;Node10</title>
<g id="a_edge11_Node000001_Node000010"><a xlink:title=" ">
<path fill="none" stroke="#63b8ff" d="M280.81,-120.99C306.25,-111.07 348.51,-94.59 377.51,-83.28"/>
<polygon fill="#63b8ff" stroke="#63b8ff" points="379.12,-86.41 387.16,-79.52 376.57,-79.89 379.12,-86.41"/>
</a>
</g>
</g>
<!-- Node3 -->
<g id="Node000003" class="node">
<title>Node3</title>
<g id="a_Node000003"><a xlink:title=" ">
<polygon fill="#e0e0e0" stroke="#999999" points="100,-19 56,-19 56,0 100,0 100,-19"/>
<text text-anchor="middle" x="78" y="-7" font-family="Helvetica,sans-Serif" font-size="10.00">string</text>
</a>
</g>
</g>
<!-- Node2&#45;&gt;Node3 -->
<g id="edge2_Node000002_Node000003" class="edge">
<title>Node2&#45;&gt;Node3</title>
<g id="a_edge2_Node000002_Node000003"><a xlink:title=" ">
<path fill="none" stroke="#63b8ff" d="M144.7,-54.84C130.93,-45.68 113.07,-33.82 99.3,-24.66"/>
<polygon fill="#63b8ff" stroke="#63b8ff" points="101.19,-21.72 90.93,-19.09 97.32,-27.55 101.19,-21.72"/>
</a>
</g>
</g>
<!-- Node4 -->
<g id="Node000004" class="node">
<title>Node4</title>
<g id="a_Node000004"><a xlink:title=" ">
<polygon fill="#e0e0e0" stroke="#999999" points="244,-19 186,-19 186,0 244,0 244,-19"/>
<text text-anchor="middle" x="215" y="-7" font-family="Helvetica,sans-Serif" font-size="10.00">memory</text>
</a>
</g>
</g>
<!-- Node2&#45;&gt;Node4 -->
<g id="edge3_Node000002_Node000004" class="edge">
<title>Node2&#45;&gt;Node4</title>
<g id="a_edge3_Node000002_Node000004"><a xlink:title=" ">
<path fill="none" stroke="#63b8ff" d="M177.86,-54.84C184.9,-46.43 193.86,-35.74 201.21,-26.96"/>
<polygon fill="#63b8ff" stroke="#63b8ff" points="203.92,-29.18 207.66,-19.27 198.55,-24.68 203.92,-29.18"/>
</a>
</g>
</g>
<!-- Node5 -->
<g id="Node000005" class="node">
<title>Node5</title>
<g id="a_Node000005"><a xlink:title=" ">
<polygon fill="#e0e0e0" stroke="#999999" points="168,-19 118,-19 118,0 168,0 168,-19"/>
<text text-anchor="middle" x="143" y="-7" font-family="Helvetica,sans-Serif" font-size="10.00">chrono</text>
</a>
</g>
</g>
<!-- Node2&#45;&gt;Node5 -->
<g id="edge4_Node000002_Node000005" class="edge">
<title>Node2&#45;&gt;Node5</title>
<g id="a_edge4_Node000002_Node000005"><a xlink:title=" ">
<path fill="none" stroke="#63b8ff" d="M160.43,-54.84C157.33,-46.95 153.44,-37.05 150.12,-28.61"/>
<polygon fill="#63b8ff" stroke="#63b8ff" points="153.36,-27.29 146.45,-19.27 146.85,-29.85 153.36,-27.29"/>
</a>
</g>
</g>
<!-- Node6&#45;&gt;Node3 -->
<g id="edge6_Node000006_Node000003" class="edge">
<title>Node6&#45;&gt;Node3</title>
<g id="a_edge6_Node000006_Node000003"><a xlink:title=" ">
<path fill="none" stroke="#63b8ff" d="M59.81,-54.84C63.04,-46.95 67.11,-37.05 70.57,-28.61"/>
<polygon fill="#63b8ff" stroke="#63b8ff" points="73.85,-29.85 74.4,-19.27 67.37,-27.19 73.85,-29.85"/>
</a>
</g>
</g>
<!-- Node6&#45;&gt;Node5 -->
<g id="edge7_Node000006_Node000005" class="edge">
<title>Node6&#45;&gt;Node5</title>
<g id="a_edge7_Node000006_Node000005"><a xlink:title=" ">
<path fill="none" stroke="#63b8ff" d="M75.54,-54.84C89.47,-45.68 107.53,-33.82 121.45,-24.66"/>
<polygon fill="#63b8ff" stroke="#63b8ff" points="123.49,-27.51 129.92,-19.09 119.65,-21.66 123.49,-27.51"/>
</a>
</g>
</g>
<!-- Node7 -->
<g id="Node000007" class="node">
<title>Node7</title>
<g id="a_Node000007"><a xlink:title=" ">
<polygon fill="#e0e0e0" stroke="#999999" points="38,-19 0,-19 0,0 38,0 38,-19"/>
<text text-anchor="middle" x="19" y="-7" font-family="Helvetica,sans-Serif" font-size="10.00">map</text>
</a>
</g>
</g>
<!-- Node6&#45;&gt;Node7 -->
<g id="edge8_Node000006_Node000007" class="edge">
<title>Node6&#45;&gt;Node7</title>
<g id="a_edge8_Node000006_Node000007"><a xlink:title=" ">
<path fill="none" stroke="#63b8ff" d="M45.53,-54.84C40.71,-46.78 34.63,-36.62 29.5,-28.06"/>
<polygon fill="#63b8ff" stroke="#63b8ff" points="32.38,-26.05 24.24,-19.27 26.38,-29.64 32.38,-26.05"/>
</a>
</g>
</g>
</g>
</svg>
