<?xml version="1.0" encoding="UTF-8" standalone="no"?>
<!DOCTYPE svg PUBLIC "-//W3C//DTD SVG 1.1//EN"
 "http://www.w3.org/Graphics/SVG/1.1/DTD/svg11.dtd">
<!-- Generated by graphviz version 2.43.0 (0)
 -->
<!-- Title: src/core/DeviceManager.cpp Pages: 1 -->
<svg width="470pt" height="203pt"
 viewBox="0.00 0.00 470.00 203.00" xmlns="http://www.w3.org/2000/svg" xmlns:xlink="http://www.w3.org/1999/xlink">
<g id="graph0" class="graph" transform="scale(1 1) rotate(0) translate(4 199)">
<title>src/core/DeviceManager.cpp</title>
<!-- Node1 -->
<g id="Node000001" class="node">
<title>Node1</title>
<g id="a_Node000001"><a xlink:title=" ">
<polygon fill="#999999" stroke="#666666" points="355,-195 201,-195 201,-176 355,-176 355,-195"/>
<text text-anchor="middle" x="278" y="-183" font-family="Helvetica,sans-Serif" font-size="10.00">src/core/DeviceManager.cpp</text>
</a>
</g>
</g>
<!-- Node2 -->
<g id="Node000002" class="node">
<title>Node2</title>
<g id="a_Node000002"><a xlink:href="../../da/dcc/DeviceManager_8h.html" target="_top" xlink:title=" ">
<polygon fill="white" stroke="#666666" points="230,-140 126,-140 126,-110 230,-110 230,-140"/>
<text text-anchor="start" x="134" y="-128" font-family="Helvetica,sans-Serif" font-size="10.00">../../include/core</text>
<text text-anchor="middle" x="178" y="-117" font-family="Helvetica,sans-Serif" font-size="10.00">/DeviceManager.h</text>
</a>
</g>
</g>
<!-- Node1&#45;&gt;Node2 -->
<g id="edge1_Node000001_Node000002" class="edge">
<title>Node1&#45;&gt;Node2</title>
<g id="a_edge1_Node000001_Node000002"><a xlink:title=" ">
<path fill="none" stroke="#63b8ff" d="M263.24,-175.87C249.55,-167.86 228.68,-155.65 211.02,-145.31"/>
<polygon fill="#63b8ff" stroke="#63b8ff" points="212.53,-142.14 202.13,-140.11 208.99,-148.19 212.53,-142.14"/>
</a>
</g>
</g>
<!-- Node10 -->
<g id="Node000010" class="node">
<title>Node10</title>
<g id="a_Node000010"><a xlink:href="../../d5/dca/Message_8h.html" target="_top" xlink:title=" ">
<polygon fill="white" stroke="#666666" points="94,-140 0,-140 0,-110 94,-110 94,-140"/>
<text text-anchor="start" x="8" y="-128" font-family="Helvetica,sans-Serif" font-size="10.00">../../include/core</text>
<text text-anchor="middle" x="47" y="-117" font-family="Helvetica,sans-Serif" font-size="10.00">/Message.h</text>
</a>
</g>
</g>
<!-- Node1&#45;&gt;Node10 -->
<g id="edge11_Node000001_Node000010" class="edge">
<title>Node1&#45;&gt;Node10</title>
<g id="a_edge11_Node000001_Node000010"><a xlink:title=" ">
<path fill="none" stroke="#63b8ff" d="M244.41,-175.99C207.65,-166.68 148.08,-151.6 103.98,-140.43"/>
<polygon fill="#63b8ff" stroke="#63b8ff" points="104.81,-137.03 94.26,-137.97 103.09,-143.82 104.81,-137.03"/>
</a>
</g>
</g>
<!-- Node11 -->
<g id="Node000011" class="node">
<title>Node11</title>
<g id="a_Node000011"><a xlink:title=" ">
<polygon fill="#e0e0e0" stroke="#999999" points="308,-134.5 248,-134.5 248,-115.5 308,-115.5 308,-134.5"/>
<text text-anchor="middle" x="278" y="-122.5" font-family="Helvetica,sans-Serif" font-size="10.00">iostream</text>
</a>
</g>
</g>
<!-- Node1&#45;&gt;Node11 -->
<g id="edge15_Node000001_Node000011" class="edge">
<title>Node1&#45;&gt;Node11</title>
<g id="a_edge15_Node000001_Node000011"><a xlink:title=" ">
<path fill="none" stroke="#63b8ff" d="M278,-175.87C278,-167.75 278,-155.31 278,-144.89"/>
<polygon fill="#63b8ff" stroke="#63b8ff" points="281.5,-144.67 278,-134.67 274.5,-144.67 281.5,-144.67"/>
</a>
</g>
</g>
<!-- Node12 -->
<g id="Node000012" class="node">
<title>Node12</title>
<g id="a_Node000012"><a xlink:title=" ">
<polygon fill="#e0e0e0" stroke="#999999" points="390,-134.5 326,-134.5 326,-115.5 390,-115.5 390,-134.5"/>
<text text-anchor="middle" x="358" y="-122.5" font-family="Helvetica,sans-Serif" font-size="10.00">algorithm</text>
</a>
</g>
</g>
<!-- Node1&#45;&gt;Node12 -->
<g id="edge16_Node000001_Node000012" class="edge">
<title>Node1&#45;&gt;Node12</title>
<g id="a_edge16_Node000001_Node000012"><a xlink:title=" ">
<path fill="none" stroke="#63b8ff" d="M289.8,-175.87C302.45,-166.62 322.74,-151.78 337.91,-140.69"/>
<polygon fill="#63b8ff" stroke="#63b8ff" points="340.14,-143.4 346.15,-134.67 336.01,-137.74 340.14,-143.4"/>
</a>
</g>
</g>
<!-- Node13 -->
<g id="Node000013" class="node">
<title>Node13</title>
<g id="a_Node000013"><a xlink:title=" ">
<polygon fill="#e0e0e0" stroke="#999999" points="462,-134.5 408,-134.5 408,-115.5 462,-115.5 462,-134.5"/>
<text text-anchor="middle" x="435" y="-122.5" font-family="Helvetica,sans-Serif" font-size="10.00">random</text>
</a>
</g>
</g>
<!-- Node1&#45;&gt;Node13 -->
<g id="edge17_Node000001_Node000013" class="edge">
<title>Node1&#45;&gt;Node13</title>
<g id="a_edge17_Node000001_Node000013"><a xlink:title=" ">
<path fill="none" stroke="#63b8ff" d="M301.7,-175.93C326.13,-167.06 365.3,-152.75 399,-140 400.6,-139.4 402.23,-138.77 403.88,-138.14"/>
<polygon fill="#63b8ff" stroke="#63b8ff" points="405.25,-141.37 413.32,-134.5 402.73,-134.83 405.25,-141.37"/>
</a>
</g>
</g>
<!-- Node3 -->
<g id="Node000003" class="node">
<title>Node3</title>
<g id="a_Node000003"><a xlink:href="../../de/daa/IoTDevice_8h.html" target="_top" xlink:title=" ">
<polygon fill="white" stroke="#666666" points="360,-74 286,-74 286,-55 360,-55 360,-74"/>
<text text-anchor="middle" x="323" y="-62" font-family="Helvetica,sans-Serif" font-size="10.00">IoTDevice.h</text>
</a>
</g>
</g>
<!-- Node2&#45;&gt;Node3 -->
<g id="edge2_Node000002_Node000003" class="edge">
<title>Node2&#45;&gt;Node3</title>
<g id="a_edge2_Node000002_Node000003"><a xlink:title=" ">
<path fill="none" stroke="#63b8ff" d="M212.73,-109.99C236.92,-100.23 268.9,-87.33 292.19,-77.93"/>
<polygon fill="#63b8ff" stroke="#63b8ff" points="293.62,-81.13 301.59,-74.14 291,-74.63 293.62,-81.13"/>
</a>
</g>
</g>
<!-- Node4 -->
<g id="Node000004" class="node">
<title>Node4</title>
<g id="a_Node000004"><a xlink:title=" ">
<polygon fill="#e0e0e0" stroke="#999999" points="148,-19 104,-19 104,0 148,0 148,-19"/>
<text text-anchor="middle" x="126" y="-7" font-family="Helvetica,sans-Serif" font-size="10.00">string</text>
</a>
</g>
</g>
<!-- Node2&#45;&gt;Node4 -->
<g id="edge9_Node000002_Node000004" class="edge">
<title>Node2&#45;&gt;Node4</title>
<g id="a_edge9_Node000002_Node000004"><a xlink:title=" ">
<path fill="none" stroke="#63b8ff" d="M166.99,-109.79C159.93,-100.13 150.99,-86.82 145,-74 138.22,-59.49 133.19,-41.98 130.02,-29.03"/>
<polygon fill="#63b8ff" stroke="#63b8ff" points="133.37,-27.96 127.71,-19 126.55,-29.54 133.37,-27.96"/>
</a>
</g>
</g>
<!-- Node5 -->
<g id="Node000005" class="node">
<title>Node5</title>
<g id="a_Node000005"><a xlink:title=" ">
<polygon fill="#e0e0e0" stroke="#999999" points="384,-19 326,-19 326,0 384,0 384,-19"/>
<text text-anchor="middle" x="355" y="-7" font-family="Helvetica,sans-Serif" font-size="10.00">memory</text>
</a>
</g>
</g>
<!-- Node2&#45;&gt;Node5 -->
<g id="edge8_Node000002_Node000005" class="edge">
<title>Node2&#45;&gt;Node5</title>
<g id="a_edge8_Node000002_Node000005"><a xlink:title=" ">
<path fill="none" stroke="#63b8ff" d="M230.11,-112.01C285.16,-99.1 364.64,-79.65 369,-74 379.1,-60.91 373.06,-42.02 366.05,-28.24"/>
<polygon fill="#63b8ff" stroke="#63b8ff" points="368.95,-26.26 360.98,-19.27 362.85,-29.7 368.95,-26.26"/>
</a>
</g>
</g>
<!-- Node7 -->
<g id="Node000007" class="node">
<title>Node7</title>
<g id="a_Node000007"><a xlink:title=" ">
<polygon fill="#e0e0e0" stroke="#999999" points="98,-74 60,-74 60,-55 98,-55 98,-74"/>
<text text-anchor="middle" x="79" y="-62" font-family="Helvetica,sans-Serif" font-size="10.00">map</text>
</a>
</g>
</g>
<!-- Node2&#45;&gt;Node7 -->
<g id="edge6_Node000002_Node000007" class="edge">
<title>Node2&#45;&gt;Node7</title>
<g id="a_edge6_Node000002_Node000007"><a xlink:title=" ">
<path fill="none" stroke="#63b8ff" d="M154.29,-109.99C138.65,-100.75 118.26,-88.7 102.64,-79.47"/>
<polygon fill="#63b8ff" stroke="#63b8ff" points="104.01,-76.21 93.62,-74.14 100.45,-82.24 104.01,-76.21"/>
</a>
</g>
</g>
<!-- Node8 -->
<g id="Node000008" class="node">
<title>Node8</title>
<g id="a_Node000008"><a xlink:title=" ">
<polygon fill="#e0e0e0" stroke="#999999" points="201.5,-74 154.5,-74 154.5,-55 201.5,-55 201.5,-74"/>
<text text-anchor="middle" x="178" y="-62" font-family="Helvetica,sans-Serif" font-size="10.00">vector</text>
</a>
</g>
</g>
<!-- Node2&#45;&gt;Node8 -->
<g id="edge7_Node000002_Node000008" class="edge">
<title>Node2&#45;&gt;Node8</title>
<g id="a_edge7_Node000002_Node000008"><a xlink:title=" ">
<path fill="none" stroke="#63b8ff" d="M178,-109.84C178,-102.21 178,-92.7 178,-84.45"/>
<polygon fill="#63b8ff" stroke="#63b8ff" points="181.5,-84.27 178,-74.27 174.5,-84.27 181.5,-84.27"/>
</a>
</g>
</g>
<!-- Node9 -->
<g id="Node000009" class="node">
<title>Node9</title>
<g id="a_Node000009"><a xlink:title=" ">
<polygon fill="#e0e0e0" stroke="#999999" points="268,-74 220,-74 220,-55 268,-55 268,-74"/>
<text text-anchor="middle" x="244" y="-62" font-family="Helvetica,sans-Serif" font-size="10.00">mutex</text>
</a>
</g>
</g>
<!-- Node2&#45;&gt;Node9 -->
<g id="edge10_Node000002_Node000009" class="edge">
<title>Node2&#45;&gt;Node9</title>
<g id="a_edge10_Node000002_Node000009"><a xlink:title=" ">
<path fill="none" stroke="#63b8ff" d="M193.98,-109.84C203.75,-101.17 216.27,-90.08 226.34,-81.15"/>
<polygon fill="#63b8ff" stroke="#63b8ff" points="228.95,-83.52 234.11,-74.27 224.31,-78.28 228.95,-83.52"/>
</a>
</g>
</g>
<!-- Node3&#45;&gt;Node4 -->
<g id="edge3_Node000003_Node000004" class="edge">
<title>Node3&#45;&gt;Node4</title>
<g id="a_edge3_Node000003_Node000004"><a xlink:title=" ">
<path fill="none" stroke="#63b8ff" d="M291.35,-54.98C254.66,-45.12 194.56,-28.94 157.8,-19.06"/>
<polygon fill="#63b8ff" stroke="#63b8ff" points="158.66,-15.66 148.1,-16.45 156.85,-22.42 158.66,-15.66"/>
</a>
</g>
</g>
<!-- Node3&#45;&gt;Node5 -->
<g id="edge4_Node000003_Node000005" class="edge">
<title>Node3&#45;&gt;Node5</title>
<g id="a_edge4_Node000003_Node000005"><a xlink:title=" ">
<path fill="none" stroke="#63b8ff" d="M328.28,-54.75C332.71,-47.42 339.16,-36.73 344.62,-27.7"/>
<polygon fill="#63b8ff" stroke="#63b8ff" points="347.64,-29.46 349.81,-19.09 341.65,-25.84 347.64,-29.46"/>
</a>
</g>
</g>
<!-- Node6 -->
<g id="Node000006" class="node">
<title>Node6</title>
<g id="a_Node000006"><a xlink:title=" ">
<polygon fill="#e0e0e0" stroke="#999999" points="53,-19 3,-19 3,0 53,0 53,-19"/>
<text text-anchor="middle" x="28" y="-7" font-family="Helvetica,sans-Serif" font-size="10.00">chrono</text>
</a>
</g>
</g>
<!-- Node3&#45;&gt;Node6 -->
<g id="edge5_Node000003_Node000006" class="edge">
<title>Node3&#45;&gt;Node6</title>
<g id="a_edge5_Node000003_Node000006"><a xlink:title=" ">
<path fill="none" stroke="#63b8ff" d="M285.85,-56.62C282.85,-56.07 279.88,-55.52 277,-55 200.72,-41.14 111.23,-25.23 63.02,-16.69"/>
<polygon fill="#63b8ff" stroke="#63b8ff" points="63.56,-13.23 53.1,-14.94 62.34,-20.13 63.56,-13.23"/>
</a>
</g>
</g>
<!-- Node10&#45;&gt;Node4 -->
<g id="edge12_Node000010_Node000004" class="edge">
<title>Node10&#45;&gt;Node4</title>
<g id="a_edge12_Node000010_Node000004"><a xlink:title=" ">
<path fill="none" stroke="#63b8ff" d="M44.18,-109.91C41.99,-95.11 40.83,-71.71 51,-55 60.71,-39.04 78.48,-28.13 94.29,-21.1"/>
<polygon fill="#63b8ff" stroke="#63b8ff" points="95.86,-24.25 103.79,-17.22 93.21,-17.77 95.86,-24.25"/>
</a>
</g>
</g>
<!-- Node10&#45;&gt;Node6 -->
<g id="edge13_Node000010_Node000006" class="edge">
<title>Node10&#45;&gt;Node6</title>
<g id="a_edge13_Node000010_Node000006"><a xlink:title=" ">
<path fill="none" stroke="#63b8ff" d="M35.9,-109.6C29.28,-100.08 21.49,-86.99 18,-74 13.97,-59.01 17.27,-41.57 21.12,-28.76"/>
<polygon fill="#63b8ff" stroke="#63b8ff" points="24.45,-29.84 24.34,-19.25 17.82,-27.6 24.45,-29.84"/>
</a>
</g>
</g>
<!-- Node10&#45;&gt;Node7 -->
<g id="edge14_Node000010_Node000007" class="edge">
<title>Node10&#45;&gt;Node7</title>
<g id="a_edge14_Node000010_Node000007"><a xlink:title=" ">
<path fill="none" stroke="#63b8ff" d="M54.75,-109.84C59.15,-101.78 64.71,-91.62 69.4,-83.06"/>
<polygon fill="#63b8ff" stroke="#63b8ff" points="72.48,-84.72 74.2,-74.27 66.34,-81.36 72.48,-84.72"/>
</a>
</g>
</g>
</g>
</svg>
