<?xml version="1.0" encoding="UTF-8" standalone="no"?>
<!DOCTYPE svg PUBLIC "-//W3C//DTD SVG 1.1//EN"
 "http://www.w3.org/Graphics/SVG/1.1/DTD/svg11.dtd">
<!-- Generated by graphviz version 2.43.0 (0)
 -->
<!-- Title: include/security/IPSecManager.h Pages: 1 -->
<svg width="308pt" height="137pt"
 viewBox="0.00 0.00 307.72 137.00" xmlns="http://www.w3.org/2000/svg" xmlns:xlink="http://www.w3.org/1999/xlink">
<g id="graph0" class="graph" transform="scale(1 1) rotate(0) translate(4 133)">
<title>include/security/IPSecManager.h</title>
<!-- Node1 -->
<g id="Node000001" class="node">
<title>Node1</title>
<g id="a_Node000001"><a xlink:title=" ">
<polygon fill="#999999" stroke="#666666" points="279,-129 105,-129 105,-110 279,-110 279,-129"/>
<text text-anchor="middle" x="192" y="-117" font-family="Helvetica,sans-Serif" font-size="10.00">include/security/IPSecManager.h</text>
</a>
</g>
</g>
<!-- Node2 -->
<g id="Node000002" class="node">
<title>Node2</title>
<g id="a_Node000002"><a xlink:title=" ">
<polygon fill="#e0e0e0" stroke="#999999" points="44,-19 0,-19 0,0 44,0 44,-19"/>
<text text-anchor="middle" x="22" y="-7" font-family="Helvetica,sans-Serif" font-size="10.00">string</text>
</a>
</g>
</g>
<!-- Node1&#45;&gt;Node2 -->
<g id="edge1_Node000001_Node000002" class="edge">
<title>Node1&#45;&gt;Node2</title>
<g id="a_edge1_Node000001_Node000002"><a xlink:title=" ">
<path fill="none" stroke="#63b8ff" d="M104.82,-111.53C78.76,-105.24 52.29,-93.96 34,-74 23,-61.99 20.62,-43.18 20.61,-29.14"/>
<polygon fill="#63b8ff" stroke="#63b8ff" points="24.11,-29.26 21,-19.13 17.12,-28.99 24.11,-29.26"/>
</a>
</g>
</g>
<!-- Node3 -->
<g id="Node000003" class="node">
<title>Node3</title>
<g id="a_Node000003"><a xlink:title=" ">
<polygon fill="#e0e0e0" stroke="#999999" points="254,-19 216,-19 216,0 254,0 254,-19"/>
<text text-anchor="middle" x="235" y="-7" font-family="Helvetica,sans-Serif" font-size="10.00">map</text>
</a>
</g>
</g>
<!-- Node1&#45;&gt;Node3 -->
<g id="edge2_Node000001_Node000003" class="edge">
<title>Node1&#45;&gt;Node3</title>
<g id="a_edge2_Node000001_Node000003"><a xlink:title=" ">
<path fill="none" stroke="#63b8ff" d="M240.85,-109.95C261.5,-103.65 283.62,-92.77 296,-74 308.82,-54.57 284.81,-35.79 263.25,-23.76"/>
<polygon fill="#63b8ff" stroke="#63b8ff" points="264.75,-20.6 254.28,-19.04 261.49,-26.79 264.75,-20.6"/>
</a>
</g>
</g>
<!-- Node4 -->
<g id="Node000004" class="node">
<title>Node4</title>
<g id="a_Node000004"><a xlink:title=" ">
<polygon fill="#e0e0e0" stroke="#999999" points="221,-74 163,-74 163,-55 221,-55 221,-74"/>
<text text-anchor="middle" x="192" y="-62" font-family="Helvetica,sans-Serif" font-size="10.00">memory</text>
</a>
</g>
</g>
<!-- Node1&#45;&gt;Node4 -->
<g id="edge3_Node000001_Node000004" class="edge">
<title>Node1&#45;&gt;Node4</title>
<g id="a_edge3_Node000001_Node000004"><a xlink:title=" ">
<path fill="none" stroke="#63b8ff" d="M192,-109.75C192,-102.8 192,-92.85 192,-84.13"/>
<polygon fill="#63b8ff" stroke="#63b8ff" points="195.5,-84.09 192,-74.09 188.5,-84.09 195.5,-84.09"/>
</a>
</g>
</g>
<!-- Node5 -->
<g id="Node000005" class="node">
<title>Node5</title>
<g id="a_Node000005"><a xlink:title=" ">
<polygon fill="#e0e0e0" stroke="#999999" points="287,-74 239,-74 239,-55 287,-55 287,-74"/>
<text text-anchor="middle" x="263" y="-62" font-family="Helvetica,sans-Serif" font-size="10.00">mutex</text>
</a>
</g>
</g>
<!-- Node1&#45;&gt;Node5 -->
<g id="edge4_Node000001_Node000005" class="edge">
<title>Node1&#45;&gt;Node5</title>
<g id="a_edge4_Node000001_Node000005"><a xlink:title=" ">
<path fill="none" stroke="#63b8ff" d="M203.41,-109.98C214.11,-102 230.34,-89.88 243.16,-80.31"/>
<polygon fill="#63b8ff" stroke="#63b8ff" points="245.47,-82.96 251.39,-74.17 241.28,-77.35 245.47,-82.96"/>
</a>
</g>
</g>
<!-- Node6 -->
<g id="Node000006" class="node">
<title>Node6</title>
<g id="a_Node000006"><a xlink:href="../../d5/dca/Message_8h.html" target="_top" xlink:title=" ">
<polygon fill="white" stroke="#666666" points="145,-74 43,-74 43,-55 145,-55 145,-74"/>
<text text-anchor="middle" x="94" y="-62" font-family="Helvetica,sans-Serif" font-size="10.00">../core/Message.h</text>
</a>
</g>
</g>
<!-- Node1&#45;&gt;Node6 -->
<g id="edge5_Node000001_Node000006" class="edge">
<title>Node1&#45;&gt;Node6</title>
<g id="a_edge5_Node000001_Node000006"><a xlink:title=" ">
<path fill="none" stroke="#63b8ff" d="M176.25,-109.98C160.77,-101.61 136.91,-88.7 118.86,-78.95"/>
<polygon fill="#63b8ff" stroke="#63b8ff" points="120.49,-75.85 110.03,-74.17 117.16,-82.01 120.49,-75.85"/>
</a>
</g>
</g>
<!-- Node6&#45;&gt;Node2 -->
<g id="edge6_Node000006_Node000002" class="edge">
<title>Node6&#45;&gt;Node2</title>
<g id="a_edge6_Node000006_Node000002"><a xlink:title=" ">
<path fill="none" stroke="#63b8ff" d="M82.43,-54.98C71.58,-47 55.12,-34.88 42.12,-25.31"/>
<polygon fill="#63b8ff" stroke="#63b8ff" points="43.91,-22.28 33.78,-19.17 39.76,-27.92 43.91,-22.28"/>
</a>
</g>
</g>
<!-- Node6&#45;&gt;Node3 -->
<g id="edge8_Node000006_Node000003" class="edge">
<title>Node6&#45;&gt;Node3</title>
<g id="a_edge8_Node000006_Node000003"><a xlink:title=" ">
<path fill="none" stroke="#63b8ff" d="M116.65,-54.98C140.95,-45.85 179.61,-31.32 206.08,-21.37"/>
<polygon fill="#63b8ff" stroke="#63b8ff" points="207.45,-24.59 215.58,-17.8 204.99,-18.04 207.45,-24.59"/>
</a>
</g>
</g>
<!-- Node7 -->
<g id="Node000007" class="node">
<title>Node7</title>
<g id="a_Node000007"><a xlink:title=" ">
<polygon fill="#e0e0e0" stroke="#999999" points="119,-19 69,-19 69,0 119,0 119,-19"/>
<text text-anchor="middle" x="94" y="-7" font-family="Helvetica,sans-Serif" font-size="10.00">chrono</text>
</a>
</g>
</g>
<!-- Node6&#45;&gt;Node7 -->
<g id="edge7_Node000006_Node000007" class="edge">
<title>Node6&#45;&gt;Node7</title>
<g id="a_edge7_Node000006_Node000007"><a xlink:title=" ">
<path fill="none" stroke="#63b8ff" d="M94,-54.75C94,-47.8 94,-37.85 94,-29.13"/>
<polygon fill="#63b8ff" stroke="#63b8ff" points="97.5,-29.09 94,-19.09 90.5,-29.09 97.5,-29.09"/>
</a>
</g>
</g>
</g>
</svg>
