<?xml version="1.0" encoding="UTF-8" standalone="no"?>
<!DOCTYPE svg PUBLIC "-//W3C//DTD SVG 1.1//EN"
 "http://www.w3.org/Graphics/SVG/1.1/DTD/svg11.dtd">
<!-- Generated by graphviz version 2.43.0 (0)
 -->
<!-- Title: iot::BatteryMotionSensor::sendData Pages: 1 -->
<svg width="500pt" height="210pt"
 viewBox="0.00 0.00 500.00 209.50" xmlns="http://www.w3.org/2000/svg" xmlns:xlink="http://www.w3.org/1999/xlink">
<g id="graph0" class="graph" transform="scale(1 1) rotate(0) translate(4 205.5)">
<title>iot::BatteryMotionSensor::sendData</title>
<!-- Node1 -->
<g id="Node000001" class="node">
<title>Node1</title>
<g id="a_Node000001"><a xlink:title=" ">
<polygon fill="#999999" stroke="#666666" points="138,-110.5 0,-110.5 0,-80.5 138,-80.5 138,-110.5"/>
<text text-anchor="start" x="8" y="-98.5" font-family="Helvetica,sans-Serif" font-size="10.00">iot::BatteryMotionSensor</text>
<text text-anchor="middle" x="69" y="-87.5" font-family="Helvetica,sans-Serif" font-size="10.00">::sendData</text>
</a>
</g>
</g>
<!-- Node2 -->
<g id="Node000002" class="node">
<title>Node2</title>
<g id="a_Node000002"><a xlink:href="../../db/d3a/classiot_1_1BatteryManager.html#a0c63fbec278f5c0303a979d85dcad983" target="_top" xlink:title="Consume battery power.">
<polygon fill="white" stroke="#666666" points="297.5,-201.5 183.5,-201.5 183.5,-171.5 297.5,-171.5 297.5,-201.5"/>
<text text-anchor="start" x="191.5" y="-189.5" font-family="Helvetica,sans-Serif" font-size="10.00">iot::BatteryManager</text>
<text text-anchor="middle" x="240.5" y="-178.5" font-family="Helvetica,sans-Serif" font-size="10.00">::consumePower</text>
</a>
</g>
</g>
<!-- Node1&#45;&gt;Node2 -->
<g id="edge1_Node000001_Node000002" class="edge">
<title>Node1&#45;&gt;Node2</title>
<g id="a_edge1_Node000001_Node000002"><a xlink:title=" ">
<path fill="none" stroke="#63b8ff" d="M90.31,-110.51C110.71,-125.12 143.43,-147.29 174,-162.5 177.5,-164.24 181.16,-165.92 184.88,-167.54"/>
<polygon fill="#63b8ff" stroke="#63b8ff" points="183.62,-170.81 194.2,-171.39 186.29,-164.34 183.62,-170.81"/>
</a>
</g>
</g>
<!-- Node4 -->
<g id="Node000004" class="node">
<title>Node4</title>
<g id="a_Node000004"><a xlink:href="../../db/d3a/classiot_1_1BatteryManager.html#ac53cf97db59fc0b5cce3333f0b3a3bb6" target="_top" xlink:title="Get current battery level.">
<polygon fill="white" stroke="#666666" points="297.5,-153.5 183.5,-153.5 183.5,-123.5 297.5,-123.5 297.5,-153.5"/>
<text text-anchor="start" x="191.5" y="-141.5" font-family="Helvetica,sans-Serif" font-size="10.00">iot::BatteryManager</text>
<text text-anchor="middle" x="240.5" y="-130.5" font-family="Helvetica,sans-Serif" font-size="10.00">::getBatteryLevel</text>
</a>
</g>
</g>
<!-- Node1&#45;&gt;Node4 -->
<g id="edge3_Node000001_Node000004" class="edge">
<title>Node1&#45;&gt;Node4</title>
<g id="a_edge3_Node000001_Node000004"><a xlink:title=" ">
<path fill="none" stroke="#63b8ff" d="M129.28,-110.54C143.56,-114.16 158.89,-118.05 173.45,-121.74"/>
<polygon fill="#63b8ff" stroke="#63b8ff" points="172.83,-125.2 183.38,-124.26 174.55,-118.41 172.83,-125.2"/>
</a>
</g>
</g>
<!-- Node5 -->
<g id="Node000005" class="node">
<title>Node5</title>
<g id="a_Node000005"><a xlink:href="../../df/dfa/classiot_1_1IoTDevice.html#a5d5f0db665e7811d71d5ee86f570e9fe" target="_top" xlink:title=" ">
<polygon fill="white" stroke="#666666" points="492,-81 343,-81 343,-62 492,-62 492,-81"/>
<text text-anchor="middle" x="417.5" y="-69" font-family="Helvetica,sans-Serif" font-size="10.00">iot::IoTDevice::getDeviceId</text>
</a>
</g>
</g>
<!-- Node1&#45;&gt;Node5 -->
<g id="edge4_Node000001_Node000005" class="edge">
<title>Node1&#45;&gt;Node5</title>
<g id="a_edge4_Node000001_Node000005"><a xlink:title=" ">
<path fill="none" stroke="#63b8ff" d="M138.04,-90.79C193.84,-86.92 273.08,-81.43 332.77,-77.3"/>
<polygon fill="#63b8ff" stroke="#63b8ff" points="333.19,-80.78 342.92,-76.6 332.7,-73.8 333.19,-80.78"/>
</a>
</g>
</g>
<!-- Node6 -->
<g id="Node000006" class="node">
<title>Node6</title>
<g id="a_Node000006"><a xlink:href="../../db/d3a/classiot_1_1BatteryManager.html#a23396a965f2abdca618bbe884eeec368" target="_top" xlink:title="Get power consumption rate.">
<polygon fill="white" stroke="#666666" points="307,-67.5 174,-67.5 174,-37.5 307,-37.5 307,-67.5"/>
<text text-anchor="start" x="182" y="-55.5" font-family="Helvetica,sans-Serif" font-size="10.00">iot::BatteryManager</text>
<text text-anchor="middle" x="240.5" y="-44.5" font-family="Helvetica,sans-Serif" font-size="10.00">::getPowerConsumption</text>
</a>
</g>
</g>
<!-- Node1&#45;&gt;Node6 -->
<g id="edge5_Node000001_Node000006" class="edge">
<title>Node1&#45;&gt;Node6</title>
<g id="a_edge5_Node000001_Node000006"><a xlink:title=" ">
<path fill="none" stroke="#63b8ff" d="M129.28,-80.46C142.57,-77.09 156.78,-73.48 170.43,-70.02"/>
<polygon fill="#63b8ff" stroke="#63b8ff" points="171.42,-73.38 180.25,-67.53 169.7,-66.6 171.42,-73.38"/>
</a>
</g>
</g>
<!-- Node7 -->
<g id="Node000007" class="node">
<title>Node7</title>
<g id="a_Node000007"><a xlink:href="../../d6/da8/classiot_1_1Sensor.html#a4fe640988365e72916e10897b82980d1" target="_top" xlink:title=" ">
<polygon fill="white" stroke="#666666" points="301,-19 180,-19 180,0 301,0 301,-19"/>
<text text-anchor="middle" x="240.5" y="-7" font-family="Helvetica,sans-Serif" font-size="10.00">iot::Sensor::sendData</text>
</a>
</g>
</g>
<!-- Node1&#45;&gt;Node7 -->
<g id="edge6_Node000001_Node000007" class="edge">
<title>Node1&#45;&gt;Node7</title>
<g id="a_edge6_Node000001_Node000007"><a xlink:title=" ">
<path fill="none" stroke="#63b8ff" d="M89.71,-80.31C109.92,-65.35 142.73,-42.74 174,-28.5 179.05,-26.2 184.45,-24.11 189.9,-22.22"/>
<polygon fill="#63b8ff" stroke="#63b8ff" points="191.26,-25.46 199.69,-19.04 189.1,-18.8 191.26,-25.46"/>
</a>
</g>
</g>
<!-- Node3 -->
<g id="Node000003" class="node">
<title>Node3</title>
<g id="a_Node000003"><a xlink:href="../../db/d3a/classiot_1_1BatteryManager.html#adb91c09eee77621a40e0ffdc0430ba81" target="_top" xlink:title="Enter low power mode.">
<polygon fill="white" stroke="#666666" points="480,-201.5 355,-201.5 355,-171.5 480,-171.5 480,-201.5"/>
<text text-anchor="start" x="363" y="-189.5" font-family="Helvetica,sans-Serif" font-size="10.00">iot::BatteryManager</text>
<text text-anchor="middle" x="417.5" y="-178.5" font-family="Helvetica,sans-Serif" font-size="10.00">::enterLowPowerMode</text>
</a>
</g>
</g>
<!-- Node2&#45;&gt;Node3 -->
<g id="edge2_Node000002_Node000003" class="edge">
<title>Node2&#45;&gt;Node3</title>
<g id="a_edge2_Node000002_Node000003"><a xlink:title=" ">
<path fill="none" stroke="#63b8ff" d="M297.83,-186.5C312.75,-186.5 329.06,-186.5 344.68,-186.5"/>
<polygon fill="#63b8ff" stroke="#63b8ff" points="344.82,-190 354.82,-186.5 344.82,-183 344.82,-190"/>
</a>
</g>
</g>
<!-- Node7&#45;&gt;Node5 -->
<g id="edge7_Node000007_Node000005" class="edge">
<title>Node7&#45;&gt;Node5</title>
<g id="a_edge7_Node000007_Node000005"><a xlink:title=" ">
<path fill="none" stroke="#63b8ff" d="M276.7,-19.07C286.56,-21.92 297.25,-25.18 307,-28.5 333.49,-37.52 362.99,-49.2 384.69,-58.11"/>
<polygon fill="#63b8ff" stroke="#63b8ff" points="383.5,-61.41 394.07,-61.99 386.17,-54.94 383.5,-61.41"/>
</a>
</g>
</g>
<!-- Node8 -->
<g id="Node000008" class="node">
<title>Node8</title>
<g id="a_Node000008"><a xlink:href="../../d6/da8/classiot_1_1Sensor.html#a51c394181353e6cc6d6be1f397b41aca" target="_top" xlink:title=" ">
<polygon fill="white" stroke="#666666" points="479,-19 356,-19 356,0 479,0 479,-19"/>
<text text-anchor="middle" x="417.5" y="-7" font-family="Helvetica,sans-Serif" font-size="10.00">iot::Sensor::readValue</text>
</a>
</g>
</g>
<!-- Node7&#45;&gt;Node8 -->
<g id="edge8_Node000007_Node000008" class="edge">
<title>Node7&#45;&gt;Node8</title>
<g id="a_edge8_Node000007_Node000008"><a xlink:title=" ">
<path fill="none" stroke="#63b8ff" d="M301.24,-9.5C315.56,-9.5 330.98,-9.5 345.75,-9.5"/>
<polygon fill="#63b8ff" stroke="#63b8ff" points="345.84,-13 355.84,-9.5 345.84,-6 345.84,-13"/>
</a>
</g>
</g>
</g>
</svg>
