<?xml version="1.0" encoding="UTF-8" standalone="no"?>
<!DOCTYPE svg PUBLIC "-//W3C//DTD SVG 1.1//EN"
 "http://www.w3.org/Graphics/SVG/1.1/DTD/svg11.dtd">
<!-- Generated by graphviz version 2.43.0 (0)
 -->
<!-- Title: iot::BatteryMotionSensor::receiveData Pages: 1 -->
<svg width="519pt" height="192pt"
 viewBox="0.00 0.00 519.00 191.50" xmlns="http://www.w3.org/2000/svg" xmlns:xlink="http://www.w3.org/1999/xlink">
<g id="graph0" class="graph" transform="scale(1 1) rotate(0) translate(4 187.5)">
<title>iot::BatteryMotionSensor::receiveData</title>
<!-- Node1 -->
<g id="Node000001" class="node">
<title>Node1</title>
<g id="a_Node000001"><a xlink:title=" ">
<polygon fill="#999999" stroke="#666666" points="138,-135.5 0,-135.5 0,-105.5 138,-105.5 138,-135.5"/>
<text text-anchor="start" x="8" y="-123.5" font-family="Helvetica,sans-Serif" font-size="10.00">iot::BatteryMotionSensor</text>
<text text-anchor="middle" x="69" y="-112.5" font-family="Helvetica,sans-Serif" font-size="10.00">::receiveData</text>
</a>
</g>
</g>
<!-- Node2 -->
<g id="Node000002" class="node">
<title>Node2</title>
<g id="a_Node000002"><a xlink:href="../../db/d3a/classiot_1_1BatteryManager.html#a0c63fbec278f5c0303a979d85dcad983" target="_top" xlink:title="Consume battery power.">
<polygon fill="white" stroke="#666666" points="298,-183.5 184,-183.5 184,-153.5 298,-153.5 298,-183.5"/>
<text text-anchor="start" x="192" y="-171.5" font-family="Helvetica,sans-Serif" font-size="10.00">iot::BatteryManager</text>
<text text-anchor="middle" x="241" y="-160.5" font-family="Helvetica,sans-Serif" font-size="10.00">::consumePower</text>
</a>
</g>
</g>
<!-- Node1&#45;&gt;Node2 -->
<g id="edge1_Node000001_Node000002" class="edge">
<title>Node1&#45;&gt;Node2</title>
<g id="a_edge1_Node000001_Node000002"><a xlink:title=" ">
<path fill="none" stroke="#63b8ff" d="M123.32,-135.56C140.41,-140.38 159.49,-145.77 177.2,-150.77"/>
<polygon fill="#63b8ff" stroke="#63b8ff" points="176.29,-154.15 186.87,-153.5 178.19,-147.41 176.29,-154.15"/>
</a>
</g>
</g>
<!-- Node4 -->
<g id="Node000004" class="node">
<title>Node4</title>
<g id="a_Node000004"><a xlink:href="../../db/d3a/classiot_1_1BatteryManager.html#a23396a965f2abdca618bbe884eeec368" target="_top" xlink:title="Get power consumption rate.">
<polygon fill="white" stroke="#666666" points="307.5,-135.5 174.5,-135.5 174.5,-105.5 307.5,-105.5 307.5,-135.5"/>
<text text-anchor="start" x="182.5" y="-123.5" font-family="Helvetica,sans-Serif" font-size="10.00">iot::BatteryManager</text>
<text text-anchor="middle" x="241" y="-112.5" font-family="Helvetica,sans-Serif" font-size="10.00">::getPowerConsumption</text>
</a>
</g>
</g>
<!-- Node1&#45;&gt;Node4 -->
<g id="edge3_Node000001_Node000004" class="edge">
<title>Node1&#45;&gt;Node4</title>
<g id="a_edge3_Node000001_Node000004"><a xlink:title=" ">
<path fill="none" stroke="#63b8ff" d="M138.17,-120.5C146.73,-120.5 155.53,-120.5 164.21,-120.5"/>
<polygon fill="#63b8ff" stroke="#63b8ff" points="164.31,-124 174.31,-120.5 164.31,-117 164.31,-124"/>
</a>
</g>
</g>
<!-- Node5 -->
<g id="Node000005" class="node">
<title>Node5</title>
<g id="a_Node000005"><a xlink:href="../../d6/da8/classiot_1_1Sensor.html#a661faef89fe1817bcceccdc5e16b7c8a" target="_top" xlink:title=" ">
<polygon fill="white" stroke="#666666" points="308,-87 174,-87 174,-68 308,-68 308,-87"/>
<text text-anchor="middle" x="241" y="-75" font-family="Helvetica,sans-Serif" font-size="10.00">iot::Sensor::receiveData</text>
</a>
</g>
</g>
<!-- Node1&#45;&gt;Node5 -->
<g id="edge4_Node000001_Node000005" class="edge">
<title>Node1&#45;&gt;Node5</title>
<g id="a_edge4_Node000001_Node000005"><a xlink:title=" ">
<path fill="none" stroke="#63b8ff" d="M129.46,-105.46C150.09,-100.24 172.93,-94.47 192.47,-89.52"/>
<polygon fill="#63b8ff" stroke="#63b8ff" points="193.52,-92.87 202.35,-87.02 191.8,-86.08 193.52,-92.87"/>
</a>
</g>
</g>
<!-- Node3 -->
<g id="Node000003" class="node">
<title>Node3</title>
<g id="a_Node000003"><a xlink:href="../../db/d3a/classiot_1_1BatteryManager.html#adb91c09eee77621a40e0ffdc0430ba81" target="_top" xlink:title="Enter low power mode.">
<polygon fill="white" stroke="#666666" points="490,-183.5 365,-183.5 365,-153.5 490,-153.5 490,-183.5"/>
<text text-anchor="start" x="373" y="-171.5" font-family="Helvetica,sans-Serif" font-size="10.00">iot::BatteryManager</text>
<text text-anchor="middle" x="427.5" y="-160.5" font-family="Helvetica,sans-Serif" font-size="10.00">::enterLowPowerMode</text>
</a>
</g>
</g>
<!-- Node2&#45;&gt;Node3 -->
<g id="edge2_Node000002_Node000003" class="edge">
<title>Node2&#45;&gt;Node3</title>
<g id="a_edge2_Node000002_Node000003"><a xlink:title=" ">
<path fill="none" stroke="#63b8ff" d="M298.11,-168.5C315.99,-168.5 336.03,-168.5 354.86,-168.5"/>
<polygon fill="#63b8ff" stroke="#63b8ff" points="354.87,-172 364.87,-168.5 354.87,-165 354.87,-172"/>
</a>
</g>
</g>
<!-- Node6 -->
<g id="Node000006" class="node">
<title>Node6</title>
<g id="a_Node000006"><a xlink:href="../../df/dfa/classiot_1_1IoTDevice.html#a5d5f0db665e7811d71d5ee86f570e9fe" target="_top" xlink:title=" ">
<polygon fill="white" stroke="#666666" points="502,-130 353,-130 353,-111 502,-111 502,-130"/>
<text text-anchor="middle" x="427.5" y="-118" font-family="Helvetica,sans-Serif" font-size="10.00">iot::IoTDevice::getDeviceId</text>
</a>
</g>
</g>
<!-- Node5&#45;&gt;Node6 -->
<g id="edge5_Node000005_Node000006" class="edge">
<title>Node5&#45;&gt;Node6</title>
<g id="a_edge5_Node000005_Node000006"><a xlink:title=" ">
<path fill="none" stroke="#63b8ff" d="M280.21,-87.11C299.34,-91.86 322.86,-97.6 344,-102.5 353.02,-104.59 362.61,-106.74 371.94,-108.8"/>
<polygon fill="#63b8ff" stroke="#63b8ff" points="371.41,-112.27 381.92,-110.99 372.91,-105.43 371.41,-112.27"/>
</a>
</g>
</g>
<!-- Node7 -->
<g id="Node000007" class="node">
<title>Node7</title>
<g id="a_Node000007"><a xlink:href="../../d6/d08/classiot_1_1Message.html#adbd88582dd9c4207b91b96083b8f46ea" target="_top" xlink:title=" ">
<polygon fill="white" stroke="#666666" points="511,-93 344,-93 344,-74 511,-74 511,-93"/>
<text text-anchor="middle" x="427.5" y="-81" font-family="Helvetica,sans-Serif" font-size="10.00">iot::Message::getMessageType</text>
</a>
</g>
</g>
<!-- Node5&#45;&gt;Node7 -->
<g id="edge6_Node000005_Node000007" class="edge">
<title>Node5&#45;&gt;Node7</title>
<g id="a_edge6_Node000005_Node000007"><a xlink:title=" ">
<path fill="none" stroke="#63b8ff" d="M308.09,-79.65C316.41,-79.92 325.04,-80.2 333.68,-80.48"/>
<polygon fill="#63b8ff" stroke="#63b8ff" points="333.7,-83.98 343.81,-80.81 333.93,-76.99 333.7,-83.98"/>
</a>
</g>
</g>
<!-- Node8 -->
<g id="Node000008" class="node">
<title>Node8</title>
<g id="a_Node000008"><a xlink:href="../../d6/d08/classiot_1_1Message.html#a866a8a1eb2d5df27485288aa87a4095a" target="_top" xlink:title=" ">
<polygon fill="white" stroke="#666666" points="497,-56 358,-56 358,-37 497,-37 497,-56"/>
<text text-anchor="middle" x="427.5" y="-44" font-family="Helvetica,sans-Serif" font-size="10.00">iot::Message::getPayload</text>
</a>
</g>
</g>
<!-- Node5&#45;&gt;Node8 -->
<g id="edge7_Node000005_Node000008" class="edge">
<title>Node5&#45;&gt;Node8</title>
<g id="a_edge7_Node000005_Node000008"><a xlink:title=" ">
<path fill="none" stroke="#63b8ff" d="M298.61,-67.99C317.91,-64.75 339.67,-61.09 359.7,-57.72"/>
<polygon fill="#63b8ff" stroke="#63b8ff" points="360.4,-61.16 369.68,-56.05 359.24,-54.25 360.4,-61.16"/>
</a>
</g>
</g>
<!-- Node9 -->
<g id="Node000009" class="node">
<title>Node9</title>
<g id="a_Node000009"><a xlink:href="../../df/dfa/classiot_1_1IoTDevice.html#a135a2c3070f6fbc2853dbd64ceefeb6f" target="_top" xlink:title=" ">
<polygon fill="white" stroke="#666666" points="496,-19 359,-19 359,0 496,0 496,-19"/>
<text text-anchor="middle" x="427.5" y="-7" font-family="Helvetica,sans-Serif" font-size="10.00">iot::IoTDevice::getStatus</text>
</a>
</g>
</g>
<!-- Node5&#45;&gt;Node9 -->
<g id="edge8_Node000005_Node000009" class="edge">
<title>Node5&#45;&gt;Node9</title>
<g id="a_edge8_Node000005_Node000009"><a xlink:title=" ">
<path fill="none" stroke="#63b8ff" d="M258.43,-67.9C278.16,-56.74 312.53,-38.47 344,-27.5 350.32,-25.3 357.02,-23.31 363.75,-21.52"/>
<polygon fill="#63b8ff" stroke="#63b8ff" points="364.75,-24.88 373.6,-19.06 363.05,-18.09 364.75,-24.88"/>
</a>
</g>
</g>
</g>
</svg>
