<?xml version="1.0" encoding="UTF-8" standalone="no"?>
<!DOCTYPE svg PUBLIC "-//W3C//DTD SVG 1.1//EN"
 "http://www.w3.org/Graphics/SVG/1.1/DTD/svg11.dtd">
<!-- Generated by graphviz version 2.43.0 (0)
 -->
<!-- Title: iot::ZigBeeMotionSensor::sendData Pages: 1 -->
<svg width="506pt" height="162pt"
 viewBox="0.00 0.00 506.00 161.50" xmlns="http://www.w3.org/2000/svg" xmlns:xlink="http://www.w3.org/1999/xlink">
<g id="graph0" class="graph" transform="scale(1 1) rotate(0) translate(4 157.5)">
<title>iot::ZigBeeMotionSensor::sendData</title>
<!-- Node1 -->
<g id="Node000001" class="node">
<title>Node1</title>
<g id="a_Node000001"><a xlink:title=" ">
<polygon fill="#999999" stroke="#666666" points="137,-83.5 0,-83.5 0,-53.5 137,-53.5 137,-83.5"/>
<text text-anchor="start" x="8" y="-71.5" font-family="Helvetica,sans-Serif" font-size="10.00">iot::ZigBeeMotionSensor</text>
<text text-anchor="middle" x="68.5" y="-60.5" font-family="Helvetica,sans-Serif" font-size="10.00">::sendData</text>
</a>
</g>
</g>
<!-- Node2 -->
<g id="Node000002" class="node">
<title>Node2</title>
<g id="a_Node000002"><a xlink:href="../../d8/d4f/classiot_1_1ProtocolAwareDevice.html#a3d463fd3d2ef0579b7a9eebbabf3eedf" target="_top" xlink:title=" ">
<polygon fill="white" stroke="#666666" points="313,-153.5 173,-153.5 173,-123.5 313,-123.5 313,-153.5"/>
<text text-anchor="start" x="181" y="-141.5" font-family="Helvetica,sans-Serif" font-size="10.00">iot::ProtocolAwareDevice</text>
<text text-anchor="middle" x="243" y="-130.5" font-family="Helvetica,sans-Serif" font-size="10.00">::consumeBattery</text>
</a>
</g>
</g>
<!-- Node1&#45;&gt;Node2 -->
<g id="edge1_Node000001_Node000002" class="edge">
<title>Node1&#45;&gt;Node2</title>
<g id="a_edge1_Node000001_Node000002"><a xlink:title=" ">
<path fill="none" stroke="#63b8ff" d="M101.84,-83.71C122.1,-93.03 148.86,-104.96 173,-114.5 177.67,-116.35 182.55,-118.2 187.46,-120"/>
<polygon fill="#63b8ff" stroke="#63b8ff" points="186.29,-123.31 196.89,-123.42 188.68,-116.72 186.29,-123.31"/>
</a>
</g>
</g>
<!-- Node4 -->
<g id="Node000004" class="node">
<title>Node4</title>
<g id="a_Node000004"><a xlink:href="../../d8/d4f/classiot_1_1ProtocolAwareDevice.html#aeff96efe6c1829be21d5daa2df3e7c3b" target="_top" xlink:title=" ">
<polygon fill="white" stroke="#666666" points="313,-105.5 173,-105.5 173,-75.5 313,-75.5 313,-105.5"/>
<text text-anchor="start" x="181" y="-93.5" font-family="Helvetica,sans-Serif" font-size="10.00">iot::ProtocolAwareDevice</text>
<text text-anchor="middle" x="243" y="-82.5" font-family="Helvetica,sans-Serif" font-size="10.00">::getBatteryLevel</text>
</a>
</g>
</g>
<!-- Node1&#45;&gt;Node4 -->
<g id="edge3_Node000001_Node000004" class="edge">
<title>Node1&#45;&gt;Node4</title>
<g id="a_edge3_Node000001_Node000004"><a xlink:title=" ">
<path fill="none" stroke="#63b8ff" d="M137.18,-77.13C145.59,-78.2 154.25,-79.31 162.82,-80.4"/>
<polygon fill="#63b8ff" stroke="#63b8ff" points="162.45,-83.88 172.81,-81.68 163.34,-76.94 162.45,-83.88"/>
</a>
</g>
</g>
<!-- Node5 -->
<g id="Node000005" class="node">
<title>Node5</title>
<g id="a_Node000005"><a xlink:href="../../df/dfa/classiot_1_1IoTDevice.html#a5d5f0db665e7811d71d5ee86f570e9fe" target="_top" xlink:title=" ">
<polygon fill="white" stroke="#666666" points="498,-57 349,-57 349,-38 498,-38 498,-57"/>
<text text-anchor="middle" x="423.5" y="-45" font-family="Helvetica,sans-Serif" font-size="10.00">iot::IoTDevice::getDeviceId</text>
</a>
</g>
</g>
<!-- Node1&#45;&gt;Node5 -->
<g id="edge4_Node000001_Node000005" class="edge">
<title>Node1&#45;&gt;Node5</title>
<g id="a_edge4_Node000001_Node000005"><a xlink:title=" ">
<path fill="none" stroke="#63b8ff" d="M137.14,-64.48C194.6,-61.06 277.32,-56.14 338.91,-52.47"/>
<polygon fill="#63b8ff" stroke="#63b8ff" points="339.22,-55.96 349,-51.87 338.81,-48.97 339.22,-55.96"/>
</a>
</g>
</g>
<!-- Node6 -->
<g id="Node000006" class="node">
<title>Node6</title>
<g id="a_Node000006"><a xlink:href="../../d6/da8/classiot_1_1Sensor.html#a4fe640988365e72916e10897b82980d1" target="_top" xlink:title=" ">
<polygon fill="white" stroke="#666666" points="303.5,-19 182.5,-19 182.5,0 303.5,0 303.5,-19"/>
<text text-anchor="middle" x="243" y="-7" font-family="Helvetica,sans-Serif" font-size="10.00">iot::Sensor::sendData</text>
</a>
</g>
</g>
<!-- Node1&#45;&gt;Node6 -->
<g id="edge5_Node000001_Node000006" class="edge">
<title>Node1&#45;&gt;Node6</title>
<g id="a_edge5_Node000001_Node000006"><a xlink:title=" ">
<path fill="none" stroke="#63b8ff" d="M113.48,-53.46C141.53,-43.86 177.52,-31.55 204.28,-22.4"/>
<polygon fill="#63b8ff" stroke="#63b8ff" points="205.71,-25.61 214.04,-19.06 203.45,-18.99 205.71,-25.61"/>
</a>
</g>
</g>
<!-- Node3 -->
<g id="Node000003" class="node">
<title>Node3</title>
<g id="a_Node000003"><a xlink:href="../../d8/d4f/classiot_1_1ProtocolAwareDevice.html#a5ac3a5560d819bad01f1c369d2edc4b6" target="_top" xlink:title=" ">
<polygon fill="white" stroke="#666666" points="493.5,-153.5 353.5,-153.5 353.5,-123.5 493.5,-123.5 493.5,-153.5"/>
<text text-anchor="start" x="361.5" y="-141.5" font-family="Helvetica,sans-Serif" font-size="10.00">iot::ProtocolAwareDevice</text>
<text text-anchor="middle" x="423.5" y="-130.5" font-family="Helvetica,sans-Serif" font-size="10.00">::enterLowPowerMode</text>
</a>
</g>
</g>
<!-- Node2&#45;&gt;Node3 -->
<g id="edge2_Node000002_Node000003" class="edge">
<title>Node2&#45;&gt;Node3</title>
<g id="a_edge2_Node000002_Node000003"><a xlink:title=" ">
<path fill="none" stroke="#63b8ff" d="M313.01,-138.5C322.95,-138.5 333.23,-138.5 343.34,-138.5"/>
<polygon fill="#63b8ff" stroke="#63b8ff" points="343.38,-142 353.38,-138.5 343.38,-135 343.38,-142"/>
</a>
</g>
</g>
<!-- Node6&#45;&gt;Node5 -->
<g id="edge6_Node000006_Node000005" class="edge">
<title>Node6&#45;&gt;Node5</title>
<g id="a_edge6_Node000006_Node000005"><a xlink:title=" ">
<path fill="none" stroke="#63b8ff" d="M289.04,-19.09C313.02,-24.19 342.7,-30.51 367.97,-35.89"/>
<polygon fill="#63b8ff" stroke="#63b8ff" points="367.27,-39.32 377.78,-37.98 368.73,-32.47 367.27,-39.32"/>
</a>
</g>
</g>
<!-- Node7 -->
<g id="Node000007" class="node">
<title>Node7</title>
<g id="a_Node000007"><a xlink:href="../../d6/da8/classiot_1_1Sensor.html#a51c394181353e6cc6d6be1f397b41aca" target="_top" xlink:title=" ">
<polygon fill="white" stroke="#666666" points="485,-19 362,-19 362,0 485,0 485,-19"/>
<text text-anchor="middle" x="423.5" y="-7" font-family="Helvetica,sans-Serif" font-size="10.00">iot::Sensor::readValue</text>
</a>
</g>
</g>
<!-- Node6&#45;&gt;Node7 -->
<g id="edge7_Node000006_Node000007" class="edge">
<title>Node6&#45;&gt;Node7</title>
<g id="a_edge7_Node000006_Node000007"><a xlink:title=" ">
<path fill="none" stroke="#63b8ff" d="M303.93,-9.5C319.22,-9.5 335.8,-9.5 351.58,-9.5"/>
<polygon fill="#63b8ff" stroke="#63b8ff" points="351.81,-13 361.81,-9.5 351.81,-6 351.81,-13"/>
</a>
</g>
</g>
</g>
</svg>
