<?xml version="1.0" encoding="UTF-8" standalone="no"?>
<!DOCTYPE svg PUBLIC "-//W3C//DTD SVG 1.1//EN"
 "http://www.w3.org/Graphics/SVG/1.1/DTD/svg11.dtd">
<!-- Generated by graphviz version 2.43.0 (0)
 -->
<!-- Title: iot::ZigBeeMotionSensor::readValue Pages: 1 -->
<svg width="497pt" height="38pt"
 viewBox="0.00 0.00 497.00 38.00" xmlns="http://www.w3.org/2000/svg" xmlns:xlink="http://www.w3.org/1999/xlink">
<g id="graph0" class="graph" transform="scale(1 1) rotate(0) translate(4 34)">
<title>iot::ZigBeeMotionSensor::readValue</title>
<!-- Node1 -->
<g id="Node000001" class="node">
<title>Node1</title>
<g id="a_Node000001"><a xlink:title=" ">
<polygon fill="#999999" stroke="#666666" points="137,-30 0,-30 0,0 137,0 137,-30"/>
<text text-anchor="start" x="8" y="-18" font-family="Helvetica,sans-Serif" font-size="10.00">iot::ZigBeeMotionSensor</text>
<text text-anchor="middle" x="68.5" y="-7" font-family="Helvetica,sans-Serif" font-size="10.00">::readValue</text>
</a>
</g>
</g>
<!-- Node2 -->
<g id="Node000002" class="node">
<title>Node2</title>
<g id="a_Node000002"><a xlink:href="../../d8/d4f/classiot_1_1ProtocolAwareDevice.html#a3d463fd3d2ef0579b7a9eebbabf3eedf" target="_top" xlink:title=" ">
<polygon fill="white" stroke="#666666" points="313,-30 173,-30 173,0 313,0 313,-30"/>
<text text-anchor="start" x="181" y="-18" font-family="Helvetica,sans-Serif" font-size="10.00">iot::ProtocolAwareDevice</text>
<text text-anchor="middle" x="243" y="-7" font-family="Helvetica,sans-Serif" font-size="10.00">::consumeBattery</text>
</a>
</g>
</g>
<!-- Node1&#45;&gt;Node2 -->
<g id="edge1_Node000001_Node000002" class="edge">
<title>Node1&#45;&gt;Node2</title>
<g id="a_edge1_Node000001_Node000002"><a xlink:title=" ">
<path fill="none" stroke="#63b8ff" d="M137.18,-15C145.5,-15 154.07,-15 162.54,-15"/>
<polygon fill="#63b8ff" stroke="#63b8ff" points="162.81,-18.5 172.81,-15 162.81,-11.5 162.81,-18.5"/>
</a>
</g>
</g>
<!-- Node3 -->
<g id="Node000003" class="node">
<title>Node3</title>
<g id="a_Node000003"><a xlink:href="../../d8/d4f/classiot_1_1ProtocolAwareDevice.html#a5ac3a5560d819bad01f1c369d2edc4b6" target="_top" xlink:title=" ">
<polygon fill="white" stroke="#666666" points="489,-30 349,-30 349,0 489,0 489,-30"/>
<text text-anchor="start" x="357" y="-18" font-family="Helvetica,sans-Serif" font-size="10.00">iot::ProtocolAwareDevice</text>
<text text-anchor="middle" x="419" y="-7" font-family="Helvetica,sans-Serif" font-size="10.00">::enterLowPowerMode</text>
</a>
</g>
</g>
<!-- Node2&#45;&gt;Node3 -->
<g id="edge2_Node000002_Node000003" class="edge">
<title>Node2&#45;&gt;Node3</title>
<g id="a_edge2_Node000002_Node000003"><a xlink:title=" ">
<path fill="none" stroke="#63b8ff" d="M313.02,-15C321.48,-15 330.17,-15 338.76,-15"/>
<polygon fill="#63b8ff" stroke="#63b8ff" points="338.78,-18.5 348.78,-15 338.78,-11.5 338.78,-18.5"/>
</a>
</g>
</g>
</g>
</svg>
