<?xml version="1.0" encoding="UTF-8" standalone="no"?>
<!DOCTYPE svg PUBLIC "-//W3C//DTD SVG 1.1//EN"
 "http://www.w3.org/Graphics/SVG/1.1/DTD/svg11.dtd">
<!-- Generated by graphviz version 2.43.0 (0)
 -->
<!-- Title: src/devices/ConcreteActuators.cpp Pages: 1 -->
<svg width="391pt" height="258pt"
 viewBox="0.00 0.00 391.00 258.00" xmlns="http://www.w3.org/2000/svg" xmlns:xlink="http://www.w3.org/1999/xlink">
<g id="graph0" class="graph" transform="scale(1 1) rotate(0) translate(4 254)">
<title>src/devices/ConcreteActuators.cpp</title>
<!-- Node1 -->
<g id="Node000001" class="node">
<title>Node1</title>
<g id="a_Node000001"><a xlink:title=" ">
<polygon fill="#999999" stroke="#666666" points="331.5,-250 146.5,-250 146.5,-231 331.5,-231 331.5,-250"/>
<text text-anchor="middle" x="239" y="-238" font-family="Helvetica,sans-Serif" font-size="10.00">src/devices/ConcreteActuators.cpp</text>
</a>
</g>
</g>
<!-- Node2 -->
<g id="Node000002" class="node">
<title>Node2</title>
<g id="a_Node000002"><a xlink:href="../../d6/de2/ConcreteActuators_8h.html" target="_top" xlink:title=" ">
<polygon fill="white" stroke="#666666" points="150.5,-195 31.5,-195 31.5,-165 150.5,-165 150.5,-195"/>
<text text-anchor="start" x="39.5" y="-183" font-family="Helvetica,sans-Serif" font-size="10.00">../../include/devices</text>
<text text-anchor="middle" x="91" y="-172" font-family="Helvetica,sans-Serif" font-size="10.00">/ConcreteActuators.h</text>
</a>
</g>
</g>
<!-- Node1&#45;&gt;Node2 -->
<g id="edge1_Node000001_Node000002" class="edge">
<title>Node1&#45;&gt;Node2</title>
<g id="a_edge1_Node000001_Node000002"><a xlink:title=" ">
<path fill="none" stroke="#63b8ff" d="M217.48,-230.99C196.27,-222.61 163.22,-209.55 136.22,-198.87"/>
<polygon fill="#63b8ff" stroke="#63b8ff" points="137.17,-195.49 126.58,-195.06 134.59,-202 137.17,-195.49"/>
</a>
</g>
</g>
<!-- Node8 -->
<g id="Node000008" class="node">
<title>Node8</title>
<g id="a_Node000008"><a xlink:title=" ">
<polygon fill="#e0e0e0" stroke="#999999" points="229,-189.5 169,-189.5 169,-170.5 229,-170.5 229,-189.5"/>
<text text-anchor="middle" x="199" y="-177.5" font-family="Helvetica,sans-Serif" font-size="10.00">iostream</text>
</a>
</g>
</g>
<!-- Node1&#45;&gt;Node8 -->
<g id="edge7_Node000001_Node000008" class="edge">
<title>Node1&#45;&gt;Node8</title>
<g id="a_edge7_Node000001_Node000008"><a xlink:title=" ">
<path fill="none" stroke="#63b8ff" d="M233.1,-230.87C227.25,-222.31 218.13,-208.97 210.79,-198.24"/>
<polygon fill="#63b8ff" stroke="#63b8ff" points="213.46,-195.95 204.93,-189.67 207.68,-199.9 213.46,-195.95"/>
</a>
</g>
</g>
<!-- Node9 -->
<g id="Node000009" class="node">
<title>Node9</title>
<g id="a_Node000009"><a xlink:title=" ">
<polygon fill="#e0e0e0" stroke="#999999" points="311,-189.5 247,-189.5 247,-170.5 311,-170.5 311,-189.5"/>
<text text-anchor="middle" x="279" y="-177.5" font-family="Helvetica,sans-Serif" font-size="10.00">algorithm</text>
</a>
</g>
</g>
<!-- Node1&#45;&gt;Node9 -->
<g id="edge8_Node000001_Node000009" class="edge">
<title>Node1&#45;&gt;Node9</title>
<g id="a_edge8_Node000001_Node000009"><a xlink:title=" ">
<path fill="none" stroke="#63b8ff" d="M244.9,-230.87C250.75,-222.31 259.87,-208.97 267.21,-198.24"/>
<polygon fill="#63b8ff" stroke="#63b8ff" points="270.32,-199.9 273.07,-189.67 264.54,-195.95 270.32,-199.9"/>
</a>
</g>
</g>
<!-- Node10 -->
<g id="Node000010" class="node">
<title>Node10</title>
<g id="a_Node000010"><a xlink:title=" ">
<polygon fill="#e0e0e0" stroke="#999999" points="383,-189.5 329,-189.5 329,-170.5 383,-170.5 383,-189.5"/>
<text text-anchor="middle" x="356" y="-177.5" font-family="Helvetica,sans-Serif" font-size="10.00">random</text>
</a>
</g>
</g>
<!-- Node1&#45;&gt;Node10 -->
<g id="edge9_Node000001_Node000010" class="edge">
<title>Node1&#45;&gt;Node10</title>
<g id="a_edge9_Node000001_Node000010"><a xlink:title=" ">
<path fill="none" stroke="#63b8ff" d="M256.01,-230.99C275.42,-221.29 307.39,-205.31 329.94,-194.03"/>
<polygon fill="#63b8ff" stroke="#63b8ff" points="331.59,-197.12 338.97,-189.52 328.46,-190.86 331.59,-197.12"/>
</a>
</g>
</g>
<!-- Node3 -->
<g id="Node000003" class="node">
<title>Node3</title>
<g id="a_Node000003"><a xlink:href="../../d0/d81/Actuator_8h.html" target="_top" xlink:title=" ">
<polygon fill="white" stroke="#666666" points="124,-129 58,-129 58,-110 124,-110 124,-129"/>
<text text-anchor="middle" x="91" y="-117" font-family="Helvetica,sans-Serif" font-size="10.00">Actuator.h</text>
</a>
</g>
</g>
<!-- Node2&#45;&gt;Node3 -->
<g id="edge2_Node000002_Node000003" class="edge">
<title>Node2&#45;&gt;Node3</title>
<g id="a_edge2_Node000002_Node000003"><a xlink:title=" ">
<path fill="none" stroke="#63b8ff" d="M91,-164.84C91,-157.21 91,-147.7 91,-139.45"/>
<polygon fill="#63b8ff" stroke="#63b8ff" points="94.5,-139.27 91,-129.27 87.5,-139.27 94.5,-139.27"/>
</a>
</g>
</g>
<!-- Node4 -->
<g id="Node000004" class="node">
<title>Node4</title>
<g id="a_Node000004"><a xlink:href="../../de/daa/IoTDevice_8h.html" target="_top" xlink:title=" ">
<polygon fill="white" stroke="#666666" points="144.5,-74 37.5,-74 37.5,-55 144.5,-55 144.5,-74"/>
<text text-anchor="middle" x="91" y="-62" font-family="Helvetica,sans-Serif" font-size="10.00">../core/IoTDevice.h</text>
</a>
</g>
</g>
<!-- Node3&#45;&gt;Node4 -->
<g id="edge3_Node000003_Node000004" class="edge">
<title>Node3&#45;&gt;Node4</title>
<g id="a_edge3_Node000003_Node000004"><a xlink:title=" ">
<path fill="none" stroke="#63b8ff" d="M91,-109.75C91,-102.8 91,-92.85 91,-84.13"/>
<polygon fill="#63b8ff" stroke="#63b8ff" points="94.5,-84.09 91,-74.09 87.5,-84.09 94.5,-84.09"/>
</a>
</g>
</g>
<!-- Node5 -->
<g id="Node000005" class="node">
<title>Node5</title>
<g id="a_Node000005"><a xlink:title=" ">
<polygon fill="#e0e0e0" stroke="#999999" points="44,-19 0,-19 0,0 44,0 44,-19"/>
<text text-anchor="middle" x="22" y="-7" font-family="Helvetica,sans-Serif" font-size="10.00">string</text>
</a>
</g>
</g>
<!-- Node4&#45;&gt;Node5 -->
<g id="edge4_Node000004_Node000005" class="edge">
<title>Node4&#45;&gt;Node5</title>
<g id="a_edge4_Node000004_Node000005"><a xlink:title=" ">
<path fill="none" stroke="#63b8ff" d="M79.91,-54.98C69.51,-47 53.74,-34.88 41.28,-25.31"/>
<polygon fill="#63b8ff" stroke="#63b8ff" points="43.35,-22.49 33.29,-19.17 39.09,-28.04 43.35,-22.49"/>
</a>
</g>
</g>
<!-- Node6 -->
<g id="Node000006" class="node">
<title>Node6</title>
<g id="a_Node000006"><a xlink:title=" ">
<polygon fill="#e0e0e0" stroke="#999999" points="120,-19 62,-19 62,0 120,0 120,-19"/>
<text text-anchor="middle" x="91" y="-7" font-family="Helvetica,sans-Serif" font-size="10.00">memory</text>
</a>
</g>
</g>
<!-- Node4&#45;&gt;Node6 -->
<g id="edge5_Node000004_Node000006" class="edge">
<title>Node4&#45;&gt;Node6</title>
<g id="a_edge5_Node000004_Node000006"><a xlink:title=" ">
<path fill="none" stroke="#63b8ff" d="M91,-54.75C91,-47.8 91,-37.85 91,-29.13"/>
<polygon fill="#63b8ff" stroke="#63b8ff" points="94.5,-29.09 91,-19.09 87.5,-29.09 94.5,-29.09"/>
</a>
</g>
</g>
<!-- Node7 -->
<g id="Node000007" class="node">
<title>Node7</title>
<g id="a_Node000007"><a xlink:title=" ">
<polygon fill="#e0e0e0" stroke="#999999" points="188,-19 138,-19 138,0 188,0 188,-19"/>
<text text-anchor="middle" x="163" y="-7" font-family="Helvetica,sans-Serif" font-size="10.00">chrono</text>
</a>
</g>
</g>
<!-- Node4&#45;&gt;Node7 -->
<g id="edge6_Node000004_Node000007" class="edge">
<title>Node4&#45;&gt;Node7</title>
<g id="a_edge6_Node000004_Node000007"><a xlink:title=" ">
<path fill="none" stroke="#63b8ff" d="M102.57,-54.98C113.42,-47 129.88,-34.88 142.88,-25.31"/>
<polygon fill="#63b8ff" stroke="#63b8ff" points="145.24,-27.92 151.22,-19.17 141.09,-22.28 145.24,-27.92"/>
</a>
</g>
</g>
</g>
</svg>
