<?xml version="1.0" encoding="UTF-8" standalone="no"?>
<!DOCTYPE svg PUBLIC "-//W3C//DTD SVG 1.1//EN"
 "http://www.w3.org/Graphics/SVG/1.1/DTD/svg11.dtd">
<!-- Generated by graphviz version 2.43.0 (0)
 -->
<!-- Title: iot::ProtocolAwareDevice Pages: 1 -->
<svg width="465pt" height="367pt"
 viewBox="0.00 0.00 465.00 367.00" xmlns="http://www.w3.org/2000/svg" xmlns:xlink="http://www.w3.org/1999/xlink">
<g id="graph0" class="graph" transform="scale(1 1) rotate(0) translate(4 363)">
<title>iot::ProtocolAwareDevice</title>
<!-- Node1 -->
<g id="Node000001" class="node">
<title>Node1</title>
<g id="a_Node000001"><a xlink:title=" ">
<polygon fill="#999999" stroke="transparent" points="304.5,-359 162.5,-359 162.5,-160 304.5,-160 304.5,-359"/>
<text text-anchor="start" x="171.5" y="-346.5" font-family="Helvetica,sans-Serif" font-size="10.00">iot::ProtocolAwareDevice</text>
<text text-anchor="start" x="166.5" y="-331.5" font-family="Helvetica,sans-Serif" font-size="10.00">#</text>
<text text-anchor="start" x="179.5" y="-331.5" font-family="Helvetica,sans-Serif" font-size="10.00">protocol</text>
<text text-anchor="start" x="166.5" y="-316.5" font-family="Helvetica,sans-Serif" font-size="10.00">#</text>
<text text-anchor="start" x="179.5" y="-316.5" font-family="Helvetica,sans-Serif" font-size="10.00">batteryLevel</text>
<text text-anchor="start" x="166.5" y="-301.5" font-family="Helvetica,sans-Serif" font-size="10.00">#</text>
<text text-anchor="start" x="179.5" y="-301.5" font-family="Helvetica,sans-Serif" font-size="10.00">lowPowerMode</text>
<text text-anchor="start" x="166.5" y="-286.5" font-family="Helvetica,sans-Serif" font-size="10.00">+</text>
<text text-anchor="start" x="179.5" y="-286.5" font-family="Helvetica,sans-Serif" font-size="10.00">ProtocolAwareDevice()</text>
<text text-anchor="start" x="166.5" y="-271.5" font-family="Helvetica,sans-Serif" font-size="10.00">+</text>
<text text-anchor="start" x="179.5" y="-271.5" font-family="Helvetica,sans-Serif" font-size="10.00">~ProtocolAwareDevice()</text>
<text text-anchor="start" x="166.5" y="-256.5" font-family="Helvetica,sans-Serif" font-size="10.00">+</text>
<text text-anchor="start" x="179.5" y="-256.5" font-family="Helvetica,sans-Serif" font-size="10.00">enterLowPowerMode()</text>
<text text-anchor="start" x="166.5" y="-241.5" font-family="Helvetica,sans-Serif" font-size="10.00">+</text>
<text text-anchor="start" x="179.5" y="-241.5" font-family="Helvetica,sans-Serif" font-size="10.00">exitLowPowerMode()</text>
<text text-anchor="start" x="166.5" y="-226.5" font-family="Helvetica,sans-Serif" font-size="10.00">+</text>
<text text-anchor="start" x="179.5" y="-226.5" font-family="Helvetica,sans-Serif" font-size="10.00">consumeBattery()</text>
<text text-anchor="start" x="166.5" y="-211.5" font-family="Helvetica,sans-Serif" font-size="10.00">+</text>
<text text-anchor="start" x="179.5" y="-211.5" font-family="Helvetica,sans-Serif" font-size="10.00">getBatteryLevel()</text>
<text text-anchor="start" x="166.5" y="-196.5" font-family="Helvetica,sans-Serif" font-size="10.00">+</text>
<text text-anchor="start" x="179.5" y="-196.5" font-family="Helvetica,sans-Serif" font-size="10.00">getProtocol()</text>
<text text-anchor="start" x="166.5" y="-181.5" font-family="Helvetica,sans-Serif" font-size="10.00">+</text>
<text text-anchor="start" x="179.5" y="-181.5" font-family="Helvetica,sans-Serif" font-size="10.00">isInLowPowerMode()</text>
<text text-anchor="start" x="166.5" y="-166.5" font-family="Helvetica,sans-Serif" font-size="10.00">+</text>
<text text-anchor="start" x="179.5" y="-166.5" font-family="Helvetica,sans-Serif" font-size="10.00">getProtocolName()</text>
<polygon fill="#666666" stroke="#666666" points="162.5,-341.5 162.5,-341.5 304.5,-341.5 304.5,-341.5 162.5,-341.5"/>
<polygon fill="#666666" stroke="#666666" points="162.5,-296.5 162.5,-296.5 177.5,-296.5 177.5,-296.5 162.5,-296.5"/>
<polygon fill="#666666" stroke="#666666" points="177.5,-296.5 177.5,-296.5 304.5,-296.5 304.5,-296.5 177.5,-296.5"/>
<polygon fill="none" stroke="#666666" points="162.5,-160 162.5,-359 304.5,-359 304.5,-160 162.5,-160"/>
</a>
</g>
</g>
<!-- Node2 -->
<g id="Node000002" class="node">
<title>Node2</title>
<g id="a_Node000002"><a xlink:href="../../dd/d9a/classiot_1_1BLEHealthSensor.html" target="_top" xlink:title=" ">
<polygon fill="white" stroke="transparent" points="141,-116.5 0,-116.5 0,-7.5 141,-7.5 141,-116.5"/>
<text text-anchor="start" x="19.5" y="-104" font-family="Helvetica,sans-Serif" font-size="10.00">iot::BLEHealthSensor</text>
<text text-anchor="start" x="69" y="-89" font-family="Helvetica,sans-Serif" font-size="10.00"> </text>
<text text-anchor="start" x="4.5" y="-74" font-family="Helvetica,sans-Serif" font-size="10.00">+</text>
<text text-anchor="start" x="17.5" y="-74" font-family="Helvetica,sans-Serif" font-size="10.00">BLEHealthSensor()</text>
<text text-anchor="start" x="4.5" y="-59" font-family="Helvetica,sans-Serif" font-size="10.00">+</text>
<text text-anchor="start" x="17.5" y="-59" font-family="Helvetica,sans-Serif" font-size="10.00">readValue()</text>
<text text-anchor="start" x="4.5" y="-44" font-family="Helvetica,sans-Serif" font-size="10.00">+</text>
<text text-anchor="start" x="17.5" y="-44" font-family="Helvetica,sans-Serif" font-size="10.00">sendData()</text>
<text text-anchor="start" x="4.5" y="-29" font-family="Helvetica,sans-Serif" font-size="10.00">+</text>
<text text-anchor="start" x="17.5" y="-29" font-family="Helvetica,sans-Serif" font-size="10.00">setConnectionOriented()</text>
<text text-anchor="start" x="4.5" y="-14" font-family="Helvetica,sans-Serif" font-size="10.00">+</text>
<text text-anchor="start" x="17.5" y="-14" font-family="Helvetica,sans-Serif" font-size="10.00">isConnectionOriented()</text>
<polygon fill="#666666" stroke="#666666" points="0.5,-99 0.5,-99 141.5,-99 141.5,-99 0.5,-99"/>
<polygon fill="#666666" stroke="#666666" points="0.5,-84 0.5,-84 141.5,-84 141.5,-84 0.5,-84"/>
<polygon fill="none" stroke="#666666" points="0,-7.5 0,-116.5 141,-116.5 141,-7.5 0,-7.5"/>
</a>
</g>
</g>
<!-- Node1&#45;&gt;Node2 -->
<g id="edge1_Node000001_Node000002" class="edge">
<title>Node1&#45;&gt;Node2</title>
<g id="a_edge1_Node000001_Node000002"><a xlink:title=" ">
<path fill="none" stroke="#63b8ff" d="M156.06,-165.63C142.06,-148.83 127.9,-131.85 115.24,-116.66"/>
<polygon fill="none" stroke="#63b8ff" points="153.39,-167.88 162.48,-173.32 158.76,-163.4 153.39,-167.88"/>
</a>
</g>
</g>
<!-- Node3 -->
<g id="Node000003" class="node">
<title>Node3</title>
<g id="a_Node000003"><a xlink:href="../../d2/dc6/classiot_1_1LoRaTemperatureSensor.html" target="_top" xlink:title=" ">
<polygon fill="white" stroke="transparent" points="307.5,-116.5 159.5,-116.5 159.5,-7.5 307.5,-7.5 307.5,-116.5"/>
<text text-anchor="start" x="164.5" y="-104" font-family="Helvetica,sans-Serif" font-size="10.00">iot::LoRaTemperatureSensor</text>
<text text-anchor="start" x="231.5" y="-89" font-family="Helvetica,sans-Serif" font-size="10.00"> </text>
<text text-anchor="start" x="163.5" y="-74" font-family="Helvetica,sans-Serif" font-size="10.00">+</text>
<text text-anchor="start" x="176.5" y="-74" font-family="Helvetica,sans-Serif" font-size="10.00">LoRaTemperatureSensor()</text>
<text text-anchor="start" x="163.5" y="-59" font-family="Helvetica,sans-Serif" font-size="10.00">+</text>
<text text-anchor="start" x="176.5" y="-59" font-family="Helvetica,sans-Serif" font-size="10.00">readValue()</text>
<text text-anchor="start" x="163.5" y="-44" font-family="Helvetica,sans-Serif" font-size="10.00">+</text>
<text text-anchor="start" x="176.5" y="-44" font-family="Helvetica,sans-Serif" font-size="10.00">sendData()</text>
<text text-anchor="start" x="163.5" y="-29" font-family="Helvetica,sans-Serif" font-size="10.00">+</text>
<text text-anchor="start" x="176.5" y="-29" font-family="Helvetica,sans-Serif" font-size="10.00">setDutyCycleLimit()</text>
<text text-anchor="start" x="163.5" y="-14" font-family="Helvetica,sans-Serif" font-size="10.00">+</text>
<text text-anchor="start" x="176.5" y="-14" font-family="Helvetica,sans-Serif" font-size="10.00">getDutyCycleLimit()</text>
<polygon fill="#666666" stroke="#666666" points="159.5,-99 159.5,-99 307.5,-99 307.5,-99 159.5,-99"/>
<polygon fill="#666666" stroke="#666666" points="159.5,-84 159.5,-84 307.5,-84 307.5,-84 159.5,-84"/>
<polygon fill="none" stroke="#666666" points="159.5,-7.5 159.5,-116.5 307.5,-116.5 307.5,-7.5 159.5,-7.5"/>
</a>
</g>
</g>
<!-- Node1&#45;&gt;Node3 -->
<g id="edge2_Node000001_Node000003" class="edge">
<title>Node1&#45;&gt;Node3</title>
<g id="a_edge2_Node000001_Node000003"><a xlink:title=" ">
<path fill="none" stroke="#63b8ff" d="M233.5,-149.78C233.5,-138.33 233.5,-127.07 233.5,-116.66"/>
<polygon fill="none" stroke="#63b8ff" points="230,-149.89 233.5,-159.89 237,-149.89 230,-149.89"/>
</a>
</g>
</g>
<!-- Node4 -->
<g id="Node000004" class="node">
<title>Node4</title>
<g id="a_Node000004"><a xlink:href="../../d8/d0a/classiot_1_1ZigBeeMotionSensor.html" target="_top" xlink:title=" ">
<polygon fill="white" stroke="transparent" points="457,-124 326,-124 326,0 457,0 457,-124"/>
<text text-anchor="start" x="331.5" y="-112" font-family="Helvetica,sans-Serif" font-size="10.00">iot::ZigBeeMotionSensor</text>
<text text-anchor="start" x="390" y="-97" font-family="Helvetica,sans-Serif" font-size="10.00"> </text>
<text text-anchor="start" x="330.5" y="-82" font-family="Helvetica,sans-Serif" font-size="10.00">+</text>
<text text-anchor="start" x="343.5" y="-82" font-family="Helvetica,sans-Serif" font-size="10.00">ZigBeeMotionSensor()</text>
<text text-anchor="start" x="330.5" y="-67" font-family="Helvetica,sans-Serif" font-size="10.00">+</text>
<text text-anchor="start" x="343.5" y="-67" font-family="Helvetica,sans-Serif" font-size="10.00">readValue()</text>
<text text-anchor="start" x="330.5" y="-52" font-family="Helvetica,sans-Serif" font-size="10.00">+</text>
<text text-anchor="start" x="343.5" y="-52" font-family="Helvetica,sans-Serif" font-size="10.00">sendData()</text>
<text text-anchor="start" x="330.5" y="-37" font-family="Helvetica,sans-Serif" font-size="10.00">+</text>
<text text-anchor="start" x="343.5" y="-37" font-family="Helvetica,sans-Serif" font-size="10.00">setHopCount()</text>
<text text-anchor="start" x="330.5" y="-22" font-family="Helvetica,sans-Serif" font-size="10.00">+</text>
<text text-anchor="start" x="343.5" y="-22" font-family="Helvetica,sans-Serif" font-size="10.00">getHopCount()</text>
<text text-anchor="start" x="330.5" y="-7" font-family="Helvetica,sans-Serif" font-size="10.00">+</text>
<text text-anchor="start" x="343.5" y="-7" font-family="Helvetica,sans-Serif" font-size="10.00">setMeshRouting()</text>
<polygon fill="#666666" stroke="#666666" points="326.5,-107 326.5,-107 457.5,-107 457.5,-107 326.5,-107"/>
<polygon fill="#666666" stroke="#666666" points="326.5,-92 326.5,-92 457.5,-92 457.5,-92 326.5,-92"/>
<polygon fill="none" stroke="#666666" points="326,0 326,-124 457,-124 457,0 326,0"/>
</a>
</g>
</g>
<!-- Node1&#45;&gt;Node4 -->
<g id="edge3_Node000001_Node000004" class="edge">
<title>Node1&#45;&gt;Node4</title>
<g id="a_edge3_Node000001_Node000004"><a xlink:title=" ">
<path fill="none" stroke="#63b8ff" d="M311.16,-162.4C321.65,-149.42 332.18,-136.4 341.99,-124.26"/>
<polygon fill="none" stroke="#63b8ff" points="308.21,-160.49 304.64,-170.47 313.65,-164.89 308.21,-160.49"/>
</a>
</g>
</g>
</g>
</svg>
