<?xml version="1.0" encoding="UTF-8" standalone="no"?>
<!DOCTYPE svg PUBLIC "-//W3C//DTD SVG 1.1//EN"
 "http://www.w3.org/Graphics/SVG/1.1/DTD/svg11.dtd">
<!-- Generated by graphviz version 2.43.0 (0)
 -->
<!-- Title: iot::BatteryTemperatureSensor::receiveData Pages: 1 -->
<svg width="547pt" height="192pt"
 viewBox="0.00 0.00 547.00 191.50" xmlns="http://www.w3.org/2000/svg" xmlns:xlink="http://www.w3.org/1999/xlink">
<g id="graph0" class="graph" transform="scale(1 1) rotate(0) translate(4 187.5)">
<title>iot::BatteryTemperatureSensor::receiveData</title>
<!-- Node1 -->
<g id="Node000001" class="node">
<title>Node1</title>
<g id="a_Node000001"><a xlink:title=" ">
<polygon fill="#999999" stroke="#666666" points="166,-135.5 0,-135.5 0,-105.5 166,-105.5 166,-135.5"/>
<text text-anchor="start" x="8" y="-123.5" font-family="Helvetica,sans-Serif" font-size="10.00">iot::BatteryTemperatureSensor</text>
<text text-anchor="middle" x="83" y="-112.5" font-family="Helvetica,sans-Serif" font-size="10.00">::receiveData</text>
</a>
</g>
</g>
<!-- Node2 -->
<g id="Node000002" class="node">
<title>Node2</title>
<g id="a_Node000002"><a xlink:href="../../db/d3a/classiot_1_1BatteryManager.html#a0c63fbec278f5c0303a979d85dcad983" target="_top" xlink:title="Consume battery power.">
<polygon fill="white" stroke="#666666" points="326,-183.5 212,-183.5 212,-153.5 326,-153.5 326,-183.5"/>
<text text-anchor="start" x="220" y="-171.5" font-family="Helvetica,sans-Serif" font-size="10.00">iot::BatteryManager</text>
<text text-anchor="middle" x="269" y="-160.5" font-family="Helvetica,sans-Serif" font-size="10.00">::consumePower</text>
</a>
</g>
</g>
<!-- Node1&#45;&gt;Node2 -->
<g id="edge1_Node000001_Node000002" class="edge">
<title>Node1&#45;&gt;Node2</title>
<g id="a_edge1_Node000001_Node000002"><a xlink:title=" ">
<path fill="none" stroke="#63b8ff" d="M141.71,-135.56C160.83,-140.54 182.25,-146.13 201.94,-151.27"/>
<polygon fill="#63b8ff" stroke="#63b8ff" points="201.19,-154.69 211.75,-153.83 202.96,-147.92 201.19,-154.69"/>
</a>
</g>
</g>
<!-- Node4 -->
<g id="Node000004" class="node">
<title>Node4</title>
<g id="a_Node000004"><a xlink:href="../../db/d3a/classiot_1_1BatteryManager.html#a23396a965f2abdca618bbe884eeec368" target="_top" xlink:title="Get power consumption rate.">
<polygon fill="white" stroke="#666666" points="335.5,-135.5 202.5,-135.5 202.5,-105.5 335.5,-105.5 335.5,-135.5"/>
<text text-anchor="start" x="210.5" y="-123.5" font-family="Helvetica,sans-Serif" font-size="10.00">iot::BatteryManager</text>
<text text-anchor="middle" x="269" y="-112.5" font-family="Helvetica,sans-Serif" font-size="10.00">::getPowerConsumption</text>
</a>
</g>
</g>
<!-- Node1&#45;&gt;Node4 -->
<g id="edge3_Node000001_Node000004" class="edge">
<title>Node1&#45;&gt;Node4</title>
<g id="a_edge3_Node000001_Node000004"><a xlink:title=" ">
<path fill="none" stroke="#63b8ff" d="M166.04,-120.5C174.79,-120.5 183.66,-120.5 192.33,-120.5"/>
<polygon fill="#63b8ff" stroke="#63b8ff" points="192.4,-124 202.4,-120.5 192.4,-117 192.4,-124"/>
</a>
</g>
</g>
<!-- Node5 -->
<g id="Node000005" class="node">
<title>Node5</title>
<g id="a_Node000005"><a xlink:href="../../d6/da8/classiot_1_1Sensor.html#a661faef89fe1817bcceccdc5e16b7c8a" target="_top" xlink:title=" ">
<polygon fill="white" stroke="#666666" points="336,-87 202,-87 202,-68 336,-68 336,-87"/>
<text text-anchor="middle" x="269" y="-75" font-family="Helvetica,sans-Serif" font-size="10.00">iot::Sensor::receiveData</text>
</a>
</g>
</g>
<!-- Node1&#45;&gt;Node5 -->
<g id="edge4_Node000001_Node000005" class="edge">
<title>Node1&#45;&gt;Node5</title>
<g id="a_edge4_Node000001_Node000005"><a xlink:title=" ">
<path fill="none" stroke="#63b8ff" d="M148.35,-105.46C170.99,-100.17 196.08,-94.31 217.42,-89.32"/>
<polygon fill="#63b8ff" stroke="#63b8ff" points="218.31,-92.71 227.25,-87.02 216.72,-85.89 218.31,-92.71"/>
</a>
</g>
</g>
<!-- Node3 -->
<g id="Node000003" class="node">
<title>Node3</title>
<g id="a_Node000003"><a xlink:href="../../db/d3a/classiot_1_1BatteryManager.html#adb91c09eee77621a40e0ffdc0430ba81" target="_top" xlink:title="Enter low power mode.">
<polygon fill="white" stroke="#666666" points="518,-183.5 393,-183.5 393,-153.5 518,-153.5 518,-183.5"/>
<text text-anchor="start" x="401" y="-171.5" font-family="Helvetica,sans-Serif" font-size="10.00">iot::BatteryManager</text>
<text text-anchor="middle" x="455.5" y="-160.5" font-family="Helvetica,sans-Serif" font-size="10.00">::enterLowPowerMode</text>
</a>
</g>
</g>
<!-- Node2&#45;&gt;Node3 -->
<g id="edge2_Node000002_Node000003" class="edge">
<title>Node2&#45;&gt;Node3</title>
<g id="a_edge2_Node000002_Node000003"><a xlink:title=" ">
<path fill="none" stroke="#63b8ff" d="M326.11,-168.5C343.99,-168.5 364.03,-168.5 382.86,-168.5"/>
<polygon fill="#63b8ff" stroke="#63b8ff" points="382.87,-172 392.87,-168.5 382.87,-165 382.87,-172"/>
</a>
</g>
</g>
<!-- Node6 -->
<g id="Node000006" class="node">
<title>Node6</title>
<g id="a_Node000006"><a xlink:href="../../df/dfa/classiot_1_1IoTDevice.html#a5d5f0db665e7811d71d5ee86f570e9fe" target="_top" xlink:title=" ">
<polygon fill="white" stroke="#666666" points="530,-130 381,-130 381,-111 530,-111 530,-130"/>
<text text-anchor="middle" x="455.5" y="-118" font-family="Helvetica,sans-Serif" font-size="10.00">iot::IoTDevice::getDeviceId</text>
</a>
</g>
</g>
<!-- Node5&#45;&gt;Node6 -->
<g id="edge5_Node000005_Node000006" class="edge">
<title>Node5&#45;&gt;Node6</title>
<g id="a_edge5_Node000005_Node000006"><a xlink:title=" ">
<path fill="none" stroke="#63b8ff" d="M308.21,-87.11C327.34,-91.86 350.86,-97.6 372,-102.5 381.02,-104.59 390.61,-106.74 399.94,-108.8"/>
<polygon fill="#63b8ff" stroke="#63b8ff" points="399.41,-112.27 409.92,-110.99 400.91,-105.43 399.41,-112.27"/>
</a>
</g>
</g>
<!-- Node7 -->
<g id="Node000007" class="node">
<title>Node7</title>
<g id="a_Node000007"><a xlink:href="../../d6/d08/classiot_1_1Message.html#adbd88582dd9c4207b91b96083b8f46ea" target="_top" xlink:title=" ">
<polygon fill="white" stroke="#666666" points="539,-93 372,-93 372,-74 539,-74 539,-93"/>
<text text-anchor="middle" x="455.5" y="-81" font-family="Helvetica,sans-Serif" font-size="10.00">iot::Message::getMessageType</text>
</a>
</g>
</g>
<!-- Node5&#45;&gt;Node7 -->
<g id="edge6_Node000005_Node000007" class="edge">
<title>Node5&#45;&gt;Node7</title>
<g id="a_edge6_Node000005_Node000007"><a xlink:title=" ">
<path fill="none" stroke="#63b8ff" d="M336.09,-79.65C344.41,-79.92 353.04,-80.2 361.68,-80.48"/>
<polygon fill="#63b8ff" stroke="#63b8ff" points="361.7,-83.98 371.81,-80.81 361.93,-76.99 361.7,-83.98"/>
</a>
</g>
</g>
<!-- Node8 -->
<g id="Node000008" class="node">
<title>Node8</title>
<g id="a_Node000008"><a xlink:href="../../d6/d08/classiot_1_1Message.html#a866a8a1eb2d5df27485288aa87a4095a" target="_top" xlink:title=" ">
<polygon fill="white" stroke="#666666" points="525,-56 386,-56 386,-37 525,-37 525,-56"/>
<text text-anchor="middle" x="455.5" y="-44" font-family="Helvetica,sans-Serif" font-size="10.00">iot::Message::getPayload</text>
</a>
</g>
</g>
<!-- Node5&#45;&gt;Node8 -->
<g id="edge7_Node000005_Node000008" class="edge">
<title>Node5&#45;&gt;Node8</title>
<g id="a_edge7_Node000005_Node000008"><a xlink:title=" ">
<path fill="none" stroke="#63b8ff" d="M326.61,-67.99C345.91,-64.75 367.67,-61.09 387.7,-57.72"/>
<polygon fill="#63b8ff" stroke="#63b8ff" points="388.4,-61.16 397.68,-56.05 387.24,-54.25 388.4,-61.16"/>
</a>
</g>
</g>
<!-- Node9 -->
<g id="Node000009" class="node">
<title>Node9</title>
<g id="a_Node000009"><a xlink:href="../../df/dfa/classiot_1_1IoTDevice.html#a135a2c3070f6fbc2853dbd64ceefeb6f" target="_top" xlink:title=" ">
<polygon fill="white" stroke="#666666" points="524,-19 387,-19 387,0 524,0 524,-19"/>
<text text-anchor="middle" x="455.5" y="-7" font-family="Helvetica,sans-Serif" font-size="10.00">iot::IoTDevice::getStatus</text>
</a>
</g>
</g>
<!-- Node5&#45;&gt;Node9 -->
<g id="edge8_Node000005_Node000009" class="edge">
<title>Node5&#45;&gt;Node9</title>
<g id="a_edge8_Node000005_Node000009"><a xlink:title=" ">
<path fill="none" stroke="#63b8ff" d="M286.43,-67.9C306.16,-56.74 340.53,-38.47 372,-27.5 378.32,-25.3 385.02,-23.31 391.75,-21.52"/>
<polygon fill="#63b8ff" stroke="#63b8ff" points="392.75,-24.88 401.6,-19.06 391.05,-18.09 392.75,-24.88"/>
</a>
</g>
</g>
</g>
</svg>
