<?xml version="1.0" encoding="UTF-8" standalone="no"?>
<!DOCTYPE svg PUBLIC "-//W3C//DTD SVG 1.1//EN"
 "http://www.w3.org/Graphics/SVG/1.1/DTD/svg11.dtd">
<!-- Generated by graphviz version 2.43.0 (0)
 -->
<!-- Title: iot::BatteryTemperatureSensor::sendData Pages: 1 -->
<svg width="528pt" height="210pt"
 viewBox="0.00 0.00 528.00 209.50" xmlns="http://www.w3.org/2000/svg" xmlns:xlink="http://www.w3.org/1999/xlink">
<g id="graph0" class="graph" transform="scale(1 1) rotate(0) translate(4 205.5)">
<title>iot::BatteryTemperatureSensor::sendData</title>
<!-- Node1 -->
<g id="Node000001" class="node">
<title>Node1</title>
<g id="a_Node000001"><a xlink:title=" ">
<polygon fill="#999999" stroke="#666666" points="166,-110.5 0,-110.5 0,-80.5 166,-80.5 166,-110.5"/>
<text text-anchor="start" x="8" y="-98.5" font-family="Helvetica,sans-Serif" font-size="10.00">iot::BatteryTemperatureSensor</text>
<text text-anchor="middle" x="83" y="-87.5" font-family="Helvetica,sans-Serif" font-size="10.00">::sendData</text>
</a>
</g>
</g>
<!-- Node2 -->
<g id="Node000002" class="node">
<title>Node2</title>
<g id="a_Node000002"><a xlink:href="../../db/d3a/classiot_1_1BatteryManager.html#a0c63fbec278f5c0303a979d85dcad983" target="_top" xlink:title="Consume battery power.">
<polygon fill="white" stroke="#666666" points="325.5,-201.5 211.5,-201.5 211.5,-171.5 325.5,-171.5 325.5,-201.5"/>
<text text-anchor="start" x="219.5" y="-189.5" font-family="Helvetica,sans-Serif" font-size="10.00">iot::BatteryManager</text>
<text text-anchor="middle" x="268.5" y="-178.5" font-family="Helvetica,sans-Serif" font-size="10.00">::consumePower</text>
</a>
</g>
</g>
<!-- Node1&#45;&gt;Node2 -->
<g id="edge1_Node000001_Node000002" class="edge">
<title>Node1&#45;&gt;Node2</title>
<g id="a_edge1_Node000001_Node000002"><a xlink:title=" ">
<path fill="none" stroke="#63b8ff" d="M107.79,-110.56C131.19,-125 168.23,-146.85 202,-162.5 205.83,-164.28 209.84,-166.01 213.89,-167.69"/>
<polygon fill="#63b8ff" stroke="#63b8ff" points="212.82,-171.03 223.4,-171.48 215.41,-164.52 212.82,-171.03"/>
</a>
</g>
</g>
<!-- Node4 -->
<g id="Node000004" class="node">
<title>Node4</title>
<g id="a_Node000004"><a xlink:href="../../db/d3a/classiot_1_1BatteryManager.html#ac53cf97db59fc0b5cce3333f0b3a3bb6" target="_top" xlink:title="Get current battery level.">
<polygon fill="white" stroke="#666666" points="325.5,-153.5 211.5,-153.5 211.5,-123.5 325.5,-123.5 325.5,-153.5"/>
<text text-anchor="start" x="219.5" y="-141.5" font-family="Helvetica,sans-Serif" font-size="10.00">iot::BatteryManager</text>
<text text-anchor="middle" x="268.5" y="-130.5" font-family="Helvetica,sans-Serif" font-size="10.00">::getBatteryLevel</text>
</a>
</g>
</g>
<!-- Node1&#45;&gt;Node4 -->
<g id="edge3_Node000001_Node000004" class="edge">
<title>Node1&#45;&gt;Node4</title>
<g id="a_edge3_Node000001_Node000004"><a xlink:title=" ">
<path fill="none" stroke="#63b8ff" d="M148.18,-110.54C165.37,-114.57 183.99,-118.93 201.29,-122.98"/>
<polygon fill="#63b8ff" stroke="#63b8ff" points="200.77,-126.46 211.3,-125.33 202.36,-119.64 200.77,-126.46"/>
</a>
</g>
</g>
<!-- Node5 -->
<g id="Node000005" class="node">
<title>Node5</title>
<g id="a_Node000005"><a xlink:href="../../df/dfa/classiot_1_1IoTDevice.html#a5d5f0db665e7811d71d5ee86f570e9fe" target="_top" xlink:title=" ">
<polygon fill="white" stroke="#666666" points="520,-81 371,-81 371,-62 520,-62 520,-81"/>
<text text-anchor="middle" x="445.5" y="-69" font-family="Helvetica,sans-Serif" font-size="10.00">iot::IoTDevice::getDeviceId</text>
</a>
</g>
</g>
<!-- Node1&#45;&gt;Node5 -->
<g id="edge4_Node000001_Node000005" class="edge">
<title>Node1&#45;&gt;Node5</title>
<g id="a_edge4_Node000001_Node000005"><a xlink:title=" ">
<path fill="none" stroke="#63b8ff" d="M166.25,-90.02C224.38,-86.15 302.04,-80.98 360.54,-77.09"/>
<polygon fill="#63b8ff" stroke="#63b8ff" points="361.12,-80.56 370.86,-76.4 360.65,-73.57 361.12,-80.56"/>
</a>
</g>
</g>
<!-- Node6 -->
<g id="Node000006" class="node">
<title>Node6</title>
<g id="a_Node000006"><a xlink:href="../../db/d3a/classiot_1_1BatteryManager.html#a23396a965f2abdca618bbe884eeec368" target="_top" xlink:title="Get power consumption rate.">
<polygon fill="white" stroke="#666666" points="335,-67.5 202,-67.5 202,-37.5 335,-37.5 335,-67.5"/>
<text text-anchor="start" x="210" y="-55.5" font-family="Helvetica,sans-Serif" font-size="10.00">iot::BatteryManager</text>
<text text-anchor="middle" x="268.5" y="-44.5" font-family="Helvetica,sans-Serif" font-size="10.00">::getPowerConsumption</text>
</a>
</g>
</g>
<!-- Node1&#45;&gt;Node6 -->
<g id="edge5_Node000001_Node000006" class="edge">
<title>Node1&#45;&gt;Node6</title>
<g id="a_edge5_Node000001_Node000006"><a xlink:title=" ">
<path fill="none" stroke="#63b8ff" d="M148.18,-80.46C162.85,-77.02 178.55,-73.34 193.59,-69.82"/>
<polygon fill="#63b8ff" stroke="#63b8ff" points="194.42,-73.22 203.36,-67.53 192.82,-66.4 194.42,-73.22"/>
</a>
</g>
</g>
<!-- Node7 -->
<g id="Node000007" class="node">
<title>Node7</title>
<g id="a_Node000007"><a xlink:href="../../d6/da8/classiot_1_1Sensor.html#a4fe640988365e72916e10897b82980d1" target="_top" xlink:title=" ">
<polygon fill="white" stroke="#666666" points="329,-19 208,-19 208,0 329,0 329,-19"/>
<text text-anchor="middle" x="268.5" y="-7" font-family="Helvetica,sans-Serif" font-size="10.00">iot::Sensor::sendData</text>
</a>
</g>
</g>
<!-- Node1&#45;&gt;Node7 -->
<g id="edge6_Node000001_Node000007" class="edge">
<title>Node1&#45;&gt;Node7</title>
<g id="a_edge6_Node000001_Node000007"><a xlink:title=" ">
<path fill="none" stroke="#63b8ff" d="M106.69,-80.48C129.86,-65.66 167.27,-43.16 202,-28.5 207.45,-26.2 213.27,-24.07 219.1,-22.14"/>
<polygon fill="#63b8ff" stroke="#63b8ff" points="220.38,-25.41 228.88,-19.07 218.29,-18.73 220.38,-25.41"/>
</a>
</g>
</g>
<!-- Node3 -->
<g id="Node000003" class="node">
<title>Node3</title>
<g id="a_Node000003"><a xlink:href="../../db/d3a/classiot_1_1BatteryManager.html#adb91c09eee77621a40e0ffdc0430ba81" target="_top" xlink:title="Enter low power mode.">
<polygon fill="white" stroke="#666666" points="508,-201.5 383,-201.5 383,-171.5 508,-171.5 508,-201.5"/>
<text text-anchor="start" x="391" y="-189.5" font-family="Helvetica,sans-Serif" font-size="10.00">iot::BatteryManager</text>
<text text-anchor="middle" x="445.5" y="-178.5" font-family="Helvetica,sans-Serif" font-size="10.00">::enterLowPowerMode</text>
</a>
</g>
</g>
<!-- Node2&#45;&gt;Node3 -->
<g id="edge2_Node000002_Node000003" class="edge">
<title>Node2&#45;&gt;Node3</title>
<g id="a_edge2_Node000002_Node000003"><a xlink:title=" ">
<path fill="none" stroke="#63b8ff" d="M325.83,-186.5C340.75,-186.5 357.06,-186.5 372.68,-186.5"/>
<polygon fill="#63b8ff" stroke="#63b8ff" points="372.82,-190 382.82,-186.5 372.82,-183 372.82,-190"/>
</a>
</g>
</g>
<!-- Node7&#45;&gt;Node5 -->
<g id="edge7_Node000007_Node000005" class="edge">
<title>Node7&#45;&gt;Node5</title>
<g id="a_edge7_Node000007_Node000005"><a xlink:title=" ">
<path fill="none" stroke="#63b8ff" d="M304.7,-19.07C314.56,-21.92 325.25,-25.18 335,-28.5 361.49,-37.52 390.99,-49.2 412.69,-58.11"/>
<polygon fill="#63b8ff" stroke="#63b8ff" points="411.5,-61.41 422.07,-61.99 414.17,-54.94 411.5,-61.41"/>
</a>
</g>
</g>
<!-- Node8 -->
<g id="Node000008" class="node">
<title>Node8</title>
<g id="a_Node000008"><a xlink:href="../../d6/da8/classiot_1_1Sensor.html#a51c394181353e6cc6d6be1f397b41aca" target="_top" xlink:title=" ">
<polygon fill="white" stroke="#666666" points="507,-19 384,-19 384,0 507,0 507,-19"/>
<text text-anchor="middle" x="445.5" y="-7" font-family="Helvetica,sans-Serif" font-size="10.00">iot::Sensor::readValue</text>
</a>
</g>
</g>
<!-- Node7&#45;&gt;Node8 -->
<g id="edge8_Node000007_Node000008" class="edge">
<title>Node7&#45;&gt;Node8</title>
<g id="a_edge8_Node000007_Node000008"><a xlink:title=" ">
<path fill="none" stroke="#63b8ff" d="M329.24,-9.5C343.56,-9.5 358.98,-9.5 373.75,-9.5"/>
<polygon fill="#63b8ff" stroke="#63b8ff" points="373.84,-13 383.84,-9.5 373.84,-6 373.84,-13"/>
</a>
</g>
</g>
</g>
</svg>
