<?xml version="1.0" encoding="UTF-8" standalone="no"?>
<!DOCTYPE svg PUBLIC "-//W3C//DTD SVG 1.1//EN"
 "http://www.w3.org/Graphics/SVG/1.1/DTD/svg11.dtd">
<!-- Generated by graphviz version 2.43.0 (0)
 -->
<!-- Title: iot::BatteryTemperatureSensor::readValue Pages: 1 -->
<svg width="504pt" height="86pt"
 viewBox="0.00 0.00 504.00 86.00" xmlns="http://www.w3.org/2000/svg" xmlns:xlink="http://www.w3.org/1999/xlink">
<g id="graph0" class="graph" transform="scale(1 1) rotate(0) translate(4 82)">
<title>iot::BatteryTemperatureSensor::readValue</title>
<!-- Node1 -->
<g id="Node000001" class="node">
<title>Node1</title>
<g id="a_Node000001"><a xlink:title=" ">
<polygon fill="#999999" stroke="#666666" points="166,-54 0,-54 0,-24 166,-24 166,-54"/>
<text text-anchor="start" x="8" y="-42" font-family="Helvetica,sans-Serif" font-size="10.00">iot::BatteryTemperatureSensor</text>
<text text-anchor="middle" x="83" y="-31" font-family="Helvetica,sans-Serif" font-size="10.00">::readValue</text>
</a>
</g>
</g>
<!-- Node2 -->
<g id="Node000002" class="node">
<title>Node2</title>
<g id="a_Node000002"><a xlink:href="../../db/d3a/classiot_1_1BatteryManager.html#a0c63fbec278f5c0303a979d85dcad983" target="_top" xlink:title="Consume battery power.">
<polygon fill="white" stroke="#666666" points="325.5,-78 211.5,-78 211.5,-48 325.5,-48 325.5,-78"/>
<text text-anchor="start" x="219.5" y="-66" font-family="Helvetica,sans-Serif" font-size="10.00">iot::BatteryManager</text>
<text text-anchor="middle" x="268.5" y="-55" font-family="Helvetica,sans-Serif" font-size="10.00">::consumePower</text>
</a>
</g>
</g>
<!-- Node1&#45;&gt;Node2 -->
<g id="edge1_Node000001_Node000002" class="edge">
<title>Node1&#45;&gt;Node2</title>
<g id="a_edge1_Node000001_Node000002"><a xlink:title=" ">
<path fill="none" stroke="#63b8ff" d="M166.09,-49.74C177.78,-51.27 189.68,-52.82 201.02,-54.31"/>
<polygon fill="#63b8ff" stroke="#63b8ff" points="200.89,-57.82 211.26,-55.64 201.8,-50.88 200.89,-57.82"/>
</a>
</g>
</g>
<!-- Node4 -->
<g id="Node000004" class="node">
<title>Node4</title>
<g id="a_Node000004"><a xlink:href="../../db/d3a/classiot_1_1BatteryManager.html#a23396a965f2abdca618bbe884eeec368" target="_top" xlink:title="Get power consumption rate.">
<polygon fill="white" stroke="#666666" points="335,-30 202,-30 202,0 335,0 335,-30"/>
<text text-anchor="start" x="210" y="-18" font-family="Helvetica,sans-Serif" font-size="10.00">iot::BatteryManager</text>
<text text-anchor="middle" x="268.5" y="-7" font-family="Helvetica,sans-Serif" font-size="10.00">::getPowerConsumption</text>
</a>
</g>
</g>
<!-- Node1&#45;&gt;Node4 -->
<g id="edge3_Node000001_Node000004" class="edge">
<title>Node1&#45;&gt;Node4</title>
<g id="a_edge3_Node000001_Node000004"><a xlink:title=" ">
<path fill="none" stroke="#63b8ff" d="M166.09,-28.26C174.73,-27.13 183.49,-25.99 192.05,-24.87"/>
<polygon fill="#63b8ff" stroke="#63b8ff" points="192.53,-28.34 201.99,-23.57 191.62,-21.39 192.53,-28.34"/>
</a>
</g>
</g>
<!-- Node3 -->
<g id="Node000003" class="node">
<title>Node3</title>
<g id="a_Node000003"><a xlink:href="../../db/d3a/classiot_1_1BatteryManager.html#adb91c09eee77621a40e0ffdc0430ba81" target="_top" xlink:title="Enter low power mode.">
<polygon fill="white" stroke="#666666" points="496,-78 371,-78 371,-48 496,-48 496,-78"/>
<text text-anchor="start" x="379" y="-66" font-family="Helvetica,sans-Serif" font-size="10.00">iot::BatteryManager</text>
<text text-anchor="middle" x="433.5" y="-55" font-family="Helvetica,sans-Serif" font-size="10.00">::enterLowPowerMode</text>
</a>
</g>
</g>
<!-- Node2&#45;&gt;Node3 -->
<g id="edge2_Node000002_Node000003" class="edge">
<title>Node2&#45;&gt;Node3</title>
<g id="a_edge2_Node000002_Node000003"><a xlink:title=" ">
<path fill="none" stroke="#63b8ff" d="M325.6,-63C336.85,-63 348.82,-63 360.53,-63"/>
<polygon fill="#63b8ff" stroke="#63b8ff" points="360.72,-66.5 370.72,-63 360.72,-59.5 360.72,-66.5"/>
</a>
</g>
</g>
</g>
</svg>
