<?xml version="1.0" encoding="UTF-8" standalone="no"?>
<!DOCTYPE svg PUBLIC "-//W3C//DTD SVG 1.1//EN"
 "http://www.w3.org/Graphics/SVG/1.1/DTD/svg11.dtd">
<!-- Generated by graphviz version 2.43.0 (0)
 -->
<!-- Title: include/devices/ConcreteSensors.h Pages: 1 -->
<svg width="326pt" height="203pt"
 viewBox="0.00 0.00 326.00 203.00" xmlns="http://www.w3.org/2000/svg" xmlns:xlink="http://www.w3.org/1999/xlink">
<g id="graph0" class="graph" transform="scale(1 1) rotate(0) translate(4 199)">
<title>include/devices/ConcreteSensors.h</title>
<!-- Node1 -->
<g id="Node000001" class="node">
<title>Node1</title>
<g id="a_Node000001"><a xlink:title=" ">
<polygon fill="#999999" stroke="#666666" points="311.5,-195 172.5,-195 172.5,-165 311.5,-165 311.5,-195"/>
<text text-anchor="start" x="180.5" y="-183" font-family="Helvetica,sans-Serif" font-size="10.00">include/devices/Concrete</text>
<text text-anchor="middle" x="242" y="-172" font-family="Helvetica,sans-Serif" font-size="10.00">Sensors.h</text>
</a>
</g>
</g>
<!-- Node2 -->
<g id="Node000002" class="node">
<title>Node2</title>
<g id="a_Node000002"><a xlink:href="../../d5/d65/Sensor_8h.html" target="_top" xlink:title=" ">
<polygon fill="white" stroke="#666666" points="243,-129 185,-129 185,-110 243,-110 243,-129"/>
<text text-anchor="middle" x="214" y="-117" font-family="Helvetica,sans-Serif" font-size="10.00">Sensor.h</text>
</a>
</g>
</g>
<!-- Node1&#45;&gt;Node2 -->
<g id="edge1_Node000001_Node000002" class="edge">
<title>Node1&#45;&gt;Node2</title>
<g id="a_edge1_Node000001_Node000002"><a xlink:title=" ">
<path fill="none" stroke="#63b8ff" d="M235.22,-164.84C231.41,-156.87 226.61,-146.84 222.54,-138.33"/>
<polygon fill="#63b8ff" stroke="#63b8ff" points="225.67,-136.77 218.2,-129.27 219.36,-139.8 225.67,-136.77"/>
</a>
</g>
</g>
<!-- Node9 -->
<g id="Node000009" class="node">
<title>Node9</title>
<g id="a_Node000009"><a xlink:title=" ">
<polygon fill="#e0e0e0" stroke="#999999" points="318,-74 264,-74 264,-55 318,-55 318,-74"/>
<text text-anchor="middle" x="291" y="-62" font-family="Helvetica,sans-Serif" font-size="10.00">random</text>
</a>
</g>
</g>
<!-- Node1&#45;&gt;Node9 -->
<g id="edge11_Node000001_Node000009" class="edge">
<title>Node1&#45;&gt;Node9</title>
<g id="a_edge11_Node000001_Node000009"><a xlink:title=" ">
<path fill="none" stroke="#63b8ff" d="M248.21,-164.63C257.1,-144.03 273.46,-106.12 283.17,-83.63"/>
<polygon fill="#63b8ff" stroke="#63b8ff" points="286.48,-84.8 287.23,-74.23 280.05,-82.02 286.48,-84.8"/>
</a>
</g>
</g>
<!-- Node3 -->
<g id="Node000003" class="node">
<title>Node3</title>
<g id="a_Node000003"><a xlink:href="../../de/daa/IoTDevice_8h.html" target="_top" xlink:title=" ">
<polygon fill="white" stroke="#666666" points="125.5,-74 18.5,-74 18.5,-55 125.5,-55 125.5,-74"/>
<text text-anchor="middle" x="72" y="-62" font-family="Helvetica,sans-Serif" font-size="10.00">../core/IoTDevice.h</text>
</a>
</g>
</g>
<!-- Node2&#45;&gt;Node3 -->
<g id="edge2_Node000002_Node000003" class="edge">
<title>Node2&#45;&gt;Node3</title>
<g id="a_edge2_Node000002_Node000003"><a xlink:title=" ">
<path fill="none" stroke="#63b8ff" d="M191.19,-109.98C167.83,-101.27 131.3,-87.63 104.83,-77.75"/>
<polygon fill="#63b8ff" stroke="#63b8ff" points="105.82,-74.39 95.23,-74.17 103.37,-80.95 105.82,-74.39"/>
</a>
</g>
</g>
<!-- Node7 -->
<g id="Node000007" class="node">
<title>Node7</title>
<g id="a_Node000007"><a xlink:href="../../d5/dca/Message_8h.html" target="_top" xlink:title=" ">
<polygon fill="white" stroke="#666666" points="246,-74 144,-74 144,-55 246,-55 246,-74"/>
<text text-anchor="middle" x="195" y="-62" font-family="Helvetica,sans-Serif" font-size="10.00">../core/Message.h</text>
</a>
</g>
</g>
<!-- Node2&#45;&gt;Node7 -->
<g id="edge6_Node000002_Node000007" class="edge">
<title>Node2&#45;&gt;Node7</title>
<g id="a_edge6_Node000002_Node000007"><a xlink:title=" ">
<path fill="none" stroke="#63b8ff" d="M210.86,-109.75C208.32,-102.65 204.64,-92.4 201.47,-83.56"/>
<polygon fill="#63b8ff" stroke="#63b8ff" points="204.75,-82.32 198.08,-74.09 198.16,-84.68 204.75,-82.32"/>
</a>
</g>
</g>
<!-- Node2&#45;&gt;Node9 -->
<g id="edge10_Node000002_Node000009" class="edge">
<title>Node2&#45;&gt;Node9</title>
<g id="a_edge10_Node000002_Node000009"><a xlink:title=" ">
<path fill="none" stroke="#63b8ff" d="M226.37,-109.98C238.09,-101.92 255.92,-89.65 269.89,-80.03"/>
<polygon fill="#63b8ff" stroke="#63b8ff" points="272.15,-82.72 278.4,-74.17 268.18,-76.96 272.15,-82.72"/>
</a>
</g>
</g>
<!-- Node4 -->
<g id="Node000004" class="node">
<title>Node4</title>
<g id="a_Node000004"><a xlink:title=" ">
<polygon fill="#e0e0e0" stroke="#999999" points="188,-19 144,-19 144,0 188,0 188,-19"/>
<text text-anchor="middle" x="166" y="-7" font-family="Helvetica,sans-Serif" font-size="10.00">string</text>
</a>
</g>
</g>
<!-- Node3&#45;&gt;Node4 -->
<g id="edge3_Node000003_Node000004" class="edge">
<title>Node3&#45;&gt;Node4</title>
<g id="a_edge3_Node000003_Node000004"><a xlink:title=" ">
<path fill="none" stroke="#63b8ff" d="M87.1,-54.98C101.82,-46.69 124.42,-33.94 141.67,-24.22"/>
<polygon fill="#63b8ff" stroke="#63b8ff" points="143.63,-27.13 150.62,-19.17 140.19,-21.03 143.63,-27.13"/>
</a>
</g>
</g>
<!-- Node5 -->
<g id="Node000005" class="node">
<title>Node5</title>
<g id="a_Node000005"><a xlink:title=" ">
<polygon fill="#e0e0e0" stroke="#999999" points="58,-19 0,-19 0,0 58,0 58,-19"/>
<text text-anchor="middle" x="29" y="-7" font-family="Helvetica,sans-Serif" font-size="10.00">memory</text>
</a>
</g>
</g>
<!-- Node3&#45;&gt;Node5 -->
<g id="edge4_Node000003_Node000005" class="edge">
<title>Node3&#45;&gt;Node5</title>
<g id="a_edge4_Node000003_Node000005"><a xlink:title=" ">
<path fill="none" stroke="#63b8ff" d="M64.9,-54.75C58.83,-47.26 49.91,-36.28 42.49,-27.13"/>
<polygon fill="#63b8ff" stroke="#63b8ff" points="44.99,-24.65 35.97,-19.09 39.55,-29.06 44.99,-24.65"/>
</a>
</g>
</g>
<!-- Node6 -->
<g id="Node000006" class="node">
<title>Node6</title>
<g id="a_Node000006"><a xlink:title=" ">
<polygon fill="#e0e0e0" stroke="#999999" points="126,-19 76,-19 76,0 126,0 126,-19"/>
<text text-anchor="middle" x="101" y="-7" font-family="Helvetica,sans-Serif" font-size="10.00">chrono</text>
</a>
</g>
</g>
<!-- Node3&#45;&gt;Node6 -->
<g id="edge5_Node000003_Node000006" class="edge">
<title>Node3&#45;&gt;Node6</title>
<g id="a_edge5_Node000003_Node000006"><a xlink:title=" ">
<path fill="none" stroke="#63b8ff" d="M76.79,-54.75C80.76,-47.49 86.53,-36.95 91.43,-27.98"/>
<polygon fill="#63b8ff" stroke="#63b8ff" points="94.57,-29.54 96.3,-19.09 88.43,-26.18 94.57,-29.54"/>
</a>
</g>
</g>
<!-- Node7&#45;&gt;Node4 -->
<g id="edge7_Node000007_Node000004" class="edge">
<title>Node7&#45;&gt;Node4</title>
<g id="a_edge7_Node000007_Node000004"><a xlink:title=" ">
<path fill="none" stroke="#63b8ff" d="M190.21,-54.75C186.24,-47.49 180.47,-36.95 175.57,-27.98"/>
<polygon fill="#63b8ff" stroke="#63b8ff" points="178.57,-26.18 170.7,-19.09 172.43,-29.54 178.57,-26.18"/>
</a>
</g>
</g>
<!-- Node7&#45;&gt;Node6 -->
<g id="edge8_Node000007_Node000006" class="edge">
<title>Node7&#45;&gt;Node6</title>
<g id="a_edge8_Node000007_Node000006"><a xlink:title=" ">
<path fill="none" stroke="#63b8ff" d="M179.9,-54.98C165.18,-46.69 142.58,-33.94 125.33,-24.22"/>
<polygon fill="#63b8ff" stroke="#63b8ff" points="126.81,-21.03 116.38,-19.17 123.37,-27.13 126.81,-21.03"/>
</a>
</g>
</g>
<!-- Node8 -->
<g id="Node000008" class="node">
<title>Node8</title>
<g id="a_Node000008"><a xlink:title=" ">
<polygon fill="#e0e0e0" stroke="#999999" points="244,-19 206,-19 206,0 244,0 244,-19"/>
<text text-anchor="middle" x="225" y="-7" font-family="Helvetica,sans-Serif" font-size="10.00">map</text>
</a>
</g>
</g>
<!-- Node7&#45;&gt;Node8 -->
<g id="edge9_Node000007_Node000008" class="edge">
<title>Node7&#45;&gt;Node8</title>
<g id="a_edge9_Node000007_Node000008"><a xlink:title=" ">
<path fill="none" stroke="#63b8ff" d="M199.95,-54.75C204.06,-47.49 210.03,-36.95 215.1,-27.98"/>
<polygon fill="#63b8ff" stroke="#63b8ff" points="218.26,-29.52 220.14,-19.09 212.17,-26.07 218.26,-29.52"/>
</a>
</g>
</g>
</g>
</svg>
