<?xml version="1.0" encoding="UTF-8" standalone="no"?>
<!DOCTYPE svg PUBLIC "-//W3C//DTD SVG 1.1//EN"
 "http://www.w3.org/Graphics/SVG/1.1/DTD/svg11.dtd">
<!-- Generated by graphviz version 2.43.0 (0)
 -->
<!-- Title: iot::Sensor Pages: 1 -->
<svg width="1211pt" height="737pt"
 viewBox="0.00 0.00 1211.00 737.00" xmlns="http://www.w3.org/2000/svg" xmlns:xlink="http://www.w3.org/1999/xlink">
<g id="graph0" class="graph" transform="scale(1 1) rotate(0) translate(4 733)">
<title>iot::Sensor</title>
<!-- Node1 -->
<g id="Node000001" class="node">
<title>Node1</title>
<g id="a_Node000001"><a xlink:title=" ">
<polygon fill="#999999" stroke="transparent" points="668.5,-434 560.5,-434 560.5,-220 668.5,-220 668.5,-434"/>
<text text-anchor="start" x="588.5" y="-422" font-family="Helvetica,sans-Serif" font-size="10.00">iot::Sensor</text>
<text text-anchor="start" x="564.5" y="-407" font-family="Helvetica,sans-Serif" font-size="10.00">#</text>
<text text-anchor="start" x="577.5" y="-407" font-family="Helvetica,sans-Serif" font-size="10.00">currentValue</text>
<text text-anchor="start" x="564.5" y="-392" font-family="Helvetica,sans-Serif" font-size="10.00">#</text>
<text text-anchor="start" x="577.5" y="-392" font-family="Helvetica,sans-Serif" font-size="10.00">minValue</text>
<text text-anchor="start" x="564.5" y="-377" font-family="Helvetica,sans-Serif" font-size="10.00">#</text>
<text text-anchor="start" x="577.5" y="-377" font-family="Helvetica,sans-Serif" font-size="10.00">maxValue</text>
<text text-anchor="start" x="564.5" y="-362" font-family="Helvetica,sans-Serif" font-size="10.00">#</text>
<text text-anchor="start" x="577.5" y="-362" font-family="Helvetica,sans-Serif" font-size="10.00">rng</text>
<text text-anchor="start" x="564.5" y="-347" font-family="Helvetica,sans-Serif" font-size="10.00">#</text>
<text text-anchor="start" x="577.5" y="-347" font-family="Helvetica,sans-Serif" font-size="10.00">noiseDistribution</text>
<text text-anchor="start" x="564.5" y="-332" font-family="Helvetica,sans-Serif" font-size="10.00">+</text>
<text text-anchor="start" x="577.5" y="-332" font-family="Helvetica,sans-Serif" font-size="10.00">Sensor()</text>
<text text-anchor="start" x="564.5" y="-317" font-family="Helvetica,sans-Serif" font-size="10.00">+</text>
<text text-anchor="start" x="577.5" y="-317" font-family="Helvetica,sans-Serif" font-size="10.00">~Sensor()</text>
<text text-anchor="start" x="564.5" y="-302" font-family="Helvetica,sans-Serif" font-size="10.00">+</text>
<text text-anchor="start" x="577.5" y="-302" font-family="Helvetica,sans-Serif" font-size="10.00">readValue()</text>
<text text-anchor="start" x="564.5" y="-287" font-family="Helvetica,sans-Serif" font-size="10.00">+</text>
<text text-anchor="start" x="577.5" y="-287" font-family="Helvetica,sans-Serif" font-size="10.00">sendData()</text>
<text text-anchor="start" x="564.5" y="-272" font-family="Helvetica,sans-Serif" font-size="10.00">+</text>
<text text-anchor="start" x="577.5" y="-272" font-family="Helvetica,sans-Serif" font-size="10.00">receiveData()</text>
<text text-anchor="start" x="564.5" y="-257" font-family="Helvetica,sans-Serif" font-size="10.00">+</text>
<text text-anchor="start" x="577.5" y="-257" font-family="Helvetica,sans-Serif" font-size="10.00">getCurrentValue()</text>
<text text-anchor="start" x="564.5" y="-242" font-family="Helvetica,sans-Serif" font-size="10.00">+</text>
<text text-anchor="start" x="577.5" y="-242" font-family="Helvetica,sans-Serif" font-size="10.00">getMinValue()</text>
<text text-anchor="start" x="564.5" y="-227" font-family="Helvetica,sans-Serif" font-size="10.00">+</text>
<text text-anchor="start" x="577.5" y="-227" font-family="Helvetica,sans-Serif" font-size="10.00">getMaxValue()</text>
<polygon fill="#666666" stroke="#666666" points="560.5,-417 560.5,-417 668.5,-417 668.5,-417 560.5,-417"/>
<polygon fill="#666666" stroke="#666666" points="560.5,-342 560.5,-342 575.5,-342 575.5,-342 560.5,-342"/>
<polygon fill="#666666" stroke="#666666" points="575.5,-342 575.5,-342 668.5,-342 668.5,-342 575.5,-342"/>
<polygon fill="none" stroke="#666666" points="560.5,-220 560.5,-434 668.5,-434 668.5,-220 560.5,-220"/>
</a>
</g>
</g>
<!-- Node3 -->
<g id="Node000003" class="node">
<title>Node3</title>
<g id="a_Node000003"><a xlink:href="../../dd/d9a/classiot_1_1BLEHealthSensor.html" target="_top" xlink:title=" ">
<polygon fill="white" stroke="transparent" points="141,-146.5 0,-146.5 0,-37.5 141,-37.5 141,-146.5"/>
<text text-anchor="start" x="19.5" y="-134" font-family="Helvetica,sans-Serif" font-size="10.00">iot::BLEHealthSensor</text>
<text text-anchor="start" x="69" y="-119" font-family="Helvetica,sans-Serif" font-size="10.00"> </text>
<text text-anchor="start" x="4.5" y="-104" font-family="Helvetica,sans-Serif" font-size="10.00">+</text>
<text text-anchor="start" x="17.5" y="-104" font-family="Helvetica,sans-Serif" font-size="10.00">BLEHealthSensor()</text>
<text text-anchor="start" x="4.5" y="-89" font-family="Helvetica,sans-Serif" font-size="10.00">+</text>
<text text-anchor="start" x="17.5" y="-89" font-family="Helvetica,sans-Serif" font-size="10.00">readValue()</text>
<text text-anchor="start" x="4.5" y="-74" font-family="Helvetica,sans-Serif" font-size="10.00">+</text>
<text text-anchor="start" x="17.5" y="-74" font-family="Helvetica,sans-Serif" font-size="10.00">sendData()</text>
<text text-anchor="start" x="4.5" y="-59" font-family="Helvetica,sans-Serif" font-size="10.00">+</text>
<text text-anchor="start" x="17.5" y="-59" font-family="Helvetica,sans-Serif" font-size="10.00">setConnectionOriented()</text>
<text text-anchor="start" x="4.5" y="-44" font-family="Helvetica,sans-Serif" font-size="10.00">+</text>
<text text-anchor="start" x="17.5" y="-44" font-family="Helvetica,sans-Serif" font-size="10.00">isConnectionOriented()</text>
<polygon fill="#666666" stroke="#666666" points="0.5,-129 0.5,-129 141.5,-129 141.5,-129 0.5,-129"/>
<polygon fill="#666666" stroke="#666666" points="0.5,-114 0.5,-114 141.5,-114 141.5,-114 0.5,-114"/>
<polygon fill="none" stroke="#666666" points="0,-37.5 0,-146.5 141,-146.5 141,-37.5 0,-37.5"/>
</a>
</g>
</g>
<!-- Node1&#45;&gt;Node3 -->
<g id="edge2_Node000001_Node000003" class="edge">
<title>Node1&#45;&gt;Node3</title>
<g id="a_edge2_Node000001_Node000003"><a xlink:title=" ">
<path fill="none" stroke="#63b8ff" d="M550.45,-317.74C456.37,-303.21 278.19,-266.45 150.5,-184 135.13,-174.07 120.96,-160.38 108.96,-146.64"/>
<polygon fill="none" stroke="#63b8ff" points="549.98,-321.21 560.39,-319.24 551.02,-314.28 549.98,-321.21"/>
</a>
</g>
</g>
<!-- Node4 -->
<g id="Node000004" class="node">
<title>Node4</title>
<g id="a_Node000004"><a xlink:href="../../d3/d05/classiot_1_1BatteryMotionSensor.html" target="_top" xlink:title="Battery&#45;powered Motion Sensor with sleep cycles.">
<polygon fill="white" stroke="transparent" points="291.5,-184 159.5,-184 159.5,0 291.5,0 291.5,-184"/>
<text text-anchor="start" x="164.5" y="-172" font-family="Helvetica,sans-Serif" font-size="10.00">iot::BatteryMotionSensor</text>
<text text-anchor="start" x="223.5" y="-157" font-family="Helvetica,sans-Serif" font-size="10.00"> </text>
<text text-anchor="start" x="163.5" y="-142" font-family="Helvetica,sans-Serif" font-size="10.00">+</text>
<text text-anchor="start" x="176.5" y="-142" font-family="Helvetica,sans-Serif" font-size="10.00">BatteryMotionSensor()</text>
<text text-anchor="start" x="163.5" y="-127" font-family="Helvetica,sans-Serif" font-size="10.00">+</text>
<text text-anchor="start" x="176.5" y="-127" font-family="Helvetica,sans-Serif" font-size="10.00">readValue()</text>
<text text-anchor="start" x="163.5" y="-112" font-family="Helvetica,sans-Serif" font-size="10.00">+</text>
<text text-anchor="start" x="176.5" y="-112" font-family="Helvetica,sans-Serif" font-size="10.00">sendData()</text>
<text text-anchor="start" x="163.5" y="-97" font-family="Helvetica,sans-Serif" font-size="10.00">+</text>
<text text-anchor="start" x="176.5" y="-97" font-family="Helvetica,sans-Serif" font-size="10.00">receiveData()</text>
<text text-anchor="start" x="163.5" y="-82" font-family="Helvetica,sans-Serif" font-size="10.00">+</text>
<text text-anchor="start" x="176.5" y="-82" font-family="Helvetica,sans-Serif" font-size="10.00">setSleepPattern()</text>
<text text-anchor="start" x="163.5" y="-67" font-family="Helvetica,sans-Serif" font-size="10.00">+</text>
<text text-anchor="start" x="176.5" y="-67" font-family="Helvetica,sans-Serif" font-size="10.00">getBatteryLevel()</text>
<text text-anchor="start" x="163.5" y="-52" font-family="Helvetica,sans-Serif" font-size="10.00">+</text>
<text text-anchor="start" x="176.5" y="-52" font-family="Helvetica,sans-Serif" font-size="10.00">isBatteryLow()</text>
<text text-anchor="start" x="163.5" y="-37" font-family="Helvetica,sans-Serif" font-size="10.00">+</text>
<text text-anchor="start" x="176.5" y="-37" font-family="Helvetica,sans-Serif" font-size="10.00">isBatteryCritical()</text>
<text text-anchor="start" x="163.5" y="-22" font-family="Helvetica,sans-Serif" font-size="10.00">+</text>
<text text-anchor="start" x="176.5" y="-22" font-family="Helvetica,sans-Serif" font-size="10.00">isInLowPowerMode()</text>
<text text-anchor="start" x="163.5" y="-7" font-family="Helvetica,sans-Serif" font-size="10.00">+</text>
<text text-anchor="start" x="176.5" y="-7" font-family="Helvetica,sans-Serif" font-size="10.00">rechargeBattery()</text>
<polygon fill="#666666" stroke="#666666" points="159.5,-167 159.5,-167 291.5,-167 291.5,-167 159.5,-167"/>
<polygon fill="#666666" stroke="#666666" points="159.5,-152 159.5,-152 291.5,-152 291.5,-152 159.5,-152"/>
<polygon fill="none" stroke="#666666" points="159.5,0 159.5,-184 291.5,-184 291.5,0 159.5,0"/>
</a>
</g>
</g>
<!-- Node1&#45;&gt;Node4 -->
<g id="edge3_Node000001_Node000004" class="edge">
<title>Node1&#45;&gt;Node4</title>
<g id="a_edge3_Node000001_Node000004"><a xlink:title=" ">
<path fill="none" stroke="#63b8ff" d="M550.64,-306.75C483.74,-284.49 377.83,-243.17 300.5,-184 297.57,-181.76 294.69,-179.39 291.85,-176.91"/>
<polygon fill="none" stroke="#63b8ff" points="549.63,-310.1 560.22,-309.9 551.81,-303.45 549.63,-310.1"/>
</a>
</g>
</g>
<!-- Node5 -->
<g id="Node000005" class="node">
<title>Node5</title>
<g id="a_Node000005"><a xlink:href="../../df/d56/classiot_1_1BatteryTemperatureSensor.html" target="_top" xlink:title="Battery&#45;powered Temperature Sensor.">
<polygon fill="white" stroke="transparent" points="469.5,-176.5 309.5,-176.5 309.5,-7.5 469.5,-7.5 469.5,-176.5"/>
<text text-anchor="start" x="314.5" y="-164" font-family="Helvetica,sans-Serif" font-size="10.00">iot::BatteryTemperatureSensor</text>
<text text-anchor="start" x="387.5" y="-149" font-family="Helvetica,sans-Serif" font-size="10.00"> </text>
<text text-anchor="start" x="313.5" y="-134" font-family="Helvetica,sans-Serif" font-size="10.00">+</text>
<text text-anchor="start" x="326.5" y="-134" font-family="Helvetica,sans-Serif" font-size="10.00">BatteryTemperatureSensor()</text>
<text text-anchor="start" x="313.5" y="-119" font-family="Helvetica,sans-Serif" font-size="10.00">+</text>
<text text-anchor="start" x="326.5" y="-119" font-family="Helvetica,sans-Serif" font-size="10.00">readValue()</text>
<text text-anchor="start" x="313.5" y="-104" font-family="Helvetica,sans-Serif" font-size="10.00">+</text>
<text text-anchor="start" x="326.5" y="-104" font-family="Helvetica,sans-Serif" font-size="10.00">sendData()</text>
<text text-anchor="start" x="313.5" y="-89" font-family="Helvetica,sans-Serif" font-size="10.00">+</text>
<text text-anchor="start" x="326.5" y="-89" font-family="Helvetica,sans-Serif" font-size="10.00">receiveData()</text>
<text text-anchor="start" x="313.5" y="-74" font-family="Helvetica,sans-Serif" font-size="10.00">+</text>
<text text-anchor="start" x="326.5" y="-74" font-family="Helvetica,sans-Serif" font-size="10.00">getBatteryLevel()</text>
<text text-anchor="start" x="313.5" y="-59" font-family="Helvetica,sans-Serif" font-size="10.00">+</text>
<text text-anchor="start" x="326.5" y="-59" font-family="Helvetica,sans-Serif" font-size="10.00">isBatteryLow()</text>
<text text-anchor="start" x="313.5" y="-44" font-family="Helvetica,sans-Serif" font-size="10.00">+</text>
<text text-anchor="start" x="326.5" y="-44" font-family="Helvetica,sans-Serif" font-size="10.00">isBatteryCritical()</text>
<text text-anchor="start" x="313.5" y="-29" font-family="Helvetica,sans-Serif" font-size="10.00">+</text>
<text text-anchor="start" x="326.5" y="-29" font-family="Helvetica,sans-Serif" font-size="10.00">isInLowPowerMode()</text>
<text text-anchor="start" x="313.5" y="-14" font-family="Helvetica,sans-Serif" font-size="10.00">+</text>
<text text-anchor="start" x="326.5" y="-14" font-family="Helvetica,sans-Serif" font-size="10.00">rechargeBattery()</text>
<polygon fill="#666666" stroke="#666666" points="309.5,-159 309.5,-159 469.5,-159 469.5,-159 309.5,-159"/>
<polygon fill="#666666" stroke="#666666" points="309.5,-144 309.5,-144 469.5,-144 469.5,-144 309.5,-144"/>
<polygon fill="none" stroke="#666666" points="309.5,-7.5 309.5,-176.5 469.5,-176.5 469.5,-7.5 309.5,-7.5"/>
</a>
</g>
</g>
<!-- Node1&#45;&gt;Node5 -->
<g id="edge4_Node000001_Node000005" class="edge">
<title>Node1&#45;&gt;Node5</title>
<g id="a_edge4_Node000001_Node000005"><a xlink:title=" ">
<path fill="none" stroke="#63b8ff" d="M553.18,-262.5C527.42,-235.82 497.11,-204.43 469.61,-175.96"/>
<polygon fill="none" stroke="#63b8ff" points="550.86,-265.13 560.32,-269.89 555.89,-260.27 550.86,-265.13"/>
</a>
</g>
</g>
<!-- Node6 -->
<g id="Node000006" class="node">
<title>Node6</title>
<g id="a_Node000006"><a xlink:href="../../d8/dd2/classiot_1_1HumiditySensor.html" target="_top" xlink:title="Humidity Sensor implementation.">
<polygon fill="white" stroke="transparent" points="595,-124 488,-124 488,-60 595,-60 595,-124"/>
<text text-anchor="start" x="493.5" y="-112" font-family="Helvetica,sans-Serif" font-size="10.00">iot::HumiditySensor</text>
<text text-anchor="start" x="540" y="-97" font-family="Helvetica,sans-Serif" font-size="10.00"> </text>
<text text-anchor="start" x="492.5" y="-82" font-family="Helvetica,sans-Serif" font-size="10.00">+</text>
<text text-anchor="start" x="505.5" y="-82" font-family="Helvetica,sans-Serif" font-size="10.00">HumiditySensor()</text>
<text text-anchor="start" x="492.5" y="-67" font-family="Helvetica,sans-Serif" font-size="10.00">+</text>
<text text-anchor="start" x="505.5" y="-67" font-family="Helvetica,sans-Serif" font-size="10.00">readValue()</text>
<polygon fill="#666666" stroke="#666666" points="488.5,-107 488.5,-107 595.5,-107 595.5,-107 488.5,-107"/>
<polygon fill="#666666" stroke="#666666" points="488.5,-92 488.5,-92 595.5,-92 595.5,-92 488.5,-92"/>
<polygon fill="none" stroke="#666666" points="488,-60 488,-124 595,-124 595,-60 488,-60"/>
</a>
</g>
</g>
<!-- Node1&#45;&gt;Node6 -->
<g id="edge5_Node000001_Node000006" class="edge">
<title>Node1&#45;&gt;Node6</title>
<g id="a_edge5_Node000001_Node000006"><a xlink:title=" ">
<path fill="none" stroke="#63b8ff" d="M578.13,-209.92C568.21,-178.26 558.28,-146.57 551.27,-124.18"/>
<polygon fill="none" stroke="#63b8ff" points="574.87,-211.23 581.2,-219.73 581.55,-209.14 574.87,-211.23"/>
</a>
</g>
</g>
<!-- Node7 -->
<g id="Node000007" class="node">
<title>Node7</title>
<g id="a_Node000007"><a xlink:href="../../d2/dc6/classiot_1_1LoRaTemperatureSensor.html" target="_top" xlink:title=" ">
<polygon fill="white" stroke="transparent" points="761.5,-146.5 613.5,-146.5 613.5,-37.5 761.5,-37.5 761.5,-146.5"/>
<text text-anchor="start" x="618.5" y="-134" font-family="Helvetica,sans-Serif" font-size="10.00">iot::LoRaTemperatureSensor</text>
<text text-anchor="start" x="685.5" y="-119" font-family="Helvetica,sans-Serif" font-size="10.00"> </text>
<text text-anchor="start" x="617.5" y="-104" font-family="Helvetica,sans-Serif" font-size="10.00">+</text>
<text text-anchor="start" x="630.5" y="-104" font-family="Helvetica,sans-Serif" font-size="10.00">LoRaTemperatureSensor()</text>
<text text-anchor="start" x="617.5" y="-89" font-family="Helvetica,sans-Serif" font-size="10.00">+</text>
<text text-anchor="start" x="630.5" y="-89" font-family="Helvetica,sans-Serif" font-size="10.00">readValue()</text>
<text text-anchor="start" x="617.5" y="-74" font-family="Helvetica,sans-Serif" font-size="10.00">+</text>
<text text-anchor="start" x="630.5" y="-74" font-family="Helvetica,sans-Serif" font-size="10.00">sendData()</text>
<text text-anchor="start" x="617.5" y="-59" font-family="Helvetica,sans-Serif" font-size="10.00">+</text>
<text text-anchor="start" x="630.5" y="-59" font-family="Helvetica,sans-Serif" font-size="10.00">setDutyCycleLimit()</text>
<text text-anchor="start" x="617.5" y="-44" font-family="Helvetica,sans-Serif" font-size="10.00">+</text>
<text text-anchor="start" x="630.5" y="-44" font-family="Helvetica,sans-Serif" font-size="10.00">getDutyCycleLimit()</text>
<polygon fill="#666666" stroke="#666666" points="613.5,-129 613.5,-129 761.5,-129 761.5,-129 613.5,-129"/>
<polygon fill="#666666" stroke="#666666" points="613.5,-114 613.5,-114 761.5,-114 761.5,-114 613.5,-114"/>
<polygon fill="none" stroke="#666666" points="613.5,-37.5 613.5,-146.5 761.5,-146.5 761.5,-37.5 613.5,-37.5"/>
</a>
</g>
</g>
<!-- Node1&#45;&gt;Node7 -->
<g id="edge6_Node000001_Node000007" class="edge">
<title>Node1&#45;&gt;Node7</title>
<g id="a_edge6_Node000001_Node000007"><a xlink:title=" ">
<path fill="none" stroke="#63b8ff" d="M650.87,-209.91C657.81,-187.78 664.75,-165.62 670.69,-146.64"/>
<polygon fill="none" stroke="#63b8ff" points="647.45,-209.14 647.8,-219.73 654.13,-211.23 647.45,-209.14"/>
</a>
</g>
</g>
<!-- Node8 -->
<g id="Node000008" class="node">
<title>Node8</title>
<g id="a_Node000008"><a xlink:href="../../d2/da9/classiot_1_1MotionSensor.html" target="_top" xlink:title="Motion Sensor implementation.">
<polygon fill="white" stroke="transparent" points="911,-131.5 780,-131.5 780,-52.5 911,-52.5 911,-131.5"/>
<text text-anchor="start" x="803" y="-119" font-family="Helvetica,sans-Serif" font-size="10.00">iot::MotionSensor</text>
<text text-anchor="start" x="844" y="-104" font-family="Helvetica,sans-Serif" font-size="10.00"> </text>
<text text-anchor="start" x="784.5" y="-89" font-family="Helvetica,sans-Serif" font-size="10.00">+</text>
<text text-anchor="start" x="797.5" y="-89" font-family="Helvetica,sans-Serif" font-size="10.00">MotionSensor()</text>
<text text-anchor="start" x="784.5" y="-74" font-family="Helvetica,sans-Serif" font-size="10.00">+</text>
<text text-anchor="start" x="797.5" y="-74" font-family="Helvetica,sans-Serif" font-size="10.00">readValue()</text>
<text text-anchor="start" x="784.5" y="-59" font-family="Helvetica,sans-Serif" font-size="10.00">+</text>
<text text-anchor="start" x="797.5" y="-59" font-family="Helvetica,sans-Serif" font-size="10.00">updateMotionPattern()</text>
<polygon fill="#666666" stroke="#666666" points="780.5,-114 780.5,-114 911.5,-114 911.5,-114 780.5,-114"/>
<polygon fill="#666666" stroke="#666666" points="780.5,-99 780.5,-99 911.5,-99 911.5,-99 780.5,-99"/>
<polygon fill="none" stroke="#666666" points="780,-52.5 780,-131.5 911,-131.5 911,-52.5 780,-52.5"/>
</a>
</g>
</g>
<!-- Node1&#45;&gt;Node8 -->
<g id="edge7_Node000001_Node000008" class="edge">
<title>Node1&#45;&gt;Node8</title>
<g id="a_edge7_Node000001_Node000008"><a xlink:title=" ">
<path fill="none" stroke="#63b8ff" d="M676.37,-273.35C705.81,-247.38 740.94,-215.05 770.5,-184 786.17,-167.54 802.35,-148.25 815.65,-131.67"/>
<polygon fill="none" stroke="#63b8ff" points="673.83,-270.92 668.62,-280.15 678.44,-276.18 673.83,-270.92"/>
</a>
</g>
</g>
<!-- Node9 -->
<g id="Node000009" class="node">
<title>Node9</title>
<g id="a_Node000009"><a xlink:href="../../d0/d39/classiot_1_1TemperatureSensor.html" target="_top" xlink:title="Temperature Sensor implementation.">
<polygon fill="white" stroke="transparent" points="1053.5,-124 929.5,-124 929.5,-60 1053.5,-60 1053.5,-124"/>
<text text-anchor="start" x="934.5" y="-112" font-family="Helvetica,sans-Serif" font-size="10.00">iot::TemperatureSensor</text>
<text text-anchor="start" x="989.5" y="-97" font-family="Helvetica,sans-Serif" font-size="10.00"> </text>
<text text-anchor="start" x="933.5" y="-82" font-family="Helvetica,sans-Serif" font-size="10.00">+</text>
<text text-anchor="start" x="946.5" y="-82" font-family="Helvetica,sans-Serif" font-size="10.00">TemperatureSensor()</text>
<text text-anchor="start" x="933.5" y="-67" font-family="Helvetica,sans-Serif" font-size="10.00">+</text>
<text text-anchor="start" x="946.5" y="-67" font-family="Helvetica,sans-Serif" font-size="10.00">readValue()</text>
<polygon fill="#666666" stroke="#666666" points="929.5,-107 929.5,-107 1053.5,-107 1053.5,-107 929.5,-107"/>
<polygon fill="#666666" stroke="#666666" points="929.5,-92 929.5,-92 1053.5,-92 1053.5,-92 929.5,-92"/>
<polygon fill="none" stroke="#666666" points="929.5,-60 929.5,-124 1053.5,-124 1053.5,-60 929.5,-60"/>
</a>
</g>
</g>
<!-- Node1&#45;&gt;Node9 -->
<g id="edge8_Node000001_Node000009" class="edge">
<title>Node1&#45;&gt;Node9</title>
<g id="a_edge8_Node000001_Node000009"><a xlink:title=" ">
<path fill="none" stroke="#63b8ff" d="M678.29,-306.37C743.79,-284.05 846.35,-242.91 920.5,-184 941.37,-167.42 959.72,-143.51 972.53,-124.35"/>
<polygon fill="none" stroke="#63b8ff" points="676.87,-303.16 668.51,-309.66 679.1,-309.79 676.87,-303.16"/>
</a>
</g>
</g>
<!-- Node10 -->
<g id="Node000010" class="node">
<title>Node10</title>
<g id="a_Node000010"><a xlink:href="../../d8/d0a/classiot_1_1ZigBeeMotionSensor.html" target="_top" xlink:title=" ">
<polygon fill="white" stroke="transparent" points="1203,-154 1072,-154 1072,-30 1203,-30 1203,-154"/>
<text text-anchor="start" x="1077.5" y="-142" font-family="Helvetica,sans-Serif" font-size="10.00">iot::ZigBeeMotionSensor</text>
<text text-anchor="start" x="1136" y="-127" font-family="Helvetica,sans-Serif" font-size="10.00"> </text>
<text text-anchor="start" x="1076.5" y="-112" font-family="Helvetica,sans-Serif" font-size="10.00">+</text>
<text text-anchor="start" x="1089.5" y="-112" font-family="Helvetica,sans-Serif" font-size="10.00">ZigBeeMotionSensor()</text>
<text text-anchor="start" x="1076.5" y="-97" font-family="Helvetica,sans-Serif" font-size="10.00">+</text>
<text text-anchor="start" x="1089.5" y="-97" font-family="Helvetica,sans-Serif" font-size="10.00">readValue()</text>
<text text-anchor="start" x="1076.5" y="-82" font-family="Helvetica,sans-Serif" font-size="10.00">+</text>
<text text-anchor="start" x="1089.5" y="-82" font-family="Helvetica,sans-Serif" font-size="10.00">sendData()</text>
<text text-anchor="start" x="1076.5" y="-67" font-family="Helvetica,sans-Serif" font-size="10.00">+</text>
<text text-anchor="start" x="1089.5" y="-67" font-family="Helvetica,sans-Serif" font-size="10.00">setHopCount()</text>
<text text-anchor="start" x="1076.5" y="-52" font-family="Helvetica,sans-Serif" font-size="10.00">+</text>
<text text-anchor="start" x="1089.5" y="-52" font-family="Helvetica,sans-Serif" font-size="10.00">getHopCount()</text>
<text text-anchor="start" x="1076.5" y="-37" font-family="Helvetica,sans-Serif" font-size="10.00">+</text>
<text text-anchor="start" x="1089.5" y="-37" font-family="Helvetica,sans-Serif" font-size="10.00">setMeshRouting()</text>
<polygon fill="#666666" stroke="#666666" points="1072.5,-137 1072.5,-137 1203.5,-137 1203.5,-137 1072.5,-137"/>
<polygon fill="#666666" stroke="#666666" points="1072.5,-122 1072.5,-122 1203.5,-122 1203.5,-122 1072.5,-122"/>
<polygon fill="none" stroke="#666666" points="1072,-30 1072,-154 1203,-154 1203,-30 1072,-30"/>
</a>
</g>
</g>
<!-- Node1&#45;&gt;Node10 -->
<g id="edge9_Node000001_Node000010" class="edge">
<title>Node1&#45;&gt;Node10</title>
<g id="a_edge9_Node000001_Node000010"><a xlink:title=" ">
<path fill="none" stroke="#63b8ff" d="M678.81,-317.39C770.6,-302.63 941.46,-265.78 1062.5,-184 1074.54,-175.86 1085.68,-165.24 1095.48,-154.13"/>
<polygon fill="none" stroke="#63b8ff" points="678.16,-313.95 668.82,-318.96 679.25,-320.86 678.16,-313.95"/>
</a>
</g>
</g>
<!-- Node2 -->
<g id="Node000002" class="node">
<title>Node2</title>
<g id="a_Node000002"><a xlink:href="../../df/dfa/classiot_1_1IoTDevice.html" target="_top" xlink:title=" ">
<polygon fill="white" stroke="transparent" points="668.5,-729 560.5,-729 560.5,-470 668.5,-470 668.5,-729"/>
<text text-anchor="start" x="580.5" y="-716.5" font-family="Helvetica,sans-Serif" font-size="10.00">iot::IoTDevice</text>
<text text-anchor="start" x="564.5" y="-701.5" font-family="Helvetica,sans-Serif" font-size="10.00">#</text>
<text text-anchor="start" x="577.5" y="-701.5" font-family="Helvetica,sans-Serif" font-size="10.00">deviceId</text>
<text text-anchor="start" x="564.5" y="-686.5" font-family="Helvetica,sans-Serif" font-size="10.00">#</text>
<text text-anchor="start" x="577.5" y="-686.5" font-family="Helvetica,sans-Serif" font-size="10.00">deviceType</text>
<text text-anchor="start" x="564.5" y="-671.5" font-family="Helvetica,sans-Serif" font-size="10.00">#</text>
<text text-anchor="start" x="577.5" y="-671.5" font-family="Helvetica,sans-Serif" font-size="10.00">deviceName</text>
<text text-anchor="start" x="564.5" y="-656.5" font-family="Helvetica,sans-Serif" font-size="10.00">#</text>
<text text-anchor="start" x="577.5" y="-656.5" font-family="Helvetica,sans-Serif" font-size="10.00">isActive</text>
<text text-anchor="start" x="564.5" y="-641.5" font-family="Helvetica,sans-Serif" font-size="10.00">#</text>
<text text-anchor="start" x="577.5" y="-641.5" font-family="Helvetica,sans-Serif" font-size="10.00">lastUpdate</text>
<text text-anchor="start" x="564.5" y="-626.5" font-family="Helvetica,sans-Serif" font-size="10.00">+</text>
<text text-anchor="start" x="577.5" y="-626.5" font-family="Helvetica,sans-Serif" font-size="10.00">IoTDevice()</text>
<text text-anchor="start" x="564.5" y="-611.5" font-family="Helvetica,sans-Serif" font-size="10.00">+</text>
<text text-anchor="start" x="577.5" y="-611.5" font-family="Helvetica,sans-Serif" font-size="10.00">~IoTDevice()</text>
<text text-anchor="start" x="564.5" y="-596.5" font-family="Helvetica,sans-Serif" font-size="10.00">+</text>
<text text-anchor="start" x="577.5" y="-596.5" font-family="Helvetica,sans-Serif" font-size="10.00">sendData()</text>
<text text-anchor="start" x="564.5" y="-581.5" font-family="Helvetica,sans-Serif" font-size="10.00">+</text>
<text text-anchor="start" x="577.5" y="-581.5" font-family="Helvetica,sans-Serif" font-size="10.00">receiveData()</text>
<text text-anchor="start" x="564.5" y="-566.5" font-family="Helvetica,sans-Serif" font-size="10.00">+</text>
<text text-anchor="start" x="577.5" y="-566.5" font-family="Helvetica,sans-Serif" font-size="10.00">getStatus()</text>
<text text-anchor="start" x="564.5" y="-551.5" font-family="Helvetica,sans-Serif" font-size="10.00">+</text>
<text text-anchor="start" x="577.5" y="-551.5" font-family="Helvetica,sans-Serif" font-size="10.00">update()</text>
<text text-anchor="start" x="564.5" y="-536.5" font-family="Helvetica,sans-Serif" font-size="10.00">+</text>
<text text-anchor="start" x="577.5" y="-536.5" font-family="Helvetica,sans-Serif" font-size="10.00">getDeviceId()</text>
<text text-anchor="start" x="564.5" y="-521.5" font-family="Helvetica,sans-Serif" font-size="10.00">+</text>
<text text-anchor="start" x="577.5" y="-521.5" font-family="Helvetica,sans-Serif" font-size="10.00">getDeviceType()</text>
<text text-anchor="start" x="564.5" y="-506.5" font-family="Helvetica,sans-Serif" font-size="10.00">+</text>
<text text-anchor="start" x="577.5" y="-506.5" font-family="Helvetica,sans-Serif" font-size="10.00">getDeviceName()</text>
<text text-anchor="start" x="564.5" y="-491.5" font-family="Helvetica,sans-Serif" font-size="10.00">+</text>
<text text-anchor="start" x="577.5" y="-491.5" font-family="Helvetica,sans-Serif" font-size="10.00">isActiveDevice()</text>
<text text-anchor="start" x="564.5" y="-476.5" font-family="Helvetica,sans-Serif" font-size="10.00">+</text>
<text text-anchor="start" x="577.5" y="-476.5" font-family="Helvetica,sans-Serif" font-size="10.00">setActive()</text>
<polygon fill="#666666" stroke="#666666" points="560.5,-711.5 560.5,-711.5 668.5,-711.5 668.5,-711.5 560.5,-711.5"/>
<polygon fill="#666666" stroke="#666666" points="560.5,-636.5 560.5,-636.5 575.5,-636.5 575.5,-636.5 560.5,-636.5"/>
<polygon fill="#666666" stroke="#666666" points="575.5,-636.5 575.5,-636.5 668.5,-636.5 668.5,-636.5 575.5,-636.5"/>
<polygon fill="none" stroke="#666666" points="560.5,-470 560.5,-729 668.5,-729 668.5,-470 560.5,-470"/>
</a>
</g>
</g>
<!-- Node2&#45;&gt;Node1 -->
<g id="edge1_Node000001_Node000002" class="edge">
<title>Node2&#45;&gt;Node1</title>
<g id="a_edge1_Node000001_Node000002"><a xlink:title=" ">
<path fill="none" stroke="#63b8ff" d="M614.5,-459.85C614.5,-451.22 614.5,-442.61 614.5,-434.16"/>
<polygon fill="none" stroke="#63b8ff" points="611,-459.98 614.5,-469.98 618,-459.98 611,-459.98"/>
</a>
</g>
</g>
</g>
</svg>
