<?xml version="1.0" encoding="UTF-8" standalone="no"?>
<!DOCTYPE svg PUBLIC "-//W3C//DTD SVG 1.1//EN"
 "http://www.w3.org/Graphics/SVG/1.1/DTD/svg11.dtd">
<!-- Generated by graphviz version 2.43.0 (0)
 -->
<!-- Title: iot::SecurityManager::encryptMessage Pages: 1 -->
<svg width="357pt" height="60pt"
 viewBox="0.00 0.00 357.00 60.00" xmlns="http://www.w3.org/2000/svg" xmlns:xlink="http://www.w3.org/1999/xlink">
<g id="graph0" class="graph" transform="scale(1 1) rotate(0) translate(4 56)">
<title>iot::SecurityManager::encryptMessage</title>
<!-- Node1 -->
<g id="Node000001" class="node">
<title>Node1</title>
<g id="a_Node000001"><a xlink:title="Simulate message encryption.">
<polygon fill="#999999" stroke="#666666" points="349,-30 231,-30 231,0 349,0 349,-30"/>
<text text-anchor="start" x="239" y="-18" font-family="Helvetica,sans-Serif" font-size="10.00">iot::SecurityManager</text>
<text text-anchor="middle" x="290" y="-7" font-family="Helvetica,sans-Serif" font-size="10.00">::encryptMessage</text>
</a>
</g>
</g>
<!-- Node2 -->
<g id="Node000002" class="node">
<title>Node2</title>
<g id="a_Node000002"><a xlink:href="../../d2/d28/classiot_1_1SecurityManager.html#a4583af6732d924364a0495fcba57c1bb" target="_top" xlink:title="Simulate message decryption.">
<polygon fill="white" stroke="#666666" points="195,-52 77,-52 77,-22 195,-22 195,-52"/>
<text text-anchor="start" x="85" y="-40" font-family="Helvetica,sans-Serif" font-size="10.00">iot::SecurityManager</text>
<text text-anchor="middle" x="136" y="-29" font-family="Helvetica,sans-Serif" font-size="10.00">::decryptMessage</text>
</a>
</g>
</g>
<!-- Node1&#45;&gt;Node2 -->
<g id="edge1_Node000001_Node000002" class="edge">
<title>Node1&#45;&gt;Node2</title>
<g id="a_edge1_Node000001_Node000002"><a xlink:title=" ">
<path fill="none" stroke="#63b8ff" d="M220.74,-24.88C212.2,-26.12 203.54,-27.37 195.18,-28.58"/>
<polygon fill="#63b8ff" stroke="#63b8ff" points="221.27,-28.34 230.67,-23.44 220.27,-21.41 221.27,-28.34"/>
</a>
</g>
</g>
<!-- Node3 -->
<g id="Node000003" class="node">
<title>Node3</title>
<g id="a_Node000003"><a xlink:href="../../df/d0a/main_8cpp.html#ae66f6b31b5ad750f1fe042a706a4e3d4" target="_top" xlink:title=" ">
<polygon fill="white" stroke="#666666" points="41,-24.5 0,-24.5 0,-5.5 41,-5.5 41,-24.5"/>
<text text-anchor="middle" x="20.5" y="-12.5" font-family="Helvetica,sans-Serif" font-size="10.00">main</text>
</a>
</g>
</g>
<!-- Node1&#45;&gt;Node3 -->
<g id="edge3_Node000001_Node000003" class="edge">
<title>Node1&#45;&gt;Node3</title>
<g id="a_edge3_Node000001_Node000003"><a xlink:title=" ">
<path fill="none" stroke="#63b8ff" d="M220.74,-13.38C212.07,-13.22 203.33,-13.09 195,-13 142.56,-12.44 129.44,-12.06 77,-13 65.05,-13.22 51.65,-13.69 41.02,-14.12"/>
<polygon fill="#63b8ff" stroke="#63b8ff" points="220.77,-16.88 230.84,-13.57 220.91,-9.88 220.77,-16.88"/>
</a>
</g>
</g>
<!-- Node2&#45;&gt;Node3 -->
<g id="edge2_Node000002_Node000003" class="edge">
<title>Node2&#45;&gt;Node3</title>
<g id="a_edge2_Node000002_Node000003"><a xlink:title=" ">
<path fill="none" stroke="#63b8ff" d="M67.03,-23.82C57.64,-22.01 48.68,-20.27 41.23,-18.82"/>
<polygon fill="#63b8ff" stroke="#63b8ff" points="66.44,-27.28 76.92,-25.74 67.77,-20.4 66.44,-27.28"/>
</a>
</g>
</g>
</g>
</svg>
