<?xml version="1.0" encoding="UTF-8" standalone="no"?>
<!DOCTYPE svg PUBLIC "-//W3C//DTD SVG 1.1//EN"
 "http://www.w3.org/Graphics/SVG/1.1/DTD/svg11.dtd">
<!-- Generated by graphviz version 2.43.0 (0)
 -->
<!-- Title: iot::Sensor Pages: 1 -->
<svg width="116pt" height="517pt"
 viewBox="0.00 0.00 116.00 517.00" xmlns="http://www.w3.org/2000/svg" xmlns:xlink="http://www.w3.org/1999/xlink">
<g id="graph0" class="graph" transform="scale(1 1) rotate(0) translate(4 513)">
<title>iot::Sensor</title>
<!-- Node1 -->
<g id="Node000001" class="node">
<title>Node1</title>
<g id="a_Node000001"><a xlink:title=" ">
<polygon fill="#999999" stroke="transparent" points="108,-214 0,-214 0,0 108,0 108,-214"/>
<text text-anchor="start" x="28" y="-202" font-family="Helvetica,sans-Serif" font-size="10.00">iot::Sensor</text>
<text text-anchor="start" x="4" y="-187" font-family="Helvetica,sans-Serif" font-size="10.00">#</text>
<text text-anchor="start" x="17" y="-187" font-family="Helvetica,sans-Serif" font-size="10.00">currentValue</text>
<text text-anchor="start" x="4" y="-172" font-family="Helvetica,sans-Serif" font-size="10.00">#</text>
<text text-anchor="start" x="17" y="-172" font-family="Helvetica,sans-Serif" font-size="10.00">minValue</text>
<text text-anchor="start" x="4" y="-157" font-family="Helvetica,sans-Serif" font-size="10.00">#</text>
<text text-anchor="start" x="17" y="-157" font-family="Helvetica,sans-Serif" font-size="10.00">maxValue</text>
<text text-anchor="start" x="4" y="-142" font-family="Helvetica,sans-Serif" font-size="10.00">#</text>
<text text-anchor="start" x="17" y="-142" font-family="Helvetica,sans-Serif" font-size="10.00">rng</text>
<text text-anchor="start" x="4" y="-127" font-family="Helvetica,sans-Serif" font-size="10.00">#</text>
<text text-anchor="start" x="17" y="-127" font-family="Helvetica,sans-Serif" font-size="10.00">noiseDistribution</text>
<text text-anchor="start" x="4" y="-112" font-family="Helvetica,sans-Serif" font-size="10.00">+</text>
<text text-anchor="start" x="17" y="-112" font-family="Helvetica,sans-Serif" font-size="10.00">Sensor()</text>
<text text-anchor="start" x="4" y="-97" font-family="Helvetica,sans-Serif" font-size="10.00">+</text>
<text text-anchor="start" x="17" y="-97" font-family="Helvetica,sans-Serif" font-size="10.00">~Sensor()</text>
<text text-anchor="start" x="4" y="-82" font-family="Helvetica,sans-Serif" font-size="10.00">+</text>
<text text-anchor="start" x="17" y="-82" font-family="Helvetica,sans-Serif" font-size="10.00">readValue()</text>
<text text-anchor="start" x="4" y="-67" font-family="Helvetica,sans-Serif" font-size="10.00">+</text>
<text text-anchor="start" x="17" y="-67" font-family="Helvetica,sans-Serif" font-size="10.00">sendData()</text>
<text text-anchor="start" x="4" y="-52" font-family="Helvetica,sans-Serif" font-size="10.00">+</text>
<text text-anchor="start" x="17" y="-52" font-family="Helvetica,sans-Serif" font-size="10.00">receiveData()</text>
<text text-anchor="start" x="4" y="-37" font-family="Helvetica,sans-Serif" font-size="10.00">+</text>
<text text-anchor="start" x="17" y="-37" font-family="Helvetica,sans-Serif" font-size="10.00">getCurrentValue()</text>
<text text-anchor="start" x="4" y="-22" font-family="Helvetica,sans-Serif" font-size="10.00">+</text>
<text text-anchor="start" x="17" y="-22" font-family="Helvetica,sans-Serif" font-size="10.00">getMinValue()</text>
<text text-anchor="start" x="4" y="-7" font-family="Helvetica,sans-Serif" font-size="10.00">+</text>
<text text-anchor="start" x="17" y="-7" font-family="Helvetica,sans-Serif" font-size="10.00">getMaxValue()</text>
<polygon fill="#666666" stroke="#666666" points="0,-197 0,-197 108,-197 108,-197 0,-197"/>
<polygon fill="#666666" stroke="#666666" points="0,-122 0,-122 15,-122 15,-122 0,-122"/>
<polygon fill="#666666" stroke="#666666" points="15,-122 15,-122 108,-122 108,-122 15,-122"/>
<polygon fill="none" stroke="#666666" points="0,0 0,-214 108,-214 108,0 0,0"/>
</a>
</g>
</g>
<!-- Node2 -->
<g id="Node000002" class="node">
<title>Node2</title>
<g id="a_Node000002"><a xlink:href="../../df/dfa/classiot_1_1IoTDevice.html" target="_top" xlink:title=" ">
<polygon fill="white" stroke="transparent" points="108,-509 0,-509 0,-250 108,-250 108,-509"/>
<text text-anchor="start" x="20" y="-496.5" font-family="Helvetica,sans-Serif" font-size="10.00">iot::IoTDevice</text>
<text text-anchor="start" x="4" y="-481.5" font-family="Helvetica,sans-Serif" font-size="10.00">#</text>
<text text-anchor="start" x="17" y="-481.5" font-family="Helvetica,sans-Serif" font-size="10.00">deviceId</text>
<text text-anchor="start" x="4" y="-466.5" font-family="Helvetica,sans-Serif" font-size="10.00">#</text>
<text text-anchor="start" x="17" y="-466.5" font-family="Helvetica,sans-Serif" font-size="10.00">deviceType</text>
<text text-anchor="start" x="4" y="-451.5" font-family="Helvetica,sans-Serif" font-size="10.00">#</text>
<text text-anchor="start" x="17" y="-451.5" font-family="Helvetica,sans-Serif" font-size="10.00">deviceName</text>
<text text-anchor="start" x="4" y="-436.5" font-family="Helvetica,sans-Serif" font-size="10.00">#</text>
<text text-anchor="start" x="17" y="-436.5" font-family="Helvetica,sans-Serif" font-size="10.00">isActive</text>
<text text-anchor="start" x="4" y="-421.5" font-family="Helvetica,sans-Serif" font-size="10.00">#</text>
<text text-anchor="start" x="17" y="-421.5" font-family="Helvetica,sans-Serif" font-size="10.00">lastUpdate</text>
<text text-anchor="start" x="4" y="-406.5" font-family="Helvetica,sans-Serif" font-size="10.00">+</text>
<text text-anchor="start" x="17" y="-406.5" font-family="Helvetica,sans-Serif" font-size="10.00">IoTDevice()</text>
<text text-anchor="start" x="4" y="-391.5" font-family="Helvetica,sans-Serif" font-size="10.00">+</text>
<text text-anchor="start" x="17" y="-391.5" font-family="Helvetica,sans-Serif" font-size="10.00">~IoTDevice()</text>
<text text-anchor="start" x="4" y="-376.5" font-family="Helvetica,sans-Serif" font-size="10.00">+</text>
<text text-anchor="start" x="17" y="-376.5" font-family="Helvetica,sans-Serif" font-size="10.00">sendData()</text>
<text text-anchor="start" x="4" y="-361.5" font-family="Helvetica,sans-Serif" font-size="10.00">+</text>
<text text-anchor="start" x="17" y="-361.5" font-family="Helvetica,sans-Serif" font-size="10.00">receiveData()</text>
<text text-anchor="start" x="4" y="-346.5" font-family="Helvetica,sans-Serif" font-size="10.00">+</text>
<text text-anchor="start" x="17" y="-346.5" font-family="Helvetica,sans-Serif" font-size="10.00">getStatus()</text>
<text text-anchor="start" x="4" y="-331.5" font-family="Helvetica,sans-Serif" font-size="10.00">+</text>
<text text-anchor="start" x="17" y="-331.5" font-family="Helvetica,sans-Serif" font-size="10.00">update()</text>
<text text-anchor="start" x="4" y="-316.5" font-family="Helvetica,sans-Serif" font-size="10.00">+</text>
<text text-anchor="start" x="17" y="-316.5" font-family="Helvetica,sans-Serif" font-size="10.00">getDeviceId()</text>
<text text-anchor="start" x="4" y="-301.5" font-family="Helvetica,sans-Serif" font-size="10.00">+</text>
<text text-anchor="start" x="17" y="-301.5" font-family="Helvetica,sans-Serif" font-size="10.00">getDeviceType()</text>
<text text-anchor="start" x="4" y="-286.5" font-family="Helvetica,sans-Serif" font-size="10.00">+</text>
<text text-anchor="start" x="17" y="-286.5" font-family="Helvetica,sans-Serif" font-size="10.00">getDeviceName()</text>
<text text-anchor="start" x="4" y="-271.5" font-family="Helvetica,sans-Serif" font-size="10.00">+</text>
<text text-anchor="start" x="17" y="-271.5" font-family="Helvetica,sans-Serif" font-size="10.00">isActiveDevice()</text>
<text text-anchor="start" x="4" y="-256.5" font-family="Helvetica,sans-Serif" font-size="10.00">+</text>
<text text-anchor="start" x="17" y="-256.5" font-family="Helvetica,sans-Serif" font-size="10.00">setActive()</text>
<polygon fill="#666666" stroke="#666666" points="0,-491.5 0,-491.5 108,-491.5 108,-491.5 0,-491.5"/>
<polygon fill="#666666" stroke="#666666" points="0,-416.5 0,-416.5 15,-416.5 15,-416.5 0,-416.5"/>
<polygon fill="#666666" stroke="#666666" points="15,-416.5 15,-416.5 108,-416.5 108,-416.5 15,-416.5"/>
<polygon fill="none" stroke="#666666" points="0,-250 0,-509 108,-509 108,-250 0,-250"/>
</a>
</g>
</g>
<!-- Node2&#45;&gt;Node1 -->
<g id="edge1_Node000001_Node000002" class="edge">
<title>Node2&#45;&gt;Node1</title>
<g id="a_edge1_Node000001_Node000002"><a xlink:title=" ">
<path fill="none" stroke="#63b8ff" d="M54,-239.85C54,-231.22 54,-222.61 54,-214.16"/>
<polygon fill="none" stroke="#63b8ff" points="50.5,-239.98 54,-249.98 57.5,-239.98 50.5,-239.98"/>
</a>
</g>
</g>
</g>
</svg>
