<?xml version="1.0" encoding="UTF-8" standalone="no"?>
<!DOCTYPE svg PUBLIC "-//W3C//DTD SVG 1.1//EN"
 "http://www.w3.org/Graphics/SVG/1.1/DTD/svg11.dtd">
<!-- Generated by graphviz version 2.43.0 (0)
 -->
<!-- Title: include/devices/ProtocolSensors.h Pages: 1 -->
<svg width="922pt" height="368pt"
 viewBox="0.00 0.00 921.70 368.00" xmlns="http://www.w3.org/2000/svg" xmlns:xlink="http://www.w3.org/1999/xlink">
<g id="graph0" class="graph" transform="scale(1 1) rotate(0) translate(4 364)">
<title>include/devices/ProtocolSensors.h</title>
<!-- Node1 -->
<g id="Node000001" class="node">
<title>Node1</title>
<g id="a_Node000001"><a xlink:title=" ">
<polygon fill="#999999" stroke="#666666" points="721.2,-360 586.2,-360 586.2,-330 721.2,-330 721.2,-360"/>
<text text-anchor="start" x="594.2" y="-348" font-family="Helvetica,sans-Serif" font-size="10.00">include/devices/Protocol</text>
<text text-anchor="middle" x="653.7" y="-337" font-family="Helvetica,sans-Serif" font-size="10.00">Sensors.h</text>
</a>
</g>
</g>
<!-- Node2 -->
<g id="Node000002" class="node">
<title>Node2</title>
<g id="a_Node000002"><a xlink:href="../../d2/d1b/ProtocolAwareDevice_8h.html" target="_top" xlink:title=" ">
<polygon fill="white" stroke="#666666" points="540.7,-294 410.7,-294 410.7,-275 540.7,-275 540.7,-294"/>
<text text-anchor="middle" x="475.7" y="-282" font-family="Helvetica,sans-Serif" font-size="10.00">ProtocolAwareDevice.h</text>
</a>
</g>
</g>
<!-- Node1&#45;&gt;Node2 -->
<g id="edge1_Node000001_Node000002" class="edge">
<title>Node1&#45;&gt;Node2</title>
<g id="a_edge1_Node000001_Node000002"><a xlink:title=" ">
<path fill="none" stroke="#63b8ff" d="M611.07,-329.99C580.61,-319.98 540.11,-306.67 511.37,-297.22"/>
<polygon fill="#63b8ff" stroke="#63b8ff" points="512.32,-293.85 501.73,-294.05 510.14,-300.5 512.32,-293.85"/>
</a>
</g>
</g>
<!-- Node15 -->
<g id="Node000015" class="node">
<title>Node15</title>
<g id="a_Node000015"><a xlink:title=" ">
<polygon fill="#e0e0e0" stroke="#999999" points="913.7,-129 859.7,-129 859.7,-110 913.7,-110 913.7,-129"/>
<text text-anchor="middle" x="886.7" y="-117" font-family="Helvetica,sans-Serif" font-size="10.00">random</text>
</a>
</g>
</g>
<!-- Node1&#45;&gt;Node15 -->
<g id="edge40_Node000001_Node000015" class="edge">
<title>Node1&#45;&gt;Node15</title>
<g id="a_edge40_Node000001_Node000015"><a xlink:title=" ">
<path fill="none" stroke="#63b8ff" d="M668.63,-329.68C710.15,-289.85 826.77,-177.99 870.16,-136.37"/>
<polygon fill="#63b8ff" stroke="#63b8ff" points="872.81,-138.68 877.6,-129.23 867.96,-133.63 872.81,-138.68"/>
</a>
</g>
</g>
<!-- Node19 -->
<g id="Node000019" class="node">
<title>Node19</title>
<g id="a_Node000019"><a xlink:title=" ">
<polygon fill="#e0e0e0" stroke="#999999" points="609.7,-239 549.7,-239 549.7,-220 609.7,-220 609.7,-239"/>
<text text-anchor="middle" x="579.7" y="-227" font-family="Helvetica,sans-Serif" font-size="10.00">iostream</text>
</a>
</g>
</g>
<!-- Node1&#45;&gt;Node19 -->
<g id="edge39_Node000001_Node000019" class="edge">
<title>Node1&#45;&gt;Node19</title>
<g id="a_edge39_Node000001_Node000019"><a xlink:title=" ">
<path fill="none" stroke="#63b8ff" d="M644.33,-329.63C630.72,-308.75 605.52,-270.09 590.93,-247.72"/>
<polygon fill="#63b8ff" stroke="#63b8ff" points="593.79,-245.69 585.39,-239.23 587.92,-249.52 593.79,-245.69"/>
</a>
</g>
</g>
<!-- Node20 -->
<g id="Node000020" class="node">
<title>Node20</title>
<g id="a_Node000020"><a xlink:href="../../d5/d65/Sensor_8h.html" target="_top" xlink:title=" ">
<polygon fill="white" stroke="#666666" points="718.7,-184 660.7,-184 660.7,-165 718.7,-165 718.7,-184"/>
<text text-anchor="middle" x="689.7" y="-172" font-family="Helvetica,sans-Serif" font-size="10.00">Sensor.h</text>
</a>
</g>
</g>
<!-- Node1&#45;&gt;Node20 -->
<g id="edge35_Node000001_Node000020" class="edge">
<title>Node1&#45;&gt;Node20</title>
<g id="a_edge35_Node000001_Node000020"><a xlink:title=" ">
<path fill="none" stroke="#63b8ff" d="M656.71,-329.92C663.18,-299.65 678.41,-228.35 685.69,-194.27"/>
<polygon fill="#63b8ff" stroke="#63b8ff" points="689.17,-194.77 687.83,-184.25 682.32,-193.3 689.17,-194.77"/>
</a>
</g>
</g>
<!-- Node3 -->
<g id="Node000003" class="node">
<title>Node3</title>
<g id="a_Node000003"><a xlink:href="../../de/daa/IoTDevice_8h.html" target="_top" xlink:title=" ">
<polygon fill="white" stroke="#666666" points="338.2,-74 231.2,-74 231.2,-55 338.2,-55 338.2,-74"/>
<text text-anchor="middle" x="284.7" y="-62" font-family="Helvetica,sans-Serif" font-size="10.00">../core/IoTDevice.h</text>
</a>
</g>
</g>
<!-- Node2&#45;&gt;Node3 -->
<g id="edge2_Node000002_Node000003" class="edge">
<title>Node2&#45;&gt;Node3</title>
<g id="a_edge2_Node000002_Node000003"><a xlink:title=" ">
<path fill="none" stroke="#63b8ff" d="M410.48,-278.94C351.49,-273.4 270.61,-261.81 248.7,-239 208.64,-197.29 207.27,-162.41 231.7,-110 237.53,-97.49 248.8,-87.25 259.45,-79.76"/>
<polygon fill="#63b8ff" stroke="#63b8ff" points="261.64,-82.51 268.12,-74.13 257.83,-76.64 261.64,-82.51"/>
</a>
</g>
</g>
<!-- Node7 -->
<g id="Node000007" class="node">
<title>Node7</title>
<g id="a_Node000007"><a xlink:href="../../dd/d6c/NetworkManager_8h.html" target="_top" xlink:title=" ">
<polygon fill="white" stroke="#666666" points="528.2,-184 367.2,-184 367.2,-165 528.2,-165 528.2,-184"/>
<text text-anchor="middle" x="447.7" y="-172" font-family="Helvetica,sans-Serif" font-size="10.00">../network/NetworkManager.h</text>
</a>
</g>
</g>
<!-- Node2&#45;&gt;Node7 -->
<g id="edge6_Node000002_Node000007" class="edge">
<title>Node2&#45;&gt;Node7</title>
<g id="a_edge6_Node000002_Node000007"><a xlink:title=" ">
<path fill="none" stroke="#63b8ff" d="M473.41,-274.66C468.86,-257.09 458.58,-217.45 452.49,-193.95"/>
<polygon fill="#63b8ff" stroke="#63b8ff" points="455.85,-192.96 449.95,-184.16 449.07,-194.72 455.85,-192.96"/>
</a>
</g>
</g>
<!-- Node18 -->
<g id="Node000018" class="node">
<title>Node18</title>
<g id="a_Node000018"><a xlink:href="../../de/d44/ProtocolCharacteristics_8h.html" target="_top" xlink:title=" ">
<polygon fill="white" stroke="#666666" points="447.7,-239 257.7,-239 257.7,-220 447.7,-220 447.7,-239"/>
<text text-anchor="middle" x="352.7" y="-227" font-family="Helvetica,sans-Serif" font-size="10.00">../network/ProtocolCharacteristics.h</text>
</a>
</g>
</g>
<!-- Node2&#45;&gt;Node18 -->
<g id="edge31_Node000002_Node000018" class="edge">
<title>Node2&#45;&gt;Node18</title>
<g id="a_edge31_Node000002_Node000018"><a xlink:title=" ">
<path fill="none" stroke="#63b8ff" d="M455.94,-274.98C435.98,-266.38 404.9,-252.99 382.06,-243.15"/>
<polygon fill="#63b8ff" stroke="#63b8ff" points="383.39,-239.91 372.83,-239.17 380.62,-246.34 383.39,-239.91"/>
</a>
</g>
</g>
<!-- Node2&#45;&gt;Node19 -->
<g id="edge34_Node000002_Node000019" class="edge">
<title>Node2&#45;&gt;Node19</title>
<g id="a_edge34_Node000002_Node000019"><a xlink:title=" ">
<path fill="none" stroke="#63b8ff" d="M492.41,-274.98C508.92,-266.57 534.4,-253.59 553.58,-243.81"/>
<polygon fill="#63b8ff" stroke="#63b8ff" points="555.37,-246.83 562.69,-239.17 552.19,-240.59 555.37,-246.83"/>
</a>
</g>
</g>
<!-- Node4 -->
<g id="Node000004" class="node">
<title>Node4</title>
<g id="a_Node000004"><a xlink:title=" ">
<polygon fill="#e0e0e0" stroke="#999999" points="271.7,-19 227.7,-19 227.7,0 271.7,0 271.7,-19"/>
<text text-anchor="middle" x="249.7" y="-7" font-family="Helvetica,sans-Serif" font-size="10.00">string</text>
</a>
</g>
</g>
<!-- Node3&#45;&gt;Node4 -->
<g id="edge3_Node000003_Node000004" class="edge">
<title>Node3&#45;&gt;Node4</title>
<g id="a_edge3_Node000003_Node000004"><a xlink:title=" ">
<path fill="none" stroke="#63b8ff" d="M278.92,-54.75C274.08,-47.42 267.02,-36.73 261.06,-27.7"/>
<polygon fill="#63b8ff" stroke="#63b8ff" points="263.81,-25.5 255.38,-19.09 257.97,-29.36 263.81,-25.5"/>
</a>
</g>
</g>
<!-- Node5 -->
<g id="Node000005" class="node">
<title>Node5</title>
<g id="a_Node000005"><a xlink:title=" ">
<polygon fill="#e0e0e0" stroke="#999999" points="347.7,-19 289.7,-19 289.7,0 347.7,0 347.7,-19"/>
<text text-anchor="middle" x="318.7" y="-7" font-family="Helvetica,sans-Serif" font-size="10.00">memory</text>
</a>
</g>
</g>
<!-- Node3&#45;&gt;Node5 -->
<g id="edge4_Node000003_Node000005" class="edge">
<title>Node3&#45;&gt;Node5</title>
<g id="a_edge4_Node000003_Node000005"><a xlink:title=" ">
<path fill="none" stroke="#63b8ff" d="M290.32,-54.75C295.02,-47.42 301.88,-36.73 307.67,-27.7"/>
<polygon fill="#63b8ff" stroke="#63b8ff" points="310.74,-29.4 313.19,-19.09 304.85,-25.62 310.74,-29.4"/>
</a>
</g>
</g>
<!-- Node6 -->
<g id="Node000006" class="node">
<title>Node6</title>
<g id="a_Node000006"><a xlink:title=" ">
<polygon fill="#e0e0e0" stroke="#999999" points="701.7,-19 651.7,-19 651.7,0 701.7,0 701.7,-19"/>
<text text-anchor="middle" x="676.7" y="-7" font-family="Helvetica,sans-Serif" font-size="10.00">chrono</text>
</a>
</g>
</g>
<!-- Node3&#45;&gt;Node6 -->
<g id="edge5_Node000003_Node000006" class="edge">
<title>Node3&#45;&gt;Node6</title>
<g id="a_edge5_Node000003_Node000006"><a xlink:title=" ">
<path fill="none" stroke="#63b8ff" d="M338.32,-56.23C341.49,-55.81 344.64,-55.4 347.7,-55 474.74,-38.43 507.23,-39.43 633.7,-19 636.2,-18.6 638.78,-18.15 641.36,-17.69"/>
<polygon fill="#63b8ff" stroke="#63b8ff" points="642.11,-21.11 651.29,-15.83 640.82,-14.23 642.11,-21.11"/>
</a>
</g>
</g>
<!-- Node7&#45;&gt;Node6 -->
<g id="edge29_Node000007_Node000006" class="edge">
<title>Node7&#45;&gt;Node6</title>
<g id="a_edge29_Node000007_Node000006"><a xlink:title=" ">
<path fill="none" stroke="#63b8ff" d="M528.56,-170.52C603.25,-166.14 707.13,-155.36 737.7,-129 763.26,-106.96 771.65,-84.18 754.7,-55 745.37,-38.92 727.8,-28.17 711.7,-21.27"/>
<polygon fill="#63b8ff" stroke="#63b8ff" points="712.54,-17.84 701.95,-17.45 709.99,-24.35 712.54,-17.84"/>
</a>
</g>
</g>
<!-- Node8 -->
<g id="Node000008" class="node">
<title>Node8</title>
<g id="a_Node000008"><a xlink:href="../../d5/dca/Message_8h.html" target="_top" xlink:title=" ">
<polygon fill="white" stroke="#666666" points="727.7,-74 625.7,-74 625.7,-55 727.7,-55 727.7,-74"/>
<text text-anchor="middle" x="676.7" y="-62" font-family="Helvetica,sans-Serif" font-size="10.00">../core/Message.h</text>
</a>
</g>
</g>
<!-- Node7&#45;&gt;Node8 -->
<g id="edge7_Node000007_Node000008" class="edge">
<title>Node7&#45;&gt;Node8</title>
<g id="a_edge7_Node000007_Node000008"><a xlink:title=" ">
<path fill="none" stroke="#63b8ff" d="M528.26,-170.15C593.21,-165.56 677.17,-154.69 698.7,-129 709.89,-115.65 700.55,-96.28 690.82,-82.44"/>
<polygon fill="#63b8ff" stroke="#63b8ff" points="693.43,-80.09 684.58,-74.27 687.86,-84.34 693.43,-80.09"/>
</a>
</g>
</g>
<!-- Node9 -->
<g id="Node000009" class="node">
<title>Node9</title>
<g id="a_Node000009"><a xlink:title=" ">
<polygon fill="#e0e0e0" stroke="#999999" points="624.7,-19 586.7,-19 586.7,0 624.7,0 624.7,-19"/>
<text text-anchor="middle" x="605.7" y="-7" font-family="Helvetica,sans-Serif" font-size="10.00">map</text>
</a>
</g>
</g>
<!-- Node7&#45;&gt;Node9 -->
<g id="edge30_Node000007_Node000009" class="edge">
<title>Node7&#45;&gt;Node9</title>
<g id="a_edge30_Node000007_Node000009"><a xlink:title=" ">
<path fill="none" stroke="#63b8ff" d="M528.32,-168.69C596.21,-163.11 686.61,-151.62 714.7,-129 741.43,-107.49 756.69,-82.89 736.7,-55 730.57,-46.43 671.28,-28.7 634.6,-18.39"/>
<polygon fill="#63b8ff" stroke="#63b8ff" points="635.49,-15.01 624.91,-15.7 633.61,-21.75 635.49,-15.01"/>
</a>
</g>
</g>
<!-- Node10 -->
<g id="Node000010" class="node">
<title>Node10</title>
<g id="a_Node000010"><a xlink:href="../../da/dcc/DeviceManager_8h.html" target="_top" xlink:title=" ">
<polygon fill="white" stroke="#666666" points="153.7,-129 19.7,-129 19.7,-110 153.7,-110 153.7,-129"/>
<text text-anchor="middle" x="86.7" y="-117" font-family="Helvetica,sans-Serif" font-size="10.00">../core/DeviceManager.h</text>
</a>
</g>
</g>
<!-- Node7&#45;&gt;Node10 -->
<g id="edge11_Node000007_Node000010" class="edge">
<title>Node7&#45;&gt;Node10</title>
<g id="a_edge11_Node000007_Node000010"><a xlink:title=" ">
<path fill="none" stroke="#63b8ff" d="M389.7,-164.98C325.72,-155.59 222.86,-140.49 155.02,-130.53"/>
<polygon fill="#63b8ff" stroke="#63b8ff" points="155.26,-127.03 144.86,-129.04 154.24,-133.95 155.26,-127.03"/>
</a>
</g>
</g>
<!-- Node12 -->
<g id="Node000012" class="node">
<title>Node12</title>
<g id="a_Node000012"><a xlink:title=" ">
<polygon fill="#e0e0e0" stroke="#999999" points="404.7,-74 356.7,-74 356.7,-55 404.7,-55 404.7,-74"/>
<text text-anchor="middle" x="380.7" y="-62" font-family="Helvetica,sans-Serif" font-size="10.00">mutex</text>
</a>
</g>
</g>
<!-- Node7&#45;&gt;Node12 -->
<g id="edge25_Node000007_Node000012" class="edge">
<title>Node7&#45;&gt;Node12</title>
<g id="a_edge25_Node000007_Node000012"><a xlink:title=" ">
<path fill="none" stroke="#63b8ff" d="M367.09,-166.7C315.36,-160.48 254.96,-149.08 238.7,-129 233.39,-122.44 233.7,-116.81 238.7,-110 242.01,-105.5 305.59,-86.79 346.54,-75.11"/>
<polygon fill="#63b8ff" stroke="#63b8ff" points="347.75,-78.4 356.41,-72.31 345.84,-71.67 347.75,-78.4"/>
</a>
</g>
</g>
<!-- Node13 -->
<g id="Node000013" class="node">
<title>Node13</title>
<g id="a_Node000013"><a xlink:href="../../d1/de8/IPSecManager_8h.html" target="_top" xlink:title=" ">
<polygon fill="white" stroke="#666666" points="689.2,-129 544.2,-129 544.2,-110 689.2,-110 689.2,-129"/>
<text text-anchor="middle" x="616.7" y="-117" font-family="Helvetica,sans-Serif" font-size="10.00">../security/IPSecManager.h</text>
</a>
</g>
</g>
<!-- Node7&#45;&gt;Node13 -->
<g id="edge18_Node000007_Node000013" class="edge">
<title>Node7&#45;&gt;Node13</title>
<g id="a_edge18_Node000007_Node000013"><a xlink:title=" ">
<path fill="none" stroke="#63b8ff" d="M474.86,-164.98C503.23,-156.09 547.94,-142.07 579.57,-132.15"/>
<polygon fill="#63b8ff" stroke="#63b8ff" points="580.84,-135.41 589.34,-129.08 578.75,-128.73 580.84,-135.41"/>
</a>
</g>
</g>
<!-- Node14 -->
<g id="Node000014" class="node">
<title>Node14</title>
<g id="a_Node000014"><a xlink:title=" ">
<polygon fill="#e0e0e0" stroke="#999999" points="295.2,-129 248.2,-129 248.2,-110 295.2,-110 295.2,-129"/>
<text text-anchor="middle" x="271.7" y="-117" font-family="Helvetica,sans-Serif" font-size="10.00">queue</text>
</a>
</g>
</g>
<!-- Node7&#45;&gt;Node14 -->
<g id="edge24_Node000007_Node000014" class="edge">
<title>Node7&#45;&gt;Node14</title>
<g id="a_edge24_Node000007_Node000014"><a xlink:title=" ">
<path fill="none" stroke="#63b8ff" d="M419.43,-164.98C388.25,-155.6 338.15,-140.51 305.07,-130.55"/>
<polygon fill="#63b8ff" stroke="#63b8ff" points="305.98,-127.17 295.4,-127.63 303.96,-133.87 305.98,-127.17"/>
</a>
</g>
</g>
<!-- Node7&#45;&gt;Node15 -->
<g id="edge26_Node000007_Node000015" class="edge">
<title>Node7&#45;&gt;Node15</title>
<g id="a_edge26_Node000007_Node000015"><a xlink:title=" ">
<path fill="none" stroke="#63b8ff" d="M518.24,-164.98C612.49,-153.61 776.13,-133.85 849.38,-125.01"/>
<polygon fill="#63b8ff" stroke="#63b8ff" points="850,-128.46 859.51,-123.78 849.16,-121.51 850,-128.46"/>
</a>
</g>
</g>
<!-- Node16 -->
<g id="Node000016" class="node">
<title>Node16</title>
<g id="a_Node000016"><a xlink:title=" ">
<polygon fill="#e0e0e0" stroke="#999999" points="361.7,-129 313.7,-129 313.7,-110 361.7,-110 361.7,-129"/>
<text text-anchor="middle" x="337.7" y="-117" font-family="Helvetica,sans-Serif" font-size="10.00">thread</text>
</a>
</g>
</g>
<!-- Node7&#45;&gt;Node16 -->
<g id="edge27_Node000007_Node000016" class="edge">
<title>Node7&#45;&gt;Node16</title>
<g id="a_edge27_Node000007_Node000016"><a xlink:title=" ">
<path fill="none" stroke="#63b8ff" d="M430.03,-164.98C412.41,-156.5 385.13,-143.35 364.78,-133.54"/>
<polygon fill="#63b8ff" stroke="#63b8ff" points="366.23,-130.36 355.7,-129.17 363.19,-136.66 366.23,-130.36"/>
</a>
</g>
</g>
<!-- Node17 -->
<g id="Node000017" class="node">
<title>Node17</title>
<g id="a_Node000017"><a xlink:title=" ">
<polygon fill="#e0e0e0" stroke="#999999" points="487.2,-129 380.2,-129 380.2,-110 487.2,-110 487.2,-129"/>
<text text-anchor="middle" x="433.7" y="-117" font-family="Helvetica,sans-Serif" font-size="10.00">condition_variable</text>
</a>
</g>
</g>
<!-- Node7&#45;&gt;Node17 -->
<g id="edge28_Node000007_Node000017" class="edge">
<title>Node7&#45;&gt;Node17</title>
<g id="a_edge28_Node000007_Node000017"><a xlink:title=" ">
<path fill="none" stroke="#63b8ff" d="M445.39,-164.75C443.54,-157.72 440.87,-147.62 438.55,-138.84"/>
<polygon fill="#63b8ff" stroke="#63b8ff" points="441.91,-137.86 435.97,-129.09 435.14,-139.65 441.91,-137.86"/>
</a>
</g>
</g>
<!-- Node8&#45;&gt;Node4 -->
<g id="edge8_Node000008_Node000004" class="edge">
<title>Node8&#45;&gt;Node4</title>
<g id="a_edge8_Node000008_Node000004"><a xlink:title=" ">
<path fill="none" stroke="#63b8ff" d="M625.69,-60.32C551.83,-55.15 410.73,-43.18 281.99,-18.97"/>
<polygon fill="#63b8ff" stroke="#63b8ff" points="282.44,-15.49 271.96,-17.05 281.12,-22.36 282.44,-15.49"/>
</a>
</g>
</g>
<!-- Node8&#45;&gt;Node6 -->
<g id="edge9_Node000008_Node000006" class="edge">
<title>Node8&#45;&gt;Node6</title>
<g id="a_edge9_Node000008_Node000006"><a xlink:title=" ">
<path fill="none" stroke="#63b8ff" d="M676.7,-54.75C676.7,-47.8 676.7,-37.85 676.7,-29.13"/>
<polygon fill="#63b8ff" stroke="#63b8ff" points="680.2,-29.09 676.7,-19.09 673.2,-29.09 680.2,-29.09"/>
</a>
</g>
</g>
<!-- Node8&#45;&gt;Node9 -->
<g id="edge10_Node000008_Node000009" class="edge">
<title>Node8&#45;&gt;Node9</title>
<g id="a_edge10_Node000008_Node000009"><a xlink:title=" ">
<path fill="none" stroke="#63b8ff" d="M665.3,-54.98C654.59,-47 638.36,-34.88 625.54,-25.31"/>
<polygon fill="#63b8ff" stroke="#63b8ff" points="627.43,-22.35 617.32,-19.17 623.24,-27.96 627.43,-22.35"/>
</a>
</g>
</g>
<!-- Node10&#45;&gt;Node3 -->
<g id="edge12_Node000010_Node000003" class="edge">
<title>Node10&#45;&gt;Node3</title>
<g id="a_edge12_Node000010_Node000003"><a xlink:title=" ">
<path fill="none" stroke="#63b8ff" d="M118.52,-109.98C152.19,-100.97 205.5,-86.7 242.63,-76.76"/>
<polygon fill="#63b8ff" stroke="#63b8ff" points="243.89,-80.05 252.64,-74.08 242.08,-73.29 243.89,-80.05"/>
</a>
</g>
</g>
<!-- Node10&#45;&gt;Node4 -->
<g id="edge16_Node000010_Node000004" class="edge">
<title>Node10&#45;&gt;Node4</title>
<g id="a_edge16_Node000010_Node000004"><a xlink:title=" ">
<path fill="none" stroke="#63b8ff" d="M82.2,-109.66C76.11,-96.33 67.37,-70.98 79.7,-55 96.4,-33.37 172.97,-20.22 217.45,-14.28"/>
<polygon fill="#63b8ff" stroke="#63b8ff" points="218.01,-17.73 227.48,-12.98 217.11,-10.79 218.01,-17.73"/>
</a>
</g>
</g>
<!-- Node10&#45;&gt;Node5 -->
<g id="edge15_Node000010_Node000005" class="edge">
<title>Node10&#45;&gt;Node5</title>
<g id="a_edge15_Node000010_Node000005"><a xlink:title=" ">
<path fill="none" stroke="#63b8ff" d="M98.44,-109.95C116.92,-96.79 154.22,-71.37 188.7,-55 218.32,-40.94 253.61,-29.15 279.94,-21.24"/>
<polygon fill="#63b8ff" stroke="#63b8ff" points="280.96,-24.59 289.56,-18.41 278.98,-17.88 280.96,-24.59"/>
</a>
</g>
</g>
<!-- Node10&#45;&gt;Node9 -->
<g id="edge13_Node000010_Node000009" class="edge">
<title>Node10&#45;&gt;Node9</title>
<g id="a_edge13_Node000010_Node000009"><a xlink:title=" ">
<path fill="none" stroke="#63b8ff" d="M106.6,-110C126.71,-101.3 158.61,-87.22 185.7,-74 201.96,-66.07 204.42,-60.36 221.7,-55 349.27,-15.47 510.53,-10.51 576.03,-10.26"/>
<polygon fill="#63b8ff" stroke="#63b8ff" points="576.41,-13.76 586.41,-10.25 576.41,-6.76 576.41,-13.76"/>
</a>
</g>
</g>
<!-- Node11 -->
<g id="Node000011" class="node">
<title>Node11</title>
<g id="a_Node000011"><a xlink:title=" ">
<polygon fill="#e0e0e0" stroke="#999999" points="136.2,-74 89.2,-74 89.2,-55 136.2,-55 136.2,-74"/>
<text text-anchor="middle" x="112.7" y="-62" font-family="Helvetica,sans-Serif" font-size="10.00">vector</text>
</a>
</g>
</g>
<!-- Node10&#45;&gt;Node11 -->
<g id="edge14_Node000010_Node000011" class="edge">
<title>Node10&#45;&gt;Node11</title>
<g id="a_edge14_Node000010_Node000011"><a xlink:title=" ">
<path fill="none" stroke="#63b8ff" d="M91,-109.75C94.52,-102.57 99.62,-92.18 103.99,-83.27"/>
<polygon fill="#63b8ff" stroke="#63b8ff" points="107.23,-84.61 108.49,-74.09 100.94,-81.53 107.23,-84.61"/>
</a>
</g>
</g>
<!-- Node10&#45;&gt;Node12 -->
<g id="edge17_Node000010_Node000012" class="edge">
<title>Node10&#45;&gt;Node12</title>
<g id="a_edge17_Node000010_Node000012"><a xlink:title=" ">
<path fill="none" stroke="#63b8ff" d="M144,-109.97C196.84,-101.8 277.35,-88.58 346.7,-74 346.8,-73.98 346.9,-73.96 347.01,-73.94"/>
<polygon fill="#63b8ff" stroke="#63b8ff" points="347.63,-77.38 356.61,-71.76 346.08,-70.56 347.63,-77.38"/>
</a>
</g>
</g>
<!-- Node13&#45;&gt;Node4 -->
<g id="edge19_Node000013_Node000004" class="edge">
<title>Node13&#45;&gt;Node4</title>
<g id="a_edge19_Node000013_Node000004"><a xlink:title=" ">
<path fill="none" stroke="#63b8ff" d="M590.52,-109.95C551.95,-97.44 477.51,-73.61 413.7,-55 357.9,-38.73 341.44,-35.41 281.69,-19.25"/>
<polygon fill="#63b8ff" stroke="#63b8ff" points="282.28,-15.79 271.72,-16.55 280.45,-22.54 282.28,-15.79"/>
</a>
</g>
</g>
<!-- Node13&#45;&gt;Node5 -->
<g id="edge21_Node000013_Node000005" class="edge">
<title>Node13&#45;&gt;Node5</title>
<g id="a_edge21_Node000013_Node000005"><a xlink:title=" ">
<path fill="none" stroke="#63b8ff" d="M601.79,-109.84C578.36,-96.53 531.22,-70.92 488.7,-55 444.89,-38.59 392.56,-25.87 357.64,-18.31"/>
<polygon fill="#63b8ff" stroke="#63b8ff" points="358.34,-14.88 347.84,-16.22 356.89,-21.73 358.34,-14.88"/>
</a>
</g>
</g>
<!-- Node13&#45;&gt;Node8 -->
<g id="edge23_Node000013_Node000008" class="edge">
<title>Node13&#45;&gt;Node8</title>
<g id="a_edge23_Node000013_Node000008"><a xlink:title=" ">
<path fill="none" stroke="#63b8ff" d="M626.34,-109.98C635.21,-102.15 648.58,-90.34 659.31,-80.86"/>
<polygon fill="#63b8ff" stroke="#63b8ff" points="661.71,-83.41 666.89,-74.17 657.08,-78.17 661.71,-83.41"/>
</a>
</g>
</g>
<!-- Node13&#45;&gt;Node9 -->
<g id="edge20_Node000013_Node000009" class="edge">
<title>Node13&#45;&gt;Node9</title>
<g id="a_edge20_Node000013_Node000009"><a xlink:title=" ">
<path fill="none" stroke="#63b8ff" d="M615.8,-109.66C614.02,-92.17 610.01,-52.8 607.62,-29.27"/>
<polygon fill="#63b8ff" stroke="#63b8ff" points="611.08,-28.75 606.59,-19.16 604.12,-29.46 611.08,-28.75"/>
</a>
</g>
</g>
<!-- Node13&#45;&gt;Node12 -->
<g id="edge22_Node000013_Node000012" class="edge">
<title>Node13&#45;&gt;Node12</title>
<g id="a_edge22_Node000013_Node000012"><a xlink:title=" ">
<path fill="none" stroke="#63b8ff" d="M578.79,-109.98C533.43,-99.8 458.19,-82.9 414.66,-73.13"/>
<polygon fill="#63b8ff" stroke="#63b8ff" points="415.36,-69.7 404.84,-70.92 413.83,-76.53 415.36,-69.7"/>
</a>
</g>
</g>
<!-- Node18&#45;&gt;Node4 -->
<g id="edge33_Node000018_Node000004" class="edge">
<title>Node18&#45;&gt;Node4</title>
<g id="a_edge33_Node000018_Node000004"><a xlink:title=" ">
<path fill="none" stroke="#63b8ff" d="M294.14,-220C205.71,-205.82 44.76,-174.38 10.7,-129 -45.98,-53.47 139.27,-23.08 217,-13.84"/>
<polygon fill="#63b8ff" stroke="#63b8ff" points="217.68,-17.29 227.22,-12.67 216.89,-10.33 217.68,-17.29"/>
</a>
</g>
</g>
<!-- Node18&#45;&gt;Node7 -->
<g id="edge32_Node000018_Node000007" class="edge">
<title>Node18&#45;&gt;Node7</title>
<g id="a_edge32_Node000018_Node000007"><a xlink:title=" ">
<path fill="none" stroke="#63b8ff" d="M367.97,-219.98C382.84,-211.69 405.69,-198.94 423.12,-189.22"/>
<polygon fill="#63b8ff" stroke="#63b8ff" points="425.13,-192.1 432.16,-184.17 421.72,-185.99 425.13,-192.1"/>
</a>
</g>
</g>
<!-- Node20&#45;&gt;Node3 -->
<g id="edge36_Node000020_Node000003" class="edge">
<title>Node20&#45;&gt;Node3</title>
<g id="a_edge36_Node000020_Node000003"><a xlink:title=" ">
<path fill="none" stroke="#63b8ff" d="M660.58,-166.59C629.27,-158.81 578.25,-145.13 535.7,-129 517.3,-122.02 514.35,-116.3 495.7,-110 447.43,-93.7 390.85,-82.15 348.44,-74.91"/>
<polygon fill="#63b8ff" stroke="#63b8ff" points="348.97,-71.45 338.53,-73.26 347.81,-78.36 348.97,-71.45"/>
</a>
</g>
</g>
<!-- Node20&#45;&gt;Node8 -->
<g id="edge37_Node000020_Node000008" class="edge">
<title>Node20&#45;&gt;Node8</title>
<g id="a_edge37_Node000020_Node000008"><a xlink:title=" ">
<path fill="none" stroke="#63b8ff" d="M702.38,-164.92C718.11,-153.14 741.72,-130.99 731.7,-110 725.61,-97.23 713.86,-86.94 702.78,-79.49"/>
<polygon fill="#63b8ff" stroke="#63b8ff" points="704.5,-76.43 694.16,-74.12 700.8,-82.38 704.5,-76.43"/>
</a>
</g>
</g>
<!-- Node20&#45;&gt;Node15 -->
<g id="edge38_Node000020_Node000015" class="edge">
<title>Node20&#45;&gt;Node15</title>
<g id="a_edge38_Node000020_Node000015"><a xlink:title=" ">
<path fill="none" stroke="#63b8ff" d="M718.77,-165.68C753.4,-156.36 811.34,-140.78 849.28,-130.57"/>
<polygon fill="#63b8ff" stroke="#63b8ff" points="850.67,-133.82 859.42,-127.84 848.86,-127.06 850.67,-133.82"/>
</a>
</g>
</g>
</g>
</svg>
