<?xml version="1.0" encoding="UTF-8" standalone="no"?>
<!DOCTYPE svg PUBLIC "-//W3C//DTD SVG 1.1//EN"
 "http://www.w3.org/Graphics/SVG/1.1/DTD/svg11.dtd">
<!-- Generated by graphviz version 2.43.0 (0)
 -->
<!-- Title: src/devices/Actuator.cpp Pages: 1 -->
<svg width="359pt" height="214pt"
 viewBox="0.00 0.00 359.00 214.00" xmlns="http://www.w3.org/2000/svg" xmlns:xlink="http://www.w3.org/1999/xlink">
<g id="graph0" class="graph" transform="scale(1 1) rotate(0) translate(4 210)">
<title>src/devices/Actuator.cpp</title>
<!-- Node1 -->
<g id="Node000001" class="node">
<title>Node1</title>
<g id="a_Node000001"><a xlink:title=" ">
<polygon fill="#999999" stroke="#666666" points="277.5,-206 142.5,-206 142.5,-187 277.5,-187 277.5,-206"/>
<text text-anchor="middle" x="210" y="-194" font-family="Helvetica,sans-Serif" font-size="10.00">src/devices/Actuator.cpp</text>
</a>
</g>
</g>
<!-- Node2 -->
<g id="Node000002" class="node">
<title>Node2</title>
<g id="a_Node000002"><a xlink:href="../../d0/d81/Actuator_8h.html" target="_top" xlink:title=" ">
<polygon fill="white" stroke="#666666" points="144,-151 34,-151 34,-121 144,-121 144,-151"/>
<text text-anchor="start" x="42" y="-139" font-family="Helvetica,sans-Serif" font-size="10.00">../../include/devices</text>
<text text-anchor="middle" x="89" y="-128" font-family="Helvetica,sans-Serif" font-size="10.00">/Actuator.h</text>
</a>
</g>
</g>
<!-- Node1&#45;&gt;Node2 -->
<g id="edge1_Node000001_Node000002" class="edge">
<title>Node1&#45;&gt;Node2</title>
<g id="a_edge1_Node000001_Node000002"><a xlink:title=" ">
<path fill="none" stroke="#63b8ff" d="M192.41,-186.99C175.43,-178.79 149.17,-166.09 127.36,-155.55"/>
<polygon fill="#63b8ff" stroke="#63b8ff" points="128.85,-152.38 118.32,-151.18 125.8,-158.68 128.85,-152.38"/>
</a>
</g>
</g>
<!-- Node7 -->
<g id="Node000007" class="node">
<title>Node7</title>
<g id="a_Node000007"><a xlink:href="../../d5/dca/Message_8h.html" target="_top" xlink:title=" ">
<polygon fill="white" stroke="#666666" points="237,-85 143,-85 143,-55 237,-55 237,-85"/>
<text text-anchor="start" x="151" y="-73" font-family="Helvetica,sans-Serif" font-size="10.00">../../include/core</text>
<text text-anchor="middle" x="190" y="-62" font-family="Helvetica,sans-Serif" font-size="10.00">/Message.h</text>
</a>
</g>
</g>
<!-- Node1&#45;&gt;Node7 -->
<g id="edge6_Node000001_Node000007" class="edge">
<title>Node1&#45;&gt;Node7</title>
<g id="a_edge6_Node000001_Node000007"><a xlink:title=" ">
<path fill="none" stroke="#63b8ff" d="M207.75,-186.69C205.54,-177.74 202.18,-163.48 200,-151 196.76,-132.4 194.15,-111.2 192.42,-95.29"/>
<polygon fill="#63b8ff" stroke="#63b8ff" points="195.89,-94.8 191.36,-85.22 188.93,-95.54 195.89,-94.8"/>
</a>
</g>
</g>
<!-- Node9 -->
<g id="Node000009" class="node">
<title>Node9</title>
<g id="a_Node000009"><a xlink:title=" ">
<polygon fill="#e0e0e0" stroke="#999999" points="269,-145.5 209,-145.5 209,-126.5 269,-126.5 269,-145.5"/>
<text text-anchor="middle" x="239" y="-133.5" font-family="Helvetica,sans-Serif" font-size="10.00">iostream</text>
</a>
</g>
</g>
<!-- Node1&#45;&gt;Node9 -->
<g id="edge10_Node000001_Node000009" class="edge">
<title>Node1&#45;&gt;Node9</title>
<g id="a_edge10_Node000001_Node000009"><a xlink:title=" ">
<path fill="none" stroke="#63b8ff" d="M214.28,-186.87C218.43,-178.49 224.87,-165.51 230.13,-154.89"/>
<polygon fill="#63b8ff" stroke="#63b8ff" points="233.4,-156.18 234.7,-145.67 227.13,-153.07 233.4,-156.18"/>
</a>
</g>
</g>
<!-- Node10 -->
<g id="Node000010" class="node">
<title>Node10</title>
<g id="a_Node000010"><a xlink:title=" ">
<polygon fill="#e0e0e0" stroke="#999999" points="351,-145.5 287,-145.5 287,-126.5 351,-126.5 351,-145.5"/>
<text text-anchor="middle" x="319" y="-133.5" font-family="Helvetica,sans-Serif" font-size="10.00">algorithm</text>
</a>
</g>
</g>
<!-- Node1&#45;&gt;Node10 -->
<g id="edge11_Node000001_Node000010" class="edge">
<title>Node1&#45;&gt;Node10</title>
<g id="a_edge11_Node000001_Node000010"><a xlink:title=" ">
<path fill="none" stroke="#63b8ff" d="M226.08,-186.87C243.95,-177.28 273.04,-161.67 293.91,-150.47"/>
<polygon fill="#63b8ff" stroke="#63b8ff" points="295.69,-153.48 302.85,-145.67 292.38,-147.31 295.69,-153.48"/>
</a>
</g>
</g>
<!-- Node3 -->
<g id="Node000003" class="node">
<title>Node3</title>
<g id="a_Node000003"><a xlink:href="../../de/daa/IoTDevice_8h.html" target="_top" xlink:title=" ">
<polygon fill="white" stroke="#666666" points="124.5,-79.5 17.5,-79.5 17.5,-60.5 124.5,-60.5 124.5,-79.5"/>
<text text-anchor="middle" x="71" y="-67.5" font-family="Helvetica,sans-Serif" font-size="10.00">../core/IoTDevice.h</text>
</a>
</g>
</g>
<!-- Node2&#45;&gt;Node3 -->
<g id="edge2_Node000002_Node000003" class="edge">
<title>Node2&#45;&gt;Node3</title>
<g id="a_edge2_Node000002_Node000003"><a xlink:title=" ">
<path fill="none" stroke="#63b8ff" d="M85.01,-120.8C82.42,-111.6 79.02,-99.53 76.23,-89.58"/>
<polygon fill="#63b8ff" stroke="#63b8ff" points="79.56,-88.52 73.49,-79.84 72.83,-90.42 79.56,-88.52"/>
</a>
</g>
</g>
<!-- Node4 -->
<g id="Node000004" class="node">
<title>Node4</title>
<g id="a_Node000004"><a xlink:title=" ">
<polygon fill="#e0e0e0" stroke="#999999" points="120,-19 76,-19 76,0 120,0 120,-19"/>
<text text-anchor="middle" x="98" y="-7" font-family="Helvetica,sans-Serif" font-size="10.00">string</text>
</a>
</g>
</g>
<!-- Node3&#45;&gt;Node4 -->
<g id="edge3_Node000003_Node000004" class="edge">
<title>Node3&#45;&gt;Node4</title>
<g id="a_edge3_Node000003_Node000004"><a xlink:title=" ">
<path fill="none" stroke="#63b8ff" d="M74.98,-60.37C78.85,-51.99 84.84,-39.01 89.74,-28.39"/>
<polygon fill="#63b8ff" stroke="#63b8ff" points="92.99,-29.71 94,-19.17 86.63,-26.78 92.99,-29.71"/>
</a>
</g>
</g>
<!-- Node5 -->
<g id="Node000005" class="node">
<title>Node5</title>
<g id="a_Node000005"><a xlink:title=" ">
<polygon fill="#e0e0e0" stroke="#999999" points="58,-19 0,-19 0,0 58,0 58,-19"/>
<text text-anchor="middle" x="29" y="-7" font-family="Helvetica,sans-Serif" font-size="10.00">memory</text>
</a>
</g>
</g>
<!-- Node3&#45;&gt;Node5 -->
<g id="edge4_Node000003_Node000005" class="edge">
<title>Node3&#45;&gt;Node5</title>
<g id="a_edge4_Node000003_Node000005"><a xlink:title=" ">
<path fill="none" stroke="#63b8ff" d="M64.8,-60.37C58.6,-51.73 48.89,-38.2 41.14,-27.42"/>
<polygon fill="#63b8ff" stroke="#63b8ff" points="43.9,-25.25 35.22,-19.17 38.21,-29.33 43.9,-25.25"/>
</a>
</g>
</g>
<!-- Node6 -->
<g id="Node000006" class="node">
<title>Node6</title>
<g id="a_Node000006"><a xlink:title=" ">
<polygon fill="#e0e0e0" stroke="#999999" points="188,-19 138,-19 138,0 188,0 188,-19"/>
<text text-anchor="middle" x="163" y="-7" font-family="Helvetica,sans-Serif" font-size="10.00">chrono</text>
</a>
</g>
</g>
<!-- Node3&#45;&gt;Node6 -->
<g id="edge5_Node000003_Node000006" class="edge">
<title>Node3&#45;&gt;Node6</title>
<g id="a_edge5_Node000003_Node000006"><a xlink:title=" ">
<path fill="none" stroke="#63b8ff" d="M84.57,-60.37C99.39,-50.95 123.33,-35.73 140.86,-24.58"/>
<polygon fill="#63b8ff" stroke="#63b8ff" points="142.81,-27.49 149.37,-19.17 139.05,-21.58 142.81,-27.49"/>
</a>
</g>
</g>
<!-- Node7&#45;&gt;Node4 -->
<g id="edge7_Node000007_Node000004" class="edge">
<title>Node7&#45;&gt;Node4</title>
<g id="a_edge7_Node000007_Node000004"><a xlink:title=" ">
<path fill="none" stroke="#63b8ff" d="M167.73,-54.84C153.33,-45.68 134.67,-33.82 120.27,-24.66"/>
<polygon fill="#63b8ff" stroke="#63b8ff" points="121.83,-21.51 111.52,-19.09 118.08,-27.41 121.83,-21.51"/>
</a>
</g>
</g>
<!-- Node7&#45;&gt;Node6 -->
<g id="edge8_Node000007_Node000006" class="edge">
<title>Node7&#45;&gt;Node6</title>
<g id="a_edge8_Node000007_Node000006"><a xlink:title=" ">
<path fill="none" stroke="#63b8ff" d="M183.46,-54.84C179.82,-46.95 175.26,-37.05 171.36,-28.61"/>
<polygon fill="#63b8ff" stroke="#63b8ff" points="174.41,-26.88 167.05,-19.27 168.06,-29.81 174.41,-26.88"/>
</a>
</g>
</g>
<!-- Node8 -->
<g id="Node000008" class="node">
<title>Node8</title>
<g id="a_Node000008"><a xlink:title=" ">
<polygon fill="#e0e0e0" stroke="#999999" points="244,-19 206,-19 206,0 244,0 244,-19"/>
<text text-anchor="middle" x="225" y="-7" font-family="Helvetica,sans-Serif" font-size="10.00">map</text>
</a>
</g>
</g>
<!-- Node7&#45;&gt;Node8 -->
<g id="edge9_Node000007_Node000008" class="edge">
<title>Node7&#45;&gt;Node8</title>
<g id="a_edge9_Node000007_Node000008"><a xlink:title=" ">
<path fill="none" stroke="#63b8ff" d="M198.47,-54.84C203.29,-46.78 209.37,-36.62 214.5,-28.06"/>
<polygon fill="#63b8ff" stroke="#63b8ff" points="217.62,-29.64 219.76,-19.27 211.62,-26.05 217.62,-29.64"/>
</a>
</g>
</g>
</g>
</svg>
