<?xml version="1.0" encoding="UTF-8" standalone="no"?>
<!DOCTYPE svg PUBLIC "-//W3C//DTD SVG 1.1//EN"
 "http://www.w3.org/Graphics/SVG/1.1/DTD/svg11.dtd">
<!-- Generated by graphviz version 2.43.0 (0)
 -->
<!-- Title: iot::getProtocolCharacteristics Pages: 1 -->
<svg width="348pt" height="124pt"
 viewBox="0.00 0.00 348.00 124.00" xmlns="http://www.w3.org/2000/svg" xmlns:xlink="http://www.w3.org/1999/xlink">
<g id="graph0" class="graph" transform="scale(1 1) rotate(0) translate(4 120)">
<title>iot::getProtocolCharacteristics</title>
<!-- Node1 -->
<g id="Node000001" class="node">
<title>Node1</title>
<g id="a_Node000001"><a xlink:title=" ">
<polygon fill="#999999" stroke="#666666" points="340,-67.5 176,-67.5 176,-48.5 340,-48.5 340,-67.5"/>
<text text-anchor="middle" x="258" y="-55.5" font-family="Helvetica,sans-Serif" font-size="10.00">iot::getProtocolCharacteristics</text>
</a>
</g>
</g>
<!-- Node2 -->
<g id="Node000002" class="node">
<title>Node2</title>
<g id="a_Node000002"><a xlink:href="../../d8/d4f/classiot_1_1ProtocolAwareDevice.html#a62f7250b75957f2b0ff0c8261ed8ae24" target="_top" xlink:title=" ">
<polygon fill="white" stroke="#666666" points="140,-116 0,-116 0,-86 140,-86 140,-116"/>
<text text-anchor="start" x="8" y="-104" font-family="Helvetica,sans-Serif" font-size="10.00">iot::ProtocolAwareDevice</text>
<text text-anchor="middle" x="70" y="-93" font-family="Helvetica,sans-Serif" font-size="10.00">::getProtocolName</text>
</a>
</g>
</g>
<!-- Node1&#45;&gt;Node2 -->
<g id="edge1_Node000001_Node000002" class="edge">
<title>Node1&#45;&gt;Node2</title>
<g id="a_edge1_Node000001_Node000002"><a xlink:title=" ">
<path fill="none" stroke="#63b8ff" d="M205.77,-69.84C184.18,-74.84 158.79,-80.7 135.91,-85.99"/>
<polygon fill="#63b8ff" stroke="#63b8ff" points="206.77,-73.21 215.72,-67.54 205.19,-66.39 206.77,-73.21"/>
</a>
</g>
</g>
<!-- Node3 -->
<g id="Node000003" class="node">
<title>Node3</title>
<g id="a_Node000003"><a xlink:href="../../df/d0a/main_8cpp.html#ae66f6b31b5ad750f1fe042a706a4e3d4" target="_top" xlink:title=" ">
<polygon fill="white" stroke="#666666" points="90.5,-67.5 49.5,-67.5 49.5,-48.5 90.5,-48.5 90.5,-67.5"/>
<text text-anchor="middle" x="70" y="-55.5" font-family="Helvetica,sans-Serif" font-size="10.00">main</text>
</a>
</g>
</g>
<!-- Node1&#45;&gt;Node3 -->
<g id="edge2_Node000001_Node000003" class="edge">
<title>Node1&#45;&gt;Node3</title>
<g id="a_edge2_Node000001_Node000003"><a xlink:title=" ">
<path fill="none" stroke="#63b8ff" d="M165.94,-58C137.54,-58 108.89,-58 90.61,-58"/>
<polygon fill="#63b8ff" stroke="#63b8ff" points="165.96,-61.5 175.96,-58 165.96,-54.5 165.96,-61.5"/>
</a>
</g>
</g>
<!-- Node4 -->
<g id="Node000004" class="node">
<title>Node4</title>
<g id="a_Node000004"><a xlink:href="../../d5/de3/classiot_1_1NetworkManager.html#aa36494fe5df8f8f43d8834a46f830bb9" target="_top" xlink:title=" ">
<polygon fill="white" stroke="#666666" points="129.5,-30 10.5,-30 10.5,0 129.5,0 129.5,-30"/>
<text text-anchor="start" x="18.5" y="-18" font-family="Helvetica,sans-Serif" font-size="10.00">iot::NetworkManager</text>
<text text-anchor="middle" x="70" y="-7" font-family="Helvetica,sans-Serif" font-size="10.00">::setDeviceProtocol</text>
</a>
</g>
</g>
<!-- Node1&#45;&gt;Node4 -->
<g id="edge3_Node000001_Node000004" class="edge">
<title>Node1&#45;&gt;Node4</title>
<g id="a_edge3_Node000001_Node000004"><a xlink:title=" ">
<path fill="none" stroke="#63b8ff" d="M205.92,-46.19C182.36,-40.74 154.25,-34.25 129.8,-28.59"/>
<polygon fill="#63b8ff" stroke="#63b8ff" points="205.19,-49.61 215.72,-48.46 206.77,-42.79 205.19,-49.61"/>
</a>
</g>
</g>
</g>
</svg>
